<?xml version="1.0" encoding="UTF-8" standalone="no"?>
<!-- Generator: Adobe Illustrator 19.1.1, SVG Export Plug-In . SVG Version: 6.00 Build 0)  -->

<svg
   xmlns:dc="http://purl.org/dc/elements/1.1/"
   xmlns:cc="http://creativecommons.org/ns#"
   xmlns:rdf="http://www.w3.org/1999/02/22-rdf-syntax-ns#"
   xmlns:svg="http://www.w3.org/2000/svg"
   xmlns="http://www.w3.org/2000/svg"
   xmlns:sodipodi="http://sodipodi.sourceforge.net/DTD/sodipodi-0.dtd"
   xmlns:inkscape="http://www.inkscape.org/namespaces/inkscape"
   version="1.1"
   id="Layer_1"
   x="0px"
   y="0px"
   viewBox="-181 142.3 183.89999 206"
   xml:space="preserve"
   inkscape:version="0.91 r13725"
   sodipodi:docname="security-sandboxing.svg"
   width="183.89999"
   height="206"><metadata
     id="metadata55"><rdf:RDF><cc:Work
         rdf:about=""><dc:format>image/svg+xml</dc:format><dc:type
           rdf:resource="http://purl.org/dc/dcmitype/StillImage" /><dc:title></dc:title></cc:Work></rdf:RDF></metadata><defs
     id="defs53" /><sodipodi:namedview
     pagecolor="#ffffff"
     bordercolor="#666666"
     borderopacity="1"
     objecttolerance="10"
     gridtolerance="10"
     guidetolerance="10"
     inkscape:pageopacity="0"
     inkscape:pageshadow="2"
     inkscape:window-width="1553"
     inkscape:window-height="938"
     id="namedview51"
     showgrid="false"
     fit-margin-top="0"
     fit-margin-left="0"
     fit-margin-right="0"
     fit-margin-bottom="0"
     inkscape:zoom="0.50921273"
     inkscape:cx="16.112606"
     inkscape:cy="124.85"
     inkscape:window-x="3731"
     inkscape:window-y="746"
     inkscape:window-maximized="0"
     inkscape:current-layer="Layer_1" /><style
     type="text/css"
     id="style3">
	.st0{fill:#29234C;}
	.st1{fill:#FFFFFF;}
	.st2{fill:#B6B6D8;}
	.st3{fill:#DFDFF4;}
	.st4{fill:#C9C9E2;}
	.st5{fill:none;stroke:#FFFFFF;stroke-width:3;stroke-miterlimit:10;}
</style><g
     id="g5"
     transform="translate(-362.1,-43.699997)"><ellipse
       class="st0"
       cx="272"
       cy="274.79999"
       rx="51.5"
       ry="53.5"
       id="ellipse7"
       style="fill:#29234C" /><g
       id="g9"><path
         class="st0"
         d="m 365,392 c 0,-34.8 -27.7,-62 -62.5,-62 l -54,0 c -34.8,0 -63.5,27.2 -63.5,62 l 0,0 180,0 0,0 z"
         id="path11"
         inkscape:connector-curvature="0"
         style="fill:#29234C" /></g><polygon
       class="st0"
       points="364.7,271 323.6,241.4 304.5,186 241.1,186 220.5,240.9 181.1,271 "
       id="polygon13"
       style="fill:#29234C" /><polygon
       class="st0"
       points="208.4,298.3 225.9,336 254.4,336 273.7,336 "
       id="polygon15"
       style="fill:#29234C" /><polygon
       class="st0"
       points="337.1,298.3 319.6,336 291.2,336 271.8,336 "
       id="polygon17"
       style="fill:#29234C" /><rect
       x="252.5"
       y="318"
       class="st0"
       width="51.900002"
       height="29.9"
       id="rect19"
       style="fill:#29234C" /><path
       class="st1"
       d="m 231.6,265.2 30.1,9.7 c 0,-0.1 -30.1,26.6 -30.1,-9.7 z"
       id="path21"
       inkscape:connector-curvature="0"
       style="fill:#ffffff" /><path
       class="st1"
       d="m 308.6,265.2 -30.1,9.7 c 0,-0.1 30.1,26.6 30.1,-9.7 z"
       id="path23"
       inkscape:connector-curvature="0"
       style="fill:#ffffff" /></g></svg>
