<?xml version="1.0" encoding="utf-8"?>
<!-- Generator: Adobe Illustrator 19.2.0, SVG Export Plug-In . SVG Version: 6.00 Build 0)  -->
<svg version="1.1" id="Layer_1" xmlns="http://www.w3.org/2000/svg" xmlns:xlink="http://www.w3.org/1999/xlink" x="0px" y="0px"
	 preserveAspectRatio="xMidYMax" viewBox="0 0 327.7 239" style="enable-background:new 0 0 327.7 239;" xml:space="preserve">
<style type="text/css">
	.st0{fill:#35265C;}
</style>
<g>
	<polyline class="st0" points="89,116 76.8,116 75.5,116 63,116 63,128.7 63,130 63,142.4 63,154.9 63,167 75.5,167 76.8,167 
		89.3,167 101.8,167 114.3,167 114,153.7 114,141 102,141 102,129 89,129 89,116 	"/>
	<polyline class="st0" points="173,39 160,39 160,53 173,53 173,39 	"/>
	<path class="st0" d="M119.1,123H105v14h14.1L119.1,123 M105,109.5l-13,0V123h13V109.5"/>
	<polyline class="st0" points="143.4,100 129.7,100 130,113.3 130,124.5 130,125.8 130,137 130,138.3 130,151 142.2,151 143.4,151 
		154.6,151 155.9,151 168.4,151 180.9,151 180.7,137.1 168,137 168,125 156,125 156,112 143.5,112.3 143.4,100 	"/>
	<polyline class="st0" points="162,88 148.2,88 148.2,101.7 162,101.6 162,88 	"/>
	<polyline class="st0" points="232,13 218,13 218,27 232,27 232,13 	"/>
	<polyline class="st0" points="177,102.9 163,102.9 163,117 177,117 177,102.9 	"/>
	<polyline class="st0" points="282,3.6 269,3.6 269,17 276,17 276,27.2 289.7,27 289.7,13 282,13 282,3.6 	"/>
	<polyline class="st0" points="258,42 244,42 244,56 258,56 258,42 	"/>
	<polyline class="st0" points="191,117 177,117 177,131.1 191,131.1 191,117 	"/>
	<polyline class="st0" points="128.8,169 116,169 116,182 116,183.2 116,194.5 116,195.7 116,208.2 116.3,221 128.8,221 130.1,221 
		141.3,221 142.6,221 153.8,221 155,221 168,221 168,208.2 168,207 168,194 155,194 155,182 143,182 143,169.5 128.8,169 	"/>
	<polyline class="st0" points="160,164 146,164 146,177 159.6,177 159.4,190.9 173,191.1 173,177 160,177 160,164 	"/>
	<polyline class="st0" points="267.5,77 254,77 254,90 267.5,90 267.5,77 	"/>
	<polyline class="st0" points="213,86 199.6,86 199.6,99 199.6,99 200,112.4 200,123.7 200,124.9 200,137 213.3,137 225,137 
		225,137.4 238.3,137 251,137 251,124 238,124 238,111 235,111 235,102 226,102 226,99 213,99 213,86 	"/>
	<polyline class="st0" points="220,146 206,146 206,160 220,160 220,146 	"/>
	<polyline class="st0" points="300,77 286.2,77 286.2,91 300,91 300,77 	"/>
	<polyline class="st0" points="234,160 220,160 220,174 234,174 234,160 	"/>
	<polyline class="st0" points="327,54 313,54 313,59 312,59 312,73 326,73 326,68 327,68 327,54 	"/>
	<polyline class="st0" points="307,106.7 293.2,106.7 293.2,120.5 307,120.5 307,106.7 	"/>
	<polyline class="st0" points="249,175 236,175 236,188.9 249,188.9 249,175 	"/>
	<polyline class="st0" points="200,156.1 186.1,156.1 186,169.9 186,181.1 186,182.4 186,193.6 186,194.9 186,207 198.8,207 
		200,207 211.2,207 212.5,207 223.7,207 225,207 237.5,207 237.5,194 225,194 225,181.1 212,181.1 212,169 200,169 200,156.1 	"/>
	<polyline class="st0" points="214,217.9 200,217.9 200,232 213.9,232 214,232 214,217.9 	"/>
	<polyline class="st0" points="299,164 285.3,164 285.3,177.9 299,178 299,164 	"/>
	<polyline class="st0" points="228,232 214,232 213.9,232 213.9,239 228,239 228,232 	"/>
	<polyline class="st0" points="196,222.7 182.1,223 169.6,223 170,236.5 170,239 208,239 208,235 196,235 196,222.7 	"/>
	<polyline class="st0" points="55,136 0,136 0,239 154.8,239 154.8,235.9 104.9,235.9 104.9,185.9 55,185.9 55,136 	"/>
</g>
</svg>
