<?xml version="1.0" encoding="utf-8"?>
<!-- Generator: Adobe Illustrator 19.2.0, SVG Export Plug-In . SVG Version: 6.00 Build 0)  -->
<svg version="1.1" id="Layer_1" xmlns="http://www.w3.org/2000/svg" xmlns:xlink="http://www.w3.org/1999/xlink" x="0px" y="0px"
	 viewBox="0 0 327.7 239" style="enable-background:new 0 0 327.7 239;" xml:space="preserve">
<style type="text/css">
	.st0{clip-path:url(#SVGID_2_);}
	.st1{clip-path:url(#SVGID_4_);fill:url(#SVGID_5_);}
	.st2{clip-path:url(#SVGID_4_);fill:url(#SVGID_6_);}
	.st3{clip-path:url(#SVGID_4_);fill:url(#SVGID_7_);}
	.st4{clip-path:url(#SVGID_4_);fill:url(#SVGID_8_);}
	.st5{clip-path:url(#SVGID_4_);fill:url(#SVGID_9_);}
	.st6{clip-path:url(#SVGID_4_);fill:url(#SVGID_10_);}
	.st7{clip-path:url(#SVGID_4_);fill:url(#SVGID_11_);}
	.st8{clip-path:url(#SVGID_4_);fill:url(#SVGID_12_);}
	.st9{clip-path:url(#SVGID_4_);fill:url(#SVGID_13_);}
	.st10{clip-path:url(#SVGID_4_);fill:url(#SVGID_14_);}
	.st11{clip-path:url(#SVGID_4_);fill:url(#SVGID_15_);}
	.st12{clip-path:url(#SVGID_4_);fill:url(#SVGID_16_);}
	.st13{clip-path:url(#SVGID_4_);fill:url(#SVGID_17_);}
	.st14{clip-path:url(#SVGID_4_);fill:url(#SVGID_18_);}
	.st15{clip-path:url(#SVGID_4_);fill:url(#SVGID_19_);}
	.st16{clip-path:url(#SVGID_4_);fill:url(#SVGID_20_);}
	.st17{clip-path:url(#SVGID_4_);fill:url(#SVGID_21_);}
	.st18{clip-path:url(#SVGID_4_);fill:url(#SVGID_22_);}
	.st19{clip-path:url(#SVGID_4_);fill:url(#SVGID_23_);}
	.st20{clip-path:url(#SVGID_4_);fill:url(#SVGID_24_);}
	.st21{clip-path:url(#SVGID_4_);fill:url(#SVGID_25_);}
	.st22{clip-path:url(#SVGID_4_);fill:url(#SVGID_26_);}
	.st23{clip-path:url(#SVGID_4_);fill:url(#SVGID_27_);}
	.st24{clip-path:url(#SVGID_4_);fill:url(#SVGID_28_);}
	.st25{clip-path:url(#SVGID_4_);fill:url(#SVGID_29_);}
	.st26{clip-path:url(#SVGID_4_);fill:url(#SVGID_30_);}
</style>
<g>
	<g>
		<defs>
			<polyline id="SVGID_1_" points="323,239 0,239 0,-42 323,-42 323,239 			"/>
		</defs>
		<clipPath id="SVGID_2_">
			<use xlink:href="#SVGID_1_"  style="overflow:visible;"/>
		</clipPath>
		<g class="st0">
			<defs>
				<polyline id="SVGID_3_" points="-0.1,7 322,7 322,339.4 -0.1,339.4 -0.1,7 				"/>
			</defs>
			<clipPath id="SVGID_4_">
				<use xlink:href="#SVGID_3_"  style="overflow:visible;"/>
			</clipPath>
			
				<linearGradient id="SVGID_5_" gradientUnits="userSpaceOnUse" x1="0" y1="-161.1316" x2="1" y2="-161.1316" gradientTransform="matrix(-363.0609 363.0609 363.0609 363.0609 58791.7773 58439.6914)">
				<stop  offset="0" style="stop-color:#FFFFFF"/>
				<stop  offset="2.228141e-003" style="stop-color:#FFFFFF"/>
				<stop  offset="0.2474" style="stop-color:#E6E3F0"/>
				<stop  offset="0.4948" style="stop-color:#D5D0E5"/>
				<stop  offset="0.7448" style="stop-color:#CAC4DE"/>
				<stop  offset="1" style="stop-color:#C7C0DC"/>
			</linearGradient>
			<polyline class="st1" points="88,118 75.7,118 74.5,118 62,118 62,130.3 62,131.5 62,143.8 62,156.1 62,168 74.5,168 75.7,168 
				88,168 100.3,168 112.6,168 113,154.9 113,143 100,143 100,130 88,130 88,118 			"/>
			
				<linearGradient id="SVGID_6_" gradientUnits="userSpaceOnUse" x1="0" y1="-161.1554" x2="1" y2="-161.1554" gradientTransform="matrix(-363.0609 363.0609 363.0609 363.0609 58791.7773 58439.6914)">
				<stop  offset="0" style="stop-color:#FFFFFF"/>
				<stop  offset="2.228141e-003" style="stop-color:#FFFFFF"/>
				<stop  offset="0.2474" style="stop-color:#E6E3F0"/>
				<stop  offset="0.4948" style="stop-color:#D5D0E5"/>
				<stop  offset="0.7448" style="stop-color:#CAC4DE"/>
				<stop  offset="1" style="stop-color:#C7C0DC"/>
			</linearGradient>
			<polyline class="st2" points="171,42 157,42 157,56 171,56 171,42 			"/>
			
				<linearGradient id="SVGID_7_" gradientUnits="userSpaceOnUse" x1="0" y1="-161.1343" x2="1" y2="-161.1343" gradientTransform="matrix(-363.0609 363.0609 363.0609 363.0609 58791.7773 58439.6914)">
				<stop  offset="0" style="stop-color:#FFFFFF"/>
				<stop  offset="2.228141e-003" style="stop-color:#FFFFFF"/>
				<stop  offset="0.2474" style="stop-color:#E6E3F0"/>
				<stop  offset="0.4948" style="stop-color:#D5D0E5"/>
				<stop  offset="0.7448" style="stop-color:#CAC4DE"/>
				<stop  offset="1" style="stop-color:#C7C0DC"/>
			</linearGradient>
			<path class="st3" d="M104,125L104,125 M117.4,125H104v13h13.4L117.4,125 M104,111.3l-14,0V125h14V111.3"/>
			
				<linearGradient id="SVGID_8_" gradientUnits="userSpaceOnUse" x1="0" y1="-161.0631" x2="1" y2="-161.0631" gradientTransform="matrix(-363.0609 363.0609 363.0609 363.0609 58791.7773 58439.6914)">
				<stop  offset="0" style="stop-color:#FFFFFF"/>
				<stop  offset="2.228141e-003" style="stop-color:#FFFFFF"/>
				<stop  offset="0.2474" style="stop-color:#E6E3F0"/>
				<stop  offset="0.4948" style="stop-color:#D5D0E5"/>
				<stop  offset="0.7448" style="stop-color:#CAC4DE"/>
				<stop  offset="1" style="stop-color:#C7C0DC"/>
			</linearGradient>
			<polyline class="st4" points="141.3,102 127.8,102 128,115.1 128,126.2 128,127.4 128,138.5 128,139.7 128,152 140.1,152 
				141.3,152 152.4,152 153.7,152 166,152 178.3,152 178.3,138.5 166,138.5 166,126 154,126 154,113.8 141.5,114.1 141.3,102 			"/>
			
				<linearGradient id="SVGID_9_" gradientUnits="userSpaceOnUse" x1="0" y1="-161.1047" x2="1" y2="-161.1047" gradientTransform="matrix(-363.0609 363.0609 363.0609 363.0609 58791.7773 58439.6914)">
				<stop  offset="0" style="stop-color:#FFFFFF"/>
				<stop  offset="2.228141e-003" style="stop-color:#FFFFFF"/>
				<stop  offset="0.2474" style="stop-color:#E6E3F0"/>
				<stop  offset="0.4948" style="stop-color:#D5D0E5"/>
				<stop  offset="0.7448" style="stop-color:#CAC4DE"/>
				<stop  offset="1" style="stop-color:#C7C0DC"/>
			</linearGradient>
			<polyline class="st5" points="160,90 146.1,90 146.3,103.6 160,103.6 160,90 			"/>
			
				<linearGradient id="SVGID_10_" gradientUnits="userSpaceOnUse" x1="0" y1="-161.1107" x2="1" y2="-161.1107" gradientTransform="matrix(-363.0609 363.0609 363.0609 363.0609 58791.7773 58439.6914)">
				<stop  offset="0" style="stop-color:#FFFFFF"/>
				<stop  offset="2.228141e-003" style="stop-color:#FFFFFF"/>
				<stop  offset="0.2474" style="stop-color:#E6E3F0"/>
				<stop  offset="0.4948" style="stop-color:#D5D0E5"/>
				<stop  offset="0.7448" style="stop-color:#CAC4DE"/>
				<stop  offset="1" style="stop-color:#C7C0DC"/>
			</linearGradient>
			<polyline class="st6" points="229,17 215,17 215,30 229,30 229,17 			"/>
			
				<linearGradient id="SVGID_11_" gradientUnits="userSpaceOnUse" x1="0" y1="-161.0646" x2="1" y2="-161.0646" gradientTransform="matrix(-363.0609 363.0609 363.0609 363.0609 58791.7773 58439.6914)">
				<stop  offset="0" style="stop-color:#FFFFFF"/>
				<stop  offset="2.228141e-003" style="stop-color:#FFFFFF"/>
				<stop  offset="0.2474" style="stop-color:#E6E3F0"/>
				<stop  offset="0.4948" style="stop-color:#D5D0E5"/>
				<stop  offset="0.7448" style="stop-color:#CAC4DE"/>
				<stop  offset="1" style="stop-color:#C7C0DC"/>
			</linearGradient>
			<polyline class="st7" points="174,104.9 161,104.9 161,118 174,118 174,104.9 			"/>
			
				<linearGradient id="SVGID_12_" gradientUnits="userSpaceOnUse" x1="0" y1="-161.0439" x2="1" y2="-161.0439" gradientTransform="matrix(-363.0609 363.0609 363.0609 363.0609 58791.7773 58439.6914)">
				<stop  offset="0" style="stop-color:#FFFFFF"/>
				<stop  offset="2.228141e-003" style="stop-color:#FFFFFF"/>
				<stop  offset="0.2474" style="stop-color:#E6E3F0"/>
				<stop  offset="0.4948" style="stop-color:#D5D0E5"/>
				<stop  offset="0.7448" style="stop-color:#CAC4DE"/>
				<stop  offset="1" style="stop-color:#C7C0DC"/>
			</linearGradient>
			<polyline class="st8" points="278,7 278,7 265,7 265,21 272,21 272,30.2 285.6,30.4 285.6,17 278,17 278,7 			"/>
			
				<linearGradient id="SVGID_13_" gradientUnits="userSpaceOnUse" x1="0" y1="-161.0368" x2="1" y2="-161.0368" gradientTransform="matrix(-363.0609 363.0609 363.0609 363.0609 58791.7773 58439.6914)">
				<stop  offset="0" style="stop-color:#FFFFFF"/>
				<stop  offset="2.228141e-003" style="stop-color:#FFFFFF"/>
				<stop  offset="0.2474" style="stop-color:#E6E3F0"/>
				<stop  offset="0.4948" style="stop-color:#D5D0E5"/>
				<stop  offset="0.7448" style="stop-color:#CAC4DE"/>
				<stop  offset="1" style="stop-color:#C7C0DC"/>
			</linearGradient>
			<polyline class="st9" points="254.3,45 241,45 241,58 254.3,58 254.3,45 			"/>
			
				<linearGradient id="SVGID_14_" gradientUnits="userSpaceOnUse" x1="0" y1="-161.0255" x2="1" y2="-161.0255" gradientTransform="matrix(-363.0609 363.0609 363.0609 363.0609 58791.7773 58439.6914)">
				<stop  offset="0" style="stop-color:#FFFFFF"/>
				<stop  offset="2.228141e-003" style="stop-color:#FFFFFF"/>
				<stop  offset="0.2474" style="stop-color:#E6E3F0"/>
				<stop  offset="0.4948" style="stop-color:#D5D0E5"/>
				<stop  offset="0.7448" style="stop-color:#CAC4DE"/>
				<stop  offset="1" style="stop-color:#C7C0DC"/>
			</linearGradient>
			<polyline class="st10" points="188,119 175,119 175,132.7 188,132.7 188,119 			"/>
			
				<linearGradient id="SVGID_15_" gradientUnits="userSpaceOnUse" x1="0" y1="-160.9867" x2="1" y2="-160.9867" gradientTransform="matrix(-363.0609 363.0609 363.0609 363.0609 58791.7773 58439.6914)">
				<stop  offset="0" style="stop-color:#FFFFFF"/>
				<stop  offset="2.228141e-003" style="stop-color:#FFFFFF"/>
				<stop  offset="0.2474" style="stop-color:#E6E3F0"/>
				<stop  offset="0.4948" style="stop-color:#D5D0E5"/>
				<stop  offset="0.7448" style="stop-color:#CAC4DE"/>
				<stop  offset="1" style="stop-color:#C7C0DC"/>
			</linearGradient>
			<polyline class="st11" points="127,170 115,170 115,182.8 115,184 115,195.1 115,196.3 115,208.7 114.6,221 127,221 128.2,221 
				139.3,221 140.5,221 151.6,221 152.8,221 165,221 165,208.7 165,207.4 165,195 153,195 153,183 141,183 141,170.5 127,170 			"/>
			
				<linearGradient id="SVGID_16_" gradientUnits="userSpaceOnUse" x1="0" y1="-160.9862" x2="1" y2="-160.9862" gradientTransform="matrix(-363.0609 363.0609 363.0609 363.0609 58791.7773 58439.6914)">
				<stop  offset="0" style="stop-color:#FFFFFF"/>
				<stop  offset="2.228141e-003" style="stop-color:#FFFFFF"/>
				<stop  offset="0.2474" style="stop-color:#E6E3F0"/>
				<stop  offset="0.4948" style="stop-color:#D5D0E5"/>
				<stop  offset="0.7448" style="stop-color:#CAC4DE"/>
				<stop  offset="1" style="stop-color:#C7C0DC"/>
			</linearGradient>
			<polyline class="st12" points="157,165 144,165 144,178 157.3,178 157.4,191.7 171,191.8 171,178 157,178 157,165 			"/>
			
				<linearGradient id="SVGID_17_" gradientUnits="userSpaceOnUse" x1="0" y1="-160.9767" x2="1" y2="-160.9767" gradientTransform="matrix(-363.0609 363.0609 363.0609 363.0609 58791.7773 58439.6914)">
				<stop  offset="0" style="stop-color:#FFFFFF"/>
				<stop  offset="2.228141e-003" style="stop-color:#FFFFFF"/>
				<stop  offset="0.2474" style="stop-color:#E6E3F0"/>
				<stop  offset="0.4948" style="stop-color:#D5D0E5"/>
				<stop  offset="0.7448" style="stop-color:#CAC4DE"/>
				<stop  offset="1" style="stop-color:#C7C0DC"/>
			</linearGradient>
			<polyline class="st13" points="263.6,79 250,79 250,93 263.6,93 263.6,79 			"/>
			
				<linearGradient id="SVGID_18_" gradientUnits="userSpaceOnUse" x1="0" y1="-160.9869" x2="1" y2="-160.9869" gradientTransform="matrix(-363.0609 363.0609 363.0609 363.0609 58791.7773 58439.6914)">
				<stop  offset="0" style="stop-color:#FFFFFF"/>
				<stop  offset="2.228141e-003" style="stop-color:#FFFFFF"/>
				<stop  offset="0.2474" style="stop-color:#E6E3F0"/>
				<stop  offset="0.4948" style="stop-color:#D5D0E5"/>
				<stop  offset="0.7448" style="stop-color:#CAC4DE"/>
				<stop  offset="1" style="stop-color:#C7C0DC"/>
			</linearGradient>
			<polyline class="st14" points="210,88 196.7,88 196.7,101 196.7,101 197,114.2 197,125.3 197,126.6 197,139 210.3,139 221,139 
				221,138.9 234.9,139 247,139 247,125 235,125 235,113 232,113 232,104 223,104 223,101 210,101 210,88 			"/>
			
				<linearGradient id="SVGID_19_" gradientUnits="userSpaceOnUse" x1="0" y1="-160.9475" x2="1" y2="-160.9475" gradientTransform="matrix(-363.0609 363.0609 363.0609 363.0609 58791.7773 58439.6914)">
				<stop  offset="0" style="stop-color:#FFFFFF"/>
				<stop  offset="2.228141e-003" style="stop-color:#FFFFFF"/>
				<stop  offset="0.2474" style="stop-color:#E6E3F0"/>
				<stop  offset="0.4948" style="stop-color:#D5D0E5"/>
				<stop  offset="0.7448" style="stop-color:#CAC4DE"/>
				<stop  offset="1" style="stop-color:#C7C0DC"/>
			</linearGradient>
			<polyline class="st15" points="217,147 203,147 203,161 217,161 217,147 			"/>
			
				<linearGradient id="SVGID_20_" gradientUnits="userSpaceOnUse" x1="0" y1="-160.9323" x2="1" y2="-160.9323" gradientTransform="matrix(-363.0609 363.0609 363.0609 363.0609 58791.7773 58439.6914)">
				<stop  offset="0" style="stop-color:#FFFFFF"/>
				<stop  offset="2.228141e-003" style="stop-color:#FFFFFF"/>
				<stop  offset="0.2474" style="stop-color:#E6E3F0"/>
				<stop  offset="0.4948" style="stop-color:#D5D0E5"/>
				<stop  offset="0.7448" style="stop-color:#CAC4DE"/>
				<stop  offset="1" style="stop-color:#C7C0DC"/>
			</linearGradient>
			<polyline class="st16" points="296,79 282,79 282.1,93 296,93 296,79 			"/>
			
				<linearGradient id="SVGID_21_" gradientUnits="userSpaceOnUse" x1="0" y1="-160.9082" x2="1" y2="-160.9082" gradientTransform="matrix(-363.0609 363.0609 363.0609 363.0609 58791.7773 58439.6914)">
				<stop  offset="0" style="stop-color:#FFFFFF"/>
				<stop  offset="2.228141e-003" style="stop-color:#FFFFFF"/>
				<stop  offset="0.2474" style="stop-color:#E6E3F0"/>
				<stop  offset="0.4948" style="stop-color:#D5D0E5"/>
				<stop  offset="0.7448" style="stop-color:#CAC4DE"/>
				<stop  offset="1" style="stop-color:#C7C0DC"/>
			</linearGradient>
			<polyline class="st17" points="231,162 217,162 217,175 231,175 231,162 			"/>
			
				<linearGradient id="SVGID_22_" gradientUnits="userSpaceOnUse" x1="0" y1="-160.9248" x2="1" y2="-160.9248" gradientTransform="matrix(-363.0609 363.0609 363.0609 363.0609 58791.7773 58439.6914)">
				<stop  offset="0" style="stop-color:#FFFFFF"/>
				<stop  offset="2.228141e-003" style="stop-color:#FFFFFF"/>
				<stop  offset="0.2474" style="stop-color:#E6E3F0"/>
				<stop  offset="0.4948" style="stop-color:#D5D0E5"/>
				<stop  offset="0.7448" style="stop-color:#CAC4DE"/>
				<stop  offset="1" style="stop-color:#C7C0DC"/>
			</linearGradient>
			<polyline class="st18" points="322,56 309,56 309,62 307,62 307,75 321,75 321,70 322,70 322,56 			"/>
			
				<linearGradient id="SVGID_23_" gradientUnits="userSpaceOnUse" x1="0" y1="-160.8832" x2="1" y2="-160.8832" gradientTransform="matrix(-363.0609 363.0609 363.0609 363.0609 58791.7773 58439.6914)">
				<stop  offset="0" style="stop-color:#FFFFFF"/>
				<stop  offset="2.228141e-003" style="stop-color:#FFFFFF"/>
				<stop  offset="0.2474" style="stop-color:#E6E3F0"/>
				<stop  offset="0.4948" style="stop-color:#D5D0E5"/>
				<stop  offset="0.7448" style="stop-color:#CAC4DE"/>
				<stop  offset="1" style="stop-color:#C7C0DC"/>
			</linearGradient>
			<polyline class="st19" points="302,108.6 288.6,108.6 288.7,122.2 302,122.2 302,108.6 			"/>
			
				<linearGradient id="SVGID_24_" gradientUnits="userSpaceOnUse" x1="0" y1="-160.8679" x2="1" y2="-160.8679" gradientTransform="matrix(-363.0609 363.0609 363.0609 363.0609 58791.7773 58439.6914)">
				<stop  offset="0" style="stop-color:#FFFFFF"/>
				<stop  offset="2.228141e-003" style="stop-color:#FFFFFF"/>
				<stop  offset="0.2474" style="stop-color:#E6E3F0"/>
				<stop  offset="0.4948" style="stop-color:#D5D0E5"/>
				<stop  offset="0.7448" style="stop-color:#CAC4DE"/>
				<stop  offset="1" style="stop-color:#C7C0DC"/>
			</linearGradient>
			<polyline class="st20" points="246,176 232,176 232,189.6 246,189.6 246,176 			"/>
			
				<linearGradient id="SVGID_25_" gradientUnits="userSpaceOnUse" x1="0" y1="-160.9095" x2="1" y2="-160.9095" gradientTransform="matrix(-363.0609 363.0609 363.0609 363.0609 58791.7773 58439.6914)">
				<stop  offset="0" style="stop-color:#FFFFFF"/>
				<stop  offset="2.228141e-003" style="stop-color:#FFFFFF"/>
				<stop  offset="0.2474" style="stop-color:#E6E3F0"/>
				<stop  offset="0.4948" style="stop-color:#D5D0E5"/>
				<stop  offset="0.7448" style="stop-color:#CAC4DE"/>
				<stop  offset="1" style="stop-color:#C7C0DC"/>
			</linearGradient>
			<polyline class="st21" points="197,157.3 183.7,157.3 184,170.9 184,181.9 184,183.2 184,194.3 184,195.5 184,208 195.9,208 
				197.1,208 208.2,208 209.4,208 220.5,208 221.8,208 234.1,208 234.1,194 222,194 222,181.9 209,181.9 209,170 197,170 197,157.3 
							"/>
			
				<linearGradient id="SVGID_26_" gradientUnits="userSpaceOnUse" x1="0" y1="-160.8578" x2="1" y2="-160.8578" gradientTransform="matrix(-363.0609 363.0609 363.0609 363.0609 58791.7773 58439.6914)">
				<stop  offset="0" style="stop-color:#FFFFFF"/>
				<stop  offset="2.228141e-003" style="stop-color:#FFFFFF"/>
				<stop  offset="0.2474" style="stop-color:#E6E3F0"/>
				<stop  offset="0.4948" style="stop-color:#D5D0E5"/>
				<stop  offset="0.7448" style="stop-color:#CAC4DE"/>
				<stop  offset="1" style="stop-color:#C7C0DC"/>
			</linearGradient>
			<polyline class="st22" points="211,218.2 197,218.2 197,232 210.8,232 211,232 211,218.2 			"/>
			
				<linearGradient id="SVGID_27_" gradientUnits="userSpaceOnUse" x1="0" y1="-160.8153" x2="1" y2="-160.8153" gradientTransform="matrix(-363.0609 363.0609 363.0609 363.0609 58791.7773 58439.6914)">
				<stop  offset="0" style="stop-color:#FFFFFF"/>
				<stop  offset="2.228141e-003" style="stop-color:#FFFFFF"/>
				<stop  offset="0.2474" style="stop-color:#E6E3F0"/>
				<stop  offset="0.4948" style="stop-color:#D5D0E5"/>
				<stop  offset="0.7448" style="stop-color:#CAC4DE"/>
				<stop  offset="1" style="stop-color:#C7C0DC"/>
			</linearGradient>
			<polyline class="st23" points="295,165 281.2,165 281.3,178.7 295,178.8 295,165 			"/>
			
				<linearGradient id="SVGID_28_" gradientUnits="userSpaceOnUse" x1="0" y1="-160.825" x2="1" y2="-160.825" gradientTransform="matrix(-363.0609 363.0609 363.0609 363.0609 58791.7773 58439.6914)">
				<stop  offset="0" style="stop-color:#FFFFFF"/>
				<stop  offset="2.228141e-003" style="stop-color:#FFFFFF"/>
				<stop  offset="0.2474" style="stop-color:#E6E3F0"/>
				<stop  offset="0.4948" style="stop-color:#D5D0E5"/>
				<stop  offset="0.7448" style="stop-color:#CAC4DE"/>
				<stop  offset="1" style="stop-color:#C7C0DC"/>
			</linearGradient>
			<polyline class="st24" points="224,232 211,232 210.8,232 210.8,239 224,239 224,232 			"/>
			
				<linearGradient id="SVGID_29_" gradientUnits="userSpaceOnUse" x1="0" y1="-160.8744" x2="1" y2="-160.8744" gradientTransform="matrix(-363.0609 363.0609 363.0609 363.0609 58791.7773 58439.6914)">
				<stop  offset="0" style="stop-color:#FFFFFF"/>
				<stop  offset="2.228141e-003" style="stop-color:#FFFFFF"/>
				<stop  offset="0.2474" style="stop-color:#E6E3F0"/>
				<stop  offset="0.4948" style="stop-color:#D5D0E5"/>
				<stop  offset="0.7448" style="stop-color:#CAC4DE"/>
				<stop  offset="1" style="stop-color:#C7C0DC"/>
			</linearGradient>
			<polyline class="st25" points="193,223 179.5,223 167.1,223 167,236.5 167,239 205,239 205,235 193,235 193,223 			"/>
			
				<linearGradient id="SVGID_30_" gradientUnits="userSpaceOnUse" x1="0" y1="-161.0845" x2="1" y2="-161.0845" gradientTransform="matrix(-363.0609 363.0609 363.0609 363.0609 58791.7773 58439.6914)">
				<stop  offset="0" style="stop-color:#FFFFFF"/>
				<stop  offset="2.228141e-003" style="stop-color:#FFFFFF"/>
				<stop  offset="0.2474" style="stop-color:#E6E3F0"/>
				<stop  offset="0.4948" style="stop-color:#D5D0E5"/>
				<stop  offset="0.7448" style="stop-color:#CAC4DE"/>
				<stop  offset="1" style="stop-color:#C7C0DC"/>
			</linearGradient>
			<polyline class="st26" points="54,137.4 0,137.4 0,239 152.6,239 152.6,235.9 103.4,236 103.3,186.7 54,186.7 54,137.4 			"/>
		</g>
	</g>
</g>
</svg>
