<?xml version="1.0" encoding="utf-8"?>
<!-- Generator: Adobe Illustrator 19.2.0, SVG Export Plug-In . SVG Version: 6.00 Build 0)  -->
<svg version="1.1" id="Layer_1" xmlns="http://www.w3.org/2000/svg" xmlns:xlink="http://www.w3.org/1999/xlink" x="0px" y="0px"
	 viewBox="0 0 802 223" style="enable-background:new 0 0 802 223;" xml:space="preserve">
<style type="text/css">
	.st0{fill:#EDF2F9;}
	.st1{opacity:0.6;clip-path:url(#SVGID_2_);fill:#8C90AF;enable-background:new    ;}
	.st2{clip-path:url(#SVGID_4_);fill:#4C4277;}
	.st3{clip-path:url(#SVGID_6_);fill:#FFFFFF;}
	.st4{clip-path:url(#SVGID_8_);fill:#4C4277;}
	.st5{clip-path:url(#SVGID_10_);fill:#E4E2F2;}
	.st6{clip-path:url(#SVGID_12_);}
	.st7{fill:#FFFFFF;}
	.st8{clip-path:url(#SVGID_14_);}
	.st9{fill:#4C4277;}
	.st10{clip-path:url(#SVGID_16_);}
	.st11{opacity:0.65;clip-path:url(#SVGID_18_);fill:none;stroke:#817FB2;stroke-miterlimit:10;enable-background:new    ;}
	.st12{clip-path:url(#SVGID_20_);}
	.st13{fill:#6D6A9B;}
	.st14{clip-path:url(#SVGID_22_);}
	.st15{clip-path:url(#SVGID_24_);}
	.st16{clip-path:url(#SVGID_26_);}
	.st17{clip-path:url(#SVGID_28_);}
	.st18{opacity:0.65;clip-path:url(#SVGID_30_);fill:none;stroke:#817FB2;stroke-miterlimit:10;enable-background:new    ;}
	.st19{clip-path:url(#SVGID_32_);}
	.st20{clip-path:url(#SVGID_34_);}
	.st21{opacity:0.5;fill:none;stroke:#6D6A9B;stroke-miterlimit:10;}
</style>
<polygon class="st0" points="802,223.4 0,223.4 186,71.4 802,71.4 "/>
<g>
	<g>
		<defs>
			<rect id="SVGID_1_" x="104" y="32.4" width="409" height="191"/>
		</defs>
		<clipPath id="SVGID_2_">
			<use xlink:href="#SVGID_1_"  style="overflow:visible;"/>
		</clipPath>
		<rect x="137" y="49.4" class="st1" width="376" height="174"/>
	</g>
	<g>
		<defs>
			<rect id="SVGID_3_" x="104" y="32.4" width="409" height="191"/>
		</defs>
		<clipPath id="SVGID_4_">
			<use xlink:href="#SVGID_3_"  style="overflow:visible;"/>
		</clipPath>
		<rect x="118" y="37.4" class="st2" width="386" height="227"/>
	</g>
	<g>
		<defs>
			<rect id="SVGID_5_" x="104" y="32.4" width="409" height="191"/>
		</defs>
		<clipPath id="SVGID_6_">
			<use xlink:href="#SVGID_5_"  style="overflow:visible;"/>
		</clipPath>
		<rect x="121" y="38.4" class="st3" width="381" height="219"/>
	</g>
	<g>
		<defs>
			<rect id="SVGID_7_" x="104" y="32.4" width="409" height="191"/>
		</defs>
		<clipPath id="SVGID_8_">
			<use xlink:href="#SVGID_7_"  style="overflow:visible;"/>
		</clipPath>
		<rect x="118" y="37.4" class="st4" width="385" height="37"/>
	</g>
	<g>
		<defs>
			<rect id="SVGID_9_" x="104" y="32.4" width="409" height="191"/>
		</defs>
		<clipPath id="SVGID_10_">
			<use xlink:href="#SVGID_9_"  style="overflow:visible;"/>
		</clipPath>
		<rect x="121" y="74.4" class="st5" width="381" height="35.1"/>
	</g>
	<g>
		<defs>
			<rect id="SVGID_11_" x="104" y="32.4" width="409" height="191"/>
		</defs>
		<clipPath id="SVGID_12_">
			<use xlink:href="#SVGID_11_"  style="overflow:visible;"/>
		</clipPath>
		<g class="st6">
			<path class="st7" d="M141.3,60.9h-5.9l-1.7,5.1h-1.1l5.3-14.9h1l5.3,14.9H143L141.3,60.9z M141,60l-1-2.8
				c-0.6-1.8-1.1-3.3-1.7-5.2h-0.1c-0.5,1.8-1,3.4-1.7,5.2l-1,2.8H141z"/>
			<path class="st7" d="M145.9,55h1v6.8c0,2.3,0.7,3.4,2.5,3.4c1.3,0,2.2-0.7,3.5-2.2v-8h1v10.9h-0.8l-0.1-1.8l0,0
				c-1.1,1.2-2.2,2.1-3.7,2.1c-2.2,0-3.3-1.4-3.3-4.2v-7H145.9z"/>
			<path class="st7" d="M162,54.9c1.3,0,2.2,0.5,3.3,1.3v-2v-4.5h1V66h-0.9l-0.1-1.4h-0.1c-0.9,0.9-2.1,1.7-3.5,1.7
				c-2.7,0-4.5-2-4.5-5.7C157.2,57,159.4,54.9,162,54.9z M161.8,65.4c1.2,0,2.3-0.6,3.4-1.8V57c-1.2-1-2.1-1.4-3.2-1.4
				c-2.2,0-3.8,2.1-3.8,4.8C158.2,63.5,159.5,65.4,161.8,65.4z"/>
			<path class="st7" d="M170,51.5c0-0.6,0.4-0.9,0.9-0.9s0.9,0.3,0.9,0.9c0,0.5-0.4,0.9-0.9,0.9S170,52.2,170,51.5z M170.4,55h1
				v10.9h-1V55z"/>
			<path class="st7" d="M175.8,56h-1.7v-0.8l1.7-0.1l0.1-3.1h0.9V55h3.2v0.9h-3.1V63c0,1.4,0.3,2.3,1.8,2.3c0.4,0,1-0.2,1.4-0.3
				l0.3,0.8c-0.6,0.2-1.3,0.4-1.8,0.4c-2.1,0-2.7-1.3-2.7-3.3v-7H175.8z"/>
			<path class="st7" d="M187.2,51h1v14h6.9v0.9h-7.9V51z"/>
			<path class="st7" d="M201.3,54.9c2.6,0,4.9,2.1,4.9,5.7c0,3.6-2.3,5.7-4.9,5.7s-4.9-2.1-4.9-5.7C196.4,57,198.7,54.9,201.3,54.9z
				 M201.3,65.4c2.2,0,3.9-1.9,3.9-4.8c0-2.9-1.7-4.8-3.9-4.8s-3.8,2-3.8,4.8C197.5,63.5,199.1,65.4,201.3,65.4z"/>
			<path class="st7" d="M210.2,65.6L210.2,65.6c-0.5-0.4-1-1-1-1.8c0-1,0.7-1.7,1.2-2v-0.1c-0.7-0.6-1.4-1.7-1.4-3
				c0-2.2,1.7-3.8,3.8-3.8c0.6,0,1.1,0.1,1.4,0.3h3.7v0.8h-2.5c0.7,0.6,1.2,1.6,1.2,2.7c0,2.2-1.7,3.8-3.8,3.8
				c-0.6,0-1.3-0.2-1.8-0.5c-0.5,0.4-0.9,0.8-0.9,1.6c0,0.8,0.5,1.4,2.1,1.4h2.3c2.4,0,3.6,0.8,3.6,2.5c0,1.9-2,3.7-5.1,3.7
				c-2.7,0-4.5-1.2-4.5-3C208.6,67.3,209.2,66.3,210.2,65.6z M213.1,70.4c2.4,0,4-1.4,4-2.7c0-1.2-0.9-1.7-2.5-1.7h-2.3
				c-0.2,0-0.8,0-1.4-0.2c-1,0.7-1.4,1.5-1.4,2.3C209.5,69.5,210.8,70.4,213.1,70.4z M215.7,58.7c0-1.8-1.3-3-2.8-3s-2.8,1.2-2.8,3
				s1.3,3.1,2.8,3.1C214.4,61.7,215.7,60.5,215.7,58.7z"/>
		</g>
	</g>
	<g>
		<defs>
			<rect id="SVGID_13_" x="104" y="32.4" width="409" height="191"/>
		</defs>
		<clipPath id="SVGID_14_">
			<use xlink:href="#SVGID_13_"  style="overflow:visible;"/>
		</clipPath>
		<g class="st8">
			<path class="st9" d="M138.1,87.7h-4.8v-0.9h10.5v0.9h-4.7v14h-1V87.7z"/>
			<path class="st9" d="M146.1,87.3c0-0.6,0.4-0.9,0.9-0.9s0.9,0.3,0.9,0.9c0,0.5-0.4,0.9-0.9,0.9S146.1,87.8,146.1,87.3z
				 M146.5,90.8h1v10.9h-1V90.8z"/>
			<path class="st9" d="M151.7,90.8h0.9l0.1,1.7h0.1c1-1.1,2.2-1.9,3.4-1.9c1.7,0,2.6,0.9,3,2.2c1.2-1.4,2.4-2.2,3.7-2.2
				c2.2,0,3.3,1.4,3.3,4.2v7h-1v-6.8c0-2.3-0.8-3.4-2.4-3.4c-1,0-2.1,0.7-3.3,2v8.2h-1v-6.8c0-2.3-0.8-3.4-2.4-3.4
				c-1,0-2.1,0.7-3.3,2v8.2h-1v-11H151.7z"/>
			<path class="st9" d="M173.9,90.5c2.6,0,4.2,1.8,4.2,5c0,0.3,0,0.5,0,0.8h-7.8c0,2.7,1.7,4.7,4.1,4.7c1.2,0,2.1-0.4,2.9-1l0.4,0.8
				c-0.9,0.5-1.8,1.1-3.4,1.1c-2.8,0-5-2.1-5-5.7C169.2,92.7,171.5,90.5,173.9,90.5z M177.2,95.6c0-2.8-1.2-4.2-3.2-4.2
				c-1.9,0-3.5,1.6-3.7,4.2H177.2z"/>
		</g>
	</g>
	<g>
		<defs>
			<rect id="SVGID_15_" x="104" y="32.4" width="409" height="191"/>
		</defs>
		<clipPath id="SVGID_16_">
			<use xlink:href="#SVGID_15_"  style="overflow:visible;"/>
		</clipPath>
		<g class="st10">
			<path class="st9" d="M324.9,96.6H319l-1.7,5.1h-1.1l5.3-14.9h1l5.3,14.9h-1.1L324.9,96.6z M324.6,95.7l-1-2.8
				c-0.6-1.8-1.1-3.3-1.7-5.2h-0.1c-0.5,1.8-1,3.4-1.7,5.2l-1,2.8H324.6z"/>
			<path class="st9" d="M334,90.5c1.5,0,2.5,0.7,3.2,1.3l-0.6,0.7c-0.7-0.7-1.5-1.2-2.6-1.2c-2.2,0-3.9,2-3.9,4.8
				c0,2.9,1.6,4.8,3.9,4.8c1.2,0,2.2-0.6,2.9-1.2l0.5,0.7c-0.9,0.8-2.1,1.5-3.5,1.5c-2.8,0-4.9-2.1-4.9-5.7
				C329,92.6,331.3,90.5,334,90.5z"/>
			<path class="st9" d="M340.4,91.7h-1.7v-0.8l1.7-0.1l0.1-3.1h0.9v3.1h3.2v0.9h-3.2v7.1c0,1.4,0.3,2.3,1.8,2.3c0.4,0,1-0.2,1.4-0.3
				l0.3,0.8c-0.6,0.2-1.3,0.4-1.8,0.4c-2.1,0-2.7-1.3-2.7-3.3V91.7z"/>
			<path class="st9" d="M346.8,87.3c0-0.6,0.4-0.9,0.9-0.9s0.9,0.3,0.9,0.9c0,0.5-0.4,0.9-0.9,0.9C347.2,88.2,346.8,87.8,346.8,87.3
				z M347.2,90.8h1v10.9h-1V90.8z"/>
			<path class="st9" d="M356.3,90.5c2.6,0,4.9,2.1,4.9,5.7c0,3.6-2.3,5.7-4.9,5.7s-4.9-2.1-4.9-5.7
				C351.5,92.6,353.7,90.5,356.3,90.5z M356.3,101.1c2.2,0,3.9-1.9,3.9-4.8c0-2.9-1.7-4.8-3.9-4.8s-3.8,2-3.8,4.8
				S354.1,101.1,356.3,101.1z"/>
			<path class="st9" d="M364.5,90.8h0.9l0.1,1.7h0.1c1.1-1.1,2.2-1.9,3.7-1.9c2.2,0,3.3,1.4,3.3,4.2v7h-1v-6.8
				c0-2.3-0.7-3.4-2.5-3.4c-1.3,0-2.2,0.7-3.6,2v8.2h-1V90.8z"/>
		</g>
	</g>
	<g>
		<defs>
			<rect id="SVGID_17_" x="104" y="32.4" width="409" height="191"/>
		</defs>
		<clipPath id="SVGID_18_">
			<use xlink:href="#SVGID_17_"  style="overflow:visible;"/>
		</clipPath>
		<line class="st11" x1="306.5" y1="74.4" x2="306.5" y2="258.4"/>
	</g>
	<g>
		<defs>
			<rect id="SVGID_19_" x="104" y="32.4" width="409" height="191"/>
		</defs>
		<clipPath id="SVGID_20_">
			<use xlink:href="#SVGID_19_"  style="overflow:visible;"/>
		</clipPath>
		<g class="st12">
			<path class="st13" d="M133.5,134.9c0-4.8,1.6-7.5,4.3-7.5c2.8,0,4.3,2.7,4.3,7.5s-1.6,7.6-4.3,7.6S133.5,139.8,133.5,134.9z
				 M141.2,134.9c0-4.4-1.3-6.6-3.3-6.6s-3.3,2.2-3.3,6.6s1.3,6.7,3.3,6.7S141.2,139.4,141.2,134.9z"/>
			<path class="st13" d="M147.1,134.4L147.1,134.4c-1.1-0.8-2.1-1.9-2.1-3.4c0-2.1,1.7-3.5,3.8-3.5c2.5,0,3.9,1.6,3.9,3.8
				c0,1.6-1.2,3-2.1,3.7v0.1c1.2,0.8,2.5,1.7,2.5,3.7c0,2.1-1.8,3.8-4.4,3.8c-2.7,0-4.6-1.7-4.6-4
				C144.2,136.6,145.8,135.1,147.1,134.4z M148.8,141.6c2,0,3.4-1.3,3.4-3c0-2.2-2.2-3-4.4-3.9c-1.5,0.9-2.6,2.1-2.6,3.6
				C145.2,140.3,146.7,141.6,148.8,141.6z M151.8,131.3c0-1.6-1.1-3-3-3c-1.6,0-2.8,1.1-2.8,2.7c0,2.1,1.9,2.9,3.9,3.6
				C151.1,133.6,151.8,132.5,151.8,131.3z"/>
			<path class="st13" d="M161.3,126.1h0.9l-6.9,19.7h-0.9L161.3,126.1z"/>
			<path class="st13" d="M163.2,141.6c4.8-4.8,7.1-7.5,7.1-10c0-1.8-1-3.2-3.1-3.2c-1.3,0-2.5,0.8-3.4,1.9l-0.7-0.6
				c1.1-1.2,2.4-2.1,4.1-2.1c2.6,0,4.1,1.6,4.1,4.1c0,2.9-2.6,5.6-6.6,9.9c0.8,0,1.6-0.1,2.4-0.1h4.9v0.9h-8.9L163.2,141.6
				L163.2,141.6z"/>
			<path class="st13" d="M174,141.6c4.8-4.8,7.1-7.5,7.1-10c0-1.8-1-3.2-3.1-3.2c-1.3,0-2.5,0.8-3.4,1.9l-0.7-0.6
				c1.1-1.2,2.4-2.1,4.1-2.1c2.6,0,4.1,1.6,4.1,4.1c0,2.9-2.6,5.6-6.6,9.9c0.8,0,1.6-0.1,2.4-0.1h4.9v0.9H174V141.6z"/>
			<path class="st13" d="M191.1,126.1h0.9l-7,19.8h-0.9L191.1,126.1z"/>
			<path class="st13" d="M193.9,141.3h3.4v-12h-2.6v-0.7c1.2-0.2,2.1-0.5,2.8-0.9h0.8v13.6h3.1v0.9h-7.6L193.9,141.3L193.9,141.3z"
				/>
			<path class="st13" d="M204,139.9c0.9,0.9,2,1.8,4,1.8c1.9,0,3.6-1.6,3.6-3.9s-1.4-3.7-3.5-3.7c-1.1,0-1.8,0.4-2.7,1l-0.7-0.4
				l0.5-6.8h6.7v0.9h-5.8l-0.5,5.2c0.7-0.5,1.5-0.8,2.6-0.8c2.4,0,4.4,1.4,4.4,4.6c0,3.1-2.3,4.8-4.6,4.8c-2.3,0-3.6-1-4.6-1.9
				L204,139.9z"/>
		</g>
	</g>
	<g>
		<defs>
			<rect id="SVGID_21_" x="104" y="32.4" width="409" height="191"/>
		</defs>
		<clipPath id="SVGID_22_">
			<use xlink:href="#SVGID_21_"  style="overflow:visible;"/>
		</clipPath>
		<g class="st14">
			<path class="st13" d="M133.5,172.1c0-4.8,1.6-7.5,4.3-7.5c2.8,0,4.3,2.7,4.3,7.5s-1.6,7.6-4.3,7.6S133.5,177,133.5,172.1z
				 M141.2,172.1c0-4.4-1.3-6.6-3.3-6.6s-3.3,2.2-3.3,6.6s1.3,6.7,3.3,6.7S141.2,176.6,141.2,172.1z"/>
			<path class="st13" d="M147.1,171.6L147.1,171.6c-1.1-0.8-2.1-1.9-2.1-3.4c0-2.1,1.7-3.5,3.8-3.5c2.5,0,3.9,1.6,3.9,3.8
				c0,1.6-1.2,3-2.1,3.7v0.1c1.2,0.8,2.5,1.7,2.5,3.7c0,2.1-1.8,3.8-4.4,3.8c-2.7,0-4.6-1.7-4.6-4
				C144.2,173.8,145.8,172.4,147.1,171.6z M148.8,178.9c2,0,3.4-1.3,3.4-3c0-2.2-2.2-3-4.4-3.9c-1.5,0.9-2.6,2.1-2.6,3.6
				C145.2,177.5,146.7,178.9,148.8,178.9z M151.8,168.6c0-1.6-1.1-3-3-3c-1.6,0-2.8,1.1-2.8,2.7c0,2.1,1.9,2.9,3.9,3.6
				C151.1,170.9,151.8,169.8,151.8,168.6z"/>
			<path class="st13" d="M161.3,163.4h0.9l-6.9,19.7h-0.9L161.3,163.4z"/>
			<path class="st13" d="M163.2,178.9c4.8-4.8,7.1-7.5,7.1-10c0-1.8-1-3.2-3.1-3.2c-1.3,0-2.5,0.8-3.4,1.9l-0.7-0.6
				c1.1-1.2,2.4-2.1,4.1-2.1c2.6,0,4.1,1.6,4.1,4.1c0,2.9-2.6,5.6-6.6,9.9c0.8,0,1.6-0.1,2.4-0.1h4.9v0.9h-8.9L163.2,178.9
				L163.2,178.9z"/>
			<path class="st13" d="M174,178.9c4.8-4.8,7.1-7.5,7.1-10c0-1.8-1-3.2-3.1-3.2c-1.3,0-2.5,0.8-3.4,1.9l-0.7-0.6
				c1.1-1.2,2.4-2.1,4.1-2.1c2.6,0,4.1,1.6,4.1,4.1c0,2.9-2.6,5.6-6.6,9.9c0.8,0,1.6-0.1,2.4-0.1h4.9v0.9H174V178.9z"/>
			<path class="st13" d="M191.1,163.4h0.9l-7,19.7h-0.9L191.1,163.4z"/>
			<path class="st13" d="M193.9,178.6h3.4v-12h-2.6v-0.7c1.2-0.2,2.1-0.5,2.8-0.9h0.8v13.6h3.1v0.9h-7.6L193.9,178.6L193.9,178.6z"
				/>
			<path class="st13" d="M204,177.1c0.9,0.9,2,1.8,4,1.8c1.9,0,3.6-1.6,3.6-3.9s-1.4-3.7-3.5-3.7c-1.1,0-1.8,0.4-2.7,1l-0.7-0.4
				l0.5-6.8h6.7v0.9h-5.8l-0.5,5.2c0.7-0.5,1.5-0.8,2.6-0.8c2.4,0,4.4,1.4,4.4,4.6c0,3.1-2.3,4.8-4.6,4.8c-2.3,0-3.6-1-4.6-1.9
				L204,177.1z"/>
		</g>
	</g>
	<g>
		<defs>
			<rect id="SVGID_23_" x="104" y="32.4" width="409" height="191"/>
		</defs>
		<clipPath id="SVGID_24_">
			<use xlink:href="#SVGID_23_"  style="overflow:visible;"/>
		</clipPath>
		<g class="st15">
			<path class="st13" d="M324.9,137.1H319l-1.7,5.1h-1.1l5.3-14.9h1l5.3,14.9h-1.1L324.9,137.1z M324.6,136.1l-1-2.8
				c-0.6-1.8-1.1-3.3-1.7-5.2h-0.1c-0.5,1.8-1,3.4-1.7,5.2l-1,2.8H324.6z"/>
			<path class="st13" d="M334,131.1c1.5,0,2.5,0.7,3.2,1.3l-0.6,0.7c-0.7-0.7-1.5-1.2-2.6-1.2c-2.2,0-3.9,2-3.9,4.8
				c0,2.9,1.6,4.8,3.9,4.8c1.2,0,2.2-0.6,2.9-1.2l0.5,0.7c-0.9,0.8-2.1,1.5-3.5,1.5c-2.8,0-4.9-2.1-4.9-5.7
				C329,133.1,331.3,131.1,334,131.1z"/>
			<path class="st13" d="M343.8,131.1c1.5,0,2.5,0.7,3.2,1.3l-0.6,0.7c-0.7-0.7-1.5-1.2-2.6-1.2c-2.2,0-3.9,2-3.9,4.8
				c0,2.9,1.6,4.8,3.9,4.8c1.2,0,2.2-0.6,2.9-1.2l0.5,0.7c-0.9,0.8-2.1,1.5-3.5,1.5c-2.8,0-4.9-2.1-4.9-5.7
				C338.8,133.1,341.1,131.1,343.8,131.1z"/>
			<path class="st13" d="M353.3,131.1c2.6,0,4.2,1.8,4.2,5c0,0.3,0,0.5,0,0.8h-7.8c0,2.7,1.7,4.7,4.1,4.7c1.2,0,2.1-0.4,2.9-1
				l0.4,0.8c-0.9,0.5-1.8,1.1-3.4,1.1c-2.8,0-5-2.1-5-5.7C348.6,133.3,350.9,131.1,353.3,131.1z M356.6,136.1c0-2.8-1.2-4.2-3.2-4.2
				c-1.9,0-3.5,1.6-3.7,4.2H356.6z"/>
			<path class="st13" d="M359.7,140.3c0.9,0.8,1.9,1.4,3.5,1.4c1.7,0,2.6-1,2.6-2.2c0-1.4-1.4-1.9-2.7-2.4c-1.7-0.6-3.5-1.2-3.5-3.1
				c0-1.6,1.2-2.9,3.5-2.9c1.2,0,2.3,0.5,3.1,1.1l-0.5,0.7c-0.7-0.5-1.5-1-2.6-1c-1.7,0-2.4,1-2.4,2c0,1.2,1.3,1.7,2.6,2.2
				c1.7,0.6,3.6,1.2,3.6,3.3c0,1.6-1.3,3.1-3.7,3.1c-1.6,0-3-0.7-4-1.5L359.7,140.3z"/>
			<path class="st13" d="M368.9,140.3c0.9,0.8,1.9,1.4,3.5,1.4c1.7,0,2.6-1,2.6-2.2c0-1.4-1.4-1.9-2.7-2.4c-1.7-0.6-3.5-1.2-3.5-3.1
				c0-1.6,1.2-2.9,3.5-2.9c1.2,0,2.3,0.5,3.1,1.1l-0.5,0.7c-0.7-0.5-1.5-1-2.6-1c-1.7,0-2.4,1-2.4,2c0,1.2,1.3,1.7,2.6,2.2
				c1.7,0.6,3.6,1.2,3.6,3.3c0,1.6-1.3,3.1-3.7,3.1c-1.6,0-3-0.7-4-1.5L368.9,140.3z"/>
		</g>
	</g>
	<g>
		<defs>
			<rect id="SVGID_25_" x="104" y="32.4" width="409" height="191"/>
		</defs>
		<clipPath id="SVGID_26_">
			<use xlink:href="#SVGID_25_"  style="overflow:visible;"/>
		</clipPath>
		<g class="st16">
			<path class="st13" d="M318.2,164.6h8.2v0.9h-7.1v5.6h6v0.9h-6v6.6h7.3v0.9h-8.4V164.6z"/>
			<path class="st13" d="M333.6,168.3c1.3,0,2.2,0.5,3.3,1.3v-2V163h1v16.3H337l-0.1-1.4h-0.1c-0.9,0.9-2.1,1.7-3.5,1.7
				c-2.7,0-4.5-2-4.5-5.7C328.8,170.6,331,168.3,333.6,168.3z M333.4,178.9c1.2,0,2.3-0.6,3.4-1.8v-6.5c-1.2-1-2.1-1.4-3.2-1.4
				c-2.2,0-3.8,2.1-3.8,4.8C329.8,177,331.1,178.9,333.4,178.9z"/>
			<path class="st13" d="M341.6,165.1c0-0.6,0.4-0.9,0.9-0.9s0.9,0.3,0.9,0.9c0,0.5-0.4,0.9-0.9,0.9S341.6,165.6,341.6,165.1z
				 M342,168.6h1v10.9h-1V168.6z"/>
			<path class="st13" d="M347.4,169.5h-1.7v-0.8l1.7-0.1l0.1-3.2h0.9v3.2h3.2v0.9h-3.2v7.1c0,1.4,0.3,2.3,1.8,2.3
				c0.4,0,1-0.2,1.4-0.3l0.3,0.8c-0.6,0.2-1.3,0.4-1.8,0.4c-2.1,0-2.7-1.3-2.7-3.3V169.5z"/>
		</g>
	</g>
	<g>
		<defs>
			<rect id="SVGID_27_" x="104" y="32.4" width="409" height="191"/>
		</defs>
		<clipPath id="SVGID_28_">
			<use xlink:href="#SVGID_27_"  style="overflow:visible;"/>
		</clipPath>
		<g class="st17">
			<path class="st13" d="M484.4,126.7h1v9.1c0,4,1.9,5.2,4,5.2c2.2,0,4.1-1.2,4.1-5.2v-9.1h1v9.2c0,4.7-2.5,6-5.1,6s-5-1.3-5-6
				V126.7z"/>
		</g>
	</g>
	<g>
		<defs>
			<rect id="SVGID_29_" x="104" y="32.4" width="409" height="191"/>
		</defs>
		<clipPath id="SVGID_30_">
			<use xlink:href="#SVGID_29_"  style="overflow:visible;"/>
		</clipPath>
		<line class="st18" x1="474.5" y1="74.4" x2="474.5" y2="223.4"/>
	</g>
	<g>
		<defs>
			<rect id="SVGID_31_" x="104" y="32.4" width="409" height="191"/>
		</defs>
		<clipPath id="SVGID_32_">
			<use xlink:href="#SVGID_31_"  style="overflow:visible;"/>
		</clipPath>
		<g class="st19">
			<path class="st9" d="M486.5,86.8h1.1l6.3,10.5l1.7,3h0.1c-0.1-1.5-0.1-2.9-0.1-4.4v-9.2h1v14.9h-1.1l-6.3-10.5l-1.7-3h-0.1
				c0.1,1.4,0.1,2.8,0.1,4.2v9.3h-1V86.8z"/>
		</g>
	</g>
	<g>
		<defs>
			<rect id="SVGID_33_" x="104" y="32.4" width="409" height="191"/>
		</defs>
		<clipPath id="SVGID_34_">
			<use xlink:href="#SVGID_33_"  style="overflow:visible;"/>
		</clipPath>
		<g class="st20">
			<path class="st13" d="M485.3,164.4h1v8l0,0l7-8h1.2l-4.6,5.3l5.2,9.1H494l-4.7-8.3l-2.9,3.3v5h-1v-14.4H485.3z"/>
		</g>
	</g>
</g>
<line class="st21" x1="118" y1="222.9" x2="513" y2="222.9"/>
</svg>
