<?xml version="1.0" encoding="utf-8"?>
<!-- Generator: Adobe Illustrator 19.2.0, SVG Export Plug-In . SVG Version: 6.00 Build 0)  -->
<svg version="1.1" id="Layer_1" xmlns="http://www.w3.org/2000/svg" xmlns:xlink="http://www.w3.org/1999/xlink" x="0px" y="0px"
	 viewBox="0 0 379.3 174.5" style="enable-background:new 0 0 379.3 174.5;" xml:space="preserve">
<style type="text/css">
	.st0{fill:#4C4277;}
	.st1{fill:#8A99C4;}
	.st2{fill:#CCD5E2;}
	.st3{fill:none;stroke:#ABABD8;stroke-width:2;stroke-miterlimit:10;}
	.st4{fill:none;stroke:#ABABD8;stroke-width:2;stroke-miterlimit:10;stroke-dasharray:11,11;}
</style>
<ellipse class="st0" cx="102.7" cy="86" rx="43.6" ry="45.2"/>
<g>
	<path class="st0" d="M164.6,173.8c0-24-18.7-42.8-42.8-42.8H84.5c-24,0-43.5,18.7-43.5,42.8v0.9h123.6V173.8z"/>
</g>
<ellipse class="st1" cx="229.2" cy="62.7" rx="20.2" ry="20.9"/>
<g>
	<path class="st1" d="M257.9,103.3c0-11.1-8.7-19.5-19.9-19.5h-17.3c-11.1,0-20,8.4-20,19.5v0.7h57.2L257.9,103.3L257.9,103.3z"/>
</g>
<ellipse class="st1" cx="229.2" cy="133.3" rx="20.2" ry="20.9"/>
<g>
	<path class="st1" d="M257.9,174c0-11.1-8.7-18.7-19.9-18.7h-17.3c-11.1,0-20,7.6-20,18.7v0.6h57.2L257.9,174L257.9,174z"/>
</g>
<ellipse class="st2" cx="314.5" cy="100.8" rx="13.3" ry="13.8"/>
<g>
	<path class="st2" d="M332.7,127.5c0-7.3-5.1-11.8-12.4-11.8H309c-7.3,0-12.4,4.5-12.4,11.8l0,0H332.7L332.7,127.5z"/>
</g>
<ellipse class="st2" cx="314.5" cy="55" rx="13.3" ry="13.8"/>
<g>
	<path class="st2" d="M332.7,81.8c0-7.3-5.1-12.3-12.4-12.3H309c-7.3,0-12.4,4.9-12.4,12.3v0.3h36.2V81.8z"/>
</g>
<ellipse class="st2" cx="314.5" cy="147.2" rx="13.3" ry="13.8"/>
<g>
	<path class="st2" d="M332.7,174c0-7.3-5.1-13.7-12.4-13.7H309c-7.3,0-12.4,6.3-12.4,13.7v0.6h36.2V174z"/>
</g>
<g>
	<g>
		<line class="st3" x1="181.4" y1="40" x2="181.4" y2="45"/>
		<line class="st4" x1="181.4" y1="55.1" x2="181.4" y2="164.4"/>
		<line class="st3" x1="181.4" y1="169.5" x2="181.4" y2="174.5"/>
	</g>
</g>
<g>
	<g>
		<line class="st3" x1="273.9" y1="40" x2="273.9" y2="45"/>
		<line class="st4" x1="273.9" y1="55.1" x2="273.9" y2="164.4"/>
		<line class="st3" x1="273.9" y1="169.5" x2="273.9" y2="174.5"/>
	</g>
</g>
</svg>
