<?xml version="1.0" encoding="utf-8"?>
<!-- Generator: Adobe Illustrator 19.2.0, SVG Export Plug-In . SVG Version: 6.00 Build 0)  -->
<svg version="1.1" id="Layer_1" xmlns="http://www.w3.org/2000/svg" xmlns:xlink="http://www.w3.org/1999/xlink" x="0px" y="0px"
	 viewBox="0 0 482.7 195.3" style="enable-background:new 0 0 482.7 195.3;" xml:space="preserve">
<style type="text/css">
	.st0{fill:#FFFFFF;}
	.st1{fill:#8C9EC4;}
	.st2{fill:#A3A3CC;}
	.st3{fill:#4C4277;}
	.st4{fill:#EDF2F9;}
	.st5{fill:#7874A5;}
	.st6{opacity:0.6;fill:#7874A5;enable-background:new    ;}
	.st7{clip-path:url(#SVGID_3_);fill:#A3A3CC;}
</style>
<rect x="326.8" y="110" class="st0" width="15.3" height="11.2"/>
<rect x="326.8" y="142.2" class="st0" width="15.3" height="8.8"/>
<rect x="326.8" y="176.9" class="st0" width="16.1" height="9.6"/>
<circle class="st1" cx="315.4" cy="142.4" r="2.9"/>
<circle class="st1" cx="305.4" cy="142.4" r="2.9"/>
<circle class="st1" cx="295.5" cy="142.4" r="2.9"/>
<circle class="st1" cx="285.9" cy="156.6" r="2.9"/>
<circle class="st1" cx="275.9" cy="156.6" r="2.9"/>
<circle class="st1" cx="266" cy="156.6" r="2.9"/>
<circle class="st1" cx="254.1" cy="156.6" r="2.9"/>
<circle class="st1" cx="244.2" cy="156.6" r="2.9"/>
<circle class="st1" cx="234.2" cy="156.6" r="2.9"/>
<circle class="st1" cx="223.4" cy="156.6" r="2.9"/>
<circle class="st1" cx="213.5" cy="156.6" r="2.9"/>
<circle class="st1" cx="315.4" cy="172.3" r="2.9"/>
<circle class="st1" cx="305.4" cy="172.3" r="2.9"/>
<circle class="st1" cx="295.5" cy="172.3" r="2.9"/>
<circle class="st1" cx="295.5" cy="152.3" r="2.9"/>
<circle class="st1" cx="295.5" cy="162.3" r="2.9"/>
<g>
	<path class="st2" d="M427.5,102c0-1.3-1.2-2.5-2.5-2.5h-99.8c-1.3,0-2.5,1.2-2.5,2.5v23.2c0,1.3,1.2,2.5,2.5,2.5H425
		c1.3,0,2.5-1.2,2.5-2.5V102L427.5,102z M339.7,119.4c0,0.5-0.4,1.1-1.1,1.1h-9.9c-0.5,0-1.1-0.4-1.1-1.1V116c0-0.5,0.4-1.1,1.1-1.1
		h9.9c0.5,0,1.1,0.4,1.1,1.1L339.7,119.4L339.7,119.4z"/>
	<path class="st3" d="M427.5,134.3c0-1.3-1.2-2.5-2.5-2.5h-99.8c-1.3,0-2.5,1.2-2.5,2.5v23.2c0,1.3,1.2,2.5,2.5,2.5H425
		c1.3,0,2.5-1.2,2.5-2.5V134.3L427.5,134.3z M339.7,151.7c0,0.5-0.4,1.1-1.1,1.1h-9.9c-0.5,0-1.1-0.4-1.1-1.1v-3.5
		c0-0.5,0.4-1.1,1.1-1.1h9.9c0.5,0,1.1,0.4,1.1,1.1L339.7,151.7L339.7,151.7z"/>
	<path class="st3" d="M427.5,164.9c0-1.3-1.2-2.5-2.5-2.5h-99.8c-1.3,0-2.5,1.2-2.5,2.5v23.2c0,1.3,1.2,2.5,2.5,2.5H425
		c1.3,0,2.5-1.2,2.5-2.5V164.9L427.5,164.9z M339.7,183.9c0,0.5-0.4,1.1-1.1,1.1h-9.9c-0.5,0-1.1-0.4-1.1-1.1v-3.5
		c0-0.5,0.4-1.1,1.1-1.1h9.9c0.5,0,1.1,0.4,1.1,1.1L339.7,183.9L339.7,183.9z"/>
</g>
<ellipse class="st3" cx="98.2" cy="83.8" rx="45.3" ry="47.1"/>
<g>
	<path class="st3" d="M163.3,194.5c0-24.6-11.9-64-44.6-64H79.2c-33.1,0-45.2,39.7-45.2,64.7v0.5h129.3V194.5z"/>
</g>
<g>
	<path class="st4" d="M121.4,97.5c-2.4,7-11.4,12.2-22,12.2s-19.6-5.2-22-12.2C76.5,99.2,76,101,76,103c0,9.2,10.5,16.6,23.4,16.6
		s23.4-7.4,23.4-16.6C122.7,101.1,122.2,99.2,121.4,97.5z"/>
</g>
<ellipse class="st3" cx="98.9" cy="98.1" rx="25.7" ry="11.6"/>
<rect x="103.1" y="124.5" class="st5" width="101.6" height="71"/>
<rect x="72" y="187.7" class="st6" width="70" height="7.9"/>
<g>
	<g>
		<g>
			<rect x="139.3" y="146.2" class="st2" width="6.8" height="7.6"/>
		</g>
		<g>
			<rect x="139.3" y="153" class="st2" width="6.8" height="6.8"/>
		</g>
		<g>
			<rect x="139.3" y="159.7" class="st2" width="6.8" height="6.8"/>
		</g>
		<g>
			<rect x="139.3" y="165.6" class="st2" width="6.8" height="6.8"/>
		</g>
		<g>
			<rect x="146.8" y="143.7" class="st2" width="1.7" height="2.5"/>
		</g>
		<g>
			<rect x="146.8" y="145.4" class="st2" width="1.7" height="1.7"/>
		</g>
		<g>
			<rect x="146.8" y="147" class="st2" width="1.7" height="1.7"/>
		</g>
		<g>
			<rect x="146.8" y="148.8" class="st2" width="1.7" height="1.7"/>
		</g>
		<g>
			<rect x="148.5" y="143.7" class="st2" width="1.7" height="2.5"/>
		</g>
		<g>
			<rect x="148.5" y="145.4" class="st2" width="1.7" height="1.7"/>
		</g>
		<g>
			<rect x="148.5" y="147" class="st2" width="1.7" height="1.7"/>
		</g>
		<g>
			<rect x="148.5" y="148.8" class="st2" width="1.7" height="1.7"/>
		</g>
		<g>
			<rect x="151" y="142.9" class="st2" width="1.7" height="2.5"/>
		</g>
		<g>
			<rect x="150.2" y="145.4" class="st2" width="1.7" height="1.7"/>
		</g>
		<g>
			<rect x="150.2" y="147" class="st2" width="1.7" height="1.7"/>
		</g>
		<g>
			<rect x="150.2" y="148.8" class="st2" width="1.7" height="1.7"/>
		</g>
		<g>
			<rect x="159.5" y="134.4" class="st2" width="1.7" height="1.7"/>
		</g>
		<g>
			<rect x="152.7" y="145.4" class="st2" width="1.7" height="1.7"/>
		</g>
		<g>
			<rect x="151.9" y="147" class="st2" width="1.7" height="1.7"/>
		</g>
		<g>
			<rect x="151.9" y="148.8" class="st2" width="1.7" height="1.7"/>
		</g>
		<g>
			<rect x="145.1" y="153" class="st2" width="7.6" height="6.8"/>
		</g>
		<g>
			<rect x="145.1" y="159.7" class="st2" width="7.6" height="6.8"/>
		</g>
		<g>
			<rect x="145.1" y="165.6" class="st2" width="7.6" height="6.8"/>
		</g>
		<g>
			<rect x="155.2" y="142" class="st2" width="1.7" height="1.7"/>
		</g>
		<g>
			<rect x="155.2" y="143.7" class="st2" width="1.7" height="1.7"/>
		</g>
		<g>
			<rect x="155.2" y="145.4" class="st2" width="1.7" height="1.7"/>
		</g>
		<g>
			<rect x="155.2" y="147" class="st2" width="1.7" height="1.7"/>
		</g>
		<g>
			<rect x="157.8" y="140.4" class="st2" width="1.7" height="1.7"/>
		</g>
		<g>
			<rect x="156.9" y="143.7" class="st2" width="1.7" height="1.7"/>
		</g>
		<g>
			<rect x="156.9" y="145.4" class="st2" width="1.7" height="1.7"/>
		</g>
		<g>
			<rect x="156.9" y="147" class="st2" width="1.7" height="1.7"/>
		</g>
		<g>
			<rect x="167.1" y="131.1" class="st2" width="1.7" height="1.7"/>
		</g>
		<g>
			<rect x="159.5" y="142" class="st2" width="1.7" height="2.5"/>
		</g>
		<g>
			<rect x="158.6" y="145.4" class="st2" width="1.7" height="1.7"/>
		</g>
		<g>
			<rect x="158.6" y="147" class="st2" width="1.7" height="1.7"/>
		</g>
		<g>
			<rect x="173.7" y="131.1" class="st2" width="2.5" height="1.7"/>
		</g>
		<g>
			<rect x="170.4" y="134.4" class="st2" width="1.7" height="1.7"/>
		</g>
		<g>
			<rect x="162" y="144.5" class="st2" width="1.7" height="1.7"/>
		</g>
		<g>
			<rect x="160.3" y="147" class="st2" width="1.7" height="1.7"/>
		</g>
		<g>
			<rect x="153.5" y="150.5" class="st2" width="1.7" height="2.5"/>
		</g>
		<g>
			<rect x="153.5" y="152.1" class="st2" width="1.7" height="1.7"/>
		</g>
		<g>
			<rect x="153.5" y="153.8" class="st2" width="1.7" height="1.7"/>
		</g>
		<g>
			<rect x="153.5" y="155.5" class="st2" width="1.7" height="1.7"/>
		</g>
		<g>
			<rect x="155.2" y="150.5" class="st2" width="1.7" height="2.5"/>
		</g>
		<g>
			<rect x="155.2" y="152.1" class="st2" width="1.7" height="1.7"/>
		</g>
		<g>
			<rect x="155.2" y="153.8" class="st2" width="1.7" height="1.7"/>
		</g>
		<g>
			<rect x="155.2" y="155.5" class="st2" width="1.7" height="1.7"/>
		</g>
		<g>
			<rect x="157.8" y="150.5" class="st2" width="1.7" height="1.7"/>
		</g>
		<g>
			<rect x="156.9" y="152.1" class="st2" width="1.7" height="1.7"/>
		</g>
		<g>
			<rect x="156.9" y="153.8" class="st2" width="1.7" height="1.7"/>
		</g>
		<g>
			<rect x="156.9" y="155.5" class="st2" width="1.7" height="1.7"/>
		</g>
		<g>
			<rect x="167.1" y="142" class="st2" width="1.7" height="1.7"/>
		</g>
		<g>
			<rect x="159.5" y="152.1" class="st2" width="1.7" height="1.7"/>
		</g>
		<g>
			<rect x="158.6" y="153.8" class="st2" width="1.7" height="1.7"/>
		</g>
		<g>
			<rect x="158.6" y="155.5" class="st2" width="1.7" height="1.7"/>
		</g>
		<g>
			<rect x="151.9" y="159.7" class="st2" width="6.8" height="6.8"/>
		</g>
		<g>
			<rect x="151.9" y="165.6" class="st2" width="6.8" height="6.8"/>
		</g>
		<g>
			<rect x="164.5" y="140.4" class="st2" width="1.7" height="1.7"/>
		</g>
		<g>
			<rect x="164.5" y="142" class="st2" width="1.7" height="1.7"/>
		</g>
		<g>
			<rect x="164.5" y="143.7" class="st2" width="1.7" height="1.7"/>
		</g>
		<g>
			<rect x="164.5" y="145.4" class="st2" width="1.7" height="1.7"/>
		</g>
		<g>
			<rect x="172.9" y="129.4" class="st2" width="1.7" height="2.5"/>
		</g>
		<g>
			<rect x="166.2" y="142" class="st2" width="1.7" height="1.7"/>
		</g>
		<g>
			<rect x="166.2" y="143.7" class="st2" width="1.7" height="1.7"/>
		</g>
		<g>
			<rect x="166.2" y="145.4" class="st2" width="1.7" height="1.7"/>
		</g>
		<g>
			<g>
				<g>
					<g>
						<rect id="SVGID_9_" x="171.7" y="139.3" class="st2" width="1.6" height="1.1"/>
					</g>
					<g>
						<g>
							<rect id="SVGID_1_" x="171.7" y="139.3" class="st2" width="1.6" height="1.1"/>
						</g>
						<g>
							<g>
								<defs>
									<rect id="SVGID_2_" x="171.7" y="139.3" width="1.6" height="1.1"/>
								</defs>
								<clipPath id="SVGID_3_">
									<use xlink:href="#SVGID_2_"  style="overflow:visible;"/>
								</clipPath>
								<rect x="171.7" y="139.3" class="st7" width="1.6" height="1.1"/>
							</g>
						</g>
					</g>
				</g>
			</g>
		</g>
		<g>
			<rect x="167.9" y="143.7" class="st2" width="1.7" height="1.7"/>
		</g>
		<g>
			<rect x="167.9" y="145.4" class="st2" width="1.7" height="1.7"/>
		</g>
		<g>
			<rect x="178.8" y="136.9" class="st2" width="1.7" height="1.7"/>
		</g>
		<g>
			<rect x="169.6" y="145.4" class="st2" width="1.7" height="1.7"/>
		</g>
		<g>
			<rect x="162.8" y="148.8" class="st2" width="1.7" height="2.5"/>
		</g>
		<g>
			<rect x="162.8" y="150.5" class="st2" width="1.7" height="1.7"/>
		</g>
		<g>
			<rect x="162.8" y="152.1" class="st2" width="1.7" height="1.7"/>
		</g>
		<g>
			<rect x="162.8" y="153.8" class="st2" width="1.7" height="1.7"/>
		</g>
		<g>
			<rect x="165.3" y="147.9" class="st2" width="1.7" height="1.7"/>
		</g>
		<g>
			<rect x="164.5" y="150.5" class="st2" width="1.7" height="1.7"/>
		</g>
		<g>
			<rect x="164.5" y="152.1" class="st2" width="1.7" height="1.7"/>
		</g>
		<g>
			<rect x="164.5" y="153.8" class="st2" width="1.7" height="1.7"/>
		</g>
		<g>
			<rect x="175.5" y="139.5" class="st2" width="1.7" height="1.7"/>
		</g>
		<g>
			<rect x="167.1" y="149.6" class="st2" width="1.7" height="1.7"/>
		</g>
		<g>
			<rect x="166.2" y="152.1" class="st2" width="1.7" height="1.7"/>
		</g>
		<g>
			<rect x="166.2" y="153.8" class="st2" width="1.7" height="1.7"/>
		</g>
		<g>
			<rect x="178.8" y="136.1" class="st2" width="1.7" height="1.7"/>
		</g>
		<g>
			<rect x="176.3" y="142.9" class="st2" width="1.7" height="1.7"/>
		</g>
		<g>
			<rect x="168.7" y="151.3" class="st2" width="1.7" height="1.7"/>
		</g>
		<g>
			<rect x="167.9" y="153.8" class="st2" width="1.7" height="1.7"/>
		</g>
		<g>
			<rect x="160.3" y="158.1" class="st2" width="1.7" height="1.7"/>
		</g>
		<g>
			<rect x="160.3" y="158.9" class="st2" width="1.7" height="1.7"/>
		</g>
		<g>
			<rect x="160.3" y="160.6" class="st2" width="1.7" height="1.7"/>
		</g>
		<g>
			<rect x="160.3" y="162.2" class="st2" width="1.7" height="1.7"/>
		</g>
		<g>
			<rect x="162" y="158.1" class="st2" width="1.7" height="1.7"/>
		</g>
		<g>
			<rect x="162" y="158.9" class="st2" width="1.7" height="1.7"/>
		</g>
		<g>
			<rect x="162" y="160.6" class="st2" width="1.7" height="1.7"/>
		</g>
		<g>
			<rect x="162" y="162.2" class="st2" width="1.7" height="1.7"/>
		</g>
		<g>
			<rect x="164.5" y="157.2" class="st2" width="1.7" height="1.7"/>
		</g>
		<g>
			<rect x="163.6" y="158.9" class="st2" width="1.7" height="1.7"/>
		</g>
		<g>
			<rect x="163.6" y="160.6" class="st2" width="1.7" height="1.7"/>
		</g>
		<g>
			<rect x="163.6" y="162.2" class="st2" width="1.7" height="1.7"/>
		</g>
		<g>
			<rect x="175.5" y="150.5" class="st2" width="1.7" height="1.7"/>
		</g>
		<g>
			<rect x="166.2" y="158.9" class="st2" width="1.7" height="1.7"/>
		</g>
		<g>
			<rect x="165.3" y="160.6" class="st2" width="1.7" height="1.7"/>
		</g>
		<g>
			<rect x="165.3" y="162.2" class="st2" width="1.7" height="1.7"/>
		</g>
		<g>
			<rect x="159.5" y="165.6" class="st2" width="6.8" height="6.8"/>
		</g>
	</g>
</g>
</svg>
