<?xml version="1.0" encoding="utf-8"?>
<!-- Generator: Adobe Illustrator 19.1.1, SVG Export Plug-In . SVG Version: 6.00 Build 0)  -->
<svg version="1.1" id="Layer_1" xmlns="http://www.w3.org/2000/svg" xmlns:xlink="http://www.w3.org/1999/xlink" x="0px" y="0px"
	 viewBox="0 0 385 223" style="enable-background:new 0 0 385 223;" xml:space="preserve">
<style type="text/css">
	.st0{clip-path:url(#SVGID_2_);fill:none;stroke:#ABABD8;stroke-width:2;stroke-miterlimit:10;stroke-dasharray:12;}
	.st1{fill:#4C4277;}
	.st2{fill:#8A99C4;}
</style>
<g>
	<defs>
		<rect id="SVGID_1_" x="-53" y="15" width="452" height="209"/>
	</defs>
	<clipPath id="SVGID_2_">
		<use xlink:href="#SVGID_1_"  style="overflow:visible;"/>
	</clipPath>
	<circle class="st0" cx="193.4" cy="211.4" r="188.5"/>
</g>
<rect x="123" y="176" class="st1" width="62" height="47"/>
<rect x="40" y="197" class="st1" width="62" height="26"/>
<rect x="88" y="105" class="st1" width="68" height="118"/>
<rect x="175" y="54" class="st1" width="68" height="169"/>
<rect x="216" y="135" class="st1" width="63" height="88"/>
<rect x="284" y="176" class="st1" width="49" height="47"/>
<circle class="st2" cx="67.4" cy="210.8" r="3.7"/>
<circle class="st2" cx="102.2" cy="176.4" r="3.1"/>
<circle class="st2" cx="102.4" cy="119.6" r="3.7"/>
<circle class="st2" cx="295.9" cy="203.2" r="3.7"/>
<circle class="st2" cx="239.3" cy="176" r="3.7"/>
<circle class="st2" cx="216.5" cy="118.5" r="3.1"/>
<circle class="st2" cx="320.2" cy="184.3" r="3.7"/>
<circle class="st2" cx="205.8" cy="81.4" r="3.1"/>
<circle class="st2" cx="117.9" cy="203.2" r="3.7"/>
<circle class="st2" cx="183.9" cy="146.5" r="3.7"/>
<circle class="st2" cx="208.6" cy="203" r="3.7"/>
<circle class="st2" cx="129.5" cy="146.5" r="3.7"/>
</svg>
