<?xml version="1.0" encoding="utf-8"?>
<!-- Generator: Adobe Illustrator 19.1.1, SVG Export Plug-In . SVG Version: 6.00 Build 0)  -->
<svg version="1.1" id="Layer_1" xmlns="http://www.w3.org/2000/svg" xmlns:xlink="http://www.w3.org/1999/xlink" x="0px" y="0px"
	 viewBox="-146 129 737.3 237" style="enable-background:new -146 129 737.3 237;" xml:space="preserve">
<style type="text/css">
	.st0{fill:#FFFFFF;}
	.st1{fill:#5A69A0;}
	.st2{opacity:0.8;fill:#FFFFFF;}
	.st3{opacity:0.8;}
	.st4{opacity:0.5;fill:#FFFFFF;}
	.st5{opacity:0.5;}
	.st6{opacity:0.2;fill:#FFFFFF;}
	.st7{opacity:0.2;}
</style>
<rect x="-53" y="167" class="st0" width="40" height="27"/>
<rect x="-53" y="247" class="st0" width="40" height="23"/>
<rect x="-53" y="323" class="st0" width="40" height="23"/>
<g>
	<g>
		<circle class="st1" cx="-81.3" cy="168.6" r="7.4"/>
		<circle class="st1" cx="-106.6" cy="168.6" r="7.4"/>
		<circle class="st1" cx="-131.8" cy="168.6" r="7.4"/>
		<circle class="st1" cx="-81.3" cy="244.4" r="7.4"/>
		<circle class="st1" cx="-106.6" cy="244.4" r="7.4"/>
		<circle class="st1" cx="-131.8" cy="244.4" r="7.4"/>
		<circle class="st1" cx="-81.3" cy="320.2" r="7.4"/>
		<circle class="st1" cx="-106.6" cy="320.2" r="7.4"/>
		<circle class="st1" cx="-131.8" cy="320.2" r="7.4"/>
		<circle class="st1" cx="-131.8" cy="193.9" r="7.4"/>
		<circle class="st1" cx="-131.8" cy="269.7" r="7.4"/>
		<circle class="st1" cx="-131.8" cy="219.1" r="7.4"/>
		<circle class="st1" cx="-131.8" cy="294.9" r="7.4"/>
		<g>
			<path class="st1" d="M184,144.9c0-3.3-2.7-5.9-5.9-5.9H-58.1c-3.3,0-5.9,2.7-5.9,5.9v54.2c0,3.3,2.7,5.9,5.9,5.9h236.2
				c3.3,0,5.9-2.7,5.9-5.9V144.9z M-22,186.4c0,1.4-1.1,2.6-2.6,2.6h-23.9c-1.4,0-2.6-1.1-2.6-2.6v-7.9c0-1.4,1.1-2.6,2.6-2.6h23.9
				c1.4,0,2.6,1.1,2.6,2.6V186.4z"/>
			<path class="st1" d="M184,220.9c0-3.3-2.7-5.9-5.9-5.9H-58.1c-3.3,0-5.9,2.7-5.9,5.9v54.2c0,3.3,2.7,5.9,5.9,5.9h236.2
				c3.3,0,5.9-2.7,5.9-5.9V220.9z M-22,262.4c0,1.4-1.1,2.6-2.6,2.6h-23.9c-1.4,0-2.6-1.1-2.6-2.6v-7.9c0-1.4,1.1-2.6,2.6-2.6h23.9
				c1.4,0,2.6,1.1,2.6,2.6V262.4z"/>
			<path class="st1" d="M184,294.9c0-3.3-2.7-5.9-5.9-5.9H-58.1c-3.3,0-5.9,2.7-5.9,5.9v54.2c0,3.3,2.7,5.9,5.9,5.9h236.2
				c3.3,0,5.9-2.7,5.9-5.9V294.9z M-22,339.4c0,1.4-1.1,2.6-2.6,2.6h-23.9c-1.4,0-2.6-1.1-2.6-2.6v-7.9c0-1.4,1.1-2.6,2.6-2.6h23.9
				c1.4,0,2.6,1.1,2.6,2.6V339.4z"/>
		</g>
	</g>
</g>
<rect x="242" y="147" class="st0" width="12" height="9"/>
<rect x="242" y="171" class="st0" width="12" height="8"/>
<rect x="242" y="194" class="st0" width="12" height="8"/>
<g>
	<g>
		<circle class="st1" cx="232.9" cy="147.9" r="2.2"/>
		<circle class="st1" cx="225.3" cy="147.9" r="2.2"/>
		<circle class="st1" cx="217.6" cy="147.9" r="2.2"/>
		<circle class="st1" cx="232.9" cy="170.9" r="2.2"/>
		<circle class="st1" cx="225.3" cy="170.9" r="2.2"/>
		<circle class="st1" cx="217.6" cy="170.9" r="2.2"/>
		<circle class="st1" cx="232.9" cy="194" r="2.2"/>
		<circle class="st1" cx="225.3" cy="194" r="2.2"/>
		<circle class="st1" cx="217.6" cy="194" r="2.2"/>
		<circle class="st1" cx="217.6" cy="155.5" r="2.2"/>
		<circle class="st1" cx="217.6" cy="178.6" r="2.2"/>
		<circle class="st1" cx="217.6" cy="163.2" r="2.2"/>
		<circle class="st1" cx="217.6" cy="186.3" r="2.2"/>
		<g>
			<path class="st1" d="M313,140.8c0-1-0.8-1.8-1.8-1.8h-71.4c-1,0-1.8,0.8-1.8,1.8v16.4c0,1,0.8,1.8,1.8,1.8h71.4
				c1,0,1.8-0.8,1.8-1.8V140.8z M251,153.2c0,0.4-0.3,0.8-0.8,0.8h-7.4c-0.4,0-0.8-0.3-0.8-0.8v-2.4c0-0.4,0.3-0.8,0.8-0.8h7.4
				c0.4,0,0.8,0.3,0.8,0.8V153.2z"/>
			<path class="st1" d="M313,163.8c0-1-0.8-1.8-1.8-1.8h-71.4c-1,0-1.8,0.8-1.8,1.8v16.4c0,1,0.8,1.8,1.8,1.8h71.4
				c1,0,1.8-0.8,1.8-1.8V163.8z M251,176.2c0,0.4-0.3,0.8-0.8,0.8h-7.4c-0.4,0-0.8-0.3-0.8-0.8v-2.4c0-0.4,0.3-0.8,0.8-0.8h7.4
				c0.4,0,0.8,0.3,0.8,0.8V176.2z"/>
			<path class="st1" d="M313,185.8c0-1-0.8-1.8-1.8-1.8h-71.4c-1,0-1.8,0.8-1.8,1.8v16.4c0,1,0.8,1.8,1.8,1.8h71.4
				c1,0,1.8-0.8,1.8-1.8V185.8z M251,199.2c0,0.4-0.3,0.8-0.8,0.8h-7.4c-0.4,0-0.8-0.3-0.8-0.8v-2.4c0-0.4,0.3-0.8,0.8-0.8h7.4
				c0.4,0,0.8,0.3,0.8,0.8V199.2z"/>
		</g>
	</g>
</g>
<rect x="242" y="223" class="st0" width="12" height="8"/>
<rect x="242" y="247" class="st0" width="12" height="7"/>
<rect x="242" y="270" class="st0" width="12" height="8"/>
<g>
	<g>
		<circle class="st1" cx="232.9" cy="223.5" r="2.2"/>
		<circle class="st1" cx="225.3" cy="223.5" r="2.2"/>
		<circle class="st1" cx="217.6" cy="223.5" r="2.2"/>
		<circle class="st1" cx="232.9" cy="246.6" r="2.2"/>
		<circle class="st1" cx="225.3" cy="246.6" r="2.2"/>
		<circle class="st1" cx="217.6" cy="246.6" r="2.2"/>
		<circle class="st1" cx="232.9" cy="269.6" r="2.2"/>
		<circle class="st1" cx="225.3" cy="269.6" r="2.2"/>
		<circle class="st1" cx="217.6" cy="269.6" r="2.2"/>
		<circle class="st1" cx="217.6" cy="231.2" r="2.2"/>
		<circle class="st1" cx="217.6" cy="254.3" r="2.2"/>
		<circle class="st1" cx="217.6" cy="238.9" r="2.2"/>
		<circle class="st1" cx="217.6" cy="262" r="2.2"/>
		<g>
			<path class="st1" d="M313,215.8c0-1-0.8-1.8-1.8-1.8h-71.4c-1,0-1.8,0.8-1.8,1.8v16.4c0,1,0.8,1.8,1.8,1.8h71.4
				c1,0,1.8-0.8,1.8-1.8V215.8z M251,228.2c0,0.4-0.3,0.8-0.8,0.8h-7.4c-0.4,0-0.8-0.3-0.8-0.8v-2.4c0-0.4,0.3-0.8,0.8-0.8h7.4
				c0.4,0,0.8,0.3,0.8,0.8V228.2z"/>
			<path class="st1" d="M313,238.8c0-1-0.8-1.8-1.8-1.8h-71.4c-1,0-1.8,0.8-1.8,1.8v16.4c0,1,0.8,1.8,1.8,1.8h71.4
				c1,0,1.8-0.8,1.8-1.8V238.8z M251,252.2c0,0.4-0.3,0.8-0.8,0.8h-7.4c-0.4,0-0.8-0.3-0.8-0.8v-2.4c0-0.4,0.3-0.8,0.8-0.8h7.4
				c0.4,0,0.8,0.3,0.8,0.8V252.2z"/>
			<path class="st1" d="M313,261.8c0-1-0.8-1.8-1.8-1.8h-71.4c-1,0-1.8,0.8-1.8,1.8v16.4c0,1,0.8,1.8,1.8,1.8h71.4
				c1,0,1.8-0.8,1.8-1.8V261.8z M251,275.2c0,0.4-0.3,0.8-0.8,0.8h-7.4c-0.4,0-0.8-0.3-0.8-0.8v-2.4c0-0.4,0.3-0.8,0.8-0.8h7.4
				c0.4,0,0.8,0.3,0.8,0.8V275.2z"/>
		</g>
	</g>
</g>
<rect x="242" y="299" class="st0" width="12" height="7"/>
<rect x="242" y="323" class="st0" width="12" height="6"/>
<g>
	<g>
		<circle class="st1" cx="232.9" cy="299.2" r="2.2"/>
		<circle class="st1" cx="225.3" cy="299.2" r="2.2"/>
		<circle class="st1" cx="217.6" cy="299.2" r="2.2"/>
		<circle class="st1" cx="232.9" cy="322.3" r="2.2"/>
		<circle class="st1" cx="225.3" cy="322.3" r="2.2"/>
		<circle class="st1" cx="217.6" cy="322.3" r="2.2"/>
		<circle class="st1" cx="232.9" cy="345.3" r="2.2"/>
		<circle class="st1" cx="225.3" cy="345.3" r="2.2"/>
		<circle class="st1" cx="217.6" cy="345.3" r="2.2"/>
		<circle class="st1" cx="217.6" cy="306.9" r="2.2"/>
		<circle class="st1" cx="217.6" cy="330" r="2.2"/>
		<circle class="st1" cx="217.6" cy="314.6" r="2.2"/>
		<circle class="st1" cx="217.6" cy="337.6" r="2.2"/>
		<g>
			<path class="st1" d="M313,291.8c0-1-0.8-1.8-1.8-1.8h-71.4c-1,0-1.8,0.8-1.8,1.8v16.4c0,1,0.8,1.8,1.8,1.8h71.4
				c1,0,1.8-0.8,1.8-1.8V291.8z M251,303.2c0,0.4-0.3,0.8-0.8,0.8h-7.4c-0.4,0-0.8-0.3-0.8-0.8v-2.4c0-0.4,0.3-0.8,0.8-0.8h7.4
				c0.4,0,0.8,0.3,0.8,0.8V303.2z"/>
			<path class="st1" d="M313,314.8c0-1-0.8-1.8-1.8-1.8h-71.4c-1,0-1.8,0.8-1.8,1.8v16.4c0,1,0.8,1.8,1.8,1.8h71.4
				c1,0,1.8-0.8,1.8-1.8V314.8z M251,328.2c0,0.4-0.3,0.8-0.8,0.8h-7.4c-0.4,0-0.8-0.3-0.8-0.8v-2.4c0-0.4,0.3-0.8,0.8-0.8h7.4
				c0.4,0,0.8,0.3,0.8,0.8V328.2z"/>
			<path class="st1" d="M313,337.8c0-1-0.8-1.8-1.8-1.8h-71.4c-1,0-1.8,0.8-1.8,1.8v16.4c0,1,0.8,1.8,1.8,1.8h71.4
				c1,0,1.8-0.8,1.8-1.8V337.8z M251,351.2c0,0.4-0.3,0.8-0.8,0.8h-7.4c-0.4,0-0.8-0.3-0.8-0.8v-2.4c0-0.4,0.3-0.8,0.8-0.8h7.4
				c0.4,0,0.8,0.3,0.8,0.8V351.2z"/>
		</g>
	</g>
</g>
<rect x="371" y="171" class="st2" width="12" height="8"/>
<rect x="371" y="194" class="st2" width="12" height="8"/>
<g class="st3">
	<g>
		<circle class="st1" cx="362.4" cy="147.9" r="2.2"/>
		<circle class="st1" cx="354.7" cy="147.9" r="2.2"/>
		<circle class="st1" cx="347" cy="147.9" r="2.2"/>
		<circle class="st1" cx="362.4" cy="170.9" r="2.2"/>
		<circle class="st1" cx="354.7" cy="170.9" r="2.2"/>
		<circle class="st1" cx="347" cy="170.9" r="2.2"/>
		<circle class="st1" cx="362.4" cy="194" r="2.2"/>
		<circle class="st1" cx="354.7" cy="194" r="2.2"/>
		<circle class="st1" cx="347" cy="194" r="2.2"/>
		<circle class="st1" cx="347" cy="155.5" r="2.2"/>
		<circle class="st1" cx="347" cy="178.6" r="2.2"/>
		<circle class="st1" cx="347" cy="163.2" r="2.2"/>
		<circle class="st1" cx="347" cy="186.3" r="2.2"/>
		<g>
			<path class="st1" d="M443,140.8c0-1-0.8-1.8-1.8-1.8h-71.4c-1,0-1.8,0.8-1.8,1.8v16.4c0,1,0.8,1.8,1.8,1.8h71.4
				c1,0,1.8-0.8,1.8-1.8V140.8z M380,153.2c0,0.4-0.3,0.8-0.8,0.8h-7.4c-0.4,0-0.8-0.3-0.8-0.8v-2.4c0-0.4,0.3-0.8,0.8-0.8h7.4
				c0.4,0,0.8,0.3,0.8,0.8V153.2z"/>
			<path class="st1" d="M443,163.8c0-1-0.8-1.8-1.8-1.8h-71.4c-1,0-1.8,0.8-1.8,1.8v16.4c0,1,0.8,1.8,1.8,1.8h71.4
				c1,0,1.8-0.8,1.8-1.8V163.8z M380,176.2c0,0.4-0.3,0.8-0.8,0.8h-7.4c-0.4,0-0.8-0.3-0.8-0.8v-2.4c0-0.4,0.3-0.8,0.8-0.8h7.4
				c0.4,0,0.8,0.3,0.8,0.8V176.2z"/>
			<path class="st1" d="M443,185.8c0-1-0.8-1.8-1.8-1.8h-71.4c-1,0-1.8,0.8-1.8,1.8v16.4c0,1,0.8,1.8,1.8,1.8h71.4
				c1,0,1.8-0.8,1.8-1.8V185.8z M380,199.2c0,0.4-0.3,0.8-0.8,0.8h-7.4c-0.4,0-0.8-0.3-0.8-0.8v-2.4c0-0.4,0.3-0.8,0.8-0.8h7.4
				c0.4,0,0.8,0.3,0.8,0.8V199.2z"/>
		</g>
	</g>
</g>
<rect x="371" y="223" class="st2" width="12" height="8"/>
<rect x="371" y="247" class="st2" width="12" height="7"/>
<rect x="371" y="270" class="st2" width="12" height="8"/>
<g class="st3">
	<g>
		<circle class="st1" cx="362.4" cy="223.5" r="2.2"/>
		<circle class="st1" cx="354.7" cy="223.5" r="2.2"/>
		<circle class="st1" cx="347" cy="223.5" r="2.2"/>
		<circle class="st1" cx="362.4" cy="246.6" r="2.2"/>
		<circle class="st1" cx="354.7" cy="246.6" r="2.2"/>
		<circle class="st1" cx="347" cy="246.6" r="2.2"/>
		<circle class="st1" cx="362.4" cy="269.6" r="2.2"/>
		<circle class="st1" cx="354.7" cy="269.6" r="2.2"/>
		<circle class="st1" cx="347" cy="269.6" r="2.2"/>
		<circle class="st1" cx="347" cy="231.2" r="2.2"/>
		<circle class="st1" cx="347" cy="254.3" r="2.2"/>
		<circle class="st1" cx="347" cy="238.9" r="2.2"/>
		<circle class="st1" cx="347" cy="262" r="2.2"/>
		<g>
			<path class="st1" d="M443,215.8c0-1-0.8-1.8-1.8-1.8h-71.4c-1,0-1.8,0.8-1.8,1.8v16.4c0,1,0.8,1.8,1.8,1.8h71.4
				c1,0,1.8-0.8,1.8-1.8V215.8z M380,228.2c0,0.4-0.3,0.8-0.8,0.8h-7.4c-0.4,0-0.8-0.3-0.8-0.8v-2.4c0-0.4,0.3-0.8,0.8-0.8h7.4
				c0.4,0,0.8,0.3,0.8,0.8V228.2z"/>
			<path class="st1" d="M443,238.8c0-1-0.8-1.8-1.8-1.8h-71.4c-1,0-1.8,0.8-1.8,1.8v16.4c0,1,0.8,1.8,1.8,1.8h71.4
				c1,0,1.8-0.8,1.8-1.8V238.8z M380,252.2c0,0.4-0.3,0.8-0.8,0.8h-7.4c-0.4,0-0.8-0.3-0.8-0.8v-2.4c0-0.4,0.3-0.8,0.8-0.8h7.4
				c0.4,0,0.8,0.3,0.8,0.8V252.2z"/>
			<path class="st1" d="M443,261.8c0-1-0.8-1.8-1.8-1.8h-71.4c-1,0-1.8,0.8-1.8,1.8v16.4c0,1,0.8,1.8,1.8,1.8h71.4
				c1,0,1.8-0.8,1.8-1.8V261.8z M380,275.2c0,0.4-0.3,0.8-0.8,0.8h-7.4c-0.4,0-0.8-0.3-0.8-0.8v-2.4c0-0.4,0.3-0.8,0.8-0.8h7.4
				c0.4,0,0.8,0.3,0.8,0.8V275.2z"/>
		</g>
	</g>
</g>
<rect x="371" y="299" class="st2" width="12" height="7"/>
<rect x="371" y="323" class="st2" width="12" height="6"/>
<g class="st3">
	<g>
		<circle class="st1" cx="362.4" cy="299.2" r="2.2"/>
		<circle class="st1" cx="354.7" cy="299.2" r="2.2"/>
		<circle class="st1" cx="347" cy="299.2" r="2.2"/>
		<circle class="st1" cx="362.4" cy="322.3" r="2.2"/>
		<circle class="st1" cx="354.7" cy="322.3" r="2.2"/>
		<circle class="st1" cx="347" cy="322.3" r="2.2"/>
		<circle class="st1" cx="362.4" cy="345.3" r="2.2"/>
		<circle class="st1" cx="354.7" cy="345.3" r="2.2"/>
		<circle class="st1" cx="347" cy="345.3" r="2.2"/>
		<circle class="st1" cx="347" cy="306.9" r="2.2"/>
		<circle class="st1" cx="347" cy="330" r="2.2"/>
		<circle class="st1" cx="347" cy="314.6" r="2.2"/>
		<circle class="st1" cx="347" cy="337.6" r="2.2"/>
		<g>
			<path class="st1" d="M443,291.8c0-1-0.8-1.8-1.8-1.8h-71.4c-1,0-1.8,0.8-1.8,1.8v16.4c0,1,0.8,1.8,1.8,1.8h71.4
				c1,0,1.8-0.8,1.8-1.8V291.8z M380,303.2c0,0.4-0.3,0.8-0.8,0.8h-7.4c-0.4,0-0.8-0.3-0.8-0.8v-2.4c0-0.4,0.3-0.8,0.8-0.8h7.4
				c0.4,0,0.8,0.3,0.8,0.8V303.2z"/>
			<path class="st1" d="M443,314.8c0-1-0.8-1.8-1.8-1.8h-71.4c-1,0-1.8,0.8-1.8,1.8v16.4c0,1,0.8,1.8,1.8,1.8h71.4
				c1,0,1.8-0.8,1.8-1.8V314.8z M380,328.2c0,0.4-0.3,0.8-0.8,0.8h-7.4c-0.4,0-0.8-0.3-0.8-0.8v-2.4c0-0.4,0.3-0.8,0.8-0.8h7.4
				c0.4,0,0.8,0.3,0.8,0.8V328.2z"/>
			<path class="st1" d="M443,337.8c0-1-0.8-1.8-1.8-1.8h-71.4c-1,0-1.8,0.8-1.8,1.8v16.4c0,1,0.8,1.8,1.8,1.8h71.4
				c1,0,1.8-0.8,1.8-1.8V337.8z M380,351.2c0,0.4-0.3,0.8-0.8,0.8h-7.4c-0.4,0-0.8-0.3-0.8-0.8v-2.4c0-0.4,0.3-0.8,0.8-0.8h7.4
				c0.4,0,0.8,0.3,0.8,0.8V351.2z"/>
		</g>
	</g>
</g>
<rect x="489" y="142" class="st4" width="6" height="5"/>
<rect x="489" y="154" class="st4" width="6" height="3"/>
<rect x="489" y="164" class="st4" width="6" height="4"/>
<g class="st5">
	<g>
		<circle class="st1" cx="484.5" cy="143" r="1.1"/>
		<circle class="st1" cx="480.9" cy="143" r="1.1"/>
		<circle class="st1" cx="477.3" cy="143" r="1.1"/>
		<circle class="st1" cx="484.5" cy="153.9" r="1.1"/>
		<circle class="st1" cx="480.9" cy="153.9" r="1.1"/>
		<circle class="st1" cx="477.3" cy="153.9" r="1.1"/>
		<circle class="st1" cx="484.5" cy="164.7" r="1.1"/>
		<circle class="st1" cx="480.9" cy="164.7" r="1.1"/>
		<circle class="st1" cx="477.3" cy="164.7" r="1.1"/>
		<circle class="st1" cx="477.3" cy="146.7" r="1.1"/>
		<circle class="st1" cx="477.3" cy="157.5" r="1.1"/>
		<circle class="st1" cx="477.3" cy="150.3" r="1.1"/>
		<circle class="st1" cx="477.3" cy="161.1" r="1.1"/>
		<g>
			<path class="st1" d="M523,139.8c0-0.5-0.4-0.8-0.8-0.8h-34.3c-0.5,0-0.8,0.4-0.8,0.8v7.3c0,0.5,0.4,0.8,0.8,0.8h34.3
				c0.5,0,0.8-0.4,0.8-0.8V139.8z M493,146.6c0,0.2-0.2,0.4-0.4,0.4h-3.3c-0.2,0-0.4-0.2-0.4-0.4v-1.3c0-0.2,0.2-0.4,0.4-0.4h3.3
				c0.2,0,0.4,0.2,0.4,0.4V146.6z"/>
			<path class="st1" d="M523,150.8c0-0.5-0.4-0.8-0.8-0.8h-34.3c-0.5,0-0.8,0.4-0.8,0.8v7.3c0,0.5,0.4,0.8,0.8,0.8h34.3
				c0.5,0,0.8-0.4,0.8-0.8V150.8z M493,157.6c0,0.2-0.2,0.4-0.4,0.4h-3.3c-0.2,0-0.4-0.2-0.4-0.4v-1.3c0-0.2,0.2-0.4,0.4-0.4h3.3
				c0.2,0,0.4,0.2,0.4,0.4V157.6z"/>
			<path class="st1" d="M523,160.8c0-0.5-0.4-0.8-0.8-0.8h-34.3c-0.5,0-0.8,0.4-0.8,0.8v7.3c0,0.5,0.4,0.8,0.8,0.8h34.3
				c0.5,0,0.8-0.4,0.8-0.8V160.8z M493,168.6c0,0.2-0.2,0.4-0.4,0.4h-3.3c-0.2,0-0.4-0.2-0.4-0.4v-1.3c0-0.2,0.2-0.4,0.4-0.4h3.3
				c0.2,0,0.4,0.2,0.4,0.4V168.6z"/>
		</g>
	</g>
</g>
<rect x="489" y="179" class="st4" width="6" height="3"/>
<rect x="489" y="190" class="st4" width="6" height="3"/>
<rect x="489" y="200" class="st4" width="6" height="4"/>
<g class="st5">
	<g>
		<circle class="st1" cx="484.5" cy="178.6" r="1.1"/>
		<circle class="st1" cx="480.9" cy="178.6" r="1.1"/>
		<circle class="st1" cx="477.3" cy="178.6" r="1.1"/>
		<circle class="st1" cx="484.5" cy="189.5" r="1.1"/>
		<circle class="st1" cx="480.9" cy="189.5" r="1.1"/>
		<circle class="st1" cx="477.3" cy="189.5" r="1.1"/>
		<circle class="st1" cx="484.5" cy="200.3" r="1.1"/>
		<circle class="st1" cx="480.9" cy="200.3" r="1.1"/>
		<circle class="st1" cx="477.3" cy="200.3" r="1.1"/>
		<circle class="st1" cx="477.3" cy="182.3" r="1.1"/>
		<circle class="st1" cx="477.3" cy="193.1" r="1.1"/>
		<circle class="st1" cx="477.3" cy="185.9" r="1.1"/>
		<circle class="st1" cx="477.3" cy="196.7" r="1.1"/>
		<g>
			<path class="st1" d="M523,174.8c0-0.5-0.4-0.8-0.8-0.8h-34.3c-0.5,0-0.8,0.4-0.8,0.8v7.3c0,0.5,0.4,0.8,0.8,0.8h34.3
				c0.5,0,0.8-0.4,0.8-0.8V174.8z M493,180.6c0,0.2-0.2,0.4-0.4,0.4h-3.3c-0.2,0-0.4-0.2-0.4-0.4v-1.3c0-0.2,0.2-0.4,0.4-0.4h3.3
				c0.2,0,0.4,0.2,0.4,0.4V180.6z"/>
			<path class="st1" d="M523,184.8c0-0.5-0.4-0.8-0.8-0.8h-34.3c-0.5,0-0.8,0.4-0.8,0.8v7.3c0,0.5,0.4,0.8,0.8,0.8h34.3
				c0.5,0,0.8-0.4,0.8-0.8V184.8z M493,191.6c0,0.2-0.2,0.4-0.4,0.4h-3.3c-0.2,0-0.4-0.2-0.4-0.4v-1.3c0-0.2,0.2-0.4,0.4-0.4h3.3
				c0.2,0,0.4,0.2,0.4,0.4V191.6z"/>
			<path class="st1" d="M523,196.8c0-0.5-0.4-0.8-0.8-0.8h-34.3c-0.5,0-0.8,0.4-0.8,0.8v7.3c0,0.5,0.4,0.8,0.8,0.8h34.3
				c0.5,0,0.8-0.4,0.8-0.8V196.8z M493,202.6c0,0.2-0.2,0.4-0.4,0.4h-3.3c-0.2,0-0.4-0.2-0.4-0.4v-1.3c0-0.2,0.2-0.4,0.4-0.4h3.3
				c0.2,0,0.4,0.2,0.4,0.4V202.6z"/>
		</g>
	</g>
</g>
<rect x="549" y="154" class="st6" width="6" height="3"/>
<rect x="549" y="164" class="st6" width="6" height="4"/>
<g class="st7">
	<g>
		<circle class="st1" cx="545.4" cy="143" r="1.1"/>
		<circle class="st1" cx="541.8" cy="143" r="1.1"/>
		<circle class="st1" cx="538.2" cy="143" r="1.1"/>
		<circle class="st1" cx="545.4" cy="153.9" r="1.1"/>
		<circle class="st1" cx="541.8" cy="153.9" r="1.1"/>
		<circle class="st1" cx="538.2" cy="153.9" r="1.1"/>
		<circle class="st1" cx="545.4" cy="164.7" r="1.1"/>
		<circle class="st1" cx="541.8" cy="164.7" r="1.1"/>
		<circle class="st1" cx="538.2" cy="164.7" r="1.1"/>
		<circle class="st1" cx="538.2" cy="146.7" r="1.1"/>
		<circle class="st1" cx="538.2" cy="157.5" r="1.1"/>
		<circle class="st1" cx="538.2" cy="150.3" r="1.1"/>
		<circle class="st1" cx="538.2" cy="161.1" r="1.1"/>
		<g>
			<path class="st1" d="M583,139.8c0-0.5-0.4-0.8-0.8-0.8h-34.3c-0.5,0-0.8,0.4-0.8,0.8v7.3c0,0.5,0.4,0.8,0.8,0.8h34.3
				c0.5,0,0.8-0.4,0.8-0.8V139.8z M553,146.6c0,0.2-0.2,0.4-0.4,0.4h-3.3c-0.2,0-0.4-0.2-0.4-0.4v-1.3c0-0.2,0.2-0.4,0.4-0.4h3.3
				c0.2,0,0.4,0.2,0.4,0.4V146.6z"/>
			<path class="st1" d="M583,150.8c0-0.5-0.4-0.8-0.8-0.8h-34.3c-0.5,0-0.8,0.4-0.8,0.8v7.3c0,0.5,0.4,0.8,0.8,0.8h34.3
				c0.5,0,0.8-0.4,0.8-0.8V150.8z M553,157.6c0,0.2-0.2,0.4-0.4,0.4h-3.3c-0.2,0-0.4-0.2-0.4-0.4v-1.3c0-0.2,0.2-0.4,0.4-0.4h3.3
				c0.2,0,0.4,0.2,0.4,0.4V157.6z"/>
			<path class="st1" d="M583,160.8c0-0.5-0.4-0.8-0.8-0.8h-34.3c-0.5,0-0.8,0.4-0.8,0.8v7.3c0,0.5,0.4,0.8,0.8,0.8h34.3
				c0.5,0,0.8-0.4,0.8-0.8V160.8z M553,168.6c0,0.2-0.2,0.4-0.4,0.4h-3.3c-0.2,0-0.4-0.2-0.4-0.4v-1.3c0-0.2,0.2-0.4,0.4-0.4h3.3
				c0.2,0,0.4,0.2,0.4,0.4V168.6z"/>
		</g>
	</g>
</g>
<rect x="549" y="179" class="st6" width="6" height="3"/>
<rect x="549" y="190" class="st6" width="6" height="3"/>
<rect x="549" y="200" class="st6" width="6" height="4"/>
<g class="st7">
	<g>
		<circle class="st1" cx="545.4" cy="178.6" r="1.1"/>
		<circle class="st1" cx="541.8" cy="178.6" r="1.1"/>
		<circle class="st1" cx="538.2" cy="178.6" r="1.1"/>
		<circle class="st1" cx="545.4" cy="189.5" r="1.1"/>
		<circle class="st1" cx="541.8" cy="189.5" r="1.1"/>
		<circle class="st1" cx="538.2" cy="189.5" r="1.1"/>
		<circle class="st1" cx="545.4" cy="200.3" r="1.1"/>
		<circle class="st1" cx="541.8" cy="200.3" r="1.1"/>
		<circle class="st1" cx="538.2" cy="200.3" r="1.1"/>
		<circle class="st1" cx="538.2" cy="182.3" r="1.1"/>
		<circle class="st1" cx="538.2" cy="193.1" r="1.1"/>
		<circle class="st1" cx="538.2" cy="185.9" r="1.1"/>
		<circle class="st1" cx="538.2" cy="196.7" r="1.1"/>
		<g>
			<path class="st1" d="M583,174.8c0-0.5-0.4-0.8-0.8-0.8h-34.3c-0.5,0-0.8,0.4-0.8,0.8v7.3c0,0.5,0.4,0.8,0.8,0.8h34.3
				c0.5,0,0.8-0.4,0.8-0.8V174.8z M553,180.6c0,0.2-0.2,0.4-0.4,0.4h-3.3c-0.2,0-0.4-0.2-0.4-0.4v-1.3c0-0.2,0.2-0.4,0.4-0.4h3.3
				c0.2,0,0.4,0.2,0.4,0.4V180.6z"/>
			<path class="st1" d="M583,184.8c0-0.5-0.4-0.8-0.8-0.8h-34.3c-0.5,0-0.8,0.4-0.8,0.8v7.3c0,0.5,0.4,0.8,0.8,0.8h34.3
				c0.5,0,0.8-0.4,0.8-0.8V184.8z M553,191.6c0,0.2-0.2,0.4-0.4,0.4h-3.3c-0.2,0-0.4-0.2-0.4-0.4v-1.3c0-0.2,0.2-0.4,0.4-0.4h3.3
				c0.2,0,0.4,0.2,0.4,0.4V191.6z"/>
			<path class="st1" d="M583,196.8c0-0.5-0.4-0.8-0.8-0.8h-34.3c-0.5,0-0.8,0.4-0.8,0.8v7.3c0,0.5,0.4,0.8,0.8,0.8h34.3
				c0.5,0,0.8-0.4,0.8-0.8V196.8z M553,202.6c0,0.2-0.2,0.4-0.4,0.4h-3.3c-0.2,0-0.4-0.2-0.4-0.4v-1.3c0-0.2,0.2-0.4,0.4-0.4h3.3
				c0.2,0,0.4,0.2,0.4,0.4V202.6z"/>
		</g>
	</g>
</g>
<rect x="489" y="220" class="st4" width="6" height="4"/>
<rect x="489" y="232" class="st4" width="6" height="3"/>
<rect x="489" y="242" class="st4" width="6" height="4"/>
<g class="st5">
	<g>
		<circle class="st1" cx="484.5" cy="220.7" r="1.1"/>
		<circle class="st1" cx="480.9" cy="220.7" r="1.1"/>
		<circle class="st1" cx="477.3" cy="220.7" r="1.1"/>
		<circle class="st1" cx="484.5" cy="231.6" r="1.1"/>
		<circle class="st1" cx="480.9" cy="231.6" r="1.1"/>
		<circle class="st1" cx="477.3" cy="231.6" r="1.1"/>
		<circle class="st1" cx="484.5" cy="242.4" r="1.1"/>
		<circle class="st1" cx="480.9" cy="242.4" r="1.1"/>
		<circle class="st1" cx="477.3" cy="242.4" r="1.1"/>
		<circle class="st1" cx="477.3" cy="224.3" r="1.1"/>
		<circle class="st1" cx="477.3" cy="235.2" r="1.1"/>
		<circle class="st1" cx="477.3" cy="228" r="1.1"/>
		<circle class="st1" cx="477.3" cy="238.8" r="1.1"/>
		<g>
			<path class="st1" d="M523,216.8c0-0.5-0.4-0.8-0.8-0.8h-34.3c-0.5,0-0.8,0.4-0.8,0.8v7.3c0,0.5,0.4,0.8,0.8,0.8h34.3
				c0.5,0,0.8-0.4,0.8-0.8V216.8z M493,223.6c0,0.2-0.2,0.4-0.4,0.4h-3.3c-0.2,0-0.4-0.2-0.4-0.4v-1.3c0-0.2,0.2-0.4,0.4-0.4h3.3
				c0.2,0,0.4,0.2,0.4,0.4V223.6z"/>
			<path class="st1" d="M523,227.8c0-0.5-0.4-0.8-0.8-0.8h-34.3c-0.5,0-0.8,0.4-0.8,0.8v7.3c0,0.5,0.4,0.8,0.8,0.8h34.3
				c0.5,0,0.8-0.4,0.8-0.8V227.8z M493,234.6c0,0.2-0.2,0.4-0.4,0.4h-3.3c-0.2,0-0.4-0.2-0.4-0.4v-1.3c0-0.2,0.2-0.4,0.4-0.4h3.3
				c0.2,0,0.4,0.2,0.4,0.4V234.6z"/>
			<path class="st1" d="M523,238.8c0-0.5-0.4-0.8-0.8-0.8h-34.3c-0.5,0-0.8,0.4-0.8,0.8v7.3c0,0.5,0.4,0.8,0.8,0.8h34.3
				c0.5,0,0.8-0.4,0.8-0.8V238.8z M493,245.6c0,0.2-0.2,0.4-0.4,0.4h-3.3c-0.2,0-0.4-0.2-0.4-0.4v-1.3c0-0.2,0.2-0.4,0.4-0.4h3.3
				c0.2,0,0.4,0.2,0.4,0.4V245.6z"/>
		</g>
	</g>
</g>
<rect x="489" y="256" class="st4" width="6" height="4"/>
<rect x="489" y="268" class="st4" width="6" height="2"/>
<rect x="489" y="278" class="st4" width="6" height="4"/>
<g class="st5">
	<g>
		<circle class="st1" cx="484.5" cy="256.3" r="1.1"/>
		<circle class="st1" cx="480.9" cy="256.3" r="1.1"/>
		<circle class="st1" cx="477.3" cy="256.3" r="1.1"/>
		<circle class="st1" cx="484.5" cy="267.2" r="1.1"/>
		<circle class="st1" cx="480.9" cy="267.2" r="1.1"/>
		<circle class="st1" cx="477.3" cy="267.2" r="1.1"/>
		<circle class="st1" cx="484.5" cy="278" r="1.1"/>
		<circle class="st1" cx="480.9" cy="278" r="1.1"/>
		<circle class="st1" cx="477.3" cy="278" r="1.1"/>
		<circle class="st1" cx="477.3" cy="259.9" r="1.1"/>
		<circle class="st1" cx="477.3" cy="270.8" r="1.1"/>
		<circle class="st1" cx="477.3" cy="263.6" r="1.1"/>
		<circle class="st1" cx="477.3" cy="274.4" r="1.1"/>
		<g>
			<path class="st1" d="M523,252.8c0-0.5-0.4-0.8-0.8-0.8h-34.3c-0.5,0-0.8,0.4-0.8,0.8v7.3c0,0.5,0.4,0.8,0.8,0.8h34.3
				c0.5,0,0.8-0.4,0.8-0.8V252.8z M493,258.6c0,0.2-0.2,0.4-0.4,0.4h-3.3c-0.2,0-0.4-0.2-0.4-0.4v-1.3c0-0.2,0.2-0.4,0.4-0.4h3.3
				c0.2,0,0.4,0.2,0.4,0.4V258.6z"/>
			<path class="st1" d="M523,262.8c0-0.5-0.4-0.8-0.8-0.8h-34.3c-0.5,0-0.8,0.4-0.8,0.8v7.3c0,0.5,0.4,0.8,0.8,0.8h34.3
				c0.5,0,0.8-0.4,0.8-0.8V262.8z M493,269.6c0,0.2-0.2,0.4-0.4,0.4h-3.3c-0.2,0-0.4-0.2-0.4-0.4v-1.3c0-0.2,0.2-0.4,0.4-0.4h3.3
				c0.2,0,0.4,0.2,0.4,0.4V269.6z"/>
			<path class="st1" d="M523,273.8c0-0.5-0.4-0.8-0.8-0.8h-34.3c-0.5,0-0.8,0.4-0.8,0.8v7.3c0,0.5,0.4,0.8,0.8,0.8h34.3
				c0.5,0,0.8-0.4,0.8-0.8V273.8z M493,280.6c0,0.2-0.2,0.4-0.4,0.4h-3.3c-0.2,0-0.4-0.2-0.4-0.4v-1.3c0-0.2,0.2-0.4,0.4-0.4h3.3
				c0.2,0,0.4,0.2,0.4,0.4V280.6z"/>
		</g>
	</g>
</g>
<rect x="549" y="232" class="st6" width="6" height="3"/>
<rect x="549" y="242" class="st6" width="6" height="4"/>
<g class="st7">
	<g>
		<circle class="st1" cx="545.4" cy="220.7" r="1.1"/>
		<circle class="st1" cx="541.8" cy="220.7" r="1.1"/>
		<circle class="st1" cx="538.2" cy="220.7" r="1.1"/>
		<circle class="st1" cx="545.4" cy="231.6" r="1.1"/>
		<circle class="st1" cx="541.8" cy="231.6" r="1.1"/>
		<circle class="st1" cx="538.2" cy="231.6" r="1.1"/>
		<circle class="st1" cx="545.4" cy="242.4" r="1.1"/>
		<circle class="st1" cx="541.8" cy="242.4" r="1.1"/>
		<circle class="st1" cx="538.2" cy="242.4" r="1.1"/>
		<circle class="st1" cx="538.2" cy="224.3" r="1.1"/>
		<circle class="st1" cx="538.2" cy="235.2" r="1.1"/>
		<circle class="st1" cx="538.2" cy="228" r="1.1"/>
		<circle class="st1" cx="538.2" cy="238.8" r="1.1"/>
		<g>
			<path class="st1" d="M583,216.8c0-0.5-0.4-0.8-0.8-0.8h-34.3c-0.5,0-0.8,0.4-0.8,0.8v7.3c0,0.5,0.4,0.8,0.8,0.8h34.3
				c0.5,0,0.8-0.4,0.8-0.8V216.8z M553,223.6c0,0.2-0.2,0.4-0.4,0.4h-3.3c-0.2,0-0.4-0.2-0.4-0.4v-1.3c0-0.2,0.2-0.4,0.4-0.4h3.3
				c0.2,0,0.4,0.2,0.4,0.4V223.6z"/>
			<path class="st1" d="M583,227.8c0-0.5-0.4-0.8-0.8-0.8h-34.3c-0.5,0-0.8,0.4-0.8,0.8v7.3c0,0.5,0.4,0.8,0.8,0.8h34.3
				c0.5,0,0.8-0.4,0.8-0.8V227.8z M553,234.6c0,0.2-0.2,0.4-0.4,0.4h-3.3c-0.2,0-0.4-0.2-0.4-0.4v-1.3c0-0.2,0.2-0.4,0.4-0.4h3.3
				c0.2,0,0.4,0.2,0.4,0.4V234.6z"/>
			<path class="st1" d="M583,238.8c0-0.5-0.4-0.8-0.8-0.8h-34.3c-0.5,0-0.8,0.4-0.8,0.8v7.3c0,0.5,0.4,0.8,0.8,0.8h34.3
				c0.5,0,0.8-0.4,0.8-0.8V238.8z M553,245.6c0,0.2-0.2,0.4-0.4,0.4h-3.3c-0.2,0-0.4-0.2-0.4-0.4v-1.3c0-0.2,0.2-0.4,0.4-0.4h3.3
				c0.2,0,0.4,0.2,0.4,0.4V245.6z"/>
		</g>
	</g>
</g>
<rect x="549" y="256" class="st6" width="6" height="4"/>
<rect x="549" y="268" class="st6" width="6" height="2"/>
<rect x="549" y="278" class="st6" width="6" height="4"/>
<g class="st7">
	<g>
		<circle class="st1" cx="545.4" cy="256.3" r="1.1"/>
		<circle class="st1" cx="541.8" cy="256.3" r="1.1"/>
		<circle class="st1" cx="538.2" cy="256.3" r="1.1"/>
		<circle class="st1" cx="545.4" cy="267.2" r="1.1"/>
		<circle class="st1" cx="541.8" cy="267.2" r="1.1"/>
		<circle class="st1" cx="538.2" cy="267.2" r="1.1"/>
		<circle class="st1" cx="545.4" cy="278" r="1.1"/>
		<circle class="st1" cx="541.8" cy="278" r="1.1"/>
		<circle class="st1" cx="538.2" cy="278" r="1.1"/>
		<circle class="st1" cx="538.2" cy="259.9" r="1.1"/>
		<circle class="st1" cx="538.2" cy="270.8" r="1.1"/>
		<circle class="st1" cx="538.2" cy="263.6" r="1.1"/>
		<circle class="st1" cx="538.2" cy="274.4" r="1.1"/>
		<g>
			<path class="st1" d="M583,252.8c0-0.5-0.4-0.8-0.8-0.8h-34.3c-0.5,0-0.8,0.4-0.8,0.8v7.3c0,0.5,0.4,0.8,0.8,0.8h34.3
				c0.5,0,0.8-0.4,0.8-0.8V252.8z M553,258.6c0,0.2-0.2,0.4-0.4,0.4h-3.3c-0.2,0-0.4-0.2-0.4-0.4v-1.3c0-0.2,0.2-0.4,0.4-0.4h3.3
				c0.2,0,0.4,0.2,0.4,0.4V258.6z"/>
			<path class="st1" d="M583,262.8c0-0.5-0.4-0.8-0.8-0.8h-34.3c-0.5,0-0.8,0.4-0.8,0.8v7.3c0,0.5,0.4,0.8,0.8,0.8h34.3
				c0.5,0,0.8-0.4,0.8-0.8V262.8z M553,269.6c0,0.2-0.2,0.4-0.4,0.4h-3.3c-0.2,0-0.4-0.2-0.4-0.4v-1.3c0-0.2,0.2-0.4,0.4-0.4h3.3
				c0.2,0,0.4,0.2,0.4,0.4V269.6z"/>
			<path class="st1" d="M583,273.8c0-0.5-0.4-0.8-0.8-0.8h-34.3c-0.5,0-0.8,0.4-0.8,0.8v7.3c0,0.5,0.4,0.8,0.8,0.8h34.3
				c0.5,0,0.8-0.4,0.8-0.8V273.8z M553,280.6c0,0.2-0.2,0.4-0.4,0.4h-3.3c-0.2,0-0.4-0.2-0.4-0.4v-1.3c0-0.2,0.2-0.4,0.4-0.4h3.3
				c0.2,0,0.4,0.2,0.4,0.4V280.6z"/>
		</g>
	</g>
</g>
<rect x="489" y="296" class="st4" width="6" height="4"/>
<rect x="489" y="308" class="st4" width="6" height="3"/>
<rect x="489" y="317" class="st4" width="6" height="5"/>
<g class="st5">
	<g>
		<circle class="st1" cx="484.5" cy="296.4" r="1.1"/>
		<circle class="st1" cx="480.9" cy="296.4" r="1.1"/>
		<circle class="st1" cx="477.3" cy="296.4" r="1.1"/>
		<circle class="st1" cx="484.5" cy="307.3" r="1.1"/>
		<circle class="st1" cx="480.9" cy="307.3" r="1.1"/>
		<circle class="st1" cx="477.3" cy="307.3" r="1.1"/>
		<circle class="st1" cx="484.5" cy="318.1" r="1.1"/>
		<circle class="st1" cx="480.9" cy="318.1" r="1.1"/>
		<circle class="st1" cx="477.3" cy="318.1" r="1.1"/>
		<circle class="st1" cx="477.3" cy="300" r="1.1"/>
		<circle class="st1" cx="477.3" cy="310.9" r="1.1"/>
		<circle class="st1" cx="477.3" cy="303.6" r="1.1"/>
		<circle class="st1" cx="477.3" cy="314.5" r="1.1"/>
		<g>
			<path class="st1" d="M523,292.8c0-0.5-0.4-0.8-0.8-0.8h-34.3c-0.5,0-0.8,0.4-0.8,0.8v7.3c0,0.5,0.4,0.8,0.8,0.8h34.3
				c0.5,0,0.8-0.4,0.8-0.8V292.8z M493,299.6c0,0.2-0.2,0.4-0.4,0.4h-3.3c-0.2,0-0.4-0.2-0.4-0.4v-1.3c0-0.2,0.2-0.4,0.4-0.4h3.3
				c0.2,0,0.4,0.2,0.4,0.4V299.6z"/>
			<path class="st1" d="M523,303.8c0-0.5-0.4-0.8-0.8-0.8h-34.3c-0.5,0-0.8,0.4-0.8,0.8v7.3c0,0.5,0.4,0.8,0.8,0.8h34.3
				c0.5,0,0.8-0.4,0.8-0.8V303.8z M493,310.6c0,0.2-0.2,0.4-0.4,0.4h-3.3c-0.2,0-0.4-0.2-0.4-0.4v-1.3c0-0.2,0.2-0.4,0.4-0.4h3.3
				c0.2,0,0.4,0.2,0.4,0.4V310.6z"/>
			<path class="st1" d="M523,314.8c0-0.5-0.4-0.8-0.8-0.8h-34.3c-0.5,0-0.8,0.4-0.8,0.8v7.3c0,0.5,0.4,0.8,0.8,0.8h34.3
				c0.5,0,0.8-0.4,0.8-0.8V314.8z M493,321.6c0,0.2-0.2,0.4-0.4,0.4h-3.3c-0.2,0-0.4-0.2-0.4-0.4v-1.3c0-0.2,0.2-0.4,0.4-0.4h3.3
				c0.2,0,0.4,0.2,0.4,0.4V321.6z"/>
		</g>
	</g>
</g>
<rect x="489" y="332" class="st4" width="6" height="4"/>
<rect x="489" y="343" class="st4" width="6" height="3"/>
<g class="st5">
	<g>
		<circle class="st1" cx="484.5" cy="332" r="1.1"/>
		<circle class="st1" cx="480.9" cy="332" r="1.1"/>
		<circle class="st1" cx="477.3" cy="332" r="1.1"/>
		<circle class="st1" cx="484.5" cy="342.9" r="1.1"/>
		<circle class="st1" cx="480.9" cy="342.9" r="1.1"/>
		<circle class="st1" cx="477.3" cy="342.9" r="1.1"/>
		<circle class="st1" cx="484.5" cy="353.7" r="1.1"/>
		<circle class="st1" cx="480.9" cy="353.7" r="1.1"/>
		<circle class="st1" cx="477.3" cy="353.7" r="1.1"/>
		<circle class="st1" cx="477.3" cy="335.6" r="1.1"/>
		<circle class="st1" cx="477.3" cy="346.5" r="1.1"/>
		<circle class="st1" cx="477.3" cy="339.2" r="1.1"/>
		<circle class="st1" cx="477.3" cy="350.1" r="1.1"/>
		<g>
			<path class="st1" d="M523,328.8c0-0.5-0.4-0.8-0.8-0.8h-34.3c-0.5,0-0.8,0.4-0.8,0.8v7.3c0,0.5,0.4,0.8,0.8,0.8h34.3
				c0.5,0,0.8-0.4,0.8-0.8V328.8z M493,334.6c0,0.2-0.2,0.4-0.4,0.4h-3.3c-0.2,0-0.4-0.2-0.4-0.4v-1.3c0-0.2,0.2-0.4,0.4-0.4h3.3
				c0.2,0,0.4,0.2,0.4,0.4V334.6z"/>
			<path class="st1" d="M523,337.8c0-0.5-0.4-0.8-0.8-0.8h-34.3c-0.5,0-0.8,0.4-0.8,0.8v7.3c0,0.5,0.4,0.8,0.8,0.8h34.3
				c0.5,0,0.8-0.4,0.8-0.8V337.8z M493,344.6c0,0.2-0.2,0.4-0.4,0.4h-3.3c-0.2,0-0.4-0.2-0.4-0.4v-1.3c0-0.2,0.2-0.4,0.4-0.4h3.3
				c0.2,0,0.4,0.2,0.4,0.4V344.6z"/>
			<path class="st1" d="M523,349.8c0-0.5-0.4-0.8-0.8-0.8h-34.3c-0.5,0-0.8,0.4-0.8,0.8v7.3c0,0.5,0.4,0.8,0.8,0.8h34.3
				c0.5,0,0.8-0.4,0.8-0.8V349.8z M493,355.6c0,0.2-0.2,0.4-0.4,0.4h-3.3c-0.2,0-0.4-0.2-0.4-0.4v-1.3c0-0.2,0.2-0.4,0.4-0.4h3.3
				c0.2,0,0.4,0.2,0.4,0.4V355.6z"/>
		</g>
	</g>
</g>
<rect x="549" y="308" class="st6" width="6" height="3"/>
<rect x="549" y="317" class="st6" width="6" height="5"/>
<g class="st7">
	<g>
		<circle class="st1" cx="545.4" cy="296.4" r="1.1"/>
		<circle class="st1" cx="541.8" cy="296.4" r="1.1"/>
		<circle class="st1" cx="538.2" cy="296.4" r="1.1"/>
		<circle class="st1" cx="545.4" cy="307.3" r="1.1"/>
		<circle class="st1" cx="541.8" cy="307.3" r="1.1"/>
		<circle class="st1" cx="538.2" cy="307.3" r="1.1"/>
		<circle class="st1" cx="545.4" cy="318.1" r="1.1"/>
		<circle class="st1" cx="541.8" cy="318.1" r="1.1"/>
		<circle class="st1" cx="538.2" cy="318.1" r="1.1"/>
		<circle class="st1" cx="538.2" cy="300" r="1.1"/>
		<circle class="st1" cx="538.2" cy="310.9" r="1.1"/>
		<circle class="st1" cx="538.2" cy="303.6" r="1.1"/>
		<circle class="st1" cx="538.2" cy="314.5" r="1.1"/>
		<g>
			<path class="st1" d="M583,292.8c0-0.5-0.4-0.8-0.8-0.8h-34.3c-0.5,0-0.8,0.4-0.8,0.8v7.3c0,0.5,0.4,0.8,0.8,0.8h34.3
				c0.5,0,0.8-0.4,0.8-0.8V292.8z M553,299.6c0,0.2-0.2,0.4-0.4,0.4h-3.3c-0.2,0-0.4-0.2-0.4-0.4v-1.3c0-0.2,0.2-0.4,0.4-0.4h3.3
				c0.2,0,0.4,0.2,0.4,0.4V299.6z"/>
			<path class="st1" d="M583,303.8c0-0.5-0.4-0.8-0.8-0.8h-34.3c-0.5,0-0.8,0.4-0.8,0.8v7.3c0,0.5,0.4,0.8,0.8,0.8h34.3
				c0.5,0,0.8-0.4,0.8-0.8V303.8z M553,310.6c0,0.2-0.2,0.4-0.4,0.4h-3.3c-0.2,0-0.4-0.2-0.4-0.4v-1.3c0-0.2,0.2-0.4,0.4-0.4h3.3
				c0.2,0,0.4,0.2,0.4,0.4V310.6z"/>
			<path class="st1" d="M583,314.8c0-0.5-0.4-0.8-0.8-0.8h-34.3c-0.5,0-0.8,0.4-0.8,0.8v7.3c0,0.5,0.4,0.8,0.8,0.8h34.3
				c0.5,0,0.8-0.4,0.8-0.8V314.8z M553,321.6c0,0.2-0.2,0.4-0.4,0.4h-3.3c-0.2,0-0.4-0.2-0.4-0.4v-1.3c0-0.2,0.2-0.4,0.4-0.4h3.3
				c0.2,0,0.4,0.2,0.4,0.4V321.6z"/>
		</g>
	</g>
</g>
<rect x="549" y="332" class="st6" width="6" height="4"/>
<rect x="549" y="343" class="st6" width="6" height="3"/>
<g class="st7">
	<g>
		<circle class="st1" cx="545.4" cy="332" r="1.1"/>
		<circle class="st1" cx="541.8" cy="332" r="1.1"/>
		<circle class="st1" cx="538.2" cy="332" r="1.1"/>
		<circle class="st1" cx="545.4" cy="342.9" r="1.1"/>
		<circle class="st1" cx="541.8" cy="342.9" r="1.1"/>
		<circle class="st1" cx="538.2" cy="342.9" r="1.1"/>
		<circle class="st1" cx="545.4" cy="353.7" r="1.1"/>
		<circle class="st1" cx="541.8" cy="353.7" r="1.1"/>
		<circle class="st1" cx="538.2" cy="353.7" r="1.1"/>
		<circle class="st1" cx="538.2" cy="335.6" r="1.1"/>
		<circle class="st1" cx="538.2" cy="346.5" r="1.1"/>
		<circle class="st1" cx="538.2" cy="339.2" r="1.1"/>
		<circle class="st1" cx="538.2" cy="350.1" r="1.1"/>
		<g>
			<path class="st1" d="M583,328.8c0-0.5-0.4-0.8-0.8-0.8h-34.3c-0.5,0-0.8,0.4-0.8,0.8v7.3c0,0.5,0.4,0.8,0.8,0.8h34.3
				c0.5,0,0.8-0.4,0.8-0.8V328.8z M553,334.6c0,0.2-0.2,0.4-0.4,0.4h-3.3c-0.2,0-0.4-0.2-0.4-0.4v-1.3c0-0.2,0.2-0.4,0.4-0.4h3.3
				c0.2,0,0.4,0.2,0.4,0.4V334.6z"/>
			<path class="st1" d="M583,337.8c0-0.5-0.4-0.8-0.8-0.8h-34.3c-0.5,0-0.8,0.4-0.8,0.8v7.3c0,0.5,0.4,0.8,0.8,0.8h34.3
				c0.5,0,0.8-0.4,0.8-0.8V337.8z M553,344.6c0,0.2-0.2,0.4-0.4,0.4h-3.3c-0.2,0-0.4-0.2-0.4-0.4v-1.3c0-0.2,0.2-0.4,0.4-0.4h3.3
				c0.2,0,0.4,0.2,0.4,0.4V344.6z"/>
			<path class="st1" d="M583,349.8c0-0.5-0.4-0.8-0.8-0.8h-34.3c-0.5,0-0.8,0.4-0.8,0.8v7.3c0,0.5,0.4,0.8,0.8,0.8h34.3
				c0.5,0,0.8-0.4,0.8-0.8V349.8z M553,355.6c0,0.2-0.2,0.4-0.4,0.4h-3.3c-0.2,0-0.4-0.2-0.4-0.4v-1.3c0-0.2,0.2-0.4,0.4-0.4h3.3
				c0.2,0,0.4,0.2,0.4,0.4V355.6z"/>
		</g>
	</g>
</g>
</svg>
