<?xml version="1.0" encoding="utf-8"?>
<!-- Generator: Adobe Illustrator 19.1.1, SVG Export Plug-In . SVG Version: 6.00 Build 0)  -->
<svg version="1.1" id="Layer_1" xmlns="http://www.w3.org/2000/svg" xmlns:xlink="http://www.w3.org/1999/xlink" x="0px" y="0px"
	 viewBox="-122 169 714 223" style="enable-background:new -122 169 714 223;" xml:space="preserve">
<style type="text/css">
	.st0{fill:#4C4277;}
	.st1{fill:#E1E8F9;}
	.st2{fill:#FFFFFF;}
	.st3{fill:#A8B6DD;}
	.st4{fill:#5A69A0;}
</style>
<g>
	<path class="st0" d="M416.7,232.2L416.7,232.2c-8.6-8.6-19.6-13.5-30-13.5c-3.7,0-7.3,0.6-11,1.8s-6.7,3.7-9.8,6.1
		c-3.1,2.4-4.9,6.1-6.1,9.8s-1.8,7.3-1.8,11c0,9.2,3.7,18.4,9.8,25.7l-53.4,54.1c-2.4,2.4-2.4,6.1,0,8.6c2.4,2.4,6.1,2.4,8.6,0
		l2.4-2.4l12.9,12.9L361,323l-12.9-12.9l28.8-28.8c7.3,5.5,16.5,9.2,25.1,9.2c3.7,0,7.3-0.6,11-1.8s6.7-3.7,9.8-6.1
		c3.1-3.1,4.9-6.1,6.1-9.8c1.2-3.7,1.8-7.3,1.8-11C430.2,251.8,425.3,240.8,416.7,232.2z M416.7,269c-0.6,1.8-1.8,3.7-3.1,4.9
		c-1.2,1.2-3.1,2.4-4.9,3.1s-4.3,1.2-6.7,1.2c-6.7,0-14.7-3.1-21.4-9.8c-6.7-6.7-9.8-14.7-9.8-21.4c0-2.4,0.6-4.9,1.2-6.7
		s1.8-3.7,3.1-4.9c1.2-1.2,3.1-2.4,4.9-3.1c1.8-0.6,4.3-1.2,6.7-1.2c6.7,0,14.7,3.1,21.4,9.8s9.8,14.7,9.8,21.4
		C418,264.7,417.3,267.1,416.7,269z"/>
</g>
<g>
	<g>
		<polygon class="st1" points="204.2,218.2 139.5,218.2 139.5,347.2 240.5,347.2 240.5,254 		"/>
	</g>
	<polygon class="st2" points="204.5,255.6 240.9,254.6 204.5,219.2 	"/>
</g>
<g>
	<polygon class="st2" points="259.5,356.2 259.5,360.2 255.5,360.2 255.5,363.2 262.5,363.2 262.5,356.2 	"/>
	<path class="st2" d="M147.5,360.2h-12v3h12V360.2z M171.5,360.2h-12v3h12V360.2z M195.5,360.2h-12v3h12V360.2z M219.5,360.2h-12v3
		h12V360.2z M243.5,360.2h-12v3h12V360.2z"/>
	<polygon class="st2" points="126.5,360.2 121.5,360.2 121.5,356.2 118.5,356.2 118.5,363.2 126.5,363.2 	"/>
	<path class="st2" d="M121.5,235.2v-11h-3v11H121.5z M121.5,257.2v-11h-3v11H121.5z M121.5,279.2v-11h-3v11H121.5z M121.5,301.2v-11
		h-3v11H121.5z M121.5,323.2v-11h-3v11H121.5z M121.5,345.2v-11h-3v11H121.5z"/>
	<polygon class="st2" points="121.5,209.2 121.5,205.2 126.5,205.2 126.5,202.2 118.5,202.2 118.5,209.2 	"/>
	<path class="st2" d="M234.5,205.2h12v-3h-12V205.2z M210.5,205.2h12v-3h-12V205.2z M186.5,205.2h12v-3h-12V205.2z M162.5,205.2h12
		v-3h-12V205.2z M138.5,205.2h12v-3h-12V205.2z"/>
	<path class="st2" d="M259.5,330.2v11h3v-11H259.5z M259.5,308.2v11h3v-11H259.5z M259.5,286.2v11h3v-11H259.5z M259.5,264.2v11h3
		v-11H259.5z M259.5,242.2v11h3v-11H259.5z M259.5,220.2v11h3v-11H259.5z"/>
</g>
<g>
	<path class="st3" d="M-13.6,343.4c-0.2-1.2-0.4-2.6-1-3.7c-0.2-0.6-0.6-1-1.2-1.4c-0.6-0.4-1.2-0.6-2-0.6c-1.8,0-3-0.2-3.7-0.2
		c-0.2,0-0.2,0-0.4,0c0.2-0.8,0.4-1.8,0.6-2.8h5.7c0.8,0,1.6-0.6,1.6-1.6c0-0.8-0.6-1.6-1.6-1.6h-5.7c0-1-0.2-2-0.4-3
		c0.4-0.2,1.6-0.4,4.1-0.4c0.4,0,1-0.2,1.4-0.4c0.4-0.2,0.8-0.4,1-0.6c0.4-0.4,0.8-1,1-1.6c0.4-0.8,0.6-1.8,0.6-2.8
		c0.2-1,0.2-2,0.2-2.8c0-2.2-0.2-4.3-0.2-4.3c-0.2-0.8-0.8-1.4-1.6-1.4c-0.8,0.2-1.4,0.8-1.4,1.6l0,0l0,0c0,0.2,0.2,1.8,0.2,3.9
		c0,0.8,0,1.4-0.2,2.2c-0.2,1-0.4,2-0.6,2.6c-0.2,0.2-0.2,0.4-0.4,0.4c0,0,0,0-0.2,0c-2,0-3.4,0.2-4.3,0.4c-0.4,0-0.6,0.2-0.8,0.2
		c-0.4-0.6-0.8-1-1.2-1.6c-0.4-0.4-0.8-0.6-1.2-1c0-0.2,0.2-0.2,0.2-0.4c0.6-0.8,0.8-2,0.8-3s-0.4-2-0.8-3c-0.4-0.8-1.2-1.6-2-2.2
		V310c0-0.8-0.6-1.6-1.6-1.6c-0.8,0-1.6,0.6-1.6,1.6v2.6c-1.2-0.4-2.4-0.6-3.7-0.6c-1.2,0-2.4,0.2-3.7,0.6V310
		c0-0.8-0.6-1.6-1.6-1.6c-0.8,0-1.6,0.6-1.6,1.6v4.3c-0.8,0.6-1.4,1.4-2,2.2c-0.6,0.8-0.8,2-0.8,3s0.4,2,0.8,3
		c0.2,0.2,0.2,0.4,0.4,0.6c-0.4,0.4-0.8,0.6-1.2,1.2c-0.2,0.4-0.4,0.6-0.6,1c-0.2,0-0.4-0.2-0.8-0.2c-0.8-0.2-2.2-0.4-4.3-0.4h-0.2
		c0,0,0,0-0.2,0s-0.2-0.4-0.4-0.6c-0.2-0.4-0.4-1.2-0.4-2s-0.2-1.6-0.2-2.6s0-2,0.2-2.6c0-0.4,0-0.6,0-0.8v-0.2l0,0l0,0
		c0.2-0.8-0.4-1.6-1.4-1.6c-0.8-0.2-1.6,0.4-1.6,1.4l0,0c0,0-0.2,2-0.2,4.3c0,0.8,0,1.6,0.2,2.6c0.2,1.2,0.4,2.6,1,3.7
		c0.2,0.6,0.6,1,1.2,1.4c0.6,0.4,1.2,0.6,2,0.6c1.8,0,3,0.2,3.7,0.2c0,0-0.2,2-0.2,3h-6.3c-0.8,0-1.6,0.6-1.6,1.6
		c0,0.8,0.6,1.6,1.6,1.6h6.3c0,1,0.2,1.8,0.6,2.8c-0.6,0.2-1.6,0.4-3.9,0.4c-0.4,0-1,0.2-1.4,0.4s-0.8,0.4-1,0.6
		c-0.4,0.4-0.8,1-1,1.6c-0.4,0.8-0.6,1.8-0.6,2.8c-0.2,1-0.2,2-0.2,2.8c0,2.2,0.2,4.3,0.2,4.3c0.2,0.8,0.8,1.4,1.6,1.4
		c0.8-0.2,1.4-0.8,1.4-1.6l0,0l0,0c0-0.2-0.2-1.8-0.2-3.9c0-0.8,0-1.4,0.2-2.2c0.2-1,0.4-2,0.6-2.6c0.2-0.2,0.2-0.4,0.4-0.4
		c0,0,0,0,0.2,0c2,0,3.4-0.2,4.3-0.4c0.4,0,0.6-0.2,0.8-0.2c1,1.8,2.4,3.7,4.1,5.1c1,0.8,2,1.4,3,2c1,0.4,2.2,0.8,3.2,0.8
		c1.4,0,2.8-0.6,4.3-1.4c2-1.2,3.9-3,5.5-5.3c0.2-0.4,0.4-0.8,0.6-1.2c0.2,0,0.6,0.2,1,0.2c0.8,0.2,2.2,0.4,4.3,0.4h0.2
		c0,0,0,0,0.2,0s0.2,0.4,0.4,0.6c0.2,0.4,0.4,1.2,0.4,2s0.2,1.6,0.2,2.6s0,2-0.2,2.6c0,0.4,0,0.6,0,0.8v0.2l0,0l0,0
		c-0.2,0.8,0.4,1.6,1.4,1.6s1.6-0.4,1.6-1.4l0,0c0,0,0.2-2,0.2-4.3C-13.6,345.1-13.6,344.2-13.6,343.4z M-40,318.1
		c0.4-0.8,1.2-1.4,2.2-2c1-0.6,2.4-0.8,3.9-0.8c1.8,0,3.7,0.6,4.7,1.4c0.6,0.4,1,0.8,1.2,1.4c0.2,0.4,0.4,1,0.4,1.4
		c0,0.6-0.2,1-0.4,1.4c-0.2,0.2-0.4,0.6-0.6,0.8c-0.4,0.4-1,0.8-1.6,1.2c-0.2,0-0.2,0-0.4,0.2c-1,0.4-2.2,0.6-3.4,0.6
		c-1.2,0-2.4-0.2-3.4-0.6c-0.4-0.2-1-0.4-1.4-0.8c-0.2-0.2-0.4-0.4-0.6-0.4c-0.2-0.2-0.6-0.6-0.8-0.8c-0.2-0.4-0.4-1-0.4-1.4
		C-40.4,319.1-40.2,318.7-40,318.1z M-25.2,337.5c-0.8,2-2.4,3.9-4.1,5.1c-0.8,0.6-1.6,1.2-2.4,1.6c-0.8,0.4-1.4,0.4-1.8,0.4
		c-0.8,0-1.8-0.2-2.8-1c-1.6-1-3.2-2.4-4.5-4.3c-1.3-1.9-1.8-3.9-1.8-5.7c0-2.4,0.2-4.3,0.6-5.5c0.2-1,0.6-1.6,1-2
		c0.2-0.4,0.6-0.6,1-0.8l0,0c0.2,0.2,0.4,0.2,0.8,0.4c1.4,0.8,3.2,1.2,5.1,1.2c2.2,0,4.5-0.6,6.1-1.6c0.2,0,0.4,0.2,0.4,0.2
		c0.4,0.2,0.8,0.4,1.2,0.8c0.6,0.6,1,1.2,1.2,2.4c0.4,1.2,0.6,2.8,0.6,5.1C-24.4,334.9-24.6,336.1-25.2,337.5z"/>
</g>
<g>
	<path class="st3" d="M58.3,248.7c-0.2-1.2-0.4-2.6-1-3.7c-0.2-0.6-0.6-1-1.2-1.4c-0.6-0.4-1.2-0.6-2-0.6c-1.8,0-3-0.2-3.7-0.2
		c-0.2,0-0.2,0-0.4,0c0.2-0.8,0.4-1.8,0.6-2.8h5.7c0.8,0,1.6-0.6,1.6-1.6c0-0.8-0.6-1.6-1.6-1.6h-5.7c0-1-0.2-2-0.4-3
		c0.4-0.2,1.6-0.4,4.1-0.4c0.4,0,1-0.2,1.4-0.4c0.4-0.2,0.8-0.4,1-0.6c0.4-0.4,0.8-1,1-1.6c0.4-0.8,0.6-1.8,0.6-2.8
		c0.2-1,0.2-2,0.2-2.8c0-2.2-0.2-4.3-0.2-4.3c-0.2-0.8-0.8-1.4-1.6-1.4c-0.8,0.2-1.4,0.8-1.4,1.6l0,0l0,0c0,0.2,0.2,1.8,0.2,3.9
		c0,0.8,0,1.4-0.2,2.2c-0.2,1-0.4,2-0.6,2.6c-0.2,0.2-0.2,0.4-0.4,0.4c0,0,0,0-0.2,0c-2,0-3.4,0.2-4.3,0.4c-0.4,0-0.6,0.2-0.8,0.2
		c-0.4-0.6-0.8-1-1.2-1.6c-0.4-0.4-0.8-0.6-1.2-1c0-0.2,0.2-0.2,0.2-0.4c0.6-0.8,0.8-2,0.8-3s-0.4-2-0.8-3c-0.4-0.8-1.2-1.6-2-2.2
		v-4.3c0-0.8-0.6-1.6-1.6-1.6c-0.8,0-1.6,0.6-1.6,1.6v2.6c-1.2-0.4-2.4-0.6-3.7-0.6c-1.2,0-2.4,0.2-3.7,0.6v-2.6
		c0-0.8-0.6-1.6-1.6-1.6c-0.8,0-1.6,0.6-1.6,1.6v4.3c-0.8,0.6-1.4,1.4-2,2.2s-0.8,2-0.8,3s0.4,2,0.8,3c0.2,0.2,0.2,0.4,0.4,0.6
		c-0.4,0.4-0.8,0.6-1.2,1.2c-0.2,0.4-0.4,0.6-0.6,1c-0.2,0-0.4-0.2-0.8-0.2c-0.8-0.2-2.2-0.4-4.3-0.4h-0.2c0,0,0,0-0.2,0
		s-0.2-0.4-0.4-0.6c-0.2-0.4-0.4-1.2-0.4-2s-0.2-1.6-0.2-2.6s0-2,0.2-2.6c0-0.4,0-0.6,0-0.8v-0.2l0,0l0,0c0.2-0.8-0.4-1.6-1.4-1.6
		c-0.8-0.2-1.6,0.4-1.6,1.4l0,0c0,0-0.2,2-0.2,4.3c0,0.8,0,1.6,0.2,2.6c0.2,1.2,0.4,2.6,1,3.7c0.2,0.6,0.6,1,1.2,1.4
		c0.6,0.4,1.2,0.6,2,0.6c1.8,0,3,0.2,3.7,0.2c0,0-0.2,2-0.2,3h-6.3c-0.8,0-1.6,0.6-1.6,1.6c0,0.8,0.6,1.6,1.6,1.6H26
		c0,1,0.2,1.8,0.6,2.8c-0.6,0.2-1.6,0.4-3.9,0.4c-0.4,0-1,0.2-1.4,0.4s-0.8,0.4-1,0.6c-0.4,0.4-0.8,1-1,1.6
		c-0.4,0.8-0.6,1.8-0.6,2.8c-0.2,1-0.2,2-0.2,2.8c0,2.2,0.2,4.3,0.2,4.3c0.2,0.8,0.8,1.4,1.6,1.4c0.8-0.2,1.4-0.8,1.4-1.6l0,0l0,0
		c0-0.2-0.2-1.8-0.2-3.9c0-0.8,0-1.4,0.2-2.2c0.2-1,0.4-2,0.6-2.6c0.2-0.2,0.2-0.4,0.4-0.4c0,0,0,0,0.2,0c2,0,3.4-0.2,4.3-0.4
		c0.4,0,0.6-0.2,0.8-0.2c1,1.8,2.4,3.7,4.1,5.1c1,0.8,2,1.4,3,2c1,0.4,2.2,0.8,3.2,0.8c1.4,0,2.8-0.6,4.3-1.4c2-1.2,3.9-3,5.5-5.3
		c0.2-0.4,0.4-0.8,0.6-1.2c0.2,0,0.6,0.2,1,0.2c0.8,0.2,2.2,0.4,4.3,0.4h0.2c0,0,0,0,0.2,0s0.2,0.4,0.4,0.6c0.2,0.4,0.4,1.2,0.4,2
		s0.2,1.6,0.2,2.6s0,2-0.2,2.6c0,0.4,0,0.6,0,0.8v0.2l0,0l0,0c-0.2,0.8,0.4,1.6,1.4,1.6s1.6-0.4,1.6-1.4l0,0c0,0,0.2-2,0.2-4.3
		C58.3,250.3,58.3,249.5,58.3,248.7z M31.9,223.3c0.4-0.8,1.2-1.4,2.2-2s2.4-0.8,3.9-0.8c1.8,0,3.7,0.6,4.7,1.4
		c0.6,0.4,1,0.8,1.2,1.4c0.2,0.4,0.4,1,0.4,1.4c0,0.6-0.2,1-0.4,1.4c-0.2,0.2-0.4,0.6-0.6,0.8c-0.4,0.4-1,0.8-1.6,1.2
		c-0.2,0-0.2,0-0.4,0.2c-1,0.4-2.2,0.6-3.4,0.6c-1.2,0-2.4-0.2-3.4-0.6c-0.4-0.2-1-0.4-1.4-0.8c-0.2-0.2-0.4-0.4-0.6-0.4
		c-0.2-0.2-0.6-0.6-0.8-0.8c-0.2-0.4-0.4-1-0.4-1.4C31.5,224.3,31.7,223.9,31.9,223.3z M46.8,242.8c-0.8,2-2.4,3.9-4.1,5.1
		c-0.8,0.6-1.6,1.2-2.4,1.6c-0.8,0.4-1.4,0.4-1.8,0.4c-0.8,0-1.8-0.2-2.8-1c-1.6-1-3.2-2.4-4.5-4.3c-1.3-1.9-1.8-3.9-1.8-5.7
		c0-2.4,0.2-4.3,0.6-5.5c0.2-1,0.6-1.6,1-2c0.2-0.4,0.6-0.6,1-0.8l0,0c0.2,0.2,0.4,0.2,0.8,0.4c1.4,0.8,3.2,1.2,5.1,1.2
		c2.2,0,4.5-0.6,6.1-1.6c0.2,0,0.4,0.2,0.4,0.2c0.4,0.2,0.8,0.4,1.2,0.8c0.6,0.6,1,1.2,1.2,2.4c0.4,1.2,0.6,2.8,0.6,5.1
		C47.6,240.2,47.4,241.4,46.8,242.8z"/>
</g>
<g>
	<path class="st3" d="M556,317.8c-0.2-1.2-0.4-2.6-1-3.7c-0.2-0.6-0.6-1-1.2-1.4c-0.6-0.4-1.2-0.6-2-0.6c-1.8,0-3-0.2-3.7-0.2
		c-0.2,0-0.2,0-0.4,0c0.2-0.8,0.4-1.8,0.6-2.8h5.7c0.8,0,1.6-0.6,1.6-1.6c0-0.8-0.6-1.6-1.6-1.6h-5.7c0-1-0.2-2-0.4-3
		c0.4-0.2,1.6-0.4,4.1-0.4c0.4,0,1-0.2,1.4-0.4s0.8-0.4,1-0.6c0.4-0.4,0.8-1,1-1.6c0.4-0.8,0.6-1.8,0.6-2.8c0.2-1,0.2-2,0.2-2.8
		c0-2.2-0.2-4.3-0.2-4.3c-0.2-0.8-0.8-1.4-1.6-1.4c-0.8,0.2-1.4,0.8-1.4,1.6l0,0l0,0c0,0.2,0.2,1.8,0.2,3.9c0,0.8,0,1.4-0.2,2.2
		c-0.2,1-0.4,2-0.6,2.6c-0.2,0.2-0.2,0.4-0.4,0.4c0,0,0,0-0.2,0c-2,0-3.4,0.2-4.3,0.4c-0.4,0-0.6,0.2-0.8,0.2
		c-0.4-0.6-0.8-1-1.2-1.6c-0.4-0.4-0.8-0.6-1.2-1c0-0.2,0.2-0.2,0.2-0.4c0.6-0.8,0.8-2,0.8-3s-0.4-2-0.8-3c-0.4-0.8-1.2-1.6-2-2.2
		v-4.3c0-0.8-0.6-1.6-1.6-1.6c-0.8,0-1.6,0.6-1.6,1.6v2.6c-1.2-0.4-2.4-0.6-3.7-0.6c-1.2,0-2.4,0.2-3.7,0.6v-2.6
		c0-0.8-0.6-1.6-1.6-1.6c-0.8,0-1.6,0.6-1.6,1.6v4.3c-0.8,0.6-1.4,1.4-2,2.2c-0.6,0.8-0.8,2-0.8,3s0.4,2,0.8,3
		c0.2,0.2,0.2,0.4,0.4,0.6c-0.4,0.4-0.8,0.6-1.2,1.2c-0.2,0.4-0.4,0.6-0.6,1c-0.2,0-0.4-0.2-0.8-0.2c-0.8-0.2-2.2-0.4-4.3-0.4H520
		c0,0,0,0-0.2,0c-0.2,0-0.2-0.4-0.4-0.6c-0.2-0.4-0.4-1.2-0.4-2c0-0.8-0.2-1.6-0.2-2.6s0-2,0.2-2.6c0-0.4,0-0.6,0-0.8v-0.2l0,0l0,0
		c0.2-0.8-0.4-1.6-1.4-1.6c-0.8-0.2-1.6,0.4-1.6,1.4l0,0c0,0-0.2,2-0.2,4.3c0,0.8,0,1.6,0.2,2.6c0.2,1.2,0.4,2.6,1,3.7
		c0.2,0.6,0.6,1,1.2,1.4c0.6,0.4,1.2,0.6,2,0.6c1.8,0,3,0.2,3.7,0.2c0,0-0.2,2-0.2,3h-6.3c-0.8,0-1.6,0.6-1.6,1.6
		c0,0.8,0.6,1.6,1.6,1.6h6.3c0,1,0.2,1.8,0.6,2.8c-0.6,0.2-1.6,0.4-3.9,0.4c-0.4,0-1,0.2-1.4,0.4c-0.4,0.2-0.8,0.4-1,0.6
		c-0.4,0.4-0.8,1-1,1.6c-0.4,0.8-0.6,1.8-0.6,2.8c-0.2,1-0.2,2-0.2,2.8c0,2.2,0.2,4.3,0.2,4.3c0.2,0.8,0.8,1.4,1.6,1.4
		c0.8-0.2,1.4-0.8,1.4-1.6l0,0l0,0c0-0.2-0.2-1.8-0.2-3.9c0-0.8,0-1.4,0.2-2.2c0.2-1,0.4-2,0.6-2.6c0.2-0.2,0.2-0.4,0.4-0.4
		c0,0,0,0,0.2,0c2,0,3.4-0.2,4.3-0.4c0.4,0,0.6-0.2,0.8-0.2c1,1.8,2.4,3.7,4.1,5.1c1,0.8,2,1.4,3,2c1,0.4,2.2,0.8,3.2,0.8
		c1.4,0,2.8-0.6,4.3-1.4c2-1.2,3.9-3,5.5-5.3c0.2-0.4,0.4-0.8,0.6-1.2c0.2,0,0.6,0.2,1,0.2c0.8,0.2,2.2,0.4,4.3,0.4h0.2
		c0,0,0,0,0.2,0c0.2,0,0.2,0.4,0.4,0.6c0.2,0.4,0.4,1.2,0.4,2s0.2,1.6,0.2,2.6s0,2-0.2,2.6c0,0.4,0,0.6,0,0.8v0.2l0,0l0,0
		c-0.2,0.8,0.4,1.6,1.4,1.6s1.6-0.4,1.6-1.4l0,0c0,0,0.2-2,0.2-4.3C556,319.4,556,318.6,556,317.8z M529.6,292.4
		c0.4-0.8,1.2-1.4,2.2-2s2.4-0.8,3.9-0.8c1.8,0,3.7,0.6,4.7,1.4c0.6,0.4,1,0.8,1.2,1.4c0.2,0.4,0.4,1,0.4,1.4c0,0.6-0.2,1-0.4,1.4
		c-0.2,0.2-0.4,0.6-0.6,0.8c-0.4,0.4-1,0.8-1.6,1.2c-0.2,0-0.2,0-0.4,0.2c-1,0.4-2.2,0.6-3.4,0.6c-1.2,0-2.4-0.2-3.4-0.6
		c-0.4-0.2-1-0.4-1.4-0.8c-0.2-0.2-0.4-0.4-0.6-0.4c-0.2-0.2-0.6-0.6-0.8-0.8c-0.2-0.4-0.4-1-0.4-1.4
		C529.2,293.4,529.4,293,529.6,292.4z M544.4,311.9c-0.8,2-2.4,3.9-4.1,5.1c-0.8,0.6-1.6,1.2-2.4,1.6c-0.8,0.4-1.4,0.4-1.8,0.4
		c-0.8,0-1.8-0.2-2.8-1c-1.6-1-3.2-2.4-4.5-4.3c-1.2-1.8-1.8-3.9-1.8-5.7c0-2.4,0.2-4.3,0.6-5.5c0.2-1,0.6-1.6,1-2
		c0.2-0.4,0.6-0.6,1-0.8l0,0c0.2,0.2,0.4,0.2,0.8,0.4c1.4,0.8,3.2,1.2,5.1,1.2c2.2,0,4.5-0.6,6.1-1.6c0.2,0,0.4,0.2,0.4,0.2
		c0.4,0.2,0.8,0.4,1.2,0.8c0.6,0.6,1,1.2,1.2,2.4c0.4,1.2,0.6,2.8,0.6,5.1C545.2,309.3,545,310.5,544.4,311.9z"/>
</g>
<path class="st4" d="M268.9,202.3V197c0-3.7-3.5-6.8-7.9-6.8s-7.9,3-7.9,6.8v5.3h-2.8v2.9v5.3v3.2c0,1.6,1.7,2.6,3.2,2.6h15
	c1.6,0,3.2-1,3.2-2.6v-3.2v-5.3v-2.9H268.9z M261,193c2.9,0,5.1,2,5.1,4.5v4.8h-10.2v-4.8C255.9,195,258.1,193,261,193z"/>
</svg>
