<?xml version="1.0" encoding="utf-8"?>
<!-- Generator: Adobe Illustrator 19.2.0, SVG Export Plug-In . SVG Version: 6.00 Build 0)  -->
<svg version="1.1" id="Layer_1" xmlns="http://www.w3.org/2000/svg" xmlns:xlink="http://www.w3.org/1999/xlink" x="0px" y="0px"
	 viewBox="0 0 714 223" style="enable-background:new 0 0 714 223;" xml:space="preserve">
<style type="text/css">
	.st0{fill:#4C4277;}
	.st1{fill:#A3A3D3;}
	.st2{fill:#FFFFFF;}
	.st3{fill:#CACAEF;}
	.st4{fill:#A8B6DD;}
	.st5{fill:#5A69A0;}
</style>
<g>
	<path class="st0" d="M526.5,59.2L526.5,59.2c-8.6-8.6-19.6-13.5-30-13.5c-3.7,0-7.3,0.6-11,1.8s-6.7,3.7-9.8,6.1
		c-3.1,2.4-4.9,6.1-6.1,9.8s-1.8,7.3-1.8,11c0,9.2,3.7,18.4,9.8,25.7l-53.4,54.1c-2.4,2.4-2.4,6.1,0,8.6c2.4,2.4,6.1,2.4,8.6,0
		l2.4-2.4l12.9,12.9l22.7-23.3l-12.9-12.9l28.8-28.8c7.3,5.5,16.5,9.2,25.1,9.2c3.7,0,7.3-0.6,11-1.8s6.7-3.7,9.8-6.1
		c3.1-3.1,4.9-6.1,6.1-9.8c1.2-3.7,1.8-7.3,1.8-11C540,78.8,535.1,67.8,526.5,59.2z M526.5,96c-0.6,1.8-1.8,3.7-3.1,4.9
		c-1.2,1.2-3.1,2.4-4.9,3.1s-4.3,1.2-6.7,1.2c-6.7,0-14.7-3.1-21.4-9.8c-6.7-6.7-9.8-14.7-9.8-21.4c0-2.4,0.6-4.9,1.2-6.7
		s1.8-3.7,3.1-4.9c1.2-1.2,3.1-2.4,4.9-3.1c1.8-0.6,4.3-1.2,6.7-1.2c6.7,0,14.7,3.1,21.4,9.8c6.7,6.7,9.8,14.7,9.8,21.4
		C527.8,91.7,527.1,94.1,526.5,96z"/>
</g>
<g>
	<g>
		<polygon class="st1" points="314,45.2 249.3,45.2 249.3,174.2 350.3,174.2 350.3,81 		"/>
	</g>
	<polygon class="st2" points="314.3,82.6 350.7,81.6 314.3,46.2 	"/>
</g>
<g>
	<polygon class="st3" points="369.3,183.2 369.3,187.2 365.3,187.2 365.3,190.2 372.3,190.2 372.3,183.2 	"/>
	<path class="st3" d="M257.3,187.2h-12v3h12V187.2z M281.3,187.2h-12v3h12V187.2z M305.3,187.2h-12v3h12V187.2z M329.3,187.2h-12v3
		h12V187.2z M353.3,187.2h-12v3h12V187.2z"/>
	<polygon class="st3" points="236.3,187.2 231.3,187.2 231.3,183.2 228.3,183.2 228.3,190.2 236.3,190.2 	"/>
	<path class="st3" d="M231.3,62.2v-11h-3v11H231.3z M231.3,84.2v-11h-3v11H231.3z M231.3,106.2v-11h-3v11H231.3z M231.3,128.2v-11
		h-3v11H231.3z M231.3,150.2v-11h-3v11H231.3z M231.3,172.2v-11h-3v11H231.3z"/>
	<polygon class="st3" points="231.3,36.2 231.3,32.2 236.3,32.2 236.3,29.2 228.3,29.2 228.3,36.2 	"/>
	<path class="st3" d="M344.3,32.2h12v-3h-12V32.2z M320.3,32.2h12v-3h-12V32.2z M296.3,32.2h12v-3h-12V32.2z M272.3,32.2h12v-3h-12
		V32.2z M248.3,32.2h12v-3h-12V32.2z"/>
	<path class="st3" d="M369.3,157.2v11h3v-11H369.3z M369.3,135.2v11h3v-11H369.3z M369.3,113.2v11h3v-11H369.3z M369.3,91.2v11h3
		v-11H369.3z M369.3,69.2v11h3v-11H369.3z M369.3,47.2v11h3v-11H369.3z"/>
</g>
<g>
	<path class="st4" d="M96.2,170.4c-0.2-1.2-0.4-2.6-1-3.7c-0.2-0.6-0.6-1-1.2-1.4s-1.2-0.6-2-0.6c-1.8,0-3-0.2-3.7-0.2
		c-0.2,0-0.2,0-0.4,0c0.2-0.8,0.4-1.8,0.6-2.8h5.7c0.8,0,1.6-0.6,1.6-1.6c0-0.8-0.6-1.6-1.6-1.6h-5.7c0-1-0.2-2-0.4-3
		c0.4-0.2,1.6-0.4,4.1-0.4c0.4,0,1-0.2,1.4-0.4c0.4-0.2,0.8-0.4,1-0.6c0.4-0.4,0.8-1,1-1.6c0.4-0.8,0.6-1.8,0.6-2.8
		c0.2-1,0.2-2,0.2-2.8c0-2.2-0.2-4.3-0.2-4.3c-0.2-0.8-0.8-1.4-1.6-1.4c-0.8,0.2-1.4,0.8-1.4,1.6l0,0l0,0c0,0.2,0.2,1.8,0.2,3.9
		c0,0.8,0,1.4-0.2,2.2c-0.2,1-0.4,2-0.6,2.6c-0.2,0.2-0.2,0.4-0.4,0.4c0,0,0,0-0.2,0c-2,0-3.4,0.2-4.3,0.4c-0.4,0-0.6,0.2-0.8,0.2
		c-0.4-0.6-0.8-1-1.2-1.6c-0.4-0.4-0.8-0.6-1.2-1c0-0.2,0.2-0.2,0.2-0.4c0.6-0.8,0.8-2,0.8-3s-0.4-2-0.8-3c-0.4-0.8-1.2-1.6-2-2.2
		V137c0-0.8-0.6-1.6-1.6-1.6c-0.8,0-1.6,0.6-1.6,1.6v2.6c-1.2-0.4-2.4-0.6-3.7-0.6c-1.2,0-2.4,0.2-3.7,0.6V137
		c0-0.8-0.6-1.6-1.6-1.6c-0.8,0-1.6,0.6-1.6,1.6v4.3c-0.8,0.6-1.4,1.4-2,2.2c-0.6,0.8-0.8,2-0.8,3s0.4,2,0.8,3
		c0.2,0.2,0.2,0.4,0.4,0.6c-0.4,0.4-0.8,0.6-1.2,1.2c-0.2,0.4-0.4,0.6-0.6,1c-0.2,0-0.4-0.2-0.8-0.2c-0.8-0.2-2.2-0.4-4.3-0.4h-0.2
		c0,0,0,0-0.2,0c-0.2,0-0.2-0.4-0.4-0.6c-0.2-0.4-0.4-1.2-0.4-2s-0.2-1.6-0.2-2.6s0-2,0.2-2.6c0-0.4,0-0.6,0-0.8v-0.2l0,0l0,0
		c0.2-0.8-0.4-1.6-1.4-1.6c-0.8-0.2-1.6,0.4-1.6,1.4l0,0c0,0-0.2,2-0.2,4.3c0,0.8,0,1.6,0.2,2.6c0.2,1.2,0.4,2.6,1,3.7
		c0.2,0.6,0.6,1,1.2,1.4s1.2,0.6,2,0.6c1.8,0,3,0.2,3.7,0.2c0,0-0.2,2-0.2,3h-6.3c-0.8,0-1.6,0.6-1.6,1.6c0,0.8,0.6,1.6,1.6,1.6h6.3
		c0,1,0.2,1.8,0.6,2.8c-0.6,0.2-1.6,0.4-3.9,0.4c-0.4,0-1,0.2-1.4,0.4s-0.8,0.4-1,0.6c-0.4,0.4-0.8,1-1,1.6
		c-0.4,0.8-0.6,1.8-0.6,2.8c-0.2,1-0.2,2-0.2,2.8c0,2.2,0.2,4.3,0.2,4.3c0.2,0.8,0.8,1.4,1.6,1.4c0.8-0.2,1.4-0.8,1.4-1.6l0,0l0,0
		c0-0.2-0.2-1.8-0.2-3.9c0-0.8,0-1.4,0.2-2.2c0.2-1,0.4-2,0.6-2.6c0.2-0.2,0.2-0.4,0.4-0.4c0,0,0,0,0.2,0c2,0,3.4-0.2,4.3-0.4
		c0.4,0,0.6-0.2,0.8-0.2c1,1.8,2.4,3.7,4.1,5.1c1,0.8,2,1.4,3,2c1,0.4,2.2,0.8,3.2,0.8c1.4,0,2.8-0.6,4.3-1.4c2-1.2,3.9-3,5.5-5.3
		c0.2-0.4,0.4-0.8,0.6-1.2c0.2,0,0.6,0.2,1,0.2c0.8,0.2,2.2,0.4,4.3,0.4h0.2c0,0,0,0,0.2,0c0.2,0,0.2,0.4,0.4,0.6
		c0.2,0.4,0.4,1.2,0.4,2s0.2,1.6,0.2,2.6s0,2-0.2,2.6c0,0.4,0,0.6,0,0.8v0.2l0,0l0,0c-0.2,0.8,0.4,1.6,1.4,1.6s1.6-0.4,1.6-1.4l0,0
		c0,0,0.2-2,0.2-4.3C96.2,172.1,96.2,171.2,96.2,170.4z M69.8,145.1c0.4-0.8,1.2-1.4,2.2-2s2.4-0.8,3.9-0.8c1.8,0,3.7,0.6,4.7,1.4
		c0.6,0.4,1,0.8,1.2,1.4c0.2,0.4,0.4,1,0.4,1.4c0,0.6-0.2,1-0.4,1.4c-0.2,0.2-0.4,0.6-0.6,0.8c-0.4,0.4-1,0.8-1.6,1.2
		c-0.2,0-0.2,0-0.4,0.2c-1,0.4-2.2,0.6-3.4,0.6c-1.2,0-2.4-0.2-3.4-0.6c-0.4-0.2-1-0.4-1.4-0.8c-0.2-0.2-0.4-0.4-0.6-0.4
		c-0.2-0.2-0.6-0.6-0.8-0.8c-0.2-0.4-0.4-1-0.4-1.4C69.4,146.1,69.6,145.7,69.8,145.1z M84.6,164.5c-0.8,2-2.4,3.9-4.1,5.1
		c-0.8,0.6-1.6,1.2-2.4,1.6c-0.8,0.4-1.4,0.4-1.8,0.4c-0.8,0-1.8-0.2-2.8-1c-1.6-1-3.2-2.4-4.5-4.3c-1.3-1.9-1.8-3.9-1.8-5.7
		c0-2.4,0.2-4.3,0.6-5.5c0.2-1,0.6-1.6,1-2c0.2-0.4,0.6-0.6,1-0.8l0,0c0.2,0.2,0.4,0.2,0.8,0.4c1.4,0.8,3.2,1.2,5.1,1.2
		c2.2,0,4.5-0.6,6.1-1.6c0.2,0,0.4,0.2,0.4,0.2c0.4,0.2,0.8,0.4,1.2,0.8c0.6,0.6,1,1.2,1.2,2.4c0.4,1.2,0.6,2.8,0.6,5.1
		C85.4,161.9,85.2,163.1,84.6,164.5z"/>
</g>
<g>
	<path class="st4" d="M168.1,75.7c-0.2-1.2-0.4-2.6-1-3.7c-0.2-0.6-0.6-1-1.2-1.4s-1.2-0.6-2-0.6c-1.8,0-3-0.2-3.7-0.2
		c-0.2,0-0.2,0-0.4,0c0.2-0.8,0.4-1.8,0.6-2.8h5.7c0.8,0,1.6-0.6,1.6-1.6c0-0.8-0.6-1.6-1.6-1.6h-5.7c0-1-0.2-2-0.4-3
		c0.4-0.2,1.6-0.4,4.1-0.4c0.4,0,1-0.2,1.4-0.4c0.4-0.2,0.8-0.4,1-0.6c0.4-0.4,0.8-1,1-1.6c0.4-0.8,0.6-1.8,0.6-2.8
		c0.2-1,0.2-2,0.2-2.8c0-2.2-0.2-4.3-0.2-4.3c-0.2-0.8-0.8-1.4-1.6-1.4c-0.8,0.2-1.4,0.8-1.4,1.6l0,0l0,0c0,0.2,0.2,1.8,0.2,3.9
		c0,0.8,0,1.4-0.2,2.2c-0.2,1-0.4,2-0.6,2.6c-0.2,0.2-0.2,0.4-0.4,0.4c0,0,0,0-0.2,0c-2,0-3.4,0.2-4.3,0.4c-0.4,0-0.6,0.2-0.8,0.2
		c-0.4-0.6-0.8-1-1.2-1.6c-0.4-0.4-0.8-0.6-1.2-1c0-0.2,0.2-0.2,0.2-0.4c0.6-0.8,0.8-2,0.8-3s-0.4-2-0.8-3c-0.4-0.8-1.2-1.6-2-2.2
		v-4.3c0-0.8-0.6-1.6-1.6-1.6c-0.8,0-1.6,0.6-1.6,1.6v2.6c-1.2-0.4-2.4-0.6-3.7-0.6c-1.2,0-2.4,0.2-3.7,0.6v-2.6
		c0-0.8-0.6-1.6-1.6-1.6c-0.8,0-1.6,0.6-1.6,1.6v4.3c-0.8,0.6-1.4,1.4-2,2.2s-0.8,2-0.8,3s0.4,2,0.8,3c0.2,0.2,0.2,0.4,0.4,0.6
		c-0.4,0.4-0.8,0.6-1.2,1.2c-0.2,0.4-0.4,0.6-0.6,1c-0.2,0-0.4-0.2-0.8-0.2c-0.8-0.2-2.2-0.4-4.3-0.4h-0.2c0,0,0,0-0.2,0
		c-0.2,0-0.2-0.4-0.4-0.6c-0.2-0.4-0.4-1.2-0.4-2s-0.2-1.6-0.2-2.6s0-2,0.2-2.6c0-0.4,0-0.6,0-0.8v-0.2l0,0l0,0
		c0.2-0.8-0.4-1.6-1.4-1.6c-0.8-0.2-1.6,0.4-1.6,1.4l0,0c0,0-0.2,2-0.2,4.3c0,0.8,0,1.6,0.2,2.6c0.2,1.2,0.4,2.6,1,3.7
		c0.2,0.6,0.6,1,1.2,1.4s1.2,0.6,2,0.6c1.8,0,3,0.2,3.7,0.2c0,0-0.2,2-0.2,3h-6.3c-0.8,0-1.6,0.6-1.6,1.6c0,0.8,0.6,1.6,1.6,1.6h6.3
		c0,1,0.2,1.8,0.6,2.8c-0.6,0.2-1.6,0.4-3.9,0.4c-0.4,0-1,0.2-1.4,0.4c-0.4,0.2-0.8,0.4-1,0.6c-0.4,0.4-0.8,1-1,1.6
		c-0.4,0.8-0.6,1.8-0.6,2.8c-0.2,1-0.2,2-0.2,2.8c0,2.2,0.2,4.3,0.2,4.3c0.2,0.8,0.8,1.4,1.6,1.4c0.8-0.2,1.4-0.8,1.4-1.6l0,0l0,0
		c0-0.2-0.2-1.8-0.2-3.9c0-0.8,0-1.4,0.2-2.2c0.2-1,0.4-2,0.6-2.6c0.2-0.2,0.2-0.4,0.4-0.4c0,0,0,0,0.2,0c2,0,3.4-0.2,4.3-0.4
		c0.4,0,0.6-0.2,0.8-0.2c1,1.8,2.4,3.7,4.1,5.1c1,0.8,2,1.4,3,2c1,0.4,2.2,0.8,3.2,0.8c1.4,0,2.8-0.6,4.3-1.4c2-1.2,3.9-3,5.5-5.3
		c0.2-0.4,0.4-0.8,0.6-1.2c0.2,0,0.6,0.2,1,0.2c0.8,0.2,2.2,0.4,4.3,0.4h0.2c0,0,0,0,0.2,0c0.2,0,0.2,0.4,0.4,0.6
		c0.2,0.4,0.4,1.2,0.4,2s0.2,1.6,0.2,2.6s0,2-0.2,2.6c0,0.4,0,0.6,0,0.8v0.2l0,0l0,0c-0.2,0.8,0.4,1.6,1.4,1.6s1.6-0.4,1.6-1.4l0,0
		c0,0,0.2-2,0.2-4.3C168.1,77.3,168.1,76.5,168.1,75.7z M141.7,50.3c0.4-0.8,1.2-1.4,2.2-2s2.4-0.8,3.9-0.8c1.8,0,3.7,0.6,4.7,1.4
		c0.6,0.4,1,0.8,1.2,1.4c0.2,0.4,0.4,1,0.4,1.4c0,0.6-0.2,1-0.4,1.4c-0.2,0.2-0.4,0.6-0.6,0.8c-0.4,0.4-1,0.8-1.6,1.2
		c-0.2,0-0.2,0-0.4,0.2c-1,0.4-2.2,0.6-3.4,0.6s-2.4-0.2-3.4-0.6c-0.4-0.2-1-0.4-1.4-0.8c-0.2-0.2-0.4-0.4-0.6-0.4
		c-0.2-0.2-0.6-0.6-0.8-0.8c-0.2-0.4-0.4-1-0.4-1.4C141.3,51.3,141.5,50.9,141.7,50.3z M156.6,69.8c-0.8,2-2.4,3.9-4.1,5.1
		c-0.8,0.6-1.6,1.2-2.4,1.6c-0.8,0.4-1.4,0.4-1.8,0.4c-0.8,0-1.8-0.2-2.8-1c-1.6-1-3.2-2.4-4.5-4.3c-1.3-1.9-1.8-3.9-1.8-5.7
		c0-2.4,0.2-4.3,0.6-5.5c0.2-1,0.6-1.6,1-2c0.2-0.4,0.6-0.6,1-0.8l0,0c0.2,0.2,0.4,0.2,0.8,0.4c1.4,0.8,3.2,1.2,5.1,1.2
		c2.2,0,4.5-0.6,6.1-1.6c0.2,0,0.4,0.2,0.4,0.2c0.4,0.2,0.8,0.4,1.2,0.8c0.6,0.6,1,1.2,1.2,2.4c0.4,1.2,0.6,2.8,0.6,5.1
		C157.4,67.2,157.2,68.4,156.6,69.8z"/>
</g>
<g>
	<path class="st4" d="M665.8,144.8c-0.2-1.2-0.4-2.6-1-3.7c-0.2-0.6-0.6-1-1.2-1.4c-0.6-0.4-1.2-0.6-2-0.6c-1.8,0-3-0.2-3.7-0.2
		c-0.2,0-0.2,0-0.4,0c0.2-0.8,0.4-1.8,0.6-2.8h5.7c0.8,0,1.6-0.6,1.6-1.6c0-0.8-0.6-1.6-1.6-1.6h-5.7c0-1-0.2-2-0.4-3
		c0.4-0.2,1.6-0.4,4.1-0.4c0.4,0,1-0.2,1.4-0.4s0.8-0.4,1-0.6c0.4-0.4,0.8-1,1-1.6c0.4-0.8,0.6-1.8,0.6-2.8c0.2-1,0.2-2,0.2-2.8
		c0-2.2-0.2-4.3-0.2-4.3c-0.2-0.8-0.8-1.4-1.6-1.4c-0.8,0.2-1.4,0.8-1.4,1.6l0,0l0,0c0,0.2,0.2,1.8,0.2,3.9c0,0.8,0,1.4-0.2,2.2
		c-0.2,1-0.4,2-0.6,2.6c-0.2,0.2-0.2,0.4-0.4,0.4c0,0,0,0-0.2,0c-2,0-3.4,0.2-4.3,0.4c-0.4,0-0.6,0.2-0.8,0.2
		c-0.4-0.6-0.8-1-1.2-1.6c-0.4-0.4-0.8-0.6-1.2-1c0-0.2,0.2-0.2,0.2-0.4c0.6-0.8,0.8-2,0.8-3s-0.4-2-0.8-3c-0.4-0.8-1.2-1.6-2-2.2
		v-4.3c0-0.8-0.6-1.6-1.6-1.6c-0.8,0-1.6,0.6-1.6,1.6v2.6c-1.2-0.4-2.4-0.6-3.7-0.6c-1.2,0-2.4,0.2-3.7,0.6v-2.6
		c0-0.8-0.6-1.6-1.6-1.6c-0.8,0-1.6,0.6-1.6,1.6v4.3c-0.8,0.6-1.4,1.4-2,2.2c-0.6,0.8-0.8,2-0.8,3s0.4,2,0.8,3
		c0.2,0.2,0.2,0.4,0.4,0.6c-0.4,0.4-0.8,0.6-1.2,1.2c-0.2,0.4-0.4,0.6-0.6,1c-0.2,0-0.4-0.2-0.8-0.2c-0.8-0.2-2.2-0.4-4.3-0.4h-0.2
		c0,0,0,0-0.2,0s-0.2-0.4-0.4-0.6c-0.2-0.4-0.4-1.2-0.4-2s-0.2-1.6-0.2-2.6s0-2,0.2-2.6c0-0.4,0-0.6,0-0.8v-0.2l0,0l0,0
		c0.2-0.8-0.4-1.6-1.4-1.6c-0.8-0.2-1.6,0.4-1.6,1.4l0,0c0,0-0.2,2-0.2,4.3c0,0.8,0,1.6,0.2,2.6c0.2,1.2,0.4,2.6,1,3.7
		c0.2,0.6,0.6,1,1.2,1.4c0.6,0.4,1.2,0.6,2,0.6c1.8,0,3,0.2,3.7,0.2c0,0-0.2,2-0.2,3h-6.3c-0.8,0-1.6,0.6-1.6,1.6
		c0,0.8,0.6,1.6,1.6,1.6h6.3c0,1,0.2,1.8,0.6,2.8c-0.6,0.2-1.6,0.4-3.9,0.4c-0.4,0-1,0.2-1.4,0.4c-0.4,0.2-0.8,0.4-1,0.6
		c-0.4,0.4-0.8,1-1,1.6c-0.4,0.8-0.6,1.8-0.6,2.8c-0.2,1-0.2,2-0.2,2.8c0,2.2,0.2,4.3,0.2,4.3c0.2,0.8,0.8,1.4,1.6,1.4
		c0.8-0.2,1.4-0.8,1.4-1.6l0,0l0,0c0-0.2-0.2-1.8-0.2-3.9c0-0.8,0-1.4,0.2-2.2c0.2-1,0.4-2,0.6-2.6c0.2-0.2,0.2-0.4,0.4-0.4
		c0,0,0,0,0.2,0c2,0,3.4-0.2,4.3-0.4c0.4,0,0.6-0.2,0.8-0.2c1,1.8,2.4,3.7,4.1,5.1c1,0.8,2,1.4,3,2c1,0.4,2.2,0.8,3.2,0.8
		c1.4,0,2.8-0.6,4.3-1.4c2-1.2,3.9-3,5.5-5.3c0.2-0.4,0.4-0.8,0.6-1.2c0.2,0,0.6,0.2,1,0.2c0.8,0.2,2.2,0.4,4.3,0.4h0.2
		c0,0,0,0,0.2,0s0.2,0.4,0.4,0.6c0.2,0.4,0.4,1.2,0.4,2s0.2,1.6,0.2,2.6s0,2-0.2,2.6c0,0.4,0,0.6,0,0.8v0.2l0,0l0,0
		c-0.2,0.8,0.4,1.6,1.4,1.6s1.6-0.4,1.6-1.4l0,0c0,0,0.2-2,0.2-4.3C665.8,146.4,665.8,145.6,665.8,144.8z M639.4,119.4
		c0.4-0.8,1.2-1.4,2.2-2s2.4-0.8,3.9-0.8c1.8,0,3.7,0.6,4.7,1.4c0.6,0.4,1,0.8,1.2,1.4c0.2,0.4,0.4,1,0.4,1.4c0,0.6-0.2,1-0.4,1.4
		c-0.2,0.2-0.4,0.6-0.6,0.8c-0.4,0.4-1,0.8-1.6,1.2c-0.2,0-0.2,0-0.4,0.2c-1,0.4-2.2,0.6-3.4,0.6s-2.4-0.2-3.4-0.6
		c-0.4-0.2-1-0.4-1.4-0.8c-0.2-0.2-0.4-0.4-0.6-0.4c-0.2-0.2-0.6-0.6-0.8-0.8c-0.2-0.4-0.4-1-0.4-1.4
		C639,120.4,639.2,120,639.4,119.4z M654.2,138.9c-0.8,2-2.4,3.9-4.1,5.1c-0.8,0.6-1.6,1.2-2.4,1.6c-0.8,0.4-1.4,0.4-1.8,0.4
		c-0.8,0-1.8-0.2-2.8-1c-1.6-1-3.2-2.4-4.5-4.3c-1.2-1.8-1.8-3.9-1.8-5.7c0-2.4,0.2-4.3,0.6-5.5c0.2-1,0.6-1.6,1-2
		c0.2-0.4,0.6-0.6,1-0.8l0,0c0.2,0.2,0.4,0.2,0.8,0.4c1.4,0.8,3.2,1.2,5.1,1.2c2.2,0,4.5-0.6,6.1-1.6c0.2,0,0.4,0.2,0.4,0.2
		c0.4,0.2,0.8,0.4,1.2,0.8c0.6,0.6,1,1.2,1.2,2.4c0.4,1.2,0.6,2.8,0.6,5.1C655,136.3,654.8,137.5,654.2,138.9z"/>
</g>
<path class="st5" d="M378.7,29.3V24c0-3.7-3.5-6.8-7.9-6.8s-7.9,3-7.9,6.8v5.3h-2.8v2.9v5.3v3.2c0,1.6,1.7,2.6,3.2,2.6h15
	c1.6,0,3.2-1,3.2-2.6v-3.2v-5.3v-2.9H378.7z M370.8,20c2.9,0,5.1,2,5.1,4.5v4.8h-10.2v-4.8C365.7,22,367.9,20,370.8,20z"/>
</svg>
