<?xml version="1.0" encoding="utf-8"?>
<!-- Generator: Adobe Illustrator 19.2.0, SVG Export Plug-In . SVG Version: 6.00 Build 0)  -->
<svg version="1.1" id="Layer_1" xmlns="http://www.w3.org/2000/svg" xmlns:xlink="http://www.w3.org/1999/xlink" x="0px" y="0px"
	 viewBox="0 0 737.3 237" style="enable-background:new 0 0 737.3 237;" xml:space="preserve">
<style type="text/css">
	.st0{fill:#FFFFFF;}
	.st1{fill:#4C4277;}
	.st2{opacity:0.8;fill:#FFFFFF;enable-background:new    ;}
	.st3{opacity:0.8;}
	.st4{opacity:0.5;fill:#FFFFFF;enable-background:new    ;}
	.st5{opacity:0.5;}
	.st6{opacity:0.2;fill:#FFFFFF;enable-background:new    ;}
</style>
<rect x="135.1" y="46.2" class="st0" width="35.5" height="24"/>
<rect x="135.1" y="117.2" class="st0" width="35.5" height="20.4"/>
<rect x="135.1" y="184.6" class="st0" width="35.5" height="20.4"/>
<g>
	<g>
		<circle class="st1" cx="110" cy="47.6" r="6.6"/>
		<circle class="st1" cx="87.5" cy="47.6" r="6.6"/>
		<circle class="st1" cx="65.2" cy="47.6" r="6.6"/>
		<circle class="st1" cx="110" cy="114.9" r="6.6"/>
		<circle class="st1" cx="87.5" cy="114.9" r="6.6"/>
		<circle class="st1" cx="65.2" cy="114.9" r="6.6"/>
		<circle class="st1" cx="110" cy="182.1" r="6.6"/>
		<circle class="st1" cx="87.5" cy="182.1" r="6.6"/>
		<circle class="st1" cx="65.2" cy="182.1" r="6.6"/>
		<circle class="st1" cx="65.2" cy="70" r="6.6"/>
		<circle class="st1" cx="65.2" cy="137.3" r="6.6"/>
		<circle class="st1" cx="65.2" cy="92.4" r="6.6"/>
		<circle class="st1" cx="65.2" cy="159.7" r="6.6"/>
		<g>
			<path class="st1" d="M345.4,26.6c0-2.9-2.4-5.2-5.2-5.2H130.6c-2.9,0-5.2,2.4-5.2,5.2v48.1c0,2.9,2.4,5.2,5.2,5.2h209.6
				c2.9,0,5.2-2.4,5.2-5.2L345.4,26.6L345.4,26.6z M162.6,63.4c0,1.2-1,2.3-2.3,2.3h-21.2c-1.2,0-2.3-1-2.3-2.3v-7
				c0-1.2,1-2.3,2.3-2.3h21.2c1.2,0,2.3,1,2.3,2.3V63.4z"/>
			<path class="st1" d="M345.4,94c0-2.9-2.4-5.2-5.2-5.2H130.6c-2.9,0-5.2,2.4-5.2,5.2v48.1c0,2.9,2.4,5.2,5.2,5.2h209.6
				c2.9,0,5.2-2.4,5.2-5.2L345.4,94L345.4,94z M162.6,130.8c0,1.2-1,2.3-2.3,2.3h-21.2c-1.2,0-2.3-1-2.3-2.3v-7c0-1.2,1-2.3,2.3-2.3
				h21.2c1.2,0,2.3,1,2.3,2.3V130.8z"/>
			<path class="st1" d="M345.4,159.7c0-2.9-2.4-5.2-5.2-5.2H130.6c-2.9,0-5.2,2.4-5.2,5.2v48.1c0,2.9,2.4,5.2,5.2,5.2h209.6
				c2.9,0,5.2-2.4,5.2-5.2L345.4,159.7L345.4,159.7z M162.6,199.1c0,1.2-1,2.3-2.3,2.3h-21.2c-1.2,0-2.3-1-2.3-2.3v-7
				c0-1.2,1-2.3,2.3-2.3h21.2c1.2,0,2.3,1,2.3,2.3V199.1z"/>
		</g>
	</g>
</g>
<rect x="396.8" y="28.4" class="st0" width="10.6" height="8"/>
<rect x="396.8" y="49.7" class="st0" width="10.6" height="7.1"/>
<rect x="396.8" y="70.1" class="st0" width="10.6" height="7.1"/>
<g>
	<g>
		<circle class="st1" cx="388.8" cy="29.2" r="2"/>
		<circle class="st1" cx="382" cy="29.2" r="2"/>
		<circle class="st1" cx="375.2" cy="29.2" r="2"/>
		<circle class="st1" cx="388.8" cy="49.6" r="2"/>
		<circle class="st1" cx="382" cy="49.6" r="2"/>
		<circle class="st1" cx="375.2" cy="49.6" r="2"/>
		<circle class="st1" cx="388.8" cy="70.1" r="2"/>
		<circle class="st1" cx="382" cy="70.1" r="2"/>
		<circle class="st1" cx="375.2" cy="70.1" r="2"/>
		<circle class="st1" cx="375.2" cy="36" r="2"/>
		<circle class="st1" cx="375.2" cy="56.5" r="2"/>
		<circle class="st1" cx="375.2" cy="42.8" r="2"/>
		<circle class="st1" cx="375.2" cy="63.3" r="2"/>
		<g>
			<path class="st1" d="M459.8,22.9c0-0.9-0.7-1.6-1.6-1.6h-63.4c-0.9,0-1.6,0.7-1.6,1.6v14.6c0,0.9,0.7,1.6,1.6,1.6h63.4
				c0.9,0,1.6-0.7,1.6-1.6V22.9z M404.8,33.9c0,0.4-0.3,0.7-0.7,0.7h-6.6c-0.4,0-0.7-0.3-0.7-0.7v-2.1c0-0.4,0.3-0.7,0.7-0.7h6.6
				c0.4,0,0.7,0.3,0.7,0.7V33.9z"/>
			<path class="st1" d="M459.8,43.3c0-0.9-0.7-1.6-1.6-1.6h-63.4c-0.9,0-1.6,0.7-1.6,1.6v14.6c0,0.9,0.7,1.6,1.6,1.6h63.4
				c0.9,0,1.6-0.7,1.6-1.6V43.3z M404.8,54.3c0,0.4-0.3,0.7-0.7,0.7h-6.6c-0.4,0-0.7-0.3-0.7-0.7v-2.1c0-0.4,0.3-0.7,0.7-0.7h6.6
				c0.4,0,0.7,0.3,0.7,0.7V54.3z"/>
			<path class="st1" d="M459.8,62.9c0-0.9-0.7-1.6-1.6-1.6h-63.4c-0.9,0-1.6,0.7-1.6,1.6v14.6c0,0.9,0.7,1.6,1.6,1.6h63.4
				c0.9,0,1.6-0.7,1.6-1.6V62.9z M404.8,74.8c0,0.4-0.3,0.7-0.7,0.7h-6.6c-0.4,0-0.7-0.3-0.7-0.7v-2.1c0-0.4,0.3-0.7,0.7-0.7h6.6
				c0.4,0,0.7,0.3,0.7,0.7V74.8z"/>
		</g>
	</g>
</g>
<rect x="396.8" y="95.9" class="st0" width="10.6" height="7.1"/>
<rect x="396.8" y="117.2" class="st0" width="10.6" height="6.2"/>
<rect x="396.8" y="137.6" class="st0" width="10.6" height="7.1"/>
<g>
	<g>
		<circle class="st1" cx="388.8" cy="96.3" r="2"/>
		<circle class="st1" cx="382" cy="96.3" r="2"/>
		<circle class="st1" cx="375.2" cy="96.3" r="2"/>
		<circle class="st1" cx="388.8" cy="116.8" r="2"/>
		<circle class="st1" cx="382" cy="116.8" r="2"/>
		<circle class="st1" cx="375.2" cy="116.8" r="2"/>
		<circle class="st1" cx="388.8" cy="137.2" r="2"/>
		<circle class="st1" cx="382" cy="137.2" r="2"/>
		<circle class="st1" cx="375.2" cy="137.2" r="2"/>
		<circle class="st1" cx="375.2" cy="103.1" r="2"/>
		<circle class="st1" cx="375.2" cy="123.6" r="2"/>
		<circle class="st1" cx="375.2" cy="110" r="2"/>
		<circle class="st1" cx="375.2" cy="130.5" r="2"/>
		<g>
			<path class="st1" d="M459.8,89.5c0-0.9-0.7-1.6-1.6-1.6h-63.4c-0.9,0-1.6,0.7-1.6,1.6V104c0,0.9,0.7,1.6,1.6,1.6h63.4
				c0.9,0,1.6-0.7,1.6-1.6V89.5z M404.8,100.5c0,0.4-0.3,0.7-0.7,0.7h-6.6c-0.4,0-0.7-0.3-0.7-0.7v-2.1c0-0.4,0.3-0.7,0.7-0.7h6.6
				c0.4,0,0.7,0.3,0.7,0.7V100.5z"/>
			<path class="st1" d="M459.8,109.9c0-0.9-0.7-1.6-1.6-1.6h-63.4c-0.9,0-1.6,0.7-1.6,1.6v14.6c0,0.9,0.7,1.6,1.6,1.6h63.4
				c0.9,0,1.6-0.7,1.6-1.6V109.9z M404.8,121.8c0,0.4-0.3,0.7-0.7,0.7h-6.6c-0.4,0-0.7-0.3-0.7-0.7v-2.1c0-0.4,0.3-0.7,0.7-0.7h6.6
				c0.4,0,0.7,0.3,0.7,0.7V121.8z"/>
			<path class="st1" d="M459.8,130.3c0-0.9-0.7-1.6-1.6-1.6h-63.4c-0.9,0-1.6,0.7-1.6,1.6v14.6c0,0.9,0.7,1.6,1.6,1.6h63.4
				c0.9,0,1.6-0.7,1.6-1.6V130.3z M404.8,142.2c0,0.4-0.3,0.7-0.7,0.7h-6.6c-0.4,0-0.7-0.3-0.7-0.7v-2.1c0-0.4,0.3-0.7,0.7-0.7h6.6
				c0.4,0,0.7,0.3,0.7,0.7V142.2z"/>
		</g>
	</g>
</g>
<rect x="396.8" y="163.3" class="st0" width="10.6" height="6.2"/>
<rect x="396.8" y="184.6" class="st0" width="10.6" height="5.3"/>
<g>
	<g>
		<circle class="st1" cx="388.8" cy="163.5" r="2"/>
		<circle class="st1" cx="382" cy="163.5" r="2"/>
		<circle class="st1" cx="375.2" cy="163.5" r="2"/>
		<circle class="st1" cx="388.8" cy="184" r="2"/>
		<circle class="st1" cx="382" cy="184" r="2"/>
		<circle class="st1" cx="375.2" cy="184" r="2"/>
		<circle class="st1" cx="388.8" cy="204.4" r="2"/>
		<circle class="st1" cx="382" cy="204.4" r="2"/>
		<circle class="st1" cx="375.2" cy="204.4" r="2"/>
		<circle class="st1" cx="375.2" cy="170.3" r="2"/>
		<circle class="st1" cx="375.2" cy="190.8" r="2"/>
		<circle class="st1" cx="375.2" cy="177.1" r="2"/>
		<circle class="st1" cx="375.2" cy="197.6" r="2"/>
		<g>
			<path class="st1" d="M459.8,156.9c0-0.9-0.7-1.6-1.6-1.6h-63.4c-0.9,0-1.6,0.7-1.6,1.6v14.6c0,0.9,0.7,1.6,1.6,1.6h63.4
				c0.9,0,1.6-0.7,1.6-1.6V156.9z M404.8,167c0,0.4-0.3,0.7-0.7,0.7h-6.6c-0.4,0-0.7-0.3-0.7-0.7v-2.1c0-0.4,0.3-0.7,0.7-0.7h6.6
				c0.4,0,0.7,0.3,0.7,0.7V167z"/>
			<path class="st1" d="M459.8,177.3c0-0.9-0.7-1.6-1.6-1.6h-63.4c-0.9,0-1.6,0.7-1.6,1.6v14.6c0,0.9,0.7,1.6,1.6,1.6h63.4
				c0.9,0,1.6-0.7,1.6-1.6V177.3z M404.8,189.2c0,0.4-0.3,0.7-0.7,0.7h-6.6c-0.4,0-0.7-0.3-0.7-0.7v-2.1c0-0.4,0.3-0.7,0.7-0.7h6.6
				c0.4,0,0.7,0.3,0.7,0.7V189.2z"/>
			<path class="st1" d="M459.8,197.7c0-0.9-0.7-1.6-1.6-1.6h-63.4c-0.9,0-1.6,0.7-1.6,1.6v14.6c0,0.9,0.7,1.6,1.6,1.6h63.4
				c0.9,0,1.6-0.7,1.6-1.6V197.7z M404.8,209.6c0,0.4-0.3,0.7-0.7,0.7h-6.6c-0.4,0-0.7-0.3-0.7-0.7v-2.1c0-0.4,0.3-0.7,0.7-0.7h6.6
				c0.4,0,0.7,0.3,0.7,0.7V209.6z"/>
		</g>
	</g>
</g>
<rect x="511.3" y="49.7" class="st2" width="10.6" height="7.1"/>
<rect x="511.3" y="70.1" class="st2" width="10.6" height="7.1"/>
<g class="st3">
	<g>
		<circle class="st1" cx="503.7" cy="29.2" r="2"/>
		<circle class="st1" cx="496.8" cy="29.2" r="2"/>
		<circle class="st1" cx="490" cy="29.2" r="2"/>
		<circle class="st1" cx="503.7" cy="49.6" r="2"/>
		<circle class="st1" cx="496.8" cy="49.6" r="2"/>
		<circle class="st1" cx="490" cy="49.6" r="2"/>
		<circle class="st1" cx="503.7" cy="70.1" r="2"/>
		<circle class="st1" cx="496.8" cy="70.1" r="2"/>
		<circle class="st1" cx="490" cy="70.1" r="2"/>
		<circle class="st1" cx="490" cy="36" r="2"/>
		<circle class="st1" cx="490" cy="56.5" r="2"/>
		<circle class="st1" cx="490" cy="42.8" r="2"/>
		<circle class="st1" cx="490" cy="63.3" r="2"/>
		<g>
			<path class="st1" d="M575.2,22.9c0-0.9-0.7-1.6-1.6-1.6h-63.4c-0.9,0-1.6,0.7-1.6,1.6v14.6c0,0.9,0.7,1.6,1.6,1.6h63.4
				c0.9,0,1.6-0.7,1.6-1.6V22.9z M519.3,33.9c0,0.4-0.3,0.7-0.7,0.7H512c-0.4,0-0.7-0.3-0.7-0.7v-2.1c0-0.4,0.3-0.7,0.7-0.7h6.6
				c0.4,0,0.7,0.3,0.7,0.7L519.3,33.9L519.3,33.9z"/>
			<path class="st1" d="M575.2,43.3c0-0.9-0.7-1.6-1.6-1.6h-63.4c-0.9,0-1.6,0.7-1.6,1.6v14.6c0,0.9,0.7,1.6,1.6,1.6h63.4
				c0.9,0,1.6-0.7,1.6-1.6V43.3z M519.3,54.3c0,0.4-0.3,0.7-0.7,0.7H512c-0.4,0-0.7-0.3-0.7-0.7v-2.1c0-0.4,0.3-0.7,0.7-0.7h6.6
				c0.4,0,0.7,0.3,0.7,0.7L519.3,54.3L519.3,54.3z"/>
			<path class="st1" d="M575.2,62.9c0-0.9-0.7-1.6-1.6-1.6h-63.4c-0.9,0-1.6,0.7-1.6,1.6v14.6c0,0.9,0.7,1.6,1.6,1.6h63.4
				c0.9,0,1.6-0.7,1.6-1.6V62.9z M519.3,74.8c0,0.4-0.3,0.7-0.7,0.7H512c-0.4,0-0.7-0.3-0.7-0.7v-2.1c0-0.4,0.3-0.7,0.7-0.7h6.6
				c0.4,0,0.7,0.3,0.7,0.7L519.3,74.8L519.3,74.8z"/>
		</g>
	</g>
</g>
<rect x="511.3" y="95.9" class="st2" width="10.6" height="7.1"/>
<rect x="511.3" y="117.2" class="st2" width="10.6" height="6.2"/>
<rect x="511.3" y="137.6" class="st2" width="10.6" height="7.1"/>
<g class="st3">
	<g>
		<circle class="st1" cx="503.7" cy="96.3" r="2"/>
		<circle class="st1" cx="496.8" cy="96.3" r="2"/>
		<circle class="st1" cx="490" cy="96.3" r="2"/>
		<circle class="st1" cx="503.7" cy="116.8" r="2"/>
		<circle class="st1" cx="496.8" cy="116.8" r="2"/>
		<circle class="st1" cx="490" cy="116.8" r="2"/>
		<circle class="st1" cx="503.7" cy="137.2" r="2"/>
		<circle class="st1" cx="496.8" cy="137.2" r="2"/>
		<circle class="st1" cx="490" cy="137.2" r="2"/>
		<circle class="st1" cx="490" cy="103.1" r="2"/>
		<circle class="st1" cx="490" cy="123.6" r="2"/>
		<circle class="st1" cx="490" cy="110" r="2"/>
		<circle class="st1" cx="490" cy="130.5" r="2"/>
		<g>
			<path class="st1" d="M575.2,89.5c0-0.9-0.7-1.6-1.6-1.6h-63.4c-0.9,0-1.6,0.7-1.6,1.6V104c0,0.9,0.7,1.6,1.6,1.6h63.4
				c0.9,0,1.6-0.7,1.6-1.6V89.5z M519.3,100.5c0,0.4-0.3,0.7-0.7,0.7H512c-0.4,0-0.7-0.3-0.7-0.7v-2.1c0-0.4,0.3-0.7,0.7-0.7h6.6
				c0.4,0,0.7,0.3,0.7,0.7L519.3,100.5L519.3,100.5z"/>
			<path class="st1" d="M575.2,109.9c0-0.9-0.7-1.6-1.6-1.6h-63.4c-0.9,0-1.6,0.7-1.6,1.6v14.6c0,0.9,0.7,1.6,1.6,1.6h63.4
				c0.9,0,1.6-0.7,1.6-1.6V109.9z M519.3,121.8c0,0.4-0.3,0.7-0.7,0.7H512c-0.4,0-0.7-0.3-0.7-0.7v-2.1c0-0.4,0.3-0.7,0.7-0.7h6.6
				c0.4,0,0.7,0.3,0.7,0.7L519.3,121.8L519.3,121.8z"/>
			<path class="st1" d="M575.2,130.3c0-0.9-0.7-1.6-1.6-1.6h-63.4c-0.9,0-1.6,0.7-1.6,1.6v14.6c0,0.9,0.7,1.6,1.6,1.6h63.4
				c0.9,0,1.6-0.7,1.6-1.6V130.3z M519.3,142.2c0,0.4-0.3,0.7-0.7,0.7H512c-0.4,0-0.7-0.3-0.7-0.7v-2.1c0-0.4,0.3-0.7,0.7-0.7h6.6
				c0.4,0,0.7,0.3,0.7,0.7L519.3,142.2L519.3,142.2z"/>
		</g>
	</g>
</g>
<rect x="511.3" y="163.3" class="st2" width="10.6" height="6.2"/>
<rect x="511.3" y="184.6" class="st2" width="10.6" height="5.3"/>
<g class="st3">
	<g>
		<circle class="st1" cx="503.7" cy="163.5" r="2"/>
		<circle class="st1" cx="496.8" cy="163.5" r="2"/>
		<circle class="st1" cx="490" cy="163.5" r="2"/>
		<circle class="st1" cx="503.7" cy="184" r="2"/>
		<circle class="st1" cx="496.8" cy="184" r="2"/>
		<circle class="st1" cx="490" cy="184" r="2"/>
		<circle class="st1" cx="503.7" cy="204.4" r="2"/>
		<circle class="st1" cx="496.8" cy="204.4" r="2"/>
		<circle class="st1" cx="490" cy="204.4" r="2"/>
		<circle class="st1" cx="490" cy="170.3" r="2"/>
		<circle class="st1" cx="490" cy="190.8" r="2"/>
		<circle class="st1" cx="490" cy="177.1" r="2"/>
		<circle class="st1" cx="490" cy="197.6" r="2"/>
		<g>
			<path class="st1" d="M575.2,156.9c0-0.9-0.7-1.6-1.6-1.6h-63.4c-0.9,0-1.6,0.7-1.6,1.6v14.6c0,0.9,0.7,1.6,1.6,1.6h63.4
				c0.9,0,1.6-0.7,1.6-1.6V156.9z M519.3,167c0,0.4-0.3,0.7-0.7,0.7H512c-0.4,0-0.7-0.3-0.7-0.7v-2.1c0-0.4,0.3-0.7,0.7-0.7h6.6
				c0.4,0,0.7,0.3,0.7,0.7L519.3,167L519.3,167z"/>
			<path class="st1" d="M575.2,177.3c0-0.9-0.7-1.6-1.6-1.6h-63.4c-0.9,0-1.6,0.7-1.6,1.6v14.6c0,0.9,0.7,1.6,1.6,1.6h63.4
				c0.9,0,1.6-0.7,1.6-1.6V177.3z M519.3,189.2c0,0.4-0.3,0.7-0.7,0.7H512c-0.4,0-0.7-0.3-0.7-0.7v-2.1c0-0.4,0.3-0.7,0.7-0.7h6.6
				c0.4,0,0.7,0.3,0.7,0.7L519.3,189.2L519.3,189.2z"/>
			<path class="st1" d="M575.2,197.7c0-0.9-0.7-1.6-1.6-1.6h-63.4c-0.9,0-1.6,0.7-1.6,1.6v14.6c0,0.9,0.7,1.6,1.6,1.6h63.4
				c0.9,0,1.6-0.7,1.6-1.6V197.7z M519.3,209.6c0,0.4-0.3,0.7-0.7,0.7H512c-0.4,0-0.7-0.3-0.7-0.7v-2.1c0-0.4,0.3-0.7,0.7-0.7h6.6
				c0.4,0,0.7,0.3,0.7,0.7L519.3,209.6L519.3,209.6z"/>
		</g>
	</g>
</g>
<rect x="616" y="24" class="st4" width="5.3" height="4.4"/>
<rect x="616" y="34.6" class="st4" width="5.3" height="2.7"/>
<rect x="616" y="43.5" class="st4" width="5.3" height="3.5"/>
<g class="st5">
	<g>
		<circle class="st1" cx="612" cy="24.9" r="1"/>
		<circle class="st1" cx="608.8" cy="24.9" r="1"/>
		<circle class="st1" cx="605.6" cy="24.9" r="1"/>
		<circle class="st1" cx="612" cy="34.6" r="1"/>
		<circle class="st1" cx="608.8" cy="34.6" r="1"/>
		<circle class="st1" cx="605.6" cy="34.6" r="1"/>
		<circle class="st1" cx="612" cy="44.1" r="1"/>
		<circle class="st1" cx="608.8" cy="44.1" r="1"/>
		<circle class="st1" cx="605.6" cy="44.1" r="1"/>
		<circle class="st1" cx="605.6" cy="28.2" r="1"/>
		<circle class="st1" cx="605.6" cy="37.8" r="1"/>
		<circle class="st1" cx="605.6" cy="31.4" r="1"/>
		<circle class="st1" cx="605.6" cy="40.9" r="1"/>
		<g>
			<path class="st1" d="M646.2,22c0-0.4-0.4-0.7-0.7-0.7H615c-0.4,0-0.7,0.4-0.7,0.7v6.5c0,0.4,0.4,0.7,0.7,0.7h30.4
				c0.4,0,0.7-0.4,0.7-0.7L646.2,22L646.2,22z M619.5,28.1c0,0.2-0.2,0.4-0.4,0.4h-2.9c-0.2,0-0.4-0.2-0.4-0.4v-1.2
				c0-0.2,0.2-0.4,0.4-0.4h2.9c0.2,0,0.4,0.2,0.4,0.4V28.1z"/>
			<path class="st1" d="M646.2,31.8c0-0.4-0.4-0.7-0.7-0.7H615c-0.4,0-0.7,0.4-0.7,0.7v6.5c0,0.4,0.4,0.7,0.7,0.7h30.4
				c0.4,0,0.7-0.4,0.7-0.7L646.2,31.8L646.2,31.8z M619.5,37.8c0,0.2-0.2,0.4-0.4,0.4h-2.9c-0.2,0-0.4-0.2-0.4-0.4v-1.2
				c0-0.2,0.2-0.4,0.4-0.4h2.9c0.2,0,0.4,0.2,0.4,0.4V37.8z"/>
			<path class="st1" d="M646.2,40.7c0-0.4-0.4-0.7-0.7-0.7H615c-0.4,0-0.7,0.4-0.7,0.7v6.5c0,0.4,0.4,0.7,0.7,0.7h30.4
				c0.4,0,0.7-0.4,0.7-0.7L646.2,40.7L646.2,40.7z M619.5,47.6c0,0.2-0.2,0.4-0.4,0.4h-2.9c-0.2,0-0.4-0.2-0.4-0.4v-1.2
				c0-0.2,0.2-0.4,0.4-0.4h2.9c0.2,0,0.4,0.2,0.4,0.4V47.6z"/>
		</g>
	</g>
</g>
<rect x="616" y="56.8" class="st4" width="5.3" height="2.7"/>
<rect x="616" y="66.6" class="st4" width="5.3" height="2.7"/>
<rect x="616" y="75.5" class="st4" width="5.3" height="3.5"/>
<g class="st5">
	<g>
		<circle class="st1" cx="612" cy="56.5" r="1"/>
		<circle class="st1" cx="608.8" cy="56.5" r="1"/>
		<circle class="st1" cx="605.6" cy="56.5" r="1"/>
		<circle class="st1" cx="612" cy="66.1" r="1"/>
		<circle class="st1" cx="608.8" cy="66.1" r="1"/>
		<circle class="st1" cx="605.6" cy="66.1" r="1"/>
		<circle class="st1" cx="612" cy="75.7" r="1"/>
		<circle class="st1" cx="608.8" cy="75.7" r="1"/>
		<circle class="st1" cx="605.6" cy="75.7" r="1"/>
		<circle class="st1" cx="605.6" cy="59.8" r="1"/>
		<circle class="st1" cx="605.6" cy="69.3" r="1"/>
		<circle class="st1" cx="605.6" cy="63" r="1"/>
		<circle class="st1" cx="605.6" cy="72.5" r="1"/>
		<g>
			<path class="st1" d="M646.2,53.1c0-0.4-0.4-0.7-0.7-0.7H615c-0.4,0-0.7,0.4-0.7,0.7v6.5c0,0.4,0.4,0.7,0.7,0.7h30.4
				c0.4,0,0.7-0.4,0.7-0.7L646.2,53.1L646.2,53.1z M619.5,58.2c0,0.2-0.2,0.4-0.4,0.4h-2.9c-0.2,0-0.4-0.2-0.4-0.4V57
				c0-0.2,0.2-0.4,0.4-0.4h2.9c0.2,0,0.4,0.2,0.4,0.4V58.2z"/>
			<path class="st1" d="M646.2,62c0-0.4-0.4-0.7-0.7-0.7H615c-0.4,0-0.7,0.4-0.7,0.7v6.5c0,0.4,0.4,0.7,0.7,0.7h30.4
				c0.4,0,0.7-0.4,0.7-0.7L646.2,62L646.2,62z M619.5,68c0,0.2-0.2,0.4-0.4,0.4h-2.9c-0.2,0-0.4-0.2-0.4-0.4v-1.2
				c0-0.2,0.2-0.4,0.4-0.4h2.9c0.2,0,0.4,0.2,0.4,0.4V68z"/>
			<path class="st1" d="M646.2,72.6c0-0.4-0.4-0.7-0.7-0.7H615c-0.4,0-0.7,0.4-0.7,0.7v6.5c0,0.4,0.4,0.7,0.7,0.7h30.4
				c0.4,0,0.7-0.4,0.7-0.7L646.2,72.6L646.2,72.6z M619.5,77.8c0,0.2-0.2,0.4-0.4,0.4h-2.9c-0.2,0-0.4-0.2-0.4-0.4v-1.2
				c0-0.2,0.2-0.4,0.4-0.4h2.9c0.2,0,0.4,0.2,0.4,0.4V77.8z"/>
		</g>
	</g>
</g>
<rect x="669.2" y="34.6" class="st6" width="5.3" height="2.7"/>
<rect x="669.2" y="43.5" class="st6" width="5.3" height="3.5"/>
<rect x="669.2" y="56.8" class="st6" width="5.3" height="2.7"/>
<rect x="669.2" y="66.6" class="st6" width="5.3" height="2.7"/>
<rect x="669.2" y="75.5" class="st6" width="5.3" height="3.5"/>
<rect x="616" y="93.2" class="st4" width="5.3" height="3.5"/>
<rect x="616" y="103.9" class="st4" width="5.3" height="2.7"/>
<rect x="616" y="112.7" class="st4" width="5.3" height="3.5"/>
<g class="st5">
	<g>
		<circle class="st1" cx="612" cy="93.8" r="1"/>
		<circle class="st1" cx="608.8" cy="93.8" r="1"/>
		<circle class="st1" cx="605.6" cy="93.8" r="1"/>
		<circle class="st1" cx="612" cy="103.5" r="1"/>
		<circle class="st1" cx="608.8" cy="103.5" r="1"/>
		<circle class="st1" cx="605.6" cy="103.5" r="1"/>
		<circle class="st1" cx="612" cy="113.1" r="1"/>
		<circle class="st1" cx="608.8" cy="113.1" r="1"/>
		<circle class="st1" cx="605.6" cy="113.1" r="1"/>
		<circle class="st1" cx="605.6" cy="97" r="1"/>
		<circle class="st1" cx="605.6" cy="106.7" r="1"/>
		<circle class="st1" cx="605.6" cy="100.3" r="1"/>
		<circle class="st1" cx="605.6" cy="109.9" r="1"/>
		<g>
			<path class="st1" d="M646.2,90.4c0-0.4-0.4-0.7-0.7-0.7H615c-0.4,0-0.7,0.4-0.7,0.7v6.5c0,0.4,0.4,0.7,0.7,0.7h30.4
				c0.4,0,0.7-0.4,0.7-0.7L646.2,90.4L646.2,90.4z M619.5,96.4c0,0.2-0.2,0.4-0.4,0.4h-2.9c-0.2,0-0.4-0.2-0.4-0.4v-1.2
				c0-0.2,0.2-0.4,0.4-0.4h2.9c0.2,0,0.4,0.2,0.4,0.4V96.4z"/>
			<path class="st1" d="M646.2,100.1c0-0.4-0.4-0.7-0.7-0.7H615c-0.4,0-0.7,0.4-0.7,0.7v6.5c0,0.4,0.4,0.7,0.7,0.7h30.4
				c0.4,0,0.7-0.4,0.7-0.7L646.2,100.1L646.2,100.1z M619.5,106.2c0,0.2-0.2,0.4-0.4,0.4h-2.9c-0.2,0-0.4-0.2-0.4-0.4V105
				c0-0.2,0.2-0.4,0.4-0.4h2.9c0.2,0,0.4,0.2,0.4,0.4V106.2z"/>
			<path class="st1" d="M646.2,109.9c0-0.4-0.4-0.7-0.7-0.7H615c-0.4,0-0.7,0.4-0.7,0.7v6.5c0,0.4,0.4,0.7,0.7,0.7h30.4
				c0.4,0,0.7-0.4,0.7-0.7L646.2,109.9L646.2,109.9z M619.5,115.9c0,0.2-0.2,0.4-0.4,0.4h-2.9c-0.2,0-0.4-0.2-0.4-0.4v-1.2
				c0-0.2,0.2-0.4,0.4-0.4h2.9c0.2,0,0.4,0.2,0.4,0.4V115.9z"/>
		</g>
	</g>
</g>
<rect x="616" y="125.1" class="st4" width="5.3" height="3.5"/>
<rect x="616" y="135.8" class="st4" width="5.3" height="1.8"/>
<rect x="616" y="144.7" class="st4" width="5.3" height="3.5"/>
<g class="st5">
	<g>
		<circle class="st1" cx="612" cy="125.4" r="1"/>
		<circle class="st1" cx="608.8" cy="125.4" r="1"/>
		<circle class="st1" cx="605.6" cy="125.4" r="1"/>
		<circle class="st1" cx="612" cy="135.1" r="1"/>
		<circle class="st1" cx="608.8" cy="135.1" r="1"/>
		<circle class="st1" cx="605.6" cy="135.1" r="1"/>
		<circle class="st1" cx="612" cy="144.7" r="1"/>
		<circle class="st1" cx="608.8" cy="144.7" r="1"/>
		<circle class="st1" cx="605.6" cy="144.7" r="1"/>
		<circle class="st1" cx="605.6" cy="128.6" r="1"/>
		<circle class="st1" cx="605.6" cy="138.3" r="1"/>
		<circle class="st1" cx="605.6" cy="131.9" r="1"/>
		<circle class="st1" cx="605.6" cy="141.5" r="1"/>
		<g>
			<path class="st1" d="M646.2,122.3c0-0.4-0.4-0.7-0.7-0.7H615c-0.4,0-0.7,0.4-0.7,0.7v6.5c0,0.4,0.4,0.7,0.7,0.7h30.4
				c0.4,0,0.7-0.4,0.7-0.7L646.2,122.3L646.2,122.3z M619.5,127.5c0,0.2-0.2,0.4-0.4,0.4h-2.9c-0.2,0-0.4-0.2-0.4-0.4v-1.2
				c0-0.2,0.2-0.4,0.4-0.4h2.9c0.2,0,0.4,0.2,0.4,0.4V127.5z"/>
			<path class="st1" d="M646.2,131.2c0-0.4-0.4-0.7-0.7-0.7H615c-0.4,0-0.7,0.4-0.7,0.7v6.5c0,0.4,0.4,0.7,0.7,0.7h30.4
				c0.4,0,0.7-0.4,0.7-0.7L646.2,131.2L646.2,131.2z M619.5,137.2c0,0.2-0.2,0.4-0.4,0.4h-2.9c-0.2,0-0.4-0.2-0.4-0.4V136
				c0-0.2,0.2-0.4,0.4-0.4h2.9c0.2,0,0.4,0.2,0.4,0.4V137.2z"/>
			<path class="st1" d="M646.2,140.9c0-0.4-0.4-0.7-0.7-0.7H615c-0.4,0-0.7,0.4-0.7,0.7v6.5c0,0.4,0.4,0.7,0.7,0.7h30.4
				c0.4,0,0.7-0.4,0.7-0.7L646.2,140.9L646.2,140.9z M619.5,147c0,0.2-0.2,0.4-0.4,0.4h-2.9c-0.2,0-0.4-0.2-0.4-0.4v-1.2
				c0-0.2,0.2-0.4,0.4-0.4h2.9c0.2,0,0.4,0.2,0.4,0.4V147z"/>
		</g>
	</g>
</g>
<rect x="669.2" y="103.9" class="st6" width="5.3" height="2.7"/>
<rect x="669.2" y="112.7" class="st6" width="5.3" height="3.5"/>
<rect x="669.2" y="125.1" class="st6" width="5.3" height="3.5"/>
<rect x="669.2" y="135.8" class="st6" width="5.3" height="1.8"/>
<rect x="669.2" y="144.7" class="st6" width="5.3" height="3.5"/>
<rect x="616" y="160.6" class="st4" width="5.3" height="3.5"/>
<rect x="616" y="171.3" class="st4" width="5.3" height="2.7"/>
<rect x="616" y="179.3" class="st4" width="5.3" height="4.4"/>
<g class="st5">
	<g>
		<circle class="st1" cx="612" cy="161" r="1"/>
		<circle class="st1" cx="608.8" cy="161" r="1"/>
		<circle class="st1" cx="605.6" cy="161" r="1"/>
		<circle class="st1" cx="612" cy="170.7" r="1"/>
		<circle class="st1" cx="608.8" cy="170.7" r="1"/>
		<circle class="st1" cx="605.6" cy="170.7" r="1"/>
		<circle class="st1" cx="612" cy="180.2" r="1"/>
		<circle class="st1" cx="608.8" cy="180.2" r="1"/>
		<circle class="st1" cx="605.6" cy="180.2" r="1"/>
		<circle class="st1" cx="605.6" cy="164.2" r="1"/>
		<circle class="st1" cx="605.6" cy="173.9" r="1"/>
		<circle class="st1" cx="605.6" cy="167.4" r="1"/>
		<circle class="st1" cx="605.6" cy="177.1" r="1"/>
		<g>
			<path class="st1" d="M646.2,157.8c0-0.4-0.4-0.7-0.7-0.7H615c-0.4,0-0.7,0.4-0.7,0.7v6.5c0,0.4,0.4,0.7,0.7,0.7h30.4
				c0.4,0,0.7-0.4,0.7-0.7L646.2,157.8L646.2,157.8z M619.5,163.8c0,0.2-0.2,0.4-0.4,0.4h-2.9c-0.2,0-0.4-0.2-0.4-0.4v-1.2
				c0-0.2,0.2-0.4,0.4-0.4h2.9c0.2,0,0.4,0.2,0.4,0.4V163.8z"/>
			<path class="st1" d="M646.2,167.6c0-0.4-0.4-0.7-0.7-0.7H615c-0.4,0-0.7,0.4-0.7,0.7v6.5c0,0.4,0.4,0.7,0.7,0.7h30.4
				c0.4,0,0.7-0.4,0.7-0.7L646.2,167.6L646.2,167.6z M619.5,173.6c0,0.2-0.2,0.4-0.4,0.4h-2.9c-0.2,0-0.4-0.2-0.4-0.4v-1.2
				c0-0.2,0.2-0.4,0.4-0.4h2.9c0.2,0,0.4,0.2,0.4,0.4V173.6z"/>
			<path class="st1" d="M646.2,177.3c0-0.4-0.4-0.7-0.7-0.7H615c-0.4,0-0.7,0.4-0.7,0.7v6.5c0,0.4,0.4,0.7,0.7,0.7h30.4
				c0.4,0,0.7-0.4,0.7-0.7L646.2,177.3L646.2,177.3z M619.5,183.4c0,0.2-0.2,0.4-0.4,0.4h-2.9c-0.2,0-0.4-0.2-0.4-0.4v-1.2
				c0-0.2,0.2-0.4,0.4-0.4h2.9c0.2,0,0.4,0.2,0.4,0.4V183.4z"/>
		</g>
	</g>
</g>
<rect x="616" y="192.6" class="st4" width="5.3" height="3.5"/>
<rect x="616" y="202.3" class="st4" width="5.3" height="2.7"/>
<g class="st5">
	<g>
		<circle class="st1" cx="612" cy="192.6" r="1"/>
		<circle class="st1" cx="608.8" cy="192.6" r="1"/>
		<circle class="st1" cx="605.6" cy="192.6" r="1"/>
		<circle class="st1" cx="612" cy="202.3" r="1"/>
		<circle class="st1" cx="608.8" cy="202.3" r="1"/>
		<circle class="st1" cx="605.6" cy="202.3" r="1"/>
		<circle class="st1" cx="612" cy="211.8" r="1"/>
		<circle class="st1" cx="608.8" cy="211.8" r="1"/>
		<circle class="st1" cx="605.6" cy="211.8" r="1"/>
		<circle class="st1" cx="605.6" cy="195.8" r="1"/>
		<circle class="st1" cx="605.6" cy="205.4" r="1"/>
		<circle class="st1" cx="605.6" cy="199" r="1"/>
		<circle class="st1" cx="605.6" cy="208.6" r="1"/>
		<g>
			<path class="st1" d="M646.2,189.7c0-0.4-0.4-0.7-0.7-0.7H615c-0.4,0-0.7,0.4-0.7,0.7v6.5c0,0.4,0.4,0.7,0.7,0.7h30.4
				c0.4,0,0.7-0.4,0.7-0.7L646.2,189.7L646.2,189.7z M619.5,194.9c0,0.2-0.2,0.4-0.4,0.4h-2.9c-0.2,0-0.4-0.2-0.4-0.4v-1.2
				c0-0.2,0.2-0.4,0.4-0.4h2.9c0.2,0,0.4,0.2,0.4,0.4V194.9z"/>
			<path class="st1" d="M646.2,197.7c0-0.4-0.4-0.7-0.7-0.7H615c-0.4,0-0.7,0.4-0.7,0.7v6.5c0,0.4,0.4,0.7,0.7,0.7h30.4
				c0.4,0,0.7-0.4,0.7-0.7L646.2,197.7L646.2,197.7z M619.5,203.8c0,0.2-0.2,0.4-0.4,0.4h-2.9c-0.2,0-0.4-0.2-0.4-0.4v-1.2
				c0-0.2,0.2-0.4,0.4-0.4h2.9c0.2,0,0.4,0.2,0.4,0.4V203.8z"/>
			<path class="st1" d="M646.2,208.4c0-0.4-0.4-0.7-0.7-0.7H615c-0.4,0-0.7,0.4-0.7,0.7v6.5c0,0.4,0.4,0.7,0.7,0.7h30.4
				c0.4,0,0.7-0.4,0.7-0.7L646.2,208.4L646.2,208.4z M619.5,213.5c0,0.2-0.2,0.4-0.4,0.4h-2.9c-0.2,0-0.4-0.2-0.4-0.4v-1.2
				c0-0.2,0.2-0.4,0.4-0.4h2.9c0.2,0,0.4,0.2,0.4,0.4V213.5z"/>
		</g>
	</g>
</g>
<rect x="669.2" y="171.3" class="st6" width="5.3" height="2.7"/>
<rect x="669.2" y="179.3" class="st6" width="5.3" height="4.4"/>
<rect x="669.2" y="192.6" class="st6" width="5.3" height="3.5"/>
<rect x="669.2" y="202.3" class="st6" width="5.3" height="2.7"/>
</svg>
