<?xml version="1.0" encoding="utf-8"?>
<!-- Generator: Adobe Illustrator 19.1.1, SVG Export Plug-In . SVG Version: 6.00 Build 0)  -->
<svg version="1.1" id="Layer_1" xmlns="http://www.w3.org/2000/svg" xmlns:xlink="http://www.w3.org/1999/xlink" x="0px" y="0px"
	 viewBox="0 0 385 223" style="enable-background:new 0 0 385 223;" xml:space="preserve">
<style type="text/css">
	.st0{fill:#4C4277;}
	.st1{fill:#8A99C4;}
	.st2{fill:#CCD5E2;}
	.st3{fill:none;stroke:#ABABD8;stroke-width:2;stroke-miterlimit:10;}
	.st4{fill:none;stroke:#ABABD8;stroke-width:2;stroke-miterlimit:10;stroke-dasharray:11,11;}
</style>
<ellipse class="st0" cx="91.4" cy="88.5" rx="51.9" ry="53.8"/>
<g>
	<path class="st0" d="M165,192.9c0-28.6-22.3-50.9-50.9-50.9H69.7C41.1,142,18,164.3,18,192.9v1.1h147V192.9z"/>
</g>
<ellipse class="st1" cx="241.8" cy="61.9" rx="24" ry="24.9"/>
<g>
	<path class="st1" d="M276,110.2C276,97,265.6,87,252.3,87h-20.6c-13.2,0-23.8,10-23.8,23.2v0.8h68V110.2z"/>
</g>
<ellipse class="st1" cx="241.8" cy="145.9" rx="24" ry="24.9"/>
<g>
	<path class="st1" d="M276,194.3c0-13.2-10.4-22.3-23.7-22.3h-20.6c-13.2,0-23.8,9-23.8,22.3v0.7h68V194.3z"/>
</g>
<ellipse class="st2" cx="343.3" cy="107.2" rx="15.8" ry="16.4"/>
<g>
	<path class="st2" d="M365,139c0-8.7-6.1-14-14.8-14h-13.5c-8.7,0-14.7,5.3-14.7,14v0L365,139L365,139z"/>
</g>
<ellipse class="st2" cx="343.3" cy="52.7" rx="15.8" ry="16.4"/>
<g>
	<path class="st2" d="M365,84.6c0-8.7-6.1-14.6-14.8-14.6h-13.5C328,70,322,75.8,322,84.6V85h43V84.6z"/>
</g>
<ellipse class="st2" cx="343.3" cy="162.4" rx="15.8" ry="16.4"/>
<g>
	<path class="st2" d="M365,194.3c0-8.7-6.1-16.3-14.8-16.3h-13.5c-8.7,0-14.7,7.5-14.7,16.3v0.7h43V194.3z"/>
</g>
<g>
	<g>
		<line class="st3" x1="185" y1="36" x2="185" y2="42"/>
		<line class="st4" x1="185" y1="54" x2="185" y2="184"/>
		<line class="st3" x1="185" y1="190" x2="185" y2="196"/>
	</g>
</g>
<g>
	<g>
		<line class="st3" x1="295" y1="36" x2="295" y2="42"/>
		<line class="st4" x1="295" y1="54" x2="295" y2="184"/>
		<line class="st3" x1="295" y1="190" x2="295" y2="196"/>
	</g>
</g>
</svg>
