<?xml version="1.0" encoding="utf-8"?>
<!-- Generator: Adobe Illustrator 19.1.1, SVG Export Plug-In . SVG Version: 6.00 Build 0)  -->
<svg version="1.1" id="Layer_1" xmlns="http://www.w3.org/2000/svg" xmlns:xlink="http://www.w3.org/1999/xlink" x="0px" y="0px"
	 viewBox="-101 129 597 223" style="enable-background:new -101 129 597 223;" xml:space="preserve">
<style type="text/css">
	.st0{fill:#EDF2F9;}
	.st1{opacity:0.6;clip-path:url(#SVGID_2_);fill:#8C90AF;}
	.st2{clip-path:url(#SVGID_2_);fill:#4C4277;}
	.st3{clip-path:url(#SVGID_2_);fill:#FFFFFF;}
	.st4{clip-path:url(#SVGID_2_);fill:#E4E2F2;}
	.st5{clip-path:url(#SVGID_2_);}
	.st6{fill:#FFFFFF;}
	.st7{fill:#4C4277;}
	.st8{opacity:0.65;clip-path:url(#SVGID_2_);fill:none;stroke:#817FB2;stroke-miterlimit:10;}
	.st9{fill:#6D6A9B;}
</style>
<polygon class="st0" points="496,352 -101,352 85,200 496,200 "/>
<g>
	<defs>
		<rect id="SVGID_1_" x="3" y="161" width="409" height="191"/>
	</defs>
	<clipPath id="SVGID_2_">
		<use xlink:href="#SVGID_1_"  style="overflow:visible;"/>
	</clipPath>
	<rect x="36" y="178" class="st1" width="376" height="174"/>
	<rect x="17" y="166" class="st2" width="386" height="227"/>
	<rect x="20" y="167" class="st3" width="381" height="219"/>
	<rect x="20" y="166" class="st2" width="382" height="37"/>
	<rect x="19.6" y="203" class="st4" width="381.8" height="35.1"/>
	<g class="st5">
		<path class="st6" d="M40.3,189.5h-5.9l-1.7,5.1h-1.1l5.3-14.9h1l5.3,14.9H42L40.3,189.5z M40,188.6l-1-2.8
			c-0.6-1.8-1.1-3.3-1.7-5.2h-0.1c-0.5,1.8-1,3.4-1.7,5.2l-1,2.8H40z"/>
		<path class="st6" d="M44.9,183.7h1v6.8c0,2.3,0.7,3.4,2.5,3.4c1.3,0,2.2-0.7,3.5-2.2v-8h1v10.9h-0.8l-0.1-1.8h0
			c-1.1,1.2-2.2,2.1-3.7,2.1c-2.2,0-3.3-1.4-3.3-4.2V183.7z"/>
		<path class="st6" d="M61,183.5c1.3,0,2.2,0.5,3.3,1.3l0-2v-4.5h1v16.3h-0.9l-0.1-1.4h-0.1c-0.9,0.9-2.1,1.7-3.5,1.7
			c-2.7,0-4.5-2-4.5-5.7C56.2,185.7,58.4,183.5,61,183.5z M60.8,194c1.2,0,2.3-0.6,3.4-1.8v-6.5c-1.2-1-2.1-1.4-3.2-1.4
			c-2.2,0-3.8,2.1-3.8,4.8C57.2,192.1,58.5,194,60.8,194z"/>
		<path class="st6" d="M69,180.2c0-0.6,0.4-0.9,0.9-0.9s0.9,0.3,0.9,0.9c0,0.5-0.4,0.9-0.9,0.9S69,180.8,69,180.2z M69.4,183.7h1
			v10.9h-1V183.7z"/>
		<path class="st6" d="M74.8,184.6h-1.7v-0.8l1.7-0.1l0.1-3.1h0.9v3.1H79v0.9h-3.1v7.1c0,1.4,0.3,2.3,1.8,2.3c0.4,0,1-0.2,1.4-0.3
			l0.3,0.8c-0.6,0.2-1.3,0.4-1.8,0.4c-2.1,0-2.7-1.3-2.7-3.3V184.6z"/>
		<path class="st6" d="M86.2,179.7h1v14h6.9v0.9h-7.9V179.7z"/>
		<path class="st6" d="M100.3,183.5c2.6,0,4.9,2.1,4.9,5.7c0,3.6-2.3,5.7-4.9,5.7c-2.6,0-4.9-2.1-4.9-5.7
			C95.4,185.6,97.7,183.5,100.3,183.5z M100.3,194c2.2,0,3.9-1.9,3.9-4.8c0-2.9-1.7-4.8-3.9-4.8c-2.2,0-3.8,2-3.8,4.8
			C96.5,192.1,98.1,194,100.3,194z"/>
		<path class="st6" d="M109.2,194.2L109.2,194.2c-0.5-0.4-1-1-1-1.8c0-1,0.7-1.7,1.2-2v-0.1c-0.7-0.6-1.4-1.7-1.4-3
			c0-2.2,1.7-3.8,3.8-3.8c0.6,0,1.1,0.1,1.4,0.3h3.7v0.8h-2.5c0.7,0.6,1.2,1.6,1.2,2.7c0,2.2-1.7,3.8-3.8,3.8
			c-0.6,0-1.3-0.2-1.8-0.5c-0.5,0.4-0.9,0.8-0.9,1.6c0,0.8,0.5,1.4,2.1,1.4h2.3c2.4,0,3.6,0.8,3.6,2.5c0,1.9-2,3.7-5.1,3.7
			c-2.7,0-4.5-1.2-4.5-3C107.6,195.9,108.2,194.9,109.2,194.2z M112.1,199c2.4,0,4-1.4,4-2.7c0-1.2-0.9-1.7-2.5-1.7h-2.3
			c-0.2,0-0.8,0-1.4-0.2c-1,0.7-1.4,1.5-1.4,2.3C108.5,198.1,109.8,199,112.1,199z M114.7,187.3c0-1.8-1.3-3-2.8-3
			c-1.5,0-2.8,1.2-2.8,3c0,1.8,1.3,3.1,2.8,3.1C113.4,190.4,114.7,189.1,114.7,187.3z"/>
	</g>
	<g class="st5">
		<path class="st7" d="M37.1,216.3h-4.8v-0.9h10.5v0.9h-4.7v14h-1V216.3z"/>
		<path class="st7" d="M45.1,215.9c0-0.6,0.4-0.9,0.9-0.9s0.9,0.3,0.9,0.9c0,0.5-0.4,0.9-0.9,0.9S45.1,216.4,45.1,215.9z
			 M45.5,219.4h1v10.9h-1V219.4z"/>
		<path class="st7" d="M50.7,219.4h0.9l0.1,1.7h0.1c1-1.1,2.2-1.9,3.4-1.9c1.7,0,2.6,0.9,3,2.2c1.2-1.4,2.4-2.2,3.7-2.2
			c2.2,0,3.3,1.4,3.3,4.2v7h-1v-6.8c0-2.3-0.8-3.4-2.4-3.4c-1,0-2.1,0.7-3.3,2v8.2h-1v-6.8c0-2.3-0.8-3.4-2.4-3.4
			c-1,0-2.1,0.7-3.3,2v8.2h-1V219.4z"/>
		<path class="st7" d="M72.9,219.1c2.6,0,4.2,1.8,4.2,5c0,0.3,0,0.5,0,0.8h-7.8c0,2.7,1.7,4.7,4.1,4.7c1.2,0,2.1-0.4,2.9-1l0.4,0.8
			c-0.9,0.5-1.8,1.1-3.4,1.1c-2.8,0-5-2.1-5-5.7C68.2,221.3,70.5,219.1,72.9,219.1z M76.2,224.2c0-2.8-1.2-4.2-3.2-4.2
			c-1.9,0-3.5,1.6-3.7,4.2H76.2z"/>
	</g>
	<g class="st5">
		<path class="st7" d="M223.9,225.2H218l-1.7,5.1h-1.1l5.3-14.9h1l5.3,14.9h-1.1L223.9,225.2z M223.6,224.3l-1-2.8
			c-0.6-1.8-1.1-3.3-1.7-5.2h-0.1c-0.5,1.8-1,3.4-1.7,5.2l-1,2.8H223.6z"/>
		<path class="st7" d="M233,219.1c1.5,0,2.5,0.7,3.2,1.3l-0.6,0.7c-0.7-0.7-1.5-1.2-2.6-1.2c-2.2,0-3.9,2-3.9,4.8
			c0,2.9,1.6,4.8,3.9,4.8c1.2,0,2.2-0.6,2.9-1.2l0.5,0.7c-0.9,0.8-2.1,1.5-3.5,1.5c-2.8,0-4.9-2.1-4.9-5.7
			C228,221.2,230.3,219.1,233,219.1z"/>
		<path class="st7" d="M239.4,220.3h-1.7v-0.8l1.7-0.1l0.1-3.1h0.9v3.1h3.2v0.9h-3.2v7.1c0,1.4,0.3,2.3,1.8,2.3c0.4,0,1-0.2,1.4-0.3
			l0.3,0.8c-0.6,0.2-1.3,0.4-1.8,0.4c-2.1,0-2.7-1.3-2.7-3.3V220.3z"/>
		<path class="st7" d="M245.8,215.9c0-0.6,0.4-0.9,0.9-0.9c0.5,0,0.9,0.3,0.9,0.9c0,0.5-0.4,0.9-0.9,0.9
			C246.2,216.8,245.8,216.4,245.8,215.9z M246.2,219.4h1v10.9h-1V219.4z"/>
		<path class="st7" d="M255.3,219.1c2.6,0,4.9,2.1,4.9,5.7c0,3.6-2.3,5.7-4.9,5.7c-2.6,0-4.9-2.1-4.9-5.7
			C250.5,221.2,252.7,219.1,255.3,219.1z M255.3,229.7c2.2,0,3.9-1.9,3.9-4.8c0-2.9-1.7-4.8-3.9-4.8s-3.8,2-3.8,4.8
			C251.5,227.7,253.1,229.7,255.3,229.7z"/>
		<path class="st7" d="M263.5,219.4h0.9l0.1,1.7h0.1c1.1-1.1,2.2-1.9,3.7-1.9c2.2,0,3.3,1.4,3.3,4.2v7h-1v-6.8
			c0-2.3-0.7-3.4-2.5-3.4c-1.3,0-2.2,0.7-3.6,2v8.2h-1V219.4z"/>
	</g>
	<line class="st8" x1="205.5" y1="203" x2="205.5" y2="387"/>
	<g class="st5">
		<path class="st9" d="M32.5,263.5c0-4.8,1.6-7.5,4.3-7.5c2.8,0,4.3,2.7,4.3,7.5c0,4.8-1.6,7.6-4.3,7.6
			C34.1,271.1,32.5,268.4,32.5,263.5z M40.2,263.5c0-4.4-1.3-6.6-3.3-6.6c-2,0-3.3,2.2-3.3,6.6c0,4.4,1.3,6.7,3.3,6.7
			C38.9,270.2,40.2,268,40.2,263.5z"/>
		<path class="st9" d="M46.1,263L46.1,263c-1.1-0.8-2.1-1.9-2.1-3.4c0-2.1,1.7-3.5,3.8-3.5c2.5,0,3.9,1.6,3.9,3.8
			c0,1.6-1.2,3-2.1,3.7v0.1c1.2,0.8,2.5,1.7,2.5,3.7c0,2.1-1.8,3.8-4.4,3.8c-2.7,0-4.6-1.7-4.6-4C43.2,265.2,44.8,263.8,46.1,263z
			 M47.8,270.3c2,0,3.4-1.3,3.4-3c0-2.2-2.2-3-4.4-3.9c-1.5,0.9-2.6,2.1-2.6,3.6C44.2,268.9,45.7,270.3,47.8,270.3z M50.8,259.9
			c0-1.6-1.1-3-3-3c-1.6,0-2.8,1.1-2.8,2.7c0,2.1,1.9,2.9,3.9,3.6C50.1,262.2,50.8,261.1,50.8,259.9z"/>
		<path class="st9" d="M60.3,254.7h0.9l-6.9,19.7h-0.9L60.3,254.7z"/>
		<path class="st9" d="M62.2,270.2c4.8-4.8,7.1-7.5,7.1-10c0-1.8-1-3.2-3.1-3.2c-1.3,0-2.5,0.8-3.4,1.9l-0.7-0.6
			c1.1-1.2,2.4-2.1,4.1-2.1c2.6,0,4.1,1.6,4.1,4.1c0,2.9-2.6,5.6-6.6,9.9c0.8,0,1.6-0.1,2.4-0.1h4.9v0.9h-8.9V270.2z"/>
		<path class="st9" d="M73,270.2c4.8-4.8,7.1-7.5,7.1-10c0-1.8-1-3.2-3.1-3.2c-1.3,0-2.5,0.8-3.4,1.9l-0.7-0.6
			c1.1-1.2,2.4-2.1,4.1-2.1c2.6,0,4.1,1.6,4.1,4.1c0,2.9-2.6,5.6-6.6,9.9c0.8,0,1.6-0.1,2.4-0.1h4.9v0.9H73V270.2z"/>
		<path class="st9" d="M90.1,254.7h0.9L84,274.5h-0.9L90.1,254.7z"/>
		<path class="st9" d="M92.9,269.9h3.4v-12h-2.6v-0.7c1.2-0.2,2.1-0.5,2.8-0.9h0.8v13.6h3.1v0.9h-7.6V269.9z"/>
		<path class="st9" d="M103,268.5c0.9,0.9,2,1.8,4,1.8c1.9,0,3.6-1.6,3.6-3.9c0-2.3-1.4-3.7-3.5-3.7c-1.1,0-1.8,0.4-2.7,1l-0.7-0.4
			l0.5-6.8h6.7v0.9h-5.8l-0.5,5.2c0.7-0.5,1.5-0.8,2.6-0.8c2.4,0,4.4,1.4,4.4,4.6c0,3.1-2.3,4.8-4.6,4.8c-2.3,0-3.6-1-4.6-1.9
			L103,268.5z"/>
	</g>
	<g class="st5">
		<path class="st9" d="M32.5,300.8c0-4.8,1.6-7.5,4.3-7.5c2.8,0,4.3,2.7,4.3,7.5c0,4.8-1.6,7.6-4.3,7.6
			C34.1,308.4,32.5,305.6,32.5,300.8z M40.2,300.8c0-4.4-1.3-6.6-3.3-6.6c-2,0-3.3,2.2-3.3,6.6c0,4.4,1.3,6.7,3.3,6.7
			C38.9,307.5,40.2,305.2,40.2,300.8z"/>
		<path class="st9" d="M46.1,300.3L46.1,300.3c-1.1-0.8-2.1-1.9-2.1-3.4c0-2.1,1.7-3.5,3.8-3.5c2.5,0,3.9,1.6,3.9,3.8
			c0,1.6-1.2,3-2.1,3.7v0.1c1.2,0.8,2.5,1.7,2.5,3.7c0,2.1-1.8,3.8-4.4,3.8c-2.7,0-4.6-1.7-4.6-4C43.2,302.4,44.8,301,46.1,300.3z
			 M47.8,307.5c2,0,3.4-1.3,3.4-3c0-2.2-2.2-3-4.4-3.9c-1.5,0.9-2.6,2.1-2.6,3.6C44.2,306.1,45.7,307.5,47.8,307.5z M50.8,297.2
			c0-1.6-1.1-3-3-3c-1.6,0-2.8,1.1-2.8,2.7c0,2.1,1.9,2.9,3.9,3.6C50.1,299.5,50.8,298.4,50.8,297.2z"/>
		<path class="st9" d="M60.3,292h0.9l-6.9,19.7h-0.9L60.3,292z"/>
		<path class="st9" d="M62.2,307.5c4.8-4.8,7.1-7.5,7.1-10c0-1.8-1-3.2-3.1-3.2c-1.3,0-2.5,0.8-3.4,1.9l-0.7-0.6
			c1.1-1.2,2.4-2.1,4.1-2.1c2.6,0,4.1,1.6,4.1,4.1c0,2.9-2.6,5.6-6.6,9.9c0.8,0,1.6-0.1,2.4-0.1h4.9v0.9h-8.9V307.5z"/>
		<path class="st9" d="M73,307.5c4.8-4.8,7.1-7.5,7.1-10c0-1.8-1-3.2-3.1-3.2c-1.3,0-2.5,0.8-3.4,1.9l-0.7-0.6
			c1.1-1.2,2.4-2.1,4.1-2.1c2.6,0,4.1,1.6,4.1,4.1c0,2.9-2.6,5.6-6.6,9.9c0.8,0,1.6-0.1,2.4-0.1h4.9v0.9H73V307.5z"/>
		<path class="st9" d="M90.1,292h0.9L84,311.7h-0.9L90.1,292z"/>
		<path class="st9" d="M92.9,307.2h3.4v-12h-2.6v-0.7c1.2-0.2,2.1-0.5,2.8-0.9h0.8v13.6h3.1v0.9h-7.6V307.2z"/>
		<path class="st9" d="M103,305.7c0.9,0.9,2,1.8,4,1.8c1.9,0,3.6-1.6,3.6-3.9s-1.4-3.7-3.5-3.7c-1.1,0-1.8,0.4-2.7,1l-0.7-0.4
			l0.5-6.8h6.7v0.9h-5.8l-0.5,5.2c0.7-0.5,1.5-0.8,2.6-0.8c2.4,0,4.4,1.4,4.4,4.6c0,3.1-2.3,4.8-4.6,4.8c-2.3,0-3.6-1-4.6-1.9
			L103,305.7z"/>
	</g>
	<g class="st5">
		<path class="st9" d="M223.9,265.7H218l-1.7,5.1h-1.1l5.3-14.9h1l5.3,14.9h-1.1L223.9,265.7z M223.6,264.8l-1-2.8
			c-0.6-1.8-1.1-3.3-1.7-5.2h-0.1c-0.5,1.8-1,3.4-1.7,5.2l-1,2.8H223.6z"/>
		<path class="st9" d="M233,259.7c1.5,0,2.5,0.7,3.2,1.3l-0.6,0.7c-0.7-0.7-1.5-1.2-2.6-1.2c-2.2,0-3.9,2-3.9,4.8
			c0,2.9,1.6,4.8,3.9,4.8c1.2,0,2.2-0.6,2.9-1.2l0.5,0.7c-0.9,0.8-2.1,1.5-3.5,1.5c-2.8,0-4.9-2.1-4.9-5.7
			C228,261.8,230.3,259.7,233,259.7z"/>
		<path class="st9" d="M242.8,259.7c1.5,0,2.5,0.7,3.2,1.3l-0.6,0.7c-0.7-0.7-1.5-1.2-2.6-1.2c-2.2,0-3.9,2-3.9,4.8
			c0,2.9,1.6,4.8,3.9,4.8c1.2,0,2.2-0.6,2.9-1.2l0.5,0.7c-0.9,0.8-2.1,1.5-3.5,1.5c-2.8,0-4.9-2.1-4.9-5.7
			C237.8,261.8,240.1,259.7,242.8,259.7z"/>
		<path class="st9" d="M252.3,259.7c2.6,0,4.2,1.8,4.2,5c0,0.3,0,0.5,0,0.8h-7.8c0,2.7,1.7,4.7,4.1,4.7c1.2,0,2.1-0.4,2.9-1l0.4,0.8
			c-0.9,0.5-1.8,1.1-3.4,1.1c-2.8,0-5-2.1-5-5.7C247.6,261.9,249.9,259.7,252.3,259.7z M255.6,264.8c0-2.8-1.2-4.2-3.2-4.2
			c-1.9,0-3.5,1.6-3.7,4.2H255.6z"/>
		<path class="st9" d="M258.7,268.9c0.9,0.8,1.9,1.4,3.5,1.4c1.7,0,2.6-1,2.6-2.2c0-1.4-1.4-1.9-2.7-2.4c-1.7-0.6-3.5-1.2-3.5-3.1
			c0-1.6,1.2-2.9,3.5-2.9c1.2,0,2.3,0.5,3.1,1.1l-0.5,0.7c-0.7-0.5-1.5-1-2.6-1c-1.7,0-2.4,1-2.4,2c0,1.2,1.3,1.7,2.6,2.2
			c1.7,0.6,3.6,1.2,3.6,3.3c0,1.6-1.3,3.1-3.7,3.1c-1.6,0-3-0.7-4-1.5L258.7,268.9z"/>
		<path class="st9" d="M267.9,268.9c0.9,0.8,1.9,1.4,3.5,1.4c1.7,0,2.6-1,2.6-2.2c0-1.4-1.4-1.9-2.7-2.4c-1.7-0.6-3.5-1.2-3.5-3.1
			c0-1.6,1.2-2.9,3.5-2.9c1.2,0,2.3,0.5,3.1,1.1l-0.5,0.7c-0.7-0.5-1.5-1-2.6-1c-1.7,0-2.4,1-2.4,2c0,1.2,1.3,1.7,2.6,2.2
			c1.7,0.6,3.6,1.2,3.6,3.3c0,1.6-1.3,3.1-3.7,3.1c-1.6,0-3-0.7-4-1.5L267.9,268.9z"/>
	</g>
	<g class="st5">
		<path class="st9" d="M217.2,293.2h8.2v0.9h-7.1v5.6h6v0.9h-6v6.6h7.3v0.9h-8.4V293.2z"/>
		<path class="st9" d="M232.6,296.9c1.3,0,2.2,0.5,3.3,1.3l0-2v-4.5h1v16.3H236l-0.1-1.4h-0.1c-0.9,0.9-2.1,1.7-3.5,1.7
			c-2.7,0-4.5-2-4.5-5.7C227.8,299.2,230,296.9,232.6,296.9z M232.4,307.5c1.2,0,2.3-0.6,3.4-1.8v-6.5c-1.2-1-2.1-1.4-3.2-1.4
			c-2.2,0-3.8,2.1-3.8,4.8C228.8,305.6,230.1,307.5,232.4,307.5z"/>
		<path class="st9" d="M240.6,293.7c0-0.6,0.4-0.9,0.9-0.9c0.5,0,0.9,0.3,0.9,0.9c0,0.5-0.4,0.9-0.9,0.9
			C241,294.6,240.6,294.2,240.6,293.7z M241,297.2h1v10.9h-1V297.2z"/>
		<path class="st9" d="M246.4,298.1h-1.7v-0.8l1.7-0.1l0.1-3.2h0.9v3.2h3.2v0.9h-3.2v7.1c0,1.4,0.3,2.3,1.8,2.3c0.4,0,1-0.2,1.4-0.3
			l0.3,0.8c-0.6,0.2-1.3,0.4-1.8,0.4c-2.1,0-2.7-1.3-2.7-3.3V298.1z"/>
	</g>
	<g class="st5">
		<path class="st9" d="M383.4,255.3h1v9.1c0,4,1.9,5.2,4,5.2c2.2,0,4.1-1.2,4.1-5.2v-9.1h1v9.2c0,4.7-2.5,6-5.1,6c-2.6,0-5-1.3-5-6
			V255.3z"/>
	</g>
	<line class="st8" x1="373.5" y1="203" x2="373.5" y2="352"/>
	<g class="st5">
		<path class="st7" d="M385.5,215.4h1.1l6.3,10.5l1.7,3h0.1c-0.1-1.5-0.1-2.9-0.1-4.4v-9.2h1v14.9h-1.1l-6.3-10.5l-1.7-3h-0.1
			c0.1,1.4,0.1,2.8,0.1,4.2v9.3h-1V215.4z"/>
	</g>
	<g class="st5">
		<path class="st9" d="M384.3,293h1v8h0l7-8h1.2l-4.6,5.3l5.2,9.1H393l-4.7-8.3l-2.9,3.3v5h-1V293z"/>
	</g>
</g>
</svg>
