<?xml version="1.0" encoding="utf-8"?>
<!-- Generator: Adobe Illustrator 19.1.1, SVG Export Plug-In . SVG Version: 6.00 Build 0)  -->
<svg version="1.1" id="Layer_1" xmlns="http://www.w3.org/2000/svg" xmlns:xlink="http://www.w3.org/1999/xlink" x="0px" y="0px"
	 viewBox="-158.4 129 714 223" style="enable-background:new -158.4 129 714 223;" xml:space="preserve">
<style type="text/css">
	.st0{fill:#4C4277;}
	.st1{fill:#F4F4F9;}
	.st2{fill:#FFFFFF;}
	.st3{opacity:0.4;}
	.st4{fill:#646491;}
</style>
<g>
	<path class="st0" d="M359.2,189L359.2,189c-8.6-8.6-19.6-13.5-30-13.5c-3.7,0-7.3,0.6-11,1.8c-3.7,1.2-6.7,3.7-9.8,6.1
		c-3.1,2.4-4.9,6.1-6.1,9.8c-1.2,3.7-1.8,7.3-1.8,11c0,9.2,3.7,18.4,9.8,25.7L256.9,284c-2.4,2.4-2.4,6.1,0,8.6
		c2.4,2.4,6.1,2.4,8.6,0l2.4-2.4l12.9,12.9l22.7-23.3l-12.9-12.9l28.8-28.8c7.3,5.5,16.5,9.2,25.1,9.2c3.7,0,7.3-0.6,11-1.8
		c3.7-1.2,6.7-3.7,9.8-6.1c3.1-3.1,4.9-6.1,6.1-9.8s1.8-7.3,1.8-11C372.7,208.6,367.8,197.6,359.2,189z M359.2,225.8
		c-0.6,1.8-1.8,3.7-3.1,4.9c-1.2,1.2-3.1,2.4-4.9,3.1s-4.3,1.2-6.7,1.2c-6.7,0-14.7-3.1-21.4-9.8c-6.7-6.7-9.8-14.7-9.8-21.4
		c0-2.4,0.6-4.9,1.2-6.7c0.6-1.8,1.8-3.7,3.1-4.9c1.2-1.2,3.1-2.4,4.9-3.1c1.8-0.6,4.3-1.2,6.7-1.2c6.7,0,14.7,3.1,21.4,9.8
		s9.8,14.7,9.8,21.4C360.5,221.5,359.8,223.9,359.2,225.8z"/>
</g>
<g>
	<g>
		<polygon class="st1" points="146.7,175 82,175 82,304 183,304 183,210.8 		"/>
	</g>
	<polygon class="st2" points="147,212.4 183.4,211.4 147,176 	"/>
</g>
<g>
	<polygon class="st2" points="202,313 202,317 198,317 198,320 205,320 205,313 202,313 	"/>
	<path class="st2" d="M90,317H78v3h12V317z M114,317h-12v3h12V317z M138,317h-12v3h12V317z M162,317h-12v3h12V317z M186,317h-12v3
		h12V317z"/>
	<polygon class="st2" points="69,317 64,317 64,313 61,313 61,320 69,320 69,317 	"/>
	<path class="st2" d="M64,192v-11h-3v11H64z M64,214v-11h-3v11H64z M64,236v-11h-3v11H64z M64,258v-11h-3v11H64z M64,280v-11h-3v11
		H64z M64,302v-11h-3v11H64z"/>
	<polygon class="st2" points="64,166 64,162 69,162 69,159 61,159 61,166 64,166 	"/>
	<path class="st2" d="M177,162h12v-3h-12V162z M153,162h12v-3h-12V162z M129,162h12v-3h-12V162z M105,162h12v-3h-12V162z M81,162h12
		v-3H81V162z"/>
	<path class="st2" d="M202,287v11h3v-11H202z M202,265v11h3v-11H202z M202,243v11h3v-11H202z M202,221v11h3v-11H202z M202,199v11h3
		v-11H202z M202,177v11h3v-11H202z"/>
</g>
<g class="st3">
	<path class="st4" d="M-71.1,300.2c-0.2-1.2-0.4-2.6-1-3.7c-0.2-0.6-0.6-1-1.2-1.4c-0.6-0.4-1.2-0.6-2-0.6c-1.8,0-3-0.2-3.7-0.2
		c-0.2,0-0.2,0-0.4,0c0.2-0.8,0.4-1.8,0.6-2.8h5.7c0.8,0,1.6-0.6,1.6-1.6c0-0.8-0.6-1.6-1.6-1.6h-5.7c0-1-0.2-2-0.4-3
		c0.4-0.2,1.6-0.4,4.1-0.4c0.4,0,1-0.2,1.4-0.4c0.4-0.2,0.8-0.4,1-0.6c0.4-0.4,0.8-1,1-1.6c0.4-0.8,0.6-1.8,0.6-2.8
		c0.2-1,0.2-2,0.2-2.8c0-2.2-0.2-4.3-0.2-4.3c-0.2-0.8-0.8-1.4-1.6-1.4c-0.8,0.2-1.4,0.8-1.4,1.6l0,0l0,0c0,0.2,0.2,1.8,0.2,3.9
		c0,0.8,0,1.4-0.2,2.2c-0.2,1-0.4,2-0.6,2.6c-0.2,0.2-0.2,0.4-0.4,0.4c0,0,0,0-0.2,0c-2,0-3.4,0.2-4.3,0.4c-0.4,0-0.6,0.2-0.8,0.2
		c-0.4-0.6-0.8-1-1.2-1.6c-0.4-0.4-0.8-0.6-1.2-1c0-0.2,0.2-0.2,0.2-0.4c0.6-0.8,0.8-2,0.8-3c0-1-0.4-2-0.8-3
		c-0.4-0.8-1.2-1.6-2-2.2v-4.3c0-0.8-0.6-1.6-1.6-1.6c-0.8,0-1.6,0.6-1.6,1.6v2.6c-1.2-0.4-2.4-0.6-3.7-0.6c-1.2,0-2.4,0.2-3.7,0.6
		v-2.6c0-0.8-0.6-1.6-1.6-1.6c-0.8,0-1.6,0.6-1.6,1.6v4.3c-0.8,0.6-1.4,1.4-2,2.2c-0.6,0.8-0.8,2-0.8,3c0,1,0.4,2,0.8,3
		c0.2,0.2,0.2,0.4,0.4,0.6c-0.4,0.4-0.8,0.6-1.2,1.2c-0.2,0.4-0.4,0.6-0.6,1c-0.2,0-0.4-0.2-0.8-0.2c-0.8-0.2-2.2-0.4-4.3-0.4h-0.2
		c0,0,0,0-0.2,0c-0.2,0-0.2-0.4-0.4-0.6c-0.2-0.4-0.4-1.2-0.4-2s-0.2-1.6-0.2-2.6c0-1,0-2,0.2-2.6c0-0.4,0-0.6,0-0.8v-0.2l0,0l0,0
		c0.2-0.8-0.4-1.6-1.4-1.6c-0.8-0.2-1.6,0.4-1.6,1.4l0,0c0,0-0.2,2-0.2,4.3c0,0.8,0,1.6,0.2,2.6c0.2,1.2,0.4,2.6,1,3.7
		c0.2,0.6,0.6,1,1.2,1.4c0.6,0.4,1.2,0.6,2,0.6c1.8,0,3,0.2,3.7,0.2c0,0-0.2,2-0.2,3h-6.3c-0.8,0-1.6,0.6-1.6,1.6
		c0,0.8,0.6,1.6,1.6,1.6h6.3c0,1,0.2,1.8,0.6,2.8c-0.6,0.2-1.6,0.4-3.9,0.4c-0.4,0-1,0.2-1.4,0.4c-0.4,0.2-0.8,0.4-1,0.6
		c-0.4,0.4-0.8,1-1,1.6c-0.4,0.8-0.6,1.8-0.6,2.8c-0.2,1-0.2,2-0.2,2.8c0,2.2,0.2,4.3,0.2,4.3c0.2,0.8,0.8,1.4,1.6,1.4
		c0.8-0.2,1.4-0.8,1.4-1.6l0,0l0,0c0-0.2-0.2-1.8-0.2-3.9c0-0.8,0-1.4,0.2-2.2c0.2-1,0.4-2,0.6-2.6c0.2-0.2,0.2-0.4,0.4-0.4
		c0,0,0,0,0.2,0c2,0,3.4-0.2,4.3-0.4c0.4,0,0.6-0.2,0.8-0.2c1,1.8,2.4,3.7,4.1,5.1c1,0.8,2,1.4,3,2c1,0.4,2.2,0.8,3.2,0.8
		c1.4,0,2.8-0.6,4.3-1.4c2-1.2,3.9-3,5.5-5.3c0.2-0.4,0.4-0.8,0.6-1.2c0.2,0,0.6,0.2,1,0.2c0.8,0.2,2.2,0.4,4.3,0.4h0.2
		c0,0,0,0,0.2,0c0.2,0,0.2,0.4,0.4,0.6c0.2,0.4,0.4,1.2,0.4,2c0,0.8,0.2,1.6,0.2,2.6c0,1,0,2-0.2,2.6c0,0.4,0,0.6,0,0.8v0.2l0,0l0,0
		c-0.2,0.8,0.4,1.6,1.4,1.6s1.6-0.4,1.6-1.4l0,0c0,0,0.2-2,0.2-4.3C-71.1,301.9-71.1,301-71.1,300.2z M-97.5,274.9
		c0.4-0.8,1.2-1.4,2.2-2c1-0.6,2.4-0.8,3.9-0.8c1.8,0,3.7,0.6,4.7,1.4c0.6,0.4,1,0.8,1.2,1.4c0.2,0.4,0.4,1,0.4,1.4
		c0,0.6-0.2,1-0.4,1.4c-0.2,0.2-0.4,0.6-0.6,0.8c-0.4,0.4-1,0.8-1.6,1.2c-0.2,0-0.2,0-0.4,0.2c-1,0.4-2.2,0.6-3.4,0.6
		c-1.2,0-2.4-0.2-3.4-0.6c-0.4-0.2-1-0.4-1.4-0.8c-0.2-0.2-0.4-0.4-0.6-0.4c-0.2-0.2-0.6-0.6-0.8-0.8c-0.2-0.4-0.4-1-0.4-1.4
		C-97.9,275.9-97.7,275.5-97.5,274.9z M-82.7,294.3c-0.8,2-2.4,3.9-4.1,5.1c-0.8,0.6-1.6,1.2-2.4,1.6c-0.8,0.4-1.4,0.4-1.8,0.4
		c-0.8,0-1.8-0.2-2.8-1c-1.6-1-3.2-2.4-4.5-4.3s-1.8-3.9-1.8-5.7c0-2.4,0.2-4.3,0.6-5.5c0.2-1,0.6-1.6,1-2c0.2-0.4,0.6-0.6,1-0.8
		l0,0c0.2,0.2,0.4,0.2,0.8,0.4c1.4,0.8,3.2,1.2,5.1,1.2c2.2,0,4.5-0.6,6.1-1.6c0.2,0,0.4,0.2,0.4,0.2c0.4,0.2,0.8,0.4,1.2,0.8
		c0.6,0.6,1,1.2,1.2,2.4c0.4,1.2,0.6,2.8,0.6,5.1C-81.9,291.7-82.1,292.9-82.7,294.3z"/>
</g>
<g class="st3">
	<path class="st4" d="M0.8,205.5c-0.2-1.2-0.4-2.6-1-3.7c-0.2-0.6-0.6-1-1.2-1.4c-0.6-0.4-1.2-0.6-2-0.6c-1.8,0-3-0.2-3.7-0.2
		c-0.2,0-0.2,0-0.4,0c0.2-0.8,0.4-1.8,0.6-2.8h5.7c0.8,0,1.6-0.6,1.6-1.6c0-0.8-0.6-1.6-1.6-1.6h-5.7c0-1-0.2-2-0.4-3
		c0.4-0.2,1.6-0.4,4.1-0.4c0.4,0,1-0.2,1.4-0.4s0.8-0.4,1-0.6c0.4-0.4,0.8-1,1-1.6c0.4-0.8,0.6-1.8,0.6-2.8c0.2-1,0.2-2,0.2-2.8
		c0-2.2-0.2-4.3-0.2-4.3c-0.2-0.8-0.8-1.4-1.6-1.4c-0.8,0.2-1.4,0.8-1.4,1.6l0,0l0,0c0,0.2,0.2,1.8,0.2,3.9c0,0.8,0,1.4-0.2,2.2
		c-0.2,1-0.4,2-0.6,2.6c-0.2,0.2-0.2,0.4-0.4,0.4c0,0,0,0-0.2,0c-2,0-3.4,0.2-4.3,0.4c-0.4,0-0.6,0.2-0.8,0.2
		c-0.4-0.6-0.8-1-1.2-1.6c-0.4-0.4-0.8-0.6-1.2-1c0-0.2,0.2-0.2,0.2-0.4c0.6-0.8,0.8-2,0.8-3c0-1-0.4-2-0.8-3
		c-0.4-0.8-1.2-1.6-2-2.2v-4.3c0-0.8-0.6-1.6-1.6-1.6c-0.8,0-1.6,0.6-1.6,1.6v2.6c-1.2-0.4-2.4-0.6-3.7-0.6c-1.2,0-2.4,0.2-3.7,0.6
		v-2.6c0-0.8-0.6-1.6-1.6-1.6c-0.8,0-1.6,0.6-1.6,1.6v4.3c-0.8,0.6-1.4,1.4-2,2.2c-0.6,0.8-0.8,2-0.8,3c0,1,0.4,2,0.8,3
		c0.2,0.2,0.2,0.4,0.4,0.6c-0.4,0.4-0.8,0.6-1.2,1.2c-0.2,0.4-0.4,0.6-0.6,1c-0.2,0-0.4-0.2-0.8-0.2c-0.8-0.2-2.2-0.4-4.3-0.4h-0.2
		c0,0,0,0-0.2,0c-0.2,0-0.2-0.4-0.4-0.6c-0.2-0.4-0.4-1.2-0.4-2c0-0.8-0.2-1.6-0.2-2.6c0-1,0-2,0.2-2.6c0-0.4,0-0.6,0-0.8v-0.2l0,0
		l0,0c0.2-0.8-0.4-1.6-1.4-1.6c-0.8-0.2-1.6,0.4-1.6,1.4l0,0c0,0-0.2,2-0.2,4.3c0,0.8,0,1.6,0.2,2.6c0.2,1.2,0.4,2.6,1,3.7
		c0.2,0.6,0.6,1,1.2,1.4c0.6,0.4,1.2,0.6,2,0.6c1.8,0,3,0.2,3.7,0.2c0,0-0.2,2-0.2,3h-6.3c-0.8,0-1.6,0.6-1.6,1.6
		c0,0.8,0.6,1.6,1.6,1.6h6.3c0,1,0.2,1.8,0.6,2.8c-0.6,0.2-1.6,0.4-3.9,0.4c-0.4,0-1,0.2-1.4,0.4s-0.8,0.4-1,0.6
		c-0.4,0.4-0.8,1-1,1.6c-0.4,0.8-0.6,1.8-0.6,2.8c-0.2,1-0.2,2-0.2,2.8c0,2.2,0.2,4.3,0.2,4.3c0.2,0.8,0.8,1.4,1.6,1.4
		c0.8-0.2,1.4-0.8,1.4-1.6l0,0l0,0c0-0.2-0.2-1.8-0.2-3.9c0-0.8,0-1.4,0.2-2.2c0.2-1,0.4-2,0.6-2.6c0.2-0.2,0.2-0.4,0.4-0.4
		c0,0,0,0,0.2,0c2,0,3.4-0.2,4.3-0.4c0.4,0,0.6-0.2,0.8-0.2c1,1.8,2.4,3.7,4.1,5.1c1,0.8,2,1.4,3,2c1,0.4,2.2,0.8,3.2,0.8
		c1.4,0,2.8-0.6,4.3-1.4c2-1.2,3.9-3,5.5-5.3c0.2-0.4,0.4-0.8,0.6-1.2c0.2,0,0.6,0.2,1,0.2c0.8,0.2,2.2,0.4,4.3,0.4h0.2
		c0,0,0,0,0.2,0s0.2,0.4,0.4,0.6c0.2,0.4,0.4,1.2,0.4,2c0,0.8,0.2,1.6,0.2,2.6c0,1,0,2-0.2,2.6c0,0.4,0,0.6,0,0.8v0.2l0,0l0,0
		c-0.2,0.8,0.4,1.6,1.4,1.6s1.6-0.4,1.6-1.4l0,0c0,0,0.2-2,0.2-4.3C0.8,207.1,0.8,206.3,0.8,205.5z M-25.6,180.1
		c0.4-0.8,1.2-1.4,2.2-2c1-0.6,2.4-0.8,3.9-0.8c1.8,0,3.7,0.6,4.7,1.4c0.6,0.4,1,0.8,1.2,1.4c0.2,0.4,0.4,1,0.4,1.4
		c0,0.6-0.2,1-0.4,1.4c-0.2,0.2-0.4,0.6-0.6,0.8c-0.4,0.4-1,0.8-1.6,1.2c-0.2,0-0.2,0-0.4,0.2c-1,0.4-2.2,0.6-3.4,0.6
		c-1.2,0-2.4-0.2-3.4-0.6c-0.4-0.2-1-0.4-1.4-0.8c-0.2-0.2-0.4-0.4-0.6-0.4c-0.2-0.2-0.6-0.6-0.8-0.8c-0.2-0.4-0.4-1-0.4-1.4
		C-26,181.1-25.8,180.7-25.6,180.1z M-10.7,199.6c-0.8,2-2.4,3.9-4.1,5.1c-0.8,0.6-1.6,1.2-2.4,1.6c-0.8,0.4-1.4,0.4-1.8,0.4
		c-0.8,0-1.8-0.2-2.8-1c-1.6-1-3.2-2.4-4.5-4.3s-1.8-3.9-1.8-5.7c0-2.4,0.2-4.3,0.6-5.5c0.2-1,0.6-1.6,1-2c0.2-0.4,0.6-0.6,1-0.8
		l0,0c0.2,0.2,0.4,0.2,0.8,0.4c1.4,0.8,3.2,1.2,5.1,1.2c2.2,0,4.5-0.6,6.1-1.6c0.2,0,0.4,0.2,0.4,0.2c0.4,0.2,0.8,0.4,1.2,0.8
		c0.6,0.6,1,1.2,1.2,2.4c0.4,1.2,0.6,2.8,0.6,5.1C-9.9,197-10.1,198.2-10.7,199.6z"/>
</g>
<g class="st3">
	<path class="st4" d="M498.5,274.6c-0.2-1.2-0.4-2.6-1-3.7c-0.2-0.6-0.6-1-1.2-1.4c-0.6-0.4-1.2-0.6-2-0.6c-1.8,0-3-0.2-3.7-0.2
		c-0.2,0-0.2,0-0.4,0c0.2-0.8,0.4-1.8,0.6-2.8h5.7c0.8,0,1.6-0.6,1.6-1.6c0-0.8-0.6-1.6-1.6-1.6h-5.7c0-1-0.2-2-0.4-3
		c0.4-0.2,1.6-0.4,4.1-0.4c0.4,0,1-0.2,1.4-0.4c0.4-0.2,0.8-0.4,1-0.6c0.4-0.4,0.8-1,1-1.6c0.4-0.8,0.6-1.8,0.6-2.8
		c0.2-1,0.2-2,0.2-2.8c0-2.2-0.2-4.3-0.2-4.3c-0.2-0.8-0.8-1.4-1.6-1.4c-0.8,0.2-1.4,0.8-1.4,1.6l0,0l0,0c0,0.2,0.2,1.8,0.2,3.9
		c0,0.8,0,1.4-0.2,2.2c-0.2,1-0.4,2-0.6,2.6c-0.2,0.2-0.2,0.4-0.4,0.4c0,0,0,0-0.2,0c-2,0-3.4,0.2-4.3,0.4c-0.4,0-0.6,0.2-0.8,0.2
		c-0.4-0.6-0.8-1-1.2-1.6c-0.4-0.4-0.8-0.6-1.2-1c0-0.2,0.2-0.2,0.2-0.4c0.6-0.8,0.8-2,0.8-3c0-1-0.4-2-0.8-3
		c-0.4-0.8-1.2-1.6-2-2.2v-4.3c0-0.8-0.6-1.6-1.6-1.6c-0.8,0-1.6,0.6-1.6,1.6v2.6c-1.2-0.4-2.4-0.6-3.7-0.6c-1.2,0-2.4,0.2-3.7,0.6
		v-2.6c0-0.8-0.6-1.6-1.6-1.6c-0.8,0-1.6,0.6-1.6,1.6v4.3c-0.8,0.6-1.4,1.4-2,2.2c-0.6,0.8-0.8,2-0.8,3c0,1,0.4,2,0.8,3
		c0.2,0.2,0.2,0.4,0.4,0.6c-0.4,0.4-0.8,0.6-1.2,1.2c-0.2,0.4-0.4,0.6-0.6,1c-0.2,0-0.4-0.2-0.8-0.2c-0.8-0.2-2.2-0.4-4.3-0.4h-0.2
		c0,0,0,0-0.2,0c-0.2,0-0.2-0.4-0.4-0.6c-0.2-0.4-0.4-1.2-0.4-2c0-0.8-0.2-1.6-0.2-2.6c0-1,0-2,0.2-2.6c0-0.4,0-0.6,0-0.8v-0.2l0,0
		l0,0c0.2-0.8-0.4-1.6-1.4-1.6c-0.8-0.2-1.6,0.4-1.6,1.4l0,0c0,0-0.2,2-0.2,4.3c0,0.8,0,1.6,0.2,2.6c0.2,1.2,0.4,2.6,1,3.7
		c0.2,0.6,0.6,1,1.2,1.4c0.6,0.4,1.2,0.6,2,0.6c1.8,0,3,0.2,3.7,0.2c0,0-0.2,2-0.2,3h-6.3c-0.8,0-1.6,0.6-1.6,1.6
		c0,0.8,0.6,1.6,1.6,1.6h6.3c0,1,0.2,1.8,0.6,2.8c-0.6,0.2-1.6,0.4-3.9,0.4c-0.4,0-1,0.2-1.4,0.4c-0.4,0.2-0.8,0.4-1,0.6
		c-0.4,0.4-0.8,1-1,1.6c-0.4,0.8-0.6,1.8-0.6,2.8c-0.2,1-0.2,2-0.2,2.8c0,2.2,0.2,4.3,0.2,4.3c0.2,0.8,0.8,1.4,1.6,1.4
		c0.8-0.2,1.4-0.8,1.4-1.6l0,0l0,0c0-0.2-0.2-1.8-0.2-3.9c0-0.8,0-1.4,0.2-2.2c0.2-1,0.4-2,0.6-2.6c0.2-0.2,0.2-0.4,0.4-0.4
		c0,0,0,0,0.2,0c2,0,3.4-0.2,4.3-0.4c0.4,0,0.6-0.2,0.8-0.2c1,1.8,2.4,3.7,4.1,5.1c1,0.8,2,1.4,3,2c1,0.4,2.2,0.8,3.2,0.8
		c1.4,0,2.8-0.6,4.3-1.4c2-1.2,3.9-3,5.5-5.3c0.2-0.4,0.4-0.8,0.6-1.2c0.2,0,0.6,0.2,1,0.2c0.8,0.2,2.2,0.4,4.3,0.4h0.2
		c0,0,0,0,0.2,0s0.2,0.4,0.4,0.6c0.2,0.4,0.4,1.2,0.4,2s0.2,1.6,0.2,2.6c0,1,0,2-0.2,2.6c0,0.4,0,0.6,0,0.8v0.2l0,0l0,0
		c-0.2,0.8,0.4,1.6,1.4,1.6s1.6-0.4,1.6-1.4l0,0c0,0,0.2-2,0.2-4.3C498.5,276.2,498.5,275.4,498.5,274.6z M472.1,249.2
		c0.4-0.8,1.2-1.4,2.2-2c1-0.6,2.4-0.8,3.9-0.8c1.8,0,3.7,0.6,4.7,1.4c0.6,0.4,1,0.8,1.2,1.4c0.2,0.4,0.4,1,0.4,1.4
		c0,0.6-0.2,1-0.4,1.4c-0.2,0.2-0.4,0.6-0.6,0.8c-0.4,0.4-1,0.8-1.6,1.2c-0.2,0-0.2,0-0.4,0.2c-1,0.4-2.2,0.6-3.4,0.6
		c-1.2,0-2.4-0.2-3.4-0.6c-0.4-0.2-1-0.4-1.4-0.8c-0.2-0.2-0.4-0.4-0.6-0.4c-0.2-0.2-0.6-0.6-0.8-0.8c-0.2-0.4-0.4-1-0.4-1.4
		C471.7,250.2,471.9,249.8,472.1,249.2z M486.9,268.7c-0.8,2-2.4,3.9-4.1,5.1c-0.8,0.6-1.6,1.2-2.4,1.6c-0.8,0.4-1.4,0.4-1.8,0.4
		c-0.8,0-1.8-0.2-2.8-1c-1.6-1-3.2-2.4-4.5-4.3c-1.2-1.8-1.8-3.9-1.8-5.7c0-2.4,0.2-4.3,0.6-5.5c0.2-1,0.6-1.6,1-2
		c0.2-0.4,0.6-0.6,1-0.8l0,0c0.2,0.2,0.4,0.2,0.8,0.4c1.4,0.8,3.2,1.2,5.1,1.2c2.2,0,4.5-0.6,6.1-1.6c0.2,0,0.4,0.2,0.4,0.2
		c0.4,0.2,0.8,0.4,1.2,0.8c0.6,0.6,1,1.2,1.2,2.4c0.4,1.2,0.6,2.8,0.6,5.1C487.7,266.1,487.5,267.3,486.9,268.7z"/>
</g>
<path class="st0" d="M211.4,159.1v-5.3c0-3.7-3.5-6.8-7.9-6.8c-4.4,0-7.9,3-7.9,6.8v5.3h-2.8v2.9v5.3v3.2c0,1.6,1.7,2.6,3.2,2.6H211
	c1.6,0,3.2-1,3.2-2.6v-3.2v-5.3v-2.9H211.4z M203.5,149.8c2.9,0,5.1,2,5.1,4.5v4.8h-10.2v-4.8C198.4,151.8,200.6,149.8,203.5,149.8z
	"/>
</svg>
