<?xml version="1.0" encoding="utf-8"?>
<!-- Generator: Adobe Illustrator 19.1.1, SVG Export Plug-In . SVG Version: 6.00 Build 0)  -->
<svg version="1.1" id="Layer_1" xmlns="http://www.w3.org/2000/svg" xmlns:xlink="http://www.w3.org/1999/xlink" x="0px" y="0px"
	 viewBox="0 0 597 223" style="enable-background:new 0 0 597 223;" xml:space="preserve">
<style type="text/css">
	.st0{fill:#EDF2F9;}
	.st1{fill:#4C4277;}
	.st2{fill:#5A69A0;}
	.st3{fill:#FFFFFF;}
	.st4{fill:#615C93;}
	.st5{fill:#5A5289;}
	.st6{opacity:0.6;fill:#5A5289;}
	.st7{opacity:0.3;fill:#5A5289;}
</style>
<polygon class="st0" points="597,223 0,223 186,71 597,71 "/>
<rect x="254" y="166" class="st1" width="78" height="57"/>
<rect x="152" y="192" class="st1" width="78" height="31"/>
<path class="st2" d="M81.1,105.4c0,0-17.6,2.3-19.5-8.4c-1.9-10.7,17.1-13.2,17.1-13.2s3.7-17.8,27-20.8
	c31.9-4.1,30.7,19.4,30.7,19.4s15.1-5.3,23,4.9c5.1,6.6,0.8,15-4.7,19.6c-6.5,5.3-15,7-23.3,6.1c-2.8-0.3-9.4-1-10.6-4.4
	C120.8,108.6,89.4,124.4,81.1,105.4z"/>
<rect x="499" y="160" class="st3" width="11" height="8"/>
<rect x="499" y="183" class="st3" width="11" height="6"/>
<g>
	<g>
		<circle class="st2" cx="491.1" cy="160.5" r="2.1"/>
		<circle class="st2" cx="484" cy="160.5" r="2.1"/>
		<circle class="st2" cx="476.8" cy="160.5" r="2.1"/>
		<circle class="st2" cx="491.1" cy="181.9" r="2.1"/>
		<circle class="st2" cx="484" cy="181.9" r="2.1"/>
		<circle class="st2" cx="476.8" cy="181.9" r="2.1"/>
		<circle class="st2" cx="491.1" cy="203.4" r="2.1"/>
		<circle class="st2" cx="484" cy="203.4" r="2.1"/>
		<circle class="st2" cx="476.8" cy="203.4" r="2.1"/>
		<circle class="st2" cx="476.8" cy="167.6" r="2.1"/>
		<circle class="st2" cx="476.8" cy="189.1" r="2.1"/>
		<circle class="st2" cx="476.8" cy="174.8" r="2.1"/>
		<circle class="st2" cx="476.8" cy="196.2" r="2.1"/>
		<g>
			<path class="st2" d="M566,153.7c0-0.9-0.8-1.7-1.7-1.7h-66.6c-0.9,0-1.7,0.8-1.7,1.7v15.6c0,0.9,0.8,1.7,1.7,1.7h66.6
				c0.9,0,1.7-0.8,1.7-1.7V153.7z M508,165.3c0,0.4-0.3,0.7-0.7,0.7h-6.5c-0.4,0-0.7-0.3-0.7-0.7v-2.5c0-0.4,0.3-0.7,0.7-0.7h6.5
				c0.4,0,0.7,0.3,0.7,0.7V165.3z"/>
			<path class="st2" d="M566,175.7c0-0.9-0.8-1.7-1.7-1.7h-66.6c-0.9,0-1.7,0.8-1.7,1.7v15.6c0,0.9,0.8,1.7,1.7,1.7h66.6
				c0.9,0,1.7-0.8,1.7-1.7V175.7z M508,187.3c0,0.4-0.3,0.7-0.7,0.7h-6.5c-0.4,0-0.7-0.3-0.7-0.7v-2.5c0-0.4,0.3-0.7,0.7-0.7h6.5
				c0.4,0,0.7,0.3,0.7,0.7V187.3z"/>
			<path class="st2" d="M566,196.7c0-0.9-0.8-1.7-1.7-1.7h-66.6c-0.9,0-1.7,0.8-1.7,1.7v15.6c0,0.9,0.8,1.7,1.7,1.7h66.6
				c0.9,0,1.7-0.8,1.7-1.7V196.7z M508,209.3c0,0.4-0.3,0.7-0.7,0.7h-6.5c-0.4,0-0.7-0.3-0.7-0.7v-2.5c0-0.4,0.3-0.7,0.7-0.7h6.5
				c0.4,0,0.7,0.3,0.7,0.7V209.3z"/>
		</g>
	</g>
</g>
<rect x="211" y="78" class="st1" width="87" height="145"/>
<rect x="322" y="17" class="st1" width="86" height="206"/>
<rect x="375" y="116" class="st1" width="77" height="107"/>
<rect x="329.7" y="27.4" class="st4" width="31.1" height="12.9"/>
<rect x="368.2" y="27.4" class="st4" width="31.1" height="12.9"/>
<rect x="329.7" y="46.1" class="st5" width="31.1" height="12.9"/>
<rect x="368.2" y="46.1" class="st5" width="31.1" height="12.9"/>
<rect x="220.4" y="86.9" class="st4" width="31.1" height="12.9"/>
<rect x="258.9" y="86.9" class="st4" width="31.1" height="12.9"/>
<rect x="220.4" y="105.6" class="st5" width="31.1" height="12.9"/>
<rect x="258.9" y="105.6" class="st5" width="31.1" height="12.9"/>
<rect x="220.4" y="125.2" class="st5" width="31.1" height="12.9"/>
<rect x="258.9" y="125.2" class="st6" width="31.1" height="12.9"/>
<rect x="258.9" y="143.9" class="st7" width="31.1" height="12.9"/>
<rect x="220.4" y="143.9" class="st6" width="31.1" height="12.9"/>
<rect x="220.4" y="162.2" class="st7" width="31.1" height="12.9"/>
<rect x="329.7" y="65.5" class="st5" width="31.1" height="12.9"/>
<rect x="368.2" y="65.5" class="st5" width="31.1" height="12.9"/>
<rect x="329.7" y="84.2" class="st5" width="31.1" height="12.9"/>
<rect x="368.2" y="84.2" class="st6" width="31.1" height="12.9"/>
<rect x="368.2" y="102.7" class="st7" width="31.1" height="12.9"/>
<rect x="329.7" y="102.7" class="st6" width="31.1" height="12.9"/>
<rect x="329.7" y="121.4" class="st7" width="31.1" height="12.9"/>
</svg>
