<?xml version="1.0" encoding="utf-8"?>
<!-- Generator: Adobe Illustrator 19.1.1, SVG Export Plug-In . SVG Version: 6.00 Build 0)  -->
<svg version="1.1" id="Layer_1" xmlns="http://www.w3.org/2000/svg" xmlns:xlink="http://www.w3.org/1999/xlink" x="0px" y="0px"
	 viewBox="18 164.3 490 189.3" style="enable-background:new 18 164.3 490 189.3;" xml:space="preserve">
<style type="text/css">
	.st0{fill:#FFFFFF;}
	.st1{fill:#5A69A0;}
	.st2{fill:#A8B6DD;}
	.st3{fill:#4C4277;}
	.st4{fill:#EDF2F9;}
	.st5{fill:#8787C6;}
	.st6{opacity:0.6;fill:#8787C6;}
	.st7{fill:#BABAE8;}
	.st8{clip-path:url(#SVGID_10_);fill:#BABAE8;}
</style>
<rect x="378" y="248" class="st0" width="19" height="14"/>
<rect x="378" y="288" class="st0" width="19" height="11"/>
<rect x="378" y="331" class="st0" width="20" height="12"/>
<circle class="st1" cx="363.9" cy="288.2" r="3.6"/>
<circle class="st1" cx="351.5" cy="288.2" r="3.6"/>
<circle class="st1" cx="339.1" cy="288.2" r="3.6"/>
<circle class="st1" cx="327.2" cy="305.8" r="3.6"/>
<circle class="st1" cx="314.8" cy="305.8" r="3.6"/>
<circle class="st1" cx="302.5" cy="305.8" r="3.6"/>
<circle class="st1" cx="287.8" cy="305.8" r="3.6"/>
<circle class="st1" cx="275.5" cy="305.8" r="3.6"/>
<circle class="st1" cx="263.1" cy="305.8" r="3.6"/>
<circle class="st1" cx="249.7" cy="305.8" r="3.6"/>
<circle class="st1" cx="237.3" cy="305.8" r="3.6"/>
<circle class="st1" cx="363.9" cy="325.3" r="3.6"/>
<circle class="st1" cx="351.5" cy="325.3" r="3.6"/>
<circle class="st1" cx="339.1" cy="325.3" r="3.6"/>
<circle class="st1" cx="339.1" cy="300.5" r="3.6"/>
<circle class="st1" cx="339.1" cy="312.9" r="3.6"/>
<g>
	<path class="st2" d="M503,238.1c0-1.7-1.4-3.1-3.1-3.1H376.1c-1.7,0-3.1,1.4-3.1,3.1v28.8c0,1.7,1.4,3.1,3.1,3.1h123.8
		c1.7,0,3.1-1.4,3.1-3.1V238.1z M394,259.7c0,0.7-0.6,1.3-1.3,1.3h-12.3c-0.7,0-1.3-0.6-1.3-1.3v-4.3c0-0.7,0.6-1.3,1.3-1.3h12.3
		c0.7,0,1.3,0.6,1.3,1.3V259.7z"/>
	<path class="st1" d="M503,278.1c0-1.7-1.4-3.1-3.1-3.1H376.1c-1.7,0-3.1,1.4-3.1,3.1v28.8c0,1.7,1.4,3.1,3.1,3.1h123.8
		c1.7,0,3.1-1.4,3.1-3.1V278.1z M394,299.7c0,0.7-0.6,1.3-1.3,1.3h-12.3c-0.7,0-1.3-0.6-1.3-1.3v-4.3c0-0.7,0.6-1.3,1.3-1.3h12.3
		c0.7,0,1.3,0.6,1.3,1.3V299.7z"/>
	<path class="st1" d="M503,316.1c0-1.7-1.4-3.1-3.1-3.1H376.1c-1.7,0-3.1,1.4-3.1,3.1v28.8c0,1.7,1.4,3.1,3.1,3.1h123.8
		c1.7,0,3.1-1.4,3.1-3.1V316.1z M394,339.7c0,0.7-0.6,1.3-1.3,1.3h-12.3c-0.7,0-1.3-0.6-1.3-1.3v-4.3c0-0.7,0.6-1.3,1.3-1.3h12.3
		c0.7,0,1.3,0.6,1.3,1.3V339.7z"/>
</g>
<ellipse class="st3" cx="98.3" cy="220.9" rx="53.8" ry="55.9"/>
<g>
	<path class="st3" d="M175.5,352.3c0-29.2-14.1-76-52.9-76H75.8c-39.3,0-53.7,47.1-53.7,76.8v0.5h153.4V352.3z"/>
</g>
<g>
	<path class="st4" d="M125.8,237.1c-2.9,8.3-13.5,14.5-26.1,14.5s-23.2-6.2-26.1-14.5c-1,2-1.6,4.2-1.6,6.5
		c0,10.9,12.4,19.7,27.7,19.7s27.7-8.8,27.7-19.7C127.4,241.4,126.8,239.2,125.8,237.1z"/>
</g>
<ellipse class="st3" cx="99.1" cy="237.9" rx="30.5" ry="13.8"/>
<rect x="104.1" y="269.2" class="st5" width="120.5" height="84.3"/>
<rect x="67.2" y="344.2" class="st6" width="83" height="9.3"/>
<g>
	<g>
		<g>
			<g>
				<g>
					<defs>
						<rect id="SVGID_1_" x="185.5" y="286.7" width="1.9" height="1.3"/>
					</defs>
					<clipPath id="SVGID_2_">
						<use xlink:href="#SVGID_1_"  style="overflow:visible;"/>
					</clipPath>
				</g>
			</g>
			<g>
				<g>
					<defs>
						<rect id="SVGID_3_" x="185.5" y="286.7" width="1.9" height="1.3"/>
					</defs>
					<clipPath id="SVGID_4_">
						<use xlink:href="#SVGID_3_"  style="overflow:visible;"/>
					</clipPath>
				</g>
			</g>
			<g>
				<g>
					<defs>
						<rect id="SVGID_5_" x="185.5" y="286.7" width="1.9" height="1.3"/>
					</defs>
					<clipPath id="SVGID_6_">
						<use xlink:href="#SVGID_5_"  style="overflow:visible;"/>
					</clipPath>
				</g>
			</g>
		</g>
	</g>
	<g>
		<g>
			<rect x="147" y="295" class="st7" width="8" height="9"/>
		</g>
		<g>
			<rect x="147" y="303" class="st7" width="8" height="8"/>
		</g>
		<g>
			<rect x="147" y="311" class="st7" width="8" height="8"/>
		</g>
		<g>
			<rect x="147" y="318" class="st7" width="8" height="8"/>
		</g>
		<g>
			<rect x="156" y="292" class="st7" width="2" height="3"/>
		</g>
		<g>
			<rect x="156" y="294" class="st7" width="2" height="2"/>
		</g>
		<g>
			<rect x="156" y="296" class="st7" width="2" height="2"/>
		</g>
		<g>
			<rect x="156" y="298" class="st7" width="2" height="2"/>
		</g>
		<g>
			<rect x="158" y="292" class="st7" width="2" height="3"/>
		</g>
		<g>
			<rect x="158" y="294" class="st7" width="2" height="2"/>
		</g>
		<g>
			<rect x="158" y="296" class="st7" width="2" height="2"/>
		</g>
		<g>
			<rect x="158" y="298" class="st7" width="2" height="2"/>
		</g>
		<g>
			<rect x="161" y="291" class="st7" width="2" height="3"/>
		</g>
		<g>
			<rect x="160" y="294" class="st7" width="2" height="2"/>
		</g>
		<g>
			<rect x="160" y="296" class="st7" width="2" height="2"/>
		</g>
		<g>
			<rect x="160" y="298" class="st7" width="2" height="2"/>
		</g>
		<g>
			<rect x="171" y="281" class="st7" width="2" height="2"/>
		</g>
		<g>
			<rect x="163" y="294" class="st7" width="2" height="2"/>
		</g>
		<g>
			<rect x="162" y="296" class="st7" width="2" height="2"/>
		</g>
		<g>
			<rect x="162" y="298" class="st7" width="2" height="2"/>
		</g>
		<g>
			<rect x="154" y="303" class="st7" width="9" height="8"/>
		</g>
		<g>
			<rect x="154" y="311" class="st7" width="9" height="8"/>
		</g>
		<g>
			<rect x="154" y="318" class="st7" width="9" height="8"/>
		</g>
		<g>
			<rect x="166" y="290" class="st7" width="2" height="2"/>
		</g>
		<g>
			<rect x="166" y="292" class="st7" width="2" height="2"/>
		</g>
		<g>
			<rect x="166" y="294" class="st7" width="2" height="2"/>
		</g>
		<g>
			<rect x="166" y="296" class="st7" width="2" height="2"/>
		</g>
		<g>
			<rect x="169" y="288" class="st7" width="2" height="2"/>
		</g>
		<g>
			<rect x="168" y="292" class="st7" width="2" height="2"/>
		</g>
		<g>
			<rect x="168" y="294" class="st7" width="2" height="2"/>
		</g>
		<g>
			<rect x="168" y="296" class="st7" width="2" height="2"/>
		</g>
		<g>
			<rect x="180" y="277" class="st7" width="2" height="2"/>
		</g>
		<g>
			<rect x="171" y="290" class="st7" width="2" height="3"/>
		</g>
		<g>
			<rect x="170" y="294" class="st7" width="2" height="2"/>
		</g>
		<g>
			<rect x="170" y="296" class="st7" width="2" height="2"/>
		</g>
		<g>
			<rect x="188" y="277" class="st7" width="3" height="2"/>
		</g>
		<g>
			<rect x="184" y="281" class="st7" width="2" height="2"/>
		</g>
		<g>
			<rect x="174" y="293" class="st7" width="2" height="2"/>
		</g>
		<g>
			<rect x="172" y="296" class="st7" width="2" height="2"/>
		</g>
		<g>
			<rect x="164" y="300" class="st7" width="2" height="3"/>
		</g>
		<g>
			<rect x="164" y="302" class="st7" width="2" height="2"/>
		</g>
		<g>
			<rect x="164" y="304" class="st7" width="2" height="2"/>
		</g>
		<g>
			<rect x="164" y="306" class="st7" width="2" height="2"/>
		</g>
		<g>
			<rect x="166" y="300" class="st7" width="2" height="3"/>
		</g>
		<g>
			<rect x="166" y="302" class="st7" width="2" height="2"/>
		</g>
		<g>
			<rect x="166" y="304" class="st7" width="2" height="2"/>
		</g>
		<g>
			<rect x="166" y="306" class="st7" width="2" height="2"/>
		</g>
		<g>
			<rect x="169" y="300" class="st7" width="2" height="2"/>
		</g>
		<g>
			<rect x="168" y="302" class="st7" width="2" height="2"/>
		</g>
		<g>
			<rect x="168" y="304" class="st7" width="2" height="2"/>
		</g>
		<g>
			<rect x="168" y="306" class="st7" width="2" height="2"/>
		</g>
		<g>
			<rect x="180" y="290" class="st7" width="2" height="2"/>
		</g>
		<g>
			<rect x="171" y="302" class="st7" width="2" height="2"/>
		</g>
		<g>
			<rect x="170" y="304" class="st7" width="2" height="2"/>
		</g>
		<g>
			<rect x="170" y="306" class="st7" width="2" height="2"/>
		</g>
		<g>
			<rect x="162" y="311" class="st7" width="8" height="8"/>
		</g>
		<g>
			<rect x="162" y="318" class="st7" width="8" height="8"/>
		</g>
		<g>
			<rect x="177" y="288" class="st7" width="2" height="2"/>
		</g>
		<g>
			<rect x="177" y="290" class="st7" width="2" height="2"/>
		</g>
		<g>
			<rect x="177" y="292" class="st7" width="2" height="2"/>
		</g>
		<g>
			<rect x="177" y="294" class="st7" width="2" height="2"/>
		</g>
		<g>
			<rect x="187" y="275" class="st7" width="2" height="3"/>
		</g>
		<g>
			<rect x="179" y="290" class="st7" width="2" height="2"/>
		</g>
		<g>
			<rect x="179" y="292" class="st7" width="2" height="2"/>
		</g>
		<g>
			<rect x="179" y="294" class="st7" width="2" height="2"/>
		</g>
		<g>
			<g>
				<g>
					<defs>
						<rect id="SVGID_7_" x="185.5" y="286.7" width="1.9" height="1.3"/>
					</defs>
					<clipPath id="SVGID_8_">
						<use xlink:href="#SVGID_7_"  style="overflow:visible;"/>
					</clipPath>
				</g>
			</g>
			<g>
				<g>
					<defs>
						<rect id="SVGID_9_" x="185.5" y="286.7" width="1.9" height="1.3"/>
					</defs>
					<use xlink:href="#SVGID_9_"  style="overflow:visible;fill:#BABAE8;"/>
					<clipPath id="SVGID_10_">
						<use xlink:href="#SVGID_9_"  style="overflow:visible;"/>
					</clipPath>
					<rect x="185.5" y="286.7" class="st8" width="1.9" height="1.3"/>
				</g>
			</g>
			<g>
				<g>
					<defs>
						<rect id="SVGID_11_" x="185.5" y="286.7" width="1.9" height="1.3"/>
					</defs>
					<clipPath id="SVGID_12_">
						<use xlink:href="#SVGID_11_"  style="overflow:visible;"/>
					</clipPath>
				</g>
			</g>
		</g>
		<g>
			<rect x="181" y="292" class="st7" width="2" height="2"/>
		</g>
		<g>
			<rect x="181" y="294" class="st7" width="2" height="2"/>
		</g>
		<g>
			<rect x="194" y="284" class="st7" width="2" height="2"/>
		</g>
		<g>
			<rect x="183" y="294" class="st7" width="2" height="2"/>
		</g>
		<g>
			<rect x="175" y="298" class="st7" width="2" height="3"/>
		</g>
		<g>
			<rect x="175" y="300" class="st7" width="2" height="2"/>
		</g>
		<g>
			<rect x="175" y="302" class="st7" width="2" height="2"/>
		</g>
		<g>
			<rect x="175" y="304" class="st7" width="2" height="2"/>
		</g>
		<g>
			<rect x="178" y="297" class="st7" width="2" height="2"/>
		</g>
		<g>
			<rect x="177" y="300" class="st7" width="2" height="2"/>
		</g>
		<g>
			<rect x="177" y="302" class="st7" width="2" height="2"/>
		</g>
		<g>
			<rect x="177" y="304" class="st7" width="2" height="2"/>
		</g>
		<g>
			<rect x="190" y="287" class="st7" width="2" height="2"/>
		</g>
		<g>
			<rect x="180" y="299" class="st7" width="2" height="2"/>
		</g>
		<g>
			<rect x="179" y="302" class="st7" width="2" height="2"/>
		</g>
		<g>
			<rect x="179" y="304" class="st7" width="2" height="2"/>
		</g>
		<g>
			<rect x="194" y="283" class="st7" width="2" height="2"/>
		</g>
		<g>
			<rect x="191" y="291" class="st7" width="2" height="2"/>
		</g>
		<g>
			<rect x="182" y="301" class="st7" width="2" height="2"/>
		</g>
		<g>
			<rect x="181" y="304" class="st7" width="2" height="2"/>
		</g>
		<g>
			<rect x="172" y="309" class="st7" width="2" height="2"/>
		</g>
		<g>
			<rect x="172" y="310" class="st7" width="2" height="2"/>
		</g>
		<g>
			<rect x="172" y="312" class="st7" width="2" height="2"/>
		</g>
		<g>
			<rect x="172" y="314" class="st7" width="2" height="2"/>
		</g>
		<g>
			<rect x="174" y="309" class="st7" width="2" height="2"/>
		</g>
		<g>
			<rect x="174" y="310" class="st7" width="2" height="2"/>
		</g>
		<g>
			<rect x="174" y="312" class="st7" width="2" height="2"/>
		</g>
		<g>
			<rect x="174" y="314" class="st7" width="2" height="2"/>
		</g>
		<g>
			<rect x="177" y="308" class="st7" width="2" height="2"/>
		</g>
		<g>
			<rect x="176" y="310" class="st7" width="2" height="2"/>
		</g>
		<g>
			<rect x="176" y="312" class="st7" width="2" height="2"/>
		</g>
		<g>
			<rect x="176" y="314" class="st7" width="2" height="2"/>
		</g>
		<g>
			<rect x="190" y="300" class="st7" width="2" height="2"/>
		</g>
		<g>
			<rect x="179" y="310" class="st7" width="2" height="2"/>
		</g>
		<g>
			<rect x="178" y="312" class="st7" width="2" height="2"/>
		</g>
		<g>
			<rect x="178" y="314" class="st7" width="2" height="2"/>
		</g>
		<g>
			<rect x="171" y="318" class="st7" width="8" height="8"/>
		</g>
	</g>
	<g>
		<g>
			<g>
				<g>
					<defs>
						<rect id="SVGID_13_" x="185.5" y="286.7" width="1.9" height="1.3"/>
					</defs>
					<clipPath id="SVGID_14_">
						<use xlink:href="#SVGID_13_"  style="overflow:visible;"/>
					</clipPath>
				</g>
			</g>
			<g>
				<g>
					<defs>
						<rect id="SVGID_15_" x="185.5" y="286.7" width="1.9" height="1.3"/>
					</defs>
					<clipPath id="SVGID_16_">
						<use xlink:href="#SVGID_15_"  style="overflow:visible;"/>
					</clipPath>
				</g>
			</g>
			<g>
				<g>
					<defs>
						<rect id="SVGID_17_" x="185.5" y="286.7" width="1.9" height="1.3"/>
					</defs>
					<clipPath id="SVGID_18_">
						<use xlink:href="#SVGID_17_"  style="overflow:visible;"/>
					</clipPath>
				</g>
			</g>
		</g>
	</g>
</g>
</svg>
