<?xml version="1.0" encoding="utf-8"?>
<!-- Generator: Adobe Illustrator 19.1.1, SVG Export Plug-In . SVG Version: 6.00 Build 0)  -->
<svg version="1.1" id="Layer_1" xmlns="http://www.w3.org/2000/svg" xmlns:xlink="http://www.w3.org/1999/xlink" x="0px" y="0px"
	 viewBox="-220 209.3 518 142.7" style="enable-background:new -220 209.3 518 142.7;" xml:space="preserve">
<style type="text/css">
	.st0{fill:#3F396D;}
	.st1{fill:#5E5689;}
	.st2{fill:#4C4277;}
	.st3{fill:#CACAEA;}
</style>
<path class="st0" d="M193.2,226.6c-0.4-1.1-1.1-2.2-1.9-3.3c10.5-2.7,21.7-3.5,32.9-3.9c19.9-0.6,33.3,1,52.2,3
	c0.5,0.1-13.7,57.1-13.7,57.1s7.3,11.4,23,50.3c0,0-23.1-2.1-47.2-1.6c-8.8,0.2-20.8,2.1-29.5,2.9c-5.4,0.5-5.2,0.6-5.6-3.3
	c-0.3-3.2-0.6-6.5-0.9-9.7c-2.3-25-4.7-49.9-7-74.9c-0.3-3.5-0.7-7-1-10.5C194.2,230.7,194,228.6,193.2,226.6z"/>
<polygon class="st1" points="227.5,331.4 205.3,333.9 191.2,223.8 223.3,226.2 "/>
<path class="st2" d="M-204.6,234.2c0-5.1,90.9-14.9,139.9-14.9c85,0,135.9,9.9,207.6,12.4c10.2,0.4,20.4,0.5,30.7,0.5
	c100.5,0,17.7-8.5,17.7-8.5s22.6-0.9,32.1,2.4c6.1,2.1,5.3,2.4,5.3,28.4s0,85.2,0,85.2c0,3-78.8,2.2-83.6,2
	c-52.6-1.9-103.4-14.2-155.9-17.1c-60.5-3.4-122.8,0.5-182.6,9.7l13.5-53.4L-204.6,234.2z"/>
<path class="st2" d="M200.7,273.4l-0.4-5.3l4.7-0.2l0.1,5.3l0.4,21.4l-3.2,0.2L200.7,273.4z M204.2,299.4c1.8-0.1,3.4,1.3,3.5,3.5
	c0.1,2-1.4,3.6-3.2,3.7c-1.9,0.1-3.5-1.3-3.6-3.4C200.9,301.1,202.4,299.5,204.2,299.4z"/>
<path class="st3" d="M-114.6,252.5c4.4-0.5,8.1,1.3,10.6,3.4l-2.3,3.3c-2.2-1.9-4.7-3-7.8-2.6c-7,0.8-11.1,7.1-10.1,16.2
	c1,9.3,6.1,14.7,13.2,13.9c3.5-0.4,5.9-2.1,8-5.1l3,2.6c-2.5,3.7-5.9,6.1-10.6,6.6c-9.3,1-17-5.3-18.4-17.4
	C-130.3,261.6-124.1,253.6-114.6,252.5z"/>
<path class="st3" d="M-84.5,259.9c6.7-0.4,13,4.6,13.5,13.8c0.5,9.1-5.2,14.7-12,15.1c-6.7,0.4-13-4.6-13.5-13.7
	C-97,265.8-91.2,260.3-84.5,259.9z M-83.2,285c4.8-0.2,7.7-4.7,7.4-11s-3.7-10.5-8.5-10.2c-4.7,0.2-7.7,4.7-7.4,11.1
	C-91.3,281.1-87.9,285.2-83.2,285z"/>
<path class="st3" d="M-63.5,259.6h3.9l0.4,4h0.2c2.4-2.6,5.3-4.7,8.6-4.7c4.2,0,6.5,2,7.6,5.3c2.9-3.1,5.7-5.3,9.1-5.3
	c5.7,0,8.4,3.7,8.4,10.8v17.5H-30v-16.8c0-5.2-1.7-7.4-5.1-7.4c-2.2,0-4.4,1.4-6.9,4.3v20h-4.7v-16.8c0-5.2-1.7-7.4-5.2-7.4
	c-2,0-4.4,1.4-6.9,4.3v20h-4.7L-63.5,259.6z"/>
<path class="st3" d="M-15.7,260l4.6,0.2l-1.2,27.5l-4.6-0.2L-15.7,260z M-16.2,251.3c0.1-1.8,1.5-2.9,3.4-2.9
	c1.8,0.1,3.2,1.3,3.1,3.1c-0.1,1.8-1.5,2.9-3.4,2.9C-14.9,254.3-16.2,253-16.2,251.3z"/>
<path class="st3" d="M-1,260.7l3.8,0.3l0.1,4h0.2c2.8-2.4,5.8-4.2,9.6-3.8c5.8,0.5,8,4.5,7.4,11.5l-1.5,17.4l-4.6-0.4l1.4-16.8
	c0.4-5.1-0.9-7.5-4.6-7.8c-2.8-0.2-4.9,1.1-7.9,3.6l-1.7,19.9l-4.6-0.4L-1,260.7z"/>
<path class="st3" d="M29.2,290.3v-0.2c-1.2-1-2.1-2.6-1.8-4.8c0.3-2.3,2.1-3.9,3.7-4.7v-0.2c-1.6-1.7-3-4.6-2.6-7.8
	c0.8-6,6-9.1,11.6-8.3c1.5,0.2,2.8,0.7,3.8,1.2l9.5,1.3l-0.5,3.5l-5.6-0.8c1.1,1.4,1.8,3.6,1.5,5.9c-0.8,5.8-5.7,8.9-11.3,8.2
	c-1.3-0.2-2.8-0.7-4-1.5c-1.1,0.7-2,1.5-2.2,3c-0.2,1.7,0.7,3.1,4.4,3.6l5.3,0.7c6.4,0.9,9.3,3.3,8.7,7.8c-0.7,5.1-6.6,8.7-15.1,7.6
	c-6.7-0.9-10.9-4.2-10.3-8.9C24.7,293.7,26.5,291.7,29.2,290.3z M35.8,301.8c5.2,0.7,9-1.5,9.4-4.4c0.3-2.5-1.5-3.6-5.1-4.1
	l-4.7-0.6c-1.1-0.1-2.3-0.4-3.5-0.9c-2.2,1.1-3.2,2.7-3.4,4.2C28.1,298.8,30.8,301.1,35.8,301.8z M44.6,274.8c0.5-4-1.7-6.7-4.9-7.1
	c-3.2-0.4-6.1,1.6-6.6,5.6s1.8,6.9,4.9,7.3C41.1,280.9,44.1,278.8,44.6,274.8z"/>
<path class="st3" d="M76.5,287.9c2.1,3.2,5.5,5.7,9.3,6.4c4.8,0.8,8.1-1.1,8.7-4.6c0.7-3.7-1.8-5.4-5-7.6l-4.8-3.2
	c-3.2-2.1-6.7-5.4-5.8-10.7c1-5.6,6.6-8.9,13.3-7.7c4.4,0.8,7.9,3.3,10,6.4l-3,2.6c-1.9-2.5-4.4-4.3-7.7-4.9
	c-4.1-0.7-7.2,0.9-7.8,4.2c-0.6,3.5,2.4,5.4,5,7.2l4.9,3.2c3.9,2.6,6.8,5.7,5.8,11.1c-1,5.8-6.6,9.6-14.4,8.2
	c-5.1-0.9-9.2-3.8-11.8-7.7L76.5,287.9z"/>
<path class="st3" d="M119.2,274.6c6.7,1,11.9,7.1,10.5,16.2c-1.3,9-8.1,13.4-14.7,12.4c-6.7-1-11.9-7.1-10.5-16.1
	C105.8,278,112.5,273.7,119.2,274.6z M115.5,299.5c4.7,0.7,8.5-3,9.4-9.3s-1.6-11-6.3-11.7c-4.7-0.7-8.5,3.1-9.4,9.4
	C108.3,294.1,110.9,298.8,115.5,299.5z"/>
<path class="st3" d="M149.3,277.5c6.7,0.3,12.6,5.8,12.2,15c-0.4,9.1-6.6,14.2-13.3,13.9c-6.7-0.3-12.6-5.8-12.2-14.9
	C136.3,282.3,142.5,277.3,149.3,277.5z M148.3,302.6c4.8,0.2,8.1-3.9,8.3-10.2c0.2-6.3-2.8-10.8-7.5-11s-8.1,4-8.3,10.4
	C140.5,298,143.6,302.4,148.3,302.6z"/>
<path class="st3" d="M168.8,278.8h3.9l0.4,4h0.2c2.6-2.6,5.4-4.6,9.3-4.6c5.8,0,8.4,3.8,8.4,10.8v17.5h-4.7v-16.8
	c0-5.2-1.6-7.4-5.2-7.4c-2.8,0-4.8,1.5-7.5,4.2v20h-4.7L168.8,278.8z"/>
</svg>
