<?xml version="1.0" encoding="utf-8"?>
<!-- Generator: Adobe Illustrator 19.2.0, SVG Export Plug-In . SVG Version: 6.00 Build 0)  -->
<svg version="1.1" id="Layer_1" xmlns="http://www.w3.org/2000/svg" xmlns:xlink="http://www.w3.org/1999/xlink" x="0px" y="0px"
	 viewBox="0 0 518 142.7" style="enable-background:new 0 0 518 142.7;" xml:space="preserve">
<style type="text/css">
	.st0{fill:#3F396D;}
	.st1{fill:#5E5689;}
	.st2{fill:#4C4277;}
	.st3{fill:#CACAEA;}
</style>
<path class="st0" d="M387.1,28.9c-0.3-0.9-0.9-1.8-1.6-2.7c8.6-2.2,17.9-2.9,27.1-3.2c16.4-0.5,27.4,0.8,43,2.5
	c0.4,0.1-11.3,47-11.3,47s6,9.4,18.9,41.4c0,0-19-1.7-38.9-1.3c-7.2,0.2-17.1,1.7-24.3,2.4c-4.4,0.4-4.3,0.5-4.6-2.7
	c-0.2-2.6-0.5-5.4-0.7-8c-1.9-20.6-3.9-41.1-5.8-61.7c-0.2-2.9-0.6-5.8-0.8-8.6C387.9,32.2,387.7,30.5,387.1,28.9z"/>
<polygon class="st1" points="415.3,115.2 397,117.2 385.4,26.6 411.9,28.5 "/>
<path class="st2" d="M59.4,35.1c0-4.2,74.9-12.3,115.2-12.3c70,0,111.9,8.2,171,10.2c8.4,0.3,16.8,0.4,25.3,0.4
	c82.8,0,14.6-7,14.6-7s18.6-0.7,26.4,2c5,1.7,4.4,2,4.4,23.4s0,70.2,0,70.2c0,2.5-64.9,1.8-68.9,1.6c-43.3-1.6-85.2-11.7-128.4-14.1
	c-49.8-2.8-101.1,0.4-150.4,8l11.1-44L59.4,35.1z"/>
<path class="st2" d="M393.2,67.4l-0.3-4.4l3.9-0.2l0.1,4.4l0.3,17.6l-2.6,0.2L393.2,67.4z M396.1,88.8c1.5-0.1,2.8,1.1,2.9,2.9
	c0.1,1.6-1.2,3-2.6,3c-1.6,0.1-2.9-1.1-3-2.8C393.4,90.2,394.6,88.9,396.1,88.8z"/>
<path class="st3" d="M133.6,50.2c3.6-0.4,6.7,1.1,8.7,2.8l-1.9,2.7c-1.8-1.6-3.9-2.5-6.4-2.1c-5.8,0.7-9.1,5.8-8.3,13.3
	c0.8,7.7,5,12.1,10.9,11.4c2.9-0.3,4.9-1.7,6.6-4.2l2.5,2.1c-2.1,3-4.9,5-8.7,5.4c-7.7,0.8-14-4.4-15.2-14.3
	C120.6,57.7,125.7,51.1,133.6,50.2z"/>
<path class="st3" d="M158.4,56.3c5.5-0.3,10.7,3.8,11.1,11.4c0.4,7.5-4.3,12.1-9.9,12.4c-5.5,0.3-10.7-3.8-11.1-11.3
	C148.1,61.2,152.8,56.6,158.4,56.3z M159.4,77c4-0.2,6.3-3.9,6.1-9.1c-0.2-5.2-3-8.6-7-8.4c-3.9,0.2-6.3,3.9-6.1,9.1
	C152.8,73.8,155.6,77.1,159.4,77z"/>
<path class="st3" d="M175.6,56h3.2l0.3,3.3h0.2c2-2.1,4.4-3.9,7.1-3.9c3.5,0,5.4,1.6,6.3,4.4c2.4-2.6,4.7-4.4,7.5-4.4
	c4.7,0,6.9,3,6.9,8.9v14.4h-3.9V64.9c0-4.3-1.4-6.1-4.2-6.1c-1.8,0-3.6,1.2-5.7,3.5v16.5h-3.9V65c0-4.3-1.4-6.1-4.3-6.1
	c-1.6,0-3.6,1.2-5.7,3.5v16.5h-3.9V56z"/>
<path class="st3" d="M215,56.4l3.8,0.2l-1,22.6L214,79L215,56.4z M214.6,49.2c0.1-1.5,1.2-2.4,2.8-2.4c1.5,0.1,2.6,1.1,2.6,2.6
	c-0.1,1.5-1.2,2.4-2.8,2.4C215.7,51.7,214.6,50.6,214.6,49.2z"/>
<path class="st3" d="M227.1,57l3.1,0.2l0.1,3.3h0.2c2.3-2,4.8-3.5,7.9-3.1c4.8,0.4,6.6,3.7,6.1,9.5l-1.2,14.3l-3.8-0.3l1.2-13.8
	c0.3-4.2-0.7-6.2-3.8-6.4c-2.3-0.2-4,0.9-6.5,3l-1.4,16.4l-3.8-0.3L227.1,57z"/>
<path class="st3" d="M252,81.3v-0.2c-1-0.8-1.7-2.1-1.5-4c0.2-1.9,1.7-3.2,3-3.9v-0.2c-1.3-1.4-2.5-3.8-2.1-6.4
	c0.7-4.9,4.9-7.5,9.6-6.8c1.2,0.2,2.3,0.6,3.1,1l7.8,1.1l-0.4,2.9l-4.6-0.7c0.9,1.2,1.5,3,1.2,4.9c-0.7,4.8-4.7,7.3-9.3,6.8
	c-1.1-0.2-2.3-0.6-3.3-1.2c-0.9,0.6-1.6,1.2-1.8,2.5c-0.2,1.4,0.6,2.6,3.6,3l4.4,0.6c5.3,0.7,7.7,2.7,7.2,6.4
	c-0.6,4.2-5.4,7.2-12.4,6.3c-5.5-0.7-9-3.5-8.5-7.3C248.3,84.1,249.8,82.5,252,81.3z M257.4,90.8c4.3,0.6,7.4-1.2,7.7-3.6
	c0.2-2.1-1.2-3-4.2-3.4l-3.9-0.5c-0.9-0.1-1.9-0.3-2.9-0.7c-1.8,0.9-2.6,2.2-2.8,3.5C251.1,88.3,253.3,90.2,257.4,90.8z M264.7,68.6
	c0.4-3.3-1.4-5.5-4-5.8c-2.6-0.3-5,1.3-5.4,4.6c-0.4,3.3,1.5,5.7,4,6C261.8,73.6,264.3,71.9,264.7,68.6z"/>
<path class="st3" d="M291,79.4c1.7,2.6,4.5,4.7,7.7,5.3c4,0.7,6.7-0.9,7.2-3.8c0.6-3-1.5-4.4-4.1-6.3l-4-2.6
	c-2.6-1.7-5.5-4.4-4.8-8.8c0.8-4.6,5.4-7.3,11-6.3c3.6,0.7,6.5,2.7,8.2,5.3l-2.5,2.1c-1.6-2.1-3.6-3.5-6.3-4
	c-3.4-0.6-5.9,0.7-6.4,3.5c-0.5,2.9,2,4.4,4.1,5.9l4,2.6c3.2,2.1,5.6,4.7,4.8,9.1c-0.8,4.8-5.4,7.9-11.9,6.8
	c-4.2-0.7-7.6-3.1-9.7-6.3L291,79.4z"/>
<path class="st3" d="M326.1,68.4c5.5,0.8,9.8,5.8,8.6,13.3c-1.1,7.4-6.7,11-12.1,10.2c-5.5-0.8-9.8-5.8-8.6-13.3
	C315.1,71.2,320.6,67.7,326.1,68.4z M323.1,88.9c3.9,0.6,7-2.5,7.7-7.7s-1.3-9.1-5.2-9.6c-3.9-0.6-7,2.6-7.7,7.7
	C317.1,84.5,319.3,88.3,323.1,88.9z"/>
<path class="st3" d="M350.9,70.8c5.5,0.2,10.4,4.8,10,12.4c-0.3,7.5-5.4,11.7-11,11.4c-5.5-0.2-10.4-4.8-10-12.3
	C340.2,74.7,345.3,70.6,350.9,70.8z M350.1,91.5c4,0.2,6.7-3.2,6.8-8.4c0.2-5.2-2.3-8.9-6.2-9.1c-3.9-0.2-6.7,3.3-6.8,8.6
	C343.7,87.7,346.2,91.3,350.1,91.5z"/>
<path class="st3" d="M367,71.9h3.2l0.3,3.3h0.2c2.1-2.1,4.4-3.8,7.7-3.8c4.8,0,6.9,3.1,6.9,8.9v14.4h-3.9V80.8
	c0-4.3-1.3-6.1-4.3-6.1c-2.3,0-4,1.2-6.2,3.5v16.5h-3.9L367,71.9z"/>
</svg>
