<?xml version="1.0" encoding="utf-8"?>
<!-- Generator: Adobe Illustrator 19.1.1, SVG Export Plug-In . SVG Version: 6.00 Build 0)  -->
<svg version="1.1" id="Layer_1" xmlns="http://www.w3.org/2000/svg" xmlns:xlink="http://www.w3.org/1999/xlink" x="0px" y="0px"
	 viewBox="6 211 518 142.7" style="enable-background:new 6 211 518 142.7;" xml:space="preserve">
<style type="text/css">
	.st0{fill:#A9A9D3;}
	.st1{fill:#CACAEA;}
	.st2{fill:#BABAE2;}
	.st3{fill:#4C4277;}
</style>
<path class="st0" d="M413.2,231.3c-0.4-1.1-1.1-2.2-1.9-3.3c10.5-2.7,21.7-3.5,32.9-3.9c19.9-0.6,33.3,1,52.2,3
	c0.5,0.1-13.7,57.1-13.7,57.1s7.3,11.4,23,50.3c0,0-23.1-2.1-47.2-1.6c-8.8,0.2-20.8,2.1-29.5,2.9c-5.4,0.5-5.2,0.6-5.6-3.3
	c-0.3-3.2-0.6-6.5-0.9-9.7c-2.3-25-4.7-49.9-7-74.9c-0.3-3.5-0.7-7-1-10.5C414.2,235.4,414,233.3,413.2,231.3z"/>
<polygon class="st1" points="447.5,336.1 425.3,338.6 411.2,228.5 443.3,230.9 "/>
<path class="st2" d="M15.4,238.9c0-5.1,90.9-14.9,139.9-14.9c85,0,135.9,9.9,207.6,12.4c10.2,0.4,20.4,0.5,30.7,0.5
	c100.5,0,17.7-8.5,17.7-8.5s22.6-0.9,32.1,2.4c6.1,2.1,5.3,2.4,5.3,28.4c0,26,0,85.2,0,85.2c0,3-78.8,2.2-83.6,2
	c-52.6-1.9-103.4-14.2-155.9-17.1c-60.5-3.4-122.8,0.5-182.6,9.7c0,0,13.5-53.4,13.5-53.4S15.4,238.9,15.4,238.9z"/>
<path class="st3" d="M105.4,257.2c4.4-0.5,8.1,1.3,10.6,3.4l-2.3,3.3c-2.2-1.9-4.7-3-7.8-2.6c-7,0.8-11.1,7.1-10.1,16.2
	c1,9.3,6.1,14.7,13.2,13.9c3.5-0.4,5.9-2.1,8-5.1l3,2.6c-2.5,3.7-5.9,6.1-10.6,6.6c-9.3,1-17-5.3-18.4-17.4
	C89.7,266.3,95.9,258.3,105.4,257.2z"/>
<path class="st3" d="M135.5,264.6c6.7-0.4,13,4.6,13.5,13.8c0.5,9.1-5.2,14.7-12,15.1c-6.7,0.4-13-4.6-13.5-13.7
	C123,270.5,128.8,265,135.5,264.6z M136.8,289.7c4.8-0.2,7.7-4.7,7.4-11c-0.3-6.3-3.7-10.5-8.5-10.2c-4.7,0.2-7.7,4.7-7.4,11.1
	C128.7,285.8,132.1,289.9,136.8,289.7z"/>
<path class="st3" d="M156.5,264.3l3.9,0l0.4,4l0.2,0c2.4-2.6,5.3-4.7,8.6-4.7c4.2,0,6.5,2,7.6,5.3c2.9-3.1,5.7-5.3,9.1-5.3
	c5.7,0,8.4,3.7,8.4,10.8l0,17.5l-4.7,0l0-16.8c0-5.2-1.7-7.4-5.1-7.4c-2.2,0-4.4,1.4-6.9,4.3l0,20l-4.7,0l0-16.8
	c0-5.2-1.7-7.4-5.2-7.4c-2,0-4.4,1.4-6.9,4.3l0,20l-4.7,0L156.5,264.3z"/>
<path class="st3" d="M204.3,264.7l4.6,0.2l-1.2,27.5l-4.6-0.2L204.3,264.7z M203.8,256c0.1-1.8,1.5-2.9,3.4-2.9
	c1.8,0.1,3.2,1.3,3.1,3.1c-0.1,1.8-1.5,2.9-3.4,2.9C205.1,259,203.8,257.7,203.8,256z"/>
<path class="st3" d="M219,265.4l3.8,0.3l0.1,4l0.2,0c2.8-2.4,5.8-4.2,9.6-3.8c5.8,0.5,8,4.5,7.4,11.5l-1.5,17.4l-4.6-0.4l1.4-16.8
	c0.4-5.1-0.9-7.5-4.6-7.8c-2.8-0.2-4.9,1.1-7.9,3.6l-1.7,19.9l-4.6-0.4L219,265.4z"/>
<path class="st3" d="M249.2,295l0-0.2c-1.2-1-2.1-2.6-1.8-4.8c0.3-2.3,2.1-3.9,3.7-4.7l0-0.2c-1.6-1.7-3-4.6-2.6-7.8
	c0.8-6,6-9.1,11.6-8.3c1.5,0.2,2.8,0.7,3.8,1.2l9.5,1.3l-0.5,3.5l-5.6-0.8c1.1,1.4,1.8,3.6,1.5,5.9c-0.8,5.8-5.7,8.9-11.3,8.2
	c-1.3-0.2-2.8-0.7-4-1.5c-1.1,0.7-2,1.5-2.2,3c-0.2,1.7,0.7,3.1,4.4,3.6l5.3,0.7c6.4,0.9,9.3,3.3,8.7,7.8c-0.7,5.1-6.6,8.7-15.1,7.6
	c-6.7-0.9-10.9-4.2-10.3-8.9C244.7,298.4,246.5,296.4,249.2,295z M255.8,306.5c5.2,0.7,9-1.5,9.4-4.4c0.3-2.5-1.5-3.6-5.1-4.1
	l-4.7-0.6c-1.1-0.1-2.3-0.4-3.5-0.9c-2.2,1.1-3.2,2.7-3.4,4.2C248.1,303.5,250.8,305.8,255.8,306.5z M264.6,279.5
	c0.5-4-1.7-6.7-4.9-7.1c-3.2-0.4-6.1,1.6-6.6,5.6c-0.5,4,1.8,6.9,4.9,7.3C261.1,285.6,264.1,283.5,264.6,279.5z"/>
<path class="st3" d="M296.5,292.6c2.1,3.2,5.5,5.7,9.3,6.4c4.8,0.8,8.1-1.1,8.7-4.6c0.7-3.7-1.8-5.4-5-7.6l-4.8-3.2
	c-3.2-2.1-6.7-5.4-5.8-10.7c1-5.6,6.6-8.9,13.3-7.7c4.4,0.8,7.9,3.3,10,6.4l-3,2.6c-1.9-2.5-4.4-4.3-7.7-4.9
	c-4.1-0.7-7.2,0.9-7.8,4.2c-0.6,3.5,2.4,5.4,5,7.2l4.9,3.2c3.9,2.6,6.8,5.7,5.8,11.1c-1,5.8-6.6,9.6-14.4,8.2
	c-5.1-0.9-9.2-3.8-11.8-7.7L296.5,292.6z"/>
<path class="st3" d="M339.2,279.3c6.7,1,11.9,7.1,10.5,16.2c-1.3,9-8.1,13.4-14.7,12.4c-6.7-1-11.9-7.1-10.5-16.1
	C325.8,282.7,332.5,278.4,339.2,279.3z M335.5,304.2c4.7,0.7,8.5-3,9.4-9.3c0.9-6.3-1.6-11-6.3-11.7c-4.7-0.7-8.5,3.1-9.4,9.4
	C328.3,298.8,330.9,303.5,335.5,304.2z"/>
<path class="st3" d="M369.3,282.2c6.7,0.3,12.6,5.8,12.2,15c-0.4,9.1-6.6,14.2-13.3,13.9c-6.7-0.3-12.6-5.8-12.2-14.9
	C356.3,287,362.5,282,369.3,282.2z M368.3,307.3c4.8,0.2,8.1-3.9,8.3-10.2c0.2-6.3-2.8-10.8-7.5-11c-4.7-0.2-8.1,4-8.3,10.4
	C360.5,302.7,363.6,307.1,368.3,307.3z"/>
<path class="st3" d="M388.8,283.5l3.9,0l0.4,4l0.2,0c2.6-2.6,5.4-4.6,9.3-4.6c5.8,0,8.4,3.8,8.4,10.8l0,17.5l-4.7,0l0-16.8
	c0-5.2-1.6-7.4-5.2-7.4c-2.8,0-4.8,1.5-7.5,4.2l0,20l-4.7,0L388.8,283.5z"/>
<path class="st3" d="M420.7,278.1l-0.4-5.3l4.7-0.2l0.1,5.3l0.4,21.4l-3.2,0.2L420.7,278.1z M424.2,304.1c1.8-0.1,3.4,1.3,3.5,3.5
	c0.1,2-1.4,3.6-3.2,3.7c-1.9,0.1-3.5-1.3-3.6-3.4C420.9,305.8,422.4,304.2,424.2,304.1z"/>
</svg>
