<?xml version="1.0" encoding="utf-8"?>
<!-- Generator: Adobe Illustrator 19.2.0, SVG Export Plug-In . SVG Version: 6.00 Build 0)  -->
<svg version="1.1" id="Layer_1" xmlns="http://www.w3.org/2000/svg" xmlns:xlink="http://www.w3.org/1999/xlink" x="0px" y="0px"
	 viewBox="0 0 513.3 189.3" style="enable-background:new 0 0 513.3 189.3;" xml:space="preserve">
<style type="text/css">
	
		.st0{fill:none;stroke:#D4D4F4;stroke-width:3;stroke-linecap:round;stroke-linejoin:round;stroke-miterlimit:10;stroke-dasharray:1,15;}
	.st1{opacity:0.6;fill:#D4D4F4;enable-background:new    ;}
	.st2{fill:#8787C6;}
	.st3{fill:#4C4277;}
	.st4{fill:#EDF2F9;}
	.st5{opacity:0.6;fill:#8787C6;enable-background:new    ;}
	.st6{fill:#BABAE8;}
	.st7{clip-path:url(#SVGID_2_);fill:#BABAE8;}
	.st8{fill:#FFFFFF;}
	.st9{fill:#D4D4F4;}
	.st10{fill:none;stroke:#FFFFFF;stroke-linecap:round;stroke-miterlimit:10;}
	.st11{fill:#B2B1DD;}
</style>
<line class="st0" x1="353.9" y1="70.5" x2="302.5" y2="118.8"/>
<path class="st1" d="M402.5,63.6h-42.8c-2.1,0-3.8-1.7-3.8-3.8V17c0-2.1,1.7-3.8,3.8-3.8h42.8c2.1,0,3.8,1.7,3.8,3.8v42.8
	C406.4,61.9,404.6,63.6,402.5,63.6z"/>
<path class="st1" d="M494.2,95.5h-42.8c-2.1,0-3.8-1.7-3.8-3.8V48.9c0-2.1,1.7-3.8,3.8-3.8h42.8c2.1,0,3.8,1.7,3.8,3.8v42.8
	C498,93.8,496.3,95.5,494.2,95.5z"/>
<path class="st1" d="M474.4,171.7h-42.8c-2.1,0-3.8-1.7-3.8-3.8v-42.8c0-2.1,1.7-3.8,3.8-3.8h42.8c2.1,0,3.8,1.7,3.8,3.8v42.8
	C478.3,169.9,476.6,171.7,474.4,171.7z"/>
<path class="st1" d="M161.4,63.1h-42.8c-2.1,0-3.8-1.7-3.8-3.8V16.6c0-2.1,1.7-3.8,3.8-3.8h42.8c2.1,0,3.8,1.7,3.8,3.8v42.8
	C165.3,61.4,163.6,63.1,161.4,63.1z"/>
<path class="st1" d="M103.9,172.2H61.1c-2.1,0-3.8-1.7-3.8-3.8v-42.8c0-2.1,1.7-3.8,3.8-3.8h42.8c2.1,0,3.8,1.7,3.8,3.8v42.8
	C107.7,170.5,106,172.2,103.9,172.2z"/>
<path class="st1" d="M64.7,88.9H21.9c-2.1,0-3.8-1.7-3.8-3.8V42.3c0-2.1,1.7-3.8,3.8-3.8h42.8c2.1,0,3.8,1.7,3.8,3.8v42.8
	C68.5,87.2,66.8,88.9,64.7,88.9z"/>
<line class="st0" x1="185.4" y1="151.6" x2="112.8" y2="151.2"/>
<line class="st0" x1="153.4" y1="68.9" x2="222.9" y2="131.7"/>
<path class="st2" d="M400.5,61.5h-42.8c-2.1,0-3.8-1.7-3.8-3.8V14.9c0-2.1,1.7-3.8,3.8-3.8h42.8c2.1,0,3.8,1.7,3.8,3.8v42.8
	C404.4,59.8,402.6,61.5,400.5,61.5z"/>
<path class="st2" d="M492.1,93.5h-42.8c-2.1,0-3.8-1.7-3.8-3.8V46.9c0-2.1,1.7-3.8,3.8-3.8h42.8c2.1,0,3.8,1.7,3.8,3.8v42.7
	C495.9,91.8,494.2,93.5,492.1,93.5z"/>
<path class="st2" d="M472.4,169.6h-42.8c-2.1,0-3.8-1.7-3.8-3.8v-42.8c0-2.1,1.7-3.8,3.8-3.8h42.8c2.1,0,3.8,1.7,3.8,3.8v42.8
	C476.2,167.9,474.5,169.6,472.4,169.6z"/>
<line class="st0" x1="419.2" y1="151.6" x2="351.3" y2="151.2"/>
<line class="st0" x1="435.7" y1="75.3" x2="346.5" y2="132"/>
<path class="st2" d="M159.4,61.1h-42.8c-2.1,0-3.8-1.7-3.8-3.8V14.6c0-2.1,1.7-3.8,3.8-3.8h42.8c2.1,0,3.8,1.7,3.8,3.8v42.8
	C163.2,59.4,161.5,61.1,159.4,61.1z"/>
<path class="st2" d="M101.8,170.2H59c-2.1,0-3.8-1.7-3.8-3.8v-42.8c0-2.1,1.7-3.8,3.8-3.8h42.8c2.1,0,3.8,1.7,3.8,3.8v42.8
	C105.6,168.5,103.9,170.2,101.8,170.2z"/>
<path class="st2" d="M62.6,86.8H19.8c-2.1,0-3.8-1.7-3.8-3.8V40.2c0-2.1,1.7-3.8,3.8-3.8h42.8c2.1,0,3.8,1.7,3.8,3.8V83
	C66.4,85.1,64.7,86.8,62.6,86.8z"/>
<ellipse class="st3" cx="237.9" cy="94.2" rx="38.6" ry="40.1"/>
<g>
	<path class="st3" d="M293.2,188.6c0-21-10.1-54.5-38-54.5h-33.5c-28.2,0-38.6,33.8-38.6,55.1v0.3h110.1L293.2,188.6L293.2,188.6z"
		/>
</g>
<g>
	<path class="st4" d="M257.6,105.9c-2.1,6-9.7,10.4-18.8,10.4c-9.1,0-16.7-4.4-18.8-10.4c-0.7,1.4-1.1,3-1.1,4.7
		c0,7.8,8.9,14.1,19.9,14.1s19.9-6.3,19.9-14.1C258.7,109,258.3,107.4,257.6,105.9z"/>
</g>
<ellipse class="st3" cx="237.4" cy="106.4" rx="21.9" ry="9.9"/>
<rect x="242.1" y="128.8" class="st2" width="86.5" height="60.5"/>
<rect x="222.2" y="181.4" class="st5" width="71.8" height="8"/>
<g>
	<g>
		<g>
			<rect x="272.8" y="147.4" class="st6" width="5.6" height="6.4"/>
		</g>
		<g>
			<rect x="272.8" y="153" class="st6" width="5.6" height="6.4"/>
		</g>
		<g>
			<rect x="272.8" y="158.6" class="st6" width="5.6" height="5.6"/>
		</g>
		<g>
			<rect x="272.8" y="164.2" class="st6" width="5.6" height="5.6"/>
		</g>
		<g>
			<rect x="279.5" y="145.6" class="st6" width="1.5" height="1.5"/>
		</g>
		<g>
			<rect x="279.5" y="147" class="st6" width="1.5" height="1.5"/>
		</g>
		<g>
			<rect x="279.5" y="148.3" class="st6" width="1.5" height="1.5"/>
		</g>
		<g>
			<rect x="279.5" y="149.6" class="st6" width="1.5" height="1.5"/>
		</g>
		<g>
			<rect x="280.9" y="145.6" class="st6" width="1.5" height="1.5"/>
		</g>
		<g>
			<rect x="280.9" y="147" class="st6" width="1.5" height="1.5"/>
		</g>
		<g>
			<rect x="280.9" y="148.3" class="st6" width="1.5" height="1.5"/>
		</g>
		<g>
			<rect x="280.9" y="149.6" class="st6" width="1.5" height="1.5"/>
		</g>
		<g>
			<rect x="282.6" y="144.9" class="st6" width="1.5" height="1.5"/>
		</g>
		<g>
			<rect x="282.2" y="147" class="st6" width="1.5" height="1.5"/>
		</g>
		<g>
			<rect x="282.2" y="148.3" class="st6" width="1.5" height="1.5"/>
		</g>
		<g>
			<rect x="282.2" y="149.6" class="st6" width="1.5" height="1.5"/>
		</g>
		<g>
			<rect x="289.9" y="137.3" class="st6" width="1.5" height="1.5"/>
		</g>
		<g>
			<rect x="284.1" y="146.3" class="st6" width="1.5" height="1.5"/>
		</g>
		<g>
			<rect x="283.6" y="148.3" class="st6" width="1.5" height="1.5"/>
		</g>
		<g>
			<rect x="283.6" y="149.6" class="st6" width="1.5" height="1.5"/>
		</g>
		<g>
			<rect x="278.5" y="153" class="st6" width="5.6" height="6.4"/>
		</g>
		<g>
			<rect x="278.5" y="158.6" class="st6" width="5.6" height="5.6"/>
		</g>
		<g>
			<rect x="278.5" y="164.2" class="st6" width="5.6" height="5.6"/>
		</g>
		<g>
			<rect x="286.7" y="143.8" class="st6" width="1.5" height="1.5"/>
		</g>
		<g>
			<rect x="286.7" y="145.1" class="st6" width="1.5" height="1.5"/>
		</g>
		<g>
			<rect x="286.7" y="146.5" class="st6" width="1.5" height="1.5"/>
		</g>
		<g>
			<rect x="286.7" y="147.8" class="st6" width="1.5" height="1.5"/>
		</g>
		<g>
			<rect x="288.7" y="142.6" class="st6" width="1.5" height="1.5"/>
		</g>
		<g>
			<rect x="288.1" y="145.1" class="st6" width="1.5" height="1.5"/>
		</g>
		<g>
			<rect x="288.1" y="146.5" class="st6" width="1.5" height="1.5"/>
		</g>
		<g>
			<rect x="288.1" y="147.8" class="st6" width="1.5" height="1.5"/>
		</g>
		<g>
			<rect x="296.3" y="134.5" class="st6" width="1.5" height="1.5"/>
		</g>
		<g>
			<rect x="290.3" y="144.2" class="st6" width="1.5" height="1.5"/>
		</g>
		<g>
			<rect x="289.4" y="146.5" class="st6" width="1.5" height="1.5"/>
		</g>
		<g>
			<rect x="289.4" y="147.8" class="st6" width="1.5" height="1.5"/>
		</g>
		<g>
			<rect x="302.5" y="134.5" class="st6" width="1.5" height="1.5"/>
		</g>
		<g>
			<rect x="299.1" y="137.6" class="st6" width="1.5" height="1.5"/>
		</g>
		<g>
			<rect x="291.8" y="145.7" class="st6" width="1.5" height="1.5"/>
		</g>
		<g>
			<rect x="290.8" y="147.8" class="st6" width="1.5" height="1.5"/>
		</g>
		<g>
			<rect x="285.3" y="151.4" class="st6" width="1.5" height="1.5"/>
		</g>
		<g>
			<rect x="285.3" y="152.7" class="st6" width="1.5" height="1.5"/>
		</g>
		<g>
			<rect x="285.3" y="154.1" class="st6" width="1.5" height="1.5"/>
		</g>
		<g>
			<rect x="285.3" y="155.4" class="st6" width="1.5" height="1.5"/>
		</g>
		<g>
			<rect x="286.6" y="151.4" class="st6" width="1.5" height="1.5"/>
		</g>
		<g>
			<rect x="286.6" y="152.7" class="st6" width="1.5" height="1.5"/>
		</g>
		<g>
			<rect x="286.6" y="154.1" class="st6" width="1.5" height="1.5"/>
		</g>
		<g>
			<rect x="286.6" y="155.4" class="st6" width="1.5" height="1.5"/>
		</g>
		<g>
			<rect x="288.5" y="150.7" class="st6" width="1.5" height="1.5"/>
		</g>
		<g>
			<rect x="288" y="152.7" class="st6" width="1.5" height="1.5"/>
		</g>
		<g>
			<rect x="288" y="154.1" class="st6" width="1.5" height="1.5"/>
		</g>
		<g>
			<rect x="288" y="155.4" class="st6" width="1.5" height="1.5"/>
		</g>
		<g>
			<rect x="296.7" y="144.1" class="st6" width="1.5" height="1.5"/>
		</g>
		<g>
			<rect x="289.9" y="152.2" class="st6" width="1.5" height="1.5"/>
		</g>
		<g>
			<rect x="289.4" y="154.1" class="st6" width="1.5" height="1.5"/>
		</g>
		<g>
			<rect x="289.4" y="155.4" class="st6" width="1.5" height="1.5"/>
		</g>
		<g>
			<rect x="283.3" y="158.6" class="st6" width="6.4" height="5.6"/>
		</g>
		<g>
			<rect x="283.3" y="164.2" class="st6" width="6.4" height="5.6"/>
		</g>
		<g>
			<rect x="294.3" y="142.3" class="st6" width="1.5" height="1.5"/>
		</g>
		<g>
			<rect x="294.3" y="143.7" class="st6" width="1.5" height="1.5"/>
		</g>
		<g>
			<rect x="294.3" y="145" class="st6" width="1.5" height="1.5"/>
		</g>
		<g>
			<rect x="294.3" y="146.4" class="st6" width="1.5" height="1.5"/>
		</g>
		<g>
			<rect x="301.8" y="133.4" class="st6" width="1.5" height="1.5"/>
		</g>
		<g>
			<rect x="295.6" y="143.7" class="st6" width="1.5" height="1.5"/>
		</g>
		<g>
			<rect x="295.6" y="145" class="st6" width="1.5" height="1.5"/>
		</g>
		<g>
			<rect x="295.6" y="146.4" class="st6" width="1.5" height="1.5"/>
		</g>
		<g>
			<g>
				<g>
					<g>
						<rect id="SVGID_9_" x="300.5" y="141.4" class="st6" width="1.4" height="1"/>
					</g>
					<g>
						<defs>
							<rect id="SVGID_1_" x="300.5" y="141.4" width="1.4" height="1"/>
						</defs>
						<clipPath id="SVGID_2_">
							<use xlink:href="#SVGID_1_"  style="overflow:visible;"/>
						</clipPath>
						<rect x="300.5" y="141.4" class="st7" width="1.4" height="1"/>
					</g>
				</g>
			</g>
		</g>
		<g>
			<rect x="297" y="145" class="st6" width="1.5" height="1.5"/>
		</g>
		<g>
			<rect x="297" y="146.4" class="st6" width="1.5" height="1.5"/>
		</g>
		<g>
			<rect x="306.4" y="139.4" class="st6" width="1.5" height="1.5"/>
		</g>
		<g>
			<rect x="298.3" y="146.4" class="st6" width="1.5" height="1.5"/>
		</g>
		<g>
			<rect x="292.8" y="149.9" class="st6" width="1.5" height="1.5"/>
		</g>
		<g>
			<rect x="292.8" y="151.3" class="st6" width="1.5" height="1.5"/>
		</g>
		<g>
			<rect x="292.8" y="152.7" class="st6" width="1.5" height="1.5"/>
		</g>
		<g>
			<rect x="292.8" y="153.9" class="st6" width="1.5" height="1.5"/>
		</g>
		<g>
			<rect x="295.1" y="148.8" class="st6" width="1.5" height="1.5"/>
		</g>
		<g>
			<rect x="294.2" y="151.3" class="st6" width="1.5" height="1.5"/>
		</g>
		<g>
			<rect x="294.2" y="152.7" class="st6" width="1.5" height="1.5"/>
		</g>
		<g>
			<rect x="294.2" y="153.9" class="st6" width="1.5" height="1.5"/>
		</g>
		<g>
			<rect x="303.6" y="141.3" class="st6" width="1.5" height="1.5"/>
		</g>
		<g>
			<rect x="296.5" y="150.4" class="st6" width="1.5" height="1.5"/>
		</g>
		<g>
			<rect x="295.5" y="152.7" class="st6" width="1.5" height="1.5"/>
		</g>
		<g>
			<rect x="295.5" y="153.9" class="st6" width="1.5" height="1.5"/>
		</g>
		<g>
			<rect x="306.6" y="138.9" class="st6" width="1.5" height="1.5"/>
		</g>
		<g>
			<rect x="304.4" y="144.6" class="st6" width="1.5" height="1.5"/>
		</g>
		<g>
			<rect x="298.2" y="151.9" class="st6" width="1.5" height="1.5"/>
		</g>
		<g>
			<rect x="296.9" y="153.9" class="st6" width="1.5" height="1.5"/>
		</g>
		<g>
			<rect x="291" y="157.1" class="st6" width="1.5" height="1.5"/>
		</g>
		<g>
			<rect x="291" y="158.5" class="st6" width="1.5" height="1.5"/>
		</g>
		<g>
			<rect x="291" y="159.8" class="st6" width="1.5" height="1.5"/>
		</g>
		<g>
			<rect x="291" y="161.2" class="st6" width="1.5" height="1.5"/>
		</g>
		<g>
			<rect x="292.4" y="157.1" class="st6" width="1.5" height="1.5"/>
		</g>
		<g>
			<rect x="292.4" y="158.5" class="st6" width="1.5" height="1.5"/>
		</g>
		<g>
			<rect x="292.4" y="159.8" class="st6" width="1.5" height="1.5"/>
		</g>
		<g>
			<rect x="292.4" y="161.2" class="st6" width="1.5" height="1.5"/>
		</g>
		<g>
			<rect x="294.3" y="156.6" class="st6" width="1.5" height="1.5"/>
		</g>
		<g>
			<rect x="293.8" y="158.5" class="st6" width="1.5" height="1.5"/>
		</g>
		<g>
			<rect x="293.8" y="159.8" class="st6" width="1.5" height="1.5"/>
		</g>
		<g>
			<rect x="293.8" y="161.2" class="st6" width="1.5" height="1.5"/>
		</g>
		<g>
			<rect x="303.6" y="150.8" class="st6" width="1.5" height="1.5"/>
		</g>
		<g>
			<rect x="295.9" y="158.1" class="st6" width="1.5" height="1.5"/>
		</g>
		<g>
			<rect x="295.1" y="159.8" class="st6" width="1.5" height="1.5"/>
		</g>
		<g>
			<rect x="295.1" y="161.2" class="st6" width="1.5" height="1.5"/>
		</g>
		<g>
			<rect x="289.7" y="164.2" class="st6" width="6.4" height="5.6"/>
		</g>
	</g>
</g>
<line class="st0" x1="73.4" y1="72.6" x2="195.5" y2="131.8"/>
<rect x="73" y="141.7" transform="matrix(0.7174 -0.6967 0.6967 0.7174 -77.0668 101.481)" class="st8" width="27.1" height="8"/>
<rect x="96.1" y="130.3" transform="matrix(0.7174 -0.6967 0.6967 0.7174 -65.8235 106.4129)" class="st9" width="4.2" height="8"/>
<polygon class="st9" points="73.4,158.5 74.2,152.2 79.8,157.8 "/>
<path class="st10" d="M72.1,158c0,0-11.9,1.9-12-3.8C60,148.5,75,146,76.6,142.6c1.6-3.3-5.9-2.4-5.9-2.4"/>
<path class="st9" d="M393.9,55.4h-28.4c-1.2,0-2.2-1-2.2-2.2V20.4c0-1.2,1-2.2,2.2-2.2h28.4c1.2,0,2.2,1,2.2,2.2v32.8
	C396,54.4,395.1,55.4,393.9,55.4z"/>
<rect x="366.3" y="21.4" class="st2" width="26.7" height="6.2"/>
<rect x="366.3" y="29.4" class="st8" width="12.4" height="11.5"/>
<rect x="380.6" y="29.4" class="st8" width="12.4" height="11.5"/>
<rect x="366.3" y="42.8" class="st8" width="12.4" height="8.6"/>
<rect x="380.6" y="42.8" class="st8" width="12.4" height="8.6"/>
<g>
	<path class="st11" d="M387.3,33.3v2h1.9v0.5h-1.9v2h-0.6v-2h-1.9v-0.5h1.9v-2H387.3z"/>
</g>
<g>
	<path class="st11" d="M371.8,46.1c0,1-0.5,1.3-1,1.3s-1-0.5-1-1.3s0.5-1.3,1-1.3C371.4,44.9,371.8,45.4,371.8,46.1z M370.2,46.2
		c0,0.6,0.2,1,0.6,1c0.4,0,0.6-0.4,0.6-1s-0.2-1-0.6-1C370.4,45.3,370.2,45.7,370.2,46.2z M370.7,49.4l2.6-4.5h0.4l-2.6,4.5H370.7z
		 M374.6,48c0,1-0.5,1.3-1,1.3c-0.6,0-1-0.5-1-1.3s0.5-1.3,1-1.3C374.2,46.7,374.6,47.2,374.6,48z M373,48.1c0,0.6,0.2,1,0.6,1
		c0.4,0,0.6-0.4,0.6-1c0-0.6-0.2-1-0.6-1C373.2,47,373,47.5,373,48.1z"/>
</g>
<g>
	<path class="st11" d="M385,46.7v-0.5h3.9v0.5H385z M385,48.2v-0.5h3.9v0.5H385z"/>
</g>
<g>
	<path class="st11" d="M374.5,35.9v0.4h-4.3v-0.4H374.5z"/>
</g>
<rect x="24.6" y="46.6" class="st8" width="4.8" height="6.7"/>
<rect x="31.5" y="46.7" class="st9" width="27.8" height="6.2"/>
<rect x="24.6" y="59" class="st8" width="4.8" height="4.8"/>
<rect x="31.5" y="59" class="st9" width="27.8" height="5.2"/>
<rect x="24.6" y="70.5" class="st8" width="4.8" height="5.7"/>
<rect x="31.5" y="70.4" class="st9" width="27.8" height="6.2"/>
<g>
	<path class="st8" d="M146.3,19.1h-24.1c-0.9,0-1.5,0.7-1.5,1.5v7.3l-4.6,5h4.6v3.7c0,0.9,0.7,1.5,1.5,1.5h24.1
		c0.9,0,1.5-0.7,1.5-1.5V20.7C147.8,19.8,147.1,19.1,146.3,19.1z"/>
	<path class="st9" d="M159.5,46.5l-4.5-4.7v-7.3c0-0.9-0.7-1.5-1.5-1.5h-23.4c-0.9,0-1.5,0.7-1.5,1.5v15.9c0,0.9,0.7,1.5,1.5,1.5
		h23.4c0.9,0,1.5-0.7,1.5-1.5v-3.9H159.5z"/>
</g>
<path class="st9" d="M486,85.7h-30.3c-0.4,0-0.7-0.3-0.7-0.7V66.8c0-0.4,0.3-0.7,0.7-0.7H486c0.4,0,0.7,0.3,0.7,0.7V85
	C486.6,85.4,486.3,85.7,486,85.7z"/>
<rect x="455" y="73.8" class="st8" width="31.6" height="2.8"/>
<g>
	<path class="st8" d="M488.5,54.3c-0.5-3.5-5.2-3.9-7.9-3.1c-3.1,1-6.1,3-8.2,5.3c-0.7,0.7-1.2,1.4-1.7,2.2c0,0,0,0.1-0.1,0.1
		c-0.2,0.4-0.7,1.8-1.2,1.8h2.8c4,0,8.2-0.6,12-1.9C486.1,58.1,488.8,56.9,488.5,54.3z M484.5,56.6c-3.8,1.4-8,2.4-12,2.4
		c0,0,5.6-5.3,9.6-5.8c1-0.1,2.3-0.2,3.2,0.4C486.8,54.5,485.9,56.2,484.5,56.6z"/>
</g>
<g>
	<path class="st8" d="M457.3,58.7c3.8,1.3,7.9,1.9,12,1.9h2.8c-0.5,0-1-1.4-1.2-1.8c0,0,0-0.1-0.1-0.1c-0.5-0.8-1.1-1.5-1.7-2.2
		c-2.2-2.4-5.2-4.5-8.2-5.3c-2.6-0.8-7.4-0.5-7.9,3.1C452.6,56.9,455.2,58.1,457.3,58.7z M456.1,53.6c1-0.6,2.2-0.6,3.2-0.4
		c4,0.5,9.6,5.8,9.6,5.8c-4,0-8.3-1-12-2.4C455.6,56.2,454.6,54.5,456.1,53.6z"/>
</g>
<rect x="455" y="67.3" class="st11" width="31.6" height="1"/>
<rect x="469.3" y="67.3" class="st8" width="2.8" height="18.3"/>
<rect x="452.4" y="60.7" class="st9" width="36.7" height="6.7"/>
<rect x="469.3" y="60.7" class="st8" width="2.8" height="6.7"/>
<circle class="st8" cx="451.2" cy="144.4" r="18.7"/>
<circle class="st9" cx="451.2" cy="144.4" r="16.1"/>
<g>
	<g>
		<path class="st2" d="M456.5,139.5c-0.1-0.1-0.3-0.3-0.7-0.5c-0.3-0.2-0.7-0.4-1-0.6c-0.4-0.2-0.9-0.4-1.3-0.6
			c-0.5-0.2-1-0.3-1.5-0.3v4.9l0.7,0.2c1,0.3,1.8,0.6,2.7,0.9c0.8,0.3,1.4,0.7,2,1.1c0.6,0.5,1,1,1.2,1.6c0.3,0.7,0.5,1.4,0.5,2.3
			c0,1-0.2,1.9-0.6,2.7c-0.4,0.8-0.9,1.3-1.5,1.8c-0.7,0.5-1.3,0.9-2.2,1c-0.9,0.2-1.7,0.4-2.6,0.4v3.1h-1.7v-3.1
			c-1.3-0.1-2.6-0.4-3.8-0.9s-2.4-1-3.4-1.7l1.7-3.3c0.2,0.2,0.4,0.4,0.8,0.6c0.4,0.3,0.9,0.5,1.3,0.8c0.6,0.3,1,0.5,1.7,0.7
			c0.7,0.2,1.2,0.4,1.9,0.4v-4.9l-1-0.3c-1-0.3-1.8-0.6-2.5-0.9c-0.7-0.3-1.2-0.7-1.7-1c-0.5-0.4-0.9-1-1-1.4
			c-0.2-0.6-0.4-1.2-0.4-2c0-1,0.2-1.8,0.5-2.6c0.3-0.8,0.8-1.3,1.3-1.9c0.6-0.5,1.2-1,2-1.2c0.8-0.3,1.6-0.5,2.6-0.6v-2.9h1.7v2.9
			c1.2,0.1,2.4,0.4,3.3,0.8c1,0.4,1.9,1,2.8,1.4L456.5,139.5z M447.9,139.8c0,0.7,0.2,1.1,0.7,1.4c0.5,0.3,1.1,0.7,2,0.9v-4.6
			C448.8,137.7,447.9,138.4,447.9,139.8z M454.7,148.9c0-0.7-0.3-1.1-0.8-1.5c-0.6-0.4-1.2-0.7-2.2-1v4.6
			C453.7,150.9,454.7,150.3,454.7,148.9z"/>
	</g>
</g>
</svg>
