<?xml version="1.0" encoding="utf-8"?>
<!-- Generator: Adobe Illustrator 19.1.1, SVG Export Plug-In . SVG Version: 6.00 Build 0)  -->
<svg version="1.1" id="Layer_1" xmlns="http://www.w3.org/2000/svg" xmlns:xlink="http://www.w3.org/1999/xlink" x="0px" y="0px"
	 viewBox="2 164.3 513.3 189.3" style="enable-background:new 2 164.3 513.3 189.3;" xml:space="preserve">
<style type="text/css">
	
		.st0{fill:none;stroke:#D4D4F4;stroke-width:3;stroke-linecap:round;stroke-linejoin:round;stroke-miterlimit:10;stroke-dasharray:1,15;}
	.st1{opacity:0.6;fill:#D4D4F4;}
	.st2{fill:#8787C6;}
	.st3{fill:#4C4277;}
	.st4{fill:#EDF2F9;}
	.st5{opacity:0.6;fill:#8787C6;}
	.st6{fill:#BABAE8;}
	.st7{clip-path:url(#SVGID_10_);fill:#BABAE8;}
	.st8{fill:#FFFFFF;}
	.st9{fill:#D4D4F4;}
	.st10{fill:none;stroke:#FFFFFF;stroke-linecap:round;stroke-miterlimit:10;}
	.st11{fill:#B2B1DD;}
</style>
<line class="st0" x1="360" y1="230" x2="306.2" y2="280.6"/>
<path class="st1" d="M411,222.8h-44.8c-2.2,0-4-1.8-4-4V174c0-2.2,1.8-4,4-4H411c2.2,0,4,1.8,4,4v44.8
	C415,221,413.2,222.8,411,222.8z"/>
<path class="st1" d="M507,256.2h-44.8c-2.2,0-4-1.8-4-4v-44.8c0-2.2,1.8-4,4-4H507c2.2,0,4,1.8,4,4v44.8
	C511,254.4,509.2,256.2,507,256.2z"/>
<path class="st1" d="M486.3,336h-44.8c-2.2,0-4-1.8-4-4v-44.8c0-2.2,1.8-4,4-4h44.8c2.2,0,4,1.8,4,4V332
	C490.4,334.2,488.6,336,486.3,336z"/>
<path class="st1" d="M158.3,222.3h-44.8c-2.2,0-4-1.8-4-4v-44.8c0-2.2,1.8-4,4-4h44.8c2.2,0,4,1.8,4,4v44.8
	C162.4,220.5,160.6,222.3,158.3,222.3z"/>
<path class="st1" d="M98.1,336.6H53.3c-2.2,0-4-1.8-4-4v-44.8c0-2.2,1.8-4,4-4h44.8c2.2,0,4,1.8,4,4v44.8
	C102.1,334.8,100.3,336.6,98.1,336.6z"/>
<path class="st1" d="M57,249.3H12.2c-2.2,0-4-1.8-4-4v-44.8c0-2.2,1.8-4,4-4H57c2.2,0,4,1.8,4,4v44.8C61,247.5,59.2,249.3,57,249.3z
	"/>
<line class="st0" x1="183.5" y1="315" x2="107.4" y2="314.6"/>
<line class="st0" x1="150" y1="228.3" x2="222.8" y2="294.1"/>
<path class="st2" d="M408.9,220.6h-44.8c-2.2,0-4-1.8-4-4v-44.8c0-2.2,1.8-4,4-4h44.8c2.2,0,4,1.8,4,4v44.8
	C412.9,218.8,411.1,220.6,408.9,220.6z"/>
<path class="st2" d="M504.8,254.1H460c-2.2,0-4-1.8-4-4v-44.8c0-2.2,1.8-4,4-4h44.8c2.2,0,4,1.8,4,4V250
	C508.8,252.3,507,254.1,504.8,254.1z"/>
<path class="st2" d="M484.2,333.9h-44.8c-2.2,0-4-1.8-4-4v-44.8c0-2.2,1.8-4,4-4h44.8c2.2,0,4,1.8,4,4v44.8
	C488.2,332.1,486.4,333.9,484.2,333.9z"/>
<line class="st0" x1="428.5" y1="315" x2="357.3" y2="314.6"/>
<line class="st0" x1="445.7" y1="235.1" x2="352.3" y2="294.5"/>
<path class="st2" d="M156.2,220.2h-44.8c-2.2,0-4-1.8-4-4v-44.8c0-2.2,1.8-4,4-4h44.8c2.2,0,4,1.8,4,4v44.8
	C160.2,218.4,158.4,220.2,156.2,220.2z"/>
<path class="st2" d="M95.9,334.5H51.1c-2.2,0-4-1.8-4-4v-44.8c0-2.2,1.8-4,4-4h44.8c2.2,0,4,1.8,4,4v44.8
	C99.9,332.7,98.1,334.5,95.9,334.5z"/>
<path class="st2" d="M54.8,247.1H10c-2.2,0-4-1.8-4-4v-44.8c0-2.2,1.8-4,4-4h44.8c2.2,0,4,1.8,4,4v44.8
	C58.8,245.3,57,247.1,54.8,247.1z"/>
<ellipse class="st3" cx="238.4" cy="234.7" rx="48.2" ry="50"/>
<g>
	<path class="st3" d="M307.4,352.4c0-26.2-12.6-68-47.4-68h-41.8c-35.2,0-48.1,42.2-48.1,68.7v0.4h137.3V352.4z"/>
</g>
<g>
	<path class="st4" d="M263,249.3c-2.6,7.5-12.1,13-23.4,13c-11.3,0-20.8-5.5-23.4-13c-0.9,1.8-1.4,3.8-1.4,5.8
		c0,9.7,11.1,17.6,24.8,17.6c13.7,0,24.8-7.9,24.8-17.6C264.4,253.1,263.9,251.1,263,249.3z"/>
</g>
<ellipse class="st3" cx="239" cy="249.9" rx="27.3" ry="12.4"/>
<rect x="243.6" y="279.1" class="st2" width="107.9" height="75.4"/>
<rect x="218.8" y="343.4" class="st5" width="89.5" height="10"/>
<g>
	<g>
		<g>
			<g>
				<g>
					<defs>
						<rect id="SVGID_1_" x="316.5" y="293.6" width="1.7" height="1.2"/>
					</defs>
					<clipPath id="SVGID_2_">
						<use xlink:href="#SVGID_1_"  style="overflow:visible;"/>
					</clipPath>
				</g>
			</g>
			<g>
				<g>
					<defs>
						<rect id="SVGID_3_" x="316.5" y="293.6" width="1.7" height="1.2"/>
					</defs>
					<clipPath id="SVGID_4_">
						<use xlink:href="#SVGID_3_"  style="overflow:visible;"/>
					</clipPath>
				</g>
			</g>
			<g>
				<g>
					<defs>
						<rect id="SVGID_5_" x="316.5" y="293.6" width="1.7" height="1.2"/>
					</defs>
					<clipPath id="SVGID_6_">
						<use xlink:href="#SVGID_5_"  style="overflow:visible;"/>
					</clipPath>
				</g>
			</g>
		</g>
	</g>
	<g>
		<g>
			<rect x="282" y="301" class="st6" width="7" height="8"/>
		</g>
		<g>
			<rect x="282" y="308" class="st6" width="7" height="8"/>
		</g>
		<g>
			<rect x="282" y="315" class="st6" width="7" height="7"/>
		</g>
		<g>
			<rect x="282" y="322" class="st6" width="7" height="7"/>
		</g>
		<g>
			<rect x="290.3" y="298.8" class="st6" width="1.9" height="1.9"/>
		</g>
		<g>
			<rect x="290.3" y="300.5" class="st6" width="1.9" height="1.9"/>
		</g>
		<g>
			<rect x="290.3" y="302.2" class="st6" width="1.9" height="1.9"/>
		</g>
		<g>
			<rect x="290.3" y="303.8" class="st6" width="1.9" height="1.9"/>
		</g>
		<g>
			<rect x="292" y="298.8" class="st6" width="1.9" height="1.9"/>
		</g>
		<g>
			<rect x="292" y="300.5" class="st6" width="1.9" height="1.9"/>
		</g>
		<g>
			<rect x="292" y="302.2" class="st6" width="1.9" height="1.9"/>
		</g>
		<g>
			<rect x="292" y="303.8" class="st6" width="1.9" height="1.9"/>
		</g>
		<g>
			<rect x="294.2" y="297.9" class="st6" width="1.9" height="1.9"/>
		</g>
		<g>
			<rect x="293.7" y="300.5" class="st6" width="1.9" height="1.9"/>
		</g>
		<g>
			<rect x="293.7" y="302.2" class="st6" width="1.9" height="1.9"/>
		</g>
		<g>
			<rect x="293.7" y="303.8" class="st6" width="1.9" height="1.9"/>
		</g>
		<g>
			<rect x="303.3" y="288.4" class="st6" width="1.9" height="1.9"/>
		</g>
		<g>
			<rect x="296" y="299.7" class="st6" width="1.9" height="1.9"/>
		</g>
		<g>
			<rect x="295.4" y="302.2" class="st6" width="1.9" height="1.9"/>
		</g>
		<g>
			<rect x="295.4" y="303.8" class="st6" width="1.9" height="1.9"/>
		</g>
		<g>
			<rect x="289" y="308" class="st6" width="7" height="8"/>
		</g>
		<g>
			<rect x="289" y="315" class="st6" width="7" height="7"/>
		</g>
		<g>
			<rect x="289" y="322" class="st6" width="7" height="7"/>
		</g>
		<g>
			<rect x="299.3" y="296.5" class="st6" width="1.9" height="1.9"/>
		</g>
		<g>
			<rect x="299.3" y="298.2" class="st6" width="1.9" height="1.9"/>
		</g>
		<g>
			<rect x="299.3" y="299.9" class="st6" width="1.9" height="1.9"/>
		</g>
		<g>
			<rect x="299.3" y="301.6" class="st6" width="1.9" height="1.9"/>
		</g>
		<g>
			<rect x="301.8" y="295" class="st6" width="1.9" height="1.9"/>
		</g>
		<g>
			<rect x="301" y="298.2" class="st6" width="1.9" height="1.9"/>
		</g>
		<g>
			<rect x="301" y="299.9" class="st6" width="1.9" height="1.9"/>
		</g>
		<g>
			<rect x="301" y="301.6" class="st6" width="1.9" height="1.9"/>
		</g>
		<g>
			<rect x="311.3" y="284.9" class="st6" width="1.9" height="1.9"/>
		</g>
		<g>
			<rect x="303.8" y="297" class="st6" width="1.9" height="1.9"/>
		</g>
		<g>
			<rect x="302.7" y="299.9" class="st6" width="1.9" height="1.9"/>
		</g>
		<g>
			<rect x="302.7" y="301.6" class="st6" width="1.9" height="1.9"/>
		</g>
		<g>
			<rect x="319" y="284.9" class="st6" width="1.9" height="1.9"/>
		</g>
		<g>
			<rect x="314.8" y="288.8" class="st6" width="1.9" height="1.9"/>
		</g>
		<g>
			<rect x="305.7" y="298.9" class="st6" width="1.9" height="1.9"/>
		</g>
		<g>
			<rect x="304.4" y="301.6" class="st6" width="1.9" height="1.9"/>
		</g>
		<g>
			<rect x="297.5" y="306" class="st6" width="1.9" height="1.9"/>
		</g>
		<g>
			<rect x="297.5" y="307.7" class="st6" width="1.9" height="1.9"/>
		</g>
		<g>
			<rect x="297.5" y="309.4" class="st6" width="1.9" height="1.9"/>
		</g>
		<g>
			<rect x="297.5" y="311" class="st6" width="1.9" height="1.9"/>
		</g>
		<g>
			<rect x="299.2" y="306" class="st6" width="1.9" height="1.9"/>
		</g>
		<g>
			<rect x="299.2" y="307.7" class="st6" width="1.9" height="1.9"/>
		</g>
		<g>
			<rect x="299.2" y="309.4" class="st6" width="1.9" height="1.9"/>
		</g>
		<g>
			<rect x="299.2" y="311" class="st6" width="1.9" height="1.9"/>
		</g>
		<g>
			<rect x="301.5" y="305.2" class="st6" width="1.9" height="1.9"/>
		</g>
		<g>
			<rect x="300.9" y="307.7" class="st6" width="1.9" height="1.9"/>
		</g>
		<g>
			<rect x="300.9" y="309.4" class="st6" width="1.9" height="1.9"/>
		</g>
		<g>
			<rect x="300.9" y="311" class="st6" width="1.9" height="1.9"/>
		</g>
		<g>
			<rect x="311.7" y="296.9" class="st6" width="1.9" height="1.9"/>
		</g>
		<g>
			<rect x="303.3" y="307" class="st6" width="1.9" height="1.9"/>
		</g>
		<g>
			<rect x="302.6" y="309.4" class="st6" width="1.9" height="1.9"/>
		</g>
		<g>
			<rect x="302.6" y="311" class="st6" width="1.9" height="1.9"/>
		</g>
		<g>
			<rect x="295" y="315" class="st6" width="8" height="7"/>
		</g>
		<g>
			<rect x="295" y="322" class="st6" width="8" height="7"/>
		</g>
		<g>
			<rect x="308.7" y="294.7" class="st6" width="1.9" height="1.9"/>
		</g>
		<g>
			<rect x="308.7" y="296.4" class="st6" width="1.9" height="1.9"/>
		</g>
		<g>
			<rect x="308.7" y="298.1" class="st6" width="1.9" height="1.9"/>
		</g>
		<g>
			<rect x="308.7" y="299.8" class="st6" width="1.9" height="1.9"/>
		</g>
		<g>
			<rect x="318.1" y="283.6" class="st6" width="1.9" height="1.9"/>
		</g>
		<g>
			<rect x="310.4" y="296.4" class="st6" width="1.9" height="1.9"/>
		</g>
		<g>
			<rect x="310.4" y="298.1" class="st6" width="1.9" height="1.9"/>
		</g>
		<g>
			<rect x="310.4" y="299.8" class="st6" width="1.9" height="1.9"/>
		</g>
		<g>
			<g>
				<g>
					<defs>
						<rect id="SVGID_7_" x="316.5" y="293.6" width="1.7" height="1.2"/>
					</defs>
					<clipPath id="SVGID_8_">
						<use xlink:href="#SVGID_7_"  style="overflow:visible;"/>
					</clipPath>
				</g>
			</g>
			<g>
				<g>
					<defs>
						<rect id="SVGID_9_" x="316.5" y="293.6" width="1.7" height="1.2"/>
					</defs>
					<use xlink:href="#SVGID_9_"  style="overflow:visible;fill:#BABAE8;"/>
					<clipPath id="SVGID_10_">
						<use xlink:href="#SVGID_9_"  style="overflow:visible;"/>
					</clipPath>
					<rect x="316.5" y="293.6" class="st7" width="1.7" height="1.2"/>
				</g>
			</g>
			<g>
				<g>
					<defs>
						<rect id="SVGID_11_" x="316.5" y="293.6" width="1.7" height="1.2"/>
					</defs>
					<clipPath id="SVGID_12_">
						<use xlink:href="#SVGID_11_"  style="overflow:visible;"/>
					</clipPath>
				</g>
			</g>
		</g>
		<g>
			<rect x="312.1" y="298.1" class="st6" width="1.9" height="1.9"/>
		</g>
		<g>
			<rect x="312.1" y="299.8" class="st6" width="1.9" height="1.9"/>
		</g>
		<g>
			<rect x="323.9" y="291.1" class="st6" width="1.9" height="1.9"/>
		</g>
		<g>
			<rect x="313.8" y="299.8" class="st6" width="1.9" height="1.9"/>
		</g>
		<g>
			<rect x="306.9" y="304.2" class="st6" width="1.9" height="1.9"/>
		</g>
		<g>
			<rect x="306.9" y="305.9" class="st6" width="1.9" height="1.9"/>
		</g>
		<g>
			<rect x="306.9" y="307.6" class="st6" width="1.9" height="1.9"/>
		</g>
		<g>
			<rect x="306.9" y="309.2" class="st6" width="1.9" height="1.9"/>
		</g>
		<g>
			<rect x="309.7" y="302.8" class="st6" width="1.9" height="1.9"/>
		</g>
		<g>
			<rect x="308.6" y="305.9" class="st6" width="1.9" height="1.9"/>
		</g>
		<g>
			<rect x="308.6" y="307.6" class="st6" width="1.9" height="1.9"/>
		</g>
		<g>
			<rect x="308.6" y="309.2" class="st6" width="1.9" height="1.9"/>
		</g>
		<g>
			<rect x="320.4" y="293.5" class="st6" width="1.9" height="1.9"/>
		</g>
		<g>
			<rect x="311.5" y="304.8" class="st6" width="1.9" height="1.9"/>
		</g>
		<g>
			<rect x="310.3" y="307.6" class="st6" width="1.9" height="1.9"/>
		</g>
		<g>
			<rect x="310.3" y="309.2" class="st6" width="1.9" height="1.9"/>
		</g>
		<g>
			<rect x="324.1" y="290.4" class="st6" width="1.9" height="1.9"/>
		</g>
		<g>
			<rect x="321.4" y="297.5" class="st6" width="1.9" height="1.9"/>
		</g>
		<g>
			<rect x="313.6" y="306.7" class="st6" width="1.9" height="1.9"/>
		</g>
		<g>
			<rect x="312" y="309.2" class="st6" width="1.9" height="1.9"/>
		</g>
		<g>
			<rect x="304.7" y="313.2" class="st6" width="1.9" height="1.9"/>
		</g>
		<g>
			<rect x="304.7" y="314.9" class="st6" width="1.9" height="1.9"/>
		</g>
		<g>
			<rect x="304.7" y="316.5" class="st6" width="1.9" height="1.9"/>
		</g>
		<g>
			<rect x="304.7" y="318.2" class="st6" width="1.9" height="1.9"/>
		</g>
		<g>
			<rect x="306.4" y="313.2" class="st6" width="1.9" height="1.9"/>
		</g>
		<g>
			<rect x="306.4" y="314.9" class="st6" width="1.9" height="1.9"/>
		</g>
		<g>
			<rect x="306.4" y="316.5" class="st6" width="1.9" height="1.9"/>
		</g>
		<g>
			<rect x="306.4" y="318.2" class="st6" width="1.9" height="1.9"/>
		</g>
		<g>
			<rect x="308.8" y="312.5" class="st6" width="1.9" height="1.9"/>
		</g>
		<g>
			<rect x="308.1" y="314.9" class="st6" width="1.9" height="1.9"/>
		</g>
		<g>
			<rect x="308.1" y="316.5" class="st6" width="1.9" height="1.9"/>
		</g>
		<g>
			<rect x="308.1" y="318.2" class="st6" width="1.9" height="1.9"/>
		</g>
		<g>
			<rect x="320.3" y="305.3" class="st6" width="1.9" height="1.9"/>
		</g>
		<g>
			<rect x="310.7" y="314.4" class="st6" width="1.9" height="1.9"/>
		</g>
		<g>
			<rect x="309.7" y="316.5" class="st6" width="1.9" height="1.9"/>
		</g>
		<g>
			<rect x="309.7" y="318.2" class="st6" width="1.9" height="1.9"/>
		</g>
		<g>
			<rect x="303" y="322" class="st6" width="8" height="7"/>
		</g>
	</g>
	<g>
		<g>
			<g>
				<g>
					<defs>
						<rect id="SVGID_13_" x="316.5" y="293.6" width="1.7" height="1.2"/>
					</defs>
					<clipPath id="SVGID_14_">
						<use xlink:href="#SVGID_13_"  style="overflow:visible;"/>
					</clipPath>
				</g>
			</g>
			<g>
				<g>
					<defs>
						<rect id="SVGID_15_" x="316.5" y="293.6" width="1.7" height="1.2"/>
					</defs>
					<clipPath id="SVGID_16_">
						<use xlink:href="#SVGID_15_"  style="overflow:visible;"/>
					</clipPath>
				</g>
			</g>
			<g>
				<g>
					<defs>
						<rect id="SVGID_17_" x="316.5" y="293.6" width="1.7" height="1.2"/>
					</defs>
					<clipPath id="SVGID_18_">
						<use xlink:href="#SVGID_17_"  style="overflow:visible;"/>
					</clipPath>
				</g>
			</g>
		</g>
	</g>
</g>
<line class="st0" x1="66.1" y1="232.2" x2="194.1" y2="294.2"/>
<rect x="75.7" y="294.6" transform="matrix(0.6967 0.7174 -0.7174 0.6967 245.7824 36.379)" class="st8" width="8.4" height="28.4"/>
<rect x="88" y="294.7" transform="matrix(0.6967 0.7174 -0.7174 0.6967 240.9352 23.9097)" class="st9" width="8.4" height="4.4"/>
<polygon class="st9" points="66.1,322.2 67,315.6 72.8,321.5 "/>
<path class="st10" d="M64.8,321.7c0,0-12.5,2-12.6-4s15.6-8.6,17.3-12.1s-6.2-2.5-6.2-2.5"/>
<path class="st9" d="M401.9,214.2h-29.8c-1.3,0-2.3-1-2.3-2.3v-34.4c0-1.3,1-2.3,2.3-2.3h29.8c1.3,0,2.3,1,2.3,2.3v34.4
	C404.2,213.1,403.2,214.2,401.9,214.2z"/>
<rect x="373" y="178.6" class="st2" width="28" height="6.5"/>
<rect x="373" y="187" class="st8" width="13" height="12"/>
<rect x="388" y="187" class="st8" width="13" height="12"/>
<rect x="373" y="201" class="st8" width="13" height="9"/>
<rect x="388" y="201" class="st8" width="13" height="9"/>
<g>
	<path class="st11" d="M395,191v2.1h2v0.5h-2v2.1h-0.6v-2.1h-2v-0.5h2V191H395z"/>
</g>
<g>
	<path class="st11" d="M378.8,204.5c0,1-0.5,1.4-1.1,1.4c-0.6,0-1.1-0.5-1.1-1.4c0-0.9,0.5-1.4,1.1-1.4
		C378.4,203.2,378.8,203.7,378.8,204.5z M377.1,204.6c0,0.6,0.2,1,0.6,1c0.4,0,0.6-0.4,0.6-1c0-0.6-0.2-1-0.6-1
		C377.3,203.6,377.1,204,377.1,204.6z M377.6,207.9l2.7-4.7h0.4l-2.7,4.7H377.6z M381.7,206.4c0,1-0.5,1.4-1.1,1.4
		c-0.6,0-1.1-0.5-1.1-1.4c0-0.9,0.5-1.4,1.1-1.4C381.3,205.1,381.7,205.6,381.7,206.4z M380.1,206.5c0,0.6,0.2,1,0.6,1
		c0.4,0,0.6-0.4,0.6-1c0-0.6-0.2-1-0.6-1C380.3,205.4,380.1,205.9,380.1,206.5z"/>
</g>
<g>
	<path class="st11" d="M392.6,205.1v-0.5h4.1v0.5H392.6z M392.6,206.7v-0.5h4.1v0.5H392.6z"/>
</g>
<g>
	<path class="st11" d="M381.6,193.8v0.4h-4.5v-0.4H381.6z"/>
</g>
<rect x="15" y="205" class="st8" width="5" height="7"/>
<rect x="22.2" y="205.1" class="st9" width="29.1" height="6.5"/>
<rect x="15" y="218" class="st8" width="5" height="5"/>
<rect x="22.2" y="218" class="st9" width="29.1" height="5.4"/>
<rect x="15" y="230" class="st8" width="5" height="6"/>
<rect x="22.2" y="229.9" class="st9" width="29.1" height="6.5"/>
<g>
	<path class="st8" d="M142.5,176.2h-25.2c-0.9,0-1.6,0.7-1.6,1.6v7.6l-4.8,5.2h4.8v3.9c0,0.9,0.7,1.6,1.6,1.6h25.2
		c0.9,0,1.6-0.7,1.6-1.6v-16.7C144.1,176.9,143.4,176.2,142.5,176.2z"/>
	<path class="st9" d="M156.4,204.9l-4.7-4.9v-7.7c0-0.9-0.7-1.6-1.6-1.6h-24.5c-0.9,0-1.6,0.7-1.6,1.6V209c0,0.9,0.7,1.6,1.6,1.6
		h24.5c0.9,0,1.6-0.7,1.6-1.6v-4.1H156.4z"/>
</g>
<path class="st9" d="M498.4,245.9h-31.7c-0.4,0-0.7-0.3-0.7-0.7v-19.1c0-0.4,0.3-0.7,0.7-0.7h31.7c0.4,0,0.7,0.3,0.7,0.7v19.1
	C499.1,245.6,498.8,245.9,498.4,245.9z"/>
<rect x="466" y="233.5" class="st8" width="33.1" height="2.9"/>
<g>
	<path class="st8" d="M501.1,213c-0.5-3.7-5.5-4.1-8.3-3.2c-3.3,1-6.4,3.1-8.6,5.6c-0.7,0.7-1.3,1.5-1.8,2.3c0,0,0,0.1-0.1,0.1
		c-0.2,0.4-0.7,1.9-1.3,1.9h2.9c4.2,0,8.6-0.6,12.6-2C498.6,217,501.4,215.8,501.1,213z M496.9,215.5c-4,1.5-8.4,2.5-12.6,2.5
		c0,0,5.9-5.6,10.1-6.1c1.1-0.1,2.4-0.2,3.4,0.4C499.3,213.3,498.3,215,496.9,215.5z"/>
</g>
<g>
	<path class="st8" d="M468.4,217.7c4,1.4,8.3,2,12.6,2c0,0,2.9,0,2.9,0c-0.5,0-1-1.5-1.3-1.9c0,0,0-0.1-0.1-0.1
		c-0.5-0.8-1.2-1.6-1.8-2.3c-2.3-2.5-5.4-4.7-8.6-5.6c-2.7-0.8-7.8-0.5-8.3,3.2C463.4,215.8,466.2,217,468.4,217.7z M467.1,212.3
		c1-0.6,2.3-0.6,3.4-0.4c4.2,0.5,10.1,6.1,10.1,6.1c-4.2,0-8.7-1-12.6-2.5C466.6,215,465.5,213.3,467.1,212.3z"/>
</g>
<rect x="466" y="226.7" class="st11" width="33.1" height="1"/>
<rect x="481" y="226.7" class="st8" width="2.9" height="19.2"/>
<rect x="463.2" y="219.7" class="st9" width="38.5" height="7"/>
<rect x="481" y="219.7" class="st8" width="2.9" height="7"/>
<circle class="st8" cx="462" cy="307.4" r="19.6"/>
<circle class="st9" cx="462" cy="307.4" r="16.9"/>
<g>
	<g>
		<path class="st2" d="M467.5,302.3c-0.1-0.1-0.3-0.3-0.7-0.5c-0.3-0.2-0.7-0.4-1.1-0.6s-0.9-0.4-1.4-0.6c-0.5-0.2-1.1-0.3-1.6-0.3
			v5.1l0.7,0.2c1,0.3,1.9,0.6,2.8,0.9c0.8,0.3,1.5,0.7,2.1,1.2c0.6,0.5,1,1.1,1.3,1.7c0.3,0.7,0.5,1.5,0.5,2.4c0,1.1-0.2,2-0.6,2.8
			s-0.9,1.4-1.6,1.9c-0.7,0.5-1.4,0.9-2.3,1.1c-0.9,0.2-1.8,0.4-2.7,0.4v3.3h-1.8V318c-1.4-0.1-2.7-0.4-4-0.9
			c-1.3-0.5-2.5-1.1-3.6-1.8l1.8-3.5c0.2,0.2,0.4,0.4,0.8,0.6c0.4,0.3,0.9,0.5,1.4,0.8c0.6,0.3,1.1,0.5,1.8,0.7s1.3,0.4,2,0.4v-5.1
			l-1.1-0.3c-1-0.3-1.9-0.6-2.6-0.9c-0.7-0.3-1.3-0.7-1.8-1.1c-0.5-0.4-0.9-1-1.1-1.5c-0.2-0.6-0.4-1.3-0.4-2.1c0-1,0.2-1.9,0.5-2.7
			c0.3-0.8,0.8-1.4,1.4-2c0.6-0.5,1.3-1,2.1-1.3c0.8-0.3,1.7-0.5,2.7-0.6v-3h1.8v3c1.3,0.1,2.5,0.4,3.5,0.8c1.1,0.4,2,1,2.9,1.5
			L467.5,302.3z M458.5,302.6c0,0.7,0.2,1.2,0.7,1.5c0.5,0.3,1.2,0.7,2.1,0.9v-4.8C459.5,300.4,458.5,301.2,458.5,302.6z
			 M465.7,312.2c0-0.7-0.3-1.2-0.8-1.6c-0.6-0.4-1.3-0.7-2.3-1v4.8C464.6,314.3,465.7,313.6,465.7,312.2z"/>
	</g>
</g>
</svg>
