<?xml version="1.0" encoding="utf-8"?>
<!-- Generator: Adobe Illustrator 19.2.0, SVG Export Plug-In . SVG Version: 6.00 Build 0)  -->
<svg version="1.1" id="Layer_1" xmlns="http://www.w3.org/2000/svg" xmlns:xlink="http://www.w3.org/1999/xlink" x="0px" y="0px"
	 viewBox="0 0 460 152.7" style="enable-background:new 0 0 460 152.7;" xml:space="preserve">
<style type="text/css">
	.st0{fill:#7772AF;}
	.st1{fill:#9B9BD3;}
	.st2{clip-path:url(#SVGID_2_);fill:#9B9BD3;}
</style>
<g>
	<polygon class="st0" points="128,80.4 4.9,80.4 66.5,36.5 	"/>
	<g>
		<polygon class="st0" points="27,72.9 27,125.4 54.9,125.4 54.9,93.3 77.8,93.3 77.8,125.4 105,125.4 105,72.9 		"/>
	</g>
</g>
<g>
	<rect x="181.8" y="57" class="st1" width="18.3" height="18.3"/>
	<rect x="181.8" y="73.7" class="st1" width="18.3" height="18.3"/>
	<rect x="181.8" y="90.5" class="st1" width="18.3" height="18.3"/>
	<rect x="181.8" y="107.1" class="st1" width="18.3" height="18.3"/>
	<rect x="202.8" y="50.4" class="st1" width="4.6" height="4.6"/>
	<rect x="202.8" y="54.5" class="st1" width="4.6" height="4.6"/>
	<rect x="202.8" y="58.7" class="st1" width="4.6" height="4.6"/>
	<rect x="202.8" y="63" class="st1" width="4.6" height="4.6"/>
	<rect x="207.1" y="50.4" class="st1" width="4.6" height="4.6"/>
	<rect x="207.1" y="54.5" class="st1" width="4.6" height="4.6"/>
	<rect x="207.1" y="58.7" class="st1" width="4.6" height="4.6"/>
	<rect x="207.1" y="63" class="st1" width="4.6" height="4.6"/>
	<rect x="212.4" y="48.1" class="st1" width="4.6" height="4.6"/>
	<rect x="211.3" y="54.5" class="st1" width="4.6" height="4.6"/>
	<rect x="211.3" y="58.7" class="st1" width="4.6" height="4.6"/>
	<rect x="211.3" y="63" class="st1" width="4.6" height="4.6"/>
	<rect x="235.2" y="24.8" class="st1" width="4.6" height="4.6"/>
	<rect x="217" y="52.7" class="st1" width="4.6" height="4.6"/>
	<rect x="215.4" y="58.7" class="st1" width="4.6" height="4.6"/>
	<rect x="215.4" y="63" class="st1" width="4.6" height="4.6"/>
	<rect x="198.6" y="73.7" class="st1" width="18.3" height="18.3"/>
	<rect x="198.6" y="90.5" class="st1" width="18.3" height="18.3"/>
	<rect x="198.6" y="107.1" class="st1" width="18.3" height="18.3"/>
	<rect x="225.2" y="44.8" class="st1" width="4.6" height="4.6"/>
	<rect x="225.2" y="49" class="st1" width="4.6" height="4.6"/>
	<rect x="225.2" y="53.1" class="st1" width="4.6" height="4.6"/>
	<rect x="225.2" y="57.4" class="st1" width="4.6" height="4.6"/>
	<rect x="231.3" y="40.9" class="st1" width="4.6" height="4.6"/>
	<rect x="229.3" y="49" class="st1" width="4.6" height="4.6"/>
	<rect x="229.3" y="53.1" class="st1" width="4.6" height="4.6"/>
	<rect x="229.3" y="57.4" class="st1" width="4.6" height="4.6"/>
	<rect x="254.8" y="16" class="st1" width="4.6" height="4.6"/>
	<rect x="236.3" y="46" class="st1" width="4.6" height="4.6"/>
	<rect x="233.5" y="53.1" class="st1" width="4.6" height="4.6"/>
	<rect x="233.5" y="57.4" class="st1" width="4.6" height="4.6"/>
	<rect x="274.1" y="16" class="st1" width="4.6" height="4.6"/>
	<rect x="263.5" y="25.5" class="st1" width="4.6" height="4.6"/>
	<rect x="241.1" y="50.8" class="st1" width="4.6" height="4.6"/>
	<rect x="237.8" y="57.4" class="st1" width="4.6" height="4.6"/>
	<rect x="220.7" y="68.1" class="st1" width="4.6" height="4.6"/>
	<rect x="220.7" y="72.4" class="st1" width="4.6" height="4.6"/>
	<rect x="220.7" y="76.6" class="st1" width="4.6" height="4.6"/>
	<rect x="220.7" y="80.7" class="st1" width="4.6" height="4.6"/>
	<rect x="224.9" y="68.1" class="st1" width="4.6" height="4.6"/>
	<rect x="224.9" y="72.4" class="st1" width="4.6" height="4.6"/>
	<rect x="224.9" y="76.6" class="st1" width="4.6" height="4.6"/>
	<rect x="224.9" y="80.7" class="st1" width="4.6" height="4.6"/>
	<rect x="230.6" y="66.3" class="st1" width="4.6" height="4.6"/>
	<rect x="229" y="72.4" class="st1" width="4.6" height="4.6"/>
	<rect x="229" y="76.6" class="st1" width="4.6" height="4.6"/>
	<rect x="229" y="80.7" class="st1" width="4.6" height="4.6"/>
	<rect x="255.9" y="45.8" class="st1" width="4.6" height="4.6"/>
	<rect x="235.2" y="70.9" class="st1" width="4.6" height="4.6"/>
	<rect x="233.2" y="76.6" class="st1" width="4.6" height="4.6"/>
	<rect x="233.2" y="80.7" class="st1" width="4.6" height="4.6"/>
	<rect x="215.2" y="90.5" class="st1" width="18.3" height="18.3"/>
	<rect x="215.2" y="107.1" class="st1" width="18.3" height="18.3"/>
	<rect x="248.5" y="40.4" class="st1" width="4.6" height="4.6"/>
	<rect x="248.5" y="44.5" class="st1" width="4.6" height="4.6"/>
	<rect x="248.5" y="48.7" class="st1" width="4.6" height="4.6"/>
	<rect x="248.5" y="52.8" class="st1" width="4.6" height="4.6"/>
	<rect x="271.5" y="12.8" class="st1" width="4.6" height="4.6"/>
	<rect x="252.8" y="44.5" class="st1" width="4.6" height="4.6"/>
	<rect x="252.8" y="48.7" class="st1" width="4.6" height="4.6"/>
	<rect x="252.8" y="52.8" class="st1" width="4.6" height="4.6"/>
	<g>
		<g>
			<g>
				<g>
					<rect id="SVGID_3_" x="267.7" y="37.7" class="st1" width="4.3" height="2.9"/>
				</g>
				<g>
					<g>
						<defs>
							<rect id="SVGID_1_" x="267.7" y="37.7" width="4.3" height="2.9"/>
						</defs>
						<use xlink:href="#SVGID_1_"  style="overflow:visible;fill:#9B9BD3;"/>
						<clipPath id="SVGID_2_">
							<use xlink:href="#SVGID_1_"  style="overflow:visible;"/>
						</clipPath>
						<rect x="267.7" y="37.7" class="st2" width="4.3" height="2.9"/>
					</g>
				</g>
			</g>
		</g>
	</g>
	<rect x="256.9" y="48.7" class="st1" width="4.6" height="4.6"/>
	<rect x="256.9" y="52.8" class="st1" width="4.6" height="4.6"/>
	<rect x="286" y="31.4" class="st1" width="4.6" height="4.6"/>
	<rect x="261.1" y="52.8" class="st1" width="4.6" height="4.6"/>
	<rect x="244.1" y="63.7" class="st1" width="4.6" height="4.6"/>
	<rect x="244.1" y="67.9" class="st1" width="4.6" height="4.6"/>
	<rect x="244.1" y="72.1" class="st1" width="4.6" height="4.6"/>
	<rect x="244.1" y="76.3" class="st1" width="4.6" height="4.6"/>
	<rect x="250.8" y="60.4" class="st1" width="4.6" height="4.6"/>
	<rect x="248.2" y="67.9" class="st1" width="4.6" height="4.6"/>
	<rect x="248.2" y="72.1" class="st1" width="4.6" height="4.6"/>
	<rect x="248.2" y="76.3" class="st1" width="4.6" height="4.6"/>
	<rect x="277.4" y="37.2" class="st1" width="4.6" height="4.6"/>
	<rect x="255.5" y="65.1" class="st1" width="4.6" height="4.6"/>
	<rect x="252.5" y="72.1" class="st1" width="4.6" height="4.6"/>
	<rect x="252.5" y="76.3" class="st1" width="4.6" height="4.6"/>
	<rect x="286.6" y="29.5" class="st1" width="4.6" height="4.6"/>
	<rect x="279.8" y="47.2" class="st1" width="4.6" height="4.6"/>
	<rect x="260.5" y="70.1" class="st1" width="4.6" height="4.6"/>
	<rect x="256.7" y="76.3" class="st1" width="4.6" height="4.6"/>
	<rect x="238.5" y="86" class="st1" width="4.6" height="4.6"/>
	<rect x="238.5" y="90.2" class="st1" width="4.6" height="4.6"/>
	<rect x="238.5" y="94.3" class="st1" width="4.6" height="4.6"/>
	<rect x="238.5" y="98.5" class="st1" width="4.6" height="4.6"/>
	<rect x="242.6" y="86" class="st1" width="4.6" height="4.6"/>
	<rect x="242.6" y="90.2" class="st1" width="4.6" height="4.6"/>
	<rect x="242.6" y="94.3" class="st1" width="4.6" height="4.6"/>
	<rect x="242.6" y="98.5" class="st1" width="4.6" height="4.6"/>
	<rect x="248.8" y="84.3" class="st1" width="4.6" height="4.6"/>
	<rect x="246.9" y="90.2" class="st1" width="4.6" height="4.6"/>
	<rect x="246.9" y="94.3" class="st1" width="4.6" height="4.6"/>
	<rect x="246.9" y="98.5" class="st1" width="4.6" height="4.6"/>
	<rect x="277.1" y="66.4" class="st1" width="4.6" height="4.6"/>
	<rect x="253.4" y="89" class="st1" width="4.6" height="4.6"/>
	<rect x="251.1" y="94.3" class="st1" width="4.6" height="4.6"/>
	<rect x="251.1" y="98.5" class="st1" width="4.6" height="4.6"/>
	<rect x="231.3" y="107.1" class="st1" width="21.6" height="18.3"/>
</g>
<g>
	<rect x="358.4" y="99.2" class="st0" width="33.8" height="26.2"/>
	<rect x="321.4" y="111.5" class="st0" width="33.8" height="13.8"/>
	<rect x="339.9" y="60.8" class="st0" width="38.5" height="64.6"/>
	<rect x="387.6" y="33.1" class="st0" width="36.9" height="92.3"/>
	<rect x="410.7" y="77.7" class="st0" width="33.8" height="47.7"/>
</g>
</svg>
