<?xml version="1.0" encoding="utf-8"?>
<!-- Generator: Adobe Illustrator 19.2.0, SVG Export Plug-In . SVG Version: 6.00 Build 0)  -->
<svg version="1.1" id="Layer_1" xmlns="http://www.w3.org/2000/svg" xmlns:xlink="http://www.w3.org/1999/xlink" x="0px" y="0px"
	 viewBox="0 0 449 151.3" style="enable-background:new 0 0 449 151.3;" xml:space="preserve">
<style type="text/css">
	.st0{fill:#4C4277;}
	.st1{opacity:0.6;fill:#8787C6;enable-background:new    ;}
	.st2{fill:#5A69A0;}
	.st3{opacity:0.6;fill:#A8B6DD;enable-background:new    ;}
	.st4{fill:#9F9BAA;}
	.st5{fill:#EDF2F9;}
	.st6{fill:#8787C6;}
	.st7{fill:#BABAE8;}
	.st8{clip-path:url(#SVGID_3_);fill:#BABAE8;}
	.st9{fill:#A8B6DD;}
</style>
<path class="st0" d="M127.8,150.3c0-19.9-9.8-52-36.4-52H59.6c-26.9,0-36.6,32.3-36.6,52.7v0.4h104.8v-1.2"/>
<polyline class="st1" points="83.7,143.5 54.8,143.5 54.8,151.2 83.7,151.2 83.7,143.5 "/>
<polyline class="st0" points="120.2,143.5 83.7,143.5 83.7,151.2 120.2,151.2 120.2,143.5 "/>
<ellipse class="st2" cx="373.5" cy="61" rx="36.8" ry="38.4"/>
<path class="st2" d="M320.5,149.9c0-19.9,10-51.6,36.6-51.6h32c26.9,0,36.4,31.9,36.4,52.2v0.7h-105V149.9"/>
<polyline class="st3" points="393.9,143.5 365.2,143.5 365.2,151.2 393.9,151.2 393.9,143.5 "/>
<path class="st4" d="M179,76.2L179,76.2c0.5-0.3,19.7-12,46.3-12c20.5,0,35.1,6.9,40.8,10.3l1.5-2.8c-6.1-3.5-21.3-10.6-42.4-10.6
	c-27.9,0-47.8,12.3-47.9,12.4L179,76.2L179,76.2z"/>
<polygon class="st4" points="251.8,79.8 251,76.8 265.7,72.8 260.6,58.4 263.6,57.3 269.8,74.9 "/>
<ellipse class="st0" cx="75.5" cy="61" rx="36.9" ry="38.4"/>
<g>
	<path class="st5" d="M94.5,70.1c-2.1,5.8-9.4,10.2-18.4,10.2s-16.3-4.4-18.4-10.2c-0.8,1.5-1,3-1,4.7c0,7.6,8.6,14,19.5,14
		s19.5-6.2,19.5-14C95.7,73.1,95.3,71.6,94.5,70.1z"/>
</g>
<ellipse class="st0" cx="75.7" cy="70.6" rx="21.4" ry="9.7"/>
<g>
	<path class="st5" d="M391.8,70.1c-2.1,5.8-9.4,10.2-18.4,10.2c-9,0-16.3-4.4-18.4-10.2c-0.8,1.5-1,3-1,4.7c0,7.6,8.6,14,19.5,14
		c10.7,0,19.5-6.2,19.5-14C393,73.1,392.5,71.6,391.8,70.1z"/>
</g>
<ellipse class="st2" cx="373" cy="70.6" rx="21.4" ry="9.7"/>
<rect x="165.7" y="81.3" class="st6" width="15.5" height="15.5"/>
<g>
	<polygon class="st6" points="163.4,99.2 163.4,97.8 163.4,84.7 83.7,84.7 83.7,151.2 177.8,151.2 177.8,99.2 164.9,99.2 	"/>
</g>
<rect x="116.9" y="105.8" class="st7" width="6.6" height="6.6"/>
<rect x="116.9" y="111.3" class="st7" width="6.6" height="6.6"/>
<rect x="116.9" y="116.9" class="st7" width="6.6" height="6.6"/>
<rect x="116.9" y="123.6" class="st7" width="6.6" height="5.5"/>
<rect x="124.5" y="103.2" class="st7" width="1.6" height="1.6"/>
<rect x="124.5" y="104.6" class="st7" width="1.6" height="1.6"/>
<rect x="124.5" y="106.1" class="st7" width="1.6" height="1.6"/>
<rect x="124.5" y="107.5" class="st7" width="1.6" height="1.6"/>
<rect x="125.9" y="103.2" class="st7" width="1.6" height="1.6"/>
<rect x="125.9" y="104.6" class="st7" width="1.6" height="1.6"/>
<rect x="125.9" y="106.1" class="st7" width="1.6" height="1.6"/>
<rect x="125.9" y="107.5" class="st7" width="1.6" height="1.6"/>
<rect x="127.8" y="102.4" class="st7" width="1.6" height="1.6"/>
<rect x="127.4" y="104.6" class="st7" width="1.6" height="1.6"/>
<rect x="127.4" y="106.1" class="st7" width="1.6" height="1.6"/>
<rect x="127.4" y="107.5" class="st7" width="1.6" height="1.6"/>
<rect x="135.8" y="94.1" class="st7" width="1.6" height="1.6"/>
<rect x="129.4" y="104" class="st7" width="1.6" height="1.6"/>
<rect x="128.8" y="106.1" class="st7" width="1.6" height="1.6"/>
<rect x="128.8" y="107.5" class="st7" width="1.6" height="1.6"/>
<rect x="122.5" y="111.3" class="st7" width="6.6" height="6.6"/>
<rect x="122.5" y="116.9" class="st7" width="6.6" height="6.6"/>
<rect x="122.5" y="123.6" class="st7" width="6.6" height="5.5"/>
<rect x="132.3" y="101.2" class="st7" width="1.6" height="1.6"/>
<rect x="132.3" y="102.7" class="st7" width="1.6" height="1.6"/>
<rect x="132.3" y="104.1" class="st7" width="1.6" height="1.6"/>
<rect x="132.3" y="105.6" class="st7" width="1.6" height="1.6"/>
<rect x="134.5" y="99.8" class="st7" width="1.6" height="1.6"/>
<rect x="133.7" y="102.7" class="st7" width="1.6" height="1.6"/>
<rect x="133.7" y="104.1" class="st7" width="1.6" height="1.6"/>
<rect x="133.7" y="105.6" class="st7" width="1.6" height="1.6"/>
<rect x="142.7" y="91.1" class="st7" width="1.6" height="1.6"/>
<rect x="136.2" y="101.6" class="st7" width="1.6" height="1.6"/>
<rect x="135.2" y="104.1" class="st7" width="1.6" height="1.6"/>
<rect x="135.2" y="105.6" class="st7" width="1.6" height="1.6"/>
<rect x="149.5" y="91.1" class="st7" width="1.6" height="1.6"/>
<rect x="145.8" y="94.4" class="st7" width="1.6" height="1.6"/>
<rect x="137.9" y="103.4" class="st7" width="1.6" height="1.6"/>
<rect x="136.6" y="105.6" class="st7" width="1.6" height="1.6"/>
<rect x="130.8" y="109.4" class="st7" width="1.6" height="1.6"/>
<rect x="130.8" y="110.9" class="st7" width="1.6" height="1.6"/>
<rect x="130.8" y="112.4" class="st7" width="1.6" height="1.6"/>
<rect x="130.8" y="113.8" class="st7" width="1.6" height="1.6"/>
<rect x="132.1" y="109.4" class="st7" width="1.6" height="1.6"/>
<rect x="132.1" y="110.9" class="st7" width="1.6" height="1.6"/>
<rect x="132.1" y="112.4" class="st7" width="1.6" height="1.6"/>
<rect x="132.1" y="113.8" class="st7" width="1.6" height="1.6"/>
<rect x="134.2" y="108.8" class="st7" width="1.6" height="1.6"/>
<rect x="133.6" y="110.9" class="st7" width="1.6" height="1.6"/>
<rect x="133.6" y="112.4" class="st7" width="1.6" height="1.6"/>
<rect x="133.6" y="113.8" class="st7" width="1.6" height="1.6"/>
<rect x="143.1" y="101.5" class="st7" width="1.6" height="1.6"/>
<rect x="135.8" y="110.4" class="st7" width="1.6" height="1.6"/>
<rect x="135.1" y="112.4" class="st7" width="1.6" height="1.6"/>
<rect x="135.1" y="113.8" class="st7" width="1.6" height="1.6"/>
<rect x="129.1" y="116.9" class="st7" width="6.6" height="6.6"/>
<rect x="129.1" y="123.6" class="st7" width="6.6" height="5.5"/>
<rect x="140.5" y="99.7" class="st7" width="1.6" height="1.6"/>
<rect x="140.5" y="101.1" class="st7" width="1.6" height="1.6"/>
<rect x="140.5" y="102.6" class="st7" width="1.6" height="1.6"/>
<rect x="140.5" y="104" class="st7" width="1.6" height="1.6"/>
<rect x="148.5" y="89.9" class="st7" width="1.6" height="1.6"/>
<rect x="142" y="101.1" class="st7" width="1.6" height="1.6"/>
<rect x="142" y="102.6" class="st7" width="1.6" height="1.6"/>
<rect x="142" y="104" class="st7" width="1.6" height="1.6"/>
<rect x="147.3" y="98.4" class="st7" width="1.6" height="1.6"/>
<g>
	<g>
		<g>
			<g>
				<polyline id="SVGID_1_" class="st7" points="147.3,100 148.9,100 148.9,98.4 147.3,98.4 147.3,100 				"/>
			</g>
			<g>
				<defs>
					<polyline id="SVGID_2_" points="147.3,100 148.9,100 148.9,98.4 147.3,98.4 147.3,100 					"/>
				</defs>
				<clipPath id="SVGID_3_">
					<use xlink:href="#SVGID_2_"  style="overflow:visible;"/>
				</clipPath>
				<rect x="147.3" y="98.4" class="st8" width="1.6" height="1.6"/>
			</g>
		</g>
	</g>
</g>
<rect x="143.4" y="102.6" class="st7" width="1.6" height="1.6"/>
<rect x="143.4" y="104" class="st7" width="1.6" height="1.6"/>
<rect x="153.6" y="96.4" class="st7" width="1.6" height="1.6"/>
<rect x="144.9" y="104" class="st7" width="1.6" height="1.6"/>
<rect x="138.9" y="107.8" class="st7" width="1.6" height="1.6"/>
<rect x="138.9" y="109.3" class="st7" width="1.6" height="1.6"/>
<rect x="138.9" y="110.8" class="st7" width="1.6" height="1.6"/>
<rect x="138.9" y="112.3" class="st7" width="1.6" height="1.6"/>
<rect x="141.3" y="106.7" class="st7" width="1.6" height="1.6"/>
<rect x="140.3" y="109.3" class="st7" width="1.6" height="1.6"/>
<rect x="140.3" y="110.8" class="st7" width="1.6" height="1.6"/>
<rect x="140.3" y="112.3" class="st7" width="1.6" height="1.6"/>
<rect x="150.7" y="98.6" class="st7" width="1.6" height="1.6"/>
<rect x="142.9" y="108.4" class="st7" width="1.6" height="1.6"/>
<rect x="141.9" y="110.8" class="st7" width="1.6" height="1.6"/>
<rect x="141.9" y="112.3" class="st7" width="1.6" height="1.6"/>
<rect x="153.8" y="95.9" class="st7" width="1.6" height="1.6"/>
<rect x="151.5" y="102.1" class="st7" width="1.6" height="1.6"/>
<rect x="144.7" y="110.1" class="st7" width="1.6" height="1.6"/>
<rect x="143.3" y="112.3" class="st7" width="1.6" height="1.6"/>
<rect x="136.9" y="115.7" class="st7" width="1.6" height="1.6"/>
<rect x="136.9" y="117.1" class="st7" width="1.6" height="1.6"/>
<rect x="136.9" y="118.6" class="st7" width="1.6" height="1.6"/>
<rect x="136.9" y="120.2" class="st7" width="1.6" height="1.6"/>
<rect x="138.4" y="115.7" class="st7" width="1.6" height="1.6"/>
<rect x="138.4" y="117.1" class="st7" width="1.6" height="1.6"/>
<rect x="138.4" y="118.6" class="st7" width="1.6" height="1.6"/>
<rect x="138.4" y="120.2" class="st7" width="1.6" height="1.6"/>
<rect x="140.6" y="115.1" class="st7" width="1.6" height="1.6"/>
<rect x="139.9" y="117.1" class="st7" width="1.6" height="1.6"/>
<rect x="139.9" y="118.6" class="st7" width="1.6" height="1.6"/>
<rect x="139.9" y="120.2" class="st7" width="1.6" height="1.6"/>
<rect x="150.6" y="108.9" class="st7" width="1.6" height="1.6"/>
<rect x="142.2" y="116.7" class="st7" width="1.6" height="1.6"/>
<rect x="141.4" y="118.6" class="st7" width="1.6" height="1.6"/>
<rect x="141.4" y="120.2" class="st7" width="1.6" height="1.6"/>
<rect x="135.8" y="123.6" class="st7" width="6.6" height="5.5"/>
<polyline class="st9" points="283.1,97 267.7,97 267.7,81.3 283.1,81.3 "/>
<g>
	<polygon class="st9" points="285.4,84.7 285.4,97.8 285.4,99.2 284.2,99.2 271,99.2 271,151.2 365.2,151.2 365.2,84.7 	"/>
</g>
</svg>
