<?xml version="1.0" encoding="utf-8"?>
<!-- Generator: Adobe Illustrator 19.2.0, SVG Export Plug-In . SVG Version: 6.00 Build 0)  -->
<svg version="1.1" id="Layer_1" xmlns="http://www.w3.org/2000/svg" xmlns:xlink="http://www.w3.org/1999/xlink" x="0px" y="0px"
	 viewBox="0 0 619 255" style="enable-background:new 0 0 619 255;" xml:space="preserve">
<style type="text/css">
	.st0{fill:#7772AF;}
	.st1{fill:#BEBEE5;}
	.st2{fill:#9B9BD3;}
	.st3{opacity:0.3;fill:#A3A3D3;enable-background:new    ;}
</style>
<path class="st0" d="M85.5,112c0,2.2-1.8,4-4,4h-60c-2.2,0-4-1.8-4-4V52c0-2.2,1.8-4,4-4h60c2.2,0,4,1.8,4,4V112z"/>
<path class="st1" d="M257.5,112c0,2.2-1.8,4-4,4h-60c-2.2,0-4-1.8-4-4V52c0-2.2,1.8-4,4-4h60c2.2,0,4,1.8,4,4V112z"/>
<path class="st2" d="M171.5,112c0,2.2-1.8,4-4,4h-60c-2.2,0-4-1.8-4-4V52c0-2.2,1.8-4,4-4h60c2.2,0,4,1.8,4,4V112z"/>
<path class="st2" d="M85.5,198c0,2.2-1.8,4-4,4h-60c-2.2,0-4-1.8-4-4v-60c0-2.2,1.8-4,4-4h60c2.2,0,4,1.8,4,4V198z"/>
<path class="st1" d="M257.5,198c0,2.2-1.8,4-4,4h-60c-2.2,0-4-1.8-4-4v-60c0-2.2,1.8-4,4-4h60c2.2,0,4,1.8,4,4V198z"/>
<path class="st0" d="M171.5,198c0,2.2-1.8,4-4,4h-60c-2.2,0-4-1.8-4-4v-60c0-2.2,1.8-4,4-4h60c2.2,0,4,1.8,4,4V198z"/>
<path class="st0" d="M515.5,112c0,2.2-1.8,4-4,4h-60c-2.2,0-4-1.8-4-4V52c0-2.2,1.8-4,4-4h60c2.2,0,4,1.8,4,4V112z"/>
<path class="st2" d="M601.5,112c0,2.2-1.8,4-4,4h-60c-2.2,0-4-1.8-4-4V52c0-2.2,1.8-4,4-4h60c2.2,0,4,1.8,4,4V112z"/>
<path class="st2" d="M344.5,112c0,2.2-1.8,4-4,4h-60c-2.2,0-4-1.8-4-4V52c0-2.2,1.8-4,4-4h60c2.2,0,4,1.8,4,4V112z"/>
<path class="st0" d="M429.5,112c0,2.2-1.8,4-4,4h-60c-2.2,0-4-1.8-4-4V52c0-2.2,1.8-4,4-4h60c2.2,0,4,1.8,4,4V112z"/>
<path class="st2" d="M515.5,198c0,2.2-1.8,4-4,4h-60c-2.2,0-4-1.8-4-4v-60c0-2.2,1.8-4,4-4h60c2.2,0,4,1.8,4,4V198z"/>
<path class="st3" d="M601.5,198c0,2.2-1.8,4-4,4h-60c-2.2,0-4-1.8-4-4v-60c0-2.2,1.8-4,4-4h60c2.2,0,4,1.8,4,4V198z"/>
<path class="st0" d="M344.5,198c0,2.2-1.8,4-4,4h-60c-2.2,0-4-1.8-4-4v-60c0-2.2,1.8-4,4-4h60c2.2,0,4,1.8,4,4V198z"/>
<path class="st2" d="M429.5,198c0,2.2-1.8,4-4,4h-60c-2.2,0-4-1.8-4-4v-60c0-2.2,1.8-4,4-4h60c2.2,0,4,1.8,4,4V198z"/>
</svg>
