<?xml version="1.0" encoding="utf-8"?>
<!-- Generator: Adobe Illustrator 19.1.1, SVG Export Plug-In . SVG Version: 6.00 Build 0)  -->
<svg version="1.1" id="Layer_1" xmlns="http://www.w3.org/2000/svg" xmlns:xlink="http://www.w3.org/1999/xlink" x="0px" y="0px"
	 viewBox="11 153 619 255" style="enable-background:new 11 153 619 255;" xml:space="preserve">
<style type="text/css">
	.st0{fill:#BEBEE5;}
	.st1{fill:#B2B1DD;}
	.st2{fill:#A3A3D3;}
	.st3{opacity:0.5;fill:#BEBEE5;}
	.st4{opacity:0.6;fill:#B2B1DD;}
	.st5{opacity:0.3;fill:#A3A3D3;}
	.st6{opacity:0.5;fill:#A3A3D3;}
	.st7{opacity:0.2;fill:#BEBEE5;}
</style>
<path class="st0" d="M98,308c0,2.2-1.8,4-4,4H34c-2.2,0-4-1.8-4-4v-60c0-2.2,1.8-4,4-4h60c2.2,0,4,1.8,4,4V308z"/>
<path class="st0" d="M270,308c0,2.2-1.8,4-4,4h-60c-2.2,0-4-1.8-4-4v-60c0-2.2,1.8-4,4-4h60c2.2,0,4,1.8,4,4V308z"/>
<path class="st0" d="M184,308c0,2.2-1.8,4-4,4h-60c-2.2,0-4-1.8-4-4v-60c0-2.2,1.8-4,4-4h60c2.2,0,4,1.8,4,4V308z"/>
<path class="st1" d="M98,394c0,2.2-1.8,4-4,4H34c-2.2,0-4-1.8-4-4v-60c0-2.2,1.8-4,4-4h60c2.2,0,4,1.8,4,4V394z"/>
<path class="st0" d="M270,394c0,2.2-1.8,4-4,4h-60c-2.2,0-4-1.8-4-4v-60c0-2.2,1.8-4,4-4h60c2.2,0,4,1.8,4,4V394z"/>
<path class="st2" d="M184,394c0,2.2-1.8,4-4,4h-60c-2.2,0-4-1.8-4-4v-60c0-2.2,1.8-4,4-4h60c2.2,0,4,1.8,4,4V394z"/>
<path class="st2" d="M98,227c0,2.2-1.8,4-4,4H34c-2.2,0-4-1.8-4-4v-60c0-2.2,1.8-4,4-4h60c2.2,0,4,1.8,4,4V227z"/>
<path class="st2" d="M270,227c0,2.2-1.8,4-4,4h-60c-2.2,0-4-1.8-4-4v-60c0-2.2,1.8-4,4-4h60c2.2,0,4,1.8,4,4V227z"/>
<path class="st0" d="M184,227c0,2.2-1.8,4-4,4h-60c-2.2,0-4-1.8-4-4v-60c0-2.2,1.8-4,4-4h60c2.2,0,4,1.8,4,4V227z"/>
<path class="st0" d="M528,308c0,2.2-1.8,4-4,4h-60c-2.2,0-4-1.8-4-4v-60c0-2.2,1.8-4,4-4h60c2.2,0,4,1.8,4,4V308z"/>
<path class="st3" d="M614,308c0,2.2-1.8,4-4,4h-60c-2.2,0-4-1.8-4-4v-60c0-2.2,1.8-4,4-4h60c2.2,0,4,1.8,4,4V308z"/>
<path class="st0" d="M357,308c0,2.2-1.8,4-4,4h-60c-2.2,0-4-1.8-4-4v-60c0-2.2,1.8-4,4-4h60c2.2,0,4,1.8,4,4V308z"/>
<path class="st2" d="M442,308c0,2.2-1.8,4-4,4h-60c-2.2,0-4-1.8-4-4v-60c0-2.2,1.8-4,4-4h60c2.2,0,4,1.8,4,4V308z"/>
<path class="st4" d="M528,394c0,2.2-1.8,4-4,4h-60c-2.2,0-4-1.8-4-4v-60c0-2.2,1.8-4,4-4h60c2.2,0,4,1.8,4,4V394z"/>
<path class="st5" d="M614,394c0,2.2-1.8,4-4,4h-60c-2.2,0-4-1.8-4-4v-60c0-2.2,1.8-4,4-4h60c2.2,0,4,1.8,4,4V394z"/>
<path class="st0" d="M357,394c0,2.2-1.8,4-4,4h-60c-2.2,0-4-1.8-4-4v-60c0-2.2,1.8-4,4-4h60c2.2,0,4,1.8,4,4V394z"/>
<path class="st1" d="M442,394c0,2.2-1.8,4-4,4h-60c-2.2,0-4-1.8-4-4v-60c0-2.2,1.8-4,4-4h60c2.2,0,4,1.8,4,4V394z"/>
<path class="st6" d="M528,227c0,2.2-1.8,4-4,4h-60c-2.2,0-4-1.8-4-4v-60c0-2.2,1.8-4,4-4h60c2.2,0,4,1.8,4,4V227z"/>
<path class="st7" d="M614,227c0,2.2-1.8,4-4,4h-60c-2.2,0-4-1.8-4-4v-60c0-2.2,1.8-4,4-4h60c2.2,0,4,1.8,4,4V227z"/>
<path class="st2" d="M357,227c0,2.2-1.8,4-4,4h-60c-2.2,0-4-1.8-4-4v-60c0-2.2,1.8-4,4-4h60c2.2,0,4,1.8,4,4V227z"/>
<path class="st0" d="M442,227c0,2.2-1.8,4-4,4h-60c-2.2,0-4-1.8-4-4v-60c0-2.2,1.8-4,4-4h60c2.2,0,4,1.8,4,4V227z"/>
</svg>
