<?xml version="1.0" encoding="utf-8"?>
<!-- Generator: Adobe Illustrator 19.2.0, SVG Export Plug-In . SVG Version: 6.00 Build 0)  -->
<svg version="1.1" id="Layer_1" xmlns="http://www.w3.org/2000/svg" xmlns:xlink="http://www.w3.org/1999/xlink" x="0px" y="0px"
	 viewBox="0 0 449 151.3" style="enable-background:new 0 0 449 151.3;" xml:space="preserve">
<style type="text/css">
	.st0{fill:#4C4277;}
	.st1{opacity:0.6;fill:#8787C6;}
	.st2{fill:#5A69A0;}
	.st3{opacity:0.6;fill:#A8B6DD;}
	.st4{fill:#9F9BAA;}
	.st5{fill:#EDF2F9;}
	.st6{fill:#8787C6;}
	.st7{fill:#BABAE8;}
	.st8{clip-path:url(#SVGID_2_);fill:#BABAE8;}
	.st9{fill:#A8B6DD;}
</style>
<path class="st0" d="M123.6,150.2c0-21-10.3-54.8-38.3-54.8H51.8c-28.3,0-38.6,34-38.6,55.5v0.4h110.4V150"/>
<polyline class="st1" points="77.1,143.1 46.7,143.1 46.7,151.2 77.1,151.2 77.1,143.1 "/>
<polyline class="st0" points="115.6,143.1 77.1,143.1 77.1,151.2 115.6,151.2 115.6,143.1 "/>
<ellipse class="st2" cx="382.4" cy="56.2" rx="38.8" ry="40.4"/>
<path class="st2" d="M326.5,149.8c0-21,10.5-54.4,38.6-54.4h33.7c28.3,0,38.3,33.6,38.3,55v0.7H326.5v-1.3"/>
<polyline class="st3" points="403.9,143.1 373.6,143.1 373.6,151.2 403.9,151.2 403.9,143.1 "/>
<path class="st4" d="M177.5,72.2L177.5,72.2c0.5-0.3,20.8-12.6,48.8-12.6c21.6,0,37,7.3,43,10.8l1.6-2.9
	c-6.4-3.7-22.4-11.2-44.7-11.2c-29.4,0-50.3,13-50.5,13.1L177.5,72.2L177.5,72.2z"/>
<polygon class="st4" points="254.2,76 253.3,72.8 268.8,68.6 263.5,53.4 266.6,52.3 273.1,70.8 "/>
<ellipse class="st0" cx="68.5" cy="56.2" rx="38.9" ry="40.4"/>
<g>
	<path class="st5" d="M88.5,65.8c-2.2,6.1-9.9,10.7-19.4,10.7s-17.2-4.6-19.4-10.7c-0.8,1.6-1.1,3.2-1.1,4.9c0,8,9.1,14.7,20.5,14.7
		s20.5-6.5,20.5-14.7C89.8,68.9,89.3,67.4,88.5,65.8z"/>
</g>
<ellipse class="st0" cx="68.7" cy="66.3" rx="22.5" ry="10.2"/>
<g>
	<path class="st5" d="M401.6,65.8c-2.2,6.1-9.9,10.7-19.4,10.7s-17.2-4.6-19.4-10.7c-0.8,1.6-1.1,3.2-1.1,4.9
		c0,8,9.1,14.7,20.5,14.7c11.3,0,20.5-6.5,20.5-14.7C402.9,68.9,402.4,67.4,401.6,65.8z"/>
</g>
<ellipse class="st2" cx="381.8" cy="66.3" rx="22.5" ry="10.2"/>
<rect x="163.5" y="77.6" class="st6" width="16.3" height="16.3"/>
<g>
	<polygon class="st6" points="161.1,96.4 161.1,94.9 161.1,81.1 77.1,81.1 77.1,151.2 176.3,151.2 176.3,96.4 162.7,96.4 	"/>
</g>
<rect x="112.1" y="103.4" class="st7" width="7" height="7"/>
<rect x="112.1" y="109.2" class="st7" width="7" height="7"/>
<rect x="112.1" y="115.1" class="st7" width="7" height="7"/>
<rect x="112.1" y="122.1" class="st7" width="7" height="5.8"/>
<rect x="120.1" y="100.6" class="st7" width="1.7" height="1.7"/>
<rect x="120.1" y="102.1" class="st7" width="1.7" height="1.7"/>
<rect x="120.1" y="103.7" class="st7" width="1.7" height="1.7"/>
<rect x="120.1" y="105.2" class="st7" width="1.7" height="1.7"/>
<rect x="121.6" y="100.6" class="st7" width="1.7" height="1.7"/>
<rect x="121.6" y="102.1" class="st7" width="1.7" height="1.7"/>
<rect x="121.6" y="103.7" class="st7" width="1.7" height="1.7"/>
<rect x="121.6" y="105.2" class="st7" width="1.7" height="1.7"/>
<rect x="123.6" y="99.8" class="st7" width="1.7" height="1.7"/>
<rect x="123.2" y="102.1" class="st7" width="1.7" height="1.7"/>
<rect x="123.2" y="103.7" class="st7" width="1.7" height="1.7"/>
<rect x="123.2" y="105.2" class="st7" width="1.7" height="1.7"/>
<rect x="132" y="91.1" class="st7" width="1.7" height="1.7"/>
<rect x="125.3" y="101.5" class="st7" width="1.7" height="1.7"/>
<rect x="124.6" y="103.7" class="st7" width="1.7" height="1.7"/>
<rect x="124.6" y="105.2" class="st7" width="1.7" height="1.7"/>
<rect x="118" y="109.2" class="st7" width="7" height="7"/>
<rect x="118" y="115.1" class="st7" width="7" height="7"/>
<rect x="118" y="122.1" class="st7" width="7" height="5.8"/>
<rect x="128.3" y="98.5" class="st7" width="1.7" height="1.7"/>
<rect x="128.3" y="100.1" class="st7" width="1.7" height="1.7"/>
<rect x="128.3" y="101.6" class="st7" width="1.7" height="1.7"/>
<rect x="128.3" y="103.2" class="st7" width="1.7" height="1.7"/>
<rect x="130.6" y="97.1" class="st7" width="1.7" height="1.7"/>
<rect x="129.8" y="100.1" class="st7" width="1.7" height="1.7"/>
<rect x="129.8" y="101.6" class="st7" width="1.7" height="1.7"/>
<rect x="129.8" y="103.2" class="st7" width="1.7" height="1.7"/>
<rect x="139.3" y="87.9" class="st7" width="1.7" height="1.7"/>
<rect x="132.4" y="99" class="st7" width="1.7" height="1.7"/>
<rect x="131.4" y="101.6" class="st7" width="1.7" height="1.7"/>
<rect x="131.4" y="103.2" class="st7" width="1.7" height="1.7"/>
<rect x="146.4" y="87.9" class="st7" width="1.7" height="1.7"/>
<rect x="142.5" y="91.4" class="st7" width="1.7" height="1.7"/>
<rect x="134.2" y="100.8" class="st7" width="1.7" height="1.7"/>
<rect x="132.9" y="103.2" class="st7" width="1.7" height="1.7"/>
<rect x="126.7" y="107.2" class="st7" width="1.7" height="1.7"/>
<rect x="126.7" y="108.7" class="st7" width="1.7" height="1.7"/>
<rect x="126.7" y="110.3" class="st7" width="1.7" height="1.7"/>
<rect x="126.7" y="111.8" class="st7" width="1.7" height="1.7"/>
<rect x="128.1" y="107.2" class="st7" width="1.7" height="1.7"/>
<rect x="128.1" y="108.7" class="st7" width="1.7" height="1.7"/>
<rect x="128.1" y="110.3" class="st7" width="1.7" height="1.7"/>
<rect x="128.1" y="111.8" class="st7" width="1.7" height="1.7"/>
<rect x="130.3" y="106.5" class="st7" width="1.7" height="1.7"/>
<rect x="129.7" y="108.7" class="st7" width="1.7" height="1.7"/>
<rect x="129.7" y="110.3" class="st7" width="1.7" height="1.7"/>
<rect x="129.7" y="111.8" class="st7" width="1.7" height="1.7"/>
<rect x="139.7" y="98.8" class="st7" width="1.7" height="1.7"/>
<rect x="132" y="108.2" class="st7" width="1.7" height="1.7"/>
<rect x="131.3" y="110.3" class="st7" width="1.7" height="1.7"/>
<rect x="131.3" y="111.8" class="st7" width="1.7" height="1.7"/>
<rect x="125" y="115.1" class="st7" width="7" height="7"/>
<rect x="125" y="122.1" class="st7" width="7" height="5.8"/>
<rect x="137" y="96.9" class="st7" width="1.7" height="1.7"/>
<rect x="137" y="98.4" class="st7" width="1.7" height="1.7"/>
<rect x="137" y="100" class="st7" width="1.7" height="1.7"/>
<rect x="137" y="101.5" class="st7" width="1.7" height="1.7"/>
<rect x="145.4" y="86.6" class="st7" width="1.7" height="1.7"/>
<rect x="138.5" y="98.4" class="st7" width="1.7" height="1.7"/>
<rect x="138.5" y="100" class="st7" width="1.7" height="1.7"/>
<rect x="138.5" y="101.5" class="st7" width="1.7" height="1.7"/>
<rect x="144.1" y="95.6" class="st7" width="1.7" height="1.7"/>
<g>
	<g>
		<g>
			<defs>
				<polyline id="SVGID_1_" points="144.1,97.3 145.8,97.3 145.8,95.6 144.1,95.6 144.1,97.3 				"/>
			</defs>
			<use xlink:href="#SVGID_1_"  style="overflow:visible;fill:#BABAE8;"/>
			<clipPath id="SVGID_2_">
				<use xlink:href="#SVGID_1_"  style="overflow:visible;"/>
			</clipPath>
			<rect x="144.1" y="95.6" class="st8" width="1.7" height="1.7"/>
		</g>
	</g>
</g>
<rect x="140" y="100" class="st7" width="1.7" height="1.7"/>
<rect x="140" y="101.5" class="st7" width="1.7" height="1.7"/>
<rect x="150.8" y="93.5" class="st7" width="1.7" height="1.7"/>
<rect x="141.6" y="101.5" class="st7" width="1.7" height="1.7"/>
<rect x="135.3" y="105.5" class="st7" width="1.7" height="1.7"/>
<rect x="135.3" y="107.1" class="st7" width="1.7" height="1.7"/>
<rect x="135.3" y="108.6" class="st7" width="1.7" height="1.7"/>
<rect x="135.3" y="110.2" class="st7" width="1.7" height="1.7"/>
<rect x="137.8" y="104.3" class="st7" width="1.7" height="1.7"/>
<rect x="136.8" y="107.1" class="st7" width="1.7" height="1.7"/>
<rect x="136.8" y="108.6" class="st7" width="1.7" height="1.7"/>
<rect x="136.8" y="110.2" class="st7" width="1.7" height="1.7"/>
<rect x="147.7" y="95.8" class="st7" width="1.7" height="1.7"/>
<rect x="139.5" y="106.1" class="st7" width="1.7" height="1.7"/>
<rect x="138.4" y="108.6" class="st7" width="1.7" height="1.7"/>
<rect x="138.4" y="110.2" class="st7" width="1.7" height="1.7"/>
<rect x="151" y="92.9" class="st7" width="1.7" height="1.7"/>
<rect x="148.5" y="99.5" class="st7" width="1.7" height="1.7"/>
<rect x="141.4" y="107.9" class="st7" width="1.7" height="1.7"/>
<rect x="139.9" y="110.2" class="st7" width="1.7" height="1.7"/>
<rect x="133.2" y="113.8" class="st7" width="1.7" height="1.7"/>
<rect x="133.2" y="115.3" class="st7" width="1.7" height="1.7"/>
<rect x="133.2" y="116.9" class="st7" width="1.7" height="1.7"/>
<rect x="133.2" y="118.5" class="st7" width="1.7" height="1.7"/>
<rect x="134.7" y="113.8" class="st7" width="1.7" height="1.7"/>
<rect x="134.7" y="115.3" class="st7" width="1.7" height="1.7"/>
<rect x="134.7" y="116.9" class="st7" width="1.7" height="1.7"/>
<rect x="134.7" y="118.5" class="st7" width="1.7" height="1.7"/>
<rect x="137.1" y="113.2" class="st7" width="1.7" height="1.7"/>
<rect x="136.3" y="115.3" class="st7" width="1.7" height="1.7"/>
<rect x="136.3" y="116.9" class="st7" width="1.7" height="1.7"/>
<rect x="136.3" y="118.5" class="st7" width="1.7" height="1.7"/>
<rect x="147.6" y="106.6" class="st7" width="1.7" height="1.7"/>
<rect x="138.8" y="114.9" class="st7" width="1.7" height="1.7"/>
<rect x="137.9" y="116.9" class="st7" width="1.7" height="1.7"/>
<rect x="137.9" y="118.5" class="st7" width="1.7" height="1.7"/>
<rect x="132" y="122.1" class="st7" width="7" height="5.8"/>
<polyline class="st9" points="287.2,94.1 270.9,94.1 270.9,77.6 287.2,77.6 "/>
<g>
	<polygon class="st9" points="289.6,81.1 289.6,94.9 289.6,96.4 288.3,96.4 274.4,96.4 274.4,151.2 373.6,151.2 373.6,81.1 	"/>
</g>
</svg>
