<?xml version="1.0" encoding="utf-8"?>
<!-- Generator: Adobe Illustrator 19.2.0, SVG Export Plug-In . SVG Version: 6.00 Build 0)  -->
<svg version="1.1" id="Layer_1" xmlns="http://www.w3.org/2000/svg" xmlns:xlink="http://www.w3.org/1999/xlink" x="0px" y="0px"
	 viewBox="0 0 426.5 153.5" style="enable-background:new 0 0 426.5 153.5;" xml:space="preserve">
<style type="text/css">
	.st0{opacity:0.6;fill:#D4D4F4;enable-background:new    ;}
	.st1{fill:#8787C6;}
	.st2{fill:#FFFFFF;}
	.st3{fill:#D4D4F4;}
	.st4{fill:none;stroke:#FFFFFF;stroke-linecap:round;stroke-miterlimit:10;}
	.st5{fill:#B2B1DD;}
	.st6{fill:none;stroke:#B2B1DD;stroke-width:2;stroke-linecap:square;stroke-miterlimit:10;}
	.st7{fill:none;stroke:#B2B1DD;stroke-width:2;stroke-linecap:square;stroke-miterlimit:10;stroke-dasharray:7.3333,7.3333;}
	.st8{fill:none;stroke:#B2B1DD;stroke-width:2;stroke-linecap:square;stroke-miterlimit:10;stroke-dasharray:5.59,5.59;}
	.st9{fill:none;stroke:#B2B1DD;stroke-width:2;stroke-linecap:square;stroke-miterlimit:10;stroke-dasharray:6;}
	.st10{fill:none;stroke:#B2B1DD;stroke-width:2;stroke-linecap:square;stroke-miterlimit:10;stroke-dasharray:5.8889,5.8889;}
	.st11{fill:none;stroke:#B2B1DD;stroke-width:2;stroke-linecap:square;stroke-miterlimit:10;stroke-dasharray:5.55,5.55;}
	.st12{fill:none;stroke:#B2B1DD;stroke-width:2;stroke-linecap:square;stroke-miterlimit:10;stroke-dasharray:6.1444,6.1444;}
	.st13{fill:none;stroke:#B2B1DD;stroke-width:2;stroke-linecap:square;stroke-miterlimit:10;stroke-dasharray:5.15,5.15;}
</style>
<g>
	<path class="st0" d="M237.2,60.6h-44.8c-2.2,0-4-1.8-4-4V11.8c0-2.2,1.8-4,4-4h44.8c2.2,0,4,1.8,4,4v44.8
		C241.2,58.8,239.4,60.6,237.2,60.6z"/>
	<path class="st1" d="M235,58.5h-44.8c-2.2,0-4-1.8-4-4V9.7c0-2.2,1.8-4,4-4H235c2.2,0,4,1.8,4,4v44.8C239,56.7,237.2,58.5,235,58.5
		z"/>
	
		<rect x="204.8" y="28.7" transform="matrix(0.7174 -0.6967 0.6967 0.7174 38.995 161.8564)" class="st2" width="28.4" height="8.4"/>
	
		<rect x="229.1" y="16.7" transform="matrix(0.7174 -0.6967 0.6967 0.7174 50.7752 167.0239)" class="st3" width="4.4" height="8.4"/>
	<polygon class="st3" points="205.2,46.2 206.1,39.6 211.9,45.5 	"/>
	<path class="st4" d="M203.9,45.7c0,0-12.5,2-12.6-4c-0.1-6,15.6-8.6,17.3-12.1s-6.2-2.5-6.2-2.5"/>
</g>
<g>
	<path class="st0" d="M102.3,148.1H57.5c-2.2,0-4-1.8-4-4V99.3c0-2.2,1.8-4,4-4h44.8c2.2,0,4,1.8,4,4v44.8
		C106.3,146.3,104.5,148.1,102.3,148.1z"/>
	<path class="st1" d="M100.2,145.9H55.4c-2.2,0-4-1.8-4-4V97.1c0-2.2,1.8-4,4-4h44.8c2.2,0,4,1.8,4,4v44.8
		C104.2,144.1,102.4,145.9,100.2,145.9z"/>
	<path class="st3" d="M93.2,139.5H63.4c-1.3,0-2.3-1-2.3-2.3v-34.4c0-1.3,1-2.3,2.3-2.3h29.8c1.3,0,2.3,1,2.3,2.3v34.4
		C95.5,138.4,94.5,139.5,93.2,139.5z"/>
	<rect x="64.3" y="103.9" class="st1" width="28" height="6.5"/>
	<rect x="64.3" y="112.3" class="st2" width="13" height="12"/>
	<rect x="79.3" y="112.3" class="st2" width="13" height="12"/>
	<rect x="64.3" y="126.3" class="st2" width="13" height="9"/>
	<rect x="79.3" y="126.3" class="st2" width="13" height="9"/>
	<g>
		<path class="st5" d="M86.3,116.3v2.1h2v0.5h-2v2.1h-0.6v-2.1h-2v-0.5h2v-2.1H86.3z"/>
	</g>
	<g>
		<path class="st5" d="M70.1,129.8c0,1-0.5,1.4-1.1,1.4s-1.1-0.5-1.1-1.4s0.5-1.4,1.1-1.4C69.7,128.5,70.1,129,70.1,129.8z
			 M68.4,129.9c0,0.6,0.2,1,0.6,1s0.6-0.4,0.6-1s-0.2-1-0.6-1C68.6,128.9,68.4,129.3,68.4,129.9z M68.9,133.2l2.7-4.7H72l-2.7,4.7
			H68.9z M73,131.7c0,1-0.5,1.4-1.1,1.4s-1.1-0.5-1.1-1.4s0.5-1.4,1.1-1.4C72.6,130.4,73,130.9,73,131.7z M71.4,131.8
			c0,0.6,0.2,1,0.6,1s0.6-0.4,0.6-1s-0.2-1-0.6-1C71.6,130.7,71.4,131.2,71.4,131.8z"/>
	</g>
	<g>
		<path class="st5" d="M83.9,130.4v-0.5H88v0.5H83.9z M83.9,132v-0.5H88v0.5H83.9z"/>
	</g>
	<g>
		<path class="st5" d="M72.9,119.1v0.4h-4.5v-0.4H72.9z"/>
	</g>
</g>
<g>
	<path class="st0" d="M102.2,60.6H57.4c-2.2,0-4-1.8-4-4V11.8c0-2.2,1.8-4,4-4h44.8c2.2,0,4,1.8,4,4v44.8
		C106.2,58.8,104.4,60.6,102.2,60.6z"/>
	<path class="st1" d="M100,58.4H55.2c-2.2,0-4-1.8-4-4V9.6c0-2.2,1.8-4,4-4H100c2.2,0,4,1.8,4,4v44.8C104,56.6,102.2,58.4,100,58.4z
		"/>
	<rect x="60.2" y="16.3" class="st2" width="5" height="7"/>
	<rect x="67.4" y="16.4" class="st3" width="29.1" height="6.5"/>
	<rect x="60.2" y="29.3" class="st2" width="5" height="5"/>
	<rect x="67.4" y="29.3" class="st3" width="29.1" height="5.4"/>
	<rect x="60.2" y="41.3" class="st2" width="5" height="6"/>
	<rect x="67.4" y="41.2" class="st3" width="29.1" height="6.5"/>
</g>
<g>
	<path class="st0" d="M372.1,60.6h-44.8c-2.2,0-4-1.8-4-4V11.8c0-2.2,1.8-4,4-4h44.8c2.2,0,4,1.8,4,4v44.8
		C376.2,58.8,374.4,60.6,372.1,60.6z"/>
	<path class="st1" d="M370,58.5h-44.8c-2.2,0-4-1.8-4-4V9.7c0-2.2,1.8-4,4-4H370c2.2,0,4,1.8,4,4v44.8C374,56.7,372.2,58.5,370,58.5
		z"/>
	<g>
		<path class="st2" d="M356.3,14.5h-25.2c-0.9,0-1.6,0.7-1.6,1.6v7.6l-4.8,5.2h4.8v3.9c0,0.9,0.7,1.6,1.6,1.6h25.2
			c0.9,0,1.6-0.7,1.6-1.6V16.1C357.9,15.2,357.2,14.5,356.3,14.5z"/>
		<path class="st3" d="M370.2,43.2l-4.7-4.9v-7.7c0-0.9-0.7-1.6-1.6-1.6h-24.5c-0.9,0-1.6,0.7-1.6,1.6v16.7c0,0.9,0.7,1.6,1.6,1.6
			h24.5c0.9,0,1.6-0.7,1.6-1.6v-4.1H370.2z"/>
	</g>
</g>
<g>
	<path class="st0" d="M372.4,148.1h-44.8c-2.2,0-4-1.8-4-4V99.3c0-2.2,1.8-4,4-4h44.8c2.2,0,4,1.8,4,4v44.8
		C376.4,146.3,374.6,148.1,372.4,148.1z"/>
	<path class="st1" d="M370.2,146h-44.8c-2.2,0-4-1.8-4-4V97.2c0-2.2,1.8-4,4-4h44.8c2.2,0,4,1.8,4,4v44.7
		C374.2,144.2,372.4,146,370.2,146z"/>
	<path class="st3" d="M363.8,137.8h-31.7c-0.4,0-0.7-0.3-0.7-0.7V118c0-0.4,0.3-0.7,0.7-0.7h31.7c0.4,0,0.7,0.3,0.7,0.7v19.1
		C364.5,137.5,364.2,137.8,363.8,137.8z"/>
	<rect x="331.4" y="125.4" class="st2" width="33.1" height="2.9"/>
	<g>
		<path class="st2" d="M366.5,104.9c-0.5-3.7-5.5-4.1-8.3-3.2c-3.3,1-6.4,3.1-8.6,5.6c-0.7,0.7-1.3,1.5-1.8,2.3c0,0,0,0.1-0.1,0.1
			c-0.2,0.4-0.7,1.9-1.3,1.9h2.9c4.2,0,8.6-0.6,12.6-2C364,108.9,366.8,107.7,366.5,104.9z M362.3,107.4c-4,1.5-8.4,2.5-12.6,2.5
			c0,0,5.9-5.6,10.1-6.1c1.1-0.1,2.4-0.2,3.4,0.4C364.7,105.2,363.7,106.9,362.3,107.4z"/>
	</g>
	<g>
		<path class="st2" d="M333.8,109.6c4,1.4,8.3,2,12.6,2h2.9c-0.5,0-1-1.5-1.3-1.9c0,0,0-0.1-0.1-0.1c-0.5-0.8-1.2-1.6-1.8-2.3
			c-2.3-2.5-5.4-4.7-8.6-5.6c-2.7-0.8-7.8-0.5-8.3,3.2C328.8,107.7,331.6,108.9,333.8,109.6z M332.5,104.2c1-0.6,2.3-0.6,3.4-0.4
			c4.2,0.5,10.1,6.1,10.1,6.1c-4.2,0-8.7-1-12.6-2.5C332,106.9,330.9,105.2,332.5,104.2z"/>
	</g>
	<rect x="331.4" y="118.6" class="st5" width="33.1" height="1"/>
	<rect x="346.4" y="118.6" class="st2" width="2.9" height="19.2"/>
	<rect x="328.6" y="111.6" class="st3" width="38.5" height="7"/>
	<rect x="346.4" y="111.6" class="st2" width="2.9" height="7"/>
</g>
<g>
	<path class="st0" d="M237.3,148.1h-44.8c-2.2,0-4-1.8-4-4V99.3c0-2.2,1.8-4,4-4h44.8c2.2,0,4,1.8,4,4v44.8
		C241.4,146.3,239.6,148.1,237.3,148.1z"/>
	<path class="st1" d="M235.2,146h-44.8c-2.2,0-4-1.8-4-4V97.2c0-2.2,1.8-4,4-4h44.8c2.2,0,4,1.8,4,4V142
		C239.2,144.2,237.4,146,235.2,146z"/>
	<circle class="st2" cx="213" cy="119.5" r="19.6"/>
	<circle class="st3" cx="213" cy="119.5" r="16.9"/>
	<g>
		<g>
			<path class="st1" d="M218.5,114.4c-0.1-0.1-0.3-0.3-0.7-0.5c-0.3-0.2-0.7-0.4-1.1-0.6s-0.9-0.4-1.4-0.6s-1.1-0.3-1.6-0.3v5.1
				l0.7,0.2c1,0.3,1.9,0.6,2.8,0.9c0.8,0.3,1.5,0.7,2.1,1.2s1,1.1,1.3,1.7c0.3,0.7,0.5,1.5,0.5,2.4c0,1.1-0.2,2-0.6,2.8
				s-0.9,1.4-1.6,1.9s-1.4,0.9-2.3,1.1s-1.8,0.4-2.7,0.4v3.3h-1.8v-3.3c-1.4-0.1-2.7-0.4-4-0.9s-2.5-1.1-3.6-1.8l1.8-3.5
				c0.2,0.2,0.4,0.4,0.8,0.6c0.4,0.3,0.9,0.5,1.4,0.8c0.6,0.3,1.1,0.5,1.8,0.7s1.3,0.4,2,0.4v-5.1l-1.1-0.3c-1-0.3-1.9-0.6-2.6-0.9
				s-1.3-0.7-1.8-1.1s-0.9-1-1.1-1.5c-0.2-0.6-0.4-1.3-0.4-2.1c0-1,0.2-1.9,0.5-2.7c0.3-0.8,0.8-1.4,1.4-2c0.6-0.5,1.3-1,2.1-1.3
				c0.8-0.3,1.7-0.5,2.7-0.6v-3h1.8v3c1.3,0.1,2.5,0.4,3.5,0.8c1.1,0.4,2,1,2.9,1.5L218.5,114.4z M209.5,114.7
				c0,0.7,0.2,1.2,0.7,1.5s1.2,0.7,2.1,0.9v-4.8C210.5,112.5,209.5,113.3,209.5,114.7z M216.7,124.3c0-0.7-0.3-1.2-0.8-1.6
				c-0.6-0.4-1.3-0.7-2.3-1v4.8C215.6,126.4,216.7,125.7,216.7,124.3z"/>
		</g>
	</g>
</g>
<g>
	<g>
		<line class="st6" x1="47" y1="31.5" x2="44" y2="31.4"/>
		<line class="st7" x1="36.7" y1="31.4" x2="25.7" y2="31.2"/>
		<polyline class="st6" points="22,31.2 19,31.2 19,34.2 		"/>
		<line class="st8" x1="18.9" y1="39.8" x2="18.1" y2="115.2"/>
		<polyline class="st6" points="18,118 18,121 21,121.1 		"/>
		<line class="st7" x1="28.3" y1="121.1" x2="39.3" y2="121.3"/>
		<line class="st6" x1="43" y1="121.3" x2="46" y2="121.3"/>
	</g>
</g>
<g>
	<g>
		<line class="st6" x1="380.2" y1="31.3" x2="383.2" y2="31.3"/>
		<line class="st7" x1="390.5" y1="31.3" x2="401.5" y2="31.3"/>
		<polyline class="st6" points="405.2,31.3 408.2,31.3 408.2,34.3 		"/>
		<line class="st8" x1="408.2" y1="39.9" x2="408.2" y2="115.4"/>
		<polyline class="st6" points="408.2,118.2 408.2,121.2 405.2,121.2 		"/>
		<line class="st7" x1="397.9" y1="121.2" x2="386.9" y2="121.2"/>
		<line class="st6" x1="383.2" y1="121.2" x2="380.2" y2="121.2"/>
	</g>
</g>
<line class="st9" x1="112.5" y1="31.3" x2="180" y2="31.3"/>
<line class="st9" x1="247" y1="31.3" x2="314.5" y2="31.3"/>
<line class="st9" x1="112.5" y1="119.5" x2="180" y2="119.5"/>
<line class="st9" x1="247" y1="119.5" x2="314.5" y2="119.5"/>
<g>
	<g>
		<line class="st6" x1="77.3" y1="64.8" x2="77.3" y2="67.8"/>
		<line class="st10" x1="77.3" y1="73.7" x2="77.3" y2="82.6"/>
		<line class="st6" x1="77.3" y1="85.5" x2="77.3" y2="88.5"/>
	</g>
</g>
<g>
	<g>
		<line class="st6" x1="213" y1="64.8" x2="213" y2="67.8"/>
		<line class="st10" x1="213" y1="73.7" x2="213" y2="82.6"/>
		<line class="st6" x1="213" y1="85.5" x2="213" y2="88.5"/>
	</g>
</g>
<g>
	<g>
		<line class="st6" x1="347.9" y1="64.8" x2="347.9" y2="67.8"/>
		<line class="st10" x1="347.9" y1="73.7" x2="347.9" y2="82.6"/>
		<line class="st6" x1="347.9" y1="85.5" x2="347.9" y2="88.5"/>
	</g>
</g>
<g>
	<g>
		<line class="st6" x1="247" y1="44.5" x2="250" y2="44.5"/>
		<line class="st11" x1="255.5" y1="44.5" x2="275" y2="44.5"/>
		<polyline class="st6" points="277.8,44.5 280.8,44.5 280.8,47.5 		"/>
		<line class="st12" x1="280.8" y1="53.6" x2="280.8" y2="99.7"/>
		<polyline class="st6" points="280.8,102.8 280.8,105.8 283.8,105.8 		"/>
		<line class="st13" x1="288.9" y1="105.8" x2="306.9" y2="105.8"/>
		<line class="st6" x1="309.5" y1="105.8" x2="312.5" y2="105.8"/>
	</g>
</g>
<g>
	<g>
		<line class="st6" x1="112.9" y1="44.5" x2="115.9" y2="44.5"/>
		<line class="st11" x1="121.4" y1="44.5" x2="140.8" y2="44.5"/>
		<polyline class="st6" points="143.6,44.5 146.6,44.5 146.6,47.5 		"/>
		<line class="st12" x1="146.6" y1="53.6" x2="146.6" y2="99.7"/>
		<polyline class="st6" points="146.6,102.8 146.6,105.8 149.6,105.8 		"/>
		<line class="st13" x1="154.8" y1="105.8" x2="172.8" y2="105.8"/>
		<line class="st6" x1="175.4" y1="105.8" x2="178.4" y2="105.8"/>
	</g>
</g>
</svg>
