<?xml version="1.0" encoding="utf-8"?>
<!-- Generator: Adobe Illustrator 19.2.0, SVG Export Plug-In . SVG Version: 6.00 Build 0)  -->
<svg version="1.1" id="Layer_1" xmlns="http://www.w3.org/2000/svg" xmlns:xlink="http://www.w3.org/1999/xlink" x="0px" y="0px"
	 viewBox="0 0 471.3 238" style="enable-background:new 0 0 471.3 238;" xml:space="preserve">
<style type="text/css">
	.st0{clip-path:url(#SVGID_2_);fill:#BFB2D3;}
	.st1{clip-path:url(#SVGID_4_);fill:#EAB97A;}
	.st2{clip-path:url(#SVGID_6_);fill:#845731;}
	.st3{clip-path:url(#SVGID_8_);fill:#845731;}
	.st4{clip-path:url(#SVGID_10_);fill:#D69E63;}
	.st5{clip-path:url(#SVGID_12_);fill:#835631;}
	.st6{clip-path:url(#SVGID_14_);fill:#835631;}
	.st7{clip-path:url(#SVGID_16_);fill:#EAB97A;}
	.st8{clip-path:url(#SVGID_18_);fill:#D69E63;}
	.st9{clip-path:url(#SVGID_20_);fill:#FFFFFF;}
	.st10{clip-path:url(#SVGID_22_);fill:#D69E63;}
	.st11{clip-path:url(#SVGID_24_);fill:#020202;}
	.st12{clip-path:url(#SVGID_26_);fill:#1A2C35;}
	.st13{clip-path:url(#SVGID_28_);fill:#EAB97A;}
	.st14{clip-path:url(#SVGID_30_);fill:#7977B7;}
	.st15{clip-path:url(#SVGID_32_);fill:#FFFFFF;}
	.st16{clip-path:url(#SVGID_34_);fill:url(#SVGID_35_);}
	.st17{clip-path:url(#SVGID_37_);fill:#845731;}
	.st18{clip-path:url(#SVGID_39_);fill:#845731;}
	.st19{clip-path:url(#SVGID_41_);fill:url(#SVGID_42_);}
	.st20{clip-path:url(#SVGID_44_);fill:#020202;}
	.st21{clip-path:url(#SVGID_46_);fill:#1A2C35;}
	.st22{clip-path:url(#SVGID_48_);fill:#020202;}
	.st23{clip-path:url(#SVGID_50_);fill:#1A2C35;}
	.st24{clip-path:url(#SVGID_52_);fill:#835631;}
	.st25{clip-path:url(#SVGID_54_);fill:#835631;}
	.st26{clip-path:url(#SVGID_56_);fill:#483729;}
	.st27{clip-path:url(#SVGID_58_);fill:#483729;}
	.st28{clip-path:url(#SVGID_60_);fill:#A05D29;}
	.st29{clip-path:url(#SVGID_62_);fill:#835631;}
	.st30{clip-path:url(#SVGID_64_);fill:#835631;}
	.st31{clip-path:url(#SVGID_66_);fill:#845731;}
	.st32{clip-path:url(#SVGID_68_);fill:#845731;}
	.st33{clip-path:url(#SVGID_70_);fill:#FFF5D9;}
	.st34{clip-path:url(#SVGID_72_);fill:#FFF5D9;}
	.st35{clip-path:url(#SVGID_74_);}
	.st36{fill:#D69F63;}
	.st37{clip-path:url(#SVGID_76_);}
	.st38{fill:#845731;}
	.st39{clip-path:url(#SVGID_78_);}
	.st40{clip-path:url(#SVGID_80_);}
	.st41{clip-path:url(#SVGID_82_);}
	.st42{clip-path:url(#SVGID_84_);fill:#845731;}
	.st43{clip-path:url(#SVGID_86_);fill:#483729;}
	.st44{clip-path:url(#SVGID_88_);fill:#DCCEE0;}
	.st45{clip-path:url(#SVGID_90_);fill:#DCCEE0;}
	.st46{clip-path:url(#SVGID_92_);fill:#FFFFFF;}
	.st47{fill:none;stroke:#7977B7;stroke-miterlimit:10;}
	.st48{opacity:0.6;fill:#D4D4F4;enable-background:new    ;}
	.st49{fill:#8787C6;}
	.st50{fill:#FFFFFF;}
	.st51{fill:#D4D4F4;}
	.st52{fill:none;stroke:#FFFFFF;stroke-linecap:round;stroke-miterlimit:10;}
	.st53{fill:none;stroke:#8787C6;stroke-width:2;stroke-miterlimit:10;}
	.st54{fill:#4C4277;}
</style>
<g>
	<g>
		<g>
			<g>
				<g>
					<defs>
						<rect id="SVGID_1_" x="254.8" y="6" width="225.5" height="231.7"/>
					</defs>
					<clipPath id="SVGID_2_">
						<use xlink:href="#SVGID_1_"  style="overflow:visible;"/>
					</clipPath>
					<path class="st0" d="M433.3,228.9c-7.4-2.5-17.7-3.1-17.1-8.4c1.9-15.6,4.2-38.8,4.2-45.2c0-25.4-18-31.3-53.9-31.3
						c-60.5,0-57.4,25.2-56.3,38.8l4.2,36.2c-4.1,3.4-14.3,6.8-18.1,8.1c-5.2,1.4-9,5-9,9c0,0.7,1.5,1.4,1.8,2.2c-0.3,0,1,0,1,0v0.6
						h-1.8c2.2,2.5,7.4,6,13.4,6c6,0,11.3-3.6,13.4-6h102.3h24.4c0,0,0-2,0-2C441.9,232.7,437.6,230.4,433.3,228.9z M315.8,233.6
						c-0.3-0.6-0.6-1.2-1-1.8l1.2,0.3l0.2,1.2C315.9,233.4,315.8,233.5,315.8,233.6z"/>
				</g>
			</g>
		</g>
	</g>
	<g>
		<g>
			<g>
				<g>
					<defs>
						<rect id="SVGID_3_" x="254.8" y="6" width="225.5" height="231.7"/>
					</defs>
					<clipPath id="SVGID_4_">
						<use xlink:href="#SVGID_3_"  style="overflow:visible;"/>
					</clipPath>
					<polygon class="st1" points="405.7,178.3 417.3,229.8 416.1,237.7 398.1,237.6 395.2,184.9 					"/>
				</g>
			</g>
		</g>
	</g>
	<g>
		<g>
			<g>
				<g>
					<defs>
						<rect id="SVGID_5_" x="254.8" y="6" width="225.5" height="231.7"/>
					</defs>
					<clipPath id="SVGID_6_">
						<use xlink:href="#SVGID_5_"  style="overflow:visible;"/>
					</clipPath>
					<polygon class="st2" points="408.1,188.6 395.5,190.3 395.7,194.3 408.9,192.5 					"/>
				</g>
			</g>
		</g>
	</g>
	<g>
		<g>
			<g>
				<g>
					<defs>
						<rect id="SVGID_7_" x="254.8" y="6" width="225.5" height="231.7"/>
					</defs>
					<clipPath id="SVGID_8_">
						<use xlink:href="#SVGID_7_"  style="overflow:visible;"/>
					</clipPath>
					<polygon class="st3" points="409.7,195.7 395.9,197.3 396.1,201.4 410.5,199.8 					"/>
				</g>
			</g>
		</g>
	</g>
	<g>
		<g>
			<g>
				<g>
					<defs>
						<rect id="SVGID_9_" x="254.8" y="6" width="225.5" height="231.7"/>
					</defs>
					<clipPath id="SVGID_10_">
						<use xlink:href="#SVGID_9_"  style="overflow:visible;"/>
					</clipPath>
					<rect x="351.3" y="150.8" class="st4" width="31.8" height="21"/>
				</g>
			</g>
		</g>
	</g>
	<g>
		<g>
			<g>
				<g>
					<defs>
						<rect id="SVGID_11_" x="254.8" y="6" width="225.5" height="231.7"/>
					</defs>
					<clipPath id="SVGID_12_">
						<use xlink:href="#SVGID_11_"  style="overflow:visible;"/>
					</clipPath>
					<path class="st5" d="M345.9,62.4L284,18.2c0,0-5.4,39-4.6,51.6c0.7,11.1,3.5,23.4,11,32c7.3,8.3,19.2,9.2,27.3,1.5L345.9,62.4z
						"/>
				</g>
			</g>
		</g>
	</g>
	<g>
		<g>
			<g>
				<g>
					<defs>
						<rect id="SVGID_13_" x="254.8" y="6" width="225.5" height="231.7"/>
					</defs>
					<clipPath id="SVGID_14_">
						<use xlink:href="#SVGID_13_"  style="overflow:visible;"/>
					</clipPath>
					<path class="st6" d="M384,62.4l61.9-44.2c0,0,5.4,39,4.6,51.6c-0.7,11.1-3.5,23.4-11,32c-7.3,8.3-19.2,9.2-27.3,1.5L384,62.4z"
						/>
				</g>
			</g>
		</g>
	</g>
	<g>
		<g>
			<g>
				<g>
					<defs>
						<rect id="SVGID_15_" x="254.8" y="6" width="225.5" height="231.7"/>
					</defs>
					<clipPath id="SVGID_16_">
						<use xlink:href="#SVGID_15_"  style="overflow:visible;"/>
					</clipPath>
					<path class="st7" d="M399.2,54.2c-4.4-2.3-9.5-4-14.8-5.2c2.1-1.3,9.6-1.5,9.6-1.5s-2.1-1.4-5.3-2.1c-3.2-0.7-7.9,0.6-8,0.6
						c0,0,0.1,0,0.2-0.1l-0.2,0.1c0,0,3.8-2.2,5.2-5.2c-1.6,0.6-5.2,1.6-11.9,2.6c-13.8,2.2-29,6.7-29,6.7
						c-6.1,1.5-11.6,3.6-15.6,5.9c-28.3,16.1-45,51.6-45,51.6s22.1,46.6,80.7,46.6c57.9,0,80.5-46.6,80.5-46.6
						S425.1,67.8,399.2,54.2z"/>
				</g>
			</g>
		</g>
	</g>
	<g>
		<g>
			<g>
				<g>
					<defs>
						<rect id="SVGID_17_" x="254.8" y="6" width="225.5" height="231.7"/>
					</defs>
					<clipPath id="SVGID_18_">
						<use xlink:href="#SVGID_17_"  style="overflow:visible;"/>
					</clipPath>
					<path class="st8" d="M341.9,85.3c0,0,7.9,5.4,8.8,20.4c0,0-10.6,4-22,2c13.9-1.6,18-5.4,18-5.4
						C347.8,96.2,341.9,85.3,341.9,85.3z"/>
				</g>
			</g>
		</g>
	</g>
	<g>
		<g>
			<g>
				<g>
					<defs>
						<rect id="SVGID_19_" x="254.8" y="6" width="225.5" height="231.7"/>
					</defs>
					<clipPath id="SVGID_20_">
						<use xlink:href="#SVGID_19_"  style="overflow:visible;"/>
					</clipPath>
					<path class="st9" d="M337.1,81.9c-16.6-8.1-26.9,11.6-29.3,15.7c-0.9,1.5,6.3,5.9,8.4,6.8l0,0c8.8,4.5,25.4,3.6,31.3,1.1
						C347.5,105.6,350.2,88.2,337.1,81.9"/>
				</g>
			</g>
		</g>
	</g>
	<g>
		<g>
			<g>
				<g>
					<defs>
						<rect id="SVGID_21_" x="254.8" y="6" width="225.5" height="231.7"/>
					</defs>
					<clipPath id="SVGID_22_">
						<use xlink:href="#SVGID_21_"  style="overflow:visible;"/>
					</clipPath>
					<path class="st10" d="M387.3,85.3c0,0-7.9,5.4-8.8,20.4c0,0,10.6,4,22,2c-13.9-1.6-18-5.4-18-5.4
						C381.3,96.2,387.3,85.3,387.3,85.3z"/>
				</g>
			</g>
		</g>
	</g>
	<g>
		<g>
			<g>
				<g>
					<defs>
						<rect id="SVGID_23_" x="254.8" y="6" width="225.5" height="231.7"/>
					</defs>
					<clipPath id="SVGID_24_">
						<use xlink:href="#SVGID_23_"  style="overflow:visible;"/>
					</clipPath>
					<path class="st11" d="M388.2,92.9c-0.1,6.4,4.4,11.6,10.2,11.7s10.5-5.1,10.6-11.4c0.1-6.4-4.4-11.6-10.2-11.7
						C393.1,81.4,388.3,86.5,388.2,92.9"/>
				</g>
			</g>
		</g>
	</g>
	<g>
		<g>
			<g>
				<g>
					<defs>
						<rect id="SVGID_25_" x="254.8" y="6" width="225.5" height="231.7"/>
					</defs>
					<clipPath id="SVGID_26_">
						<use xlink:href="#SVGID_25_"  style="overflow:visible;"/>
					</clipPath>
					<path class="st12" d="M398.6,93l7.5,8.1c0,0-3.4,3.6-6.8,3.6c-5.2-0.1-8.1-3.6-8.1-3.6L398.6,93z"/>
				</g>
			</g>
		</g>
	</g>
	<g>
		<g>
			<g>
				<g>
					<defs>
						<rect id="SVGID_27_" x="254.8" y="6" width="225.5" height="231.7"/>
					</defs>
					<clipPath id="SVGID_28_">
						<use xlink:href="#SVGID_27_"  style="overflow:visible;"/>
					</clipPath>
					<polygon class="st13" points="324.8,178.3 313.6,228.9 314.5,237.7 332.6,237.6 335.4,184.9 					"/>
				</g>
			</g>
		</g>
	</g>
	<g>
		<g>
			<g>
				<g>
					<defs>
						<rect id="SVGID_29_" x="254.8" y="6" width="225.5" height="231.7"/>
					</defs>
					<clipPath id="SVGID_30_">
						<use xlink:href="#SVGID_29_"  style="overflow:visible;"/>
					</clipPath>
					<path class="st14" d="M392.5,184.2l1.2,5l17.9-8.2c0,0-5.9-11.8-11-16.9c-0.3-0.2-0.5-0.4-0.8-0.7c-0.4-0.3-0.7-0.6-1.2-0.9
						c-2.5-1.6-6.2-3.2-9.5-4.5c0,0-0.1,0-0.1-0.1c-3.9-1.5-7.3-2.6-7.3-2.6s-10.7,16.2-14.8,16.2c-4.4,0-14.8-16.2-14.8-16.2
						c-4.7,0.5-17.6,7.2-17.6,7.2c-6.7,2.8-15.3,19-15.3,19l17.8,7.6l1.6-4.2l-4.3,53.9h62l-3.8-53.1L392.5,184.2z"/>
				</g>
			</g>
		</g>
	</g>
	<g>
		<g>
			<g>
				<g>
					<defs>
						<rect id="SVGID_31_" x="254.8" y="6" width="225.5" height="231.7"/>
					</defs>
					<clipPath id="SVGID_32_">
						<use xlink:href="#SVGID_31_"  style="overflow:visible;"/>
					</clipPath>
					<path class="st15" d="M381.5,105.8c6,2.4,22,3.2,30.8-1.2l0,0c2.2-1,9.3-5.8,8.8-6.7c-2.1-4.2-13-23.4-29.7-15.6
						C378.3,88.6,381.5,105.8,381.5,105.8"/>
				</g>
			</g>
		</g>
	</g>
	<g>
		<g>
			<g>
				<g>
					<defs>
						<rect id="SVGID_33_" x="254.8" y="6" width="225.5" height="231.7"/>
					</defs>
					<clipPath id="SVGID_34_">
						<use xlink:href="#SVGID_33_"  style="overflow:visible;"/>
					</clipPath>
					
						<linearGradient id="SVGID_35_" gradientUnits="userSpaceOnUse" x1="387.1842" y1="697.8846" x2="412.7272" y2="697.8846" gradientTransform="matrix(1 0 0 1 -0.1323 -603.8655)">
						<stop  offset="0" style="stop-color:#1E9A63"/>
						<stop  offset="1" style="stop-color:#228181"/>
					</linearGradient>
					<ellipse class="st16" cx="399.8" cy="94" rx="13.1" ry="13.7"/>
				</g>
			</g>
		</g>
	</g>
	<g>
		<g>
			<g>
				<g>
					<defs>
						<rect id="SVGID_36_" x="254.8" y="6" width="225.5" height="231.7"/>
					</defs>
					<clipPath id="SVGID_37_">
						<use xlink:href="#SVGID_36_"  style="overflow:visible;"/>
					</clipPath>
					<polygon class="st17" points="322.6,188.6 335,190.3 334.9,194.3 321.7,192.5 					"/>
				</g>
			</g>
		</g>
	</g>
	<g>
		<g>
			<g>
				<g>
					<defs>
						<rect id="SVGID_38_" x="254.8" y="6" width="225.5" height="231.7"/>
					</defs>
					<clipPath id="SVGID_39_">
						<use xlink:href="#SVGID_38_"  style="overflow:visible;"/>
					</clipPath>
					<polygon class="st18" points="321,195.7 334.7,197.3 334.5,201.4 320,199.8 					"/>
				</g>
			</g>
		</g>
	</g>
	<g>
		<g>
			<g>
				<g>
					<defs>
						<rect id="SVGID_40_" x="254.8" y="6" width="225.5" height="231.7"/>
					</defs>
					<clipPath id="SVGID_41_">
						<use xlink:href="#SVGID_40_"  style="overflow:visible;"/>
					</clipPath>
					
						<linearGradient id="SVGID_42_" gradientUnits="userSpaceOnUse" x1="316.7246" y1="697.618" x2="342.2677" y2="697.618" gradientTransform="matrix(1 0 0 1 -0.1323 -603.8655)">
						<stop  offset="0" style="stop-color:#1E9A63"/>
						<stop  offset="1" style="stop-color:#228181"/>
					</linearGradient>
					<ellipse class="st19" cx="329.4" cy="93.8" rx="13.1" ry="13.7"/>
				</g>
			</g>
		</g>
	</g>
	<g>
		<g>
			<g>
				<g>
					<defs>
						<rect id="SVGID_43_" x="254.8" y="6" width="225.5" height="231.7"/>
					</defs>
					<clipPath id="SVGID_44_">
						<use xlink:href="#SVGID_43_"  style="overflow:visible;"/>
					</clipPath>
					<path class="st20" d="M338.7,94.5c0.1,5.4-3.8,10-8.8,10c-5,0.1-9-4.3-9.1-9.7c-0.1-5.4,3.8-10,8.8-10
						C334.6,84.6,338.6,89,338.7,94.5"/>
				</g>
			</g>
		</g>
	</g>
	<g>
		<g>
			<g>
				<g>
					<defs>
						<rect id="SVGID_45_" x="254.8" y="6" width="225.5" height="231.7"/>
					</defs>
					<clipPath id="SVGID_46_">
						<use xlink:href="#SVGID_45_"  style="overflow:visible;"/>
					</clipPath>
					<path class="st21" d="M329.8,94.9l-6.4,6.7c0,0,2.8,2.9,5.9,2.8c4.5-0.1,7-3,7-3L329.8,94.9z"/>
				</g>
			</g>
		</g>
	</g>
	<g>
		<g>
			<g>
				<g>
					<defs>
						<rect id="SVGID_47_" x="254.8" y="6" width="225.5" height="231.7"/>
					</defs>
					<clipPath id="SVGID_48_">
						<use xlink:href="#SVGID_47_"  style="overflow:visible;"/>
					</clipPath>
					<path class="st22" d="M408.2,94.4c0.1,5.4-3.8,10-8.8,10c-5,0.1-9-4.3-9.1-9.7c-0.1-5.4,3.8-10,8.8-10
						C404,84.6,408.1,89,408.2,94.4"/>
				</g>
			</g>
		</g>
	</g>
	<g>
		<g>
			<g>
				<g>
					<defs>
						<rect id="SVGID_49_" x="254.8" y="6" width="225.5" height="231.7"/>
					</defs>
					<clipPath id="SVGID_50_">
						<use xlink:href="#SVGID_49_"  style="overflow:visible;"/>
					</clipPath>
					<path class="st23" d="M399.2,94.9l-6.4,6.7c0,0,2.8,2.9,5.9,2.8c4.5-0.1,7-3,7-3L399.2,94.9z"/>
				</g>
			</g>
		</g>
	</g>
	<g>
		<g>
			<g>
				<g>
					<defs>
						<rect id="SVGID_51_" x="254.8" y="6" width="225.5" height="231.7"/>
					</defs>
					<clipPath id="SVGID_52_">
						<use xlink:href="#SVGID_51_"  style="overflow:visible;"/>
					</clipPath>
					<path class="st24" d="M405.7,58.2c0,0-1.5,8.4-8.5,15.2c0,0,12.7-2.2,17.8-7.4C414.9,65.9,410.4,61.3,405.7,58.2z"/>
				</g>
			</g>
		</g>
	</g>
	<g>
		<g>
			<g>
				<g>
					<defs>
						<rect id="SVGID_53_" x="254.8" y="6" width="225.5" height="231.7"/>
					</defs>
					<clipPath id="SVGID_54_">
						<use xlink:href="#SVGID_53_"  style="overflow:visible;"/>
					</clipPath>
					<path class="st25" d="M325,58.2c0,0,1.5,8.4,8.5,15.2c0,0-12.6-2.2-17.8-7.5C315.8,65.8,323.4,59.3,325,58.2z"/>
				</g>
			</g>
		</g>
	</g>
	<g>
		<g>
			<g>
				<g>
					<defs>
						<rect id="SVGID_55_" x="254.8" y="6" width="225.5" height="231.7"/>
					</defs>
					<clipPath id="SVGID_56_">
						<use xlink:href="#SVGID_55_"  style="overflow:visible;"/>
					</clipPath>
					<path class="st26" d="M332.1,54.7l1.9-0.8L284,17.7l31.8,48.3C319.6,62.6,324.8,58.2,332.1,54.7z"/>
				</g>
			</g>
		</g>
	</g>
	<g>
		<g>
			<g>
				<g>
					<defs>
						<rect id="SVGID_57_" x="254.8" y="6" width="225.5" height="231.7"/>
					</defs>
					<clipPath id="SVGID_58_">
						<use xlink:href="#SVGID_57_"  style="overflow:visible;"/>
					</clipPath>
					<path class="st27" d="M414.9,65.9l30.9-47.8L397,53l2.5,1.2C403.1,56.3,408.9,60,414.9,65.9z"/>
				</g>
			</g>
		</g>
	</g>
	<g>
		<g>
			<g>
				<g>
					<defs>
						<rect id="SVGID_59_" x="254.8" y="6" width="225.5" height="231.7"/>
					</defs>
					<clipPath id="SVGID_60_">
						<use xlink:href="#SVGID_59_"  style="overflow:visible;"/>
					</clipPath>
					<path class="st28" d="M375.7,78.9L375.7,78.9L375.7,78.9z"/>
				</g>
			</g>
		</g>
	</g>
	<g>
		<g>
			<g>
				<g>
					<defs>
						<rect id="SVGID_61_" x="254.8" y="6" width="225.5" height="231.7"/>
					</defs>
					<clipPath id="SVGID_62_">
						<use xlink:href="#SVGID_61_"  style="overflow:visible;"/>
					</clipPath>
					<path class="st29" d="M392.6,51.4c-1.3-0.4-3.5-1.1-4.1-1.2c1.1,1.1,2.7,3.3,2,6.4c-0.5,1.4-2.2,3.9-6.8,7.7
						c-3.8,2.6-10.8,8.4-6.6,14.8c0,0,0-0.6,0.1-1.6c-0.1,0.5-0.1,1-0.1,1.5c0-0.6,0.4-7.3,10.7-11.7c0.1,0,8.9-3.7,9.6-8.3
						C398.1,55.2,394.2,52.3,392.6,51.4z"/>
				</g>
			</g>
		</g>
	</g>
	<g>
		<g>
			<g>
				<g>
					<defs>
						<rect id="SVGID_63_" x="254.8" y="6" width="225.5" height="231.7"/>
					</defs>
					<clipPath id="SVGID_64_">
						<use xlink:href="#SVGID_63_"  style="overflow:visible;"/>
					</clipPath>
					<path class="st30" d="M338.1,52.2c1.3-0.4,3.5-1.1,4.1-1.2c-1.1,1.1-2.7,2.5-2,5.5c0.5,1.4,2.2,3.9,6.8,7.7
						c3.8,2.6,10.8,8.4,6.6,14.8c0,0,0-0.6-0.1-1.6c0.1,0.5,0.1,1,0.1,1.5c0-0.6-0.4-7.3-10.7-11.7c-0.1,0-8.9-3.7-9.6-8.3
						C332.8,55.2,336.5,53,338.1,52.2z"/>
				</g>
			</g>
		</g>
	</g>
	<g>
		<g>
			<g>
				<g>
					<defs>
						<rect id="SVGID_65_" x="254.8" y="6" width="225.5" height="231.7"/>
					</defs>
					<clipPath id="SVGID_66_">
						<use xlink:href="#SVGID_65_"  style="overflow:visible;"/>
					</clipPath>
					<path class="st31" d="M288.3,100.6c0,0-1.6,2.7-2.2,3.7c-0.4,0.6-1.9,3.6-1.9,3.6s1.2,1.8,2.3,3.8c1.2,2.1,4,6,4,6
						s3.1,0.1,10.8-1.5c7.5-1.5,16.4-5.2,16.4-5.2C300.6,107.3,288.3,100.6,288.3,100.6z"/>
				</g>
			</g>
		</g>
	</g>
	<g>
		<g>
			<g>
				<g>
					<defs>
						<rect id="SVGID_67_" x="254.8" y="6" width="225.5" height="231.7"/>
					</defs>
					<clipPath id="SVGID_68_">
						<use xlink:href="#SVGID_67_"  style="overflow:visible;"/>
					</clipPath>
					<path class="st32" d="M441.9,100.6c0,0,1.6,2.7,2.2,3.7c0.4,0.6,1.9,3.5,1.9,3.5s-0.7,1.4-2.3,4c-1.2,2-4,6-4,6
						s-3.1,0.1-10.8-1.5c-7.5-1.5-16.4-5.2-16.4-5.2C429.5,107.3,441.9,100.6,441.9,100.6z"/>
				</g>
			</g>
		</g>
	</g>
	<g>
		<g>
			<g>
				<g>
					<defs>
						<rect id="SVGID_69_" x="254.8" y="6" width="225.5" height="231.7"/>
					</defs>
					<clipPath id="SVGID_70_">
						<use xlink:href="#SVGID_69_"  style="overflow:visible;"/>
					</clipPath>
					<rect x="323.7" y="85.4" class="st33" width="3.4" height="3.4"/>
				</g>
			</g>
		</g>
	</g>
	<g>
		<g>
			<g>
				<g>
					<defs>
						<rect id="SVGID_71_" x="254.8" y="6" width="225.5" height="231.7"/>
					</defs>
					<clipPath id="SVGID_72_">
						<use xlink:href="#SVGID_71_"  style="overflow:visible;"/>
					</clipPath>
					<rect x="391.6" y="86.3" class="st34" width="3.4" height="4.2"/>
				</g>
			</g>
		</g>
	</g>
	<g>
		<g>
			<g>
				<g>
					<defs>
						<rect id="SVGID_73_" x="254.8" y="6" width="225.5" height="231.7"/>
					</defs>
					<clipPath id="SVGID_74_">
						<use xlink:href="#SVGID_73_"  style="overflow:visible;"/>
					</clipPath>
					<g class="st35">
						<path class="st36" d="M353.8,115.7l-1.1-0.7c0,0,1.9,4.7,4.6,6.5c3.5,2.1,8.1,3.6,8.1,3.6s7.3-3.3,9.5-5.1
							c2.9-2.4,2.9-5.1,2.9-5.1l-5.8,1.1l-4.5,2.8l-6.7-1.4L353.8,115.7z"/>
					</g>
				</g>
			</g>
		</g>
	</g>
	<g>
		<g>
			<g>
				<g>
					<defs>
						<rect id="SVGID_75_" x="254.8" y="6" width="225.5" height="231.7"/>
					</defs>
					<clipPath id="SVGID_76_">
						<use xlink:href="#SVGID_75_"  style="overflow:visible;"/>
					</clipPath>
					<g class="st37">
						<path class="st38" d="M354.8,130.5c7.1-0.4,10-3.8,10-3.8l0.7,1.4c-1.8,1-9.6,7.1-18.2,2.1c-3.4-2-4.4-6.3-4.4-6.3
							S345.9,131,354.8,130.5z"/>
					</g>
				</g>
			</g>
		</g>
	</g>
	<g>
		<g>
			<g>
				<g>
					<defs>
						<rect id="SVGID_77_" x="254.8" y="6" width="225.5" height="231.7"/>
					</defs>
					<clipPath id="SVGID_78_">
						<use xlink:href="#SVGID_77_"  style="overflow:visible;"/>
					</clipPath>
					<g class="st39">
						<path class="st38" d="M376.2,130.5c-7.1-0.4-10-3.8-10-3.8l-0.7,1.4c1.8,1,9.6,7.1,18.2,2.1c3.4-2,4.4-6.3,4.4-6.3
							S385.1,131,376.2,130.5z"/>
					</g>
				</g>
			</g>
		</g>
	</g>
	<g>
		<g>
			<g>
				<g>
					<defs>
						<rect id="SVGID_79_" x="254.8" y="6" width="225.5" height="231.7"/>
					</defs>
					<clipPath id="SVGID_80_">
						<use xlink:href="#SVGID_79_"  style="overflow:visible;"/>
					</clipPath>
					<path class="st40" d="M355.7,114.8h-2.9c0,0,0.9,2.1,2.4,3.8c1.5,1.9,3.6,2.1,3.6,2.1S354.4,116.9,355.7,114.8z"/>
				</g>
			</g>
		</g>
	</g>
	<g>
		<g>
			<g>
				<g>
					<defs>
						<rect id="SVGID_81_" x="254.8" y="6" width="225.5" height="231.7"/>
					</defs>
					<clipPath id="SVGID_82_">
						<use xlink:href="#SVGID_81_"  style="overflow:visible;"/>
					</clipPath>
					<path class="st41" d="M374.9,114.8h2.9c0,0-0.1,2.2-2.2,3.9c-1.9,1.5-3.5,2-3.5,2S377.8,116.1,374.9,114.8z"/>
				</g>
			</g>
		</g>
	</g>
	<g>
		<g>
			<g>
				<g>
					<defs>
						<rect id="SVGID_83_" x="254.8" y="6" width="225.5" height="231.7"/>
					</defs>
					<clipPath id="SVGID_84_">
						<use xlink:href="#SVGID_83_"  style="overflow:visible;"/>
					</clipPath>
					<path class="st42" d="M366.2,128.4l-0.7-0.5l-1,0.6c0,0-0.7-0.8-0.6-1c0.8-0.6,0.9-1.5,0.9-2.5c0-1.4-0.4-2.8-0.4-2.8h1.8
						c0,0-0.3,1.4-0.3,2.8c0,0.8,0.3,2,0.9,2.2C367.1,127.5,366.2,128.4,366.2,128.4z"/>
				</g>
			</g>
		</g>
	</g>
	<g>
		<g>
			<g>
				<g>
					<defs>
						<rect id="SVGID_85_" x="254.8" y="6" width="225.5" height="231.7"/>
					</defs>
					<clipPath id="SVGID_86_">
						<use xlink:href="#SVGID_85_"  style="overflow:visible;"/>
					</clipPath>
					<path class="st43" d="M352.7,114.8c0,0,2.7-1.3,4.5-1.1c1.8,0.3,4.9,2.2,8.2,2.2s5.2-2.3,8.1-2.3c2.8,0,4.4,1.2,4.4,1.2
						s-8.4,7.8-12.2,7.8C363,122.6,359.3,120.3,352.7,114.8z"/>
				</g>
			</g>
		</g>
	</g>
	<g>
		<g>
			<g>
				<g>
					<defs>
						<rect id="SVGID_87_" x="254.8" y="6" width="225.5" height="231.7"/>
					</defs>
					<clipPath id="SVGID_88_">
						<use xlink:href="#SVGID_87_"  style="overflow:visible;"/>
					</clipPath>
					<path class="st44" d="M367.2,211.2c0,0-5.6-1.3-9.9-19.8c-2.6-11.2-5.7-37.7-5.7-37.7l-5.2,3.4c0,0,6.8,33,11.1,44.6
						c4,10.8,9.6,12.9,9.6,12.9V211.2L367.2,211.2L367.2,211.2z"/>
				</g>
			</g>
		</g>
	</g>
	<g>
		<g>
			<g>
				<g>
					<defs>
						<rect id="SVGID_89_" x="254.8" y="6" width="225.5" height="231.7"/>
					</defs>
					<clipPath id="SVGID_90_">
						<use xlink:href="#SVGID_89_"  style="overflow:visible;"/>
					</clipPath>
					<path class="st45" d="M372.3,211.2c0,0,0.8-2.1,6.1-21.1c3.1-11.1,5.3-35.9,5.3-35.9l4.4,1.3c0,0-4.5,34.6-8.9,46.2
						c-4,10.8-7,17-7,17V211.2z"/>
				</g>
			</g>
		</g>
	</g>
	<g>
		<g>
			<g>
				<g>
					<defs>
						<rect id="SVGID_91_" x="254.8" y="6" width="225.5" height="231.7"/>
					</defs>
					<clipPath id="SVGID_92_">
						<use xlink:href="#SVGID_91_"  style="overflow:visible;"/>
					</clipPath>
					<rect x="361.3" y="210.4" class="st46" width="15.1" height="21"/>
				</g>
			</g>
		</g>
	</g>
</g>
<line class="st47" x1="441.8" y1="238" x2="287.8" y2="238"/>
<g>
	<path class="st48" d="M129.8,211.2H29.6c-4.9,0-8.9-4-8.9-8.9V102.1c0-4.9,4-8.9,8.9-8.9h100.2c4.9,0,8.9,4,8.9,8.9v100.2
		C138.8,207.2,134.7,211.2,129.8,211.2z"/>
	<path class="st49" d="M124.9,206.6H24.7c-4.9,0-8.9-4-8.9-8.9V97.4c0-4.9,4-8.9,8.9-8.9h100.2c4.9,0,8.9,4,8.9,8.9v100.2
		C133.8,202.5,129.8,206.6,124.9,206.6z"/>
	
		<rect x="57.4" y="139.8" transform="matrix(0.7174 -0.6967 0.6967 0.7174 -78.7708 104.297)" class="st50" width="63.5" height="18.8"/>
	
		<rect x="111.6" y="113" transform="matrix(0.7174 -0.6967 0.6967 0.7174 -52.3093 115.7862)" class="st51" width="9.8" height="18.8"/>
	<polygon class="st51" points="58.2,179 60.2,164.3 73.2,177.5 	"/>
	<path class="st52" d="M55.3,177.9c0,0-28,4.5-28.2-8.9c-0.2-13.4,34.9-19.2,38.7-27.1S52,136.3,52,136.3"/>
</g>
<g>
	<g>
		<line class="st53" x1="146.2" y1="152.4" x2="278" y2="152.4"/>
		<g>
			<polygon class="st49" points="271.4,160.6 270,159.1 277.3,152.4 270,145.7 271.4,144.3 280.2,152.4 			"/>
		</g>
	</g>
</g>
<circle class="st51" cx="209.9" cy="151.3" r="26.9"/>
<g>
	<g>
		<path class="st54" d="M218,143.7c-0.1-0.1-0.4-0.4-1-0.7c-0.4-0.3-1-0.6-1.6-0.9c-0.6-0.3-1.3-0.6-2.1-0.9
			c-0.7-0.3-1.6-0.4-2.4-0.4v7.5l1,0.3c1.5,0.4,2.8,0.9,4.1,1.3c1.2,0.4,2.2,1,3.1,1.8s1.5,1.6,1.9,2.5c0.4,1,0.7,2.2,0.7,3.5
			c0,1.6-0.3,2.9-0.9,4.1c-0.6,1.2-1.3,2.1-2.4,2.8c-1,0.7-2.1,1.3-3.4,1.6c-1.3,0.3-2.7,0.6-4,0.6v4.9h-2.7v-4.9
			c-2.1-0.1-4-0.6-5.9-1.3c-1.9-0.7-3.7-1.6-5.3-2.7l2.7-5.2c0.3,0.3,0.6,0.6,1.2,0.9c0.6,0.4,1.3,0.7,2.1,1.2
			c0.9,0.4,1.6,0.7,2.7,1c1,0.3,1.9,0.6,2.9,0.6v-7.5l-1.6-0.4c-1.5-0.4-2.8-0.9-3.8-1.3s-1.9-1-2.7-1.6s-1.3-1.5-1.6-2.2
			c-0.3-0.9-0.6-1.9-0.6-3.1c0-1.5,0.3-2.8,0.7-4c0.4-1.2,1.2-2.1,2.1-2.9c0.9-0.7,1.9-1.5,3.1-1.9s2.5-0.7,4-0.9V131h2.7v4.4
			c1.9,0.1,3.7,0.6,5.2,1.2c1.6,0.6,2.9,1.5,4.3,2.2L218,143.7z M204.7,144.1c0,1,0.3,1.8,1,2.2c0.7,0.4,1.8,1,3.1,1.3v-7.1
			C206.2,140.9,204.7,142,204.7,144.1z M215.4,158.3c0-1-0.4-1.8-1.2-2.4c-0.9-0.6-1.9-1-3.4-1.5v7.1
			C213.7,161.4,215.4,160.3,215.4,158.3z"/>
	</g>
</g>
</svg>
