<?xml version="1.0" encoding="utf-8"?>
<!-- Generator: Adobe Illustrator 19.1.1, SVG Export Plug-In . SVG Version: 6.00 Build 0)  -->
<svg version="1.1" id="Layer_1" xmlns="http://www.w3.org/2000/svg" xmlns:xlink="http://www.w3.org/1999/xlink" x="0px" y="0px"
	 viewBox="-49 164 726 233" style="enable-background:new -49 164 726 233;" xml:space="preserve">
<style type="text/css">
	.st0{filter:url(#Adobe_OpacityMaskFilter);}
	.st1{fill:url(#SVGID_2_);}
	.st2{mask:url(#SVGID_1_);}
	.st3{fill:#5A69A0;}
	.st4{fill:#C8D5ED;}
</style>
<defs>
	<filter id="Adobe_OpacityMaskFilter" filterUnits="userSpaceOnUse" x="-21" y="190" width="173" height="179">
		<feColorMatrix  type="matrix" values="1 0 0 0 0  0 1 0 0 0  0 0 1 0 0  0 0 0 1 0"/>
	</filter>
</defs>
<mask maskUnits="userSpaceOnUse" x="-21" y="190" width="173" height="179" id="SVGID_1_">
	<g class="st0">
		
			<linearGradient id="SVGID_2_" gradientUnits="userSpaceOnUse" x1="5282.0586" y1="5608.3779" x2="5477.7568" y2="5412.6797" gradientTransform="matrix(-1 0 0 -1 5443.4448 5787.3335)">
			<stop  offset="0" style="stop-color:#000000"/>
			<stop  offset="2.729893e-003" style="stop-color:#010101"/>
			<stop  offset="0.124" style="stop-color:#3C3C3C"/>
			<stop  offset="0.2478" style="stop-color:#707070"/>
			<stop  offset="0.3721" style="stop-color:#9C9C9C"/>
			<stop  offset="0.4965" style="stop-color:#C0C0C0"/>
			<stop  offset="0.6212" style="stop-color:#DBDBDB"/>
			<stop  offset="0.7463" style="stop-color:#EFEFEF"/>
			<stop  offset="0.8721" style="stop-color:#FBFBFB"/>
			<stop  offset="1" style="stop-color:#FFFFFF"/>
		</linearGradient>
		<rect x="-30.1" y="174.8" class="st1" width="187.3" height="204.1"/>
	</g>
</mask>
<g class="st2">
	<polygon class="st3" points="12,270.2 12,277 18.8,277 19.5,277 26.1,277 26.1,277 32.7,277 39,277 39,269.5 39,263 33,263 33,256 
		26,256 26,250 19.5,250 18.8,250 12,250 12,256.3 12,256.9 12,263.5 12,263.5 	"/>
	<rect x="64" y="209" class="st3" width="7" height="7"/>
	<polygon class="st3" points="35,261 42,261 42,253 35,253 35,246 27,246 27,253 35,253 	"/>
	<polygon class="st3" points="48,254 48,254.7 48,260.7 48,261.3 48,268 54.2,268 54.9,268 60.8,268 61.5,268 68.1,268 68.1,268 
		75,268 75,261 68,261 68,254 61,254 61,247 55,247 55,241 48,241 48,248.1 	"/>
	<rect x="57" y="235" class="st3" width="8" height="7"/>
	<rect x="95" y="195" class="st3" width="7" height="7"/>
	<rect x="65" y="243" class="st3" width="8" height="7"/>
	<polygon class="st3" points="133,202 133,195 129,195 129,190 121,190 121,197 125,197 125,202 	"/>
	<rect x="108" y="210" class="st3" width="8" height="7"/>
	<rect x="73" y="250" class="st3" width="7" height="8"/>
	<polygon class="st3" points="40,284.6 40,285.2 40,291.2 40,291.9 40,298.5 40,298.5 40,305 47.1,305 47.8,305 53.7,305 54.4,305 
		60.4,305 61,305 68,305 68,298.5 68,297.8 68,291 61,291 61,285 54,285 54,278 47.1,278 40,278 	"/>
	<polygon class="st3" points="56,275 56,282 63,282 63,289 71,289 71,282 63,282 63,275 	"/>
	<rect x="113" y="229" class="st3" width="8" height="7"/>
	<polygon class="st3" points="105,247 104,247 104,242 99,242 99,240 92,240 92,234 85,234 85,240.3 85,240.3 85,247.6 85,253.6 
		85,254.2 85,261 92,261 92,261 98,261 98,261 105.3,261 112,261 112,254 105,254 	"/>
	<rect x="88" y="265" class="st3" width="8" height="8"/>
	<rect x="131" y="229" class="st3" width="7" height="7"/>
	<rect x="96" y="273" class="st3" width="7" height="7"/>
	<polygon class="st3" points="152,216 145,216 145,219 144,219 144,227 152,227 152,224 152,224 	"/>
	<rect x="134" y="245" class="st3" width="8" height="7"/>
	<rect x="104" y="281" class="st3" width="7" height="7"/>
	<polygon class="st3" points="98,291 98,284 92,284 92,277 85,277 85,271 78,271 78,278.1 78,284.1 78,284.8 78,290.7 78,291.4 
		78,298 84.3,298 84.9,298 90.9,298 91.6,298 97.5,298 98.2,298 105,298 105,291 	"/>
	<rect x="85" y="304" class="st3" width="7" height="7"/>
	<rect x="130" y="275" class="st3" width="8" height="7"/>
	<rect x="92" y="311" class="st3" width="8" height="7"/>
	<polygon class="st3" points="96,319 89,319 89,313 83,313 83,306 75.4,306 69,306 69,313.5 69,319.5 69,320.1 69,326.1 69,326.8 
		69,333 76.1,333 82,333 82.7,333 88.7,333 89.3,333 96,333 96,326.1 96,326.1 	"/>
	<polygon class="st3" points="61,340 61,313 34,313 34,287 8,287 8,260 -21,260 -21,289.3 -21,289.3 -21,315.9 -21,315.9 -21,339.8 
		-21,339.8 -21,369 7.8,369 7.8,369 34.4,369 34.4,369 60.8,369 60.8,369 90,369 90,340 	"/>
</g>
<rect x="193.8" y="184.7" class="st4" width="218" height="54.7"/>
<g>
	<path class="st3" d="M228.9,212.1c0.1-2-0.5-4.2-3.2-4.2c-1.8,0-3.4,0.9-4.3,1.6l-0.6-0.9c1-0.7,2.8-1.7,5-1.7
		c3.2,0,4.2,2.3,4.2,5.2v8.6h-1l-0.1-1.7h-0.1c-1.4,1.1-3,2.1-4.8,2.1c-2.1,0-3.9-1.1-3.9-3.7C220.3,214.2,223,212.8,228.9,212.1z
		 M224.4,219.8c1.5,0,2.9-0.8,4.6-2.2v-4.6c-5.5,0.6-7.4,1.9-7.4,4.1C221.5,219.1,222.8,219.8,224.4,219.8z"/>
	<path class="st3" d="M234.8,207.1h1.2v8.4c0,2.9,0.9,4.2,3,4.2c1.6,0,2.8-0.8,4.3-2.7v-9.9h1.2v13.4h-1l-0.1-2.2h-0.1
		c-1.3,1.5-2.7,2.6-4.6,2.6c-2.8,0-4.1-1.7-4.1-5.1V207.1z"/>
	<path class="st3" d="M250.1,208.2H248v-0.9l2.1-0.1l0.2-3.9h1.1v3.9h3.9v1.1h-3.9v8.7c0,1.7,0.4,2.8,2.3,2.8c0.5,0,1.2-0.2,1.7-0.4
		l0.3,1c-0.8,0.3-1.6,0.5-2.2,0.5c-2.6,0-3.4-1.6-3.4-4.1V208.2z"/>
	<path class="st3" d="M258.5,200.5h1.2v5.8v3c1.4-1.4,2.8-2.4,4.6-2.4c2.8,0,4.1,1.7,4.1,5.1v8.6h-1.2v-8.4c0-2.9-0.9-4.2-3.1-4.2
		c-1.6,0-2.7,0.8-4.4,2.5v10.1h-1.2V200.5z"/>
	<path class="st3" d="M277.9,206.8c3.2,0,5.1,2.3,5.1,6.2c0,0.3,0,0.7-0.1,1h-9.7c0.1,3.4,2,5.8,5.1,5.8c1.5,0,2.6-0.5,3.6-1.2
		l0.5,0.9c-1.1,0.6-2.3,1.3-4.2,1.3c-3.4,0-6.2-2.6-6.2-7C272.1,209.5,275,206.8,277.9,206.8z M281.9,213.1c0-3.4-1.5-5.2-3.9-5.2
		c-2.3,0-4.3,2-4.6,5.2H281.9z"/>
	<path class="st3" d="M286.7,207.1h1.1l0.1,2.1h0.1c1.4-1.4,2.8-2.4,4.6-2.4c2.8,0,4.1,1.7,4.1,5.1v8.6h-1.2v-8.4
		c0-2.9-0.9-4.2-3.1-4.2c-1.6,0-2.7,0.8-4.4,2.5v10.1h-1.2V207.1z"/>
	<path class="st3" d="M301.9,208.2h-2.1v-0.9l2.1-0.1l0.2-3.9h1.1v3.9h3.9v1.1h-3.9v8.7c0,1.7,0.4,2.8,2.3,2.8
		c0.5,0,1.2-0.2,1.7-0.4l0.3,1c-0.8,0.3-1.6,0.5-2.2,0.5c-2.6,0-3.4-1.6-3.4-4.1V208.2z"/>
	<path class="st3" d="M309.8,202.8c0-0.7,0.5-1.1,1.1-1.1c0.6,0,1.1,0.4,1.1,1.1c0,0.6-0.5,1.1-1.1,1.1
		C310.3,203.9,309.8,203.4,309.8,202.8z M310.3,207.1h1.2v13.4h-1.2V207.1z"/>
	<path class="st3" d="M321.7,206.8c1.8,0,3,0.8,3.9,1.6l-0.7,0.9c-0.9-0.8-1.9-1.4-3.2-1.4c-2.7,0-4.9,2.4-4.9,6
		c0,3.5,1.9,5.9,4.9,5.9c1.4,0,2.7-0.7,3.6-1.5l0.6,0.8c-1.1,1-2.6,1.8-4.3,1.8c-3.5,0-6.1-2.6-6.1-7
		C315.6,209.4,318.4,206.8,321.7,206.8z"/>
	<path class="st3" d="M336.9,212.1c0.1-2-0.5-4.2-3.2-4.2c-1.8,0-3.4,0.9-4.3,1.6l-0.6-0.9c1-0.7,2.8-1.7,5-1.7
		c3.2,0,4.2,2.3,4.2,5.2v8.6h-1l-0.1-1.7h-0.1c-1.4,1.1-3,2.1-4.7,2.1c-2.1,0-3.9-1.1-3.9-3.7C328.2,214.2,330.9,212.8,336.9,212.1z
		 M332.3,219.8c1.5,0,2.9-0.8,4.6-2.2v-4.6c-5.5,0.6-7.4,1.9-7.4,4.1C329.5,219.1,330.8,219.8,332.3,219.8z"/>
	<path class="st3" d="M343.2,208.2h-2.1v-0.9l2.1-0.1l0.2-3.9h1.1v3.9h3.9v1.1h-3.9v8.7c0,1.7,0.4,2.8,2.3,2.8
		c0.5,0,1.2-0.2,1.7-0.4l0.3,1c-0.8,0.3-1.6,0.5-2.2,0.5c-2.6,0-3.4-1.6-3.4-4.1V208.2z"/>
	<path class="st3" d="M351.2,202.8c0-0.7,0.5-1.1,1.1-1.1c0.6,0,1.1,0.4,1.1,1.1c0,0.6-0.5,1.1-1.1,1.1
		C351.7,203.9,351.2,203.4,351.2,202.8z M351.6,207.1h1.2v13.4h-1.2V207.1z"/>
	<path class="st3" d="M362.9,206.8c3.2,0,6,2.6,6,7.1c0,4.4-2.8,7-6,7c-3.2,0-6-2.6-6-7C356.9,209.4,359.7,206.8,362.9,206.8z
		 M362.9,219.8c2.7,0,4.8-2.4,4.8-5.9c0-3.5-2-6-4.8-6c-2.7,0-4.7,2.4-4.7,6C358.2,217.4,360.2,219.8,362.9,219.8z"/>
	<path class="st3" d="M373,207.1h1.1l0.1,2.1h0.1c1.4-1.4,2.8-2.4,4.6-2.4c2.8,0,4.1,1.7,4.1,5.1v8.6h-1.2v-8.4
		c0-2.9-0.9-4.2-3.1-4.2c-1.6,0-2.7,0.8-4.4,2.5v10.1H373V207.1z"/>
</g>
<rect x="522.8" y="253.3" class="st4" width="128.6" height="54.7"/>
<g>
	<path class="st3" d="M547.3,286.7c1.1,0.9,2.3,1.7,4.3,1.7c2.1,0,3.2-1.2,3.2-2.7c0-1.7-1.7-2.4-3.3-3c-2-0.7-4.3-1.5-4.3-3.8
		c0-2,1.5-3.6,4.3-3.6c1.4,0,2.9,0.6,3.8,1.4l-0.7,0.9c-0.9-0.7-1.8-1.2-3.2-1.2c-2.1,0-3,1.2-3,2.4c0,1.5,1.6,2.1,3.2,2.7
		c2.1,0.8,4.4,1.5,4.4,4.1c0,2-1.6,3.8-4.5,3.8c-2,0-3.7-0.8-4.9-1.8L547.3,286.7z"/>
	<path class="st3" d="M564.6,275.4c1.8,0,3,0.8,3.9,1.6l-0.7,0.9c-0.9-0.8-1.9-1.4-3.2-1.4c-2.7,0-4.9,2.4-4.9,6
		c0,3.5,1.9,5.9,4.9,5.9c1.4,0,2.7-0.7,3.6-1.5l0.6,0.8c-1.1,1-2.6,1.8-4.3,1.8c-3.5,0-6.1-2.6-6.1-7
		C558.5,277.9,561.3,275.4,564.6,275.4z"/>
	<path class="st3" d="M579.8,280.7c0.1-2-0.5-4.2-3.2-4.2c-1.8,0-3.4,0.9-4.3,1.6l-0.6-0.9c0.9-0.7,2.8-1.7,5-1.7
		c3.2,0,4.2,2.3,4.2,5.2v8.6h-1l-0.1-1.7h-0.1c-1.4,1.1-3,2.1-4.7,2.1c-2.1,0-3.9-1.1-3.9-3.7C571.1,282.8,573.8,281.4,579.8,280.7z
		 M575.2,288.4c1.5,0,2.9-0.8,4.6-2.2v-4.6c-5.5,0.6-7.4,1.9-7.4,4.1C572.4,287.6,573.7,288.4,575.2,288.4z"/>
	<path class="st3" d="M585.8,269h1.2v18.5c0,0.6,0.3,0.9,0.6,0.9c0.1,0,0.2,0,0.5-0.1l0.2,1c-0.3,0.1-0.5,0.1-0.9,0.1
		c-1.1,0-1.6-0.7-1.6-2.1V269z"/>
	<path class="st3" d="M592,271.4c0-0.7,0.5-1.1,1.1-1.1c0.6,0,1.1,0.4,1.1,1.1c0,0.6-0.5,1.1-1.1,1.1C592.5,272.5,592,272,592,271.4
		z M592.4,275.7h1.2v13.4h-1.2V275.7z"/>
	<path class="st3" d="M598.8,275.7h1.1l0.1,2.1h0.1c1.4-1.4,2.8-2.4,4.6-2.4c2.8,0,4.1,1.7,4.1,5.1v8.6h-1.2v-8.4
		c0-2.8-0.9-4.2-3.1-4.2c-1.6,0-2.7,0.8-4.4,2.5v10.1h-1.2V275.7z"/>
	<path class="st3" d="M614.6,288.6v-0.1c-0.7-0.4-1.2-1.1-1.2-2.2c0-1.2,0.9-2,1.5-2.5v-0.1c-0.8-0.7-1.7-2.1-1.7-3.7
		c0-2.8,2.1-4.7,4.7-4.7c0.7,0,1.3,0.2,1.8,0.3h4.6v1h-3.1c0.9,0.8,1.5,2,1.5,3.4c0,2.7-2,4.7-4.7,4.7c-0.8,0-1.6-0.2-2.2-0.6
		c-0.6,0.5-1.1,1-1.1,1.9c0,1,0.6,1.8,2.6,1.8h2.9c3,0,4.4,0.9,4.4,3.1c0,2.3-2.5,4.5-6.3,4.5c-3.4,0-5.5-1.5-5.5-3.7
		C612.6,290.7,613.3,289.5,614.6,288.6z M618.2,294.6c3,0,4.9-1.7,4.9-3.4c0-1.5-1.1-2-3.1-2h-2.9c-0.3,0-1-0.1-1.7-0.2
		c-1.2,0.8-1.8,1.9-1.8,2.8C613.8,293.4,615.4,294.6,618.2,294.6z M621.4,280.1c0-2.3-1.6-3.7-3.5-3.7c-1.9,0-3.5,1.4-3.5,3.7
		c0,2.3,1.6,3.8,3.5,3.8C619.7,283.9,621.4,282.4,621.4,280.1z"/>
</g>
<rect x="194.2" y="321.3" class="st4" width="138.9" height="54.7"/>
<g>
	<path class="st3" d="M217.7,337h1.2v5.8l-0.1,2.6c1.4-1.1,3-2.1,4.6-2.1c3.6,0,5.4,2.7,5.4,6.8c0,4.6-2.8,7.2-5.9,7.2
		c-1.3,0-2.8-0.6-4-1.6h-0.1l-0.1,1.3h-1V337z M222.9,356.4c2.7,0,4.7-2.5,4.7-6.1c0-3.3-1.2-5.8-4.2-5.8c-1.3,0-2.8,0.8-4.4,2.2v8
		C220.4,355.9,221.8,356.4,222.9,356.4z"/>
	<path class="st3" d="M240.3,348.7c0.1-2-0.5-4.2-3.2-4.2c-1.8,0-3.4,0.9-4.3,1.6l-0.6-0.9c1-0.7,2.8-1.7,5-1.7
		c3.2,0,4.2,2.3,4.2,5.2v8.6h-1l-0.1-1.7h-0.1c-1.4,1.1-3,2.1-4.8,2.1c-2.1,0-3.9-1.1-3.9-3.7C231.7,350.8,234.4,349.4,240.3,348.7z
		 M235.8,356.4c1.5,0,2.9-0.8,4.6-2.2v-4.6c-5.5,0.6-7.4,1.9-7.4,4.1C233,355.6,234.3,356.4,235.8,356.4z"/>
	<path class="st3" d="M251.4,343.4c1.8,0,3,0.8,3.9,1.6l-0.7,0.9c-0.9-0.8-1.9-1.4-3.2-1.4c-2.7,0-4.9,2.4-4.9,6
		c0,3.5,1.9,5.9,4.9,5.9c1.4,0,2.7-0.7,3.6-1.5l0.6,0.8c-1.1,1-2.6,1.8-4.3,1.8c-3.5,0-6.1-2.6-6.1-7
		C245.3,345.9,248.1,343.4,251.4,343.4z"/>
	<path class="st3" d="M258.9,337h1.2v14.8h0.1l6.6-8.1h1.4l-4.4,5.3l5.1,8.1h-1.4l-4.4-7.2l-3,3.5v3.7h-1.2V337z"/>
	<path class="st3" d="M271.4,343.7h1.2v8.4c0,2.9,0.9,4.2,3,4.2c1.6,0,2.8-0.8,4.3-2.7v-9.9h1.2v13.4h-1l-0.1-2.2H280
		c-1.3,1.5-2.7,2.6-4.6,2.6c-2.8,0-4.1-1.7-4.1-5.1V343.7z"/>
	<path class="st3" d="M287.6,358.3v4.9h-1.2v-19.5h1.1l0.1,1.7h0.1c1.3-1,2.9-2,4.6-2c3.6,0,5.4,2.7,5.4,6.8c0,4.6-2.8,7.2-5.9,7.2
		c-1.3,0-2.6-0.6-4-1.6V358.3z M291.6,356.4c2.7,0,4.7-2.5,4.7-6.1c0-3.3-1.2-5.8-4.2-5.8c-1.3,0-2.8,0.8-4.4,2.2v8
		C289.1,355.9,290.5,356.4,291.6,356.4z"/>
	<path class="st3" d="M300.6,354.7c1.1,0.9,2.3,1.7,4.3,1.7c2.1,0,3.2-1.2,3.2-2.7c0-1.7-1.7-2.4-3.3-3c-2-0.7-4.3-1.5-4.3-3.8
		c0-2,1.5-3.6,4.3-3.6c1.4,0,2.9,0.6,3.8,1.4l-0.7,0.9c-0.9-0.7-1.8-1.2-3.2-1.2c-2.1,0-3,1.2-3,2.4c0,1.5,1.6,2.1,3.2,2.7
		c2.1,0.8,4.4,1.5,4.4,4.1c0,2-1.6,3.8-4.5,3.8c-2,0-3.7-0.8-4.9-1.8L300.6,354.7z"/>
</g>
<rect x="346.9" y="321.3" class="st4" width="162.4" height="54.7"/>
<g>
	<path class="st3" d="M373.1,343.4c3.2,0,5.1,2.3,5.1,6.2c0,0.3,0,0.7-0.1,1h-9.7c0.1,3.4,2,5.8,5.1,5.8c1.5,0,2.6-0.5,3.6-1.2
		l0.5,1c-1.1,0.6-2.3,1.3-4.2,1.3c-3.4,0-6.2-2.6-6.2-7C367.3,346,370.2,343.4,373.1,343.4z M377.1,349.6c0-3.4-1.5-5.2-3.9-5.2
		c-2.3,0-4.3,2-4.6,5.2H377.1z"/>
	<path class="st3" d="M381.9,343.7h1.1l0.1,2.1h0.1c1.4-1.4,2.8-2.4,4.6-2.4c2.8,0,4.1,1.7,4.1,5.1v8.6h-1.2v-8.4
		c0-2.9-0.9-4.2-3.1-4.2c-1.6,0-2.7,0.8-4.4,2.5v10.1h-1.2V343.7z"/>
	<path class="st3" d="M401.8,343.4c1.8,0,3,0.8,3.9,1.6l-0.7,0.9c-0.9-0.8-1.9-1.4-3.2-1.4c-2.7,0-4.9,2.4-4.9,6
		c0,3.5,1.9,5.9,4.9,5.9c1.4,0,2.7-0.7,3.6-1.5l0.6,0.8c-1.1,1-2.6,1.8-4.3,1.8c-3.5,0-6.1-2.6-6.1-7
		C395.7,345.9,398.5,343.4,401.8,343.4z"/>
	<path class="st3" d="M409.3,343.7h1.1l0.1,2.5h0.1c0.9-1.6,2.2-2.8,3.8-2.8c0.5,0,0.9,0.1,1.3,0.3l-0.3,1.1
		c-0.4-0.2-0.7-0.2-1.2-0.2c-1.2,0-2.6,0.9-3.7,3.4v9.1h-1.2V343.7z"/>
	<path class="st3" d="M418.4,362.1c1.6,0,2.8-1.5,3.4-3.5l0.4-1.2l-5.5-13.7h1.3l3.2,8.4c0.4,1.1,0.9,2.6,1.5,3.7h0.1
		c0.4-1.2,0.9-2.6,1.2-3.7l2.9-8.4h1.3l-5.3,15.1c-0.8,2.2-2.1,4.4-4.5,4.4c-0.5,0-1-0.1-1.4-0.3l0.3-1.1
		C417.6,362,418,362.1,418.4,362.1z"/>
	<path class="st3" d="M432.4,358.3v4.9h-1.2v-19.5h1.1l0.1,1.7h0.1c1.3-1,2.9-2,4.6-2c3.6,0,5.4,2.7,5.4,6.8c0,4.6-2.8,7.2-5.9,7.2
		c-1.3,0-2.6-0.6-4-1.6V358.3z M436.3,356.4c2.7,0,4.7-2.5,4.7-6.1c0-3.3-1.2-5.8-4.2-5.8c-1.3,0-2.8,0.8-4.4,2.2v8
		C433.9,355.9,435.3,356.4,436.3,356.4z"/>
	<path class="st3" d="M446.6,344.8h-2.1v-0.9l2.1-0.1l0.2-3.9h1.1v3.9h3.9v1.1h-3.9v8.7c0,1.7,0.4,2.9,2.3,2.9
		c0.5,0,1.2-0.2,1.7-0.4l0.3,1c-0.8,0.3-1.6,0.5-2.2,0.5c-2.6,0-3.4-1.6-3.4-4.1V344.8z"/>
	<path class="st3" d="M454.6,339.4c0-0.7,0.5-1.1,1.1-1.1c0.6,0,1.1,0.4,1.1,1.1c0,0.6-0.5,1.1-1.1,1.1
		C455.1,340.5,454.6,340,454.6,339.4z M455.1,343.7h1.2v13.4h-1.2V343.7z"/>
	<path class="st3" d="M466.3,343.4c3.2,0,6,2.6,6,7.1c0,4.4-2.8,7-6,7c-3.2,0-6-2.6-6-7C460.3,345.9,463.1,343.4,466.3,343.4z
		 M466.3,356.4c2.7,0,4.8-2.4,4.8-5.9c0-3.5-2-6-4.8-6c-2.7,0-4.7,2.4-4.7,6C461.6,354,463.6,356.4,466.3,356.4z"/>
	<path class="st3" d="M476.4,343.7h1.1l0.1,2.1h0.1c1.4-1.4,2.8-2.4,4.6-2.4c2.8,0,4.1,1.7,4.1,5.1v8.6h-1.2v-8.4
		c0-2.9-0.9-4.2-3.1-4.2c-1.6,0-2.7,0.8-4.4,2.5v10.1h-1.2V343.7z"/>
</g>
<rect x="423.8" y="184.7" class="st4" width="198" height="54.7"/>
<g>
	<path class="st3" d="M457.6,212.1c0.1-2-0.5-4.2-3.2-4.2c-1.8,0-3.4,0.9-4.3,1.6l-0.6-0.9c0.9-0.7,2.8-1.7,5-1.7
		c3.2,0,4.2,2.3,4.2,5.2v8.6h-1l-0.1-1.7h-0.1c-1.4,1.1-3,2.1-4.7,2.1c-2.1,0-3.9-1.1-3.9-3.7C449,214.2,451.7,212.8,457.6,212.1z
		 M453.1,219.8c1.5,0,2.9-0.8,4.6-2.2v-4.6c-5.5,0.6-7.4,1.9-7.4,4.1C450.2,219.1,451.5,219.8,453.1,219.8z"/>
	<path class="st3" d="M463.5,207.1h1.2v8.4c0,2.9,0.9,4.2,3,4.2c1.6,0,2.8-0.8,4.3-2.7v-9.9h1.2v13.4h-1l-0.1-2.2h-0.1
		c-1.3,1.5-2.7,2.6-4.6,2.6c-2.8,0-4.1-1.7-4.1-5.1V207.1z"/>
	<path class="st3" d="M478.8,208.2h-2.1v-0.9l2.1-0.1l0.2-3.9h1.1v3.9h3.9v1.1H480v8.7c0,1.7,0.4,2.8,2.3,2.8c0.5,0,1.2-0.2,1.7-0.4
		l0.3,1c-0.8,0.3-1.6,0.5-2.2,0.5c-2.6,0-3.4-1.6-3.4-4.1V208.2z"/>
	<path class="st3" d="M487.2,200.5h1.2v5.8v3c1.4-1.4,2.8-2.4,4.6-2.4c2.8,0,4.1,1.7,4.1,5.1v8.6h-1.2v-8.4c0-2.9-0.9-4.2-3.1-4.2
		c-1.6,0-2.7,0.8-4.4,2.5v10.1h-1.2V200.5z"/>
	<path class="st3" d="M506.8,206.8c3.2,0,6,2.6,6,7.1c0,4.4-2.8,7-6,7c-3.2,0-6-2.6-6-7C500.8,209.4,503.6,206.8,506.8,206.8z
		 M506.8,219.8c2.7,0,4.8-2.4,4.8-5.9c0-3.5-2-6-4.8-6c-2.7,0-4.7,2.4-4.7,6C502.1,217.4,504.1,219.8,506.8,219.8z"/>
	<path class="st3" d="M516.9,207.1h1.1l0.1,2.5h0.1c0.9-1.6,2.2-2.8,3.8-2.8c0.5,0,0.9,0.1,1.3,0.3l-0.3,1.1
		c-0.4-0.2-0.7-0.2-1.2-0.2c-1.2,0-2.6,0.9-3.7,3.4v9.1h-1.2V207.1z"/>
	<path class="st3" d="M525.3,202.8c0-0.7,0.5-1.1,1.1-1.1c0.6,0,1.1,0.4,1.1,1.1c0,0.6-0.5,1.1-1.1,1.1
		C525.8,203.9,525.3,203.4,525.3,202.8z M525.7,207.1h1.2v13.4h-1.2V207.1z"/>
	<path class="st3" d="M530.3,219.9l7.9-11.7h-7.1v-1.1h8.7v0.6l-7.9,11.7h8.2v1.1h-9.8V219.9z"/>
	<path class="st3" d="M550.5,212.1c0.1-2-0.5-4.2-3.2-4.2c-1.8,0-3.4,0.9-4.3,1.6l-0.6-0.9c0.9-0.7,2.8-1.7,5-1.7
		c3.2,0,4.2,2.3,4.2,5.2v8.6h-1l-0.1-1.7h-0.1c-1.4,1.1-3,2.1-4.7,2.1c-2.1,0-3.9-1.1-3.9-3.7C541.9,214.2,544.6,212.8,550.5,212.1z
		 M546,219.8c1.5,0,2.9-0.8,4.6-2.2v-4.6c-5.5,0.6-7.4,1.9-7.4,4.1C543.2,219.1,544.5,219.8,546,219.8z"/>
	<path class="st3" d="M556.9,208.2h-2.1v-0.9l2.1-0.1l0.2-3.9h1.1v3.9h3.9v1.1h-3.9v8.7c0,1.7,0.4,2.8,2.3,2.8
		c0.5,0,1.2-0.2,1.7-0.4l0.3,1c-0.8,0.3-1.6,0.5-2.2,0.5c-2.6,0-3.4-1.6-3.4-4.1V208.2z"/>
	<path class="st3" d="M564.8,202.8c0-0.7,0.5-1.1,1.1-1.1c0.6,0,1.1,0.4,1.1,1.1c0,0.6-0.5,1.1-1.1,1.1
		C565.3,203.9,564.8,203.4,564.8,202.8z M565.3,207.1h1.2v13.4h-1.2V207.1z"/>
	<path class="st3" d="M576.6,206.8c3.2,0,6,2.6,6,7.1c0,4.4-2.8,7-6,7c-3.2,0-6-2.6-6-7C570.6,209.4,573.4,206.8,576.6,206.8z
		 M576.6,219.8c2.7,0,4.8-2.4,4.8-5.9c0-3.5-2-6-4.8-6c-2.7,0-4.7,2.4-4.7,6C571.9,217.4,573.9,219.8,576.6,219.8z"/>
	<path class="st3" d="M586.7,207.1h1.1l0.1,2.1h0.1c1.4-1.4,2.8-2.4,4.6-2.4c2.8,0,4.1,1.7,4.1,5.1v8.6h-1.2v-8.4
		c0-2.9-0.9-4.2-3.1-4.2c-1.6,0-2.7,0.8-4.4,2.5v10.1h-1.2V207.1z"/>
</g>
<rect x="194.2" y="253.3" class="st4" width="313.9" height="54.7"/>
<g>
	<path class="st3" d="M221.6,275.4c1.6,0,2.7,0.6,4.1,1.6l-0.1-2.5V269h1.2v20.1h-1.1l-0.1-1.7h-0.1c-1.1,1.1-2.6,2.1-4.4,2.1
		c-3.4,0-5.6-2.5-5.6-7C215.6,278.1,218.4,275.4,221.6,275.4z M221.4,288.4c1.5,0,2.8-0.8,4.2-2.2v-8c-1.4-1.3-2.6-1.7-3.9-1.7
		c-2.7,0-4.7,2.6-4.7,6C216.9,286,218.5,288.4,221.4,288.4z"/>
	<path class="st3" d="M236.8,275.4c3.2,0,6,2.6,6,7.1c0,4.4-2.8,7-6,7c-3.2,0-6-2.6-6-7C230.8,277.9,233.6,275.4,236.8,275.4z
		 M236.8,288.4c2.7,0,4.7-2.4,4.7-5.9c0-3.5-2-6-4.7-6s-4.7,2.4-4.7,6C232.1,286,234.1,288.4,236.8,288.4z"/>
	<path class="st3" d="M251.9,275.4c1.8,0,3,0.8,3.9,1.6l-0.7,0.9c-0.9-0.8-1.9-1.4-3.2-1.4c-2.7,0-4.9,2.4-4.9,6
		c0,3.5,1.9,5.9,4.9,5.9c1.4,0,2.7-0.7,3.6-1.5l0.6,0.8c-1.1,1-2.6,1.8-4.3,1.8c-3.5,0-6.1-2.6-6.1-7
		C245.8,277.9,248.6,275.4,251.9,275.4z"/>
	<path class="st3" d="M259.3,275.7h1.2v8.4c0,2.9,0.9,4.2,3,4.2c1.6,0,2.8-0.8,4.3-2.7v-9.9h1.2v13.4h-1l-0.1-2.2h-0.1
		c-1.3,1.5-2.7,2.6-4.6,2.6c-2.8,0-4.1-1.7-4.1-5.1V275.7z"/>
	<path class="st3" d="M274.2,275.7h1.1l0.1,2.1h0.1c1.2-1.4,2.7-2.4,4.2-2.4c2.2,0,3.2,1.1,3.7,2.7c1.5-1.7,3-2.7,4.6-2.7
		c2.7,0,4,1.7,4,5.1v8.6h-1.3v-8.4c0-2.8-1-4.2-3-4.2c-1.3,0-2.5,0.8-4,2.5v10.1h-1.2v-8.4c0-2.8-0.9-4.2-3-4.2
		c-1.2,0-2.5,0.8-4,2.5v10.1h-1.2V275.7z"/>
	<path class="st3" d="M301.6,275.4c3.2,0,5.1,2.3,5.1,6.2c0,0.3,0,0.7-0.1,1h-9.7c0.1,3.4,2,5.8,5.1,5.8c1.5,0,2.6-0.5,3.6-1.2
		l0.5,1c-1.1,0.6-2.3,1.3-4.2,1.3c-3.4,0-6.2-2.6-6.2-7C295.8,278.1,298.7,275.4,301.6,275.4z M305.6,281.6c0-3.4-1.5-5.2-3.9-5.2
		c-2.3,0-4.3,2-4.6,5.2H305.6z"/>
	<path class="st3" d="M310.4,275.7h1.1l0.1,2.1h0.1c1.4-1.4,2.8-2.4,4.6-2.4c2.8,0,4.1,1.7,4.1,5.1v8.6h-1.2v-8.4
		c0-2.8-0.9-4.2-3.1-4.2c-1.6,0-2.7,0.8-4.4,2.5v10.1h-1.2V275.7z"/>
	<path class="st3" d="M325.6,276.8h-2.1v-1l2.1-0.1l0.2-3.9h1.1v3.9h3.9v1.1h-3.9v8.7c0,1.7,0.4,2.9,2.3,2.9c0.5,0,1.2-0.2,1.7-0.4
		l0.3,1c-0.8,0.3-1.6,0.5-2.2,0.5c-2.6,0-3.4-1.6-3.4-4.1V276.8z"/>
	<path class="st3" d="M339.6,275.7h1.1l0.1,2.1h0.1c1.2-1.4,2.7-2.4,4.2-2.4c2.2,0,3.2,1.1,3.7,2.7c1.5-1.7,3-2.7,4.6-2.7
		c2.7,0,4,1.7,4,5.1v8.6h-1.3v-8.4c0-2.8-0.9-4.2-3-4.2c-1.3,0-2.5,0.8-4,2.5v10.1h-1.2v-8.4c0-2.8-1-4.2-3-4.2
		c-1.2,0-2.5,0.8-4,2.5v10.1h-1.2V275.7z"/>
	<path class="st3" d="M370.2,280.7c0.1-2-0.5-4.2-3.2-4.2c-1.8,0-3.4,0.9-4.3,1.6l-0.6-0.9c0.9-0.7,2.8-1.7,5-1.7
		c3.2,0,4.2,2.3,4.2,5.2v8.6h-1l-0.1-1.7h-0.1c-1.4,1.1-3,2.1-4.7,2.1c-2.1,0-3.9-1.1-3.9-3.7C361.5,282.8,364.2,281.4,370.2,280.7z
		 M365.6,288.4c1.5,0,2.9-0.8,4.6-2.2v-4.6c-5.5,0.6-7.4,1.9-7.4,4.1C362.8,287.6,364.1,288.4,365.6,288.4z"/>
	<path class="st3" d="M376.2,275.7h1.1l0.1,2.1h0.1c1.4-1.4,2.8-2.4,4.6-2.4c2.8,0,4.1,1.7,4.1,5.1v8.6h-1.2v-8.4
		c0-2.8-0.9-4.2-3.1-4.2c-1.6,0-2.7,0.8-4.4,2.5v10.1h-1.2V275.7z"/>
	<path class="st3" d="M399,280.7c0.1-2-0.5-4.2-3.2-4.2c-1.8,0-3.4,0.9-4.3,1.6l-0.6-0.9c0.9-0.7,2.8-1.7,5-1.7
		c3.2,0,4.2,2.3,4.2,5.2v8.6h-1l-0.1-1.7H399c-1.4,1.1-3,2.1-4.7,2.1c-2.1,0-3.9-1.1-3.9-3.7C390.3,282.8,393,281.4,399,280.7z
		 M394.4,288.4c1.5,0,2.9-0.8,4.6-2.2v-4.6c-5.5,0.6-7.4,1.9-7.4,4.1C391.6,287.6,392.9,288.4,394.4,288.4z"/>
	<path class="st3" d="M405.9,288.6v-0.1c-0.7-0.4-1.2-1.1-1.2-2.2c0-1.2,0.9-2,1.5-2.5v-0.1c-0.8-0.7-1.7-2.1-1.7-3.7
		c0-2.8,2.1-4.7,4.7-4.7c0.7,0,1.3,0.2,1.8,0.3h4.6v1h-3.1c0.9,0.8,1.5,2,1.5,3.4c0,2.7-2,4.7-4.7,4.7c-0.8,0-1.6-0.2-2.2-0.6
		c-0.6,0.5-1.1,1-1.1,1.9c0,1,0.6,1.8,2.6,1.8h2.9c3,0,4.4,0.9,4.4,3.1c0,2.3-2.5,4.5-6.3,4.5c-3.4,0-5.5-1.5-5.5-3.7
		C403.9,290.7,404.7,289.5,405.9,288.6z M409.5,294.6c3,0,4.9-1.7,4.9-3.4c0-1.5-1.1-2-3.1-2h-2.9c-0.3,0-1-0.1-1.7-0.2
		c-1.2,0.8-1.8,1.9-1.8,2.8C405.1,293.4,406.7,294.6,409.5,294.6z M412.7,280.1c0-2.3-1.6-3.7-3.5-3.7c-1.9,0-3.5,1.4-3.5,3.7
		c0,2.3,1.6,3.8,3.5,3.8C411.1,283.9,412.7,282.4,412.7,280.1z"/>
	<path class="st3" d="M423,275.4c3.2,0,5.1,2.3,5.1,6.2c0,0.3,0,0.7-0.1,1h-9.7c0.1,3.4,2,5.8,5.1,5.8c1.5,0,2.6-0.5,3.6-1.2l0.5,1
		c-1.1,0.6-2.3,1.3-4.2,1.3c-3.4,0-6.2-2.6-6.2-7C417.2,278.1,420.1,275.4,423,275.4z M427,281.6c0-3.4-1.5-5.2-3.9-5.2
		c-2.3,0-4.3,2-4.6,5.2H427z"/>
	<path class="st3" d="M431.8,275.7h1.1l0.1,2.1h0.1c1.2-1.4,2.7-2.4,4.2-2.4c2.2,0,3.2,1.1,3.7,2.7c1.5-1.7,3-2.7,4.6-2.7
		c2.7,0,4,1.7,4,5.1v8.6h-1.3v-8.4c0-2.8-0.9-4.2-3-4.2c-1.3,0-2.5,0.8-4,2.5v10.1h-1.2v-8.4c0-2.8-1-4.2-3-4.2
		c-1.2,0-2.5,0.8-4,2.5v10.1h-1.2V275.7z"/>
	<path class="st3" d="M459.2,275.4c3.2,0,5.1,2.3,5.1,6.2c0,0.3,0,0.7-0.1,1h-9.7c0.1,3.4,2,5.8,5.1,5.8c1.5,0,2.6-0.5,3.6-1.2
		l0.5,1c-1.1,0.6-2.3,1.3-4.2,1.3c-3.4,0-6.2-2.6-6.2-7C453.4,278.1,456.2,275.4,459.2,275.4z M463.2,281.6c0-3.4-1.5-5.2-3.9-5.2
		c-2.3,0-4.3,2-4.6,5.2H463.2z"/>
	<path class="st3" d="M468,275.7h1.1l0.1,2.1h0.1c1.4-1.4,2.8-2.4,4.6-2.4c2.8,0,4.1,1.7,4.1,5.1v8.6h-1.2v-8.4
		c0-2.8-0.9-4.2-3.1-4.2c-1.6,0-2.7,0.8-4.4,2.5v10.1H468V275.7z"/>
	<path class="st3" d="M483.2,276.8h-2.1v-1l2.1-0.1l0.2-3.9h1.1v3.9h3.9v1.1h-3.9v8.7c0,1.7,0.4,2.9,2.3,2.9c0.5,0,1.2-0.2,1.7-0.4
		l0.3,1c-0.8,0.3-1.6,0.5-2.2,0.5c-2.6,0-3.4-1.6-3.4-4.1V276.8z"/>
</g>
</svg>
