<?xml version="1.0" encoding="utf-8"?>
<!-- Generator: Adobe Illustrator 19.2.0, SVG Export Plug-In . SVG Version: 6.00 Build 0)  -->
<svg version="1.1" id="Layer_1" xmlns="http://www.w3.org/2000/svg" xmlns:xlink="http://www.w3.org/1999/xlink" x="0px" y="0px"
	 viewBox="0 0 661 274" style="enable-background:new 0 0 661 274;" xml:space="preserve">
<style type="text/css">
	.st0{fill:#4C4277;}
	.st1{fill:#FFFFFF;stroke:#C8D5ED;stroke-miterlimit:10;}
	.st2{fill:#5A69A0;}
</style>
<g>
	<polygon class="st0" points="60.6,116.8 60.6,124.8 68.6,124.8 69.4,124.8 77.1,124.8 77.1,124.8 84.8,124.8 92.2,124.8 92.2,116 
		92.2,108.4 85.2,108.4 85.2,100.2 77,100.2 77,93.2 69.4,93.2 68.6,93.2 60.6,93.2 60.6,100.6 60.6,101.3 60.6,109 60.6,109 	"/>
	<rect x="121.4" y="45.2" class="st0" width="8.2" height="8.2"/>
	<polygon class="st0" points="87.5,106.1 95.7,106.1 95.7,96.7 87.5,96.7 87.5,88.5 78.2,88.5 78.2,96.7 87.5,96.7 	"/>
	<polygon class="st0" points="102.7,97.9 102.7,98.7 102.7,105.7 102.7,106.4 102.7,114.3 110,114.3 110.8,114.3 117.7,114.3 
		118.5,114.3 126.2,114.3 126.2,114.3 134.3,114.3 134.3,106.1 126.1,106.1 126.1,97.9 117.9,97.9 117.9,89.7 110.9,89.7 
		110.9,82.7 102.7,82.7 102.7,91 	"/>
	<rect x="113.3" y="75.7" class="st0" width="9.4" height="8.2"/>
	<rect x="157.7" y="28.9" class="st0" width="8.2" height="8.2"/>
	<rect x="122.6" y="85" class="st0" width="9.4" height="8.2"/>
	<polygon class="st0" points="202.2,37.1 202.2,28.9 197.5,28.9 197.5,23 188.1,23 188.1,31.2 192.8,31.2 192.8,37.1 	"/>
	<rect x="172.9" y="46.4" class="st0" width="9.4" height="8.2"/>
	<rect x="132" y="93.2" class="st0" width="8.2" height="9.4"/>
	<polygon class="st0" points="93.4,133.7 93.4,134.4 93.4,141.4 93.4,142.2 93.4,150 93.4,150 93.4,157.6 101.7,157.6 102.5,157.6 
		109.4,157.6 110.2,157.6 117.2,157.6 117.9,157.6 126.1,157.6 126.1,150 126.1,149.1 126.1,141.2 117.9,141.2 117.9,134.2 
		109.7,134.2 109.7,126 101.7,126 93.4,126 	"/>
	<polygon class="st0" points="112.1,122.5 112.1,130.7 120.3,130.7 120.3,138.8 129.6,138.8 129.6,130.7 120.3,130.7 120.3,122.5 	
		"/>
	<rect x="178.8" y="68.6" class="st0" width="9.4" height="8.2"/>
	<polygon class="st0" points="169.4,89.7 168.2,89.7 168.2,83.9 162.4,83.9 162.4,81.5 154.2,81.5 154.2,74.5 146,74.5 146,81.9 
		146,81.9 146,90.4 146,97.4 146,98.1 146,106.1 154.2,106.1 154.2,106.1 161.2,106.1 161.2,106.1 169.8,106.1 177.6,106.1 
		177.6,97.9 169.4,97.9 	"/>
	<rect x="149.5" y="110.8" class="st0" width="9.4" height="9.4"/>
	<rect x="199.8" y="68.6" class="st0" width="8.2" height="8.2"/>
	<rect x="158.9" y="120.1" class="st0" width="8.2" height="8.2"/>
	<polygon class="st0" points="224.4,53.4 216.2,53.4 216.2,56.9 215,56.9 215,66.3 224.4,66.3 224.4,62.8 224.4,62.8 	"/>
	<rect x="203.3" y="87.4" class="st0" width="9.4" height="8.2"/>
	<rect x="168.2" y="129.5" class="st0" width="8.2" height="8.2"/>
	<polygon class="st0" points="161.2,141.2 161.2,133 154.2,133 154.2,124.8 146,124.8 146,117.8 137.8,117.8 137.8,126.1 
		137.8,133.1 137.8,133.9 137.8,140.8 137.8,141.6 137.8,149.4 145.2,149.4 145.9,149.4 152.9,149.4 153.7,149.4 160.6,149.4 
		161.4,149.4 169.4,149.4 169.4,141.2 	"/>
	<rect x="146" y="156.4" class="st0" width="8.2" height="8.2"/>
	<rect x="198.7" y="122.5" class="st0" width="9.4" height="8.2"/>
	<rect x="154.2" y="164.6" class="st0" width="9.4" height="8.2"/>
	<polygon class="st0" points="158.9,173.9 150.7,173.9 150.7,166.9 143.7,166.9 143.7,158.7 134.8,158.7 127.3,158.7 127.3,167.5 
		127.3,174.5 127.3,175.3 127.3,182.4 127.3,183.1 127.3,190.3 135.6,190.3 142.5,190.3 143.3,190.3 150.3,190.3 151,190.3 
		158.9,190.3 158.9,182.4 158.9,182.4 	"/>
	<polygon class="st0" points="117.9,198.5 117.9,166.9 86.3,166.9 86.3,136.5 55.9,136.5 55.9,104.9 22,104.9 22,139.2 22,139.2 
		22,170.3 22,170.3 22,198.3 22,198.3 22,232.4 55.7,232.4 55.7,232.4 86.8,232.4 86.8,232.4 117.7,232.4 117.7,232.4 151.9,232.4 
		151.9,198.5 	"/>
</g>
<rect x="241.1" y="67.8" class="st1" width="188.9" height="47.4"/>
<g>
	<path class="st2" d="M271.5,91.6c0.1-1.7-0.4-3.6-2.8-3.6c-1.6,0-2.9,0.8-3.7,1.4l-0.5-0.8c0.9-0.6,2.4-1.5,4.3-1.5
		c2.8,0,3.6,2,3.6,4.5V99h-0.9l-0.1-1.5h-0.1c-1.2,1-2.6,1.8-4.2,1.8c-1.8,0-3.4-1-3.4-3.2C264.1,93.4,266.4,92.2,271.5,91.6z
		 M267.6,98.2c1.3,0,2.5-0.7,4-1.9v-4c-4.8,0.5-6.4,1.6-6.4,3.6C265.1,97.6,266.2,98.2,267.6,98.2z"/>
	<path class="st2" d="M276.6,87.2h1v7.3c0,2.5,0.8,3.6,2.6,3.6c1.4,0,2.4-0.7,3.7-2.3v-8.6h1v11.6h-0.9l-0.1-1.9H284
		c-1.1,1.3-2.3,2.3-4,2.3c-2.4,0-3.6-1.5-3.6-4.4v-7.5C276.5,87.2,276.6,87.2,276.6,87.2z"/>
	<path class="st2" d="M289.9,88.2h-1.8v-0.8l1.8-0.1l0.2-3.4h1v3.4h3.4v1H291v7.5c0,1.5,0.3,2.4,2,2.4c0.4,0,1-0.2,1.5-0.3l0.3,0.9
		c-0.7,0.3-1.4,0.4-1.9,0.4c-2.3,0-2.9-1.4-2.9-3.6V88.2L289.9,88.2z"/>
	<path class="st2" d="M297.2,81.5h1v5v2.6c1.2-1.2,2.4-2.1,4-2.1c2.4,0,3.6,1.5,3.6,4.4v7.5h-1v-7.3c0-2.5-0.8-3.6-2.7-3.6
		c-1.4,0-2.3,0.7-3.8,2.2v8.8h-1V81.5z"/>
	<path class="st2" d="M314,87c2.8,0,4.4,2,4.4,5.4c0,0.3,0,0.6-0.1,0.9h-8.5c0.1,2.9,1.7,5,4.4,5c1.3,0,2.3-0.4,3.1-1l0.4,0.8
		c-1,0.5-2,1.1-3.6,1.1c-2.9,0-5.4-2.3-5.4-6.1C309,89.3,311.5,87,314,87z M317.5,92.4c0-2.9-1.3-4.5-3.4-4.5c-2,0-3.7,1.7-4,4.5
		H317.5z"/>
	<path class="st2" d="M321.6,87.2h1l0.1,1.8h0.1c1.2-1.2,2.4-2.1,4-2.1c2.4,0,3.6,1.5,3.6,4.4v7.5h-1v-7.3c0-2.5-0.8-3.6-2.7-3.6
		c-1.4,0-2.3,0.7-3.8,2.2v8.8h-1L321.6,87.2L321.6,87.2z"/>
	<path class="st2" d="M334.8,88.2H333v-0.8l1.8-0.1l0.2-3.4h1v3.4h3.4v1h-3.4v7.5c0,1.5,0.3,2.4,2,2.4c0.4,0,1-0.2,1.5-0.3l0.3,0.9
		c-0.7,0.3-1.4,0.4-1.9,0.4c-2.3,0-2.9-1.4-2.9-3.6V88.2z"/>
	<path class="st2" d="M341.6,83.5c0-0.6,0.4-1,1-1c0.5,0,1,0.3,1,1c0,0.5-0.4,1-1,1C342,84.5,341.6,84,341.6,83.5z M342,87.2h1v11.6
		h-1V87.2z"/>
	<path class="st2" d="M352,87c1.6,0,2.6,0.7,3.4,1.4l-0.6,0.8c-0.8-0.7-1.6-1.2-2.8-1.2c-2.3,0-4.2,2.1-4.2,5.2c0,3,1.6,5.1,4.2,5.1
		c1.2,0,2.3-0.6,3.1-1.3l0.5,0.7c-1,0.9-2.3,1.6-3.7,1.6c-3,0-5.3-2.3-5.3-6.1C346.7,89.2,349.1,87,352,87z"/>
	<path class="st2" d="M365.1,91.6c0.1-1.7-0.4-3.6-2.8-3.6c-1.6,0-2.9,0.8-3.7,1.4l-0.5-0.8c0.9-0.6,2.4-1.5,4.3-1.5
		c2.8,0,3.6,2,3.6,4.5V99h-0.9l-0.1-1.5H365c-1.2,1-2.6,1.8-4.1,1.8c-1.8,0-3.4-1-3.4-3.2C357.6,93.4,359.9,92.2,365.1,91.6z
		 M361,98.2c1.3,0,2.5-0.7,4-1.9v-4c-4.8,0.5-6.4,1.6-6.4,3.6C358.7,97.6,359.7,98.2,361,98.2z"/>
	<path class="st2" d="M370.6,88.2h-1.8v-0.8l1.8-0.1l0.2-3.4h1v3.4h3.4v1h-3.4v7.5c0,1.5,0.3,2.4,2,2.4c0.4,0,1-0.2,1.5-0.3l0.3,0.9
		c-0.7,0.3-1.4,0.4-1.9,0.4c-2.3,0-2.9-1.4-2.9-3.6V88.2z"/>
	<path class="st2" d="M377.5,83.5c0-0.6,0.4-1,1-1c0.5,0,1,0.3,1,1c0,0.5-0.4,1-1,1C377.9,84.5,377.5,84,377.5,83.5z M377.9,87.2h1
		v11.6h-1V87.2z"/>
	<path class="st2" d="M387.7,87c2.8,0,5.2,2.3,5.2,6.2c0,3.8-2.4,6.1-5.2,6.1s-5.2-2.3-5.2-6.1C382.5,89.2,384.9,87,387.7,87z
		 M387.7,98.2c2.3,0,4.2-2.1,4.2-5.1s-1.7-5.2-4.2-5.2c-2.3,0-4.1,2.1-4.1,5.2C383.6,96.2,385.3,98.2,387.7,98.2z"/>
	<path class="st2" d="M396.4,87.2h1l0.1,1.8h0.1c1.2-1.2,2.4-2.1,4-2.1c2.4,0,3.6,1.5,3.6,4.4v7.5h-1v-7.3c0-2.5-0.8-3.6-2.7-3.6
		c-1.4,0-2.3,0.7-3.8,2.2v8.8h-1.1L396.4,87.2L396.4,87.2z"/>
</g>
<rect x="526.2" y="127.3" class="st1" width="111.4" height="47.4"/>
<g>
	<path class="st2" d="M547.4,156.2c1,0.8,2,1.5,3.7,1.5c1.8,0,2.8-1,2.8-2.3c0-1.5-1.5-2.1-2.9-2.6c-1.7-0.6-3.7-1.3-3.7-3.3
		c0-1.7,1.3-3.1,3.7-3.1c1.2,0,2.5,0.5,3.3,1.2l-0.6,0.8c-0.8-0.6-1.6-1-2.8-1c-1.8,0-2.6,1-2.6,2.1c0,1.3,1.4,1.8,2.8,2.3
		c1.8,0.7,3.8,1.3,3.8,3.6c0,1.7-1.4,3.3-3.9,3.3c-1.7,0-3.2-0.7-4.2-1.6L547.4,156.2z"/>
	<path class="st2" d="M562.4,146.4c1.6,0,2.6,0.7,3.4,1.4l-0.6,0.8c-0.8-0.7-1.6-1.2-2.8-1.2c-2.3,0-4.2,2.1-4.2,5.2
		c0,3,1.6,5.1,4.2,5.1c1.2,0,2.3-0.6,3.1-1.3l0.5,0.7c-1,0.9-2.3,1.6-3.7,1.6c-3,0-5.3-2.3-5.3-6.1
		C557.2,148.6,559.6,146.4,562.4,146.4z"/>
	<path class="st2" d="M575.6,151c0.1-1.7-0.4-3.6-2.8-3.6c-1.6,0-2.9,0.8-3.7,1.4l-0.5-0.8c0.8-0.6,2.4-1.5,4.3-1.5
		c2.8,0,3.6,2,3.6,4.5v7.5h-0.9l-0.1-1.5h-0.1c-1.2,1-2.6,1.8-4.1,1.8c-1.8,0-3.4-1-3.4-3.2C568.1,152.8,570.4,151.6,575.6,151z
		 M571.6,157.7c1.3,0,2.5-0.7,4-1.9v-4c-4.8,0.5-6.4,1.6-6.4,3.6C569.2,157,570.3,157.7,571.6,157.7z"/>
	<path class="st2" d="M580.8,140.9h1v16c0,0.5,0.3,0.8,0.5,0.8c0.1,0,0.2,0,0.4-0.1l0.2,0.9c-0.3,0.1-0.4,0.1-0.8,0.1
		c-1,0-1.4-0.6-1.4-1.8V140.9z"/>
	<path class="st2" d="M586.2,143c0-0.6,0.4-1,1-1c0.5,0,1,0.3,1,1c0,0.5-0.4,1-1,1C586.6,143.9,586.2,143.5,586.2,143z M586.5,146.7
		h1v11.6h-1V146.7z"/>
	<path class="st2" d="M592.1,146.7h1l0.1,1.8h0.1c1.2-1.2,2.4-2.1,4-2.1c2.4,0,3.6,1.5,3.6,4.4v7.5h-1V151c0-2.4-0.8-3.6-2.7-3.6
		c-1.4,0-2.3,0.7-3.8,2.2v8.8h-1L592.1,146.7L592.1,146.7z"/>
	<path class="st2" d="M605.8,157.9L605.8,157.9c-0.6-0.4-1-1-1-2c0-1,0.8-1.7,1.3-2.2v-0.1c-0.7-0.6-1.5-1.8-1.5-3.2
		c0-2.4,1.8-4.1,4.1-4.1c0.6,0,1.1,0.2,1.6,0.3h4v0.9h-2.8c0.8,0.7,1.3,1.7,1.3,2.9c0,2.3-1.7,4.1-4.1,4.1c-0.7,0-1.4-0.2-1.9-0.5
		c-0.5,0.4-1,0.9-1,1.6c0,0.9,0.5,1.6,2.3,1.6h2.5c2.6,0,3.8,0.8,3.8,2.7c0,2-2.2,3.9-5.5,3.9c-2.9,0-4.8-1.3-4.8-3.2
		C604,159.7,604.6,158.6,605.8,157.9z M608.9,163.1c2.6,0,4.2-1.5,4.2-2.9c0-1.3-1-1.7-2.7-1.7h-2.5c-0.3,0-0.9-0.1-1.5-0.2
		c-1,0.7-1.6,1.6-1.6,2.4C605.1,162,606.5,163.1,608.9,163.1z M611.7,150.5c0-2-1.4-3.2-3-3.2s-3,1.2-3,3.2c0,2,1.4,3.3,3,3.3
		C610.2,153.8,611.7,152.5,611.7,150.5z"/>
</g>
<rect x="241.5" y="186.2" class="st1" width="120.4" height="47.4"/>
<g>
	<path class="st2" d="M261.8,199.8h1v5l-0.1,2.3c1.2-1,2.6-1.8,4-1.8c3.1,0,4.7,2.3,4.7,5.9c0,4-2.4,6.2-5.1,6.2
		c-1.1,0-2.4-0.5-3.5-1.4h-0.1l-0.1,1.1h-0.9V199.8L261.8,199.8z M266.3,216.6c2.3,0,4.1-2.2,4.1-5.3c0-2.9-1-5-3.6-5
		c-1.1,0-2.4,0.7-3.8,1.9v6.9C264.2,216.2,265.4,216.6,266.3,216.6z"/>
	<path class="st2" d="M281.4,210c0.1-1.7-0.4-3.6-2.8-3.6c-1.6,0-2.9,0.8-3.7,1.4l-0.5-0.8c0.9-0.6,2.4-1.5,4.3-1.5
		c2.8,0,3.6,2,3.6,4.5v7.5h-0.9l-0.1-1.5h-0.2c-1.2,1-2.6,1.8-4.2,1.8c-1.8,0-3.4-1-3.4-3.2C274,211.8,276.3,210.5,281.4,210z
		 M277.5,216.6c1.3,0,2.5-0.7,4-1.9v-4c-4.8,0.5-6.4,1.6-6.4,3.6C275.1,216,276.2,216.6,277.5,216.6z"/>
	<path class="st2" d="M291,205.4c1.6,0,2.6,0.7,3.4,1.4l-0.6,0.8c-0.8-0.7-1.6-1.2-2.8-1.2c-2.3,0-4.2,2.1-4.2,5.2
		c0,3,1.6,5.1,4.2,5.1c1.2,0,2.3-0.6,3.1-1.3l0.5,0.7c-1,0.9-2.3,1.6-3.7,1.6c-3,0-5.3-2.3-5.3-6.1
		C285.7,207.5,288.2,205.4,291,205.4z"/>
	<path class="st2" d="M297.5,199.8h1v12.8h0.1l5.7-7h1.2l-3.8,4.6l4.4,7H305l-3.8-6.2l-2.6,3v3.2h-1L297.5,199.8L297.5,199.8z"/>
	<path class="st2" d="M308.4,205.7h1v7.3c0,2.5,0.8,3.6,2.6,3.6c1.4,0,2.4-0.7,3.7-2.3v-8.6h1v11.6h-0.9l-0.1-1.9l0,0
		c-1.1,1.3-2.3,2.3-4,2.3c-2.4,0-3.6-1.5-3.6-4.4L308.4,205.7L308.4,205.7z"/>
	<path class="st2" d="M322.4,218.3v4.2h-1v-16.9h1l0.1,1.5h0.1c1.1-0.9,2.5-1.7,4-1.7c3.1,0,4.7,2.3,4.7,5.9c0,4-2.4,6.2-5.1,6.2
		c-1.1,0-2.3-0.5-3.5-1.4v2.2H322.4L322.4,218.3z M325.9,216.6c2.3,0,4.1-2.2,4.1-5.3c0-2.9-1-5-3.6-5c-1.1,0-2.4,0.7-3.8,1.9v6.9
		C323.7,216.2,324.9,216.6,325.9,216.6z"/>
	<path class="st2" d="M333.7,215.2c1,0.8,2,1.5,3.7,1.5c1.8,0,2.8-1,2.8-2.3c0-1.5-1.5-2.1-2.9-2.6c-1.7-0.6-3.7-1.3-3.7-3.3
		c0-1.7,1.3-3.1,3.7-3.1c1.2,0,2.5,0.5,3.3,1.2l-0.6,0.8c-0.8-0.6-1.6-1-2.8-1c-1.8,0-2.6,1-2.6,2.1c0,1.3,1.4,1.8,2.8,2.3
		c1.8,0.7,3.8,1.3,3.8,3.6c0,1.7-1.4,3.3-3.9,3.3c-1.7,0-3.2-0.7-4.2-1.6L333.7,215.2z"/>
</g>
<rect x="373.8" y="186.2" class="st1" width="140.7" height="47.4"/>
<g>
	<path class="st2" d="M396.5,205.4c2.8,0,4.4,2,4.4,5.4c0,0.3,0,0.6-0.1,0.9h-8.4c0.1,2.9,1.7,5,4.4,5c1.3,0,2.3-0.4,3.1-1l0.4,0.9
		c-1,0.5-2,1.1-3.6,1.1c-2.9,0-5.4-2.3-5.4-6.1C391.4,207.6,394,205.4,396.5,205.4z M400,210.8c0-2.9-1.3-4.5-3.4-4.5
		c-2,0-3.7,1.7-4,4.5H400z"/>
	<path class="st2" d="M404.1,205.7h1l0.1,1.8h0.1c1.2-1.2,2.4-2.1,4-2.1c2.4,0,3.6,1.5,3.6,4.4v7.5h-1V210c0-2.5-0.8-3.6-2.7-3.6
		c-1.4,0-2.3,0.7-3.8,2.2v8.8h-1L404.1,205.7L404.1,205.7L404.1,205.7z"/>
	<path class="st2" d="M421.3,205.4c1.6,0,2.6,0.7,3.4,1.4l-0.6,0.8c-0.8-0.7-1.6-1.2-2.8-1.2c-2.3,0-4.2,2.1-4.2,5.2
		c0,3,1.6,5.1,4.2,5.1c1.2,0,2.3-0.6,3.1-1.3l0.5,0.7c-1,0.9-2.3,1.6-3.7,1.6c-3,0-5.3-2.3-5.3-6.1
		C416.1,207.5,418.5,205.4,421.3,205.4z"/>
	<path class="st2" d="M427.8,205.7h1l0.1,2.2h0.1c0.8-1.4,1.9-2.4,3.3-2.4c0.4,0,0.8,0.1,1.1,0.3l-0.3,1c-0.3-0.2-0.6-0.2-1-0.2
		c-1,0-2.3,0.8-3.2,2.9v7.9h-1L427.8,205.7L427.8,205.7z"/>
	<path class="st2" d="M435.7,221.6c1.4,0,2.4-1.3,2.9-3l0.3-1l-4.8-11.9h1.1l2.8,7.3c0.3,1,0.8,2.3,1.3,3.2h0.1c0.3-1,0.8-2.3,1-3.2
		l2.5-7.3h1.1l-4.6,13.1c-0.7,1.9-1.8,3.8-3.9,3.8c-0.4,0-0.9-0.1-1.2-0.3l0.3-1C435.1,221.5,435.4,221.6,435.7,221.6z"/>
	<path class="st2" d="M447.9,218.3v4.2h-1.1v-16.9h1l0.1,1.5h0.1c1.1-0.9,2.5-1.7,4-1.7c3.1,0,4.7,2.3,4.7,5.9c0,4-2.4,6.2-5.1,6.2
		c-1.1,0-2.3-0.5-3.5-1.4L447.9,218.3L447.9,218.3L447.9,218.3z M451.2,216.6c2.3,0,4.1-2.2,4.1-5.3c0-2.9-1-5-3.6-5
		c-1.1,0-2.4,0.7-3.8,1.9v6.9C449.2,216.2,450.3,216.6,451.2,216.6z"/>
	<path class="st2" d="M460.2,206.6h-1.8v-0.8l1.8-0.1l0.2-3.4h1v3.4h3.4v1h-3.4v7.5c0,1.5,0.3,2.5,2,2.5c0.4,0,1-0.2,1.5-0.3
		l0.3,0.9c-0.7,0.3-1.4,0.4-1.9,0.4c-2.3,0-2.9-1.4-2.9-3.6V206.6z"/>
	<path class="st2" d="M467.1,201.9c0-0.6,0.4-1,1-1s1,0.3,1,1c0,0.5-0.4,1-1,1S467.1,202.4,467.1,201.9z M467.5,205.7h1v11.6h-1
		V205.7z"/>
	<path class="st2" d="M477.3,205.4c2.8,0,5.2,2.3,5.2,6.2c0,3.8-2.4,6.1-5.2,6.1s-5.2-2.3-5.2-6.1
		C472,207.5,474.5,205.4,477.3,205.4z M477.3,216.6c2.3,0,4.2-2.1,4.2-5.1s-1.7-5.2-4.2-5.2c-2.3,0-4.1,2.1-4.1,5.2
		C473.2,214.5,474.9,216.6,477.3,216.6z"/>
	<path class="st2" d="M486,205.7h1l0.1,1.8h0.1c1.2-1.2,2.4-2.1,4-2.1c2.4,0,3.6,1.5,3.6,4.4v7.5h-1V210c0-2.5-0.8-3.6-2.7-3.6
		c-1.4,0-2.3,0.7-3.8,2.2v8.8h-1L486,205.7L486,205.7L486,205.7z"/>
</g>
<rect x="440.3" y="67.8" class="st1" width="171.6" height="47.4"/>
<g>
	<path class="st2" d="M469.7,91.6c0.1-1.7-0.4-3.6-2.8-3.6c-1.6,0-2.9,0.8-3.7,1.4l-0.5-0.8c0.8-0.6,2.4-1.5,4.3-1.5
		c2.8,0,3.6,2,3.6,4.5V99h-0.9l-0.1-1.5h-0.1c-1.2,1-2.6,1.8-4.1,1.8c-1.8,0-3.4-1-3.4-3.2C462.3,93.4,464.6,92.2,469.7,91.6z
		 M465.8,98.2c1.3,0,2.5-0.7,4-1.9v-4c-4.8,0.5-6.4,1.6-6.4,3.6C463.3,97.6,464.4,98.2,465.8,98.2z"/>
	<path class="st2" d="M474.8,87.2h1v7.3c0,2.5,0.8,3.6,2.6,3.6c1.4,0,2.4-0.7,3.7-2.3v-8.6h1v11.6h-0.9l-0.1-1.9h-0.1
		c-1.1,1.3-2.3,2.3-4,2.3c-2.4,0-3.6-1.5-3.6-4.4v-7.5C474.7,87.2,474.8,87.2,474.8,87.2z"/>
	<path class="st2" d="M488.1,88.2h-1.8v-0.8l1.8-0.1l0.2-3.4h1v3.4h3.4v1h-3.5v7.5c0,1.5,0.3,2.4,2,2.4c0.4,0,1-0.2,1.5-0.3l0.3,0.9
		c-0.7,0.3-1.4,0.4-1.9,0.4c-2.3,0-2.9-1.4-2.9-3.6L488.1,88.2C488,88.2,488.1,88.2,488.1,88.2z"/>
	<path class="st2" d="M495.4,81.5h1v5v2.6c1.2-1.2,2.4-2.1,4-2.1c2.4,0,3.6,1.5,3.6,4.4v7.5h-1v-7.3c0-2.5-0.8-3.6-2.7-3.6
		c-1.4,0-2.3,0.7-3.8,2.2v8.8h-1L495.4,81.5L495.4,81.5z"/>
	<path class="st2" d="M512.4,87c2.8,0,5.2,2.3,5.2,6.2c0,3.8-2.4,6.1-5.2,6.1c-2.8,0-5.2-2.3-5.2-6.1C507.2,89.2,509.6,87,512.4,87z
		 M512.4,98.2c2.3,0,4.2-2.1,4.2-5.1s-1.7-5.2-4.2-5.2c-2.3,0-4.1,2.1-4.1,5.2C508.3,96.2,510,98.2,512.4,98.2z"/>
	<path class="st2" d="M521.1,87.2h1l0.1,2.2h0.1c0.8-1.4,1.9-2.4,3.3-2.4c0.4,0,0.8,0.1,1.1,0.3l-0.3,1c-0.3-0.2-0.6-0.2-1-0.2
		c-1,0-2.3,0.8-3.2,2.9v7.9h-1L521.1,87.2L521.1,87.2z"/>
	<path class="st2" d="M528.4,83.5c0-0.6,0.4-1,1-1s1,0.3,1,1c0,0.5-0.4,1-1,1S528.4,84,528.4,83.5z M528.7,87.2h1v11.6h-1V87.2z"/>
	<path class="st2" d="M532.7,98.3l6.8-10.1h-6.2v-1h7.5v0.5l-6.8,10.1h7.1v1h-8.5V98.3L532.7,98.3z"/>
	<path class="st2" d="M550.2,91.6c0.1-1.7-0.4-3.6-2.8-3.6c-1.6,0-2.9,0.8-3.7,1.4l-0.5-0.8c0.8-0.6,2.4-1.5,4.3-1.5
		c2.8,0,3.6,2,3.6,4.5V99h-0.9l-0.1-1.5h-0.1c-1.2,1-2.6,1.8-4.1,1.8c-1.8,0-3.4-1-3.4-3.2C542.8,93.4,545.1,92.2,550.2,91.6z
		 M546.3,98.2c1.3,0,2.5-0.7,4-1.9v-4c-4.8,0.5-6.4,1.6-6.4,3.6C543.9,97.6,545,98.2,546.3,98.2z"/>
	<path class="st2" d="M555.8,88.2h-1.8v-0.8l1.8-0.1l0.2-3.4h1v3.4h3.4v1h-3.4v7.5c0,1.5,0.3,2.4,2,2.4c0.4,0,1-0.2,1.5-0.3l0.3,0.9
		c-0.7,0.3-1.4,0.4-1.9,0.4c-2.3,0-2.9-1.4-2.9-3.6L555.8,88.2L555.8,88.2z"/>
	<path class="st2" d="M562.6,83.5c0-0.6,0.4-1,1-1c0.5,0,1,0.3,1,1c0,0.5-0.4,1-1,1C563,84.5,562.6,84,562.6,83.5z M563,87.2h1v11.6
		h-1V87.2z"/>
	<path class="st2" d="M572.8,87c2.8,0,5.2,2.3,5.2,6.2c0,3.8-2.4,6.1-5.2,6.1c-2.8,0-5.2-2.3-5.2-6.1C567.6,89.2,570.1,87,572.8,87z
		 M572.8,98.2c2.3,0,4.2-2.1,4.2-5.1s-1.7-5.2-4.2-5.2c-2.3,0-4.1,2.1-4.1,5.2C568.8,96.2,570.5,98.2,572.8,98.2z"/>
	<path class="st2" d="M581.6,87.2h1l0.1,1.8h0.1c1.2-1.2,2.4-2.1,4-2.1c2.4,0,3.6,1.5,3.6,4.4v7.5h-1v-7.3c0-2.5-0.8-3.6-2.7-3.6
		c-1.4,0-2.3,0.7-3.8,2.2v8.8h-1L581.6,87.2L581.6,87.2z"/>
</g>
<rect x="241.5" y="127.3" class="st1" width="272" height="47.4"/>
<g>
	<path class="st2" d="M265.2,146.4c1.4,0,2.3,0.5,3.6,1.4l-0.1-2.2v-4.8h1v17.4h-1l-0.1-1.5h-0.1c-1,1-2.3,1.8-3.8,1.8
		c-2.9,0-4.9-2.2-4.9-6.1C260,148.8,262.4,146.4,265.2,146.4z M265,157.7c1.3,0,2.4-0.7,3.6-1.9v-6.9c-1.2-1.1-2.3-1.5-3.4-1.5
		c-2.3,0-4.1,2.3-4.1,5.2C261.1,155.6,262.5,157.7,265,157.7z"/>
	<path class="st2" d="M278.4,146.4c2.8,0,5.2,2.3,5.2,6.2c0,3.8-2.4,6.1-5.2,6.1c-2.8,0-5.2-2.3-5.2-6.1
		C273.2,148.6,275.6,146.4,278.4,146.4z M278.4,157.7c2.3,0,4.1-2.1,4.1-5.1s-1.7-5.2-4.1-5.2c-2.3,0-4.1,2.1-4.1,5.2
		C274.3,155.6,276,157.7,278.4,157.7z"/>
	<path class="st2" d="M291.5,146.4c1.6,0,2.6,0.7,3.4,1.4l-0.6,0.8c-0.8-0.7-1.6-1.2-2.8-1.2c-2.3,0-4.2,2.1-4.2,5.2
		c0,3,1.6,5.1,4.2,5.1c1.2,0,2.3-0.6,3.1-1.3l0.5,0.7c-1,0.9-2.3,1.6-3.7,1.6c-3,0-5.3-2.3-5.3-6.1
		C286.2,148.6,288.6,146.4,291.5,146.4z"/>
	<path class="st2" d="M297.8,146.7h1v7.3c0,2.5,0.8,3.6,2.6,3.6c1.4,0,2.4-0.7,3.7-2.3v-8.6h1v11.6h-0.9l-0.1-1.9h-0.1
		c-1.1,1.3-2.3,2.3-4,2.3c-2.4,0-3.6-1.5-3.6-4.4v-7.5C297.6,146.7,297.8,146.7,297.8,146.7z"/>
	<path class="st2" d="M310.8,146.7h1l0.1,1.8h0.1c1-1.2,2.3-2.1,3.6-2.1c1.9,0,2.8,1,3.2,2.3c1.3-1.5,2.6-2.3,4-2.3
		c2.3,0,3.5,1.5,3.5,4.4v7.5h-1.1V151c0-2.4-0.9-3.6-2.6-3.6c-1.1,0-2.2,0.7-3.5,2.2v8.8h-1V151c0-2.4-0.8-3.6-2.6-3.6
		c-1,0-2.2,0.7-3.5,2.2v8.8h-1L310.8,146.7C310.9,146.7,310.8,146.7,310.8,146.7z"/>
	<path class="st2" d="M334.5,146.4c2.8,0,4.4,2,4.4,5.4c0,0.3,0,0.6-0.1,0.9h-8.4c0.1,2.9,1.7,5,4.4,5c1.3,0,2.3-0.4,3.1-1l0.4,0.9
		c-1,0.5-2,1.1-3.6,1.1c-2.9,0-5.4-2.3-5.4-6.1C329.4,148.8,332,146.4,334.5,146.4z M338,151.8c0-2.9-1.3-4.5-3.4-4.5
		c-2,0-3.7,1.7-4,4.5H338z"/>
	<path class="st2" d="M342.2,146.7h1l0.1,1.8h0.1c1.2-1.2,2.4-2.1,4-2.1c2.4,0,3.6,1.5,3.6,4.4v7.5h-1V151c0-2.4-0.8-3.6-2.7-3.6
		c-1.4,0-2.3,0.7-3.8,2.2v8.8h-1L342.2,146.7C342.2,146.7,342.2,146.7,342.2,146.7z"/>
	<path class="st2" d="M355.3,147.6h-1.8v-0.9l1.8-0.1l0.2-3.4h1v3.4h3.4v1h-3.4v7.5c0,1.5,0.3,2.5,2,2.5c0.4,0,1-0.2,1.5-0.3
		l0.3,0.9c-0.7,0.3-1.4,0.4-1.9,0.4c-2.3,0-2.9-1.4-2.9-3.6V147.6z"/>
	<path class="st2" d="M367.5,146.7h1l0.1,1.8h0.1c1-1.2,2.3-2.1,3.6-2.1c1.9,0,2.8,1,3.2,2.3c1.3-1.5,2.6-2.3,4-2.3
		c2.3,0,3.5,1.5,3.5,4.4v7.5h-1.1V151c0-2.4-0.8-3.6-2.6-3.6c-1.1,0-2.2,0.7-3.5,2.2v8.8h-1V151c0-2.4-0.9-3.6-2.6-3.6
		c-1,0-2.2,0.7-3.5,2.2v8.8h-1L367.5,146.7C367.5,146.7,367.5,146.7,367.5,146.7z"/>
	<path class="st2" d="M394,151c0.1-1.7-0.4-3.6-2.8-3.6c-1.6,0-2.9,0.8-3.7,1.4L387,148c0.8-0.6,2.4-1.5,4.3-1.5
		c2.8,0,3.6,2,3.6,4.5v7.5h-0.9L394,157h-0.1c-1.2,1-2.6,1.8-4.1,1.8c-1.8,0-3.4-1-3.4-3.2C386.4,152.8,388.8,151.6,394,151z
		 M390,157.7c1.3,0,2.5-0.7,4-1.9v-4c-4.8,0.5-6.4,1.6-6.4,3.6C387.5,157,388.7,157.7,390,157.7z"/>
	<path class="st2" d="M399.2,146.7h1l0.1,1.8h0.1c1.2-1.2,2.4-2.1,4-2.1c2.4,0,3.6,1.5,3.6,4.4v7.5h-1V151c0-2.4-0.8-3.6-2.7-3.6
		c-1.4,0-2.3,0.7-3.8,2.2v8.8h-1L399.2,146.7C399.3,146.7,399.2,146.7,399.2,146.7z"/>
	<path class="st2" d="M418.9,151c0.1-1.7-0.4-3.6-2.8-3.6c-1.6,0-2.9,0.8-3.7,1.4l-0.5-0.8c0.8-0.6,2.4-1.5,4.3-1.5
		c2.8,0,3.6,2,3.6,4.5v7.5H419l-0.1-1.5l0,0c-1.2,1-2.6,1.8-4.1,1.8c-1.8,0-3.4-1-3.4-3.2C411.3,152.8,413.7,151.6,418.9,151z
		 M414.9,157.7c1.3,0,2.5-0.7,4-1.9v-4c-4.8,0.5-6.4,1.6-6.4,3.6C412.5,157,413.6,157.7,414.9,157.7z"/>
	<path class="st2" d="M424.9,157.9L424.9,157.9c-0.6-0.4-1-1-1-2c0-1,0.8-1.7,1.3-2.2v-0.1c-0.7-0.6-1.5-1.8-1.5-3.2
		c0-2.4,1.8-4.1,4.1-4.1c0.6,0,1.1,0.2,1.6,0.3h4v0.9h-2.7c0.8,0.7,1.3,1.7,1.3,2.9c0,2.3-1.7,4.1-4.1,4.1c-0.7,0-1.4-0.2-1.9-0.5
		c-0.5,0.4-1,0.9-1,1.6c0,0.9,0.5,1.6,2.3,1.6h2.5c2.6,0,3.8,0.8,3.8,2.7c0,2-2.2,3.9-5.5,3.9c-2.9,0-4.8-1.3-4.8-3.2
		C423.2,159.7,423.9,158.6,424.9,157.9z M428,163.1c2.6,0,4.2-1.5,4.2-2.9c0-1.3-1-1.7-2.7-1.7h-2.5c-0.3,0-0.9-0.1-1.5-0.2
		c-1,0.7-1.6,1.6-1.6,2.4C424.2,162,425.6,163.1,428,163.1z M430.8,150.5c0-2-1.4-3.2-3-3.2s-3,1.2-3,3.2c0,2,1.4,3.3,3,3.3
		S430.8,152.5,430.8,150.5z"/>
	<path class="st2" d="M439.7,146.4c2.8,0,4.4,2,4.4,5.4c0,0.3,0,0.6-0.1,0.9h-8.4c0.1,2.9,1.7,5,4.4,5c1.3,0,2.3-0.4,3.1-1l0.4,0.9
		c-1,0.5-2,1.1-3.6,1.1c-2.9,0-5.4-2.3-5.4-6.1C434.7,148.8,437.2,146.4,439.7,146.4z M443.2,151.8c0-2.9-1.3-4.5-3.4-4.5
		c-2,0-3.7,1.7-4,4.5H443.2z"/>
	<path class="st2" d="M447.3,146.7h1l0.1,1.8h0.1c1-1.2,2.3-2.1,3.6-2.1c1.9,0,2.8,1,3.2,2.3c1.3-1.5,2.6-2.3,4-2.3
		c2.3,0,3.5,1.5,3.5,4.4v7.5h-1.1V151c0-2.4-0.8-3.6-2.6-3.6c-1.1,0-2.2,0.7-3.5,2.2v8.8h-1V151c0-2.4-0.9-3.6-2.6-3.6
		c-1,0-2.2,0.7-3.5,2.2v8.8h-1v-11.6C447.4,146.7,447.3,146.7,447.3,146.7z"/>
	<path class="st2" d="M471.1,146.4c2.8,0,4.4,2,4.4,5.4c0,0.3,0,0.6-0.1,0.9H467c0.1,2.9,1.7,5,4.4,5c1.3,0,2.3-0.4,3.1-1l0.4,0.9
		c-1,0.5-2,1.1-3.6,1.1c-2.9,0-5.4-2.3-5.4-6.1C466.1,148.8,468.5,146.4,471.1,146.4z M474.6,151.8c0-2.9-1.3-4.5-3.4-4.5
		c-2,0-3.7,1.7-4,4.5H474.6z"/>
	<path class="st2" d="M478.7,146.7h1l0.1,1.8h0.1c1.2-1.2,2.4-2.1,4-2.1c2.4,0,3.6,1.5,3.6,4.4v7.5h-1V151c0-2.4-0.8-3.6-2.7-3.6
		c-1.4,0-2.3,0.7-3.8,2.2v8.8h-1.1L478.7,146.7L478.7,146.7z"/>
	<path class="st2" d="M491.9,147.6h-1.8v-0.9l1.8-0.1l0.2-3.4h1v3.4h3.4v1H493v7.5c0,1.5,0.3,2.5,2,2.5c0.4,0,1-0.2,1.5-0.3l0.3,0.9
		c-0.7,0.3-1.4,0.4-1.9,0.4c-2.3,0-2.9-1.4-2.9-3.6L491.9,147.6L491.9,147.6z"/>
</g>
</svg>
