<?xml version="1.0" encoding="utf-8"?>
<!-- Generator: Adobe Illustrator 19.2.0, SVG Export Plug-In . SVG Version: 6.00 Build 0)  -->
<svg version="1.1" id="Layer_1" xmlns="http://www.w3.org/2000/svg" xmlns:xlink="http://www.w3.org/1999/xlink" x="0px" y="0px"
	 viewBox="0 0 170.8 73.5" style="enable-background:new 0 0 170.8 73.5;" xml:space="preserve">
<style type="text/css">
	.st0{opacity:0.4;fill:#A8B6DD;enable-background:new    ;}
	.st1{fill:#4C4277;}
	.st2{fill:#FFFFFF;}
	.st3{fill:#B8B3E8;}
	.st4{fill:#8DA1CE;}
	.st5{fill:none;stroke:#B2C3EA;stroke-width:0.5;stroke-miterlimit:10;}
	.st6{fill:none;stroke:#B2C3EA;stroke-width:0.5;stroke-miterlimit:10;stroke-dasharray:4,4;}
</style>
<path class="st0" d="M107.5,61.3H66c-2,0-3.7-1.7-3.7-3.7V16c0-2,1.7-3.7,3.7-3.7h41.5c2,0,3.7,1.7,3.7,3.7v41.5
	C111.3,59.5,109.6,61.3,107.5,61.3z"/>
<path class="st1" d="M105.5,59.3H64.1c-2,0-3.7-1.7-3.7-3.7V14.1c0-2,1.7-3.7,3.7-3.7h41.4c2,0,3.7,1.7,3.7,3.7v41.5
	C109.2,57.7,107.6,59.3,105.5,59.3z"/>
<g>
	<path class="st2" d="M92.9,18.5H69.6c-0.8,0-1.5,0.6-1.5,1.5v7l-4.4,4.7h4.4v3.6c0,0.8,0.6,1.5,1.5,1.5h23.3c0.8,0,1.5-0.6,1.5-1.5
		V20C94.3,19.1,93.7,18.5,92.9,18.5z"/>
	<path class="st3" d="M105.7,45.2l-4.3-4.5v-7.1c0-0.8-0.6-1.5-1.5-1.5H77.2c-0.8,0-1.5,0.6-1.5,1.5v15.5c0,0.8,0.6,1.5,1.5,1.5
		h22.7c0.8,0,1.5-0.6,1.5-1.5v-3.8h4.3V45.2z"/>
</g>
<g>
	<rect x="34.5" y="48.5" class="st2" width="4" height="1"/>
	<rect x="34.5" y="54.5" class="st2" width="4" height="1"/>
	<rect x="34.5" y="58.5" class="st2" width="4" height="2"/>
	<ellipse transform="matrix(1 -7.058958e-003 7.058958e-003 1 -0.3377 0.2341)" class="st4" cx="33" cy="48" rx="0.5" ry="0.5"/>
	<ellipse transform="matrix(1 -7.058958e-003 7.058958e-003 1 -0.3377 0.2214)" class="st4" cx="31.2" cy="48" rx="0.5" ry="0.5"/>
	<ellipse transform="matrix(1 -7.058958e-003 7.058958e-003 1 -0.3378 0.2087)" class="st4" cx="29.4" cy="48" rx="0.5" ry="0.5"/>
	<ellipse transform="matrix(1 -7.058958e-003 7.058958e-003 1 -0.3765 0.2343)" class="st4" cx="33" cy="53.5" rx="0.5" ry="0.5"/>
	
		<ellipse transform="matrix(1 -7.058958e-003 7.058958e-003 1 -0.3772 0.2216)" class="st4" cx="31.2" cy="53.6" rx="0.5" ry="0.5"/>
	
		<ellipse transform="matrix(1 -7.058958e-003 7.058958e-003 1 -0.3773 0.2089)" class="st4" cx="29.4" cy="53.6" rx="0.5" ry="0.5"/>
	<ellipse transform="matrix(1 -7.058958e-003 7.058958e-003 1 -0.4153 0.2351)" class="st4" cx="33.1" cy="59" rx="0.5" ry="0.5"/>
	<ellipse transform="matrix(1 -7.058958e-003 7.058958e-003 1 -0.4154 0.2217)" class="st4" cx="31.2" cy="59" rx="0.5" ry="0.5"/>
	<ellipse transform="matrix(1 -7.058958e-003 7.058958e-003 1 -0.4154 0.209)" class="st4" cx="29.4" cy="59" rx="0.5" ry="0.5"/>
	
		<ellipse transform="matrix(1 -7.058958e-003 7.058958e-003 1 -0.3505 0.2088)" class="st4" cx="29.4" cy="49.8" rx="0.5" ry="0.5"/>
	<ellipse transform="matrix(1 -7.058958e-003 7.058958e-003 1 -0.39 0.2089)" class="st4" cx="29.4" cy="55.4" rx="0.5" ry="0.5"/>
	
		<ellipse transform="matrix(1 -7.058958e-003 7.058958e-003 1 -0.3646 0.2088)" class="st4" cx="29.4" cy="51.8" rx="0.5" ry="0.5"/>
	<ellipse transform="matrix(1 -7.058958e-003 7.058958e-003 1 -0.4027 0.209)" class="st4" cx="29.4" cy="57.2" rx="0.5" ry="0.5"/>
	<g>
		<path class="st4" d="M52,46.2c0-0.2-0.2-0.4-0.4-0.4l-17,0.1c-0.2,0-0.4,0.2-0.4,0.4v3.9c0,0.2,0.2,0.4,0.4,0.4l17-0.1
			c0.2,0,0.4-0.2,0.4-0.4V46.2z M37.3,49.5c0,0.1-0.1,0.2-0.2,0.2h-1.7c-0.1,0-0.2-0.1-0.2-0.2v-0.8c0-0.1,0.1-0.2,0.2-0.2h1.7
			c0.1,0,0.2,0.1,0.2,0.2V49.5z"/>
		<path class="st4" d="M52.1,51.7c0-0.2-0.2-0.4-0.4-0.4l-17,0.1c-0.2,0-0.4,0.2-0.4,0.4v3.9c0,0.2,0.2,0.4,0.4,0.4l17-0.1
			c0.2,0,0.4-0.2,0.4-0.4V51.7z M37.4,54.8c0,0.1-0.1,0.2-0.2,0.2h-1.7c-0.1,0-0.2-0.1-0.2-0.2V54c0-0.1,0.1-0.2,0.2-0.2h1.7
			c0.1,0,0.2,0.1,0.2,0.2V54.8z"/>
		<path class="st4" d="M52.1,56.8c0-0.2-0.2-0.4-0.4-0.4l-17,0.1c-0.2,0-0.4,0.2-0.4,0.4v3.9c0,0.2,0.2,0.4,0.4,0.4l17-0.1
			c0.2,0,0.4-0.2,0.4-0.4V56.8z M37.4,60.5c0,0.1-0.1,0.2-0.2,0.2h-1.7c-0.1,0-0.2-0.1-0.2-0.2v-0.8c0-0.1,0.1-0.2,0.2-0.2h1.7
			c0.1,0,0.2,0.1,0.2,0.2V60.5z"/>
	</g>
</g>
<g>
	<rect x="10.2" y="16" class="st2" width="4" height="1"/>
	<rect x="10.2" y="22" class="st2" width="4" height="1"/>
	<rect x="10.2" y="26" class="st2" width="4" height="2"/>
	
		<ellipse transform="matrix(1 -7.058958e-003 7.058958e-003 1 -0.1088 6.179938e-002)" class="st4" cx="8.7" cy="15.5" rx="0.5" ry="0.5"/>
	
		<ellipse transform="matrix(1 -7.058958e-003 7.058958e-003 1 -0.1089 4.909294e-002)" class="st4" cx="6.9" cy="15.5" rx="0.5" ry="0.5"/>
	
		<ellipse transform="matrix(1 -7.058958e-003 7.058958e-003 1 -0.1089 3.638650e-002)" class="st4" cx="5.1" cy="15.5" rx="0.5" ry="0.5"/>
	
		<ellipse transform="matrix(1 -7.058958e-003 7.058958e-003 1 -0.147 6.193391e-002)" class="st4" cx="8.7" cy="20.9" rx="0.5" ry="0.5"/>
	
		<ellipse transform="matrix(1 -7.058958e-003 7.058958e-003 1 -0.1477 4.922961e-002)" class="st4" cx="6.9" cy="21" rx="0.5" ry="0.5"/>
	
		<ellipse transform="matrix(1 -7.058958e-003 7.058958e-003 1 -0.1478 3.652349e-002)" class="st4" cx="5.1" cy="21" rx="0.5" ry="0.5"/>
	
		<ellipse transform="matrix(1 -7.058958e-003 7.058958e-003 1 -0.1858 6.277702e-002)" class="st4" cx="8.8" cy="26.4" rx="0.5" ry="0.5"/>
	
		<ellipse transform="matrix(1 -7.058958e-003 7.058958e-003 1 -0.1858 4.936429e-002)" class="st4" cx="6.9" cy="26.4" rx="0.5" ry="0.5"/>
	
		<ellipse transform="matrix(1 -7.058958e-003 7.058958e-003 1 -0.1859 3.665817e-002)" class="st4" cx="5.1" cy="26.4" rx="0.5" ry="0.5"/>
	
		<ellipse transform="matrix(1 -7.058958e-003 7.058958e-003 1 -0.1216 3.643135e-002)" class="st4" cx="5.1" cy="17.3" rx="0.5" ry="0.5"/>
	
		<ellipse transform="matrix(1 -7.058958e-003 7.058958e-003 1 -0.1605 3.656838e-002)" class="st4" cx="5.1" cy="22.8" rx="0.5" ry="0.5"/>
	
		<ellipse transform="matrix(1 -7.058958e-003 7.058958e-003 1 -0.1351 3.647859e-002)" class="st4" cx="5.1" cy="19.2" rx="0.5" ry="0.5"/>
	
		<ellipse transform="matrix(1 -7.058958e-003 7.058958e-003 1 -0.1732 3.661327e-002)" class="st4" cx="5.1" cy="24.6" rx="0.5" ry="0.5"/>
	<g>
		<path class="st4" d="M27.7,13.6c0-0.2-0.2-0.4-0.4-0.4l-17,0.1c-0.2,0-0.4,0.2-0.4,0.4v3.9c0,0.2,0.2,0.4,0.4,0.4l17-0.1
			c0.2,0,0.4-0.2,0.4-0.4V13.6z M13,17c0,0.1-0.1,0.2-0.2,0.2h-1.7c-0.1,0-0.2-0.1-0.2-0.2v-0.8c0-0.1,0.1-0.2,0.2-0.2h1.7
			c0.1,0,0.2,0.1,0.2,0.2V17z"/>
		<path class="st4" d="M27.8,19.1c0-0.2-0.2-0.4-0.4-0.4l-17,0.1c-0.2,0-0.4,0.2-0.4,0.4v3.9c0,0.2,0.2,0.4,0.4,0.4l17-0.1
			c0.2,0,0.4-0.2,0.4-0.4V19.1z M13.1,22.4c0,0.1-0.1,0.2-0.2,0.2h-1.7c-0.1,0-0.2-0.1-0.2-0.2v-0.8c0-0.1,0.1-0.2,0.2-0.2h1.7
			c0.1,0,0.2,0.1,0.2,0.2V22.4z"/>
		<path class="st4" d="M27.8,24.4c0-0.2-0.2-0.4-0.4-0.4l-17,0.1c-0.2,0-0.4,0.2-0.4,0.4v3.9c0,0.2,0.2,0.4,0.4,0.4l17-0.1
			c0.2,0,0.4-0.2,0.4-0.4V24.4z M13.1,28c0,0.1-0.1,0.2-0.2,0.2h-1.7c-0.1,0-0.2-0.1-0.2-0.2v-0.8c0-0.1,0.1-0.2,0.2-0.2h1.7
			c0.1,0,0.2,0.1,0.2,0.2V28z"/>
	</g>
</g>
<g>
	<rect x="121.5" y="48.7" class="st2" width="4" height="1"/>
	<rect x="121.5" y="54.7" class="st2" width="4" height="1"/>
	<rect x="121.5" y="58.7" class="st2" width="4" height="2"/>
	<ellipse transform="matrix(1 -7.058958e-003 7.058958e-003 1 -0.3362 0.8483)" class="st4" cx="120" cy="48.1" rx="0.5" ry="0.5"/>
	
		<ellipse transform="matrix(1 -7.058958e-003 7.058958e-003 1 -0.3362 0.8356)" class="st4" cx="118.2" cy="48.1" rx="0.5" ry="0.5"/>
	
		<ellipse transform="matrix(1 -7.058958e-003 7.058958e-003 1 -0.3363 0.8229)" class="st4" cx="116.4" cy="48.1" rx="0.5" ry="0.5"/>
	<ellipse transform="matrix(1 -7.058958e-003 7.058958e-003 1 -0.3743 0.8484)" class="st4" cx="120" cy="53.5" rx="0.5" ry="0.5"/>
	
		<ellipse transform="matrix(1 -7.058958e-003 7.058958e-003 1 -0.3751 0.8357)" class="st4" cx="118.2" cy="53.6" rx="0.5" ry="0.5"/>
	
		<ellipse transform="matrix(1 -7.058958e-003 7.058958e-003 1 -0.3751 0.823)" class="st4" cx="116.4" cy="53.6" rx="0.5" ry="0.5"/>
	<ellipse transform="matrix(1 -7.058958e-003 7.058958e-003 1 -0.4131 0.8493)" class="st4" cx="120.1" cy="59" rx="0.5" ry="0.5"/>
	<ellipse transform="matrix(1 -7.058958e-003 7.058958e-003 1 -0.4132 0.8359)" class="st4" cx="118.2" cy="59" rx="0.5" ry="0.5"/>
	<ellipse transform="matrix(1 -7.058958e-003 7.058958e-003 1 -0.4132 0.8232)" class="st4" cx="116.4" cy="59" rx="0.5" ry="0.5"/>
	
		<ellipse transform="matrix(1 -7.058958e-003 7.058958e-003 1 -0.349 0.8229)" class="st4" cx="116.4" cy="49.9" rx="0.5" ry="0.5"/>
	
		<ellipse transform="matrix(1 -7.058958e-003 7.058958e-003 1 -0.3878 0.8231)" class="st4" cx="116.4" cy="55.4" rx="0.5" ry="0.5"/>
	
		<ellipse transform="matrix(1 -7.058958e-003 7.058958e-003 1 -0.3624 0.823)" class="st4" cx="116.4" cy="51.8" rx="0.5" ry="0.5"/>
	
		<ellipse transform="matrix(1 -7.058958e-003 7.058958e-003 1 -0.4005 0.8231)" class="st4" cx="116.4" cy="57.2" rx="0.5" ry="0.5"/>
	<g>
		<path class="st4" d="M139,46.3c0-0.2-0.2-0.4-0.4-0.4l-17,0.1c-0.2,0-0.4,0.2-0.4,0.4v3.9c0,0.2,0.2,0.4,0.4,0.4l17-0.1
			c0.2,0,0.4-0.2,0.4-0.4V46.3z M124.3,49.5c0,0.1-0.1,0.2-0.2,0.2h-1.7c-0.1,0-0.2-0.1-0.2-0.2v-0.8c0-0.1,0.1-0.2,0.2-0.2h1.7
			c0.1,0,0.2,0.1,0.2,0.2V49.5z"/>
		<path class="st4" d="M139.1,51.8c0-0.2-0.2-0.4-0.4-0.4l-17,0.1c-0.2,0-0.4,0.2-0.4,0.4v3.9c0,0.2,0.2,0.4,0.4,0.4l17-0.1
			c0.2,0,0.4-0.2,0.4-0.4V51.8z M124.4,55c0,0.1-0.1,0.2-0.2,0.2h-1.7c-0.1,0-0.2-0.1-0.2-0.2v-0.8c0-0.1,0.1-0.2,0.2-0.2h1.7
			c0.1,0,0.2,0.1,0.2,0.2V55z"/>
		<path class="st4" d="M139.1,57c0-0.2-0.2-0.4-0.4-0.4l-17,0.1c-0.2,0-0.4,0.2-0.4,0.4V61c0,0.2,0.2,0.4,0.4,0.4l17-0.1
			c0.2,0,0.4-0.2,0.4-0.4V57z M124.4,60.7c0,0.1-0.1,0.2-0.2,0.2h-1.7c-0.1,0-0.2-0.1-0.2-0.2v-0.8c0-0.1,0.1-0.2,0.2-0.2h1.7
			c0.1,0,0.2,0.1,0.2,0.2V60.7z"/>
	</g>
</g>
<g>
	<rect x="146.9" y="16.3" class="st2" width="4" height="1"/>
	<rect x="146.9" y="22.3" class="st2" width="4" height="1"/>
	<rect x="146.9" y="26.3" class="st2" width="4" height="2"/>
	
		<ellipse transform="matrix(1 -7.058958e-003 7.058958e-003 1 -0.1076 1.0268)" class="st4" cx="145.4" cy="15.8" rx="0.5" ry="0.5"/>
	
		<ellipse transform="matrix(1 -7.058958e-003 7.058958e-003 1 -0.1076 1.0141)" class="st4" cx="143.6" cy="15.8" rx="0.5" ry="0.5"/>
	
		<ellipse transform="matrix(1 -7.058958e-003 7.058958e-003 1 -0.1076 1.0014)" class="st4" cx="141.8" cy="15.8" rx="0.5" ry="0.5"/>
	
		<ellipse transform="matrix(1 -7.058958e-003 7.058958e-003 1 -0.1457 1.0269)" class="st4" cx="145.4" cy="21.2" rx="0.5" ry="0.5"/>
	
		<ellipse transform="matrix(1 -7.058958e-003 7.058958e-003 1 -0.1464 1.0142)" class="st4" cx="143.6" cy="21.3" rx="0.5" ry="0.5"/>
	
		<ellipse transform="matrix(1 -7.058958e-003 7.058958e-003 1 -0.1465 1.0015)" class="st4" cx="141.8" cy="21.3" rx="0.5" ry="0.5"/>
	
		<ellipse transform="matrix(1 -7.058958e-003 7.058958e-003 1 -0.1845 1.0278)" class="st4" cx="145.5" cy="26.7" rx="0.5" ry="0.5"/>
	
		<ellipse transform="matrix(1 -7.058958e-003 7.058958e-003 1 -0.1845 1.0144)" class="st4" cx="143.6" cy="26.7" rx="0.5" ry="0.5"/>
	
		<ellipse transform="matrix(1 -7.058958e-003 7.058958e-003 1 -0.1846 1.0017)" class="st4" cx="141.8" cy="26.7" rx="0.5" ry="0.5"/>
	
		<ellipse transform="matrix(1 -7.058958e-003 7.058958e-003 1 -0.1204 1.0014)" class="st4" cx="141.8" cy="17.6" rx="0.5" ry="0.5"/>
	
		<ellipse transform="matrix(1 -7.058958e-003 7.058958e-003 1 -0.1592 1.0016)" class="st4" cx="141.8" cy="23.1" rx="0.5" ry="0.5"/>
	
		<ellipse transform="matrix(1 -7.058958e-003 7.058958e-003 1 -0.1338 1.0015)" class="st4" cx="141.8" cy="19.5" rx="0.5" ry="0.5"/>
	
		<ellipse transform="matrix(1 -7.058958e-003 7.058958e-003 1 -0.1719 1.0016)" class="st4" cx="141.8" cy="24.9" rx="0.5" ry="0.5"/>
	<g>
		<path class="st4" d="M164.4,13.9c0-0.2-0.2-0.4-0.4-0.4l-17,0.1c-0.2,0-0.4,0.2-0.4,0.4v3.9c0,0.2,0.2,0.4,0.4,0.4l17-0.1
			c0.2,0,0.4-0.2,0.4-0.4V13.9z M149.7,17.3c0,0.1-0.1,0.2-0.2,0.2h-1.7c-0.1,0-0.2-0.1-0.2-0.2v-0.8c0-0.1,0.1-0.2,0.2-0.2h1.7
			c0.1,0,0.2,0.1,0.2,0.2V17.3z"/>
		<path class="st4" d="M164.5,19.4c0-0.2-0.2-0.4-0.4-0.4l-17,0.1c-0.2,0-0.4,0.2-0.4,0.4v3.9c0,0.2,0.2,0.4,0.4,0.4l17-0.1
			c0.2,0,0.4-0.2,0.4-0.4V19.4z M149.8,22.5c0,0.1-0.1,0.2-0.2,0.2h-1.7c-0.1,0-0.2-0.1-0.2-0.2v-0.8c0-0.1,0.1-0.2,0.2-0.2h1.7
			c0.1,0,0.2,0.1,0.2,0.2V22.5z"/>
		<path class="st4" d="M164.5,24.5c0-0.2-0.2-0.4-0.4-0.4l-17,0.1c-0.2,0-0.4,0.2-0.4,0.4v3.9c0,0.2,0.2,0.4,0.4,0.4l17-0.1
			c0.2,0,0.4-0.2,0.4-0.4V24.5z M149.8,28.3c0,0.1-0.1,0.2-0.2,0.2h-1.7c-0.1,0-0.2-0.1-0.2-0.2v-0.8c0-0.1,0.1-0.2,0.2-0.2h1.7
			c0.1,0,0.2,0.1,0.2,0.2V28.3z"/>
	</g>
</g>
<rect x="139" y="6.1" class="st5" width="29.5" height="29.5"/>
<path class="st5" d="M28.9,35.3H5.1c-1.6,0-2.9-1.3-2.9-2.9V8.6c0-1.6,1.3-2.8,2.9-2.8h23.8c1.6,0,2.9,1.3,2.9,2.9v23.8
	C31.7,34,30.5,35.3,28.9,35.3z"/>
<circle class="st5" cx="41.1" cy="53.3" r="16"/>
<polygon class="st5" points="128.5,69.4 114.3,61.2 114.3,44.8 128.5,36.5 142.8,44.8 142.8,61.2 "/>
<line class="st6" x1="35.3" y1="14.4" x2="59.2" y2="14.4"/>
<line class="st6" x1="135.6" y1="14.4" x2="112.2" y2="14.4"/>
<polyline class="st6" points="58.3,32 41.3,32 41.3,35.2 "/>
<polyline class="st6" points="111.5,32 128.5,32 128.5,35.2 "/>
</svg>
