<?xml version="1.0" encoding="utf-8"?>
<!-- Generator: Adobe Illustrator 19.2.0, SVG Export Plug-In . SVG Version: 6.00 Build 0)  -->
<svg version="1.1" id="Layer_1" xmlns="http://www.w3.org/2000/svg" xmlns:xlink="http://www.w3.org/1999/xlink" x="0px" y="0px"
	 viewBox="0 0 533 228" style="enable-background:new 0 0 533 228;" xml:space="preserve">
<style type="text/css">
	.st0{fill:#4C4277;}
	.st1{fill:#FFFFFF;}
</style>
<g>
	<path class="st0" d="M108.9,73.4H17.6c-2.1,0-3.9-1.7-3.9-3.9v-40c0-2.1,1.7-3.9,3.9-3.9h91.2c2.1,0,3.9,1.7,3.9,3.9v40.1
		C112.8,71.7,111.1,73.4,108.9,73.4z"/>
	<path class="st1" d="M79.6,49.3v-9.9h4.1c4.4,0,6.6,1.1,6.6,4.8c0,3.5-2.1,5.1-6.6,5.1H79.6L79.6,49.3z M78.1,60h1.5v-9.3H84
		c4.8,0,7.7-2.1,7.7-6.3c0-4.5-2.9-6.1-7.7-6.1h-6C78.1,38.3,78.1,60,78.1,60z M57.2,60h1.5V49.1h11.6V60h1.5V38.3h-1.5v9.5H58.8
		v-9.5h-1.5V60H57.2z M40.6,49.3v-9.9h4.1c4.4,0,6.6,1.1,6.6,4.8c0,3.5-2.1,5.1-6.6,5.1H40.6L40.6,49.3z M39.1,60h1.5v-9.3H45
		c4.8,0,7.7-2.1,7.7-6.3c0-4.5-2.9-6.1-7.7-6.1h-6L39.1,60L39.1,60z"/>
	<path class="st0" d="M260.2,73.4H133.4c-2.1,0-3.9-1.7-3.9-3.9v-40c0-2.1,1.7-3.9,3.9-3.9h126.8c2.1,0,3.9,1.7,3.9,3.9v40.1
		C264.1,71.7,262.4,73.4,260.2,73.4z"/>
	<path class="st1" d="M232.6,60h1.4V48c2-2,3.3-3,5.2-3c2.5,0,3.6,1.6,3.6,5v10h1.4V49.8c0-4.1-1.5-6.1-4.8-6.1
		c-2.2,0-3.8,1.2-5.4,2.8l0,0l-0.1-2.4h-1.3C232.6,44.1,232.6,60,232.6,60z M215.2,52.1c0-4.2,2.4-7.1,5.6-7.1s5.6,2.9,5.6,7.1
		s-2.4,7-5.6,7C217.6,59.1,215.2,56.2,215.2,52.1z M213.7,52.1c0,5.2,3.3,8.3,7.1,8.3s7.1-3.1,7.1-8.3c0-5.3-3.3-8.3-7.1-8.3
		C217,43.7,213.7,46.8,213.7,52.1z M197.6,60h1.4V48c2-2,3.3-3,5.2-3c2.5,0,3.6,1.6,3.6,5v10h1.4V49.8c0-4.1-1.5-6.1-4.8-6.1
		c-2.2,0-3.8,1.2-5.5,2.9v-3.5v-6.9h-1.4L197.6,60L197.6,60z M187.7,55.5c0,2.8,0.9,4.8,4,4.8c0.6,0,1.6-0.3,2.5-0.6l-0.4-1.2
		c-0.5,0.3-1.4,0.5-2,0.5c-2.2,0-2.7-1.4-2.7-3.3V45.3h4.6V44h-4.6v-4.6h-1.3l-0.2,4.6l-2.5,0.1v1.1h2.4L187.7,55.5L187.7,55.5z
		 M171,65.6l-0.4,1.3c0.5,0.2,1,0.4,1.6,0.4c2.8,0,4.4-2.6,5.3-5.2l6.2-17.8h-1.4l-3.4,9.9c-0.5,1.4-1,3.1-1.4,4.4h-0.1
		c-0.6-1.4-1.3-3.1-1.7-4.4l-3.8-9.9h-1.6l6.5,16.1l-0.5,1.4c-0.8,2.4-2.1,4.2-4.1,4.2C171.8,65.8,171.3,65.7,171,65.6z M156.3,49.3
		v-9.9h4.1c4.4,0,6.6,1.1,6.6,4.8c0,3.5-2.1,5.1-6.6,5.1H156.3L156.3,49.3z M154.7,60h1.5v-9.3h4.4c4.8,0,7.7-2.1,7.7-6.3
		c0-4.5-2.9-6.1-7.7-6.1h-6C154.7,38.3,154.7,60,154.7,60z"/>
	<path class="st0" d="M148.9,138.1H18.1c-2.1,0-3.9-1.7-3.9-3.9V94.1c0-2.1,1.7-3.9,3.9-3.9h130.8c2.1,0,3.9,1.7,3.9,3.9v40.1
		C152.8,136.4,151,138.1,148.9,138.1z"/>
	<path class="st1" d="M124.6,122.9c1.4,1.2,3.4,2.2,5.8,2.2c3.4,0,5.3-2.1,5.3-4.4c0-3.1-2.7-3.9-5.2-4.9c-1.9-0.7-3.7-1.4-3.7-3.2
		c0-1.4,1.1-2.9,3.5-2.9c1.6,0,2.7,0.6,3.8,1.4l0.8-1c-1.2-1-2.8-1.6-4.5-1.6c-3.3,0-5.2,1.9-5.2,4.3c0,2.7,2.6,3.6,5.1,4.5
		c1.8,0.6,3.9,1.5,3.9,3.5c0,1.7-1.3,3.2-3.8,3.2c-2.3,0-3.7-0.9-5.1-2L124.6,122.9z M119.8,105c0.7,0,1.4-0.5,1.4-1.3
		s-0.6-1.4-1.4-1.4c-0.7,0-1.4,0.5-1.4,1.4C118.5,104.5,119.1,105,119.8,105z M119.1,127.5c0,2-0.4,3.4-2.1,3.4
		c-0.6,0-1.3-0.2-1.6-0.4l-0.4,1.2c0.5,0.2,1.3,0.4,2.1,0.4c2.4,0,3.5-1.5,3.5-4.6v-18.8h-1.4L119.1,127.5L119.1,127.5z
		 M110.9,123.5c0,0.9,0.7,1.4,1.4,1.4s1.4-0.5,1.4-1.4c0-1-0.6-1.5-1.4-1.5S110.9,122.6,110.9,123.5z M96,115.8
		c0.4-3.8,2.7-6.1,5.4-6.1c2.8,0,4.6,2.1,4.6,6.1H96z M94.4,116.8c0,5.2,3.3,8.3,7.3,8.3c2.4,0,3.7-0.8,5-1.5l-0.6-1.1
		c-1.2,0.8-2.5,1.4-4.3,1.4c-3.5,0-5.9-2.9-6-6.9h11.4c0.1-0.4,0.1-0.8,0.1-1.2c0-4.6-2.4-7.3-6.1-7.3
		C97.9,108.4,94.4,111.6,94.4,116.8z M78.1,116.8c0-4,2.4-7.1,5.6-7.1c1.5,0,2.9,0.5,4.6,2.1v9.4c-1.7,1.7-3.3,2.6-5,2.6
		C79.9,123.8,78.1,121,78.1,116.8z M76.5,116.8c0,5.3,2.5,8.3,6.6,8.3c2.1,0,3.9-1.2,5.2-2.4h0.1l0.1,2.1h1.3v-23.9h-1.4v6.5
		l0.1,2.9c-1.6-1.2-2.9-2-4.8-2C79.8,108.4,76.5,111.7,76.5,116.8z M60.4,116.8c0-4.2,2.4-7.1,5.6-7.1c3.3,0,5.6,2.9,5.6,7.1
		s-2.4,7-5.6,7C62.9,123.7,60.4,120.9,60.4,116.8z M58.9,116.8c0,5.2,3.3,8.3,7.1,8.3c3.8,0,7.1-3.1,7.1-8.3c0-5.3-3.3-8.3-7.1-8.3
		C62.1,108.4,58.9,111.5,58.9,116.8z M39.5,124.7H41v-13.5c0-2.1-0.1-4.1-0.2-6.1h0.1l2.4,4.3l9.1,15.4H54v-21.7h-1.4v13.3
		c0,2.1,0.1,4.3,0.2,6.3h-0.1l-2.4-4.3L41.2,103h-1.6v21.7H39.5z"/>
	<path class="st0" d="M274.9,138.1H172c-2.1,0-3.9-1.7-3.9-3.9V94.1c0-2.1,1.7-3.9,3.9-3.9h102.9c2.1,0,3.9,1.7,3.9,3.9v40.1
		C278.8,136.4,277.1,138.1,274.9,138.1z"/>
	<path class="st1" d="M245,130.3l-0.4,1.3c0.5,0.2,1,0.4,1.6,0.4c2.8,0,4.4-2.6,5.3-5.2l6.2-17.8h-1.4l-3.4,9.9
		c-0.5,1.4-1,3.1-1.4,4.4h-0.1c-0.6-1.4-1.3-3.1-1.7-4.4l-3.8-9.9h-1.6l6.5,16.1l-0.5,1.4c-0.8,2.4-2.1,4.2-4.1,4.2
		C245.9,130.5,245.4,130.4,245,130.3z M230.4,121.7v-9.4c1.9-1.7,3.6-2.6,5.2-2.6c3.6,0,5,2.9,5,6.8c0,4.3-2.4,7.2-5.5,7.2
		C234,123.8,232.2,123.2,230.4,121.7z M229,124.7h1.3l0.2-1.4h0.1c1.4,1.2,3.3,1.9,4.8,1.9c3.7,0,7-3.2,7-8.5c0-4.9-2.1-8-6.3-8
		c-2,0-3.9,1.1-5.5,2.4l0.1-3.1v-7.1h-1.4L229,124.7L229,124.7z M211.4,119c0,4.1,1.5,6.1,4.8,6.1c2.2,0,3.8-1.2,5.3-3.1h0.1
		l0.2,2.6h1.3v-15.8h-1.5v11.7c-1.8,2.3-3.3,3.3-5.2,3.3c-2.5,0-3.6-1.6-3.6-5v-9.9h-1.4L211.4,119L211.4,119z M207.1,124.7l-6-10.1
		c3.4-0.5,5.6-2.4,5.6-5.9c0-4.2-2.8-5.7-7.1-5.7h-6.2v21.7h1.5v-10h4.6l5.9,10H207.1z M194.9,113.4v-9.2h4.3c3.9,0,6,1.2,6,4.4
		c0,3.2-2.1,4.8-6,4.8C199.2,113.4,194.9,113.4,194.9,113.4z"/>
	<path class="st0" d="M396.7,138.1h-97.1c-2.1,0-3.9-1.7-3.9-3.9V94.1c0-2.1,1.7-3.9,3.9-3.9h97.1c2.1,0,3.9,1.7,3.9,3.9v40.1
		C400.5,136.4,398.8,138.1,396.7,138.1z"/>
	<path class="st1" d="M366.7,120.6c0-2.5,2.2-4.1,8.7-4.8v5.3c-2,1.7-3.5,2.5-5.3,2.5C368.3,123.8,366.7,122.9,366.7,120.6z
		 M365.2,120.7c0,3,2.1,4.3,4.6,4.3c2.1,0,4-1.2,5.6-2.4h0.1l0.2,2.1h1.2v-10.1c0-3.4-1.3-6.1-5-6.1c-2.5,0-4.8,1.3-5.9,2.1l0.6,1.1
		c1.1-0.8,2.9-1.8,5.1-1.8c3.1,0,3.8,2.6,3.7,5C368.4,115.5,365.2,117.2,365.2,120.7z M355.7,124.7h1.7l5.9-15.8h-1.4l-3.5,9.9
		c-0.5,1.5-1.1,3.1-1.6,4.5h-0.1c-0.5-1.4-1.1-3.1-1.6-4.5l-3.5-9.9H350L355.7,124.7z M336.6,120.6c0-2.5,2.2-4.1,8.7-4.8v5.3
		c-2,1.7-3.5,2.5-5.3,2.5C338.1,123.8,336.6,122.9,336.6,120.6z M335.1,120.7c0,3,2.1,4.3,4.6,4.3c2.1,0,4-1.2,5.6-2.4h0.1l0.2,2.1
		h1.2v-10.1c0-3.4-1.3-6.1-5-6.1c-2.5,0-4.8,1.3-5.9,2.1l0.6,1.1c1.1-0.8,2.9-1.8,5.1-1.8c3.1,0,3.8,2.6,3.7,5
		C338.3,115.5,335.1,117.2,335.1,120.7z M319.2,121.9c1.1,2.1,2.9,3.2,5.3,3.2c3.9,0,5.4-2.8,5.4-6.3v-15.9h-1.5v15.6
		c0,3.5-1.3,5.1-3.9,5.1c-1.8,0-3.1-0.7-4.2-2.5L319.2,121.9z"/>
	<path class="st0" d="M89.2,199.4H17.7c-2.1,0-3.9-1.7-3.9-3.9v-40.1c0-2.1,1.7-3.9,3.9-3.9h71.4c2.1,0,3.9,1.7,3.9,3.9v40.1
		C93,197.7,91.3,199.4,89.2,199.4z"/>
	<path class="st1" d="M58.9,178.1c0-4.2,2.4-7.1,5.6-7.1c3.3,0,5.6,2.9,5.6,7.1c0,4.2-2.4,7-5.6,7S58.9,182.2,58.9,178.1z
		 M57.3,178.1c0,5.2,3.3,8.3,7.1,8.3c3.8,0,7.1-3.1,7.1-8.3c0-5.3-3.3-8.3-7.1-8.3C60.7,169.7,57.3,172.7,57.3,178.1z M37.6,175
		c0,7,3.8,11.3,9.3,11.3c2.8,0,5.1-1,6.4-2.4v-8.6h-6.6v1.3h5.2v6.8c-1.1,1.1-2.9,1.6-4.9,1.6c-5,0-7.9-3.9-7.9-9.9
		c0-6.1,3.1-9.9,8-9.9c2.4,0,3.9,1,5,2.2l0.9-1c-1.2-1.2-3-2.6-5.9-2.6C41.5,163.8,37.6,168.1,37.6,175z"/>
	<path class="st0" d="M193.9,199.4H113c-2.1,0-3.9-1.7-3.9-3.9v-40.1c0-2.1,1.7-3.9,3.9-3.9h80.8c2.1,0,3.9,1.7,3.9,3.9v40.1
		C197.8,197.7,196.1,199.4,193.9,199.4z"/>
	<path class="st1" d="M172.7,182.3h1.4v-6.6h6.1v-1.3h-6.1v-6.6h-1.4v6.6h-6.1v1.3h6.1V182.3z M156.9,182.3h1.4v-6.6h6.1v-1.3h-6.1
		v-6.6h-1.4v6.6h-6.1v1.3h6.1V182.3z M133,175c0,7,3.8,11.3,9.1,11.3c2.8,0,4.8-1.2,6.5-3.1l-0.9-1c-1.6,1.8-3.3,2.7-5.5,2.7
		c-4.6,0-7.6-3.9-7.6-9.9c0-6.1,3-9.9,7.7-9.9c2,0,3.5,0.9,4.8,2.2l0.9-1c-1.2-1.4-3.1-2.6-5.6-2.6C136.7,163.8,133,168.1,133,175z"
		/>
	<path class="st0" d="M313.3,199.4h-95.8c-2.1,0-3.9-1.7-3.9-3.9v-40.1c0-2.1,1.7-3.9,3.9-3.9h95.8c2.1,0,3.9,1.7,3.9,3.9v40.1
		C317.1,197.7,315.4,199.4,313.3,199.4z"/>
	<path class="st1" d="M288.2,181.6c0,2.8,0.9,4.8,4,4.8c0.6,0,1.6-0.3,2.5-0.6l-0.4-1.2c-0.5,0.3-1.4,0.5-2,0.5
		c-2.2,0-2.7-1.4-2.7-3.3v-10.3h4.6v-1.3h-4.6v-4.6h-1.3l-0.2,4.6l-2.5,0.1v1.1h2.4L288.2,181.6L288.2,181.6z M272.5,184.2
		c1.4,1.2,3.4,2.2,5.8,2.2c3.4,0,5.3-2.1,5.3-4.4c0-3.1-2.7-3.9-5.2-4.9c-1.9-0.7-3.7-1.4-3.7-3.2c0-1.4,1.1-2.9,3.5-2.9
		c1.6,0,2.7,0.6,3.8,1.4l0.8-1c-1.2-1-2.8-1.6-4.5-1.6c-3.3,0-5.2,1.9-5.2,4.3c0,2.7,2.6,3.6,5.1,4.5c1.8,0.6,3.9,1.5,3.9,3.5
		c0,1.7-1.3,3.2-3.8,3.2c-2.3,0-3.7-0.9-5.1-2L272.5,184.2z M256.8,180.2c0,4.1,1.5,6.1,4.8,6.1c2.2,0,3.8-1.2,5.3-3.1h0.1l0.2,2.6
		h1.2V170H267v11.7c-1.8,2.3-3.3,3.3-5.2,3.3c-2.5,0-3.6-1.6-3.6-5v-10h-1.4V180.2L256.8,180.2z M252.6,185.9l-6-10.1
		c3.4-0.5,5.6-2.4,5.6-5.9c0-4.2-2.8-5.7-7.1-5.7h-6.2v21.7h1.5V176h4.6l5.9,10L252.6,185.9L252.6,185.9z M240.4,174.7v-9.2h4.3
		c3.9,0,6,1.2,6,4.4s-2.1,4.8-6,4.8H240.4L240.4,174.7z"/>
	<path class="st0" d="M449.6,199.4H335.1c-2.1,0-3.9-1.7-3.9-3.9v-40.1c0-2.1,1.7-3.9,3.9-3.9h114.5c2.1,0,3.9,1.7,3.9,3.9v40.1
		C453.5,197.7,451.7,199.4,449.6,199.4z"/>
	<path class="st1" d="M424.1,177.1c0.4-3.8,2.7-6.1,5.4-6.1c2.8,0,4.6,2.1,4.6,6.1H424.1z M422.6,178.1c0,5.2,3.3,8.3,7.3,8.3
		c2.4,0,3.7-0.8,5-1.5l-0.6-1.1c-1.2,0.8-2.5,1.4-4.3,1.4c-3.5,0-5.9-2.9-6-6.9h11.4c0.1-0.4,0.1-0.8,0.1-1.2c0-4.6-2.4-7.3-6.1-7.3
		C426,169.7,422.6,172.9,422.6,178.1z M413.8,185.9h1.4v-10.8c1.2-3,2.9-4.1,4.3-4.1c0.6,0,0.9,0.1,1.4,0.3l0.4-1.4
		c-0.5-0.3-1-0.4-1.6-0.4c-1.9,0-3.4,1.4-4.5,3.3h-0.1l-0.1-2.9h-1.3v16H413.8z M396.4,178.1c0-4.2,2.4-7.1,5.6-7.1
		c3.3,0,5.6,2.9,5.6,7.1c0,4.2-2.4,7-5.6,7C398.8,185,396.4,182.2,396.4,178.1z M394.8,178.1c0,5.2,3.3,8.3,7.1,8.3
		c3.8,0,7.1-3.1,7.1-8.3c0-5.3-3.3-8.3-7.1-8.3C398.2,169.7,394.8,172.7,394.8,178.1z M369.3,185.9h1.4V174c1.7-2,3.3-3,4.8-3
		c2.4,0,3.5,1.6,3.5,5v9.9h1.4V174c1.7-2,3.3-3,4.8-3c2.4,0,3.5,1.6,3.5,5v9.9h1.4v-10.1c0-4.1-1.6-6.1-4.8-6.1
		c-1.8,0-3.5,1.3-5.3,3.3c-0.5-2-1.8-3.3-4.4-3.3c-1.7,0-3.5,1.2-5,2.8h-0.1l-0.1-2.4h-1.3v15.8H369.3z M357.8,182.3h1.4v-6.6h6.1
		v-1.3h-6.1v-6.6h-1.4v6.6h-6.1v1.3h6.1V182.3z"/>
</g>
</svg>
