<?xml version="1.0" encoding="utf-8"?>
<!-- Generator: Adobe Illustrator 19.1.1, SVG Export Plug-In . SVG Version: 6.00 Build 0)  -->
<svg version="1.1" id="Layer_1" xmlns="http://www.w3.org/2000/svg" xmlns:xlink="http://www.w3.org/1999/xlink" x="0px" y="0px"
	 viewBox="-146 145 515.3 221" style="enable-background:new -146 145 515.3 221;" xml:space="preserve">
<style type="text/css">
	.st0{fill:#5A69A0;}
	.st1{fill:#FFFFFF;}
</style>
<g>
	<path class="st0" d="M-26.5,213.6h-100.9c-2.3,0-4.3-1.9-4.3-4.3V165c0-2.3,1.9-4.3,4.3-4.3h100.9c2.3,0,4.3,1.9,4.3,4.3v44.3
		C-22.2,211.7-24.1,213.6-26.5,213.6z"/>
	<path class="st1" d="M-58.9,186.9v-10.9h4.5c4.9,0,7.3,1.2,7.3,5.3c0,3.9-2.3,5.6-7.3,5.6H-58.9z M-60.6,198.7h1.7v-10.3h4.9
		c5.3,0,8.5-2.3,8.5-7c0-5-3.2-6.7-8.5-6.7h-6.6V198.7z M-83.6,198.7h1.7v-12h12.8v12h1.7v-24h-1.7v10.5h-12.8v-10.5h-1.7V198.7z
		 M-102,186.9v-10.9h4.5c4.9,0,7.3,1.2,7.3,5.3c0,3.9-2.3,5.6-7.3,5.6H-102z M-103.7,198.7h1.7v-10.3h4.9c5.3,0,8.5-2.3,8.5-7
		c0-5-3.2-6.7-8.5-6.7h-6.6V198.7z"/>
	<path class="st0" d="M140.8,213.6H0.6c-2.3,0-4.3-1.9-4.3-4.3V165c0-2.3,1.9-4.3,4.3-4.3h140.2c2.3,0,4.3,1.9,4.3,4.3v44.3
		C145.1,211.7,143.2,213.6,140.8,213.6z"/>
	<path class="st1" d="M110.3,198.7h1.6v-13.2c2.2-2.2,3.6-3.3,5.7-3.3c2.8,0,4,1.8,4,5.5v11h1.6v-11.2c0-4.5-1.7-6.7-5.3-6.7
		c-2.4,0-4.2,1.3-6,3.1h-0.1l-0.1-2.7h-1.4V198.7z M91,190c0-4.6,2.6-7.8,6.2-7.8s6.2,3.2,6.2,7.8c0,4.6-2.7,7.7-6.2,7.7
		S91,194.6,91,190z M89.4,190c0,5.8,3.6,9.2,7.8,9.2c4.2,0,7.9-3.4,7.9-9.2c0-5.9-3.6-9.2-7.9-9.2C93,180.7,89.4,184.1,89.4,190z
		 M71.6,198.7h1.6v-13.2c2.2-2.2,3.6-3.3,5.7-3.3c2.8,0,4,1.8,4,5.5v11h1.6v-11.2c0-4.5-1.7-6.7-5.3-6.7c-2.4,0-4.2,1.3-6.1,3.2
		v-3.9v-7.6h-1.6V198.7z M60.6,193.8c0,3.1,1,5.3,4.4,5.3c0.7,0,1.8-0.3,2.8-0.7l-0.4-1.3c-0.6,0.3-1.5,0.5-2.2,0.5
		c-2.4,0-3-1.5-3-3.7v-11.4h5.1v-1.4h-5.1v-5.1h-1.4l-0.2,5.1l-2.8,0.1v1.2h2.7V193.8z M42.2,204.9l-0.4,1.4
		c0.5,0.2,1.1,0.4,1.8,0.4c3.1,0,4.9-2.9,5.9-5.8l6.9-19.7h-1.6l-3.8,11c-0.5,1.5-1.1,3.4-1.6,4.9h-0.1c-0.7-1.5-1.4-3.4-1.9-4.9
		l-4.2-11h-1.8l7.2,17.8l-0.5,1.5c-0.9,2.7-2.3,4.6-4.5,4.6C43.1,205.2,42.5,205,42.2,204.9z M25.9,186.9v-10.9h4.5
		c4.9,0,7.3,1.2,7.3,5.3c0,3.9-2.3,5.6-7.3,5.6H25.9z M24.2,198.7h1.7v-10.3h4.9c5.3,0,8.5-2.3,8.5-7c0-5-3.2-6.7-8.5-6.7h-6.6
		V198.7z"/>
	<path class="st0" d="M17.7,285.1h-144.6c-2.3,0-4.3-1.9-4.3-4.3v-44.3c0-2.3,1.9-4.3,4.3-4.3H17.7c2.3,0,4.3,1.9,4.3,4.3v44.3
		C22,283.2,20.1,285.1,17.7,285.1z"/>
	<path class="st1" d="M-9.1,268.3c1.6,1.3,3.8,2.4,6.4,2.4c3.8,0,5.9-2.3,5.9-4.9c0-3.4-3-4.3-5.7-5.4c-2.1-0.8-4.1-1.6-4.1-3.5
		c0-1.6,1.2-3.2,3.9-3.2c1.8,0,3,0.7,4.2,1.6l0.9-1.1c-1.3-1.1-3.1-1.8-5-1.8c-3.6,0-5.7,2.1-5.7,4.7c0,3,2.9,4,5.6,5
		c2,0.7,4.3,1.7,4.3,3.9c0,1.9-1.4,3.5-4.2,3.5c-2.5,0-4.1-1-5.6-2.2L-9.1,268.3z M-14.4,248.5c0.8,0,1.5-0.6,1.5-1.4
		c0-0.9-0.7-1.5-1.5-1.5c-0.8,0-1.5,0.5-1.5,1.5C-15.9,247.9-15.2,248.5-14.4,248.5z M-15.2,273.4c0,2.2-0.4,3.8-2.3,3.8
		c-0.7,0-1.4-0.2-1.8-0.4l-0.4,1.3c0.5,0.2,1.4,0.4,2.3,0.4c2.7,0,3.9-1.7,3.9-5.1v-20.8h-1.6V273.4z M-24.3,269
		c0,1,0.8,1.6,1.6,1.6s1.5-0.6,1.5-1.6c0-1.1-0.7-1.7-1.5-1.7S-24.3,268-24.3,269z M-40.8,260.5c0.4-4.2,3-6.8,6-6.8
		c3.1,0,5.1,2.3,5.1,6.8H-40.8z M-42.5,261.5c0,5.7,3.6,9.2,8.1,9.2c2.6,0,4.1-0.9,5.5-1.7l-0.7-1.2c-1.3,0.9-2.8,1.6-4.7,1.6
		c-3.9,0-6.5-3.2-6.6-7.6h12.6c0.1-0.4,0.1-0.9,0.1-1.3c0-5.1-2.6-8.1-6.7-8.1C-38.7,252.3-42.5,255.8-42.5,261.5z M-60.6,261.5
		c0-4.4,2.7-7.8,6.2-7.8c1.7,0,3.2,0.6,5.1,2.3v10.4c-1.9,1.9-3.6,2.9-5.5,2.9C-58.5,269.3-60.6,266.2-60.6,261.5z M-62.3,261.5
		c0,5.9,2.8,9.2,7.3,9.2c2.3,0,4.3-1.3,5.7-2.7h0.1l0.1,2.3h1.4V244h-1.6v7.2l0.1,3.2c-1.8-1.3-3.2-2.2-5.3-2.2
		C-58.7,252.3-62.3,255.9-62.3,261.5z M-80.1,261.5c0-4.6,2.6-7.8,6.2-7.8s6.2,3.2,6.2,7.8c0,4.6-2.7,7.7-6.2,7.7
		S-80.1,266.1-80.1,261.5z M-81.8,261.5c0,5.8,3.6,9.2,7.8,9.2c4.2,0,7.9-3.4,7.9-9.2c0-5.9-3.6-9.2-7.9-9.2
		C-78.2,252.3-81.8,255.7-81.8,261.5z M-103.2,270.3h1.6v-14.9c0-2.3-0.1-4.5-0.2-6.8h0.1l2.7,4.8l10.1,17h1.8v-24h-1.6v14.7
		c0,2.3,0.1,4.7,0.2,7h-0.1l-2.7-4.8l-10.1-17h-1.8V270.3z"/>
	<path class="st0" d="M157.1,285.1H43.3c-2.3,0-4.3-1.9-4.3-4.3v-44.3c0-2.3,1.9-4.3,4.3-4.3h113.8c2.3,0,4.3,1.9,4.3,4.3v44.3
		C161.4,283.2,159.5,285.1,157.1,285.1z"/>
	<path class="st1" d="M124,276.5l-0.4,1.4c0.5,0.2,1.1,0.4,1.8,0.4c3.1,0,4.9-2.9,5.9-5.8l6.9-19.7h-1.6l-3.8,11
		c-0.5,1.5-1.1,3.4-1.6,4.9h-0.1c-0.7-1.5-1.4-3.4-1.9-4.9l-4.2-11h-1.8l7.2,17.8l-0.5,1.5c-0.9,2.7-2.3,4.6-4.5,4.6
		C125,276.7,124.4,276.6,124,276.5z M107.9,267v-10.4c2.1-1.9,4-2.9,5.7-2.9c4,0,5.5,3.2,5.5,7.5c0,4.7-2.6,8-6.1,8
		C111.8,269.3,109.9,268.6,107.9,267z M106.3,270.3h1.4l0.2-1.6h0.1c1.6,1.3,3.6,2.1,5.3,2.1c4.1,0,7.7-3.5,7.7-9.4
		c0-5.4-2.3-8.9-7-8.9c-2.2,0-4.3,1.2-6.1,2.7l0.1-3.4V244h-1.6V270.3z M86.8,264c0,4.5,1.7,6.7,5.3,6.7c2.4,0,4.2-1.3,5.9-3.4h0.1
		l0.2,2.9h1.4v-17.5H98v12.9c-2,2.5-3.6,3.6-5.7,3.6c-2.8,0-4-1.8-4-5.5v-11h-1.6V264z M82.1,270.3l-6.6-11.2
		c3.8-0.5,6.2-2.7,6.2-6.5c0-4.6-3.1-6.3-7.9-6.3h-6.9v24h1.7v-11.1h5.1l6.5,11.1H82.1z M68.6,257.8v-10.2h4.7
		c4.3,0,6.6,1.3,6.6,4.9c0,3.5-2.3,5.3-6.6,5.3H68.6z"/>
	<path class="st0" d="M291.8,285.1H184.4c-2.3,0-4.3-1.9-4.3-4.3v-44.3c0-2.3,1.9-4.3,4.3-4.3h107.4c2.3,0,4.3,1.9,4.3,4.3v44.3
		C296,283.2,294.1,285.1,291.8,285.1z"/>
	<path class="st1" d="M258.6,265.8c0-2.8,2.4-4.5,9.6-5.3v5.9c-2.2,1.9-3.9,2.8-5.9,2.8C260.3,269.3,258.6,268.3,258.6,265.8z
		 M256.9,265.9c0,3.3,2.3,4.8,5.1,4.8c2.3,0,4.4-1.3,6.2-2.7h0.1l0.2,2.3h1.3v-11.2c0-3.8-1.4-6.7-5.5-6.7c-2.8,0-5.3,1.4-6.5,2.3
		l0.7,1.2c1.2-0.9,3.2-2,5.6-2c3.4,0,4.2,2.9,4.1,5.5C260.5,260.1,256.9,262,256.9,265.9z M246.4,270.3h1.9l6.5-17.5h-1.6l-3.9,11
		c-0.6,1.7-1.2,3.4-1.8,5h-0.1c-0.5-1.6-1.2-3.4-1.8-5l-3.9-11h-1.8L246.4,270.3z M225.3,265.8c0-2.8,2.4-4.5,9.6-5.3v5.9
		c-2.2,1.9-3.9,2.8-5.9,2.8C227,269.3,225.3,268.3,225.3,265.8z M223.6,265.9c0,3.3,2.3,4.8,5.1,4.8c2.3,0,4.4-1.3,6.2-2.7h0.1
		l0.2,2.3h1.3v-11.2c0-3.8-1.4-6.7-5.5-6.7c-2.8,0-5.3,1.4-6.5,2.3l0.7,1.2c1.2-0.9,3.2-2,5.6-2c3.4,0,4.2,2.9,4.1,5.5
		C227.2,260.1,223.6,262,223.6,265.9z M206,267.2c1.2,2.3,3.2,3.5,5.9,3.5c4.3,0,6-3.1,6-7v-17.5h-1.7v17.3c0,3.9-1.4,5.6-4.3,5.6
		c-2,0-3.4-0.8-4.6-2.8L206,267.2z"/>
	<path class="st0" d="M-48.3,352.9h-79c-2.3,0-4.3-1.9-4.3-4.3v-44.3c0-2.3,1.9-4.3,4.3-4.3h79c2.3,0,4.3,1.9,4.3,4.3v44.3
		C-44.1,351-46,352.9-48.3,352.9z"/>
	<path class="st1" d="M-81.8,329.3c0-4.6,2.6-7.8,6.2-7.8s6.2,3.2,6.2,7.8c0,4.6-2.7,7.7-6.2,7.7S-81.8,333.9-81.8,329.3z
		 M-83.5,329.3c0,5.8,3.6,9.2,7.8,9.2c4.2,0,7.9-3.4,7.9-9.2c0-5.9-3.6-9.2-7.9-9.2C-79.8,320.1-83.5,323.4-83.5,329.3z
		 M-105.3,325.9c0,7.7,4.2,12.5,10.3,12.5c3.1,0,5.6-1.1,7.1-2.7v-9.5h-7.3v1.4h5.7v7.5c-1.2,1.2-3.2,1.8-5.4,1.8
		c-5.5,0-8.7-4.3-8.7-11c0-6.7,3.4-10.9,8.9-10.9c2.6,0,4.3,1.1,5.5,2.4l1-1.1c-1.3-1.3-3.3-2.9-6.5-2.9
		C-101,313.5-105.3,318.3-105.3,325.9z"/>
	<path class="st0" d="M67.5,352.9h-89.4c-2.3,0-4.3-1.9-4.3-4.3v-44.3c0-2.3,1.9-4.3,4.3-4.3h89.4c2.3,0,4.3,1.9,4.3,4.3v44.3
		C71.8,351,69.9,352.9,67.5,352.9z"/>
	<path class="st1" d="M44.1,334h1.5v-7.3h6.7v-1.4h-6.7V318h-1.5v7.3h-6.7v1.4h6.7V334z M26.6,334h1.5v-7.3h6.7v-1.4h-6.7V318h-1.5
		v7.3h-6.7v1.4h6.7V334z M0.2,325.9c0,7.7,4.2,12.5,10.1,12.5c3.1,0,5.3-1.3,7.2-3.4l-1-1.1c-1.8,2-3.6,3-6.1,3
		c-5.1,0-8.4-4.3-8.4-11c0-6.7,3.3-10.9,8.5-10.9c2.2,0,3.9,1,5.3,2.4l1-1.1c-1.3-1.5-3.4-2.9-6.2-2.9
		C4.3,313.5,0.2,318.3,0.2,325.9z"/>
	<path class="st0" d="M199.5,352.9H93.6c-2.3,0-4.3-1.9-4.3-4.3v-44.3c0-2.3,1.9-4.3,4.3-4.3h105.9c2.3,0,4.3,1.9,4.3,4.3v44.3
		C203.7,351,201.8,352.9,199.5,352.9z"/>
	<path class="st1" d="M171.8,333.2c0,3.1,1,5.3,4.4,5.3c0.7,0,1.8-0.3,2.8-0.7l-0.4-1.3c-0.6,0.3-1.5,0.5-2.2,0.5
		c-2.4,0-3-1.5-3-3.7v-11.4h5.1v-1.4h-5.1v-5.1H172l-0.2,5.1l-2.8,0.1v1.2h2.7V333.2z M154.4,336.1c1.6,1.3,3.8,2.4,6.4,2.4
		c3.8,0,5.9-2.3,5.9-4.9c0-3.4-3-4.3-5.7-5.4c-2.1-0.8-4.1-1.6-4.1-3.5c0-1.6,1.2-3.2,3.9-3.2c1.8,0,3,0.7,4.2,1.6l0.9-1.1
		c-1.3-1.1-3.1-1.8-5-1.8c-3.6,0-5.7,2.1-5.7,4.7c0,3,2.9,4,5.6,5c2,0.7,4.3,1.7,4.3,3.9c0,1.9-1.4,3.5-4.2,3.5
		c-2.5,0-4.1-1-5.6-2.2L154.4,336.1z M137.1,331.7c0,4.5,1.7,6.7,5.3,6.7c2.4,0,4.2-1.3,5.9-3.4h0.1l0.2,2.9h1.3v-17.5h-1.6v12.9
		c-2,2.5-3.6,3.6-5.7,3.6c-2.8,0-4-1.8-4-5.5v-11h-1.6V331.7z M132.4,338l-6.6-11.2c3.8-0.5,6.2-2.7,6.2-6.5c0-4.6-3.1-6.3-7.9-6.3
		h-6.9v24h1.7V327h5.1l6.5,11.1H132.4z M118.9,325.6v-10.2h4.7c4.3,0,6.6,1.3,6.6,4.9c0,3.5-2.3,5.3-6.6,5.3H118.9z"/>
	<path class="st0" d="M350.2,352.9H223.6c-2.3,0-4.3-1.9-4.3-4.3v-44.3c0-2.3,1.9-4.3,4.3-4.3h126.6c2.3,0,4.3,1.9,4.3,4.3v44.3
		C354.5,351,352.6,352.9,350.2,352.9z"/>
	<path class="st1" d="M322.1,328.2c0.4-4.2,3-6.8,6-6.8c3.1,0,5.1,2.3,5.1,6.8H322.1z M320.4,329.3c0,5.7,3.6,9.2,8.1,9.2
		c2.6,0,4.1-0.9,5.5-1.7l-0.7-1.2c-1.3,0.9-2.8,1.6-4.7,1.6c-3.9,0-6.5-3.2-6.6-7.6h12.6c0.1-0.4,0.1-0.9,0.1-1.3
		c0-5.1-2.6-8.1-6.7-8.1C324.1,320.1,320.4,323.6,320.4,329.3z M310.7,338h1.6v-11.9c1.3-3.3,3.2-4.5,4.8-4.5c0.7,0,1,0.1,1.6,0.3
		l0.4-1.5c-0.6-0.3-1.1-0.4-1.8-0.4c-2.1,0-3.8,1.5-5,3.7h-0.1l-0.1-3.2h-1.4V338z M291.4,329.3c0-4.6,2.6-7.8,6.2-7.8
		s6.2,3.2,6.2,7.8c0,4.6-2.7,7.7-6.2,7.7S291.4,333.9,291.4,329.3z M289.7,329.3c0,5.8,3.6,9.2,7.8,9.2c4.2,0,7.9-3.4,7.9-9.2
		c0-5.9-3.6-9.2-7.9-9.2C293.4,320.1,289.7,323.4,289.7,329.3z M261.5,338h1.6v-13.2c1.9-2.2,3.7-3.3,5.3-3.3c2.7,0,3.9,1.8,3.9,5.5
		v11h1.6v-13.2c1.9-2.2,3.6-3.3,5.3-3.3c2.7,0,3.9,1.8,3.9,5.5v11h1.6v-11.2c0-4.5-1.8-6.7-5.3-6.7c-2,0-3.9,1.4-5.9,3.6
		c-0.6-2.2-2-3.6-4.9-3.6c-1.9,0-3.9,1.3-5.5,3.1h-0.1l-0.1-2.7h-1.4V338z M248.7,334h1.5v-7.3h6.7v-1.4h-6.7V318h-1.5v7.3h-6.7v1.4
		h6.7V334z"/>
</g>
</svg>
