<?xml version="1.0" encoding="utf-8"?>
<!-- Generator: Adobe Illustrator 19.2.0, SVG Export Plug-In . SVG Version: 6.00 Build 0)  -->
<svg version="1.1" id="Layer_1" xmlns="http://www.w3.org/2000/svg" xmlns:xlink="http://www.w3.org/1999/xlink" x="0px" y="0px"
	 viewBox="0 0 803.2 229" style="enable-background:new 0 0 803.2 229;" xml:space="preserve">
<style type="text/css">
	.st0{fill:none;stroke:#8DA1CE;stroke-miterlimit:10;}
	.st1{fill:#4C4277;}
	.st2{fill:#615C93;}
	.st3{fill:#5A5289;}
	.st4{opacity:0.6;fill:#5A5289;enable-background:new    ;}
	.st5{opacity:0.3;fill:#5A5289;enable-background:new    ;}
	.st6{fill:none;stroke:#8DA1CE;stroke-miterlimit:10;stroke-dasharray:12,12;}
	.st7{opacity:0.4;fill:#A8B6DD;enable-background:new    ;}
	.st8{fill:#FFFFFF;}
	.st9{fill:#B8B3E8;}
</style>
<path class="st0" d="M776.1,206.8H367.3c-5.8,0-10.4-4.7-10.4-10.4V36.6c0-5.8,4.7-10.4,10.4-10.4h408.8c5.8,0,10.4,4.7,10.4,10.4
	v159.8C786.5,202.2,781.8,206.8,776.1,206.8z"/>
<rect x="92.3" y="177.5" class="st1" width="70.6" height="51.6"/>
<rect y="201" class="st1" width="70.6" height="28"/>
<rect x="53.4" y="97.9" class="st1" width="78.7" height="131.2"/>
<rect x="153.8" y="42.7" class="st1" width="77.8" height="186.3"/>
<rect x="201.7" y="140.6" class="st1" width="69.7" height="88.5"/>
<rect x="160.7" y="52.1" class="st2" width="28.1" height="11.7"/>
<rect x="195.6" y="52.1" class="st2" width="28.1" height="11.7"/>
<rect x="160.7" y="69" class="st3" width="28.1" height="11.7"/>
<rect x="195.6" y="69" class="st3" width="28.1" height="11.7"/>
<rect x="61.9" y="105.9" class="st2" width="28.1" height="11.7"/>
<rect x="96.7" y="105.9" class="st2" width="28.1" height="11.7"/>
<rect x="61.9" y="122.9" class="st3" width="28.1" height="11.7"/>
<rect x="96.7" y="122.9" class="st3" width="28.1" height="11.7"/>
<rect x="61.9" y="140.6" class="st3" width="28.1" height="11.7"/>
<rect x="96.7" y="140.6" class="st4" width="28.1" height="11.7"/>
<rect x="96.7" y="157.5" class="st5" width="28.1" height="11.7"/>
<rect x="61.9" y="157.5" class="st4" width="28.1" height="11.7"/>
<rect x="61.9" y="174.1" class="st5" width="28.1" height="11.7"/>
<rect x="160.7" y="86.6" class="st3" width="28.1" height="11.7"/>
<rect x="195.6" y="86.6" class="st3" width="28.1" height="11.7"/>
<rect x="160.7" y="103.5" class="st3" width="28.1" height="11.7"/>
<rect x="195.6" y="103.5" class="st4" width="28.1" height="11.7"/>
<rect x="195.6" y="120.2" class="st5" width="28.1" height="11.7"/>
<rect x="160.7" y="120.2" class="st4" width="28.1" height="11.7"/>
<rect x="160.7" y="137.2" class="st5" width="28.1" height="11.7"/>
<line class="st6" x1="241.8" y1="86.4" x2="359" y2="86.4"/>
<path class="st7" d="M508.8,189.2H395.7c-5.5,0-10.1-4.6-10.1-10.1V66c0-5.5,4.6-10.1,10.1-10.1h113.1c5.5,0,10.1,4.6,10.1,10.1
	v113.1C519.2,184.6,514.5,189.2,508.8,189.2z"/>
<path class="st1" d="M503.4,184.1H390.5c-5.5,0-10.1-4.6-10.1-10.1V60.9c0-5.5,4.6-10.1,10.1-10.1h112.8c5.5,0,10.1,4.6,10.1,10.1
	V174C513.5,179.4,509.1,184.1,503.4,184.1z"/>
<g>
	<path class="st8" d="M469,72.9h-63.5c-2.2,0-4.1,1.6-4.1,4.1V96l-12,13.1h12v9.8c0,2.2,1.6,4.1,4.1,4.1H469c2.2,0,4.1-1.6,4.1-4.1
		v-42C472.8,74.8,471.2,72.9,469,72.9z"/>
	<path class="st9" d="M503.9,145.4l-11.7-12.3v-19.4c0-2.2-1.6-4.1-4.1-4.1h-61.9c-2.2,0-4.1,1.6-4.1,4.1V156c0,2.2,1.6,4.1,4.1,4.1
		h61.9c2.2,0,4.1-1.6,4.1-4.1v-10.4h11.7V145.4z"/>
</g>
<g>
	<path class="st1" d="M550.1,119.5h-12.3v-4.2h12.3v-13.2h4.4v13.2h12.3v4.2h-12.3v13.2h-4.4V119.5z"/>
</g>
<g>
	<path class="st1" d="M600.2,60.7c0-1.3-0.4-2.6-2.1-2.6c-1.2,0-2.2,0.5-3,1.1l-0.7-1.2c0.9-0.6,2.4-1.3,4-1.3
		c2.5,0,3.5,1.7,3.5,4.2v6.2h-1.4l-0.1-1.2h0c-1,0.8-2.1,1.5-3.4,1.5c-1.7,0-3-1.1-3-2.9C593.9,62.3,595.9,61.2,600.2,60.7z
		 M597.4,66.1c1,0,1.8-0.5,2.8-1.4v-2.8c-3.4,0.4-4.6,1.3-4.6,2.6C595.6,65.6,596.4,66.1,597.4,66.1z"/>
	<path class="st1" d="M605,57h1.7v6.2c0,1.9,0.6,2.7,1.9,2.7c1,0,1.8-0.5,2.7-1.7V57h1.7v10.2h-1.4l-0.1-1.6h-0.1
		c-0.9,1.1-1.9,1.8-3.4,1.8c-2.2,0-3.1-1.4-3.1-4V57z"/>
	<path class="st1" d="M620.2,56.8c1.2,0,1.9,0.4,2.8,1.2l-0.1-1.7v-3.9h1.7v14.9h-1.4l-0.1-1.2h-0.1c-0.8,0.8-1.9,1.4-3.1,1.4
		c-2.6,0-4.2-1.9-4.2-5.3C615.8,58.8,617.9,56.8,620.2,56.8z M620.4,66c0.9,0,1.8-0.5,2.6-1.4v-5.3c-0.9-0.8-1.6-1.1-2.5-1.1
		c-1.6,0-2.9,1.6-2.9,3.9C617.6,64.5,618.6,66,620.4,66z"/>
	<path class="st1" d="M627.9,53.8c0-0.7,0.5-1.1,1.2-1.1c0.7,0,1.2,0.4,1.2,1.1c0,0.6-0.5,1.1-1.2,1.1
		C628.4,54.9,627.9,54.4,627.9,53.8z M628.2,57h1.7v10.2h-1.7V57z"/>
	<path class="st1" d="M633.6,58.4h-1.5v-1.3l1.6-0.1l0.2-2.8h1.4V57h2.7v1.4h-2.7v5.7c0,1.3,0.4,2,1.6,2c0.4,0,0.8-0.1,1.2-0.3
		l0.3,1.3c-0.6,0.2-1.3,0.4-1.9,0.4c-2.2,0-2.9-1.4-2.9-3.4V58.4z"/>
	<path class="st1" d="M644.6,52.3h1.7v13c0,0.5,0.2,0.8,0.5,0.8c0.1,0,0.2,0,0.4,0l0.2,1.3c-0.2,0.1-0.5,0.2-1,0.2
		c-1.3,0-1.8-0.8-1.8-2.3V52.3z"/>
	<path class="st1" d="M654,56.8c2.5,0,4.7,1.9,4.7,5.4c0,3.4-2.2,5.3-4.7,5.3c-2.5,0-4.7-1.9-4.7-5.3
		C649.2,58.7,651.5,56.8,654,56.8z M654,66c1.8,0,2.9-1.6,2.9-3.9c0-2.3-1.2-3.9-2.9-3.9c-1.7,0-2.9,1.6-2.9,3.9
		C651,64.4,652.2,66,654,66z"/>
	<path class="st1" d="M662.1,66.8L662.1,66.8c-0.5-0.4-0.9-0.9-0.9-1.7c0-0.9,0.6-1.5,1.1-1.9v-0.1c-0.7-0.5-1.3-1.5-1.3-2.7
		c0-2.2,1.8-3.6,3.8-3.6c0.6,0,1.1,0.1,1.4,0.3h3.5v1.3h-2.1c0.5,0.5,0.8,1.2,0.8,2.1c0,2.2-1.7,3.5-3.7,3.5c-0.5,0-1.1-0.1-1.5-0.4
		c-0.4,0.3-0.6,0.6-0.6,1.2c0,0.6,0.4,1.1,1.8,1.1h2c2.4,0,3.6,0.7,3.6,2.4c0,1.9-2,3.5-5.2,3.5c-2.5,0-4.2-1-4.2-2.7
		C660.6,68.3,661.1,67.5,662.1,66.8z M665,70.7c1.9,0,3.2-1,3.2-2.1c0-0.9-0.7-1.3-2.1-1.3h-1.8c-0.4,0-0.9,0-1.3-0.2
		c-0.7,0.5-1,1.1-1,1.7C662.1,70,663.2,70.7,665,70.7z M666.9,60.4c0-1.5-1-2.4-2.2-2.4c-1.2,0-2.2,0.9-2.2,2.4c0,1.5,1,2.4,2.2,2.4
		S666.9,61.9,666.9,60.4z"/>
	<path class="st1" d="M672.6,66.8L672.6,66.8c-0.5-0.4-0.9-0.9-0.9-1.7c0-0.9,0.6-1.5,1.1-1.9v-0.1c-0.7-0.5-1.3-1.5-1.3-2.7
		c0-2.2,1.8-3.6,3.8-3.6c0.6,0,1.1,0.1,1.4,0.3h3.5v1.3h-2.1c0.5,0.5,0.8,1.2,0.8,2.1c0,2.2-1.7,3.5-3.7,3.5c-0.5,0-1.1-0.1-1.5-0.4
		c-0.4,0.3-0.6,0.6-0.6,1.2c0,0.6,0.4,1.1,1.8,1.1h2c2.4,0,3.6,0.7,3.6,2.4c0,1.9-2,3.5-5.2,3.5c-2.5,0-4.2-1-4.2-2.7
		C671.1,68.3,671.7,67.5,672.6,66.8z M675.6,70.7c1.9,0,3.2-1,3.2-2.1c0-0.9-0.7-1.3-2.1-1.3H675c-0.4,0-0.9,0-1.3-0.2
		c-0.7,0.5-1,1.1-1,1.7C672.6,70,673.8,70.7,675.6,70.7z M677.5,60.4c0-1.5-1-2.4-2.2-2.4c-1.2,0-2.2,0.9-2.2,2.4
		c0,1.5,1,2.4,2.2,2.4S677.5,61.9,677.5,60.4z"/>
	<path class="st1" d="M682.2,53.8c0-0.7,0.5-1.1,1.2-1.1c0.7,0,1.2,0.4,1.2,1.1c0,0.6-0.5,1.1-1.2,1.1
		C682.7,54.9,682.2,54.4,682.2,53.8z M682.5,57h1.7v10.2h-1.7V57z"/>
	<path class="st1" d="M687.6,57h1.4l0.1,1.5h0.1c1-1,2-1.7,3.4-1.7c2.1,0,3.1,1.4,3.1,4v6.5h-1.7V61c0-1.9-0.6-2.7-1.9-2.7
		c-1,0-1.8,0.5-2.8,1.6v7.4h-1.7V57z"/>
	<path class="st1" d="M699.8,66.8L699.8,66.8c-0.5-0.4-0.9-0.9-0.9-1.7c0-0.9,0.6-1.5,1.1-1.9v-0.1c-0.7-0.5-1.3-1.5-1.3-2.7
		c0-2.2,1.8-3.6,3.8-3.6c0.6,0,1.1,0.1,1.4,0.3h3.5v1.3h-2.1c0.5,0.5,0.8,1.2,0.8,2.1c0,2.2-1.7,3.5-3.7,3.5c-0.5,0-1.1-0.1-1.5-0.4
		c-0.4,0.3-0.6,0.6-0.6,1.2c0,0.6,0.4,1.1,1.8,1.1h2c2.4,0,3.6,0.7,3.6,2.4c0,1.9-2,3.5-5.2,3.5c-2.5,0-4.2-1-4.2-2.7
		C698.3,68.3,698.9,67.5,699.8,66.8z M702.8,70.7c1.9,0,3.2-1,3.2-2.1c0-0.9-0.7-1.3-2.1-1.3h-1.8c-0.4,0-0.9,0-1.3-0.2
		c-0.7,0.5-1,1.1-1,1.7C699.8,70,700.9,70.7,702.8,70.7z M704.7,60.4c0-1.5-1-2.4-2.2-2.4c-1.2,0-2.2,0.9-2.2,2.4
		c0,1.5,1,2.4,2.2,2.4C703.7,62.8,704.7,61.9,704.7,60.4z"/>
	<path class="st1" d="M598.2,93.4c2.6,0,4.1,1.9,4.1,4.8c0,0.4,0,0.7-0.1,0.9h-6.9c0.1,2.2,1.4,3.6,3.4,3.6c1,0,1.8-0.3,2.5-0.8
		l0.6,1.1c-0.9,0.6-2,1-3.4,1c-2.7,0-4.9-2-4.9-5.3S595.9,93.4,598.2,93.4z M600.8,98c0-2.1-0.9-3.2-2.5-3.2c-1.4,0-2.7,1.2-2.9,3.2
		H600.8z"/>
	<path class="st1" d="M604.8,93.7h1.4l0.1,1.5h0.1c1-1,2-1.7,3.4-1.7c2.1,0,3.1,1.4,3.1,4v6.5h-1.7v-6.2c0-1.9-0.6-2.7-1.9-2.7
		c-1,0-1.8,0.5-2.8,1.6v7.4h-1.7V93.7z"/>
	<path class="st1" d="M620.4,93.4c1.3,0,2.3,0.6,3,1.2l-0.9,1.1c-0.6-0.5-1.2-0.9-2.1-0.9c-1.8,0-3.2,1.6-3.2,3.9
		c0,2.3,1.3,3.9,3.1,3.9c1,0,1.8-0.5,2.4-1l0.8,1.1c-0.9,0.8-2.1,1.3-3.3,1.3c-2.7,0-4.8-1.9-4.8-5.3
		C615.5,95.4,617.8,93.4,620.4,93.4z"/>
	<path class="st1" d="M625.8,93.7h1.4l0.1,1.8h0.1c0.7-1.3,1.7-2.1,2.9-2.1c0.4,0,0.8,0.1,1.1,0.2l-0.3,1.5c-0.3-0.1-0.6-0.2-1-0.2
		c-0.9,0-1.9,0.6-2.6,2.3v6.5h-1.7V93.7z"/>
	<path class="st1" d="M633.6,106.8c1.2,0,1.9-0.9,2.3-2.2l0.2-0.8L632,93.7h1.8l2.1,5.6c0.3,0.9,0.7,1.9,1,2.9h0.1
		c0.3-0.9,0.6-2,0.9-2.9l1.8-5.6h1.7l-3.8,11c-0.7,2-1.8,3.5-3.8,3.5c-0.5,0-0.9-0.1-1.2-0.2l0.3-1.4
		C633,106.7,633.3,106.8,633.6,106.8z"/>
	<path class="st1" d="M645,104.7v3.4h-1.7V93.7h1.4l0.1,1.2h0.1c0.9-0.8,2.1-1.4,3.2-1.4c2.6,0,4,2,4,5.2c0,3.5-2.1,5.5-4.4,5.5
		c-0.9,0-1.9-0.4-2.8-1.2L645,104.7z M647.5,102.7c1.7,0,2.9-1.5,2.9-4c0-2.2-0.8-3.7-2.7-3.7c-0.9,0-1.7,0.5-2.7,1.4v5.3
		C645.9,102.4,646.8,102.7,647.5,102.7z"/>
	<path class="st1" d="M655.2,95.1h-1.5v-1.3l1.6-0.1l0.2-2.8h1.4v2.8h2.7v1.4h-2.7v5.7c0,1.3,0.4,2,1.6,2c0.4,0,0.8-0.1,1.2-0.3
		l0.3,1.3c-0.6,0.2-1.3,0.4-1.9,0.4c-2.2,0-2.9-1.4-2.9-3.4V95.1z"/>
	<path class="st1" d="M661.7,90.5c0-0.7,0.5-1.1,1.2-1.1c0.7,0,1.2,0.4,1.2,1.1c0,0.6-0.5,1.1-1.2,1.1
		C662.2,91.6,661.7,91.1,661.7,90.5z M662,93.7h1.7v10.2H662V93.7z"/>
	<path class="st1" d="M671.1,93.4c2.5,0,4.7,1.9,4.7,5.4c0,3.4-2.2,5.3-4.7,5.3c-2.5,0-4.7-1.9-4.7-5.3
		C666.4,95.4,668.6,93.4,671.1,93.4z M671.1,102.7c1.8,0,2.9-1.6,2.9-3.9c0-2.3-1.2-3.9-2.9-3.9c-1.7,0-2.9,1.6-2.9,3.9
		C668.2,101.1,669.4,102.7,671.1,102.7z"/>
	<path class="st1" d="M678.5,93.7h1.4l0.1,1.5h0.1c1-1,2-1.7,3.4-1.7c2.1,0,3.1,1.4,3.1,4v6.5h-1.7v-6.2c0-1.9-0.6-2.7-1.9-2.7
		c-1,0-1.8,0.5-2.8,1.6v7.4h-1.7V93.7z"/>
	<path class="st1" d="M594.5,126.8h1.8V139h6v1.5h-7.8V126.8z"/>
	<path class="st1" d="M604.6,126.8h3.4c4.2,0,6.5,2.5,6.5,6.8c0,4.4-2.3,6.9-6.4,6.9h-3.5V126.8z M607.9,139.1c3.2,0,4.8-2,4.8-5.5
		c0-3.5-1.6-5.4-4.8-5.4h-1.6v10.9H607.9z"/>
	<path class="st1" d="M623.5,136.3h-5l-1.3,4.2h-1.8l4.7-13.7h2l4.7,13.7h-1.8L623.5,136.3z M623.1,134.9l-0.6-2.1
		c-0.5-1.5-0.9-3-1.4-4.6H621c-0.4,1.6-0.9,3.1-1.4,4.6l-0.7,2.1H623.1z"/>
	<path class="st1" d="M628.5,126.8h4.2c3,0,5.1,1,5.1,4c0,2.9-2.1,4.3-5.1,4.3h-2.5v5.4h-1.8V126.8z M632.5,133.6
		c2.4,0,3.6-0.9,3.6-2.8c0-2-1.2-2.6-3.6-2.6h-2.2v5.5H632.5z"/>
	<path class="st1" d="M644.3,127.1c0-0.7,0.5-1.1,1.2-1.1c0.7,0,1.2,0.4,1.2,1.1c0,0.6-0.5,1.1-1.2,1.1
		C644.8,128.2,644.3,127.8,644.3,127.1z M644.6,130.3h1.7v10.2h-1.7V130.3z"/>
	<path class="st1" d="M649.7,130.3h1.4l0.1,1.5h0.1c1-1,2-1.7,3.4-1.7c2.1,0,3.1,1.4,3.1,4v6.5h-1.7v-6.2c0-1.9-0.6-2.7-1.9-2.7
		c-1,0-1.8,0.5-2.8,1.6v7.4h-1.7V130.3z"/>
	<path class="st1" d="M661.5,131.7H660v-1.3l1.6-0.1l0.2-2.8h1.4v2.8h2.7v1.4h-2.7v5.7c0,1.3,0.4,2,1.6,2c0.4,0,0.8-0.1,1.2-0.3
		l0.3,1.3c-0.6,0.2-1.3,0.4-1.9,0.4c-2.2,0-2.9-1.4-2.9-3.4V131.7z"/>
	<path class="st1" d="M671.9,130.1c2.6,0,4.1,1.9,4.1,4.8c0,0.4,0,0.7-0.1,0.9H669c0.1,2.2,1.4,3.6,3.4,3.6c1,0,1.8-0.3,2.5-0.8
		l0.6,1.1c-0.9,0.6-2,1-3.4,1c-2.7,0-4.9-2-4.9-5.3S669.6,130.1,671.9,130.1z M674.4,134.7c0-2.1-0.9-3.2-2.5-3.2
		c-1.4,0-2.7,1.2-2.9,3.2H674.4z"/>
	<path class="st1" d="M679,140.2L679,140.2c-0.5-0.4-0.9-0.9-0.9-1.7c0-0.9,0.6-1.5,1.1-1.9v-0.1c-0.7-0.5-1.3-1.5-1.3-2.7
		c0-2.2,1.8-3.6,3.8-3.6c0.6,0,1.1,0.1,1.4,0.3h3.5v1.3h-2.1c0.5,0.5,0.8,1.2,0.8,2.1c0,2.2-1.7,3.5-3.7,3.5c-0.5,0-1.1-0.1-1.5-0.4
		c-0.4,0.3-0.6,0.6-0.6,1.2c0,0.6,0.4,1.1,1.8,1.1h2c2.4,0,3.6,0.7,3.6,2.4c0,1.9-2,3.5-5.2,3.5c-2.5,0-4.2-1-4.2-2.7
		C677.5,141.6,678,140.8,679,140.2z M681.9,144c1.9,0,3.2-1,3.2-2.1c0-0.9-0.7-1.3-2.1-1.3h-1.8c-0.4,0-0.9,0-1.3-0.2
		c-0.7,0.5-1,1.1-1,1.7C679,143.3,680.1,144,681.9,144z M683.8,133.7c0-1.5-1-2.4-2.2-2.4c-1.2,0-2.2,0.9-2.2,2.4s1,2.4,2.2,2.4
		C682.9,136.1,683.8,135.2,683.8,133.7z"/>
	<path class="st1" d="M688.8,130.3h1.4l0.1,1.8h0.1c0.7-1.3,1.7-2.1,2.9-2.1c0.4,0,0.8,0.1,1.1,0.2l-0.3,1.5c-0.3-0.1-0.6-0.2-1-0.2
		c-0.9,0-1.9,0.6-2.6,2.3v6.5h-1.7V130.3z"/>
	<path class="st1" d="M701.3,134.1c0-1.3-0.4-2.6-2.1-2.6c-1.2,0-2.2,0.5-3,1.1l-0.7-1.2c0.9-0.6,2.4-1.3,4-1.3
		c2.5,0,3.5,1.7,3.5,4.2v6.2h-1.4l-0.1-1.2h0c-1,0.8-2.1,1.5-3.4,1.5c-1.7,0-3-1.1-3-2.9C695.1,135.7,697,134.5,701.3,134.1z
		 M698.5,139.4c1,0,1.8-0.5,2.8-1.4v-2.8c-3.4,0.4-4.6,1.3-4.6,2.6C696.8,138.9,697.5,139.4,698.5,139.4z"/>
	<path class="st1" d="M706.6,131.7h-1.5v-1.3l1.6-0.1l0.2-2.8h1.4v2.8h2.7v1.4h-2.7v5.7c0,1.3,0.4,2,1.6,2c0.4,0,0.8-0.1,1.2-0.3
		l0.3,1.3c-0.6,0.2-1.3,0.4-1.9,0.4c-2.2,0-2.9-1.4-2.9-3.4V131.7z"/>
	<path class="st1" d="M713.1,127.1c0-0.7,0.5-1.1,1.2-1.1c0.7,0,1.2,0.4,1.2,1.1c0,0.6-0.5,1.1-1.2,1.1
		C713.6,128.2,713.1,127.8,713.1,127.1z M713.4,130.3h1.7v10.2h-1.7V130.3z"/>
	<path class="st1" d="M722.5,130.1c2.5,0,4.7,1.9,4.7,5.4c0,3.4-2.2,5.3-4.7,5.3c-2.5,0-4.7-1.9-4.7-5.3
		C717.8,132,720,130.1,722.5,130.1z M722.5,139.3c1.8,0,2.9-1.6,2.9-3.9c0-2.3-1.2-3.9-2.9-3.9c-1.7,0-2.9,1.6-2.9,3.9
		C719.5,137.8,720.7,139.3,722.5,139.3z"/>
	<path class="st1" d="M729.9,130.3h1.4l0.1,1.5h0.1c1-1,2-1.7,3.4-1.7c2.1,0,3.1,1.4,3.1,4v6.5h-1.7v-6.2c0-1.9-0.6-2.7-1.9-2.7
		c-1,0-1.8,0.5-2.8,1.6v7.4h-1.7V130.3z"/>
	<path class="st1" d="M594.5,163.4h1.8v5.8h6.4v-5.8h1.7v13.7h-1.7v-6.5h-6.4v6.5h-1.8V163.4z"/>
	<path class="st1" d="M608.1,163.4h1.8v13.7h-1.8V163.4z"/>
	<path class="st1" d="M613.5,163.4h4.2c3,0,5.1,1,5.1,4c0,2.9-2.1,4.3-5.1,4.3h-2.5v5.4h-1.8V163.4z M617.5,170.3
		c2.4,0,3.6-0.9,3.6-2.8c0-2-1.2-2.6-3.6-2.6h-2.2v5.5H617.5z"/>
	<path class="st1" d="M630.7,173h-5l-1.3,4.2h-1.8l4.7-13.7h2l4.7,13.7H632L630.7,173z M630.3,171.6l-0.6-2.1
		c-0.5-1.5-0.9-3-1.4-4.6h-0.1c-0.4,1.6-0.9,3.1-1.4,4.6l-0.7,2.1H630.3z"/>
	<path class="st1" d="M642,173h-5l-1.3,4.2h-1.8l4.7-13.7h2l4.7,13.7h-1.8L642,173z M641.5,171.6l-0.6-2.1c-0.5-1.5-0.9-3-1.4-4.6
		h-0.1c-0.4,1.6-0.9,3.1-1.4,4.6l-0.7,2.1H641.5z"/>
	<path class="st1" d="M655.2,166.7c1.3,0,2.3,0.6,3,1.2l-0.9,1.1c-0.6-0.5-1.2-0.9-2.1-0.9c-1.8,0-3.2,1.6-3.2,3.9
		c0,2.3,1.3,3.9,3.1,3.9c1,0,1.8-0.5,2.4-1l0.8,1.1c-0.9,0.8-2.1,1.3-3.3,1.3c-2.7,0-4.8-1.9-4.8-5.3
		C650.3,168.7,652.6,166.7,655.2,166.7z"/>
	<path class="st1" d="M664.2,166.7c2.5,0,4.7,1.9,4.7,5.4c0,3.4-2.2,5.3-4.7,5.3c-2.5,0-4.7-1.9-4.7-5.3
		C659.4,168.7,661.7,166.7,664.2,166.7z M664.2,176c1.8,0,2.9-1.6,2.9-3.9c0-2.3-1.2-3.9-2.9-3.9c-1.7,0-2.9,1.6-2.9,3.9
		C661.2,174.4,662.4,176,664.2,176z"/>
	<path class="st1" d="M671.6,167h1.4l0.1,1.5h0.1c0.9-1,1.9-1.7,3.2-1.7c1.6,0,2.4,0.7,2.8,1.9c1.1-1.2,2.1-1.9,3.4-1.9
		c2.1,0,3.1,1.4,3.1,4v6.5h-1.7V171c0-1.9-0.6-2.7-1.9-2.7c-0.8,0-1.6,0.5-2.6,1.6v7.4h-1.7V171c0-1.9-0.6-2.7-1.9-2.7
		c-0.8,0-1.6,0.5-2.6,1.6v7.4h-1.7V167z"/>
	<path class="st1" d="M690.6,178v3.4h-1.7V167h1.4l0.1,1.2h0.1c0.9-0.8,2.1-1.4,3.2-1.4c2.6,0,4,2,4,5.2c0,3.5-2.1,5.5-4.4,5.5
		c-0.9,0-1.9-0.4-2.8-1.2L690.6,178z M693.1,176c1.7,0,2.9-1.5,2.9-4c0-2.2-0.8-3.7-2.7-3.7c-0.9,0-1.7,0.5-2.7,1.4v5.3
		C691.6,175.7,692.5,176,693.1,176z"/>
	<path class="st1" d="M700.5,162.3h1.7v13c0,0.5,0.2,0.8,0.5,0.8c0.1,0,0.2,0,0.4,0l0.2,1.3c-0.2,0.1-0.5,0.2-1,0.2
		c-1.3,0-1.8-0.8-1.8-2.3V162.3z"/>
	<path class="st1" d="M705.6,163.8c0-0.7,0.5-1.1,1.2-1.1c0.7,0,1.2,0.4,1.2,1.1c0,0.6-0.5,1.1-1.2,1.1
		C706.1,164.9,705.6,164.4,705.6,163.8z M705.9,167h1.7v10.2h-1.7V167z"/>
	<path class="st1" d="M716.8,170.7c0-1.3-0.4-2.6-2.1-2.6c-1.2,0-2.2,0.5-3,1.1l-0.7-1.2c0.9-0.6,2.4-1.3,4-1.3
		c2.5,0,3.5,1.7,3.5,4.2v6.2h-1.4L717,176h0c-1,0.8-2.1,1.5-3.4,1.5c-1.7,0-3-1.1-3-2.9C710.5,172.3,712.5,171.2,716.8,170.7z
		 M714,176c1,0,1.8-0.5,2.8-1.4v-2.8c-3.4,0.4-4.6,1.3-4.6,2.6C712.2,175.6,713,176,714,176z"/>
	<path class="st1" d="M721.8,167h1.4l0.1,1.5h0.1c1-1,2-1.7,3.4-1.7c2.1,0,3.1,1.4,3.1,4v6.5h-1.7V171c0-1.9-0.6-2.7-1.9-2.7
		c-1,0-1.8,0.5-2.8,1.6v7.4h-1.7V167z"/>
	<path class="st1" d="M737.4,166.7c1.3,0,2.3,0.6,3,1.2l-0.9,1.1c-0.6-0.5-1.2-0.9-2.1-0.9c-1.8,0-3.2,1.6-3.2,3.9
		c0,2.3,1.3,3.9,3.1,3.9c1,0,1.8-0.5,2.4-1l0.8,1.1c-0.9,0.8-2.1,1.3-3.3,1.3c-2.7,0-4.8-1.9-4.8-5.3
		C732.5,168.7,734.8,166.7,737.4,166.7z"/>
	<path class="st1" d="M746.2,166.7c2.6,0,4.1,1.9,4.1,4.8c0,0.4,0,0.7-0.1,0.9h-6.9c0.1,2.2,1.4,3.6,3.4,3.6c1,0,1.8-0.3,2.5-0.8
		l0.6,1.1c-0.9,0.6-2,1-3.4,1c-2.7,0-4.9-2-4.9-5.3C741.6,168.8,743.8,166.7,746.2,166.7z M748.7,171.3c0-2.1-0.9-3.2-2.5-3.2
		c-1.4,0-2.7,1.2-2.9,3.2H748.7z"/>
</g>
</svg>
