<?xml version="1.0" encoding="utf-8"?>
<!-- Generator: Adobe Illustrator 19.2.0, SVG Export Plug-In . SVG Version: 6.00 Build 0)  -->
<svg version="1.1" id="Layer_1" xmlns="http://www.w3.org/2000/svg" xmlns:xlink="http://www.w3.org/1999/xlink" x="0px" y="0px"
	 viewBox="0 0 753 229" style="enable-background:new 0 0 753 229;" xml:space="preserve">
<style type="text/css">
	.st0{fill:none;stroke:#8DA1CE;stroke-miterlimit:10;}
	.st1{fill:#4C4277;}
	.st2{fill:#615C93;}
	.st3{fill:#5A5289;}
	.st4{opacity:0.6;fill:#5A5289;enable-background:new    ;}
	.st5{opacity:0.3;fill:#5A5289;enable-background:new    ;}
	.st6{fill:none;stroke:#B2B1DD;stroke-width:2;stroke-linecap:square;stroke-miterlimit:10;stroke-dasharray:6;}
	.st7{opacity:0.4;fill:#A8B6DD;enable-background:new    ;}
	.st8{fill:#FFFFFF;}
	.st9{fill:#B8B3E8;}
</style>
<path class="st0" d="M727.3,199.3H385.6c-4.8,0-8.7-3.9-8.7-8.7V57c0-4.8,3.9-8.7,8.7-8.7h341.7c4.8,0,8.7,3.9,8.7,8.7v133.6
	C736,195.5,732.1,199.3,727.3,199.3z"/>
<rect x="100.7" y="172.8" class="st1" width="77" height="56.3"/>
<rect y="198.5" class="st1" width="77" height="30.5"/>
<rect x="58.2" y="86" class="st1" width="85.8" height="143.1"/>
<rect x="167.7" y="25.8" class="st1" width="84.9" height="203.2"/>
<rect x="220" y="132.6" class="st1" width="76" height="96.5"/>
<rect x="175.3" y="36.1" class="st2" width="30.6" height="12.8"/>
<rect x="213.3" y="36.1" class="st2" width="30.6" height="12.8"/>
<rect x="175.3" y="54.5" class="st3" width="30.6" height="12.8"/>
<rect x="213.3" y="54.5" class="st3" width="30.6" height="12.8"/>
<rect x="67.5" y="94.7" class="st2" width="30.6" height="12.8"/>
<rect x="105.5" y="94.7" class="st2" width="30.6" height="12.8"/>
<rect x="67.5" y="113.3" class="st3" width="30.6" height="12.8"/>
<rect x="105.5" y="113.3" class="st3" width="30.6" height="12.8"/>
<rect x="67.5" y="132.6" class="st3" width="30.6" height="12.8"/>
<rect x="105.5" y="132.6" class="st4" width="30.6" height="12.8"/>
<rect x="105.5" y="151" class="st5" width="30.6" height="12.8"/>
<rect x="67.5" y="151" class="st4" width="30.6" height="12.8"/>
<rect x="67.5" y="169.1" class="st5" width="30.6" height="12.8"/>
<rect x="175.3" y="73.7" class="st3" width="30.6" height="12.8"/>
<rect x="213.3" y="73.7" class="st3" width="30.6" height="12.8"/>
<rect x="175.3" y="92.1" class="st3" width="30.6" height="12.8"/>
<rect x="213.3" y="92.1" class="st4" width="30.6" height="12.8"/>
<rect x="213.3" y="110.3" class="st5" width="30.6" height="12.8"/>
<rect x="175.3" y="110.3" class="st4" width="30.6" height="12.8"/>
<rect x="175.3" y="128.9" class="st5" width="30.6" height="12.8"/>
<line class="st6" x1="262.8" y1="86.4" x2="365.7" y2="86.4"/>
<path class="st7" d="M503.9,184.6h-94.5c-4.6,0-8.4-3.8-8.4-8.4V81.6c0-4.6,3.8-8.4,8.4-8.4h94.5c4.6,0,8.4,3.8,8.4,8.4v94.5
	C512.6,180.7,508.6,184.6,503.9,184.6z"/>
<path class="st1" d="M499.4,180.3H405c-4.6,0-8.4-3.8-8.4-8.4V77.3c0-4.6,3.8-8.4,8.4-8.4h94.3c4.6,0,8.4,3.8,8.4,8.4v94.5
	C507.8,176.4,504.1,180.3,499.4,180.3z"/>
<g>
	<path class="st8" d="M470.6,87.4h-53.1c-1.8,0-3.4,1.3-3.4,3.4v15.9l-10,11h10v8.2c0,1.8,1.3,3.4,3.4,3.4h53.1
		c1.8,0,3.4-1.3,3.4-3.4V90.7C473.8,89,472.4,87.4,470.6,87.4z"/>
	<path class="st9" d="M499.8,148l-9.8-10.3v-16.2c0-1.8-1.3-3.4-3.4-3.4h-51.7c-1.8,0-3.4,1.3-3.4,3.4v35.4c0,1.8,1.3,3.4,3.4,3.4
		h51.7c1.8,0,3.4-1.3,3.4-3.4v-8.7h9.8V148z"/>
</g>
<g>
	<path class="st1" d="M538.4,126.3h-10.3v-3.5h10.3v-11h3.7v11h10.3v3.5h-10.3v11h-3.7V126.3z"/>
</g>
<g>
	<path class="st1" d="M580.3,77.2c0-1.1-0.3-2.2-1.8-2.2c-1,0-1.8,0.4-2.5,0.9l-0.6-1c0.8-0.5,2-1.1,3.3-1.1c2.1,0,2.9,1.4,2.9,3.5
		v5.2h-1.2l-0.1-1l0,0c-0.8,0.7-1.8,1.3-2.8,1.3c-1.4,0-2.5-0.9-2.5-2.4C575,78.5,576.7,77.6,580.3,77.2z M577.9,81.7
		c0.8,0,1.5-0.4,2.3-1.2v-2.3c-2.8,0.3-3.8,1.1-3.8,2.2C576.4,81.3,577.1,81.7,577.9,81.7z"/>
	<path class="st1" d="M584.3,74.1h1.4v5.2c0,1.6,0.5,2.3,1.6,2.3c0.8,0,1.5-0.4,2.3-1.4v-6h1.4v8.5h-1.2l-0.1-1.3h-0.1
		c-0.8,0.9-1.6,1.5-2.8,1.5c-1.8,0-2.6-1.2-2.6-3.3L584.3,74.1L584.3,74.1z"/>
	<path class="st1" d="M597,73.9c1,0,1.6,0.3,2.3,1l-0.1-1.4v-3.3h1.4v12.5h-1.2l-0.1-1h-0.1c-0.7,0.7-1.6,1.2-2.6,1.2
		c-2.2,0-3.5-1.6-3.5-4.4C593.3,75.6,595.1,73.9,597,73.9z M597.2,81.6c0.8,0,1.5-0.4,2.2-1.2V76c-0.8-0.7-1.3-0.9-2.1-0.9
		c-1.3,0-2.4,1.3-2.4,3.3C594.8,80.3,595.7,81.6,597.2,81.6z"/>
	<path class="st1" d="M603.4,71.4c0-0.6,0.4-0.9,1-0.9s1,0.3,1,0.9c0,0.5-0.4,0.9-1,0.9S603.4,71.9,603.4,71.4z M603.7,74.1h1.4v8.5
		h-1.4V74.1z"/>
	<path class="st1" d="M608.2,75.2h-1.3v-1.1l1.3-0.1l0.2-2.3h1.2v2.3h2.3v1.2h-2.3V80c0,1.1,0.3,1.7,1.3,1.7c0.3,0,0.7-0.1,1-0.3
		l0.3,1.1c-0.5,0.2-1.1,0.3-1.6,0.3c-1.8,0-2.4-1.2-2.4-2.8L608.2,75.2L608.2,75.2z"/>
	<path class="st1" d="M617.4,70.2h1.4V81c0,0.4,0.2,0.7,0.4,0.7c0.1,0,0.2,0,0.3,0l0.2,1.1c-0.2,0.1-0.4,0.2-0.8,0.2
		c-1.1,0-1.5-0.7-1.5-1.9L617.4,70.2L617.4,70.2z"/>
	<path class="st1" d="M625.2,73.9c2.1,0,3.9,1.6,3.9,4.5c0,2.8-1.8,4.4-3.9,4.4s-3.9-1.6-3.9-4.4C621.2,75.5,623.2,73.9,625.2,73.9z
		 M625.2,81.6c1.5,0,2.4-1.3,2.4-3.3c0-1.9-1-3.3-2.4-3.3s-2.4,1.3-2.4,3.3C622.7,80.3,623.7,81.6,625.2,81.6z"/>
	<path class="st1" d="M632,82.3L632,82.3c-0.4-0.3-0.8-0.8-0.8-1.4c0-0.8,0.5-1.3,0.9-1.6v-0.1c-0.6-0.4-1.1-1.3-1.1-2.3
		c0-1.8,1.5-3,3.2-3c0.5,0,0.9,0.1,1.2,0.3h2.9v1.1h-1.8c0.4,0.4,0.7,1,0.7,1.8c0,1.8-1.4,2.9-3.1,2.9c-0.4,0-0.9-0.1-1.3-0.3
		c-0.3,0.3-0.5,0.5-0.5,1s0.3,0.9,1.5,0.9h1.7c2,0,3,0.6,3,2c0,1.6-1.7,2.9-4.3,2.9c-2.1,0-3.5-0.8-3.5-2.3
		C630.8,83.5,631.2,82.9,632,82.3z M634.4,85.5c1.6,0,2.7-0.8,2.7-1.8c0-0.8-0.6-1.1-1.8-1.1h-1.5c-0.3,0-0.8,0-1.1-0.2
		c-0.6,0.4-0.8,0.9-0.8,1.4C632,84.9,632.9,85.5,634.4,85.5z M636,76.9c0-1.3-0.8-2-1.8-2c-1,0-1.8,0.8-1.8,2s0.8,2,1.8,2
		C635.2,78.9,636,78.2,636,76.9z"/>
	<path class="st1" d="M640.8,82.3L640.8,82.3c-0.4-0.3-0.8-0.8-0.8-1.4c0-0.8,0.5-1.3,0.9-1.6v-0.1c-0.6-0.4-1.1-1.3-1.1-2.3
		c0-1.8,1.5-3,3.2-3c0.5,0,0.9,0.1,1.2,0.3h2.9v1.1h-1.8c0.4,0.4,0.7,1,0.7,1.8c0,1.8-1.4,2.9-3.1,2.9c-0.4,0-0.9-0.1-1.3-0.3
		c-0.3,0.3-0.5,0.5-0.5,1s0.3,0.9,1.5,0.9h1.7c2,0,3,0.6,3,2c0,1.6-1.7,2.9-4.3,2.9c-2.1,0-3.5-0.8-3.5-2.3
		C639.5,83.5,640,82.9,640.8,82.3z M643.3,85.5c1.6,0,2.7-0.8,2.7-1.8c0-0.8-0.6-1.1-1.8-1.1h-1.4c-0.3,0-0.8,0-1.1-0.2
		c-0.6,0.4-0.8,0.9-0.8,1.4C640.8,84.9,641.8,85.5,643.3,85.5z M644.9,76.9c0-1.3-0.8-2-1.8-2c-1,0-1.8,0.8-1.8,2s0.8,2,1.8,2
		C644.1,78.9,644.9,78.2,644.9,76.9z"/>
	<path class="st1" d="M648.8,71.4c0-0.6,0.4-0.9,1-0.9c0.6,0,1,0.3,1,0.9c0,0.5-0.4,0.9-1,0.9C649.2,72.3,648.8,71.9,648.8,71.4z
		 M649.1,74.1h1.4v8.5h-1.4V74.1z"/>
	<path class="st1" d="M653.3,74.1h1.2l0.1,1.3h0.1c0.8-0.8,1.7-1.4,2.8-1.4c1.8,0,2.6,1.2,2.6,3.3v5.4h-1.4v-5.3
		c0-1.6-0.5-2.3-1.6-2.3c-0.8,0-1.5,0.4-2.3,1.3v6.2h-1.4L653.3,74.1L653.3,74.1z"/>
	<path class="st1" d="M663.5,82.3L663.5,82.3c-0.4-0.3-0.8-0.8-0.8-1.4c0-0.8,0.5-1.3,0.9-1.6v-0.1c-0.6-0.4-1.1-1.3-1.1-2.3
		c0-1.8,1.5-3,3.2-3c0.5,0,0.9,0.1,1.2,0.3h2.9v1.1h-1.8c0.4,0.4,0.7,1,0.7,1.8c0,1.8-1.4,2.9-3.1,2.9c-0.4,0-0.9-0.1-1.3-0.3
		c-0.3,0.3-0.5,0.5-0.5,1s0.3,0.9,1.5,0.9h1.7c2,0,3,0.6,3,2c0,1.6-1.7,2.9-4.3,2.9c-2.1,0-3.5-0.8-3.5-2.3
		C662.3,83.5,662.8,82.9,663.5,82.3z M666,85.5c1.6,0,2.7-0.8,2.7-1.8c0-0.8-0.6-1.1-1.8-1.1h-1.5c-0.3,0-0.8,0-1.1-0.2
		c-0.6,0.4-0.8,0.9-0.8,1.4C663.5,84.9,664.4,85.5,666,85.5z M667.6,76.9c0-1.3-0.8-2-1.8-2c-1,0-1.8,0.8-1.8,2s0.8,2,1.8,2
		C666.8,78.9,667.6,78.2,667.6,76.9z"/>
	<path class="st1" d="M578.6,104.5c2.2,0,3.4,1.6,3.4,4c0,0.3,0,0.6-0.1,0.8h-5.8c0.1,1.8,1.2,3,2.8,3c0.8,0,1.5-0.3,2.1-0.7
		l0.5,0.9c-0.8,0.5-1.7,0.8-2.8,0.8c-2.3,0-4.1-1.7-4.1-4.4S576.7,104.5,578.6,104.5z M580.8,108.4c0-1.8-0.8-2.7-2.1-2.7
		c-1.2,0-2.3,1-2.4,2.7H580.8z"/>
	<path class="st1" d="M584.1,104.8h1.2l0.1,1.3h0.1c0.8-0.8,1.7-1.4,2.8-1.4c1.8,0,2.6,1.2,2.6,3.3v5.4h-1.4v-5.2
		c0-1.6-0.5-2.3-1.6-2.3c-0.8,0-1.5,0.4-2.3,1.3v6.2h-1.4L584.1,104.8L584.1,104.8z"/>
	<path class="st1" d="M597.2,104.5c1.1,0,1.9,0.5,2.5,1l-0.8,0.9c-0.5-0.4-1-0.8-1.8-0.8c-1.5,0-2.7,1.3-2.7,3.3
		c0,1.9,1.1,3.3,2.6,3.3c0.8,0,1.5-0.4,2-0.8l0.7,0.9c-0.8,0.7-1.8,1.1-2.8,1.1c-2.3,0-4-1.6-4-4.4
		C593.1,106.2,595,104.5,597.2,104.5z"/>
	<path class="st1" d="M601.7,104.8h1.2l0.1,1.5h0.1c0.6-1.1,1.4-1.8,2.4-1.8c0.3,0,0.7,0.1,0.9,0.2l-0.3,1.3
		c-0.3-0.1-0.5-0.2-0.8-0.2c-0.8,0-1.6,0.5-2.2,1.9v5.4h-1.4V104.8z"/>
	<path class="st1" d="M608.2,115.7c1,0,1.6-0.8,1.9-1.8l0.2-0.7l-3.4-8.4h1.5l1.8,4.7c0.3,0.8,0.6,1.6,0.8,2.4h0.1
		c0.3-0.8,0.5-1.7,0.8-2.4l1.5-4.7h1.4l-3.2,9.2c-0.6,1.7-1.5,2.9-3.2,2.9c-0.4,0-0.8-0.1-1-0.2l0.3-1.2
		C607.7,115.6,607.9,115.7,608.2,115.7z"/>
	<path class="st1" d="M617.7,114v2.8h-1.4v-12h1.2l0.1,1h0.1c0.8-0.7,1.8-1.2,2.7-1.2c2.2,0,3.3,1.7,3.3,4.3c0,2.9-1.8,4.6-3.7,4.6
		c-0.8,0-1.6-0.3-2.3-1L617.7,114z M619.8,112.3c1.4,0,2.4-1.3,2.4-3.3c0-1.8-0.7-3.1-2.3-3.1c-0.8,0-1.4,0.4-2.3,1.2v4.4
		C618.5,112,619.2,112.3,619.8,112.3z"/>
	<path class="st1" d="M626.2,105.9H625v-1.1l1.3-0.1l0.2-2.3h1.2v2.3h2.3v1.2h-2.3v4.8c0,1.1,0.3,1.7,1.3,1.7c0.3,0,0.7-0.1,1-0.3
		l0.3,1.1c-0.5,0.2-1.1,0.3-1.6,0.3c-1.8,0-2.4-1.2-2.4-2.8L626.2,105.9L626.2,105.9z"/>
	<path class="st1" d="M631.7,102.1c0-0.6,0.4-0.9,1-0.9s1,0.3,1,0.9c0,0.5-0.4,0.9-1,0.9S631.7,102.6,631.7,102.1z M631.9,104.8h1.4
		v8.5h-1.4V104.8z"/>
	<path class="st1" d="M639.5,104.5c2.1,0,3.9,1.6,3.9,4.5c0,2.8-1.8,4.4-3.9,4.4s-3.9-1.6-3.9-4.4
		C635.6,106.2,637.4,104.5,639.5,104.5z M639.5,112.3c1.5,0,2.4-1.3,2.4-3.3c0-1.9-1-3.3-2.4-3.3s-2.4,1.3-2.4,3.3
		C637.1,110.9,638.1,112.3,639.5,112.3z"/>
	<path class="st1" d="M645.7,104.8h1.2l0.1,1.3h0.1c0.8-0.8,1.7-1.4,2.8-1.4c1.8,0,2.6,1.2,2.6,3.3v5.4h-1.4v-5.2
		c0-1.6-0.5-2.3-1.6-2.3c-0.8,0-1.5,0.4-2.3,1.3v6.2h-1.4L645.7,104.8L645.7,104.8z"/>
	<path class="st1" d="M575.5,132.4h1.5v10.2h5v1.3h-6.5V132.4z"/>
	<path class="st1" d="M584,132.4h2.8c3.5,0,5.4,2.1,5.4,5.7c0,3.7-1.9,5.8-5.3,5.8H584V132.4z M586.7,142.7c2.7,0,4-1.7,4-4.6
		s-1.3-4.5-4-4.5h-1.3v9.1H586.7z"/>
	<path class="st1" d="M599.7,140.4h-4.2l-1.1,3.5H593l3.9-11.5h1.7l3.9,11.5H601L599.7,140.4z M599.4,139.2l-0.5-1.8
		c-0.4-1.3-0.8-2.5-1.2-3.8h-0.1c-0.3,1.3-0.8,2.6-1.2,3.8l-0.6,1.8H599.4z"/>
	<path class="st1" d="M603.9,132.4h3.5c2.5,0,4.3,0.8,4.3,3.3c0,2.4-1.8,3.6-4.3,3.6h-2.1v4.5h-1.5L603.9,132.4L603.9,132.4z
		 M607.3,138.1c2,0,3-0.8,3-2.3c0-1.7-1-2.2-3-2.2h-1.8v4.6L607.3,138.1L607.3,138.1z"/>
	<path class="st1" d="M617.1,132.7c0-0.6,0.4-0.9,1-0.9s1,0.3,1,0.9c0,0.5-0.4,0.9-1,0.9S617.1,133.3,617.1,132.7z M617.4,135.3h1.4
		v8.5h-1.4V135.3z"/>
	<path class="st1" d="M621.6,135.3h1.2l0.1,1.3h0.1c0.8-0.8,1.7-1.4,2.8-1.4c1.8,0,2.6,1.2,2.6,3.3v5.4H627v-5.2
		c0-1.6-0.5-2.3-1.6-2.3c-0.8,0-1.5,0.4-2.3,1.3v6.2h-1.4L621.6,135.3L621.6,135.3z"/>
	<path class="st1" d="M631.5,136.5h-1.3v-1.1l1.3-0.1l0.2-2.3h1.2v2.3h2.3v1.2h-2.3v4.8c0,1.1,0.3,1.7,1.3,1.7c0.3,0,0.7-0.1,1-0.3
		l0.3,1.1c-0.5,0.2-1.1,0.3-1.6,0.3c-1.8,0-2.4-1.2-2.4-2.8V136.5L631.5,136.5z"/>
	<path class="st1" d="M640.2,135.2c2.2,0,3.4,1.6,3.4,4c0,0.3,0,0.6-0.1,0.8h-5.8c0.1,1.8,1.2,3,2.8,3c0.8,0,1.5-0.3,2.1-0.7
		l0.5,0.9c-0.8,0.5-1.7,0.8-2.8,0.8c-2.3,0-4.1-1.7-4.1-4.4S638.3,135.2,640.2,135.2z M642.3,139c0-1.8-0.8-2.7-2.1-2.7
		c-1.2,0-2.3,1-2.4,2.7H642.3z"/>
	<path class="st1" d="M646.1,143.6L646.1,143.6c-0.4-0.3-0.8-0.8-0.8-1.4c0-0.8,0.5-1.3,0.9-1.6v-0.1c-0.6-0.4-1.1-1.3-1.1-2.3
		c0-1.8,1.5-3,3.2-3c0.5,0,0.9,0.1,1.2,0.3h2.9v1.1h-1.8c0.4,0.4,0.7,1,0.7,1.8c0,1.8-1.4,2.9-3.1,2.9c-0.4,0-0.9-0.1-1.3-0.3
		c-0.3,0.3-0.5,0.5-0.5,1c0,0.5,0.3,0.9,1.5,0.9h1.7c2,0,3,0.6,3,2c0,1.6-1.7,2.9-4.3,2.9c-2.1,0-3.5-0.8-3.5-2.3
		C644.9,144.8,645.3,144.1,646.1,143.6z M648.6,146.8c1.6,0,2.7-0.8,2.7-1.8c0-0.8-0.6-1.1-1.8-1.1H648c-0.3,0-0.8,0-1.1-0.2
		c-0.6,0.4-0.8,0.9-0.8,1.4C646.1,146.2,647.1,146.8,648.6,146.8z M650.2,138.2c0-1.3-0.8-2-1.8-2c-1,0-1.8,0.8-1.8,2
		c0,1.3,0.8,2,1.8,2C649.4,140.2,650.2,139.4,650.2,138.2z"/>
	<path class="st1" d="M654.3,135.3h1.2l0.1,1.5h0.1c0.6-1.1,1.4-1.8,2.4-1.8c0.3,0,0.7,0.1,0.9,0.2l-0.3,1.3
		c-0.3-0.1-0.5-0.2-0.8-0.2c-0.8,0-1.6,0.5-2.2,1.9v5.4h-1.4V135.3z"/>
	<path class="st1" d="M664.8,138.5c0-1.1-0.3-2.2-1.8-2.2c-1,0-1.8,0.4-2.5,0.9l-0.6-1c0.8-0.5,2-1.1,3.3-1.1c2.1,0,2.9,1.4,2.9,3.5
		v5.2H665l-0.1-1l0,0c-0.8,0.7-1.8,1.3-2.8,1.3c-1.4,0-2.5-0.9-2.5-2.4C659.6,139.9,661.2,138.9,664.8,138.5z M662.4,143
		c0.8,0,1.5-0.4,2.3-1.2v-2.3c-2.8,0.3-3.8,1.1-3.8,2.2C661,142.5,661.6,143,662.4,143z"/>
	<path class="st1" d="M669.2,136.5H668v-1.1l1.3-0.1l0.2-2.3h1.2v2.3h2.3v1.2h-2.3v4.8c0,1.1,0.3,1.7,1.3,1.7c0.3,0,0.7-0.1,1-0.3
		l0.3,1.1c-0.5,0.2-1.1,0.3-1.6,0.3c-1.8,0-2.4-1.2-2.4-2.8V136.5L669.2,136.5z"/>
	<path class="st1" d="M674.6,132.7c0-0.6,0.4-0.9,1-0.9s1,0.3,1,0.9c0,0.5-0.4,0.9-1,0.9S674.6,133.3,674.6,132.7z M674.9,135.3h1.4
		v8.5h-1.4V135.3z"/>
	<path class="st1" d="M682.5,135.2c2.1,0,3.9,1.6,3.9,4.5c0,2.8-1.8,4.4-3.9,4.4s-3.9-1.6-3.9-4.4
		C678.6,136.8,680.4,135.2,682.5,135.2z M682.5,142.9c1.5,0,2.4-1.3,2.4-3.3s-1-3.3-2.4-3.3s-2.4,1.3-2.4,3.3
		C680,141.6,681,142.9,682.5,142.9z"/>
	<path class="st1" d="M688.7,135.3h1.2l0.1,1.3h0.1c0.8-0.8,1.7-1.4,2.8-1.4c1.8,0,2.6,1.2,2.6,3.3v5.4H694v-5.2
		c0-1.6-0.5-2.3-1.6-2.3c-0.8,0-1.5,0.4-2.3,1.3v6.2h-1.4L688.7,135.3L688.7,135.3z"/>
	<path class="st1" d="M575.5,163h1.5v4.8h5.3V163h1.4v11.5h-1.4V169H577v5.4h-1.5V163z"/>
	<path class="st1" d="M586.9,163h1.5v11.5h-1.5V163z"/>
	<path class="st1" d="M591.4,163h3.5c2.5,0,4.3,0.8,4.3,3.3c0,2.4-1.8,3.6-4.3,3.6h-2.1v4.5h-1.5L591.4,163L591.4,163z M594.7,168.8
		c2,0,3-0.8,3-2.3c0-1.7-1-2.2-3-2.2h-1.8v4.6L594.7,168.8L594.7,168.8z"/>
	<path class="st1" d="M605.8,171h-4.2l-1.1,3.5H599l3.9-11.5h1.7l3.9,11.5h-1.7L605.8,171z M605.4,169.9l-0.5-1.8
		c-0.4-1.3-0.8-2.5-1.2-3.8h-0.1c-0.3,1.3-0.8,2.6-1.2,3.8l-0.6,1.8H605.4z"/>
	<path class="st1" d="M615.2,171H611l-1.1,3.5h-1.5l3.9-11.5h1.7l3.9,11.5h-1.5L615.2,171z M614.8,169.9l-0.5-1.8
		c-0.4-1.3-0.8-2.5-1.2-3.8H613c-0.3,1.3-0.8,2.6-1.2,3.8l-0.6,1.8H614.8z"/>
	<path class="st1" d="M626.2,165.8c1.1,0,1.9,0.5,2.5,1l-0.8,0.9c-0.5-0.4-1-0.8-1.8-0.8c-1.5,0-2.7,1.3-2.7,3.3s1.1,3.3,2.6,3.3
		c0.8,0,1.5-0.4,2-0.8l0.7,0.9c-0.8,0.7-1.8,1.1-2.8,1.1c-2.3,0-4-1.6-4-4.4C622.2,167.4,624.1,165.8,626.2,165.8z"/>
	<path class="st1" d="M633.8,165.8c2.1,0,3.9,1.6,3.9,4.5c0,2.8-1.8,4.4-3.9,4.4s-3.9-1.6-3.9-4.4
		C629.8,167.4,631.7,165.8,633.8,165.8z M633.8,173.6c1.5,0,2.4-1.3,2.4-3.3c0-1.9-1-3.3-2.4-3.3s-2.4,1.3-2.4,3.3
		C631.3,172.2,632.3,173.6,633.8,173.6z"/>
	<path class="st1" d="M640,166h1.2l0.1,1.3h0.1c0.8-0.8,1.6-1.4,2.7-1.4c1.3,0,2,0.6,2.3,1.6c0.9-1,1.8-1.6,2.8-1.6
		c1.8,0,2.6,1.2,2.6,3.3v5.4h-1.4v-5.3c0-1.6-0.5-2.3-1.6-2.3c-0.7,0-1.3,0.4-2.2,1.3v6.2h-1.4v-5.3c0-1.6-0.5-2.3-1.6-2.3
		c-0.7,0-1.3,0.4-2.2,1.3v6.2H640V166L640,166z"/>
	<path class="st1" d="M655.8,175.2v2.8h-1.4v-12h1.2l0.1,1h0.1c0.8-0.7,1.8-1.2,2.7-1.2c2.2,0,3.3,1.7,3.3,4.3
		c0,2.9-1.8,4.6-3.7,4.6c-0.8,0-1.6-0.3-2.3-1L655.8,175.2z M657.9,173.6c1.4,0,2.4-1.3,2.4-3.3c0-1.8-0.7-3.1-2.3-3.1
		c-0.8,0-1.4,0.4-2.3,1.2v4.4C656.7,173.3,657.4,173.6,657.9,173.6z"/>
	<path class="st1" d="M664.1,162.1h1.4V173c0,0.4,0.2,0.7,0.4,0.7c0.1,0,0.2,0,0.3,0l0.2,1.1c-0.2,0.1-0.4,0.2-0.8,0.2
		c-1.1,0-1.5-0.7-1.5-1.9L664.1,162.1L664.1,162.1z"/>
	<path class="st1" d="M668.4,163.4c0-0.6,0.4-0.9,1-0.9c0.6,0,1,0.3,1,0.9c0,0.5-0.4,0.9-1,0.9C668.8,164.3,668.4,163.9,668.4,163.4
		z M668.6,166h1.4v8.5h-1.4V166z"/>
	<path class="st1" d="M677.7,169.1c0-1.1-0.3-2.2-1.8-2.2c-1,0-1.8,0.4-2.5,0.9l-0.6-1c0.8-0.5,2-1.1,3.3-1.1c2.1,0,2.9,1.4,2.9,3.5
		v5.2H678l-0.1-0.9l0,0c-0.8,0.7-1.8,1.3-2.8,1.3c-1.4,0-2.5-0.9-2.5-2.4C672.5,170.5,674.1,169.5,677.7,169.1z M675.4,173.6
		c0.8,0,1.5-0.4,2.3-1.2V170c-2.8,0.3-3.8,1.1-3.8,2.2C673.9,173.2,674.6,173.6,675.4,173.6z"/>
	<path class="st1" d="M681.9,166h1.2l0.1,1.3h0.1c0.8-0.8,1.7-1.4,2.8-1.4c1.8,0,2.6,1.2,2.6,3.3v5.4h-1.4v-5.3
		c0-1.6-0.5-2.3-1.6-2.3c-0.8,0-1.5,0.4-2.3,1.3v6.2h-1.4L681.9,166L681.9,166z"/>
	<path class="st1" d="M695,165.8c1.1,0,1.9,0.5,2.5,1l-0.8,0.9c-0.5-0.4-1-0.8-1.8-0.8c-1.5,0-2.7,1.3-2.7,3.3s1.1,3.3,2.6,3.3
		c0.8,0,1.5-0.4,2-0.8l0.7,0.9c-0.8,0.7-1.8,1.1-2.8,1.1c-2.3,0-4-1.6-4-4.4C690.9,167.4,692.8,165.8,695,165.8z"/>
	<path class="st1" d="M702.3,165.8c2.2,0,3.4,1.6,3.4,4c0,0.3,0,0.6-0.1,0.8h-5.8c0.1,1.8,1.2,3,2.8,3c0.8,0,1.5-0.3,2.1-0.7
		l0.5,0.9c-0.8,0.5-1.7,0.8-2.8,0.8c-2.3,0-4.1-1.7-4.1-4.4C698.5,167.5,700.3,165.8,702.3,165.8z M704.4,169.6
		c0-1.8-0.8-2.7-2.1-2.7c-1.2,0-2.3,1-2.4,2.7H704.4z"/>
</g>
</svg>
