<?xml version="1.0" encoding="utf-8"?>
<!-- Generator: Adobe Illustrator 19.2.1, SVG Export Plug-In . SVG Version: 6.00 Build 0)  -->
<svg version="1.1" id="Layer_1" xmlns="http://www.w3.org/2000/svg" xmlns:xlink="http://www.w3.org/1999/xlink" x="0px" y="0px"
	 viewBox="0 0 260.9 149.3" style="enable-background:new 0 0 260.9 149.3;" xml:space="preserve">
<style type="text/css">
	.st0{fill:#4C4277;}
	.st1{fill:#9696CC;}
</style>
<title>education-typeset</title>
<path class="st0" d="M60.1,88.8c0,7.9,0,14.2,0.4,17.7c0.2,2.4,0.7,4.2,3.2,4.5c1.2,0.2,2.5,0.3,3.7,0.3c0.3-0.1,0.6,0.1,0.6,0.4
	v0.1c0,0.4-0.4,0.6-1.3,0.6c-4.5,0-9.6-0.2-10-0.2c-0.4,0-5.5,0.2-8,0.2c-0.9,0-1.3-0.2-1.3-0.6c0-0.3,0.3-0.5,0.5-0.5h0.1
	c0.8,0,1.6-0.1,2.5-0.3c1.6-0.3,2-2.1,2.4-4.5c0.4-3.4,0.4-9.8,0.4-17.7V54.3c-3.8,0.1-7.9,0.1-11.9,0.2c-5,0.1-7,0.6-8.3,2.6
	c-0.5,0.8-1,1.6-1.4,2.6c-0.2,0.6-0.5,0.8-0.8,0.8s-0.4-0.2-0.4-0.7c0-0.8,1.6-7.9,1.8-8.5c0.2-0.5,0.5-1.5,0.8-1.5
	c0.6,0,1.4,0.8,3.6,1c2.4,0.2,5.4,0.4,6.4,0.4h30.5c1.9,0,3.9-0.1,5.8-0.4c1.2-0.2,1.9-0.4,2.2-0.4c0.3,0,0.4,0.5,0.4,1
	c0,2.5-0.2,8.1-0.2,9c0,0.7-0.2,1-0.6,1c-0.3,0-0.6-0.2-0.6-1.4c0-0.3-0.1-0.6-0.1-0.9c-0.2-2.5-2.1-4.3-10-4.5
	c-3.4-0.1-6.9-0.1-10.2-0.2L60.1,88.8L60.1,88.8z"/>
<rect x="94.7" y="50.4" class="st1" width="137.6" height="9.8"/>
<rect x="94.7" y="76.7" class="st1" width="137.6" height="9.8"/>
<rect x="94.7" y="102.9" class="st1" width="137.6" height="9.8"/>
<rect x="28.3" y="129.5" class="st1" width="204" height="9.8"/>
</svg>
