<?xml version="1.0" encoding="utf-8"?>
<!-- Generator: Adobe Illustrator 19.2.1, SVG Export Plug-In . SVG Version: 6.00 Build 0)  -->
<svg version="1.1" id="Layer_1" xmlns="http://www.w3.org/2000/svg" xmlns:xlink="http://www.w3.org/1999/xlink" x="0px" y="0px"
	 viewBox="0 0 323.3 173.8" style="enable-background:new 0 0 323.3 173.8;" xml:space="preserve">
<style type="text/css">
	.st0{fill:#4C4277;}
	.st1{fill:#EDF2F9;}
	.st2{fill:#8787C6;}
	.st3{opacity:0.6;fill:#8787C6;enable-background:new    ;}
	.st4{fill:#BABAE8;}
	.st5{clip-path:url(#SVGID_3_);fill:#BABAE8;}
	.st6{fill:#5A69A0;}
	.st7{fill:#9EB6DD;}
	.st8{opacity:0.6;fill:#A8B6DD;enable-background:new    ;}
	.st9{fill:#C7D4EA;}
	.st10{clip-path:url(#SVGID_5_);fill:#C7D4EA;}
	.st11{fill:none;stroke:#6D6BA5;stroke-width:4;stroke-miterlimit:10;}
	.st12{fill:#6D6BA5;}
</style>
<ellipse class="st0" cx="64.8" cy="69.5" rx="38.6" ry="40.1"/>
<g>
	<path class="st0" d="M120.1,163.9c0-21-10.1-54.5-38-54.5H48.6c-28.2,0-38.6,33.8-38.6,55.1v0.3h110.1V163.9L120.1,163.9z"/>
</g>
<g>
	<path class="st1" d="M84.5,81.2c-2.1,6-9.7,10.4-18.8,10.4S49,87.2,46.9,81.2c-0.7,1.4-1.1,3-1.1,4.7c0,7.8,8.9,14.1,19.9,14.1
		s19.9-6.3,19.9-14.1C85.6,84.3,85.2,82.7,84.5,81.2z"/>
</g>
<ellipse class="st0" cx="64.3" cy="81.7" rx="21.9" ry="9.9"/>
<rect x="69" y="104.1" class="st2" width="86.5" height="60.7"/>
<rect x="49.1" y="156.7" class="st3" width="106.1" height="8"/>
<g>
	<g>
		<g>
			<rect x="99.7" y="122.7" class="st4" width="5.6" height="6.4"/>
		</g>
		<g>
			<rect x="99.7" y="128.3" class="st4" width="5.6" height="6.4"/>
		</g>
		<g>
			<rect x="99.7" y="133.9" class="st4" width="5.6" height="5.6"/>
		</g>
		<g>
			<rect x="99.7" y="139.5" class="st4" width="5.6" height="5.6"/>
		</g>
		<g>
			<rect x="106.4" y="120.9" class="st4" width="1.5" height="1.5"/>
		</g>
		<g>
			<rect x="106.4" y="122.3" class="st4" width="1.5" height="1.5"/>
		</g>
		<g>
			<rect x="106.4" y="123.6" class="st4" width="1.5" height="1.5"/>
		</g>
		<g>
			<rect x="106.4" y="124.9" class="st4" width="1.5" height="1.5"/>
		</g>
		<g>
			<rect x="107.8" y="120.9" class="st4" width="1.5" height="1.5"/>
		</g>
		<g>
			<rect x="107.8" y="122.3" class="st4" width="1.5" height="1.5"/>
		</g>
		<g>
			<rect x="107.8" y="123.6" class="st4" width="1.5" height="1.5"/>
		</g>
		<g>
			<rect x="107.8" y="124.9" class="st4" width="1.5" height="1.5"/>
		</g>
		<g>
			<rect x="109.5" y="120.2" class="st4" width="1.5" height="1.5"/>
		</g>
		<g>
			<rect x="109.1" y="122.3" class="st4" width="1.5" height="1.5"/>
		</g>
		<g>
			<rect x="109.1" y="123.6" class="st4" width="1.5" height="1.5"/>
		</g>
		<g>
			<rect x="109.1" y="124.9" class="st4" width="1.5" height="1.5"/>
		</g>
		<g>
			<rect x="116.8" y="112.6" class="st4" width="1.5" height="1.5"/>
		</g>
		<g>
			<rect x="111" y="121.6" class="st4" width="1.5" height="1.5"/>
		</g>
		<g>
			<rect x="110.5" y="123.6" class="st4" width="1.5" height="1.5"/>
		</g>
		<g>
			<rect x="110.5" y="124.9" class="st4" width="1.5" height="1.5"/>
		</g>
		<g>
			<rect x="105.4" y="128.3" class="st4" width="5.6" height="6.4"/>
		</g>
		<g>
			<rect x="105.4" y="133.9" class="st4" width="5.6" height="5.6"/>
		</g>
		<g>
			<rect x="105.4" y="139.5" class="st4" width="5.6" height="5.6"/>
		</g>
		<g>
			<rect x="113.6" y="119.1" class="st4" width="1.5" height="1.5"/>
		</g>
		<g>
			<rect x="113.6" y="120.4" class="st4" width="1.5" height="1.5"/>
		</g>
		<g>
			<rect x="113.6" y="121.8" class="st4" width="1.5" height="1.5"/>
		</g>
		<g>
			<rect x="113.6" y="123.1" class="st4" width="1.5" height="1.5"/>
		</g>
		<g>
			<rect x="115.6" y="117.9" class="st4" width="1.5" height="1.5"/>
		</g>
		<g>
			<rect x="115" y="120.4" class="st4" width="1.5" height="1.5"/>
		</g>
		<g>
			<rect x="115" y="121.8" class="st4" width="1.5" height="1.5"/>
		</g>
		<g>
			<rect x="115" y="123.1" class="st4" width="1.5" height="1.5"/>
		</g>
		<g>
			<rect x="123.2" y="109.8" class="st4" width="1.5" height="1.5"/>
		</g>
		<g>
			<rect x="117.2" y="119.5" class="st4" width="1.5" height="1.5"/>
		</g>
		<g>
			<rect x="116.3" y="121.8" class="st4" width="1.5" height="1.5"/>
		</g>
		<g>
			<rect x="116.3" y="123.1" class="st4" width="1.5" height="1.5"/>
		</g>
		<g>
			<rect x="129.4" y="109.8" class="st4" width="1.5" height="1.5"/>
		</g>
		<g>
			<rect x="126" y="112.9" class="st4" width="1.5" height="1.5"/>
		</g>
		<g>
			<rect x="118.7" y="121" class="st4" width="1.5" height="1.5"/>
		</g>
		<g>
			<rect x="117.7" y="123.1" class="st4" width="1.5" height="1.5"/>
		</g>
		<g>
			<rect x="112.2" y="126.7" class="st4" width="1.5" height="1.5"/>
		</g>
		<g>
			<rect x="112.2" y="128" class="st4" width="1.5" height="1.5"/>
		</g>
		<g>
			<rect x="112.2" y="129.4" class="st4" width="1.5" height="1.5"/>
		</g>
		<g>
			<rect x="112.2" y="130.7" class="st4" width="1.5" height="1.5"/>
		</g>
		<g>
			<rect x="113.5" y="126.7" class="st4" width="1.5" height="1.5"/>
		</g>
		<g>
			<rect x="113.5" y="128" class="st4" width="1.5" height="1.5"/>
		</g>
		<g>
			<rect x="113.5" y="129.4" class="st4" width="1.5" height="1.5"/>
		</g>
		<g>
			<rect x="113.5" y="130.7" class="st4" width="1.5" height="1.5"/>
		</g>
		<g>
			<rect x="115.4" y="126" class="st4" width="1.5" height="1.5"/>
		</g>
		<g>
			<rect x="114.9" y="128" class="st4" width="1.5" height="1.5"/>
		</g>
		<g>
			<rect x="114.9" y="129.4" class="st4" width="1.5" height="1.5"/>
		</g>
		<g>
			<rect x="114.9" y="130.7" class="st4" width="1.5" height="1.5"/>
		</g>
		<g>
			<rect x="123.6" y="119.4" class="st4" width="1.5" height="1.5"/>
		</g>
		<g>
			<rect x="116.8" y="127.5" class="st4" width="1.5" height="1.5"/>
		</g>
		<g>
			<rect x="116.3" y="129.4" class="st4" width="1.5" height="1.5"/>
		</g>
		<g>
			<rect x="116.3" y="130.7" class="st4" width="1.5" height="1.5"/>
		</g>
		<g>
			<rect x="110.2" y="133.9" class="st4" width="6.4" height="5.6"/>
		</g>
		<g>
			<rect x="110.2" y="139.5" class="st4" width="6.4" height="5.6"/>
		</g>
		<g>
			<rect x="121.2" y="117.6" class="st4" width="1.5" height="1.5"/>
		</g>
		<g>
			<rect x="121.2" y="119" class="st4" width="1.5" height="1.5"/>
		</g>
		<g>
			<rect x="121.2" y="120.3" class="st4" width="1.5" height="1.5"/>
		</g>
		<g>
			<rect x="121.2" y="121.7" class="st4" width="1.5" height="1.5"/>
		</g>
		<g>
			<rect x="128.7" y="108.7" class="st4" width="1.5" height="1.5"/>
		</g>
		<g>
			<rect x="122.5" y="119" class="st4" width="1.5" height="1.5"/>
		</g>
		<g>
			<rect x="122.5" y="120.3" class="st4" width="1.5" height="1.5"/>
		</g>
		<g>
			<rect x="122.5" y="121.7" class="st4" width="1.5" height="1.5"/>
		</g>
		<g>
			<g>
				<g>
					<g>
						<rect id="SVGID_9_" x="127.4" y="116.7" class="st4" width="1.4" height="1"/>
					</g>
					<g>
						<g>
							<defs>
								<rect id="SVGID_1_" x="127.4" y="116.7" width="1.4" height="1"/>
							</defs>
							<clipPath id="SVGID_3_">
								<use xlink:href="#SVGID_1_"  style="overflow:visible;"/>
							</clipPath>
							<rect x="127.4" y="116.7" class="st5" width="1.4" height="1"/>
						</g>
					</g>
				</g>
			</g>
		</g>
		<g>
			<rect x="123.9" y="120.3" class="st4" width="1.5" height="1.5"/>
		</g>
		<g>
			<rect x="123.9" y="121.7" class="st4" width="1.5" height="1.5"/>
		</g>
		<g>
			<rect x="133.3" y="114.7" class="st4" width="1.5" height="1.5"/>
		</g>
		<g>
			<rect x="125.2" y="121.7" class="st4" width="1.5" height="1.5"/>
		</g>
		<g>
			<rect x="119.7" y="125.2" class="st4" width="1.5" height="1.5"/>
		</g>
		<g>
			<rect x="119.7" y="126.6" class="st4" width="1.5" height="1.5"/>
		</g>
		<g>
			<rect x="119.7" y="128" class="st4" width="1.5" height="1.5"/>
		</g>
		<g>
			<rect x="119.7" y="129.2" class="st4" width="1.5" height="1.5"/>
		</g>
		<g>
			<rect x="122" y="124.1" class="st4" width="1.5" height="1.5"/>
		</g>
		<g>
			<rect x="121.1" y="126.6" class="st4" width="1.5" height="1.5"/>
		</g>
		<g>
			<rect x="121.1" y="128" class="st4" width="1.5" height="1.5"/>
		</g>
		<g>
			<rect x="121.1" y="129.2" class="st4" width="1.5" height="1.5"/>
		</g>
		<g>
			<rect x="130.5" y="116.6" class="st4" width="1.5" height="1.5"/>
		</g>
		<g>
			<rect x="123.4" y="125.7" class="st4" width="1.5" height="1.5"/>
		</g>
		<g>
			<rect x="122.4" y="128" class="st4" width="1.5" height="1.5"/>
		</g>
		<g>
			<rect x="122.4" y="129.2" class="st4" width="1.5" height="1.5"/>
		</g>
		<g>
			<rect x="133.5" y="114.2" class="st4" width="1.5" height="1.5"/>
		</g>
		<g>
			<rect x="131.3" y="119.9" class="st4" width="1.5" height="1.5"/>
		</g>
		<g>
			<rect x="125.1" y="127.2" class="st4" width="1.5" height="1.5"/>
		</g>
		<g>
			<rect x="123.8" y="129.2" class="st4" width="1.5" height="1.5"/>
		</g>
		<g>
			<rect x="117.9" y="132.4" class="st4" width="1.5" height="1.5"/>
		</g>
		<g>
			<rect x="117.9" y="133.8" class="st4" width="1.5" height="1.5"/>
		</g>
		<g>
			<rect x="117.9" y="135.1" class="st4" width="1.5" height="1.5"/>
		</g>
		<g>
			<rect x="117.9" y="136.5" class="st4" width="1.5" height="1.5"/>
		</g>
		<g>
			<rect x="119.3" y="132.4" class="st4" width="1.5" height="1.5"/>
		</g>
		<g>
			<rect x="119.3" y="133.8" class="st4" width="1.5" height="1.5"/>
		</g>
		<g>
			<rect x="119.3" y="135.1" class="st4" width="1.5" height="1.5"/>
		</g>
		<g>
			<rect x="119.3" y="136.5" class="st4" width="1.5" height="1.5"/>
		</g>
		<g>
			<rect x="121.2" y="131.9" class="st4" width="1.5" height="1.5"/>
		</g>
		<g>
			<rect x="120.7" y="133.8" class="st4" width="1.5" height="1.5"/>
		</g>
		<g>
			<rect x="120.7" y="135.1" class="st4" width="1.5" height="1.5"/>
		</g>
		<g>
			<rect x="120.7" y="136.5" class="st4" width="1.5" height="1.5"/>
		</g>
		<g>
			<rect x="130.5" y="126.1" class="st4" width="1.5" height="1.5"/>
		</g>
		<g>
			<rect x="122.8" y="133.4" class="st4" width="1.5" height="1.5"/>
		</g>
		<g>
			<rect x="122" y="135.1" class="st4" width="1.5" height="1.5"/>
		</g>
		<g>
			<rect x="122" y="136.5" class="st4" width="1.5" height="1.5"/>
		</g>
		<g>
			<rect x="116.6" y="139.5" class="st4" width="6.4" height="5.6"/>
		</g>
	</g>
</g>
<ellipse class="st6" cx="276" cy="29.8" rx="25.8" ry="26.8"/>
<g>
	<path class="st6" d="M239.1,92.9v0.6h73.6v-0.2c0-14.2-7-36.8-25.8-36.8h-22.4C245.8,56.5,239.1,78.9,239.1,92.9L239.1,92.9z"/>
</g>
<g>
	<path class="st1" d="M262.1,40.8c0,5.2,5.9,9.4,13.3,9.4c7.4,0,13.3-4.2,13.3-9.4c0-1.1-0.3-2.2-0.7-3.1c-1.4,4-6.5,7-12.6,7
		s-11.2-2.9-12.6-7C262.4,38.6,262.1,39.7,262.1,40.8z"/>
</g>
<ellipse class="st6" cx="276.4" cy="38" rx="14.6" ry="6.6"/>
<rect x="215.4" y="52.9" class="st7" width="57.8" height="40.6"/>
<rect x="215.6" y="88.1" class="st8" width="70.9" height="5.3"/>
<g>
	<g>
		<g>
			<rect x="233.8" y="65.4" class="st9" width="3.7" height="4.3"/>
		</g>
		<g>
			<rect x="233.8" y="69.1" class="st9" width="3.7" height="4.3"/>
		</g>
		<g>
			<rect x="233.8" y="72.8" class="st9" width="3.7" height="3.7"/>
		</g>
		<g>
			<rect x="233.8" y="76.6" class="st9" width="3.7" height="3.7"/>
		</g>
		<g>
			<rect x="238.3" y="64.2" class="st9" width="1" height="1"/>
		</g>
		<g>
			<rect x="238.3" y="65.1" class="st9" width="1" height="1"/>
		</g>
		<g>
			<rect x="238.3" y="66" class="st9" width="1" height="1"/>
		</g>
		<g>
			<rect x="238.3" y="66.8" class="st9" width="1" height="1"/>
		</g>
		<g>
			<rect x="239.2" y="64.2" class="st9" width="1" height="1"/>
		</g>
		<g>
			<rect x="239.2" y="65.1" class="st9" width="1" height="1"/>
		</g>
		<g>
			<rect x="239.2" y="66" class="st9" width="1" height="1"/>
		</g>
		<g>
			<rect x="239.2" y="66.8" class="st9" width="1" height="1"/>
		</g>
		<g>
			<rect x="240.3" y="63.7" class="st9" width="1" height="1"/>
		</g>
		<g>
			<rect x="240.1" y="65.1" class="st9" width="1" height="1"/>
		</g>
		<g>
			<rect x="240.1" y="66" class="st9" width="1" height="1"/>
		</g>
		<g>
			<rect x="240.1" y="66.8" class="st9" width="1" height="1"/>
		</g>
		<g>
			<rect x="245.2" y="58.6" class="st9" width="1" height="1"/>
		</g>
		<g>
			<rect x="241.3" y="64.6" class="st9" width="1" height="1"/>
		</g>
		<g>
			<rect x="241" y="66" class="st9" width="1" height="1"/>
		</g>
		<g>
			<rect x="241" y="66.8" class="st9" width="1" height="1"/>
		</g>
		<g>
			<rect x="237.6" y="69.1" class="st9" width="3.7" height="4.3"/>
		</g>
		<g>
			<rect x="237.6" y="72.8" class="st9" width="3.7" height="3.7"/>
		</g>
		<g>
			<rect x="237.6" y="76.6" class="st9" width="3.7" height="3.7"/>
		</g>
		<g>
			<rect x="243.1" y="63" class="st9" width="1" height="1"/>
		</g>
		<g>
			<rect x="243.1" y="63.8" class="st9" width="1" height="1"/>
		</g>
		<g>
			<rect x="243.1" y="64.8" class="st9" width="1" height="1"/>
		</g>
		<g>
			<rect x="243.1" y="65.6" class="st9" width="1" height="1"/>
		</g>
		<g>
			<rect x="244.4" y="62.1" class="st9" width="1" height="1"/>
		</g>
		<g>
			<rect x="244" y="63.8" class="st9" width="1" height="1"/>
		</g>
		<g>
			<rect x="244" y="64.8" class="st9" width="1" height="1"/>
		</g>
		<g>
			<rect x="244" y="65.6" class="st9" width="1" height="1"/>
		</g>
		<g>
			<rect x="249.5" y="56.7" class="st9" width="1" height="1"/>
		</g>
		<g>
			<rect x="245.5" y="63.2" class="st9" width="1" height="1"/>
		</g>
		<g>
			<rect x="244.9" y="64.8" class="st9" width="1" height="1"/>
		</g>
		<g>
			<rect x="244.9" y="65.6" class="st9" width="1" height="1"/>
		</g>
		<g>
			<rect x="253.6" y="56.7" class="st9" width="1" height="1"/>
		</g>
		<g>
			<rect x="251.4" y="58.8" class="st9" width="1" height="1"/>
		</g>
		<g>
			<rect x="246.5" y="64.2" class="st9" width="1" height="1"/>
		</g>
		<g>
			<rect x="245.8" y="65.6" class="st9" width="1" height="1"/>
		</g>
		<g>
			<rect x="242.1" y="68" class="st9" width="1" height="1"/>
		</g>
		<g>
			<rect x="242.1" y="68.9" class="st9" width="1" height="1"/>
		</g>
		<g>
			<rect x="242.1" y="69.8" class="st9" width="1" height="1"/>
		</g>
		<g>
			<rect x="242.1" y="70.7" class="st9" width="1" height="1"/>
		</g>
		<g>
			<rect x="243" y="68" class="st9" width="1" height="1"/>
		</g>
		<g>
			<rect x="243" y="68.9" class="st9" width="1" height="1"/>
		</g>
		<g>
			<rect x="243" y="69.8" class="st9" width="1" height="1"/>
		</g>
		<g>
			<rect x="243" y="70.7" class="st9" width="1" height="1"/>
		</g>
		<g>
			<rect x="244.3" y="67.6" class="st9" width="1" height="1"/>
		</g>
		<g>
			<rect x="243.9" y="68.9" class="st9" width="1" height="1"/>
		</g>
		<g>
			<rect x="243.9" y="69.8" class="st9" width="1" height="1"/>
		</g>
		<g>
			<rect x="243.9" y="70.7" class="st9" width="1" height="1"/>
		</g>
		<g>
			<rect x="249.8" y="63.2" class="st9" width="1" height="1"/>
		</g>
		<g>
			<rect x="245.2" y="68.6" class="st9" width="1" height="1"/>
		</g>
		<g>
			<rect x="244.9" y="69.8" class="st9" width="1" height="1"/>
		</g>
		<g>
			<rect x="244.9" y="70.7" class="st9" width="1" height="1"/>
		</g>
		<g>
			<rect x="240.8" y="72.8" class="st9" width="4.3" height="3.7"/>
		</g>
		<g>
			<rect x="240.8" y="76.6" class="st9" width="4.3" height="3.7"/>
		</g>
		<g>
			<rect x="248.2" y="61.9" class="st9" width="1" height="1"/>
		</g>
		<g>
			<rect x="248.2" y="62.9" class="st9" width="1" height="1"/>
		</g>
		<g>
			<rect x="248.2" y="63.8" class="st9" width="1" height="1"/>
		</g>
		<g>
			<rect x="248.2" y="64.7" class="st9" width="1" height="1"/>
		</g>
		<g>
			<rect x="253.2" y="56" class="st9" width="1" height="1"/>
		</g>
		<g>
			<rect x="249" y="62.9" class="st9" width="1" height="1"/>
		</g>
		<g>
			<rect x="249" y="63.8" class="st9" width="1" height="1"/>
		</g>
		<g>
			<rect x="249" y="64.7" class="st9" width="1" height="1"/>
		</g>
		<g>
			<g>
				<g>
					<g>
						<rect id="SVGID_2_" x="252.3" y="61.3" class="st9" width="0.9" height="0.7"/>
					</g>
					<g>
						<g>
							<defs>
								<rect id="SVGID_4_" x="252.3" y="61.3" width="0.9" height="0.7"/>
							</defs>
							<use xlink:href="#SVGID_4_"  style="overflow:visible;fill:#C7D4EA;"/>
							<clipPath id="SVGID_5_">
								<use xlink:href="#SVGID_4_"  style="overflow:visible;"/>
							</clipPath>
							<rect x="252.3" y="61.3" class="st10" width="0.9" height="0.7"/>
						</g>
					</g>
				</g>
			</g>
		</g>
		<g>
			<rect x="250" y="63.8" class="st9" width="1" height="1"/>
		</g>
		<g>
			<rect x="250" y="64.7" class="st9" width="1" height="1"/>
		</g>
		<g>
			<rect x="256.2" y="60" class="st9" width="1" height="1"/>
		</g>
		<g>
			<rect x="250.8" y="64.7" class="st9" width="1" height="1"/>
		</g>
		<g>
			<rect x="247.2" y="67" class="st9" width="1" height="1"/>
		</g>
		<g>
			<rect x="247.2" y="68" class="st9" width="1" height="1"/>
		</g>
		<g>
			<rect x="247.2" y="68.9" class="st9" width="1" height="1"/>
		</g>
		<g>
			<rect x="247.2" y="69.7" class="st9" width="1" height="1"/>
		</g>
		<g>
			<rect x="248.7" y="66.3" class="st9" width="1" height="1"/>
		</g>
		<g>
			<rect x="248.1" y="68" class="st9" width="1" height="1"/>
		</g>
		<g>
			<rect x="248.1" y="68.9" class="st9" width="1" height="1"/>
		</g>
		<g>
			<rect x="248.1" y="69.7" class="st9" width="1" height="1"/>
		</g>
		<g>
			<rect x="254.4" y="61.3" class="st9" width="1" height="1"/>
		</g>
		<g>
			<rect x="249.6" y="67.4" class="st9" width="1" height="1"/>
		</g>
		<g>
			<rect x="249" y="68.9" class="st9" width="1" height="1"/>
		</g>
		<g>
			<rect x="249" y="69.7" class="st9" width="1" height="1"/>
		</g>
		<g>
			<rect x="256.4" y="59.7" class="st9" width="1" height="1"/>
		</g>
		<g>
			<rect x="254.9" y="63.5" class="st9" width="1" height="1"/>
		</g>
		<g>
			<rect x="250.8" y="68.4" class="st9" width="1" height="1"/>
		</g>
		<g>
			<rect x="249.9" y="69.7" class="st9" width="1" height="1"/>
		</g>
		<g>
			<rect x="246" y="71.8" class="st9" width="1" height="1"/>
		</g>
		<g>
			<rect x="246" y="72.8" class="st9" width="1" height="1"/>
		</g>
		<g>
			<rect x="246" y="73.6" class="st9" width="1" height="1"/>
		</g>
		<g>
			<rect x="246" y="74.6" class="st9" width="1" height="1"/>
		</g>
		<g>
			<rect x="246.9" y="71.8" class="st9" width="1" height="1"/>
		</g>
		<g>
			<rect x="246.9" y="72.8" class="st9" width="1" height="1"/>
		</g>
		<g>
			<rect x="246.9" y="73.6" class="st9" width="1" height="1"/>
		</g>
		<g>
			<rect x="246.9" y="74.6" class="st9" width="1" height="1"/>
		</g>
		<g>
			<rect x="248.2" y="71.5" class="st9" width="1" height="1"/>
		</g>
		<g>
			<rect x="247.8" y="72.8" class="st9" width="1" height="1"/>
		</g>
		<g>
			<rect x="247.8" y="73.6" class="st9" width="1" height="1"/>
		</g>
		<g>
			<rect x="247.8" y="74.6" class="st9" width="1" height="1"/>
		</g>
		<g>
			<rect x="254.4" y="67.6" class="st9" width="1" height="1"/>
		</g>
		<g>
			<rect x="249.2" y="72.5" class="st9" width="1" height="1"/>
		</g>
		<g>
			<rect x="248.7" y="73.6" class="st9" width="1" height="1"/>
		</g>
		<g>
			<rect x="248.7" y="74.6" class="st9" width="1" height="1"/>
		</g>
		<g>
			<rect x="245.1" y="76.6" class="st9" width="4.3" height="3.7"/>
		</g>
	</g>
</g>
<g>
	<g>
		<path class="st11" d="M148.4,96.1c3.2-6.8,11-20.7,24.7-29c21.4-13,45,0,53,5.2"/>
		<g>
			<polygon class="st12" points="169.3,92 168,88.3 149.4,94.9 144.1,75.9 140.3,77 146.7,100.1 			"/>
		</g>
		<g>
			<polygon class="st12" points="210.2,78.2 209.5,75.1 225,71.9 220.7,56.7 223.8,55.8 229,74.3 			"/>
		</g>
	</g>
</g>
</svg>
