<?xml version="1.0" encoding="utf-8"?>
<!-- Generator: Adobe Illustrator 19.2.1, SVG Export Plug-In . SVG Version: 6.00 Build 0)  -->
<svg version="1.1" id="Layer_1" xmlns="http://www.w3.org/2000/svg" xmlns:xlink="http://www.w3.org/1999/xlink" x="0px" y="0px"
	 viewBox="0 0 341 230" style="enable-background:new 0 0 341 230;" xml:space="preserve">
<style type="text/css">
	.st0{fill:#4C4277;}
	.st1{fill:#ABABD8;}
	.st2{fill:#8787C6;}
	.st3{opacity:0.5;}
	.st4{fill:#D7D7F4;}
</style>
<path class="st0" d="M78.4,80.3h178.4c3.6,0,6.6,3,6.6,6.6v103.9c0,3.6-3,6.6-6.6,6.6H78.4c-3.6,0-6.6-3-6.6-6.6V86.9
	C71.7,83.3,74.7,80.3,78.4,80.3z"/>
<rect x="85.5" y="91.8" class="st1" width="165" height="96.2"/>
<polygon class="st0" points="307.7,211 30.9,211 72.3,196.5 262.9,196.5 "/>
<path class="st2" d="M307.9,216.1c0,2.5-2,4.5-4.5,4.5H35.6c-2.5,0-4.5-2-4.5-4.5v-0.6c0-2.5,2-4.5,4.5-4.5h267.7
	c2.5,0,4.5,2,4.5,4.5L307.9,216.1L307.9,216.1z"/>
<rect x="31.1" y="211" class="st2" width="276.8" height="4.8"/>
<g class="st3">
	<rect x="204.3" y="115.1" class="st2" width="35.1" height="72.9"/>
</g>
<g class="st3">
	<rect x="96.9" y="115.1" class="st2" width="99.3" height="42.8"/>
</g>
<g class="st3">
	<rect x="96.9" y="171.3" class="st2" width="99.3" height="16.7"/>
</g>
<rect x="85.5" y="91.8" class="st2" width="165" height="10.3"/>
<rect x="71.7" y="190.8" class="st0" width="191.6" height="12.9"/>
<rect x="144.8" y="160.3" class="st4" width="45.4" height="69.8"/>
<polygon class="st4" points="218.3,162.6 116.8,162.6 167.6,120.4 "/>
</svg>
