<?xml version="1.0" encoding="utf-8"?>
<!-- Generator: Adobe Illustrator 19.2.1, SVG Export Plug-In . SVG Version: 6.00 Build 0)  -->
<svg version="1.1" id="Layer_1" xmlns="http://www.w3.org/2000/svg" xmlns:xlink="http://www.w3.org/1999/xlink" x="0px" y="0px"
	 viewBox="0 0 323.3 189.3" style="enable-background:new 0 0 323.3 189.3;" xml:space="preserve">
<style type="text/css">
	.st0{fill:#4C4277;}
	.st1{fill:#EDF2F9;}
	.st2{fill:#8787C6;}
	.st3{opacity:0.6;fill:#8787C6;enable-background:new    ;}
	.st4{fill:#BABAE8;}
	.st5{clip-path:url(#SVGID_2_);fill:#BABAE8;}
</style>
<ellipse class="st0" cx="143.7" cy="74.4" rx="43.7" ry="45.4"/>
<g>
	<path class="st0" d="M206.3,181.3c0-23.8-11.4-61.7-43-61.7h-37.9c-31.9,0-43.7,38.3-43.7,62.4v0.3h124.7V181.3L206.3,181.3z"/>
</g>
<g>
	<path class="st1" d="M166,87.6c-2.4,6.8-11,11.8-21.3,11.8c-10.3,0-18.9-5-21.3-11.8c-0.8,1.6-1.2,3.4-1.2,5.3
		c0,8.8,10.1,16,22.5,16s22.5-7.1,22.5-16C167.3,91.2,166.8,89.3,166,87.6z"/>
</g>
<ellipse class="st0" cx="143.2" cy="88.2" rx="24.8" ry="11.2"/>
<rect x="148.5" y="113.6" class="st2" width="97.9" height="68.7"/>
<rect x="126" y="173.1" class="st3" width="120.1" height="9.1"/>
<g>
	<g>
		<g>
			<rect x="183.3" y="134.6" class="st4" width="6.3" height="7.2"/>
		</g>
		<g>
			<rect x="183.3" y="141" class="st4" width="6.3" height="7.2"/>
		</g>
		<g>
			<rect x="183.3" y="147.3" class="st4" width="6.3" height="6.3"/>
		</g>
		<g>
			<rect x="183.3" y="153.7" class="st4" width="6.3" height="6.3"/>
		</g>
		<g>
			<rect x="190.8" y="132.6" class="st4" width="1.7" height="1.7"/>
		</g>
		<g>
			<rect x="190.8" y="134.2" class="st4" width="1.7" height="1.7"/>
		</g>
		<g>
			<rect x="190.8" y="135.7" class="st4" width="1.7" height="1.7"/>
		</g>
		<g>
			<rect x="190.8" y="137.1" class="st4" width="1.7" height="1.7"/>
		</g>
		<g>
			<rect x="192.4" y="132.6" class="st4" width="1.7" height="1.7"/>
		</g>
		<g>
			<rect x="192.4" y="134.2" class="st4" width="1.7" height="1.7"/>
		</g>
		<g>
			<rect x="192.4" y="135.7" class="st4" width="1.7" height="1.7"/>
		</g>
		<g>
			<rect x="192.4" y="137.1" class="st4" width="1.7" height="1.7"/>
		</g>
		<g>
			<rect x="194.3" y="131.8" class="st4" width="1.7" height="1.7"/>
		</g>
		<g>
			<rect x="193.9" y="134.2" class="st4" width="1.7" height="1.7"/>
		</g>
		<g>
			<rect x="193.9" y="135.7" class="st4" width="1.7" height="1.7"/>
		</g>
		<g>
			<rect x="193.9" y="137.1" class="st4" width="1.7" height="1.7"/>
		</g>
		<g>
			<rect x="202.6" y="123.2" class="st4" width="1.7" height="1.7"/>
		</g>
		<g>
			<rect x="196" y="133.4" class="st4" width="1.7" height="1.7"/>
		</g>
		<g>
			<rect x="195.5" y="135.7" class="st4" width="1.7" height="1.7"/>
		</g>
		<g>
			<rect x="195.5" y="137.1" class="st4" width="1.7" height="1.7"/>
		</g>
		<g>
			<rect x="189.7" y="141" class="st4" width="6.3" height="7.2"/>
		</g>
		<g>
			<rect x="189.7" y="147.3" class="st4" width="6.3" height="6.3"/>
		</g>
		<g>
			<rect x="189.7" y="153.7" class="st4" width="6.3" height="6.3"/>
		</g>
		<g>
			<rect x="199" y="130.6" class="st4" width="1.7" height="1.7"/>
		</g>
		<g>
			<rect x="199" y="132" class="st4" width="1.7" height="1.7"/>
		</g>
		<g>
			<rect x="199" y="133.6" class="st4" width="1.7" height="1.7"/>
		</g>
		<g>
			<rect x="199" y="135.1" class="st4" width="1.7" height="1.7"/>
		</g>
		<g>
			<rect x="201.3" y="129.2" class="st4" width="1.7" height="1.7"/>
		</g>
		<g>
			<rect x="200.6" y="132" class="st4" width="1.7" height="1.7"/>
		</g>
		<g>
			<rect x="200.6" y="133.6" class="st4" width="1.7" height="1.7"/>
		</g>
		<g>
			<rect x="200.6" y="135.1" class="st4" width="1.7" height="1.7"/>
		</g>
		<g>
			<rect x="209.9" y="120" class="st4" width="1.7" height="1.7"/>
		</g>
		<g>
			<rect x="203.1" y="131" class="st4" width="1.7" height="1.7"/>
		</g>
		<g>
			<rect x="202" y="133.6" class="st4" width="1.7" height="1.7"/>
		</g>
		<g>
			<rect x="202" y="135.1" class="st4" width="1.7" height="1.7"/>
		</g>
		<g>
			<rect x="216.9" y="120" class="st4" width="1.7" height="1.7"/>
		</g>
		<g>
			<rect x="213" y="123.5" class="st4" width="1.7" height="1.7"/>
		</g>
		<g>
			<rect x="204.8" y="132.7" class="st4" width="1.7" height="1.7"/>
		</g>
		<g>
			<rect x="203.6" y="135.1" class="st4" width="1.7" height="1.7"/>
		</g>
		<g>
			<rect x="197.4" y="139.2" class="st4" width="1.7" height="1.7"/>
		</g>
		<g>
			<rect x="197.4" y="140.6" class="st4" width="1.7" height="1.7"/>
		</g>
		<g>
			<rect x="197.4" y="142.2" class="st4" width="1.7" height="1.7"/>
		</g>
		<g>
			<rect x="197.4" y="143.7" class="st4" width="1.7" height="1.7"/>
		</g>
		<g>
			<rect x="198.9" y="139.2" class="st4" width="1.7" height="1.7"/>
		</g>
		<g>
			<rect x="198.9" y="140.6" class="st4" width="1.7" height="1.7"/>
		</g>
		<g>
			<rect x="198.9" y="142.2" class="st4" width="1.7" height="1.7"/>
		</g>
		<g>
			<rect x="198.9" y="143.7" class="st4" width="1.7" height="1.7"/>
		</g>
		<g>
			<rect x="201" y="138.4" class="st4" width="1.7" height="1.7"/>
		</g>
		<g>
			<rect x="200.5" y="140.6" class="st4" width="1.7" height="1.7"/>
		</g>
		<g>
			<rect x="200.5" y="142.2" class="st4" width="1.7" height="1.7"/>
		</g>
		<g>
			<rect x="200.5" y="143.7" class="st4" width="1.7" height="1.7"/>
		</g>
		<g>
			<rect x="210.3" y="130.9" class="st4" width="1.7" height="1.7"/>
		</g>
		<g>
			<rect x="202.6" y="140.1" class="st4" width="1.7" height="1.7"/>
		</g>
		<g>
			<rect x="202" y="142.2" class="st4" width="1.7" height="1.7"/>
		</g>
		<g>
			<rect x="202" y="143.7" class="st4" width="1.7" height="1.7"/>
		</g>
		<g>
			<rect x="195.1" y="147.3" class="st4" width="7.2" height="6.3"/>
		</g>
		<g>
			<rect x="195.1" y="153.7" class="st4" width="7.2" height="6.3"/>
		</g>
		<g>
			<rect x="207.6" y="128.9" class="st4" width="1.7" height="1.7"/>
		</g>
		<g>
			<rect x="207.6" y="130.4" class="st4" width="1.7" height="1.7"/>
		</g>
		<g>
			<rect x="207.6" y="131.9" class="st4" width="1.7" height="1.7"/>
		</g>
		<g>
			<rect x="207.6" y="133.5" class="st4" width="1.7" height="1.7"/>
		</g>
		<g>
			<rect x="216.1" y="118.8" class="st4" width="1.7" height="1.7"/>
		</g>
		<g>
			<rect x="209.1" y="130.4" class="st4" width="1.7" height="1.7"/>
		</g>
		<g>
			<rect x="209.1" y="131.9" class="st4" width="1.7" height="1.7"/>
		</g>
		<g>
			<rect x="209.1" y="133.5" class="st4" width="1.7" height="1.7"/>
		</g>
		<g>
			<g>
				<g>
					<g>
						<rect id="SVGID_9_" x="214.6" y="127.8" class="st4" width="1.6" height="1.1"/>
					</g>
					<g>
						<g>
							<defs>
								<rect id="SVGID_1_" x="214.6" y="127.8" width="1.6" height="1.1"/>
							</defs>
							<clipPath id="SVGID_2_">
								<use xlink:href="#SVGID_1_"  style="overflow:visible;"/>
							</clipPath>
							<rect x="214.6" y="127.8" class="st5" width="1.6" height="1.1"/>
						</g>
					</g>
				</g>
			</g>
		</g>
		<g>
			<rect x="210.7" y="131.9" class="st4" width="1.7" height="1.7"/>
		</g>
		<g>
			<rect x="210.7" y="133.5" class="st4" width="1.7" height="1.7"/>
		</g>
		<g>
			<rect x="221.3" y="125.6" class="st4" width="1.7" height="1.7"/>
		</g>
		<g>
			<rect x="212.1" y="133.5" class="st4" width="1.7" height="1.7"/>
		</g>
		<g>
			<rect x="205.9" y="137.5" class="st4" width="1.7" height="1.7"/>
		</g>
		<g>
			<rect x="205.9" y="139" class="st4" width="1.7" height="1.7"/>
		</g>
		<g>
			<rect x="205.9" y="140.6" class="st4" width="1.7" height="1.7"/>
		</g>
		<g>
			<rect x="205.9" y="142" class="st4" width="1.7" height="1.7"/>
		</g>
		<g>
			<rect x="208.5" y="136.2" class="st4" width="1.7" height="1.7"/>
		</g>
		<g>
			<rect x="207.5" y="139" class="st4" width="1.7" height="1.7"/>
		</g>
		<g>
			<rect x="207.5" y="140.6" class="st4" width="1.7" height="1.7"/>
		</g>
		<g>
			<rect x="207.5" y="142" class="st4" width="1.7" height="1.7"/>
		</g>
		<g>
			<rect x="218.1" y="127.7" class="st4" width="1.7" height="1.7"/>
		</g>
		<g>
			<rect x="210.1" y="138" class="st4" width="1.7" height="1.7"/>
		</g>
		<g>
			<rect x="209" y="140.6" class="st4" width="1.7" height="1.7"/>
		</g>
		<g>
			<rect x="209" y="142" class="st4" width="1.7" height="1.7"/>
		</g>
		<g>
			<rect x="221.5" y="125" class="st4" width="1.7" height="1.7"/>
		</g>
		<g>
			<rect x="219" y="131.5" class="st4" width="1.7" height="1.7"/>
		</g>
		<g>
			<rect x="212" y="139.7" class="st4" width="1.7" height="1.7"/>
		</g>
		<g>
			<rect x="210.5" y="142" class="st4" width="1.7" height="1.7"/>
		</g>
		<g>
			<rect x="203.9" y="145.6" class="st4" width="1.7" height="1.7"/>
		</g>
		<g>
			<rect x="203.9" y="147.2" class="st4" width="1.7" height="1.7"/>
		</g>
		<g>
			<rect x="203.9" y="148.7" class="st4" width="1.7" height="1.7"/>
		</g>
		<g>
			<rect x="203.9" y="150.3" class="st4" width="1.7" height="1.7"/>
		</g>
		<g>
			<rect x="205.4" y="145.6" class="st4" width="1.7" height="1.7"/>
		</g>
		<g>
			<rect x="205.4" y="147.2" class="st4" width="1.7" height="1.7"/>
		</g>
		<g>
			<rect x="205.4" y="148.7" class="st4" width="1.7" height="1.7"/>
		</g>
		<g>
			<rect x="205.4" y="150.3" class="st4" width="1.7" height="1.7"/>
		</g>
		<g>
			<rect x="207.6" y="145.1" class="st4" width="1.7" height="1.7"/>
		</g>
		<g>
			<rect x="207" y="147.2" class="st4" width="1.7" height="1.7"/>
		</g>
		<g>
			<rect x="207" y="148.7" class="st4" width="1.7" height="1.7"/>
		</g>
		<g>
			<rect x="207" y="150.3" class="st4" width="1.7" height="1.7"/>
		</g>
		<g>
			<rect x="218.1" y="138.5" class="st4" width="1.7" height="1.7"/>
		</g>
		<g>
			<rect x="209.4" y="146.7" class="st4" width="1.7" height="1.7"/>
		</g>
		<g>
			<rect x="208.5" y="148.7" class="st4" width="1.7" height="1.7"/>
		</g>
		<g>
			<rect x="208.5" y="150.3" class="st4" width="1.7" height="1.7"/>
		</g>
		<g>
			<rect x="202.4" y="153.7" class="st4" width="7.2" height="6.3"/>
		</g>
	</g>
</g>
<path class="st4" d="M239.6,58.9h-18.1c-0.9,0-1.6-0.7-1.6-1.6V39.2c0-0.9,0.7-1.6,1.6-1.6h18.1c0.9,0,1.6,0.7,1.6,1.6c0,0,0,0,0,0
	v18.1C241.2,58.2,240.4,58.9,239.6,58.9z"/>
<path class="st4" d="M267.2,58.9h-18.1c-0.9,0-1.6-0.7-1.6-1.6V39.2c0-0.9,0.7-1.6,1.6-1.6h18.1c0.9,0,1.6,0.7,1.6,1.6c0,0,0,0,0,0
	v18.1C268.8,58.2,268.1,58.9,267.2,58.9z"/>
<path class="st4" d="M294.9,58.9h-18.1c-0.9,0-1.6-0.7-1.6-1.6V39.2c0-0.9,0.7-1.6,1.6-1.6h18.1c0.9,0,1.6,0.7,1.6,1.6c0,0,0,0,0,0
	v18.1C296.5,58.2,295.8,58.9,294.9,58.9z"/>
<path class="st4" d="M267.2,86.4h-18.1c-0.9,0-1.6-0.7-1.6-1.6V66.7c0-0.9,0.7-1.6,1.6-1.6h18.1c0.9,0,1.6,0.7,1.6,1.6c0,0,0,0,0,0
	v18.1C268.8,85.7,268.1,86.4,267.2,86.4z"/>
<path class="st4" d="M294.9,86.4h-18.1c-0.9,0-1.6-0.7-1.6-1.6V66.7c0-0.9,0.7-1.6,1.6-1.6h18.1c0.9,0,1.6,0.7,1.6,1.6c0,0,0,0,0,0
	v18.1C296.5,85.7,295.8,86.4,294.9,86.4z"/>
</svg>
