<?xml version="1.0" encoding="utf-8"?>
<!-- Generator: Adobe Illustrator 19.2.1, SVG Export Plug-In . SVG Version: 6.00 Build 0)  -->
<svg version="1.1" id="Layer_1" xmlns="http://www.w3.org/2000/svg" xmlns:xlink="http://www.w3.org/1999/xlink" x="0px" y="0px"
	 viewBox="0 0 389 265" style="enable-background:new 0 0 389 265;" xml:space="preserve">
<style type="text/css">
	.st0{opacity:0.6;fill:#CFD9F4;enable-background:new    ;}
	.st1{fill:#7D7DBC;}
	.st2{fill:#4C4277;}
	.st3{fill:#FFFFFF;}
	.st4{fill:#BDBDE5;}
	.st5{fill:#ABABD8;}
	.st6{fill:none;stroke:#FFFFFF;stroke-linecap:round;stroke-miterlimit:10;}
	.st7{fill:#D4D4F4;}
	.st8{fill:#8787C6;}
	.st9{fill:#B2B1DD;}
</style>
<title>education-our-apps</title>
<path class="st0" d="M237.8,253.7h-76.2c-3.7,0-6.8-3-6.8-6.8v-76.2c0-3.7,3-6.8,6.8-6.8h76.2c3.7,0,6.8,3,6.8,6.8V247
	C244.6,250.7,241.5,253.7,237.8,253.7z"/>
<path class="st0" d="M237.7,146h-76.2c-3.7,0-6.8-3-6.8-6.8v-76c0-3.7,3-6.8,6.8-6.8h76.2c3.7,0,6.8,3,6.8,6.8v76.2
	c0.1,3.6-2.8,6.5-6.4,6.6C238,146,237.8,146,237.7,146z"/>
<path class="st1" d="M234.1,250.2H158c-3.7,0-6.8-3-6.8-6.8v-76.1c0-3.7,3-6.8,6.8-6.8h76.2c3.7,0,6.8,3,6.8,6.8v76
	c0.1,3.8-2.9,6.8-6.7,6.9C234.1,250.2,234.1,250.2,234.1,250.2z"/>
<path class="st2" d="M234.2,142.4H158c-3.7,0-6.8-3-6.8-6.8v-76c0-3.7,3-6.8,6.7-6.8c0,0,0,0,0,0h76.2c3.7,0,6.8,3,6.8,6.8v76.2
	C240.8,139.5,237.8,142.4,234.2,142.4z"/>
<path class="st3" d="M210.9,67.7H168c-1.5,0-2.6,1.1-2.7,2.6c0,0,0,0.1,0,0.1v13l-8.2,8.9h8.2v6.6c0,1.5,1.1,2.6,2.6,2.7
	c0,0,0.1,0,0.1,0h42.9c1.5,0,2.6-1.1,2.7-2.6c0,0,0-0.1,0-0.1V70.5C213.6,69,212.4,67.7,210.9,67.7z"/>
<path class="st4" d="M234.3,116.4l-8-8.4v-13c0-1.5-1.1-2.6-2.6-2.7c0,0-0.1,0-0.1,0H182c-1.5,0-2.6,1.1-2.7,2.6c0,0,0,0.1,0,0.1
	v28.2c0,1.5,1.1,2.6,2.6,2.7c0,0,0.1,0,0.1,0h41.6c1.5,0,2.6-1.1,2.7-2.6c0,0,0-0.1,0-0.1v-6.9L234.3,116.4L234.3,116.4z"/>
<path class="st4" d="M223.2,236.3h-53.9c-0.7,0-1.2-0.5-1.2-1.2c0,0,0,0,0,0v-32.4c0-0.7,0.5-1.2,1.2-1.2c0,0,0,0,0,0h53.9
	c0.7,0,1.2,0.5,1.2,1.2c0,0,0,0,0,0V235C224.4,235.7,223.9,236.2,223.2,236.3z"/>
<rect x="168.1" y="214.4" class="st3" width="56.4" height="5.1"/>
<path class="st3" d="M227.7,180.5c-0.9-6.2-9.3-6.9-14.1-5.5c-5.6,1.9-10.6,5.1-14.6,9.4c-1.2,1.2-2.2,2.5-3,3.9
	c0,0.1-0.1,0.2-0.2,0.2l0,0c-0.4,0.7-1.2,3.2-2.1,3.2h5c7.3,0,14.5-1.1,21.4-3.4C223.4,187.2,228.2,185,227.7,180.5z M220.6,184.5
	c-6.8,2.6-14,4.1-21.4,4.3c0,0,10-9.4,17.1-10.3c1.8-0.2,4.1-0.4,5.7,0.7C224.6,180.8,223,183.8,220.6,184.5z"/>
<path class="st3" d="M172.1,188.2c6.9,2.3,14.1,3.4,21.4,3.4h5c-0.9,0-1.8-2.5-2.1-3.2c0-0.1-0.1-0.2-0.2-0.2l0,0
	c-0.9-1.4-1.9-2.7-3-3.9c-3.9-4.3-9.3-8-14.6-9.4c-4.6-1.4-13.2-0.9-14.1,5.5C163.8,185,168.4,187.2,172.1,188.2z M170,179.2
	c1.7-0.9,3.8-1.2,5.7-0.7c7.1,0.9,17.1,10.3,17.1,10.3c-7.3-0.2-14.5-1.6-21.4-4.3C169.1,183.8,167.3,180.8,170,179.2z"/>
<rect x="193.5" y="203.5" class="st3" width="5" height="32.6"/>
<rect x="163.4" y="191.8" class="st4" width="65.3" height="11.9"/>
<rect x="193.5" y="191.3" class="st3" width="5" height="12.5"/>
<path class="st0" d="M345.7,253.7h-76.2c-3.7,0-6.8-3-6.8-6.8v-76.2c0-3.7,3-6.8,6.8-6.8h76.2c3.7,0,6.8,3,6.8,6.8V247
	C352.5,250.7,349.5,253.7,345.7,253.7z"/>
<path class="st0" d="M345.7,146h-76.2c-3.7,0-6.8-3-6.8-6.8v-76c0-3.7,3-6.8,6.8-6.8h76.2c3.7,0,6.8,3,6.8,6.7c0,0,0,0,0,0v76.2
	c0.1,3.6-2.8,6.5-6.4,6.6C345.9,146,345.8,146,345.7,146z"/>
<path class="st2" d="M342,250.2h-76.2c-3.7,0-6.8-3-6.8-6.8v-76.1c0-3.7,3-6.8,6.8-6.8H342c3.7,0,6.8,3,6.8,6.8v76
	C348.8,247,345.8,250.1,342,250.2C342.1,250.2,342,250.2,342,250.2z"/>
<path class="st1" d="M342.1,142.4h-76.2c-3.7,0-6.8-3-6.8-6.8v-76c0-3.7,3-6.8,6.8-6.8h76.2c3.7,0,6.8,3,6.8,6.8v76.2
	C348.8,139.5,345.8,142.4,342.1,142.4z"/>
<path class="st0" d="M130.4,253.7H54.2c-3.7,0-6.8-3-6.8-6.8v-76.2c0-3.7,3-6.8,6.8-6.8h76.2c3.7,0,6.8,3,6.8,6.8V247
	C137.2,250.7,134.1,253.7,130.4,253.7z"/>
<path class="st0" d="M130.3,147.2H54.2c-3.7,0-6.8-3-6.8-6.8V64.3c0-3.7,3-6.8,6.8-6.8c0,0,0,0,0,0h76.2c3.7,0,6.7,3,6.7,6.8v76.2
	C137.1,144.2,134.1,147.2,130.3,147.2z"/>
<path class="st2" d="M126.7,250.2H50.5c-3.7,0-6.8-3-6.8-6.8v-76.1c0-3.7,3-6.8,6.8-6.8h76.2c3.7,0,6.8,3,6.8,6.7c0,0,0,0,0,0v76.2
	C133.4,247.2,130.4,250.2,126.7,250.2z"/>
<path class="st1" d="M126.6,143.5H50.4c-3.7,0-6.8-3-6.7-6.8v0V60.5c0-3.7,3-6.8,6.8-6.8c0,0,0,0,0,0h76.2c3.7,0,6.8,3,6.8,6.8v76.2
	C133.4,140.4,130.3,143.5,126.6,143.5C126.6,143.5,126.6,143.5,126.6,143.5z"/>
<rect x="75.4" y="199.5" transform="matrix(0.7174 -0.6967 0.6967 0.7174 -115.7867 127.7077)" class="st3" width="48.2" height="14.2"/>
<rect x="116.5" y="179.2" transform="matrix(0.7174 -0.6967 0.6967 0.7174 -95.8459 136.4454)" class="st5" width="7.5" height="14.2"/>
<polygon class="st5" points="75,230.3 76.5,218.8 86.6,229 "/>
<path class="st6" d="M73.8,228.4c0,0-21.2,3.4-21.4-6.8C52.3,211.5,79,207.1,81.8,201c2.8-5.9-10.5-4.3-10.5-4.3"/>
<rect x="273.6" y="72.1" class="st4" width="61.1" height="11"/>
<rect x="273.6" y="94" class="st4" width="61.1" height="9.3"/>
<rect x="273.6" y="114.3" class="st4" width="61.1" height="11"/>
<path class="st7" d="M113.6,131.6H63.5c-2.1,0-3.9-1.8-3.9-3.9V69.9c0-2.1,1.7-3.9,3.9-3.9h50.1c2.1,0,3.9,1.7,3.9,3.9v57.9
	C117.4,129.8,115.7,131.5,113.6,131.6z"/>
<rect x="64.9" y="71.6" class="st8" width="47.1" height="10.9"/>
<rect x="64.9" y="85.7" class="st3" width="21.9" height="20.3"/>
<rect x="90.1" y="85.7" class="st3" width="21.9" height="20.3"/>
<rect x="64.9" y="109.4" class="st3" width="21.9" height="15.2"/>
<rect x="90.1" y="109.4" class="st3" width="21.9" height="15.2"/>
<path class="st9" d="M101.9,92.6v3.5h3.4V97h-3.4v3.5h-1.1V97h-3.3v-0.9h3.3v-3.5H101.9z"/>
<path class="st9" d="M74.6,115.2c0,1.8-0.9,2.3-1.8,2.3c-1.3-0.3-2-1.6-1.7-2.9c0.2-0.8,0.9-1.5,1.7-1.7
	C73.9,113.1,74.6,114.1,74.6,115.2z M71.7,115.4c0,1.1,0.4,1.8,1.1,1.8c0.7,0,1.1-0.7,1.1-1.8c0-1.1-0.4-1.8-1.1-1.8
	C72.1,113.9,71.6,114.6,71.7,115.4L71.7,115.4z M72.6,121l4.6-7.9h0.7l-4.6,7.9L72.6,121L72.6,121z M79.5,118.6
	c0,1.8-0.9,2.3-1.8,2.3c-1.1,0-1.8-0.9-1.8-2.3c-0.1-1.1,0.7-2.2,1.8-2.3C78.8,116.3,79.5,117.2,79.5,118.6L79.5,118.6z M76.7,118.7
	c0,1.1,0.4,1.8,1.1,1.8s1.1-0.7,1.1-1.8c0-1.1-0.4-1.8-1.1-1.8C77,116.8,76.6,117.7,76.7,118.7L76.7,118.7z"/>
<path class="st9" d="M97.9,116.3v-0.9h6.9v0.9H97.9z M97.9,118.9V118h6.9v0.9L97.9,118.9L97.9,118.9z"/>
<path class="st9" d="M79.3,97.2v0.7h-7.6v-0.7H79.3z"/>
<circle class="st3" cx="306.4" cy="205.3" r="33"/>
<circle class="st4" cx="306.4" cy="205.3" r="28.4"/>
<path class="st1" d="M315.8,196.7c-0.4-0.4-0.8-0.7-1.2-0.9c-0.5-0.4-1.2-0.7-1.8-1.1c-0.7-0.4-1.6-0.7-2.3-1.1
	c-0.8-0.3-1.7-0.5-2.6-0.5v8.6l1.2,0.4c1.8,0.5,3.2,1.1,4.8,1.6c1.2,0.5,2.4,1.2,3.5,1.9c1,0.7,1.7,1.7,2.1,2.8
	c0.6,1.3,0.9,2.7,0.9,4.1c0,1.7-0.4,3.3-1.1,4.8c-0.6,1.2-1.5,2.3-2.6,3.2c-1.1,0.9-2.4,1.5-3.8,1.8c-1.5,0.4-3,0.6-4.6,0.7v5.5h-3
	v-5.5c-2.3-0.2-4.6-0.7-6.7-1.6c-2.1-0.8-4.1-1.8-6-3l3-5.8c0.4,0.4,0.9,0.8,1.4,1.1c0.7,0.5,1.6,0.9,2.3,1.4c1,0.5,2,0.9,3,1.2
	c1.1,0.4,2.2,0.6,3.4,0.7v-8.6l-1.8-0.5c-1.5-0.4-3-1-4.4-1.6c-1-0.5-2-1.1-3-1.8c-0.8-0.6-1.4-1.5-1.8-2.5
	c-0.4-1.1-0.7-2.3-0.7-3.5c0-1.6,0.3-3.1,0.9-4.6c0.6-1.2,1.3-2.4,2.3-3.4c1-1,2.2-1.7,3.5-2.1c1.5-0.6,3-0.9,4.6-1.1v-5.1h3v5.1
	c2,0.2,4,0.6,5.8,1.4c1.8,0.7,3.4,1.8,4.9,2.5L315.8,196.7z M300.6,197.2c-0.1,1,0.4,2,1.2,2.5c1.1,0.7,2.3,1.3,3.5,1.6v-8.1
	C302.2,193.5,300.6,194.7,300.6,197.2L300.6,197.2z M312.6,213.3c0-1.1-0.5-2.1-1.4-2.6c-1.2-0.8-2.5-1.4-3.9-1.8v8.1
	C310.8,216.8,312.6,215.7,312.6,213.3L312.6,213.3z"/>
</svg>
