<?xml version="1.0" encoding="UTF-8" standalone="no"?>
<!-- Generator: Adobe Illustrator 18.1.0, SVG Export Plug-In . SVG Version: 6.00 Build 0)  -->

<svg
   xmlns:svg="http://www.w3.org/2000/svg"
   xmlns="http://www.w3.org/2000/svg"
   version="1.1"
   id="Layer_1"
   x="0px"
   y="0px"
   viewBox="0 0 36 36"
   style="enable-background:new 0 0 36 36;"
   xml:space="preserve"
   width="100%"
   height="100%"><path
     id="Facebook_7_"
     style="fill:#783189;"
     d="M15.2,12.6c0,0.4,0,2.4,0,2.4h-1.8v3h1.8v8.8h3.7V18h2.5c0,0,0.2-1.4,0.3-3  c-0.3,0-2.8,0-2.8,0s0-1.7,0-2c0-0.3,0.4-0.7,0.8-0.7c0.4,0,1.2,0,2,0c0-0.4,0-1.8,0-3.1c-1,0-2.2,0-2.7,0  C15.1,9.2,15.2,12.2,15.2,12.6z" /></svg>
