<svg id="Layer_1" data-name="Layer 1" xmlns="http://www.w3.org/2000/svg" viewBox="0 0 300 206"><defs><style>.cls-1{fill:#5a69a0;}.cls-2,.cls-3,.cls-4,.cls-5{fill:#a8b6dd;}.cls-3{opacity:0.6;}.cls-3,.cls-4,.cls-5{isolation:isolate;}.cls-4{opacity:0.3;}.cls-5{opacity:0.1;}</style></defs><title>get-organizations</title><rect class="cls-1" x="102" y="149" width="78" height="57"/><rect class="cls-1" y="175" width="78" height="31"/><rect class="cls-1" x="59" y="61" width="87" height="145"/><rect class="cls-1" x="170" width="86" height="206"/><rect class="cls-1" x="223" y="99" width="77" height="107"/><rect class="cls-2" x="177.7" y="10.4" width="31.1" height="12.9"/><rect class="cls-2" x="216.2" y="10.4" width="31.1" height="12.9"/><rect class="cls-2" x="177.7" y="29.1" width="31.1" height="12.9"/><rect class="cls-3" x="216.2" y="29.1" width="31.1" height="12.9"/><rect class="cls-2" x="68.4" y="69.9" width="31.1" height="12.9"/><rect class="cls-2" x="106.9" y="69.9" width="31.1" height="12.9"/><rect class="cls-2" x="68.4" y="88.6" width="31.1" height="12.9"/><rect class="cls-3" x="106.9" y="88.6" width="31.1" height="12.9"/><rect class="cls-3" x="68.4" y="108.2" width="31.1" height="12.9"/><rect class="cls-3" x="106.9" y="108.2" width="31.1" height="12.9"/><rect class="cls-4" x="106.9" y="126.9" width="31.1" height="12.9"/><rect class="cls-4" x="68.4" y="126.9" width="31.1" height="12.9"/><rect class="cls-4" x="68.4" y="145.2" width="31.1" height="12.9"/><rect class="cls-3" x="177.7" y="48.5" width="31.1" height="12.9"/><rect class="cls-3" x="216.2" y="48.5" width="31.1" height="12.9"/><rect class="cls-4" x="177.7" y="67.2" width="31.1" height="12.9"/><rect class="cls-4" x="216.2" y="67.2" width="31.1" height="12.9"/><rect class="cls-5" x="216.2" y="85.7" width="31.1" height="12.9"/><rect class="cls-4" x="177.7" y="85.7" width="31.1" height="12.9"/><rect class="cls-5" x="177.7" y="104.4" width="31.1" height="12.9"/></svg>