<?xml version="1.0" encoding="utf-8"?>
<!-- Generator: Adobe Illustrator 19.2.0, SVG Export Plug-In . SVG Version: 6.00 Build 0)  -->
<svg version="1.1" id="Layer_1" xmlns="http://www.w3.org/2000/svg" xmlns:xlink="http://www.w3.org/1999/xlink" x="0px" y="0px"
	 viewBox="0 0 300 206" style="enable-background:new 0 0 300 206;" xml:space="preserve">
<style type="text/css">
	.st0{fill:#7285BA;}
	.st1{fill:#5A69A0;}
	.st2{fill:#A8B6DD;}
	.st3{clip-path:url(#SVGID_2_);fill:#A8B6DD;}
</style>
<rect x="72.3" y="47" class="st0" width="28.7" height="45.3"/>
<polygon class="st1" points="148.4,37 30.7,120.9 72.8,120.9 72.8,206.8 222,206.8 222,120.9 266,120.9 "/>
<rect x="126.1" y="145.6" class="st2" width="43.7" height="61.2"/>
<g>
	<defs>
		<rect id="SVGID_1_" x="209" y="170" width="73" height="36"/>
	</defs>
	<clipPath id="SVGID_2_">
		<use xlink:href="#SVGID_1_"  style="overflow:visible;"/>
	</clipPath>
	<path class="st3" d="M252.9,184.1c0,0-3.3-7.8-15.2-7.5c-12,0.4-3.2,9.8-3.2,9.8s-13.7-1.6-16.1,2.7c-2.9,5.3,1.1,7.1,1.1,7.1
		l-3.9,0.8c0,0,4.6,3.1,6.1,3c1.5-0.1-9.6,3.9-7.1,8.2c2.6,4.4,7.7,5.4,13.7,3.6c6-1.8,2.4,0,2.4,0s-4.8,4,14.2,4
		c19,0,12.7-5,12.7-5s16.2-0.5,17.9-4c1.7-3.4-1.3-5.6-2.8-6.8c-1.5-1.2-3.6-2.5-3.6-2.5s5.6-0.7,6.4-3.4c0.8-2.7,0.8-2.7,0.8-2.7
		l-4.2,0.3c0,0,3.6-4.5-2.4-8.7c-6-4.2-10.8,1.1-10.8,1.1s0-3-3-4.1c-3-1.1-3-1.1-3-1.1S254.9,182.5,252.9,184.1z"/>
</g>
</svg>
