<?xml version="1.0" encoding="utf-8"?>
<!-- Generator: Adobe Illustrator 19.2.1, SVG Export Plug-In . SVG Version: 6.00 Build 0)  -->
<svg version="1.1" id="Layer_1" xmlns="http://www.w3.org/2000/svg" xmlns:xlink="http://www.w3.org/1999/xlink" x="0px" y="0px"
	 viewBox="0 0 300 206" style="enable-background:new 0 0 300 206;" xml:space="preserve">
<style type="text/css">
	.st0{filter:url(#Adobe_OpacityMaskFilter);}
	.st1{fill:url(#SVGID_2_);}
	.st2{mask:url(#SVGID_1_);}
	.st3{fill:#542866;}
</style>
<defs>
	<filter id="Adobe_OpacityMaskFilter" filterUnits="userSpaceOnUse" x="69.9" y="3.4" width="196.5" height="202.6">
		<feColorMatrix  type="matrix" values="1 0 0 0 0  0 1 0 0 0  0 0 1 0 0  0 0 0 1 0"/>
	</filter>
</defs>
<mask maskUnits="userSpaceOnUse" x="69.9" y="3.4" width="196.5" height="202.6" id="SVGID_1_">
	<g class="st0">
		
			<linearGradient id="SVGID_2_" gradientUnits="userSpaceOnUse" x1="4824.9102" y1="5442.1821" x2="5046.1978" y2="5220.895" gradientTransform="matrix(-1 0 0 -1 5101.4448 5433.3335)">
			<stop  offset="0" style="stop-color:#000000"/>
			<stop  offset="2.729893e-003" style="stop-color:#010101"/>
			<stop  offset="0.124" style="stop-color:#3C3C3C"/>
			<stop  offset="0.2478" style="stop-color:#707070"/>
			<stop  offset="0.3721" style="stop-color:#9C9C9C"/>
			<stop  offset="0.4965" style="stop-color:#C0C0C0"/>
			<stop  offset="0.6212" style="stop-color:#DBDBDB"/>
			<stop  offset="0.7463" style="stop-color:#EFEFEF"/>
			<stop  offset="0.8721" style="stop-color:#FBFBFB"/>
			<stop  offset="1" style="stop-color:#FFFFFF"/>
		</linearGradient>
		<polygon class="st1" points="60,-13.6 271.8,-13.6 271.8,217.2 60,217.2 		"/>
	</g>
</mask>
<g class="st2">
	<g>
		<g>
			<polygon class="st3" points="107.8,94.3 107.8,101.8 115.3,101.8 116.1,101.8 123.6,101.8 123.6,101.8 131.1,101.8 138.6,101.8 
				138.6,93.6 138.6,86.1 131.1,86.1 131.1,78.6 123.6,78.6 123.6,71 116.1,71 115.3,71 107.8,71 107.8,78.6 107.8,79.3 107.8,86.8 
				107.8,86.8 			"/>
		</g>
		<g>
			<rect x="165.9" y="24.9" class="st3" width="8.3" height="8.3"/>
		</g>
		<g>
			<polygon class="st3" points="133.2,83.5 141.5,83.5 141.5,75.2 133.3,75.2 133.3,67 125,67 125,75.3 133.2,75.3 			"/>
		</g>
		<g>
			<polygon class="st3" points="147.8,76 147.8,76.8 147.8,83.5 147.8,84.3 147.8,91.8 155.3,91.8 156.1,91.8 162.8,91.8 
				163.6,91.8 171.1,91.8 171.1,91.8 178.6,91.8 178.6,83.5 171.1,83.5 171.1,76 163.6,76 163.6,68.5 156.1,68.5 156.1,61 147.8,61 
				147.8,69.3 			"/>
		</g>
		<g>
			<rect x="159" y="54" class="st3" width="8.3" height="8.3"/>
		</g>
		<g>
			<rect x="201.1" y="9.2" class="st3" width="8.3" height="8.3"/>
		</g>
		<g>
			<rect x="167.8" y="63.1" class="st3" width="8.3" height="8.3"/>
		</g>
		<g>
			<polygon class="st3" points="244,17.6 244,9.3 239.5,9.3 239.5,3.4 231.3,3.4 231.3,11.7 235.7,11.7 235.7,17.6 			"/>
		</g>
		<g>
			<rect x="216.7" y="26.4" class="st3" width="8.3" height="8.3"/>
		</g>
		<g>
			<rect x="176.4" y="71.8" class="st3" width="8.3" height="8.3"/>
		</g>
		<g>
			<polygon class="st3" points="139.8,110.6 139.8,111.3 139.8,118.1 139.8,118.8 139.8,126.3 139.8,126.3 139.8,133.8 147.3,133.8 
				148.1,133.8 154.8,133.8 155.6,133.8 162.3,133.8 163.1,133.8 170.6,133.8 170.6,126.3 170.6,125.6 170.6,118.1 163.1,118.1 
				163.1,110.6 155.6,110.6 155.6,103 147.3,103 139.8,103 			"/>
		</g>
		<g>
			<polygon class="st3" points="157.6,99.6 157.6,107.8 165.8,107.8 165.8,116 174.1,116 174.1,107.8 165.8,107.8 165.8,99.6 			"/>
		</g>
		<g>
			<rect x="222.4" y="47.3" class="st3" width="8.3" height="8.3"/>
		</g>
		<g>
			<polygon class="st3" points="213.1,68 211.3,68 211.3,62.7 205.6,62.7 205.6,60.5 198.1,60.5 198.1,53 189.8,53 189.8,60.5 
				189.8,60.5 189.8,68.8 189.8,75.5 189.8,76.3 189.8,83.8 198.1,83.8 198.1,83.8 204.9,83.8 204.9,83.8 213.1,83.8 220.6,83.8 
				220.6,75.5 213.1,75.5 			"/>
		</g>
		<g>
			<rect x="193.9" y="88.9" class="st3" width="8.3" height="8.3"/>
		</g>
		<g>
			<rect x="241.8" y="47.4" class="st3" width="8.3" height="8.3"/>
		</g>
		<g>
			<rect x="202.3" y="97.6" class="st3" width="8.3" height="8.3"/>
		</g>
		<g>
			<polygon class="st3" points="266.3,33.6 258.1,33.6 258.1,36.8 257.3,36.8 257.3,45 265.5,45 265.5,41.8 266.3,41.8 			"/>
		</g>
		<g>
			<rect x="246" y="65.3" class="st3" width="8.3" height="8.3"/>
		</g>
		<g>
			<rect x="211.5" y="106.4" class="st3" width="8.3" height="8.3"/>
		</g>
		<g>
			<polygon class="st3" points="205.1,117.5 205.1,110 197.6,110 197.6,102.5 190.1,102.5 190.1,95 181.8,95 181.8,103.3 181.8,110 
				181.8,110.8 181.8,117.5 181.8,118.3 181.8,125.8 189.3,125.8 190.1,125.8 196.8,125.8 197.6,125.8 204.3,125.8 205.1,125.8 
				212.6,125.8 212.6,117.5 			"/>
		</g>
		<g>
			<rect x="190.2" y="132.1" class="st3" width="8.3" height="8.3"/>
		</g>
		<g>
			<rect x="241.3" y="99.9" class="st3" width="8.3" height="8.3"/>
		</g>
		<g>
			<rect x="198.4" y="140.4" class="st3" width="8.3" height="8.3"/>
		</g>
		<g>
			<polygon class="st3" points="202.6,150.1 195.1,150.1 195.1,142.5 187.6,142.5 187.6,135 179.3,135 171.8,135 171.8,143.3 
				171.8,150.1 171.8,150.8 171.8,157.6 171.8,158.3 171.8,165.8 180.1,165.8 186.8,165.8 187.6,165.8 194.3,165.8 195.1,165.8 
				202.6,165.8 202.6,157.6 202.6,157.6 			"/>
		</g>
		<g>
			<polygon class="st3" points="162.9,173 162.9,143 132.9,143 132.9,112.9 102.9,112.9 102.9,82.9 69.9,82.9 69.9,115.9 
				69.9,115.9 69.9,146 69.9,146 69.9,173 69.9,173 69.9,206 102.9,206 102.9,206 132.9,206 132.9,206 162.8,206 162.8,206 
				195.8,206 195.8,173 			"/>
		</g>
	</g>
</g>
</svg>
