<?xml version="1.0" encoding="utf-8"?>
<!-- Generator: Adobe Illustrator 19.2.1, SVG Export Plug-In . SVG Version: 6.00 Build 0)  -->
<svg version="1.1" id="Layer_1" xmlns="http://www.w3.org/2000/svg" xmlns:xlink="http://www.w3.org/1999/xlink" x="0px" y="0px"
	 viewBox="0 0 300 206" style="enable-background:new 0 0 300 206;" xml:space="preserve">
<style type="text/css">
	.st0{fill:#B46E91;}
	.st1{fill:#965F82;}
	.st2{fill:#DBA4C3;}
</style>
<rect x="72.3" y="47" class="st0" width="28.7" height="45.3"/>
<polygon class="st1" points="148.4,37 30.7,120.9 72.8,120.9 72.8,206.8 222,206.8 222,120.9 266,120.9 "/>
<rect x="126.1" y="145.6" class="st2" width="43.7" height="61.2"/>
<g>
	<path class="st2" d="M272.7,200c-1.5-1.2-3.6-2.5-3.6-2.5s5.6-0.7,6.4-3.4c0.8-2.7,0.8-2.7,0.8-2.7l-4.2,0.3c0,0,3.6-4.5-2.4-8.7
		c-6-4.2-10.8,1.1-10.8,1.1s0-3-3-4.1c-3-1.1-3-1.1-3-1.1s2,3.6,0,5.2c0,0-3.3-7.8-15.2-7.5c-12,0.4-3.2,9.8-3.2,9.8
		s-13.7-1.6-16.1,2.7c-2.9,5.3,1.1,7.1,1.1,7.1l-3.9,0.8c0,0,4.6,3.1,6.1,3c1.3-0.1-7.3,3.1-7.5,6.8h61.3
		C277.2,203.4,274.2,201.2,272.7,200z"/>
</g>
</svg>
