<?xml version="1.0" encoding="utf-8"?>
<!-- Generator: Adobe Illustrator 19.2.0, SVG Export Plug-In . SVG Version: 6.00 Build 0)  -->
<svg version="1.1" id="Layer_1" xmlns="http://www.w3.org/2000/svg" xmlns:xlink="http://www.w3.org/1999/xlink" x="0px" y="0px"
	 viewBox="0 0 300 206" style="enable-background:new 0 0 300 206;" xml:space="preserve">
<style type="text/css">
	.st0{fill:#5A69A0;}
	.st1{fill:#A8B6DD;}
	.st2{opacity:0.6;fill:#A8B6DD;}
	.st3{opacity:0.3;fill:#A8B6DD;}
	.st4{opacity:0.1;fill:#A8B6DD;}
</style>
<rect x="102" y="149" class="st0" width="78" height="57"/>
<rect y="175" class="st0" width="78" height="31"/>
<rect x="59" y="61" class="st0" width="87" height="145"/>
<rect x="170" class="st0" width="86" height="206"/>
<rect x="223" y="99" class="st0" width="77" height="107"/>
<rect x="177.7" y="10.4" class="st1" width="31.1" height="12.9"/>
<rect x="216.2" y="10.4" class="st1" width="31.1" height="12.9"/>
<rect x="177.7" y="29.1" class="st1" width="31.1" height="12.9"/>
<rect x="216.2" y="29.1" class="st2" width="31.1" height="12.9"/>
<rect x="68.4" y="69.9" class="st1" width="31.1" height="12.9"/>
<rect x="106.9" y="69.9" class="st1" width="31.1" height="12.9"/>
<rect x="68.4" y="88.6" class="st1" width="31.1" height="12.9"/>
<rect x="106.9" y="88.6" class="st2" width="31.1" height="12.9"/>
<rect x="68.4" y="108.2" class="st2" width="31.1" height="12.9"/>
<rect x="106.9" y="108.2" class="st2" width="31.1" height="12.9"/>
<rect x="106.9" y="126.9" class="st3" width="31.1" height="12.9"/>
<rect x="68.4" y="126.9" class="st3" width="31.1" height="12.9"/>
<rect x="68.4" y="145.2" class="st3" width="31.1" height="12.9"/>
<rect x="177.7" y="48.5" class="st2" width="31.1" height="12.9"/>
<rect x="216.2" y="48.5" class="st2" width="31.1" height="12.9"/>
<rect x="177.7" y="67.2" class="st3" width="31.1" height="12.9"/>
<rect x="216.2" y="67.2" class="st3" width="31.1" height="12.9"/>
<rect x="216.2" y="85.7" class="st4" width="31.1" height="12.9"/>
<rect x="177.7" y="85.7" class="st3" width="31.1" height="12.9"/>
<rect x="177.7" y="104.4" class="st4" width="31.1" height="12.9"/>
</svg>
