<?xml version="1.0" encoding="utf-8"?>
<!-- Generator: Adobe Illustrator 19.2.1, SVG Export Plug-In . SVG Version: 6.00 Build 0)  -->
<svg version="1.1" id="Layer_1" xmlns="http://www.w3.org/2000/svg" xmlns:xlink="http://www.w3.org/1999/xlink" x="0px" y="0px"
	 viewBox="0 0 300 206" style="enable-background:new 0 0 300 206;" xml:space="preserve">
<style type="text/css">
	.st0{fill:#5A69A0;}
	.st1{fill:#A8B6DD;}
	.st2{opacity:0.6;fill:#A8B6DD;enable-background:new    ;}
	.st3{opacity:0.3;fill:#A8B6DD;enable-background:new    ;}
	.st4{opacity:0.1;fill:#A8B6DD;enable-background:new    ;}
</style>
<polygon class="st0" points="256,100 256,1 170,1 170,150 146,150 146,62 59,62 59,176 0,176 0,186.3 0,207 300,207 300,186.3 
	300,100 "/>
<title>get-organizations</title>
<rect x="177.7" y="11.4" class="st1" width="31.1" height="12.9"/>
<rect x="216.2" y="11.4" class="st1" width="31.1" height="12.9"/>
<rect x="177.7" y="30.1" class="st1" width="31.1" height="12.9"/>
<rect x="216.2" y="30.1" class="st2" width="31.1" height="12.9"/>
<rect x="68.4" y="70.9" class="st1" width="31.1" height="12.9"/>
<rect x="106.9" y="70.9" class="st1" width="31.1" height="12.9"/>
<rect x="68.4" y="89.6" class="st1" width="31.1" height="12.9"/>
<rect x="106.9" y="89.6" class="st2" width="31.1" height="12.9"/>
<rect x="68.4" y="109.2" class="st2" width="31.1" height="12.9"/>
<rect x="106.9" y="109.2" class="st2" width="31.1" height="12.9"/>
<rect x="106.9" y="127.9" class="st3" width="31.1" height="12.9"/>
<rect x="68.4" y="127.9" class="st3" width="31.1" height="12.9"/>
<rect x="68.4" y="146.2" class="st3" width="31.1" height="12.9"/>
<rect x="177.7" y="49.5" class="st2" width="31.1" height="12.9"/>
<rect x="216.2" y="49.5" class="st2" width="31.1" height="12.9"/>
<rect x="177.7" y="68.2" class="st3" width="31.1" height="12.9"/>
<rect x="216.2" y="68.2" class="st3" width="31.1" height="12.9"/>
<rect x="216.2" y="86.7" class="st4" width="31.1" height="12.9"/>
<rect x="177.7" y="86.7" class="st3" width="31.1" height="12.9"/>
<rect x="177.7" y="105.4" class="st4" width="31.1" height="12.9"/>
</svg>
