<?xml version="1.0" encoding="utf-8"?>
<!-- Generator: Adobe Illustrator 19.2.1, SVG Export Plug-In . SVG Version: 6.00 Build 0)  -->
<svg version="1.1" id="Layer_1" xmlns="http://www.w3.org/2000/svg" xmlns:xlink="http://www.w3.org/1999/xlink" x="0px" y="0px"
	 viewBox="0 0 331 230" style="enable-background:new 0 0 331 230;" xml:space="preserve">
<style type="text/css">
	.st0{fill:#3C3172;}
	.st1{opacity:0.5;}
	.st2{fill:#2D2765;}
	.st3{opacity:0.6;fill:#2D2765;enable-background:new    ;}
	.st4{opacity:0.3;fill:#2D2765;enable-background:new    ;}
</style>
<rect x="160.9" y="180.5" class="st0" width="67" height="49.5"/>
<rect x="124" y="105.4" class="st0" width="74.7" height="124.5"/>
<rect x="219.3" y="53.1" class="st0" width="73.9" height="176.9"/>
<rect x="264.9" y="159.2" class="st0" width="66.1" height="70.8"/>
<rect x="74.2" y="214" class="st0" width="66.1" height="16"/>
<g class="st1">
	<rect x="226" y="62" class="st2" width="26.7" height="11.1"/>
	<rect x="259" y="62" class="st2" width="26.7" height="11.1"/>
	<rect x="226" y="78" class="st2" width="26.7" height="11.1"/>
	<rect x="259" y="78" class="st2" width="26.7" height="11.1"/>
	<rect x="132.1" y="113.1" class="st2" width="26.7" height="11.1"/>
	<rect x="165.1" y="113.1" class="st2" width="26.7" height="11.1"/>
	<rect x="132.1" y="129.2" class="st2" width="26.7" height="11.1"/>
	<rect x="165.1" y="129.2" class="st2" width="26.7" height="11.1"/>
	<rect x="132.1" y="146" class="st2" width="26.7" height="11.1"/>
	<rect x="165.1" y="146" class="st3" width="26.7" height="11.1"/>
	<rect x="165.1" y="162" class="st4" width="26.7" height="11.1"/>
	<rect x="132.1" y="162" class="st3" width="26.7" height="11.1"/>
	<rect x="132.1" y="177.8" class="st4" width="26.7" height="11.1"/>
	<rect x="226" y="94.7" class="st2" width="26.7" height="11.1"/>
	<rect x="259" y="94.7" class="st2" width="26.7" height="11.1"/>
	<rect x="226" y="110.8" class="st2" width="26.7" height="11.1"/>
	<rect x="259" y="110.8" class="st3" width="26.7" height="11.1"/>
	<rect x="259" y="126.7" class="st4" width="26.7" height="11.1"/>
	<rect x="226" y="126.7" class="st3" width="26.7" height="11.1"/>
	<rect x="226" y="142.7" class="st4" width="26.7" height="11.1"/>
</g>
</svg>
