<?xml version="1.0" encoding="UTF-8" standalone="no"?>
<!-- Generator: Adobe Illustrator 18.1.1, SVG Export Plug-In . SVG Version: 6.00 Build 0)  -->

<svg
   xmlns:dc="http://purl.org/dc/elements/1.1/"
   xmlns:cc="http://creativecommons.org/ns#"
   xmlns:rdf="http://www.w3.org/1999/02/22-rdf-syntax-ns#"
   xmlns:svg="http://www.w3.org/2000/svg"
   xmlns="http://www.w3.org/2000/svg"
   xmlns:sodipodi="http://sodipodi.sourceforge.net/DTD/sodipodi-0.dtd"
   xmlns:inkscape="http://www.inkscape.org/namespaces/inkscape"
   version="1.1"
   id="Layer_1"
   x="0px"
   y="0px"
   viewBox="0 0 50 50"
   style="enable-background:new 0 0 50 50;"
   xml:space="preserve"
   inkscape:version="0.48.5 r10040"
   width="100%"
   height="100%"
   sodipodi:docname="gith_active50.svg"><metadata
     id="metadata17"><rdf:RDF><cc:Work
         rdf:about=""><dc:format>image/svg+xml</dc:format><dc:type
           rdf:resource="http://purl.org/dc/dcmitype/StillImage" /></cc:Work></rdf:RDF></metadata><defs
     id="defs15" /><sodipodi:namedview
     pagecolor="#ffffff"
     bordercolor="#666666"
     borderopacity="1"
     objecttolerance="10"
     gridtolerance="10"
     guidetolerance="10"
     inkscape:pageopacity="0"
     inkscape:pageshadow="2"
     inkscape:window-width="640"
     inkscape:window-height="480"
     id="namedview13"
     showgrid="false"
     inkscape:zoom="4.72"
     inkscape:cx="25"
     inkscape:cy="25"
     inkscape:window-x="0"
     inkscape:window-y="27"
     inkscape:window-maximized="0"
     inkscape:current-layer="Layer_1" /><path
     style="fill:none;stroke:#E1C7E2;stroke-miterlimit:10;"
     d="M7.3-84.9"
     id="path5" /><path
     style="fill:none;stroke:#E1C7E2;stroke-miterlimit:10;"
     d="M7.5-84.9"
     id="path7" /><g
     id="g9"><path
       style="fill:#783189;"
       d="M36.7,21c0-1.9-0.7-3.4-1.8-4.6c0.2-0.4,0.8-2.2-0.2-4.5c0,0-1.4-0.5-4.7,1.7   c-1.4-0.4-2.8-0.6-4.3-0.6c-1.4,0-2.9,0.2-4.3,0.6c-3.3-2.2-4.7-1.7-4.7-1.7c-0.9,2.3-0.3,4.1-0.2,4.5C15.7,17.7,15,19.2,15,21   c0,6,3.3,7.7,6.8,8.3c0.2,0,0.3,0.1,0.5,0.1c-0.3,0.4-0.5,0.9-0.6,1.6c-0.9,0.4-3.1,1.1-4.4-1.3c0,0-0.8-1.5-2.3-1.6   c0,0-1.5,0-0.1,0.9c0,0,1,0.5,1.7,2.2c0,0,0.8,2.7,4.5,2.1c0.2,0,0.4-0.1,0.6-0.1c0,0,0,0,0,0c0,1.2,0,2.2,0,2.5   c0,0.2-0.1,1.3-0.2,2.2c0,0,0,0.1-0.1,0.1c-0.3,0.3-0.9,0.5-1,0.7c-0.1,0.2,0,0.4,0.2,0.5c0.1,0,0.2,0,0.4,0c0.3,0,0.8,0,1.4-0.3   c0.9-0.4,1.2-1.1,1.2-1.8c0-0.7,0-4.1,0-4.1s0-0.6,0.2-1.1c0.1-0.3,0.3-0.5,0.3-0.5c0,0,0,0,0,0v7.3c0,0,0,0.4-0.1,0.6   c-0.1,0.1-0.2,0.2-0.3,0.3c-0.1,0.1-0.3,0.3-0.3,0.4c0,0.3,0.3,0.5,0.8,0.4c0.4-0.1,1-0.3,1.4-0.8c0.1-0.1,0.1-0.1,0.1-0.2   c0.4-0.6,0.4-0.9,0.4-1.4c0-0.2,0-7.1,0-7.1s0-0.3,0.3-0.3c0.2,0,0.3,0.3,0.3,0.3s0,6.9,0,7.2c0,0.2,0,0.7,0.4,1.3   c0,0,0.1,0.1,0.1,0.1c0.4,0.5,1,0.7,1.4,0.8c0.5,0.1,0.8-0.1,0.7-0.4c0-0.3-0.3-0.4-0.5-0.6c-0.1-0.1-0.1-0.1-0.2-0.2   c-0.1-0.2-0.1-0.7-0.1-0.7v-7.1c0,0,0,0,0,0c0,0,0.2,0.1,0.3,0.5c0.2,0.5,0.2,1.1,0.2,1.1s0,3.4,0,4.1c0,0.6,0.2,1.1,0.7,1.5   c0.1,0.1,0.3,0.2,0.5,0.3c0.9,0.4,1.5,0.3,1.7,0.2c0.2,0,0.3-0.3,0.2-0.5c-0.1-0.2-0.6-0.3-1-0.9c-0.3-0.3-0.3-1.1-0.3-1.1   s0-4.3,0-4.8c0-0.7-0.4-1.7-0.4-1.7s-0.3-0.5-0.6-0.9c0-0.1-0.1-0.1-0.1-0.1C33.2,28.9,36.7,27.2,36.7,21z"
       id="path11" /></g></svg>