<?xml version="1.0" encoding="UTF-8" standalone="no"?>

<svg
   xmlns:dc="http://purl.org/dc/elements/1.1/"
   xmlns:cc="http://creativecommons.org/ns#"
   xmlns:rdf="http://www.w3.org/1999/02/22-rdf-syntax-ns#"
   xmlns:svg="http://www.w3.org/2000/svg"
   xmlns="http://www.w3.org/2000/svg"
   xmlns:xlink="http://www.w3.org/1999/xlink"
   xmlns:sodipodi="http://sodipodi.sourceforge.net/DTD/sodipodi-0.dtd"
   xmlns:inkscape="http://www.inkscape.org/namespaces/inkscape"
   version="1.1"
   id="Layer_1"
   x="0px"
   y="0px"
   viewBox="0 0 22.9 21.6"
   enable-background="new 0 0 22.9 21.6"
   xml:space="preserve"
   inkscape:version="0.48.5 r10040"
   width="100%"
   height="100%"
   sodipodi:docname="gp_profile.svg"><metadata
     id="metadata22"><rdf:RDF><cc:Work
         rdf:about=""><dc:format>image/svg+xml</dc:format><dc:type
           rdf:resource="http://purl.org/dc/dcmitype/StillImage" /></cc:Work></rdf:RDF></metadata><defs
     id="defs20"></defs><sodipodi:namedview
     pagecolor="#ffffff"
     bordercolor="#666666"
     borderopacity="1"
     objecttolerance="10"
     gridtolerance="10"
     guidetolerance="10"
     inkscape:pageopacity="0"
     inkscape:pageshadow="2"
     inkscape:window-width="640"
     inkscape:window-height="480"
     id="namedview18"
     showgrid="false"
     inkscape:zoom="10.925926"
     inkscape:cx="11.45"
     inkscape:cy="10.8"
     inkscape:window-x="0"
     inkscape:window-y="27"
     inkscape:window-maximized="0"
     inkscape:current-layer="Layer_1" /><g
     id="g11"><path
       id="Google_13_"
       d="m 14.5,4.6 h -3.4 c -0.9,0 -2,0.1 -2.9,0.9 -0.7,0.6 -1,1.4 -1,2.2 0,1.3 1,2.6 2.7,2.6 0.2,0 0.3,0 0.5,0 -0.1,0.2 -0.2,0.4 -0.2,0.6 0,0.5 0.3,0.8 0.5,1.1 -0.7,0 -2.1,0.1 -3.1,0.8 -1,0.6 -1.3,1.4 -1.3,2 0,1.2 1.1,2.3 3.5,2.3 2.8,0 4.3,-1.6 4.3,-3.1 0,-1.1 -0.7,-1.7 -1.4,-2.3 l -0.6,-0.5 c -0.2,-0.1 -0.4,-0.3 -0.4,-0.7 0,-0.4 0.2,-0.6 0.5,-0.8 0.7,-0.5 1.4,-1.1 1.4,-2.3 0,-1.2 -0.8,-1.9 -1.2,-2.2 h 1 l 1.1,-0.6 z m -1.4,10 c 0,1 -1.1,1.7 -2.6,1.7 -1.8,0 -2.6,-0.7 -2.6,-1.9 0,-1.2 1,-1.6 1.4,-1.7 0.7,-0.2 1.6,-0.3 1.7,-0.3 0.2,0 0.2,0 0.4,0 1.1,1 1.7,1.4 1.7,2.2 z M 11.7,9.4 C 11.4,9.7 11,9.9 10.6,9.9 9.2,9.9 8.6,8.1 8.6,7 8.6,6.6 8.7,6.1 9,5.8 9.3,5.5 9.7,5.3 10.1,5.3 c 1.4,0 2.1,1.8 2.1,3 0,0.2 -0.1,0.7 -0.5,1.1 z"
       inkscape:connector-curvature="0"
       style="fill:#764e7f" /><rect
       x="16.4"
       y="8.6999998"
       width="0.69999999"
       height="3.5999999"
       id="rect14"
       style="fill:#764e7f" /><rect
       x="15"
       y="10.1"
       width="3.5999999"
       height="0.69999999"
       id="rect16"
       style="fill:#764e7f" /></g>
</svg>
