<?xml version="1.0" encoding="utf-8"?>
<!-- Generator: Adobe Illustrator 19.1.1, SVG Export Plug-In . SVG Version: 6.00 Build 0)  -->
<svg version="1.1" xmlns="http://www.w3.org/2000/svg" xmlns:xlink="http://www.w3.org/1999/xlink" x="0px" y="0px"
	 viewBox="-1542 19.5 2062 443.5" style="enable-background:new -1542 19.5 2062 443.5;" xml:space="preserve">
<style type="text/css">
	.st0{fill:#6D61C6;}
	.st1{opacity:0.6;fill:#5A4EAD;enable-background:new    ;}
	.st2{fill:#5A4EAD;}
	.st3{opacity:0.6;clip-path:url(#SVGID_2_);fill:#5A4EAD;enable-background:new    ;}
	.st4{fill:#A49EE8;}
</style>
<g id="Layer_2">
</g>
<g id="Layer_1">
	<path class="st0" d="M151.5,115.8h37.1v9.3l-28.9,10.1C159.7,135.1,149.3,132.8,151.5,115.8z"/>
	<path class="st1" d="M382.6,101.6c0,0,30.9,1.3,43.7-3.9s47.2-3.9,47.2-3.9s8.2,37.9,9.3,71.8c1.2,34,13.4,76.2,19.8,88.4
		c6.4,12.2,8.2,15.7,8.2,15.7s-17.5,1.7-35.6,12.2c-18.1,10.4-76.4,13.5-77.8,10.4C396,289.3,373.9,155.1,382.6,101.6z"/>
	<path class="st2" d="M225.8,156.4c-12.2-21.6-21.9-30.9-21.9-30.9l10.1-5.2c0,0,48.1-3.4,80.1-15.4c32.1-12,70.5-28.4,89.3-32
		c18.8-3.6,26.6,0,26.6,0s4.8,60.8,15.6,94.3c15.7,48.9,24.7,77.8,24.7,77.8l2.7,10.2c0,0-1.8-8-23.4-2.7
		c-21.5,5.3-130.1,74.7-173.6,61.3c-43.5-13.3-30.3-8.1-30.3-8.1S264.4,224.4,225.8,156.4z"/>
	<path class="st2" d="M449.2,244.3c0,0,9.5,8.9-20.6,29s-30.1,20.1-30.1,20.1s42.7-20.3,52.9-35.6
		C454.4,253.4,451.9,250.4,449.2,244.3z"/>
	<path class="st0" d="M186.3,348.5l22.1-25.3l2.5,21.4C210.9,344.5,209.9,361.1,186.3,348.5z"/>
	<g>
		<g>
			<defs>
				<rect id="SVGID_1_" x="149.6" y="72.8" width="139" height="390"/>
			</defs>
			<clipPath id="SVGID_2_">
				<use xlink:href="#SVGID_1_"  style="overflow:visible;"/>
			</clipPath>
			<path class="st3" d="M196.8,60.5L254.6,606l-18,3L180.9,68C180.9,68.1,180.9,59.9,196.8,60.5z"/>
		</g>
	</g>
	<path class="st0" d="M200.1,305.3c0,0,1.7,14,4,16s27.2,4,30.9,3.6c3.6-0.4,8.3-17.7,8.3-17.7S204.5,299.5,200.1,305.3z"/>
	<path class="st0" d="M185.2,125.6l19.2-19.7c0,0,8.2,0.9,13.7,5.5c5.5,4.6,6,7.2,6,7.2l-36.6,23.5
		C187.5,142.1,182.9,136.6,185.2,125.6z"/>
	<circle class="st4" cx="323.2" cy="61.1" r="2.5"/>
	<circle class="st4" cx="169.9" cy="48.3" r="5"/>
	<circle class="st4" cx="280.8" cy="40.6" r="2.7"/>
	<circle class="st4" cx="433.4" cy="340.8" r="2.7"/>
	<circle class="st4" cx="367.1" cy="373.2" r="2.7"/>
	<circle class="st4" cx="175.4" cy="400.5" r="2.7"/>
	<circle class="st4" cx="124.7" cy="27.8" r="2.7"/>
	<circle class="st4" cx="62.4" cy="35.6" r="2.7"/>
	<circle class="st4" cx="452.8" cy="311.7" r="5"/>
	<circle class="st4" cx="404.7" cy="332.5" r="2.7"/>
	<circle class="st4" cx="438.7" cy="71.3" r="2.7"/>
	<circle class="st4" cx="383.2" cy="45.7" r="2.7"/>
	<circle class="st4" cx="-70.1" cy="91" r="2.7"/>
	<circle class="st4" cx="-258" cy="45.7" r="2.7"/>
	<circle class="st4" cx="-328" cy="48.3" r="2.7"/>
	<circle class="st4" cx="-1388" cy="215.8" r="2.7"/>
	<circle class="st4" cx="-702.7" cy="73.9" r="2.7"/>
	<circle class="st4" cx="-1228" cy="115.8" r="2.7"/>
	<circle class="st4" cx="-764.7" cy="365.2" r="2.7"/>
	<circle class="st4" cx="-705.4" cy="316.6" r="2.7"/>
	<circle class="st4" cx="-1036" cy="167.8" r="2.7"/>
	<circle class="st4" cx="-1530" cy="382.2" r="2.7"/>
</g>
</svg>
