<?xml version="1.0" encoding="utf-8"?>
<!-- Generator: Adobe Illustrator 19.1.1, SVG Export Plug-In . SVG Version: 6.00 Build 0)  -->
<svg version="1.1" id="Layer_1" xmlns="http://www.w3.org/2000/svg" xmlns:xlink="http://www.w3.org/1999/xlink" x="0px" y="0px"
	 viewBox="1524 163.6 859.1 299.4" style="enable-background:new 1524 163.6 859.1 299.4;" xml:space="preserve">
<style type="text/css">
	.st0{opacity:0.6;}
	.st1{filter:url(#Adobe_OpacityMaskFilter);}
	.st2{clip-path:url(#SVGID_2_);fill:url(#SVGID_4_);}
	.st3{clip-path:url(#SVGID_2_);mask:url(#SVGID_3_);}
	.st4{fill:#826FBF;}
</style>
<g class="st0">
	<defs>
		<rect id="SVGID_1_" x="1524" y="145.5" class="st0" width="859.1" height="318"/>
	</defs>
	<clipPath id="SVGID_2_">
		<use xlink:href="#SVGID_1_"  style="overflow:visible;"/>
	</clipPath>
	<defs>
		<filter id="Adobe_OpacityMaskFilter" filterUnits="userSpaceOnUse" x="1678.5" y="167.5" width="656.5" height="677">
			<feColorMatrix  type="matrix" values="1 0 0 0 0  0 1 0 0 0  0 0 1 0 0  0 0 0 1 0"/>
		</filter>
	</defs>
	<mask maskUnits="userSpaceOnUse" x="1678.5" y="167.5" width="656.5" height="677" id="SVGID_3_">
		<g class="st1">
			
				<linearGradient id="SVGID_4_" gradientUnits="userSpaceOnUse" x1="5342.3545" y1="5583.8135" x2="6081.8506" y2="4844.3179" gradientTransform="matrix(-1 0 0 -1 7711.4448 5710.3335)">
				<stop  offset="0" style="stop-color:#000000"/>
				<stop  offset="2.729893e-003" style="stop-color:#010101"/>
				<stop  offset="0.124" style="stop-color:#3C3C3C"/>
				<stop  offset="0.2478" style="stop-color:#707070"/>
				<stop  offset="0.3721" style="stop-color:#9C9C9C"/>
				<stop  offset="0.4965" style="stop-color:#C0C0C0"/>
				<stop  offset="0.6212" style="stop-color:#DBDBDB"/>
				<stop  offset="0.7463" style="stop-color:#EFEFEF"/>
				<stop  offset="0.8721" style="stop-color:#FBFBFB"/>
				<stop  offset="1" style="stop-color:#FFFFFF"/>
			</linearGradient>
			<rect x="1645.4" y="110.7" class="st2" width="707.9" height="771.1"/>
		</g>
	</mask>
	<g class="st3">
		<polygon class="st4" points="1805.2,471.3 1805.2,496.3 1830.3,496.3 1832.8,496.3 1857.9,496.3 1857.9,496.3 1883,496.3 
			1908.1,496.3 1908.1,468.8 1908.1,443.7 1883,443.7 1883,418.6 1857.9,418.6 1857.9,393.5 1832.8,393.5 1830.3,393.5 
			1805.2,393.5 1805.2,418.6 1805.2,421.1 1805.2,446.2 1805.2,446.2 		"/>
		<rect x="1999.3" y="239.4" class="st4" width="27.6" height="27.6"/>
		<polygon class="st4" points="1890.2,435 1917.8,435 1917.8,407.4 1890.4,407.4 1890.4,380 1862.8,380 1862.8,407.6 1890.2,407.6 
					"/>
		<polygon class="st4" points="1939,410.2 1939,412.7 1939,435.3 1939,437.8 1939,462.9 1964,462.9 1966.6,462.9 1989.1,462.9 
			1991.6,462.9 2016.7,462.9 2016.7,462.9 2041.8,462.9 2041.8,435.3 2016.7,435.3 2016.7,410.2 1991.6,410.2 1991.6,385.1 
			1966.6,385.1 1966.6,360 1939,360 1939,387.6 		"/>
		<rect x="1976.2" y="336.7" class="st4" width="27.6" height="27.6"/>
		<rect x="2116.9" y="186.9" class="st4" width="27.6" height="27.6"/>
		<rect x="2005.8" y="366.9" class="st4" width="27.6" height="27.6"/>
		<polygon class="st4" points="2260.3,214.8 2260.3,187.2 2245.5,187.2 2245.5,167.5 2217.9,167.5 2217.9,195.1 2232.7,195.1 
			2232.7,214.8 		"/>
		<rect x="2169.1" y="244.3" class="st4" width="27.6" height="27.6"/>
		<rect x="2034.5" y="395.9" class="st4" width="27.6" height="27.6"/>
		<polygon class="st4" points="1912.2,525.5 1912.2,528 1912.2,550.6 1912.2,553.1 1912.2,578.2 1912.2,578.2 1912.2,603.3 
			1937.3,603.3 1939.8,603.3 1962.3,603.3 1964.8,603.3 1987.4,603.3 1989.9,603.3 2015,603.3 2015,578.2 2015,575.7 2015,550.6 
			1989.9,550.6 1989.9,525.5 1964.8,525.5 1964.8,500.5 1937.3,500.5 1912.2,500.5 		"/>
		<polygon class="st4" points="1971.6,488.8 1971.6,516.4 1999.1,516.4 1999.1,543.9 2026.7,543.9 2026.7,516.3 1999.2,516.3 
			1999.2,488.8 		"/>
		<rect x="2188.1" y="314.3" class="st4" width="27.6" height="27.6"/>
		<polygon class="st4" points="2157.1,383.4 2151,383.4 2151,365.6 2132,365.6 2132,358.3 2107,358.3 2107,333.2 2079.4,333.2 
			2079.4,358.3 2079.4,358.3 2079.4,385.9 2079.4,408.5 2079.4,411 2079.4,436.1 2107,436.1 2107,436.1 2129.5,436.1 2129.5,436.1 
			2157.1,436.1 2182.2,436.1 2182.2,408.5 2157.1,408.5 		"/>
		<rect x="2093.1" y="453.3" class="st4" width="27.6" height="27.6"/>
		<rect x="2253.1" y="314.5" class="st4" width="27.6" height="27.6"/>
		<rect x="2120.9" y="482.2" class="st4" width="27.6" height="27.6"/>
		<polygon class="st4" points="2335,268.3 2307.4,268.3 2307.4,279 2304.7,279 2304.7,306.6 2332.3,306.6 2332.3,295.9 2335,295.9 
					"/>
		<rect x="2267.1" y="374.5" class="st4" width="27.6" height="27.6"/>
		<rect x="2151.7" y="511.8" class="st4" width="27.6" height="27.6"/>
		<polygon class="st4" points="2130.3,548.9 2130.3,523.8 2105.3,523.8 2105.3,498.7 2080.2,498.7 2080.2,473.7 2052.6,473.7 
			2052.6,501.2 2052.6,523.8 2052.6,526.3 2052.6,548.9 2052.6,551.4 2052.6,576.5 2077.7,576.5 2080.2,576.5 2102.8,576.5 
			2105.3,576.5 2127.8,576.5 2130.3,576.5 2155.4,576.5 2155.4,548.9 		"/>
		<rect x="2080.4" y="597.6" class="st4" width="27.6" height="27.6"/>
		<rect x="2251.3" y="489.9" class="st4" width="27.6" height="27.6"/>
		<rect x="2108.1" y="625.2" class="st4" width="27.6" height="27.6"/>
		<polygon class="st4" points="2121.9,657.5 2096.8,657.5 2096.8,632.5 2071.8,632.5 2071.8,607.4 2044.2,607.4 2019.1,607.4 
			2019.1,635 2019.1,657.5 2019.1,660 2019.1,682.6 2019.1,685.1 2019.1,710.2 2046.7,710.2 2069.3,710.2 2071.8,710.2 
			2094.4,710.2 2096.9,710.2 2121.9,710.2 2121.9,682.6 2121.9,682.6 		"/>
		<polygon class="st4" points="1989.5,734.1 1989.5,633.8 1889.2,633.8 1889.2,533.5 1788.9,533.5 1788.9,433.2 1678.5,433.2 
			1678.5,543.5 1678.5,543.5 1678.5,643.8 1678.5,643.8 1678.5,734.1 1678.5,734.1 1678.5,844.5 1788.9,844.5 1788.9,844.5 
			1889.2,844.5 1889.2,844.5 1988.9,844.5 1988.9,844.5 2099.3,844.5 2099.3,734.1 		"/>
	</g>
</g>
</svg>
