<?xml version="1.0" encoding="utf-8"?>
<!-- Generator: Adobe Illustrator 19.1.1, SVG Export Plug-In . SVG Version: 6.00 Build 0)  -->
<svg version="1.1" id="Layer_1" xmlns="http://www.w3.org/2000/svg" xmlns:xlink="http://www.w3.org/1999/xlink" x="0px" y="0px"
	 viewBox="0 0 300 250" style="enable-background:new 0 0 300 250;" xml:space="preserve">
<style type="text/css">
	.st0{fill:#B3BCE0;}
	.st1{fill:#FFFFFF;}
	.st2{fill:#6585B7;}
	.st3{fill:#324F83;}
</style>
<rect x="23.5" y="20.5" class="st0" width="239" height="166"/>
<g>
	<path class="st1" d="M61.1,86.3h8.7l4.4,19.1c0.7,3.5,1.3,7,1.9,10.6h0.3c0.7-3.6,1.4-7.1,2.3-10.6l4.8-19.1h7.9l4.9,19.1
		c0.9,3.5,1.6,7,2.5,10.6h0.3c0.7-3.6,1.3-7,1.9-10.6l4.4-19.1h8.1l-9.4,36.7H93.9l-4.3-17.1c-0.8-3.4-1.4-6.8-2.2-10.7h-0.3
		c-0.7,3.9-1.3,7.3-2.2,10.8L80.7,123h-9.9L61.1,86.3z"/>
	<path class="st1" d="M135.4,85.4c9.2,0,17.5,7,17.5,19.3c0,12.2-8.3,19.2-17.5,19.2c-9.1,0-17.4-7-17.4-19.2
		C117.9,92.4,126.2,85.4,135.4,85.4z M135.4,116.9c5.4,0,8.7-4.9,8.7-12.2c0-7.4-3.3-12.3-8.7-12.3c-5.4,0-8.6,4.9-8.6,12.3
		C126.7,112,130,116.9,135.4,116.9z"/>
	<path class="st1" d="M157.3,86.3h8.7l4.4,19.1c0.7,3.5,1.3,7,1.9,10.6h0.3c0.7-3.6,1.4-7.1,2.3-10.6l4.8-19.1h7.9l4.9,19.1
		c0.9,3.5,1.6,7,2.5,10.6h0.3c0.7-3.6,1.3-7,1.9-10.6l4.4-19.1h8.1l-9.4,36.7h-10.3l-4.3-17.1c-0.8-3.4-1.4-6.8-2.2-10.7h-0.3
		c-0.7,3.9-1.3,7.3-2.2,10.8l-4.2,17.1H167L157.3,86.3z"/>
	<path class="st1" d="M223.3,112.2c3.1,0,5.5,2.5,5.5,5.8s-2.4,5.8-5.5,5.8s-5.6-2.5-5.6-5.8S220.1,112.2,223.3,112.2z M219.2,81.4
		l-0.2-8.5h8.7l-0.3,8.5l-1.2,25.5h-5.8L219.2,81.4z"/>
</g>
<circle class="st2" cx="188.4" cy="123.6" r="26.6"/>
<g>
	<path class="st2" d="M222.5,163.1c0-7.1-4.2-12.6-10.6-12.6h-44.4c-6.4,0-12,5.5-12,12.6v69.4h67V163.1z"/>
</g>
<path class="st3" d="M278.5,225.9c0,0.9-0.7,1.6-1.6,1.6h-65.8c-0.9,0-1.6-0.7-1.6-1.6v-44.8c0-0.9,0.7-1.6,1.6-1.6h65.8
	c0.9,0,1.6,0.7,1.6,1.6V225.9z"/>
</svg>
