<?xml version="1.0" encoding="utf-8"?>
<!-- Generator: Adobe Illustrator 21.0.0, SVG Export Plug-In . SVG Version: 6.00 Build 0)  -->
<svg version="1.1" id="Layer_1" xmlns="http://www.w3.org/2000/svg" xmlns:xlink="http://www.w3.org/1999/xlink" x="0px" y="0px"
	 viewBox="0 0 300 250" style="enable-background:new 0 0 300 250;" xml:space="preserve">
<style type="text/css">
	.st0{fill:#6585B7;}
	.st1{opacity:0.6;fill:#A8B6DD;enable-background:new    ;}
	.st2{fill:#EDF2F9;}
	.st3{fill:#B3BCE0;}
	.st4{fill:#324F83;}
	.st5{opacity:0.6;fill:#6585B7;}
	.st6{fill:#4C4277;}
	.st7{fill:#93B3DB;}
	.st8{clip-path:url(#SVGID_3_);fill:#93B3DB;}
</style>
<ellipse class="st0" cx="254.9" cy="76.5" rx="28.4" ry="29.6"/>
<path class="st0" d="M214,145.1c0-15.3,7.7-39.8,28.2-39.8h24.7c20.7,0,28.1,24.6,28.1,40.3v0.5h-81V145.1"/>
<polyline class="st1" points="270.6,140.1 248.5,140.1 248.5,146.1 270.6,146.1 270.6,140.1 "/>
<g>
	<path class="st2" d="M269,83.5c-1.6,4.5-7.2,7.9-14.2,7.9c-6.9,0-12.6-3.4-14.2-7.9c-0.6,1.2-0.8,2.3-0.8,3.6
		c0,5.9,6.6,10.8,15,10.8c8.3,0,15-4.8,15-10.8C269.9,85.8,269.6,84.7,269,83.5z"/>
</g>
<ellipse class="st0" cx="254.5" cy="83.9" rx="16.5" ry="7.5"/>
<g>
	<polygon class="st3" points="248.5,94.8 237.3,94.8 176,94.8 176,146.1 248.4,146.1 248.4,105.9 	"/>
</g>
<path class="st4" d="M157.3,222.4c0-29.2-14.4-76.3-53.4-76.3H57.2c-39.5,0-53.7,47.4-53.7,77.3v0.6h153.7v-1.8"/>
<polyline class="st5" points="92.6,212.4 50.2,212.4 50.2,223.7 92.6,223.7 92.6,212.4 "/>
<polyline class="st6" points="146.1,212.4 92.6,212.4 92.6,223.7 146.1,223.7 146.1,212.4 "/>
<ellipse class="st4" cx="80.5" cy="91.4" rx="54.1" ry="56.3"/>
<g>
	<path class="st2" d="M108.4,104.7c-3.1,8.5-13.8,15-27,15s-23.9-6.5-27-15c-1.2,2.2-1.5,4.4-1.5,6.9c0,11.1,12.6,20.5,28.6,20.5
		s28.6-9.1,28.6-20.5C110.2,109.1,109.6,106.9,108.4,104.7z"/>
</g>
<ellipse class="st4" cx="80.8" cy="105.5" rx="31.4" ry="14.2"/>
<g>
	<polygon class="st0" points="230.7,126.2 209.5,126.2 92.6,126.2 92.6,224 230.6,224 230.6,147.5 	"/>
</g>
<g>
	<rect x="152.6" y="153.1" class="st7" width="2.4" height="2.4"/>
	<rect x="152.6" y="155.2" class="st7" width="2.4" height="2.4"/>
	<rect x="152.6" y="157.4" class="st7" width="2.4" height="2.4"/>
	<rect x="152.6" y="159.5" class="st7" width="2.4" height="2.4"/>
	<rect x="154.6" y="153.1" class="st7" width="2.4" height="2.4"/>
	<rect x="154.6" y="155.2" class="st7" width="2.4" height="2.4"/>
	<rect x="154.6" y="157.4" class="st7" width="2.4" height="2.4"/>
	<rect x="154.6" y="159.5" class="st7" width="2.4" height="2.4"/>
	<rect x="157.5" y="151.9" class="st7" width="2.4" height="2.4"/>
	<rect x="156.9" y="155.2" class="st7" width="2.4" height="2.4"/>
	<rect x="156.9" y="157.4" class="st7" width="2.4" height="2.4"/>
	<rect x="156.9" y="159.5" class="st7" width="2.4" height="2.4"/>
	<rect x="169.4" y="139.5" class="st7" width="2.4" height="2.4"/>
	<rect x="159.9" y="154.3" class="st7" width="2.4" height="2.4"/>
	<rect x="159" y="157.4" class="st7" width="2.4" height="2.4"/>
	<rect x="159" y="159.5" class="st7" width="2.4" height="2.4"/>
	<rect x="164.2" y="150.1" class="st7" width="2.4" height="2.4"/>
	<rect x="164.2" y="152.4" class="st7" width="2.4" height="2.4"/>
	<rect x="164.2" y="154.5" class="st7" width="2.4" height="2.4"/>
	<rect x="164.2" y="156.7" class="st7" width="2.4" height="2.4"/>
	<rect x="167.5" y="148" class="st7" width="2.4" height="2.4"/>
	<rect x="166.3" y="152.4" class="st7" width="2.4" height="2.4"/>
	<rect x="166.3" y="154.5" class="st7" width="2.4" height="2.4"/>
	<rect x="166.3" y="156.7" class="st7" width="2.4" height="2.4"/>
	<rect x="179.7" y="135" class="st7" width="2.4" height="2.4"/>
	<rect x="170" y="150.7" class="st7" width="2.4" height="2.4"/>
	<rect x="168.5" y="154.5" class="st7" width="2.4" height="2.4"/>
	<rect x="168.5" y="156.7" class="st7" width="2.4" height="2.4"/>
	<rect x="189.9" y="135" class="st7" width="2.4" height="2.4"/>
	<rect x="184.4" y="140" class="st7" width="2.4" height="2.4"/>
	<rect x="172.6" y="153.4" class="st7" width="2.4" height="2.4"/>
	<rect x="170.6" y="156.7" class="st7" width="2.4" height="2.4"/>
	<rect x="162" y="162.4" class="st7" width="2.4" height="2.4"/>
	<rect x="162" y="164.6" class="st7" width="2.4" height="2.4"/>
	<rect x="162" y="166.9" class="st7" width="2.4" height="2.4"/>
	<rect x="162" y="168.9" class="st7" width="2.4" height="2.4"/>
	<rect x="163.9" y="162.4" class="st7" width="2.4" height="2.4"/>
	<rect x="163.9" y="164.6" class="st7" width="2.4" height="2.4"/>
	<rect x="163.9" y="166.9" class="st7" width="2.4" height="2.4"/>
	<rect x="163.9" y="168.9" class="st7" width="2.4" height="2.4"/>
	<rect x="167" y="161.5" class="st7" width="2.4" height="2.4"/>
	<rect x="166.1" y="164.6" class="st7" width="2.4" height="2.4"/>
	<rect x="166.1" y="166.9" class="st7" width="2.4" height="2.4"/>
	<rect x="166.1" y="168.9" class="st7" width="2.4" height="2.4"/>
	<rect x="180.3" y="150.6" class="st7" width="2.4" height="2.4"/>
	<rect x="169.4" y="163.9" class="st7" width="2.4" height="2.4"/>
	<rect x="168.4" y="166.9" class="st7" width="2.4" height="2.4"/>
	<rect x="168.4" y="168.9" class="st7" width="2.4" height="2.4"/>
	<rect x="176.5" y="147.9" class="st7" width="2.4" height="2.4"/>
	<rect x="176.5" y="150" class="st7" width="2.4" height="2.4"/>
	<rect x="176.5" y="152.2" class="st7" width="2.4" height="2.4"/>
	<rect x="176.5" y="154.3" class="st7" width="2.4" height="2.4"/>
	<rect x="188.4" y="133.3" class="st7" width="2.4" height="2.4"/>
	<rect x="178.7" y="150" class="st7" width="2.4" height="2.4"/>
	<rect x="178.7" y="152.2" class="st7" width="2.4" height="2.4"/>
	<rect x="178.7" y="154.3" class="st7" width="2.4" height="2.4"/>
	<rect x="186.6" y="145.9" class="st7" width="2.4" height="2.4"/>
	<g>
		<g>
			<g>
				<g>
					<polyline id="SVGID_1_" class="st7" points="186.6,148.3 189,148.3 189,145.9 186.6,145.9 186.6,148.3 					"/>
				</g>
				<g>
					<g>
						<defs>
							<polyline id="SVGID_2_" points="186.6,148.3 189,148.3 189,145.9 186.6,145.9 186.6,148.3 							"/>
						</defs>
						<use xlink:href="#SVGID_2_"  style="overflow:visible;fill:#93B3DB;"/>
						<clipPath id="SVGID_3_">
							<use xlink:href="#SVGID_2_"  style="overflow:visible;"/>
						</clipPath>
						<rect x="186.6" y="145.9" class="st8" width="2.4" height="2.4"/>
					</g>
				</g>
			</g>
		</g>
	</g>
	<rect x="180.8" y="152.2" class="st7" width="2.4" height="2.4"/>
	<rect x="180.8" y="154.3" class="st7" width="2.4" height="2.4"/>
	<rect x="196" y="143" class="st7" width="2.4" height="2.4"/>
	<rect x="183" y="154.3" class="st7" width="2.4" height="2.4"/>
	<rect x="174.1" y="160" class="st7" width="2.4" height="2.4"/>
	<rect x="174.1" y="162.2" class="st7" width="2.4" height="2.4"/>
	<rect x="174.1" y="164.5" class="st7" width="2.4" height="2.4"/>
	<rect x="174.1" y="166.7" class="st7" width="2.4" height="2.4"/>
	<rect x="177.6" y="158.3" class="st7" width="2.4" height="2.4"/>
	<rect x="176.2" y="162.2" class="st7" width="2.4" height="2.4"/>
	<rect x="176.2" y="164.5" class="st7" width="2.4" height="2.4"/>
	<rect x="176.2" y="166.7" class="st7" width="2.4" height="2.4"/>
	<rect x="191.7" y="146.2" class="st7" width="2.4" height="2.4"/>
	<rect x="180" y="160.9" class="st7" width="2.4" height="2.4"/>
	<rect x="178.5" y="164.5" class="st7" width="2.4" height="2.4"/>
	<rect x="178.5" y="166.7" class="st7" width="2.4" height="2.4"/>
	<rect x="196.3" y="142.2" class="st7" width="2.4" height="2.4"/>
	<rect x="192.9" y="151.5" class="st7" width="2.4" height="2.4"/>
	<rect x="182.7" y="163.4" class="st7" width="2.4" height="2.4"/>
	<rect x="180.6" y="166.7" class="st7" width="2.4" height="2.4"/>
	<rect x="171.1" y="171.8" class="st7" width="2.4" height="2.4"/>
	<rect x="171.1" y="173.9" class="st7" width="2.4" height="2.4"/>
	<rect x="171.1" y="176.1" class="st7" width="2.4" height="2.4"/>
	<rect x="171.1" y="178.5" class="st7" width="2.4" height="2.4"/>
	<rect x="173.3" y="171.8" class="st7" width="2.4" height="2.4"/>
	<rect x="173.3" y="173.9" class="st7" width="2.4" height="2.4"/>
	<rect x="173.3" y="176.1" class="st7" width="2.4" height="2.4"/>
	<rect x="173.3" y="178.5" class="st7" width="2.4" height="2.4"/>
	<rect x="176.6" y="170.9" class="st7" width="2.4" height="2.4"/>
	<rect x="175.6" y="173.9" class="st7" width="2.4" height="2.4"/>
	<rect x="175.6" y="176.1" class="st7" width="2.4" height="2.4"/>
	<rect x="175.6" y="178.5" class="st7" width="2.4" height="2.4"/>
	<rect x="191.5" y="161.6" class="st7" width="2.4" height="2.4"/>
	<rect x="179" y="173.3" class="st7" width="2.4" height="2.4"/>
	<rect x="177.8" y="176.1" class="st7" width="2.4" height="2.4"/>
	<rect x="177.8" y="178.5" class="st7" width="2.4" height="2.4"/>
	<polygon class="st7" points="169.3,183.6 169.3,173.6 159.4,173.6 159.4,165.2 151.1,165.2 151.1,157 141.2,157 141.2,165.2 
		141.2,166.9 141.2,173.6 141.2,175.1 141.2,183.6 141.2,184.4 141.2,191.8 149.6,191.8 151.1,191.8 159.4,191.8 168.4,191.8 
		169.3,191.8 179.3,191.8 179.3,183.6 	"/>
</g>
</svg>
