<?xml version="1.0" encoding="utf-8"?>
<!-- Generator: Adobe Illustrator 19.1.1, SVG Export Plug-In . SVG Version: 6.00 Build 0)  -->
<svg version="1.1" id="Layer_1" xmlns="http://www.w3.org/2000/svg" xmlns:xlink="http://www.w3.org/1999/xlink" x="0px" y="0px"
	 viewBox="0 0 300 250" style="enable-background:new 0 0 300 250;" xml:space="preserve">
<style type="text/css">
	.st0{fill:#324F83;}
	.st1{fill:#BBBBEA;}
	.st2{fill:#6585B7;}
	.st3{fill:#B3BCE0;}
</style>
<rect x="197.3" y="48" transform="matrix(0.8964 0.4433 -0.4433 0.8964 77.6201 -84.5341)" class="st0" width="44.6" height="151.5"/>
<polygon class="st0" points="174.2,215.7 166.7,180.6 206.6,200.3 "/>
<g>
	<path class="st1" d="M127.7,216.7c0,0-0.3,0-0.8,0.1c-3.6,0.3-19.4,1.6-37.9,1.6c-15.9,0-33.7-1-47.6-4.3
		c-6.9-1.6-12.8-3.9-16.9-6.8c-2-1.4-3.6-3-4.7-4.7c-1.1-1.7-1.7-3.6-1.8-5.7c0-0.1,0-0.2,0-0.3c0-1.7,0.5-3.3,1.4-5
		c1.7-3.1,5.1-6.2,9.8-9.2c8.2-5.2,20.4-10,34.2-14.3c20.7-6.5,45-12.3,65.4-17.8c10.2-2.8,19.3-5.5,26.6-8.2
		c3.6-1.4,6.8-2.8,9.4-4.2c2.6-1.4,4.6-2.9,6-4.6c0.8-1,1.4-1.9,1.8-2.9c0.4-0.9,0.6-1.9,0.6-2.8c0-1.3-0.4-2.5-1.2-3.5
		c-0.7-0.9-1.5-1.6-2.5-2.2c-1.8-1.1-4-1.9-6.5-2.5c-3.8-1-8.4-1.6-13.2-1.9c-4.8-0.4-9.8-0.5-14.5-0.5c-11,0-20.3,0.7-20.3,0.7
		c-0.8,0.1-1.4,0.8-1.4,1.6c0.1,0.8,0.8,1.4,1.6,1.4c0,0,0.1,0,0.4,0c1.9-0.1,10.1-0.7,19.7-0.7c8.1,0,17.1,0.4,24.1,1.7
		c3.4,0.6,6.4,1.5,8.3,2.6c1,0.5,1.6,1.1,2.1,1.7c0.4,0.6,0.6,1.1,0.6,1.7c0,0.5-0.1,1-0.4,1.6c-0.3,0.6-0.7,1.4-1.4,2.2
		c-0.8,1-2.1,2-3.8,3.1c-3.3,2-8.1,4.1-14,6.1c-10.3,3.6-23.9,7.2-38.5,10.9c-21.9,5.6-45.9,11.7-64.5,18.8
		c-9.3,3.6-17.3,7.4-23.1,11.6c-2.9,2.1-5.2,4.4-6.9,6.8c-1.6,2.4-2.6,5.1-2.6,7.8c0,0.1,0,0.3,0,0.5c0.1,2.6,0.9,5.1,2.2,7.2
		c2.4,3.7,6.4,6.6,11.3,8.8c7.5,3.4,17.3,5.4,27.9,6.7c10.6,1.2,22,1.6,32.5,1.6c21.3,0,39-1.7,39-1.7c0.8-0.1,1.4-0.8,1.3-1.6
		C129.2,217.2,128.5,216.6,127.7,216.7L127.7,216.7z"/>
</g>
<g>
	
		<rect x="197.3" y="48" transform="matrix(0.8964 0.4433 -0.4433 0.8964 77.6216 -84.5351)" class="st0" width="44.6" height="151.5"/>
	
		<rect x="238" y="29.8" transform="matrix(0.8964 0.4433 -0.4433 0.8964 45.4043 -111.0604)" class="st2" width="44.6" height="23.7"/>
	<polygon class="st3" points="168.3,219.9 166.1,181.7 206,201.4 	"/>
</g>
<polygon class="st2" points="167.4,203.9 182.9,212.7 168.3,219.9 "/>
</svg>
