<?xml version="1.0" encoding="utf-8"?>
<!-- Generator: Adobe Illustrator 19.1.1, SVG Export Plug-In . SVG Version: 6.00 Build 0)  -->
<svg version="1.1" id="Layer_1" xmlns="http://www.w3.org/2000/svg" xmlns:xlink="http://www.w3.org/1999/xlink" x="0px" y="0px"
	 viewBox="0 0 300 250" style="enable-background:new 0 0 300 250;" xml:space="preserve">
<style type="text/css">
	.st0{fill:#D0D9F7;}
	.st1{fill:#2E4472;}
	.st2{fill:#6085B2;}
	.st3{fill:none;stroke:#6085B2;stroke-width:5;stroke-miterlimit:10;}
</style>
<rect x="20.5" y="27.5" class="st0" width="199" height="122"/>
<rect x="28.5" y="33.5" class="st1" width="183" height="108"/>
<g>
	<g>
		<path class="st2" d="M278.7,123.4c0-9.7-3.9-17.5-9.7-24.4c1-1.9,3.9-11.7-1-24.4c0,0-7.8-1.9-25.3,9.7
			c-5.8-1.9-13.6-2.9-21.4-2.9s-15.6,1-22.4,2.9c-17.5-11.7-25.3-9.7-25.3-9.7c-4.9,12.7-1.9,21.4-1,24.4
			c-5.8,5.8-9.7,14.8-9.7,24.5c0,32.1,17.5,41,36,44c1,0,1.9,0,2.9,0c-1,2-1.9,4.7-2.9,8.6c-4.9,1.9-16.6,5.8-23.4-6.9
			c0,0-3.9-7.8-12.7-7.8c0,0-7.8,0-1,4.9c0,0,4.9,2.9,8.8,11.7c0,0,3.2,14.6,23.7,11.7c1,0,1.2,0,2.2-1l0,0c0,6.8,0,11.7,0,13.6
			c0,1,0.7,6.8-0.3,11.7l0,0c-1.9,1.9-4.5,3.3-5.5,4.3s0.3,2.3,1.3,3.3c0,0,1,0,1.9,0c1.9,0,3.7-0.4,6.6-2.3
			c4.9-1.9,6.9-7.5,6.9-11.4s0-20.7,0-20.7s0.2-3.9,1.2-5.8c2.9-1.9,1.8-1.4,2.8-1.4l0,0v39c0,0,0,1.9-1,3.9c0,0-1,1-2,1.9
			c-1,1-2,1-2,1.9c0,1.9,1,2.9,3.9,1.9c1.9,0,4.9-1.9,7.8-3.9l0.6-1c1.9-2.9,1.6-4.9,1.6-6.8c0-1,0-38,0-38s0-1,1-1s1,1,1,1
			s0,37,0,38c0,1,0,3.9,2,6.8c0,0,0,0,0,1c2,2.9,5.2,3.9,8.1,3.9c2.9,0,4.1-1,4.1-1.9c0-1-1.9-1.9-2.8-2.9l-1.2-1
			c-1-1-1.2-3.9-1.2-3.9v-39.9l0,0c0,0,1,1,2,2.9c1,2.9,1,5.8,1,5.8s0,17.5,0,21.4c0,2.9,1.2,5.8,4.1,7.8c1,1,2,1,3,1.9
			c4.9,1.9,7.8,1.9,8.8,1c1,0,2-1.9,1-2.9s-3-1.9-5.9-4.9c-1-1.9-1-5.8-1-5.8s0-23.4,0-25.3c0-3.9-1.9-8.8-1.9-8.8s-1.9-2.9-2.9-4.9
			l-1-1C260.2,164.3,278.7,155.5,278.7,123.4z"/>
	</g>
</g>
<line class="st3" x1="44.5" y1="53" x2="196.5" y2="53"/>
<line class="st3" x1="44.5" y1="71" x2="106.5" y2="71"/>
</svg>
