<?xml version="1.0" encoding="utf-8"?>
<!-- Generator: Adobe Illustrator 19.1.1, SVG Export Plug-In . SVG Version: 6.00 Build 0)  -->
<svg version="1.1" id="Layer_1" xmlns="http://www.w3.org/2000/svg" xmlns:xlink="http://www.w3.org/1999/xlink" x="0px" y="0px"
	 viewBox="0 0 300 250" style="enable-background:new 0 0 300 250;" xml:space="preserve">
<style type="text/css">
	.st0{fill:#D8D8D8;}
	.st1{fill:#E2E2E2;}
	.st2{fill:#FFFFFF;}
	.st3{opacity:0.8;fill:#F2F2F2;}
	.st4{fill:#445172;}
	.st5{fill:#B7C1E5;}
	.st6{fill:#C1C1C1;}
	.st7{fill:#DDDDDD;}
	.st8{fill:#464646;}
	.st9{fill:#A8A8A8;}
	.st10{fill:#C7D1EF;}
	.st11{filter:url(#Adobe_OpacityMaskFilter);}
	.st12{fill:url(#SVGID_2_);}
	.st13{mask:url(#SVGID_1_);}
	.st14{fill:#2E4472;}
</style>
<polyline class="st0" points="115.4,182.7 114.5,182.8 114.5,215.6 147.5,199.3 147.5,198.9 115.4,182.7 "/>
<polyline class="st0" points="178.8,215.7 147.4,199.2 115.6,215.6 147.3,232.1 178.8,215.7 "/>
<polyline class="st1" points="178.1,183 147.5,199.1 147.5,199.3 146.8,199.2 177.5,215.6 177.5,183.5 "/>
<polyline class="st1" points="146.8,199.2 147,199.3 147,232 146.6,232.1 177.5,215.7 177.5,215.6 146.8,199.2 "/>
<polyline class="st2" points="147.3,166.1 115,182.6 114.5,182.5 114.5,182.5 115.9,182.5 147.5,166.3 147.5,198.9 147.5,199 
	178.6,182.7 178.5,182.7 178.8,182.6 147.3,166.1 "/>
<polyline class="st2" points="147.5,166 116,182.6 147.5,198.9 147.5,165.5 "/>
<polyline class="st0" points="115.4,149.8 114.5,149.9 114.5,182.6 147.5,166.3 147.5,166 115.4,149.8 "/>
<polyline class="st0" points="178.8,182.7 147.4,166.3 115.6,182.6 147.3,199.1 178.8,182.7 "/>
<polyline class="st1" points="178.1,150.3 147.5,166.1 147.5,166.3 146.8,166.3 177.5,182.6 177.5,150.5 "/>
<polyline class="st1" points="146.8,166.3 147,166.3 147,199.1 146.6,199.1 177.5,182.7 177.5,182.6 146.8,166.3 "/>
<polyline class="st2" points="147.3,133.2 115,149.7 114.5,149.7 114.5,150.5 115.9,150.5 147.5,133.3 147.5,166 147.5,166 
	178.6,149.7 178.5,149.7 178.8,149.6 147.3,133.2 "/>
<polyline class="st2" points="147.5,133.4 116,149.8 147.5,166 147.5,133.5 "/>
<polyline class="st0" points="115.4,116.8 114.5,116.9 114.5,149.7 147.5,133.3 147.5,133 115.4,116.8 "/>
<polyline class="st0" points="178.8,149.7 147.4,133.3 115.6,149.7 147.3,166.1 178.8,149.7 "/>
<polyline class="st1" points="178.1,116.7 147.5,133.2 147.5,133.3 146.8,133.3 177.5,149.7 177.5,116.5 "/>
<polygon class="st3" points="224.8,125.9 146.9,84.6 68.7,126 69.2,126.3 69.2,126.3 147,167 147.2,167.1 224.1,126.3 224.1,126.2 
	"/>
<polyline class="st1" points="146.8,133.3 147,133.3 147,166.1 146.6,166.1 177.5,149.7 177.5,149.7 146.8,133.3 "/>
<polyline class="st2" points="147.3,100.2 115,116.7 114.5,116.8 114.5,116.5 115.9,116.5 147.5,100.3 147.5,133 147.5,133 
	178.6,116.8 178.5,116.8 178.8,116.6 147.3,100.2 "/>
<polyline class="st2" points="147.5,100.8 116,117 147.5,133 147.5,101.5 "/>
<polyline class="st4" points="68.9,125.3 68.5,125.6 68.5,206.5 146.5,166.2 146.5,165.4 68.9,125.3 "/>
<polyline class="st4" points="224.8,206.7 147.2,166.1 68.7,206.5 146.9,247.3 224.8,206.7 "/>
<polyline class="st5" points="224.5,125 147.1,166 147.1,166.3 147.1,166.2 224.5,206.5 224.5,126.5 "/>
<polyline class="st5" points="147.1,166.1 147.1,166.2 146.7,247.1 146.8,247.2 224.5,206.7 224.5,206.5 147.1,166.1 "/>
<polyline class="st1" points="146.1,199.8 114.5,215.6 114.5,215.8 114.8,215.7 146.5,232.1 146.5,200.5 "/>
<polyline class="st2" points="115.7,182.6 84.2,199.1 84.5,199.4 84.5,200.5 84.1,200.5 114.5,182.8 114.5,215.4 115.2,215.5 
	146.6,199.2 146.7,199.2 147.1,199.1 115.7,182.6 "/>
<polyline class="st6" points="147.2,199.2 115.7,182.8 84,199.1 115.7,215.6 147.2,199.2 "/>
<polyline class="st1" points="146.1,166.1 114.5,182.6 114.5,182.8 114.8,182.8 146.5,199.1 146.5,165.5 "/>
<polyline class="st1" points="115.5,182.8 115.6,182.8 115.5,215.6 115.3,215.6 146.5,199.2 146.5,199.1 115.5,182.8 "/>
<polyline class="st2" points="115.7,149.7 84.2,166.2 84.5,166.1 84.5,165.5 84.1,165.5 114.5,149.8 114.5,182.5 115.2,182.5 
	146.6,166.2 146.7,166.2 147.1,166.1 115.7,149.7 "/>
<polyline class="st6" points="147.2,166.2 115.7,149.8 84,166.2 115.7,182.6 147.2,166.2 "/>
<polyline class="st1" points="146.1,133.5 114.5,149.7 114.5,149.8 114.8,149.8 146.5,166.2 146.5,133.5 "/>
<polyline class="st1" points="115.5,149.8 115.6,149.8 115.5,182.6 115.3,182.6 146.5,166.2 146.5,166.2 115.5,149.8 "/>
<polyline class="st2" points="115.7,116.7 84.2,133.2 84.5,133.3 84.5,133.5 84.1,133.5 114.5,116.8 114.5,149.5 115.2,149.5 
	146.6,133.3 146.7,133.3 147.1,133.1 115.7,116.7 "/>
<polyline class="st0" points="146.4,199.2 146.5,199.3 146.5,232.1 177.5,215.8 177.5,215.4 146.4,199.2 "/>
<polyline class="st2" points="178.7,182.6 147.2,199.1 147.5,199.4 147.5,200.5 147.2,200.5 177.5,182.8 177.5,215.4 178.2,215.5 
	209.7,199.2 209.8,199.2 210.2,199.1 178.7,182.6 "/>
<polyline class="st2" points="178.1,182.8 146.3,199.3 177.5,215.4 177.5,182.5 "/>
<polyline class="st0" points="146.4,166.3 146.5,166.4 146.5,199.1 177.5,182.8 177.5,182.5 146.4,166.3 "/>
<polyline class="st0" points="210.2,199.2 178.8,182.8 147.1,199.1 178.7,215.6 210.2,199.2 "/>
<polyline class="st7" points="209.1,166.1 177.5,182.6 177.5,182.8 177.8,182.8 209.5,199.1 209.5,165.5 "/>
<polyline class="st7" points="178.5,182.8 178.6,182.8 178.6,215.6 178.3,215.6 209.5,199.2 209.5,199.1 178.5,182.8 "/>
<polyline class="st2" points="178.7,149.7 147.2,166.2 147.5,166.1 147.5,165.5 147.2,165.5 177.5,149.8 177.5,182.5 178.2,182.5 
	209.7,166.2 209.8,166.2 210.2,166.1 178.7,149.7 "/>
<polyline class="st2" points="178.1,150.2 146.3,166.5 177.5,182.5 177.5,150.5 "/>
<polyline class="st0" points="146.4,133.3 146.5,133.4 146.5,166.2 177.5,149.9 177.5,149.5 146.4,133.3 "/>
<polyline class="st0" points="210.2,166.2 178.8,149.8 147.1,166.2 178.7,182.6 210.2,166.2 "/>
<polyline class="st7" points="209.1,133.5 177.5,149.7 177.5,149.8 177.8,149.8 209.5,166.2 209.5,133.5 "/>
<polyline class="st7" points="178.5,149.8 178.6,149.8 178.6,182.6 178.3,182.6 209.5,166.2 209.5,166.2 178.5,149.8 "/>
<polyline class="st2" points="178.7,116.7 147.2,133.2 147.5,133.3 147.5,133.5 147.2,133.5 177.5,116.8 177.5,149.5 178.2,149.5 
	209.7,133.3 209.8,133.3 210.2,133.1 178.7,116.7 "/>
<polyline class="st2" points="178.1,116.7 146.3,133.2 177.5,149.5 177.5,116.5 "/>
<polyline class="st2" points="147.3,199.3 115,215.8 114.5,215.9 114.5,215.5 115.9,215.5 147.5,199.5 147.5,232.1 147.5,232.2 
	178.6,215.9 178.5,215.9 178.8,215.7 147.3,199.3 "/>
<polyline class="st2" points="147.5,199.9 116,216.1 147.5,232.1 147.5,200.5 "/>
<polyline class="st6" points="115.4,182.9 114.5,183 114.5,215.8 147.5,199.5 147.5,199.2 115.4,182.9 "/>
<polyline class="st6" points="178.8,215.9 147.4,199.5 115.6,215.8 147.3,232.3 178.8,215.9 "/>
<polyline class="st7" points="178.1,183.2 147.5,199.3 147.5,199.5 146.8,199.5 177.5,215.8 177.5,183.5 "/>
<polyline class="st7" points="146.8,199.5 147,199.5 147,232.3 146.6,232.3 177.5,215.9 177.5,215.8 146.8,199.5 "/>
<polyline class="st2" points="147.3,166.4 115,182.8 114.5,183.1 114.5,183.5 115.9,183.5 147.5,166.5 147.5,199.2 147.5,199.2 
	178.6,182.9 178.5,182.9 178.8,182.8 147.3,166.4 "/>
<polyline class="st2" points="147.5,166.3 116,182.9 147.5,199.2 147.5,166.5 "/>
<polyline class="st6" points="115.4,150 114.5,150.1 114.5,182.8 147.5,166.5 147.5,166.2 115.4,150 "/>
<polyline class="st6" points="178.8,182.9 147.4,166.5 115.6,182.8 147.3,199.3 178.8,182.9 "/>
<polyline class="st7" points="178.1,150.6 147.5,166.4 147.5,166.5 146.8,166.5 177.5,182.8 177.5,151.5 "/>
<polyline class="st7" points="146.8,166.5 147,166.5 147,199.3 146.6,199.3 177.5,182.9 177.5,182.8 146.8,166.5 "/>
<polyline class="st2" points="147.3,133.4 115,149.9 114.5,149.8 114.5,150.5 115.9,150.5 147.5,133.5 147.5,166.2 147.5,166.2 
	178.6,150 178.5,149.9 178.8,149.8 147.3,133.4 "/>
<polyline class="st2" points="147.5,133.6 116,150 147.5,166.2 147.5,133.5 "/>
<polygon class="st8" points="163.5,179.4 155.5,184.1 155.5,175.3 163.5,170.6 "/>
<polygon class="st9" points="205.5,158.8 167.5,177.9 167.5,169.1 205.5,150 "/>
<polygon class="st8" points="163.5,195.4 155.5,200.1 155.5,191.3 163.5,186.6 "/>
<polygon class="st9" points="205.5,174.8 167.5,193.9 167.5,185.1 205.5,166 "/>
<polygon class="st8" points="163.5,211.1 155.5,215.7 155.5,206.9 163.5,202.3 "/>
<polygon class="st9" points="205.5,190.4 167.5,209.6 167.5,200.8 205.5,181.6 "/>
<polygon class="st4" points="68.5,108 147.5,149.5 147.5,166.8 68.5,125.3 "/>
<polygon class="st5" points="224.5,108 147.5,149.5 147.5,166.8 224.5,125.3 "/>
<polygon class="st10" points="224.8,108.3 146.9,67.7 68.7,108.5 69.2,108.7 69.2,108.7 147,149.3 147.2,149.4 224.1,108.7 
	224.1,108.6 "/>
<polygon class="st6" points="115.7,210.7 84.5,199.1 84.5,133.4 115.7,149.9 "/>
<polygon class="st9" points="137.5,183.8 100.5,164.7 100.5,156.4 137.5,175.4 "/>
<polygon class="st9" points="137.5,199 100.5,180 100.5,171.6 137.5,190.6 "/>
<polygon class="st9" points="137.5,213.9 100.5,194.8 100.5,186.5 137.5,205.5 "/>
<polygon class="st8" points="99.5,163.6 91.5,159.6 91.5,151.2 99.5,155.2 "/>
<polygon class="st8" points="99.5,178.8 91.5,174.8 91.5,166.4 99.5,170.5 "/>
<polygon class="st8" points="99.5,193.7 91.5,189.7 91.5,181.3 99.5,185.3 "/>
<defs>
	<filter id="Adobe_OpacityMaskFilter" filterUnits="userSpaceOnUse" x="118.5" y="6.5" width="99" height="102">
		<feColorMatrix  type="matrix" values="1 0 0 0 0  0 1 0 0 0  0 0 1 0 0  0 0 0 1 0"/>
	</filter>
</defs>
<mask maskUnits="userSpaceOnUse" x="118.5" y="6.5" width="99" height="102" id="SVGID_1_">
	<g class="st11">
		
			<linearGradient id="SVGID_2_" gradientUnits="userSpaceOnUse" x1="4810.8735" y1="5967.3511" x2="4922.4014" y2="5855.8232" gradientTransform="matrix(-1 0 0 -1 5033.9248 5968.0205)">
			<stop  offset="0" style="stop-color:#000000"/>
			<stop  offset="2.729893e-003" style="stop-color:#010101"/>
			<stop  offset="0.124" style="stop-color:#3C3C3C"/>
			<stop  offset="0.2478" style="stop-color:#707070"/>
			<stop  offset="0.3721" style="stop-color:#9C9C9C"/>
			<stop  offset="0.4965" style="stop-color:#C0C0C0"/>
			<stop  offset="0.6212" style="stop-color:#DBDBDB"/>
			<stop  offset="0.7463" style="stop-color:#EFEFEF"/>
			<stop  offset="0.8721" style="stop-color:#FBFBFB"/>
			<stop  offset="1" style="stop-color:#FFFFFF"/>
		</linearGradient>
		<rect x="113.9" y="-1.7" class="st12" width="106.8" height="116.3"/>
	</g>
</mask>
<g class="st13">
	<polygon class="st14" points="138,52.7 138,56.4 141.8,56.4 142.2,56.4 146,56.4 146,56.4 149.7,56.4 153.5,56.4 153.5,52.3 
		153.5,48.5 149.7,48.5 149.7,44.7 146,44.7 146,40.9 142.2,40.9 141.8,40.9 138,40.9 138,44.7 138,45.1 138,48.9 138,48.9 	"/>
	<rect x="167.3" y="17.7" class="st14" width="4.2" height="4.2"/>
	<polygon class="st14" points="150.8,47.2 155,47.2 155,43 150.9,43 150.9,38.9 146.7,38.9 146.7,43.1 150.8,43.1 	"/>
	<polygon class="st14" points="158.2,43.5 158.2,43.8 158.2,47.2 158.2,47.6 158.2,51.4 162,51.4 162.3,51.4 165.7,51.4 166.1,51.4 
		169.9,51.4 169.9,51.4 173.7,51.4 173.7,47.2 169.9,47.2 169.9,43.5 166.1,43.5 166.1,39.7 162.3,39.7 162.3,35.9 158.2,35.9 
		158.2,40 	"/>
	<rect x="163.8" y="32.4" class="st14" width="4.2" height="4.2"/>
	<rect x="185" y="9.8" class="st14" width="4.2" height="4.2"/>
	<rect x="168.3" y="36.9" class="st14" width="4.2" height="4.2"/>
	<polygon class="st14" points="206.6,14 206.6,9.8 204.4,9.8 204.4,6.8 200.3,6.8 200.3,11 202.5,11 202.5,14 	"/>
	<rect x="192.9" y="18.4" class="st14" width="4.2" height="4.2"/>
	<rect x="172.6" y="41.3" class="st14" width="4.2" height="4.2"/>
	<polygon class="st14" points="154.1,60.8 154.1,61.2 154.1,64.6 154.1,65 154.1,68.8 154.1,68.8 154.1,72.6 157.9,72.6 158.3,72.6 
		161.7,72.6 162.1,72.6 165.5,72.6 165.9,72.6 169.6,72.6 169.6,68.8 169.6,68.4 169.6,64.6 165.9,64.6 165.9,60.8 162.1,60.8 
		162.1,57.1 157.9,57.1 154.1,57.1 	"/>
	<polygon class="st14" points="163.1,55.3 163.1,59.5 167.3,59.5 167.3,63.6 171.4,63.6 171.4,59.5 167.3,59.5 167.3,55.3 	"/>
	<rect x="195.8" y="29" class="st14" width="4.2" height="4.2"/>
	<polygon class="st14" points="191.1,39.4 190.2,39.4 190.2,36.7 187.3,36.7 187.3,35.6 183.5,35.6 183.5,31.8 179.4,31.8 
		179.4,35.6 179.4,35.6 179.4,39.8 179.4,43.2 179.4,43.6 179.4,47.4 183.5,47.4 183.5,47.4 186.9,47.4 186.9,47.4 191.1,47.4 
		194.9,47.4 194.9,43.2 191.1,43.2 	"/>
	<rect x="181.4" y="50" class="st14" width="4.2" height="4.2"/>
	<rect x="205.6" y="29" class="st14" width="4.2" height="4.2"/>
	<rect x="185.6" y="54.3" class="st14" width="4.2" height="4.2"/>
	<polygon class="st14" points="217.9,22.1 213.7,22.1 213.7,23.7 213.3,23.7 213.3,27.8 217.5,27.8 217.5,26.2 217.9,26.2 	"/>
	<rect x="207.7" y="38.1" class="st14" width="4.2" height="4.2"/>
	<rect x="190.3" y="58.8" class="st14" width="4.2" height="4.2"/>
	<polygon class="st14" points="187,64.4 187,60.6 183.3,60.6 183.3,56.8 179.5,56.8 179.5,53 175.3,53 175.3,57.2 175.3,60.6 
		175.3,61 175.3,64.4 175.3,64.7 175.3,68.5 179.1,68.5 179.5,68.5 182.9,68.5 183.3,68.5 186.7,68.5 187,68.5 190.8,68.5 
		190.8,64.4 	"/>
	<rect x="179.5" y="71.7" class="st14" width="4.2" height="4.2"/>
	<rect x="205.3" y="55.5" class="st14" width="4.2" height="4.2"/>
	<rect x="183.7" y="75.9" class="st14" width="4.2" height="4.2"/>
	<polygon class="st14" points="185.8,80.8 182,80.8 182,77 178.2,77 178.2,73.2 174.1,73.2 170.3,73.2 170.3,77.4 170.3,80.8 
		170.3,81.1 170.3,84.5 170.3,84.9 170.3,88.7 174.4,88.7 177.8,88.7 178.2,88.7 181.6,88.7 182,88.7 185.8,88.7 185.8,84.5 
		185.8,84.5 	"/>
	<polygon class="st14" points="165.8,92.3 165.8,77.2 150.7,77.2 150.7,62 135.5,62 135.5,46.9 118.9,46.9 118.9,63.6 118.9,63.6 
		118.9,78.7 118.9,78.7 118.9,92.3 118.9,92.3 118.9,109 135.5,109 135.5,109 150.7,109 150.7,109 165.7,109 165.7,109 182.4,109 
		182.4,92.3 	"/>
</g>
</svg>
