<?xml version="1.0" encoding="utf-8"?>
<!-- Generator: Adobe Illustrator 19.1.1, SVG Export Plug-In . SVG Version: 6.00 Build 0)  -->
<svg version="1.1" id="Layer_1" xmlns="http://www.w3.org/2000/svg" xmlns:xlink="http://www.w3.org/1999/xlink" x="0px" y="0px"
	 viewBox="0 0 300 250" style="enable-background:new 0 0 300 250;" xml:space="preserve">
<style type="text/css">
	.st0{fill:#CEDBEA;}
	.st1{fill:#6085B2;}
	.st2{fill:#445172;}
	.st3{fill:#B3BCE0;}
	.st4{fill:#FFFFFF;}
</style>
<g>
	<polygon class="st0" points="268.6,87.5 296.6,87.5 267.5,58.2 267.5,87.5 	"/>
	<polygon class="st0" points="31.1,138.5 3,138.5 32.5,108 32.5,138.5 	"/>
	<polygon class="st0" points="162.5,209.5 134.4,209.5 162.5,180.5 162.5,209.5 	"/>
	<path class="st0" d="M142.5,155.5c0,5.5-4.5,10-10,10h-88c-5.5,0-10-4.5-10-10v-77c0-5.5,4.5-10,10-10h88c5.5,0,10,4.5,10,10V155.5
		z"/>
	<path class="st0" d="M271.5,105.5c0,5.5-4.5,10-10,10h-88c-5.5,0-10-4.5-10-10v-77c0-5.5,4.5-10,10-10h88c5.5,0,10,4.5,10,10V105.5
		z"/>
	<path class="st0" d="M273.5,225.5c0,5.5-4.5,10-10,10h-88c-5.5,0-10-4.5-10-10v-77c0-5.5,4.5-10,10-10h88c5.5,0,10,4.5,10,10V225.5
		z"/>
	<path class="st1" d="M135.3,205.5l23.2-28.8v-37.1c0-4.9,3.9-7.1,8-7.1h95.3c4.1,0,6.7,2.2,6.7,7.1v80.3c0,4.9-2.6,9.6-6.7,9.6
		h-95.3c-4.1,0-8-4.7-8-9.6v-14.4H135.3z"/>
	<path class="st2" d="M4.7,132.5l24.8-26V69.4c0-4.9,2.3-6.9,6.5-6.9h95.3c4.1,0,6.3,2,6.3,6.9v80.3c0,4.9-2.2,10.8-6.3,10.8H36
		c-4.1,0-6.5-5.9-6.5-10.8v-17.2H4.7z"/>
	<path class="st3" d="M291.9,83.5l-25.4-27.3V19.1c0-4.9-1.7-6.6-5.9-6.6h-95.3c-4.1,0-8.9,1.7-8.9,6.6v80.3
		c0,4.9,4.8,11.1,8.9,11.1h95.3c4.1,0,5.9-6.2,5.9-11.1V83.5H291.9z"/>
	<path class="st4" d="M236.5,195.8c0-1.4-0.2-3.1-0.9-4.3c-0.2-0.7-0.6-1.2-1.3-1.7c-0.7-0.5-1.4-0.4-2.3-0.4
		c-2.2,0-3.5,0.1-4.2,0.1c-0.2,0-0.2,0-0.5,0c0.2-1,0.5-2,0.7-4h6.7c1,0,1.9-0.3,1.9-1.5c0-1-0.7-1.5-1.9-1.5H228c0-1-0.2-2.8-0.5-4
		c0.5-0.2,1.9-0.7,4.8-0.7c0.5,0,1.2-0.3,1.7-0.6s1-0.5,1.2-0.8c0.5-0.5,1-1.2,1.2-1.9c0.5-1,0.7-2.2,0.7-3.4
		c0.2-1.2,0.2-2.4,0.2-3.4c0-2.6-0.2-5-0.2-5c-0.2-1-1-1.7-1.9-1.7c-1,0.2-1.7,1-1.7,1.9c0,0.2,0.2,2.2,0.2,4.5c0,1,0,1.7-0.2,2.6
		c-0.2,1.2-0.5,2.3-0.7,3c-0.2,0.2-0.2,0.3-0.5,0.3c0,0,0,0-0.2,0c-2.4,0-4.1,0.4-5,0.6c-0.5,0-0.7,0.3-1,0.3
		c-0.5-0.7-1-1.2-1.4-1.9c-0.5-0.5-1-0.7-1.4-1.2c0-0.2,0.2-0.2,0.2-0.5c0.7-1,1-2.4,1-3.6s-0.8-2.4-1.3-3.6c-0.5-1-1.7-1.9-2.7-2.6
		v-5c0-1-1.3-1.9-2.5-1.9c-1,0-2.5,0.7-2.5,1.9v3.1c0-0.5-2.1-0.7-3.5-0.7c-1.4,0-2.5,0.2-3.5,0.7V156c0-1-0.8-1.9-2-1.9
		c-1,0-2,0.7-2,1.9v5c0,0.7-1.5,1.7-2.2,2.6c-0.7,1-0.9,2.4-0.9,3.6s0.5,2.4,1,3.6c0.2,0.2,0.3,0.5,0.5,0.7
		c-0.5,0.5-0.9,0.7-1.4,1.4c-0.2,0.5-0.5,0.7-0.7,1.2c-0.2,0-0.5-0.3-1-0.3c-1-0.2-2.6-0.5-5-0.5h-0.2c0,0,0,0-0.2,0
		c-0.2,0-0.2-0.5-0.5-0.7c-0.2-0.5-0.5-1.4-0.5-2.4s-0.2-1.9-0.2-3.1s0.3-2.4,0.3-3.1c0-0.5,0-0.7,0-1V163c0-1-0.6-1.9-1.8-1.9
		c-1-0.2-2,0.5-2,1.7c0,0-0.3,2.4-0.3,5c0,1,0,1.9,0.2,3.1c0.2,1.4,0.5,3.1,1.2,4.3c0.2,0.7,0.7,1.2,1.4,1.7
		c0.7,0.5,1.4,0.7,2.4,0.7c2.2,0,3.6,0.8,4.3,0.8c0,0-0.2,3.1-0.2,4.1h-7.4c-1,0-1.9,0.3-1.9,1.5c0,1,0.7,1.5,1.9,1.5h7.4
		c0,1,0.2,2,0.7,3.2c-0.7,0.2-1.9,0.4-4.5,0.4c-0.5,0-1.2,0.2-1.7,0.4c-0.5,0.2-1,0.5-1.2,0.7c-0.5,0.5-1,1.2-1.2,1.9
		c-0.5,1-0.7,2.2-0.7,3.3c-0.2,1.2-0.2,2.4-0.2,3.4c0,2.6,0.2,5,0.2,5c0.2,1,1,1.7,1.9,1.7c1-0.2,1.7-1,1.7-1.9
		c0-0.2-0.2-2.2-0.2-4.5c0-1,0-1.7,0.2-2.6c0.2-1.2,0.5-1.6,0.7-2.3c0.2-0.2,0.2,0.3,0.5,0.3c0,0,0,0,0.2,0c2.4,0,4.1-1,5-1.3
		c0.5,0,0.7-0.6,1-0.6c1.2,2.2,2.9,4.1,4.8,5.8c1.2,1,2.4,1.6,3.6,2.3c1.2,0.5,2.6,0.9,3.8,0.9c1.7,0,3.4-0.7,5-1.7
		c2.4-1.4,4.5-3.6,6.5-6.2c0.2-0.5,0.5-1,0.7-1.4c0.2,0,0.7,1,1.2,1c1,0.2,2.6,1.3,5,1.3h0.2c0,0,0,0,0.2,0c0.2,0,0.2-0.3,0.5-0.1
		c0.2,0.5,0.5,1,0.5,2c0,1-0.2,1.7-0.2,2.9s-0.6,2.2-0.6,2.9c0,0.5,0,0.7,0,1v0.2c0,1,0.9,1.9,2.1,1.9s1.8-0.5,1.8-1.7
		c0,0,0.1-2.4,0.1-5C236.5,197.7,236.5,196.7,236.5,195.8z M206,165.9c0.5-1,1.4-1.7,2.6-2.4s2.9-1,4.5-1c2.2,0,4.3,0.7,5.5,1.7
		c0.7,0.5,1.2,1,1.4,1.7c0.2,0.5,0.5,1.2,0.5,1.7c0,0.7-0.2,1.2-0.5,1.7c-0.2,0.2-0.5,0.7-0.7,1c-0.5,0.5-1.2,1-1.9,1.4
		c-0.2,0-0.2,0-0.5,0.2c-1.2,0.5-2.6,0.7-4.1,0.7c-1.4,0-2.9-0.2-4.1-0.7c-0.5-0.2-1.2-0.5-1.7-1c-0.2-0.2-0.5-0.5-0.7-0.5
		c-0.2-0.2-0.7-0.7-1-1c-0.2-0.5-0.5-1.2-0.5-1.7C205.5,167.1,205.8,166.6,206,165.9z M223.5,188.8c-1,2.4-2.9,4.5-4.8,6
		c-1,0.7-1.9,1.4-2.9,1.9c-1,0.5-1.7,0.5-2.2,0.5c-1,0-2.2-0.2-3.4-1.2c-1.9-1.2-3.8-2.9-5.3-5c-1.4-2.2-2.2-4.5-2.2-6.7
		c0-2.9,0.2-5,0.7-6.5c0.2-1.2,0.7-1.9,1.2-2.4c0.2-0.5,0.7-0.7,1.2-1c0.2,0.2,0.5,0.2,1,0.5c1.7,1,3.8,1.4,6,1.4
		c2.6,0,5.3-0.7,7.2-1.9c0.2,0,0.5,0.2,0.5,0.2c0.5,0.2,1,0.5,1.4,1c0.7,0.7,1.2,1.4,1.4,2.9c0.5,1.4,0.7,3.4,0.7,6
		C224.5,185.7,224.2,187.2,223.5,188.8z"/>
	<path class="st4" d="M245.8,68.4c0,1.5,1.1,2.7,2.6,2.7c1.4,0,2.5-1.1,2.5-2.7c0-1.5-1.1-2.7-2.5-2.7
		C246.9,65.8,245.8,66.9,245.8,68.4z M247,63.3h2.6l0.5-11.7l0.1-3.9h-4l0.1,3.9L247,63.3z M222.6,70.7h4.5l1.9-7.8
		c0.4-1.6,0.7-3.2,1-4.9h0.1c0.4,1.8,0.7,3.3,1,4.9l2,7.9h4.7l4.3-16.8h-3.7l-2,8.7c-0.3,1.6-0.6,3.2-0.9,4.8h-0.1
		c-0.4-1.6-0.7-3.2-1.1-4.8l-2.2-8.7h-3.6l-2.2,8.7c-0.4,1.6-0.8,3.2-1.1,4.8H225c-0.3-1.6-0.5-3.2-0.9-4.8l-2-8.7h-4L222.6,70.7z
		 M204.1,62.3c0-3.4,1.5-5.6,3.9-5.6s4,2.2,4,5.6c0,3.4-1.5,5.6-4,5.6S204.1,65.7,204.1,62.3z M200.1,62.3c0,5.6,3.8,8.8,8,8.8
		c4.2,0,8-3.2,8-8.8c0-5.6-3.8-8.8-8-8.8C203.9,53.5,200.1,56.7,200.1,62.3z M178.5,70.7h4.5l1.9-7.8c0.4-1.6,0.7-3.2,1-4.9h0.1
		c0.4,1.8,0.7,3.3,1,4.9l2,7.9h4.7l4.3-16.8h-3.7l-2,8.7c-0.3,1.6-0.6,3.2-0.9,4.8h-0.1c-0.4-1.6-0.7-3.2-1.1-4.8l-2.2-8.7h-3.6
		l-2.2,8.7c-0.4,1.6-0.8,3.2-1.1,4.8h-0.1c-0.3-1.6-0.5-3.2-0.9-4.8l-2-8.7h-4L178.5,70.7z"/>
	<path class="st4" d="M102.7,141.4c2.1,0,3.3-0.4,4.5-0.8c0,0,0.4,0,0.4-0.4c0.4-0.4,0.4-0.4,0-0.8c-1.2-0.8-2.5-1.7-3.7-2.5
		c-1.2-0.8-2.1-2.1-1.7-3.7c0.4-1.2,1.2-2.5,2.1-3.3c1.2-1.2,2.5-1.2,3.7-0.4c1.2,0.8,2.9,1.7,4.1,2.5c0.4,0.4,0.8,0.4,0.8-0.4
		c0-1.2-0.4-2.5-0.8-3.7c-1.2-2.9-2.9-4.7-6.2-5.5c-1.2-0.4-2.5,0.2-3.7,0.2h-0.4c-0.4,0-1.2-0.2-1.7-0.7
		c-4.5-4.1-9.1-8.4-13.6-12.9c-2.9-2.5-5.8-5.8-9.1-9.2c-0.4-0.4-1.2-1.3-1.7-1.7c-0.4-0.4-0.8-1.3-0.8-1.7c0-0.8,0.4-1.7,0.4-2.5
		c0.4-2.9-0.8-5.4-3.3-7c-2.9-2.5-6.2-2.5-9.9-1.2c0,0-0.4,0-0.4,0.4c-0.4,0.4-0.4,0.4,0,0.8c1.2,0.8,2.5,1.7,4.1,2.5
		c1.2,0.8,1.7,2.5,1.7,3.7c-0.4,1.7-1.2,2.9-2.5,3.7s-2.5,1.2-3.7,0.4c-1.2-0.8-2.9-1.7-4.1-2.5c-0.8-0.8-0.8-0.4-0.8,0
		c0,1.2,0,2.1,0.4,3.3c1.2,2.9,2.9,5.5,6.2,6.3c1.2,0.4,2.5,0.1,3.7,0.1c0.4,0,0.4,0,0.8,0s0.8-0.1,1.2,0.3
		c4.5,4.1,9.5,8.2,13.6,12.7c3.7,3.7,7,7.4,10.7,10.7c0.8,0.8,1.2,2.1,0.8,3.3c-0.8,2.9,0,5.4,2.1,7.4
		C98.6,140.6,100.6,141.4,102.7,141.4z"/>
</g>
</svg>
