<?xml version="1.0" encoding="utf-8"?>
<!-- Generator: Adobe Illustrator 19.1.1, SVG Export Plug-In . SVG Version: 6.00 Build 0)  -->
<svg version="1.1" id="Layer_1" xmlns="http://www.w3.org/2000/svg" xmlns:xlink="http://www.w3.org/1999/xlink" x="0px" y="0px"
	 viewBox="0 0 300 250" style="enable-background:new 0 0 300 250;" xml:space="preserve">
<style type="text/css">
	.st0{fill:#D0D9F7;}
	.st1{fill:#6085B2;}
	.st2{fill:none;stroke:#6085B2;stroke-width:5;stroke-miterlimit:10;}
	.st3{fill:#2E4472;}
</style>
<rect x="45.5" y="32.5" class="st0" width="161" height="186"/>
<rect x="67.5" y="52.5" class="st1" width="118" height="20"/>
<line class="st2" x1="67.5" y1="100" x2="185.5" y2="100"/>
<line class="st2" x1="67.5" y1="130" x2="185.5" y2="130"/>
<line class="st2" x1="67.5" y1="161" x2="185.5" y2="161"/>
<line class="st2" x1="67.5" y1="193" x2="134.5" y2="193"/>
<polygon class="st3" points="204.7,194.8 184,175.6 176.6,204.5 "/>
<rect x="220.7" y="85" transform="matrix(0.7343 0.6788 -0.6788 0.7343 158.4004 -121.8077)" class="st3" width="28.3" height="113"/>
<path class="st3" d="M285.6,107.4l-20.8-19.2l6.8-7.3c0,0,2.1-2.2,12.4,7.4s8.3,11.8,8.3,11.8L285.6,107.4z"/>
</svg>
