<?xml version="1.0" encoding="utf-8"?>
<!-- Generator: Adobe Illustrator 19.1.1, SVG Export Plug-In . SVG Version: 6.00 Build 0)  -->
<svg version="1.1" id="Layer_1" xmlns="http://www.w3.org/2000/svg" xmlns:xlink="http://www.w3.org/1999/xlink" x="0px" y="0px"
	 viewBox="0 0 300 250" style="enable-background:new 0 0 300 250;" xml:space="preserve">
<style type="text/css">
	.st0{fill:#B3BCE0;}
	.st1{fill:#D0D9F7;}
	.st2{fill:#324F83;}
</style>
<circle class="st0" cx="84.6" cy="120.6" r="20.4"/>
<g>
	<path class="st0" d="M110.5,151c0-5.5-2.9-9.5-7.8-9.5H68.5c-4.9,0-10,4-10,9.5v39.5h52V151z"/>
</g>
<circle class="st1" cx="28" cy="120.6" r="20.4"/>
<g>
	<path class="st1" d="M54.5,151c0-5.5-3.5-9.5-8.5-9.5H11.9c-4.9,0-9.4,4-9.4,9.5v39.5h52V151z"/>
</g>
<circle class="st1" cx="215.2" cy="120.6" r="20.4"/>
<g>
	<path class="st1" d="M241.5,151c0-5.5-3.3-9.5-8.2-9.5h-34.1c-4.9,0-9.7,4-9.7,9.5v39.5h52V151z"/>
</g>
<circle class="st0" cx="271.9" cy="120.6" r="20.4"/>
<g>
	<path class="st0" d="M297.5,151c0-5.5-2.7-9.5-7.6-9.5h-34.1c-4.9,0-10.3,4-10.3,9.5v39.5h52V151z"/>
</g>
<circle class="st2" cx="149.2" cy="84.7" r="37.9"/>
<g>
	<path class="st2" d="M198.5,141c0-10.1-6.6-18.5-15.8-18.5h-63.4c-9.2,0-16.9,8.4-16.9,18.5v73.5h96V141z"/>
</g>
</svg>
