<?xml version="1.0" encoding="utf-8"?>
<!-- Generator: Adobe Illustrator 19.1.1, SVG Export Plug-In . SVG Version: 6.00 Build 0)  -->
<svg version="1.1" id="Layer_1" xmlns="http://www.w3.org/2000/svg" xmlns:xlink="http://www.w3.org/1999/xlink" x="0px" y="0px"
	 viewBox="0 0 300 250" style="enable-background:new 0 0 300 250;" xml:space="preserve">
<style type="text/css">
	.st0{fill:#2E4472;}
	.st1{fill:#D0D9F7;}
	.st2{fill:#6085B2;}
	.st3{fill:#445172;}
	.st4{opacity:0.7;fill:#FFFFFF;}
</style>
<rect x="49.5" y="76.5" class="st0" width="198" height="121"/>
<rect x="55.5" y="82.5" class="st1" width="187" height="109"/>
<polygon class="st0" points="294.3,211.5 8.3,211.5 50.1,197.5 248,197.5 "/>
<path class="st2" d="M293.5,216.8c0,2.6-2.1,4.7-4.7,4.7H12.2c-2.6,0-4.7-2.1-4.7-4.7v-0.6c0-2.6,2.1-4.7,4.7-4.7h276.6
	c2.6,0,4.7,2.1,4.7,4.7V216.8z"/>
<rect x="7.5" y="211.5" class="st2" width="286" height="5"/>
<rect x="63.5" y="91.5" class="st2" width="102" height="12"/>
<g>
	<rect x="63.5" y="112.5" class="st2" width="102" height="69"/>
</g>
<rect x="176.5" y="112.5" class="st2" width="59" height="25"/>
<rect x="176.5" y="147.5" class="st2" width="59" height="35"/>
<rect x="176.5" y="96.5" class="st2" width="18" height="6"/>
<rect x="197.5" y="96.5" class="st2" width="17" height="6"/>
<rect x="217.5" y="96.5" class="st2" width="18" height="6"/>
<path class="st2" d="M169.5,76.6c0,1.6-1.3,2.9-2.9,2.9h-35.2c-1.6,0-2.9-1.3-2.9-2.9V63.4c0-1.6,1.3-2.9,2.9-2.9h35.2
	c1.6,0,2.9,1.3,2.9,2.9V76.6z"/>
<path class="st3" d="M154.5,70.1c0,3-2.4,5.4-5.4,5.4h-0.2c-3,0-5.4-2.4-5.4-5.4v-0.2c0-3,2.4-5.4,5.4-5.4h0.2c3,0,5.4,2.4,5.4,5.4
	V70.1z"/>
<circle class="st4" cx="213.9" cy="150.7" r="10.5"/>
<polygon class="st3" points="228,168.4 222.5,159.7 228.2,158.2 214.2,150.1 216.1,166 220,161.6 225.5,170.1 "/>
</svg>
