<?xml version="1.0" encoding="utf-8"?>
<!-- Generator: Adobe Illustrator 21.0.0, SVG Export Plug-In . SVG Version: 6.00 Build 0)  -->
<svg version="1.1" id="Layer_1" xmlns="http://www.w3.org/2000/svg" xmlns:xlink="http://www.w3.org/1999/xlink" x="0px" y="0px"
	 viewBox="0 0 300 250" style="enable-background:new 0 0 300 250;" xml:space="preserve">
<style type="text/css">
	.st0{fill:#B3BCE0;}
	.st1{fill:#324F83;}
</style>
<polygon class="st0" points="37.4,69.6 3.1,109.8 37.4,109.8 "/>
<path class="st0" d="M191.6,131.8c0,4.5-3.7,8.2-8.2,8.2H38.1c-4.5,0-8.2-3.7-8.2-8.2V35.7c0-4.5,3.7-8.2,8.2-8.2h145.3
	c4.5,0,8.2,3.7,8.2,8.2V131.8z"/>
<path class="st1" d="M269.1,210.8c0,4.5-3.7,8.2-8.2,8.2H120.3c-4.5,0-8.2-3.7-8.2-8.2v-96.1c0-4.5,3.7-8.2,8.2-8.2h140.5
	c4.5,0,8.2,3.7,8.2,8.2V210.8z"/>
<polygon class="st1" points="260.6,148.2 296.8,186.9 260.6,186.9 "/>
</svg>
