<?xml version="1.0" encoding="utf-8"?>
<!-- Generator: Adobe Illustrator 21.0.0, SVG Export Plug-In . SVG Version: 6.00 Build 0)  -->
<svg version="1.1" id="Layer_1" xmlns="http://www.w3.org/2000/svg" xmlns:xlink="http://www.w3.org/1999/xlink" x="0px" y="0px"
	 viewBox="0 0 300 250" style="enable-background:new 0 0 300 250;" xml:space="preserve">
<style type="text/css">
	.st0{fill:#6585B7;}
	.st1{fill:#93B3DB;}
	.st2{clip-path:url(#SVGID_3_);fill:#93B3DB;}
	.st3{fill:#324F83;}
	.st4{opacity:0.6;fill:#B3BCE0;}
	.st5{fill:#B3BCE0;}
</style>
<rect x="23.1" y="21" class="st0" width="239.5" height="166.4"/>
<g>
	<rect x="113.8" y="72.4" class="st1" width="4.5" height="4.5"/>
	<rect x="113.8" y="76.3" class="st1" width="4.5" height="4.5"/>
	<rect x="113.8" y="80.6" class="st1" width="4.5" height="4.5"/>
	<rect x="113.8" y="84.6" class="st1" width="4.5" height="4.5"/>
	<rect x="117.7" y="72.4" class="st1" width="4.5" height="4.5"/>
	<rect x="117.7" y="76.3" class="st1" width="4.5" height="4.5"/>
	<rect x="117.7" y="80.6" class="st1" width="4.5" height="4.5"/>
	<rect x="117.7" y="84.6" class="st1" width="4.5" height="4.5"/>
	<rect x="123.1" y="70.1" class="st1" width="4.5" height="4.5"/>
	<rect x="122" y="76.3" class="st1" width="4.5" height="4.5"/>
	<rect x="122" y="80.6" class="st1" width="4.5" height="4.5"/>
	<rect x="122" y="84.6" class="st1" width="4.5" height="4.5"/>
	<rect x="145.8" y="46.6" class="st1" width="4.5" height="4.5"/>
	<rect x="127.6" y="74.6" class="st1" width="4.5" height="4.5"/>
	<rect x="125.9" y="80.6" class="st1" width="4.5" height="4.5"/>
	<rect x="125.9" y="84.6" class="st1" width="4.5" height="4.5"/>
	<rect x="135.9" y="66.7" class="st1" width="4.5" height="4.5"/>
	<rect x="135.9" y="71" class="st1" width="4.5" height="4.5"/>
	<rect x="135.9" y="74.9" class="st1" width="4.5" height="4.5"/>
	<rect x="135.9" y="79.2" class="st1" width="4.5" height="4.5"/>
	<rect x="142.1" y="62.7" class="st1" width="4.5" height="4.5"/>
	<rect x="139.8" y="71" class="st1" width="4.5" height="4.5"/>
	<rect x="139.8" y="74.9" class="st1" width="4.5" height="4.5"/>
	<rect x="139.8" y="79.2" class="st1" width="4.5" height="4.5"/>
	<rect x="165.3" y="38.1" class="st1" width="4.5" height="4.5"/>
	<rect x="146.9" y="67.8" class="st1" width="4.5" height="4.5"/>
	<rect x="144.1" y="74.9" class="st1" width="4.5" height="4.5"/>
	<rect x="144.1" y="79.2" class="st1" width="4.5" height="4.5"/>
	<rect x="184.6" y="38.1" class="st1" width="4.5" height="4.5"/>
	<rect x="174.1" y="47.4" class="st1" width="4.5" height="4.5"/>
	<rect x="151.7" y="72.9" class="st1" width="4.5" height="4.5"/>
	<rect x="148.1" y="79.2" class="st1" width="4.5" height="4.5"/>
	<rect x="131.6" y="89.9" class="st1" width="4.5" height="4.5"/>
	<rect x="131.6" y="94.2" class="st1" width="4.5" height="4.5"/>
	<rect x="131.6" y="98.5" class="st1" width="4.5" height="4.5"/>
	<rect x="131.6" y="102.4" class="st1" width="4.5" height="4.5"/>
	<rect x="135.3" y="89.9" class="st1" width="4.5" height="4.5"/>
	<rect x="135.3" y="94.2" class="st1" width="4.5" height="4.5"/>
	<rect x="135.3" y="98.5" class="st1" width="4.5" height="4.5"/>
	<rect x="135.3" y="102.4" class="st1" width="4.5" height="4.5"/>
	<rect x="141.3" y="88.2" class="st1" width="4.5" height="4.5"/>
	<rect x="139.5" y="94.2" class="st1" width="4.5" height="4.5"/>
	<rect x="139.5" y="98.5" class="st1" width="4.5" height="4.5"/>
	<rect x="139.5" y="102.4" class="st1" width="4.5" height="4.5"/>
	<rect x="166.5" y="67.6" class="st1" width="4.5" height="4.5"/>
	<rect x="145.8" y="92.8" class="st1" width="4.5" height="4.5"/>
	<rect x="143.8" y="98.5" class="st1" width="4.5" height="4.5"/>
	<rect x="143.8" y="102.4" class="st1" width="4.5" height="4.5"/>
	<rect x="159.1" y="62.4" class="st1" width="4.5" height="4.5"/>
	<rect x="159.1" y="66.4" class="st1" width="4.5" height="4.5"/>
	<rect x="159.1" y="70.7" class="st1" width="4.5" height="4.5"/>
	<rect x="159.1" y="74.6" class="st1" width="4.5" height="4.5"/>
	<rect x="181.8" y="34.7" class="st1" width="4.5" height="4.5"/>
	<rect x="163.4" y="66.4" class="st1" width="4.5" height="4.5"/>
	<rect x="163.4" y="70.7" class="st1" width="4.5" height="4.5"/>
	<rect x="163.4" y="74.6" class="st1" width="4.5" height="4.5"/>
	<rect x="178.4" y="58.8" class="st1" width="4.5" height="4.5"/>
	<g>
		<g>
			<g>
				<g>
					<polyline id="SVGID_1_" class="st1" points="178.4,63.3 182.9,63.3 182.9,58.8 178.4,58.8 178.4,63.3 					"/>
				</g>
				<g>
					<g>
						<defs>
							<polyline id="SVGID_2_" points="178.4,63.3 182.9,63.3 182.9,58.8 178.4,58.8 178.4,63.3 							"/>
						</defs>
						<use xlink:href="#SVGID_2_"  style="overflow:visible;fill:#93B3DB;"/>
						<clipPath id="SVGID_3_">
							<use xlink:href="#SVGID_2_"  style="overflow:visible;"/>
						</clipPath>
						<rect x="178.4" y="58.8" class="st2" width="4.5" height="4.5"/>
					</g>
				</g>
			</g>
		</g>
	</g>
	<rect x="167.3" y="70.7" class="st1" width="4.5" height="4.5"/>
	<rect x="167.3" y="74.6" class="st1" width="4.5" height="4.5"/>
	<rect x="196.3" y="53.1" class="st1" width="4.5" height="4.5"/>
	<rect x="171.6" y="74.6" class="st1" width="4.5" height="4.5"/>
	<rect x="154.6" y="85.4" class="st1" width="4.5" height="4.5"/>
	<rect x="154.6" y="89.7" class="st1" width="4.5" height="4.5"/>
	<rect x="154.6" y="93.9" class="st1" width="4.5" height="4.5"/>
	<rect x="154.6" y="98.2" class="st1" width="4.5" height="4.5"/>
	<rect x="161.4" y="82.3" class="st1" width="4.5" height="4.5"/>
	<rect x="158.5" y="89.7" class="st1" width="4.5" height="4.5"/>
	<rect x="158.5" y="93.9" class="st1" width="4.5" height="4.5"/>
	<rect x="158.5" y="98.2" class="st1" width="4.5" height="4.5"/>
	<rect x="188" y="59.3" class="st1" width="4.5" height="4.5"/>
	<rect x="165.9" y="87.1" class="st1" width="4.5" height="4.5"/>
	<rect x="163.1" y="93.9" class="st1" width="4.5" height="4.5"/>
	<rect x="163.1" y="98.2" class="st1" width="4.5" height="4.5"/>
	<rect x="196.8" y="51.7" class="st1" width="4.5" height="4.5"/>
	<rect x="190.3" y="69.3" class="st1" width="4.5" height="4.5"/>
	<rect x="171" y="91.9" class="st1" width="4.5" height="4.5"/>
	<rect x="167" y="98.2" class="st1" width="4.5" height="4.5"/>
	<rect x="148.9" y="107.8" class="st1" width="4.5" height="4.5"/>
	<rect x="148.9" y="111.8" class="st1" width="4.5" height="4.5"/>
	<rect x="148.9" y="116" class="st1" width="4.5" height="4.5"/>
	<rect x="148.9" y="120.6" class="st1" width="4.5" height="4.5"/>
	<rect x="153.2" y="107.8" class="st1" width="4.5" height="4.5"/>
	<rect x="153.2" y="111.8" class="st1" width="4.5" height="4.5"/>
	<rect x="153.2" y="116" class="st1" width="4.5" height="4.5"/>
	<rect x="153.2" y="120.6" class="st1" width="4.5" height="4.5"/>
	<rect x="159.4" y="106.1" class="st1" width="4.5" height="4.5"/>
	<rect x="157.4" y="111.8" class="st1" width="4.5" height="4.5"/>
	<rect x="157.4" y="116" class="st1" width="4.5" height="4.5"/>
	<rect x="157.4" y="120.6" class="st1" width="4.5" height="4.5"/>
	<rect x="187.7" y="88.5" class="st1" width="4.5" height="4.5"/>
	<rect x="163.9" y="110.6" class="st1" width="4.5" height="4.5"/>
	<rect x="161.7" y="116" class="st1" width="4.5" height="4.5"/>
	<rect x="161.7" y="120.6" class="st1" width="4.5" height="4.5"/>
	<polygon class="st1" points="145.5,130.2 145.5,111.2 126.8,111.2 126.8,95.3 110.9,95.3 110.9,79.7 92.2,79.7 92.2,95.3 
		92.2,98.5 92.2,111.2 92.2,114 92.2,130.2 92.2,131.8 92.2,145.8 108.1,145.8 110.9,145.8 126.8,145.8 143.9,145.8 145.5,145.8 
		164.5,145.8 164.5,130.2 	"/>
</g>
<circle class="st3" cx="191.9" cy="111.2" r="30.3"/>
<g>
	<path class="st3" d="M225.4,154.3c0-8.1-4.3-14.4-10.7-14.4h-44.9c-6.5,0-12.1,6.3-12.1,14.4v79.1h67.8V154.3z"/>
</g>
<polyline class="st4" points="203.5,225.8 175.5,225.8 175.5,233.2 203.5,233.2 203.5,225.8 "/>
<g>
	<polygon class="st5" points="294.5,169 280.5,168.9 203.5,168.9 203.5,233.4 294.5,233.4 294.5,183 	"/>
</g>
<path class="st3" d="M170.7,147.8l-10.3-2.6l-24,39.9l-59.1-24.7c-2.9-0.9-4.8,2.6-2.2,4l63.7,39.6c1.9,0.9,4.2,0.3,5.3-1.4
	l27.1-44.4L170.7,147.8z"/>
</svg>
