<?xml version="1.0" encoding="utf-8"?>
<!-- Generator: Adobe Illustrator 19.1.1, SVG Export Plug-In . SVG Version: 6.00 Build 0)  -->
<svg version="1.1" id="Layer_1" xmlns="http://www.w3.org/2000/svg" xmlns:xlink="http://www.w3.org/1999/xlink" x="0px" y="0px"
	 viewBox="0 0 300 250" style="enable-background:new 0 0 300 250;" xml:space="preserve">
<style type="text/css">
	.st0{fill:#B3BCE0;}
	.st1{fill:#C5CCE8;}
	.st2{fill:#D1D9F2;}
	.st3{fill:#CEDBEA;}
	.st4{opacity:0.6;fill:#8A93BC;}
	.st5{fill:#2E4472;}
	.st6{fill:#85A9CC;}
	.st7{fill:#6085B2;}
</style>
<path class="st0" d="M275.5,132.5c0,6.6-5.4,12-12,12h-106c-6.6,0-12-5.4-12-12v-106c0-6.6,5.4-12,12-12h106c6.6,0,12,5.4,12,12
	V132.5z"/>
<path class="st1" d="M181,110.5l14.5-16.3V76.3c0-3,2.3-3.8,4.9-3.8h59.1c2.6,0,5,0.8,5,3.8v44.6c0,3-2.5,7.6-5,7.6h-59.1
	c-2.6,0-4.9-4.5-4.9-7.6v-10.4H181z"/>
<path class="st2" d="M256.4,78.5l-17.9-18.9V33.3c0-3.5-1.3-4.8-4.2-4.8h-67.3c-2.9,0-6.6,1.4-6.6,4.8v56.7c0,3.5,3.6,8.4,6.6,8.4
	h67.3c2.9,0,4.2-5,4.2-8.4V78.5H256.4z"/>
<g>
	<path class="st3" d="M162.5,80.5H43.1c-6.8,0-12.6,5.3-12.6,12.2v130.1c0,6.8,5.8,12.7,12.6,12.7h130.1c6.8,0,12.2-5.9,12.2-12.7
		v-78.3h-23V80.5z"/>
	<path class="st4" d="M173.3,80.5h-10.8v64h23V92.7C185.5,85.8,180.1,80.5,173.3,80.5z"/>
</g>
<path class="st5" d="M179.5,216.5c0,6.6-5.4,12-12,12h-131c-6.6,0-12-5.4-12-12v-131c0-6.6,5.4-12,12-12h131c6.6,0,12,5.4,12,12
	V216.5z"/>
<rect x="40.5" y="104.5" class="st6" width="22" height="22"/>
<rect x="69.5" y="104.5" class="st7" width="93" height="22"/>
<rect x="40.5" y="144.5" class="st6" width="22" height="22"/>
<rect x="69.5" y="144.5" class="st7" width="93" height="22"/>
<rect x="40.5" y="182.5" class="st6" width="22" height="22"/>
<rect x="69.5" y="182.5" class="st7" width="93" height="22"/>
</svg>
