<?xml version="1.0" encoding="utf-8"?>
<!-- Generator: Adobe Illustrator 19.2.0, SVG Export Plug-In . SVG Version: 6.00 Build 0)  -->
<svg version="1.1" id="Layer_1" xmlns="http://www.w3.org/2000/svg" xmlns:xlink="http://www.w3.org/1999/xlink" x="0px" y="0px"
	 viewBox="0 0 1317.5 452.9" style="enable-background:new 0 0 1317.5 452.9;" xml:space="preserve">
<style type="text/css">
	.st0{clip-path:url(#SVGID_2_);fill:#804CA3;}
	.st1{clip-path:url(#SVGID_2_);}
	.st2{fill:#362B59;}
	.st3{opacity:0.6;clip-path:url(#SVGID_2_);fill:#A169F9;}
	.st4{opacity:0.6;clip-path:url(#SVGID_2_);fill:#FFFBFB;}
	.st5{clip-path:url(#SVGID_2_);fill:#362B59;}
	.st6{fill:url(#SVGID_3_);}
	.st7{clip-path:url(#SVGID_2_);fill:none;stroke:#766ACE;stroke-miterlimit:10;}
	.st8{fill:#766ACE;}
	.st9{clip-path:url(#SVGID_2_);fill:#1A172B;}
	.st10{clip-path:url(#SVGID_2_);fill:none;stroke:#1A172B;stroke-width:5;stroke-miterlimit:10;}
	.st11{opacity:0.5;fill:url(#SVGID_4_);}
	.st12{fill:#FFFFFF;}
	.st13{opacity:0.5;fill:url(#SVGID_5_);}
	.st14{opacity:0.5;fill:url(#SVGID_6_);}
	.st15{opacity:0.5;fill:url(#SVGID_7_);}
	.st16{opacity:0.5;fill:url(#SVGID_8_);}
	.st17{opacity:0.5;fill:url(#SVGID_9_);}
	.st18{opacity:0.5;fill:url(#SVGID_10_);}
	.st19{opacity:0.5;fill:url(#SVGID_11_);}
	.st20{opacity:0.5;fill:url(#SVGID_12_);}
	.st21{opacity:0.5;fill:url(#SVGID_13_);}
</style>
<g>
	<defs>
		<rect id="SVGID_1_" y="1" width="1317.1" height="452.9"/>
	</defs>
	<clipPath id="SVGID_2_">
		<use xlink:href="#SVGID_1_"  style="overflow:visible;"/>
	</clipPath>
	<path class="st0" d="M362.5,384.7c0,0,67.6,5.2,96.9-11c29.3-16.2,67.2-32,74.9-7.2c7.7,24.8-20.6,28.4-20.6,28.4s24.9,7.3,50-10.1
		c25-17.5,46.4-50.5,73.2-52.7s20.7,17.6,20.7,17.6s15.3-16.1,37.9-17.8c61.4-4.5,54,60.2,12.2,67.4c-24.8,4.3-49.5-7.5-66,9.8
		c-16.5,17.3,10.6,38,10.6,38l-290-12V384.7z"/>
	<path class="st0" d="M371.9,454.9l111.5-7.5c0,0,218,15,255.1-3.5c60-30,69-65.5,98.3-69.7c42.5-6,21,27.2,21,27.2
		s33.2-4.1,72.5-65c34.7-53.7,51.1-12.1,51.1-12.1s51.1-62,110-56.6c95.3,8.7,40,84.7,26.6,93.1c-21.5,13.5,7.7,47.1,50.3,20.2
		c31.3-19.8,34.2-20.5,45.6-15.4c11.4,5.1,5.7,15.4,5.7,15.4s25.7-18.5,55.6-15.4c29.9,3.1,29.2,22.1,22.8,35.8
		c-6.4,13.7-156.8,53.4-156.8,53.4H371.9z"/>
	<g class="st1">
		<polygon class="st2" points="457.9,344.7 306.8,412.9 227.2,383.1 0,452.9 154.3,452.9 684.8,452.9 		"/>
	</g>
	<circle class="st3" cx="550.2" cy="367.7" r="1.7"/>
	<circle class="st3" cx="870.4" cy="52.2" r="1.7"/>
	<circle class="st3" cx="446.8" cy="50.5" r="1.7"/>
	<circle class="st4" cx="854.6" cy="253.9" r="2"/>
	<ellipse class="st3" cx="1249.3" cy="431.9" rx="2" ry="2.2"/>
	<circle class="st3" cx="173.1" cy="159.3" r="2"/>
	<ellipse class="st3" cx="174.6" cy="356.5" rx="2" ry="2.2"/>
	<circle class="st4" cx="901.1" cy="177.3" r="2"/>
	<circle class="st3" cx="1031.5" cy="12.8" r="2"/>
	<circle class="st3" cx="596.8" cy="82.7" r="2"/>
	<circle class="st3" cx="546.8" cy="250.7" r="2"/>
	<circle class="st3" cx="236.7" cy="14.5" r="2"/>
	<circle class="st4" cx="1210.6" cy="107.4" r="2"/>
	<circle class="st3" cx="1242.4" cy="42.7" r="2"/>
	<circle class="st4" cx="787" cy="113.3" r="1.4"/>
	<circle class="st3" cx="261.8" cy="312.2" r="2.3"/>
	<polygon class="st5" points="1218.6,453.5 1129.5,414.1 1043.8,451.6 995,430 941.6,453.4 1048.1,453.5 1047.5,453.3 	"/>
	<g class="st1">
		<g>
			<linearGradient id="SVGID_3_" gradientUnits="userSpaceOnUse" x1="815.0073" y1="533.9713" x2="815.0073" y2="530.9713">
				<stop  offset="0" style="stop-color:#28233F"/>
				<stop  offset="1" style="stop-color:#28233F;stop-opacity:0.6"/>
			</linearGradient>
			<path class="st6" d="M815,534c1.9,0,1.9-3,0-3C813.1,531,813.1,534,815,534L815,534z"/>
		</g>
	</g>
	<polyline class="st7" points="0,453.6 227.2,383.5 306.8,413.1 	"/>
	<polyline class="st7" points="306.6,412.7 457.8,344.3 684.7,452.8 941.6,452.7 995,429.3 1043.7,450.9 1129.5,413.2 1218.6,452.4 
		1278.5,452.4 	"/>
	<g class="st1">
		<g>
			<path class="st8" d="M963.1,526.5c1.9,0,1.9-3,0-3C961.2,523.5,961.2,526.5,963.1,526.5L963.1,526.5z"/>
		</g>
	</g>
	<ellipse class="st3" cx="1256.6" cy="391.4" rx="2" ry="2.2"/>
	<path class="st9" d="M1210.4,291.8c0,0-7.6,48.4,9.8,99.9s24,83.9,24,83.9S1243.2,340.4,1210.4,291.8z"/>
	<path class="st9" d="M1251.1,298.2c0,0-2.9,117.9-5.9,139.5c-3,21.6-5.6,32.8-5.6,32.8S1297.9,425.6,1251.1,298.2z"/>
	<path class="st9" d="M1173,344.7c0,0,32.8,33.7,48.9,69.7s22.2,61.1,22.2,61.1S1197.4,413.1,1173,344.7z"/>
	<path class="st9" d="M1157.9,396.7c0,0,35.4,21.2,50.6,35c15.2,13.9,35.6,43.9,35.6,43.9S1189.5,449.6,1157.9,396.7z"/>
	<path class="st9" d="M1317.1,377.9c0,0-20.1,38.9-33.1,55.5s-40.3,38.3-40.3,38.3S1268.8,411.3,1317.1,377.9z"/>
	<path class="st9" d="M161.2,318.1c0,0,3.6,27.6,12.4,43.1c8.8,15.5,31.7,16,31.7,16S228.1,342.1,161.2,318.1z"/>
	<path class="st9" d="M244.6,353.4c0,0,1,19.8-3.4,32c-4.4,12.2-21.3,16.3-21.3,16.3S205.1,372.1,244.6,353.4z"/>
	<path class="st9" d="M259.6,391.2c0,0-4.9,15.1-11.8,22.6c-6.8,7.5-20.6,4.4-20.6,4.4S224.7,390.8,259.6,391.2z"/>
	<path class="st10" d="M191.7,362c0,0,29.5,23.3,39.8,69.5c5.9,26.7,5.4,43.5,5.4,43.5"/>
	<path class="st9" d="M168.1,384.1c0,0,9.2-4.1,19-3.9c9.8,0.2,13.8,2.3,20.6,6.9c6.8,4.6,8.5,7.4,8.5,7.4S191.7,413.2,168.1,384.1z
		"/>
	<path class="st9" d="M175.8,416.5c0,0,7.7-7.5,17.2-10.2c9.5-2.7,13.9-1.6,21.8,1.5c7.9,3.1,10.4,5.8,10.4,5.8
		S207.1,442.3,175.8,416.5z"/>
	<path class="st9" d="M230,429.5c0,0-17-0.7-24.7,7.3s-7.7,8-7.7,8S226.8,449.9,230,429.5z"/>
	<path class="st9" d="M231.7,428.6c0,0,8.5-2.4,14.8-1.5c6.3,0.9,14.3,5.8,14.3,5.8S244.3,446.9,231.7,428.6z"/>
	<path class="st9" d="M434.1,477c0,0-4.8-30.9-1.2-47.8c3.6-16.9,9.3-23.1,9.3-23.1l-3.1,58.8c0,0,8.5-39.7,20-56.2
		c11.5-16.5,23.4-18.9,23.4-18.9L449.1,447l48.4-36.3c0,0-16.7,24.3-26.8,30.6s-8.4,14.4-8.4,14.4l28-22.6L474,455.1L434.1,477z"/>
	<g class="st1">
		<radialGradient id="SVGID_4_" cx="1221.932" cy="270.8503" r="13.558" gradientUnits="userSpaceOnUse">
			<stop  offset="0" style="stop-color:#EDE5EC"/>
			<stop  offset="0.4054" style="stop-color:#EFE8EB;stop-opacity:0.5946"/>
			<stop  offset="0.7625" style="stop-color:#F6F3E7;stop-opacity:0.2375"/>
			<stop  offset="1" style="stop-color:#FEFFE2;stop-opacity:0"/>
		</radialGradient>
		<circle class="st11" cx="1221.9" cy="270.9" r="13.6"/>
		<circle class="st12" cx="1221.9" cy="270.9" r="5.5"/>
	</g>
	<g class="st1">
		<radialGradient id="SVGID_5_" cx="1128.2115" cy="331.0866" r="6.779" gradientUnits="userSpaceOnUse">
			<stop  offset="0" style="stop-color:#EDE5EC"/>
			<stop  offset="0.4054" style="stop-color:#EFE8EB;stop-opacity:0.5946"/>
			<stop  offset="0.7625" style="stop-color:#F6F3E7;stop-opacity:0.2375"/>
			<stop  offset="1" style="stop-color:#FEFFE2;stop-opacity:0"/>
		</radialGradient>
		<circle class="st13" cx="1128.2" cy="331.1" r="6.8"/>
		<circle class="st12" cx="1128.2" cy="331.1" r="2.8"/>
	</g>
	<g class="st1">
		<radialGradient id="SVGID_6_" cx="911.4451" cy="376.3197" r="6.779" gradientUnits="userSpaceOnUse">
			<stop  offset="0" style="stop-color:#EDE5EC"/>
			<stop  offset="0.4054" style="stop-color:#EFE8EB;stop-opacity:0.5946"/>
			<stop  offset="0.7625" style="stop-color:#F6F3E7;stop-opacity:0.2375"/>
			<stop  offset="1" style="stop-color:#FEFFE2;stop-opacity:0"/>
		</radialGradient>
		<circle class="st14" cx="911.4" cy="376.3" r="6.8"/>
		<circle class="st12" cx="911.4" cy="376.3" r="2.8"/>
	</g>
	<g class="st1">
		<radialGradient id="SVGID_7_" cx="821.0122" cy="429.7437" r="5.1162" gradientUnits="userSpaceOnUse">
			<stop  offset="0" style="stop-color:#EDE5EC"/>
			<stop  offset="0.4054" style="stop-color:#EFE8EB;stop-opacity:0.5946"/>
			<stop  offset="0.7625" style="stop-color:#F6F3E7;stop-opacity:0.2375"/>
			<stop  offset="1" style="stop-color:#FEFFE2;stop-opacity:0"/>
		</radialGradient>
		<circle class="st15" cx="821" cy="429.7" r="5.1"/>
		<circle class="st12" cx="821" cy="429.7" r="2.1"/>
	</g>
	<g class="st1">
		
			<radialGradient id="SVGID_8_" cx="1006.0373" cy="424.4317" r="5.1582" gradientTransform="matrix(1 0 0 1.124 0 -64.8075)" gradientUnits="userSpaceOnUse">
			<stop  offset="0" style="stop-color:#EDE5EC"/>
			<stop  offset="0.4054" style="stop-color:#EFE8EB;stop-opacity:0.5946"/>
			<stop  offset="0.7625" style="stop-color:#F6F3E7;stop-opacity:0.2375"/>
			<stop  offset="1" style="stop-color:#FEFFE2;stop-opacity:0"/>
		</radialGradient>
		<ellipse class="st16" cx="1006" cy="412.3" rx="5.2" ry="5.8"/>
		<ellipse class="st12" cx="1006" cy="412.3" rx="2.1" ry="2.4"/>
	</g>
	<g class="st1">
		<radialGradient id="SVGID_9_" cx="434.4748" cy="318.717" r="5.1162" gradientUnits="userSpaceOnUse">
			<stop  offset="0" style="stop-color:#EDE5EC"/>
			<stop  offset="0.4054" style="stop-color:#EFE8EB;stop-opacity:0.5946"/>
			<stop  offset="0.7625" style="stop-color:#F6F3E7;stop-opacity:0.2375"/>
			<stop  offset="1" style="stop-color:#FEFFE2;stop-opacity:0"/>
		</radialGradient>
		<circle class="st17" cx="434.5" cy="318.7" r="5.1"/>
		<circle class="st12" cx="434.5" cy="318.7" r="2.1"/>
	</g>
	<g class="st1">
		
			<radialGradient id="SVGID_10_" cx="512.0815" cy="414.9554" r="5.1582" gradientTransform="matrix(1 0 0 1.124 0 -64.8075)" gradientUnits="userSpaceOnUse">
			<stop  offset="0" style="stop-color:#EDE5EC"/>
			<stop  offset="0.4054" style="stop-color:#EFE8EB;stop-opacity:0.5946"/>
			<stop  offset="0.7625" style="stop-color:#F6F3E7;stop-opacity:0.2375"/>
			<stop  offset="1" style="stop-color:#FEFFE2;stop-opacity:0"/>
		</radialGradient>
		<ellipse class="st18" cx="512.1" cy="401.6" rx="5.2" ry="5.8"/>
		<ellipse class="st12" cx="512.1" cy="401.6" rx="2.1" ry="2.4"/>
	</g>
	<g class="st1">
		<radialGradient id="SVGID_11_" cx="212.1179" cy="324.3076" r="13.558" gradientUnits="userSpaceOnUse">
			<stop  offset="0" style="stop-color:#EDE5EC"/>
			<stop  offset="0.4054" style="stop-color:#EFE8EB;stop-opacity:0.5946"/>
			<stop  offset="0.7625" style="stop-color:#F6F3E7;stop-opacity:0.2375"/>
			<stop  offset="1" style="stop-color:#FEFFE2;stop-opacity:0"/>
		</radialGradient>
		<circle class="st19" cx="212.1" cy="324.3" r="13.6"/>
		<circle class="st12" cx="212.1" cy="324.3" r="5.5"/>
	</g>
	<g class="st1">
		<radialGradient id="SVGID_12_" cx="612.4641" cy="423.2956" r="7.9812" gradientUnits="userSpaceOnUse">
			<stop  offset="0" style="stop-color:#EDE5EC"/>
			<stop  offset="0.4054" style="stop-color:#EFE8EB;stop-opacity:0.5946"/>
			<stop  offset="0.7625" style="stop-color:#F6F3E7;stop-opacity:0.2375"/>
			<stop  offset="1" style="stop-color:#FEFFE2;stop-opacity:0"/>
		</radialGradient>
		<circle class="st20" cx="612.5" cy="423.3" r="8"/>
		<circle class="st12" cx="612.5" cy="423.3" r="3.3"/>
	</g>
	<g class="st1">
		<radialGradient id="SVGID_13_" cx="563.679" cy="368.0955" r="6.779" gradientUnits="userSpaceOnUse">
			<stop  offset="0" style="stop-color:#EDE5EC"/>
			<stop  offset="0.4054" style="stop-color:#EFE8EB;stop-opacity:0.5946"/>
			<stop  offset="0.7625" style="stop-color:#F6F3E7;stop-opacity:0.2375"/>
			<stop  offset="1" style="stop-color:#FEFFE2;stop-opacity:0"/>
		</radialGradient>
		<circle class="st21" cx="563.7" cy="368.1" r="6.8"/>
		<circle class="st12" cx="563.7" cy="368.1" r="2.8"/>
	</g>
</g>
</svg>
