<?xml version="1.0" encoding="utf-8"?>
<!-- Generator: Adobe Illustrator 19.2.1, SVG Export Plug-In . SVG Version: 6.00 Build 0)  -->
<svg version="1.1" id="Layer_1" xmlns="http://www.w3.org/2000/svg" xmlns:xlink="http://www.w3.org/1999/xlink" x="0px" y="0px"
	 viewBox="0 0 1317.5 452.9" style="enable-background:new 0 0 1317.5 452.9;" xml:space="preserve">
<style type="text/css">
	.st0{opacity:0.6;clip-path:url(#SVGID_2_);fill:#804CA3;}
	.st1{opacity:0.6;clip-path:url(#SVGID_4_);fill:#804CA3;}
	.st2{clip-path:url(#SVGID_6_);}
	.st3{fill:#362B59;}
	.st4{opacity:0.6;clip-path:url(#SVGID_8_);fill:#A169F9;enable-background:new    ;}
	.st5{opacity:0.6;clip-path:url(#SVGID_10_);fill:#A169F9;enable-background:new    ;}
	.st6{opacity:0.6;clip-path:url(#SVGID_12_);fill:#A169F9;enable-background:new    ;}
	.st7{opacity:0.6;clip-path:url(#SVGID_14_);fill:#FFFBFB;enable-background:new    ;}
	.st8{opacity:0.6;clip-path:url(#SVGID_16_);fill:#A169F9;enable-background:new    ;}
	.st9{opacity:0.6;clip-path:url(#SVGID_18_);fill:#A169F9;enable-background:new    ;}
	.st10{opacity:0.6;clip-path:url(#SVGID_20_);fill:#A169F9;enable-background:new    ;}
	.st11{opacity:0.6;clip-path:url(#SVGID_22_);fill:#FFFBFB;enable-background:new    ;}
	.st12{opacity:0.6;clip-path:url(#SVGID_24_);fill:#A169F9;enable-background:new    ;}
	.st13{opacity:0.6;clip-path:url(#SVGID_26_);fill:#A169F9;enable-background:new    ;}
	.st14{opacity:0.6;clip-path:url(#SVGID_28_);fill:#A169F9;enable-background:new    ;}
	.st15{opacity:0.6;clip-path:url(#SVGID_30_);fill:#A169F9;enable-background:new    ;}
	.st16{opacity:0.6;clip-path:url(#SVGID_32_);fill:#FFFBFB;enable-background:new    ;}
	.st17{opacity:0.6;clip-path:url(#SVGID_34_);fill:#A169F9;enable-background:new    ;}
	.st18{opacity:0.6;clip-path:url(#SVGID_36_);fill:#FFFBFB;enable-background:new    ;}
	.st19{opacity:0.6;clip-path:url(#SVGID_38_);fill:#A169F9;enable-background:new    ;}
	.st20{clip-path:url(#SVGID_40_);fill:#362B59;}
	.st21{clip-path:url(#SVGID_42_);}
	.st22{fill:url(#SVGID_43_);}
	.st23{clip-path:url(#SVGID_45_);fill:none;stroke:#766ACE;stroke-miterlimit:10;}
	.st24{clip-path:url(#SVGID_47_);fill:none;stroke:#766ACE;stroke-miterlimit:10;}
	.st25{clip-path:url(#SVGID_49_);}
	.st26{fill:#766ACE;}
	.st27{opacity:0.6;clip-path:url(#SVGID_51_);fill:#A169F9;enable-background:new    ;}
	.st28{clip-path:url(#SVGID_53_);fill:#1A172B;}
	.st29{clip-path:url(#SVGID_55_);fill:#1A172B;}
	.st30{clip-path:url(#SVGID_57_);fill:#1A172B;}
	.st31{clip-path:url(#SVGID_59_);fill:#1A172B;}
	.st32{clip-path:url(#SVGID_61_);fill:#1A172B;}
	.st33{clip-path:url(#SVGID_63_);fill:#1A172B;}
	.st34{clip-path:url(#SVGID_65_);fill:#1A172B;}
	.st35{clip-path:url(#SVGID_67_);fill:#1A172B;}
	.st36{clip-path:url(#SVGID_69_);fill:none;stroke:#1A172B;stroke-width:5;stroke-miterlimit:10;}
	.st37{clip-path:url(#SVGID_71_);fill:#1A172B;}
	.st38{clip-path:url(#SVGID_73_);fill:#1A172B;}
	.st39{clip-path:url(#SVGID_75_);fill:#1A172B;}
	.st40{clip-path:url(#SVGID_77_);fill:#1A172B;}
	.st41{clip-path:url(#SVGID_79_);fill:#1A172B;}
	.st42{clip-path:url(#SVGID_81_);}
	.st43{opacity:0.5;fill:url(#SVGID_82_);enable-background:new    ;}
	.st44{fill:#FFFFFF;}
	.st45{clip-path:url(#SVGID_84_);}
	.st46{opacity:0.5;fill:url(#SVGID_85_);enable-background:new    ;}
	.st47{clip-path:url(#SVGID_87_);}
	.st48{opacity:0.5;fill:url(#SVGID_88_);enable-background:new    ;}
	.st49{clip-path:url(#SVGID_90_);}
	.st50{opacity:0.5;fill:url(#SVGID_91_);enable-background:new    ;}
	.st51{clip-path:url(#SVGID_93_);}
	.st52{opacity:0.5;fill:url(#SVGID_94_);enable-background:new    ;}
	.st53{clip-path:url(#SVGID_96_);}
	.st54{opacity:0.5;fill:url(#SVGID_97_);enable-background:new    ;}
	.st55{clip-path:url(#SVGID_99_);}
	.st56{opacity:0.5;fill:url(#SVGID_100_);enable-background:new    ;}
	.st57{clip-path:url(#SVGID_102_);}
	.st58{opacity:0.5;fill:url(#SVGID_103_);enable-background:new    ;}
	.st59{clip-path:url(#SVGID_105_);}
	.st60{opacity:0.5;fill:url(#SVGID_106_);enable-background:new    ;}
	.st61{clip-path:url(#SVGID_108_);}
	.st62{opacity:0.5;fill:url(#SVGID_109_);enable-background:new    ;}
</style>
<g>
	<g>
		<defs>
			<rect id="SVGID_1_" y="1" width="1317.1" height="452.9"/>
		</defs>
		<clipPath id="SVGID_2_">
			<use xlink:href="#SVGID_1_"  style="overflow:visible;"/>
		</clipPath>
		<path class="st0" d="M362.5,384.7c0,0,67.6,5.2,96.9-11s67.2-32,74.9-7.2s-20.6,28.4-20.6,28.4s24.9,7.3,50-10.1
			c25-17.5,46.4-50.5,73.2-52.7s20.7,17.6,20.7,17.6s15.3-16.1,37.9-17.8c61.4-4.5,54,60.2,12.2,67.4c-24.8,4.3-49.5-7.5-66,9.8
			s10.6,38,10.6,38l-290-12v-50.4H362.5z"/>
	</g>
	<g>
		<defs>
			<rect id="SVGID_3_" y="1" width="1317.1" height="452.9"/>
		</defs>
		<clipPath id="SVGID_4_">
			<use xlink:href="#SVGID_3_"  style="overflow:visible;"/>
		</clipPath>
		<path class="st1" d="M371.9,454.9l111.5-7.5c0,0,218,15,255.1-3.5c60-30,69-65.5,98.3-69.7c42.5-6,21,27.2,21,27.2
			s33.2-4.1,72.5-65c34.7-53.7,51.1-12.1,51.1-12.1s51.1-62,110-56.6c95.3,8.7,40,84.7,26.6,93.1c-21.5,13.5,7.7,47.1,50.3,20.2
			c31.3-19.8,34.2-20.5,45.6-15.4s5.7,15.4,5.7,15.4s25.7-18.5,55.6-15.4s29.2,22.1,22.8,35.8c-6.4,13.7-156.8,53.4-156.8,53.4
			L371.9,454.9L371.9,454.9z"/>
	</g>
	<g>
		<defs>
			<rect id="SVGID_5_" y="1" width="1317.1" height="452.9"/>
		</defs>
		<clipPath id="SVGID_6_">
			<use xlink:href="#SVGID_5_"  style="overflow:visible;"/>
		</clipPath>
		<g class="st2">
			<polygon class="st3" points="457.9,344.7 306.8,412.9 227.2,383.1 0,452.9 154.3,452.9 684.8,452.9 			"/>
		</g>
	</g>
	<g>
		<defs>
			<rect id="SVGID_7_" y="1" width="1317.1" height="452.9"/>
		</defs>
		<clipPath id="SVGID_8_">
			<use xlink:href="#SVGID_7_"  style="overflow:visible;"/>
		</clipPath>
		<circle class="st4" cx="550.2" cy="367.7" r="1.7"/>
	</g>
	<g>
		<defs>
			<rect id="SVGID_9_" y="1" width="1317.1" height="452.9"/>
		</defs>
		<clipPath id="SVGID_10_">
			<use xlink:href="#SVGID_9_"  style="overflow:visible;"/>
		</clipPath>
		<circle class="st5" cx="870.4" cy="52.2" r="1.7"/>
	</g>
	<g>
		<defs>
			<rect id="SVGID_11_" y="1" width="1317.1" height="452.9"/>
		</defs>
		<clipPath id="SVGID_12_">
			<use xlink:href="#SVGID_11_"  style="overflow:visible;"/>
		</clipPath>
		<circle class="st6" cx="446.8" cy="50.5" r="1.7"/>
	</g>
	<g>
		<defs>
			<rect id="SVGID_13_" y="1" width="1317.1" height="452.9"/>
		</defs>
		<clipPath id="SVGID_14_">
			<use xlink:href="#SVGID_13_"  style="overflow:visible;"/>
		</clipPath>
		<circle class="st7" cx="854.6" cy="253.9" r="2"/>
	</g>
	<g>
		<defs>
			<rect id="SVGID_15_" y="1" width="1317.1" height="452.9"/>
		</defs>
		<clipPath id="SVGID_16_">
			<use xlink:href="#SVGID_15_"  style="overflow:visible;"/>
		</clipPath>
		<ellipse class="st8" cx="1249.3" cy="431.9" rx="2" ry="2.2"/>
	</g>
	<g>
		<defs>
			<rect id="SVGID_17_" y="1" width="1317.1" height="452.9"/>
		</defs>
		<clipPath id="SVGID_18_">
			<use xlink:href="#SVGID_17_"  style="overflow:visible;"/>
		</clipPath>
		<circle class="st9" cx="173.1" cy="159.3" r="2"/>
	</g>
	<g>
		<defs>
			<rect id="SVGID_19_" y="1" width="1317.1" height="452.9"/>
		</defs>
		<clipPath id="SVGID_20_">
			<use xlink:href="#SVGID_19_"  style="overflow:visible;"/>
		</clipPath>
		<ellipse class="st10" cx="174.6" cy="356.5" rx="2" ry="2.2"/>
	</g>
	<g>
		<defs>
			<rect id="SVGID_21_" y="1" width="1317.1" height="452.9"/>
		</defs>
		<clipPath id="SVGID_22_">
			<use xlink:href="#SVGID_21_"  style="overflow:visible;"/>
		</clipPath>
		<circle class="st11" cx="901.1" cy="177.3" r="2"/>
	</g>
	<g>
		<defs>
			<rect id="SVGID_23_" y="1" width="1317.1" height="452.9"/>
		</defs>
		<clipPath id="SVGID_24_">
			<use xlink:href="#SVGID_23_"  style="overflow:visible;"/>
		</clipPath>
		<circle class="st12" cx="1031.5" cy="12.8" r="2"/>
	</g>
	<g>
		<defs>
			<rect id="SVGID_25_" y="1" width="1317.1" height="452.9"/>
		</defs>
		<clipPath id="SVGID_26_">
			<use xlink:href="#SVGID_25_"  style="overflow:visible;"/>
		</clipPath>
		<circle class="st13" cx="596.8" cy="82.7" r="2"/>
	</g>
	<g>
		<defs>
			<rect id="SVGID_27_" y="1" width="1317.1" height="452.9"/>
		</defs>
		<clipPath id="SVGID_28_">
			<use xlink:href="#SVGID_27_"  style="overflow:visible;"/>
		</clipPath>
		<circle class="st14" cx="546.8" cy="250.7" r="2"/>
	</g>
	<g>
		<defs>
			<rect id="SVGID_29_" y="1" width="1317.1" height="452.9"/>
		</defs>
		<clipPath id="SVGID_30_">
			<use xlink:href="#SVGID_29_"  style="overflow:visible;"/>
		</clipPath>
		<circle class="st15" cx="236.7" cy="14.5" r="2"/>
	</g>
	<g>
		<defs>
			<rect id="SVGID_31_" y="1" width="1317.1" height="452.9"/>
		</defs>
		<clipPath id="SVGID_32_">
			<use xlink:href="#SVGID_31_"  style="overflow:visible;"/>
		</clipPath>
		<circle class="st16" cx="1210.6" cy="107.4" r="2"/>
	</g>
	<g>
		<defs>
			<rect id="SVGID_33_" y="1" width="1317.1" height="452.9"/>
		</defs>
		<clipPath id="SVGID_34_">
			<use xlink:href="#SVGID_33_"  style="overflow:visible;"/>
		</clipPath>
		<circle class="st17" cx="1242.4" cy="42.7" r="2"/>
	</g>
	<g>
		<defs>
			<rect id="SVGID_35_" y="1" width="1317.1" height="452.9"/>
		</defs>
		<clipPath id="SVGID_36_">
			<use xlink:href="#SVGID_35_"  style="overflow:visible;"/>
		</clipPath>
		<circle class="st18" cx="787" cy="113.3" r="1.4"/>
	</g>
	<g>
		<defs>
			<rect id="SVGID_37_" y="1" width="1317.1" height="452.9"/>
		</defs>
		<clipPath id="SVGID_38_">
			<use xlink:href="#SVGID_37_"  style="overflow:visible;"/>
		</clipPath>
		<circle class="st19" cx="261.8" cy="312.2" r="2.3"/>
	</g>
	<g>
		<defs>
			<rect id="SVGID_39_" y="1" width="1317.1" height="452.9"/>
		</defs>
		<clipPath id="SVGID_40_">
			<use xlink:href="#SVGID_39_"  style="overflow:visible;"/>
		</clipPath>
		<polygon class="st20" points="1218.6,453.5 1129.5,414.1 1043.8,451.6 995,430 941.6,453.4 1048.1,453.5 1047.5,453.3 		"/>
	</g>
	<g>
		<defs>
			<rect id="SVGID_41_" y="1" width="1317.1" height="452.9"/>
		</defs>
		<clipPath id="SVGID_42_">
			<use xlink:href="#SVGID_41_"  style="overflow:visible;"/>
		</clipPath>
		<g class="st21">
			<g>
				
					<linearGradient id="SVGID_43_" gradientUnits="userSpaceOnUse" x1="815" y1="-79.9713" x2="815" y2="-76.9713" gradientTransform="matrix(1 0 0 -1 0 454)">
					<stop  offset="0" style="stop-color:#28233F"/>
					<stop  offset="1" style="stop-color:#28233F;stop-opacity:0.6"/>
				</linearGradient>
				<path class="st22" d="M815,534c1.9,0,1.9-3,0-3S813.1,534,815,534L815,534z"/>
			</g>
		</g>
	</g>
	<g>
		<defs>
			<rect id="SVGID_44_" y="1" width="1317.1" height="452.9"/>
		</defs>
		<clipPath id="SVGID_45_">
			<use xlink:href="#SVGID_44_"  style="overflow:visible;"/>
		</clipPath>
		<polyline class="st23" points="0,453.6 227.2,383.5 306.8,413.1 		"/>
	</g>
	<g>
		<defs>
			<rect id="SVGID_46_" y="1" width="1317.1" height="452.9"/>
		</defs>
		<clipPath id="SVGID_47_">
			<use xlink:href="#SVGID_46_"  style="overflow:visible;"/>
		</clipPath>
		<polyline class="st24" points="306.6,412.7 457.8,344.3 684.7,452.8 941.6,452.7 995,429.3 1043.7,450.9 1129.5,413.2 
			1218.6,452.4 1278.5,452.4 		"/>
	</g>
	<g>
		<defs>
			<rect id="SVGID_48_" y="1" width="1317.1" height="452.9"/>
		</defs>
		<clipPath id="SVGID_49_">
			<use xlink:href="#SVGID_48_"  style="overflow:visible;"/>
		</clipPath>
		<g class="st25">
			<g>
				<path class="st26" d="M963.1,526.5c1.9,0,1.9-3,0-3C961.2,523.5,961.2,526.5,963.1,526.5L963.1,526.5z"/>
			</g>
		</g>
	</g>
	<g>
		<defs>
			<rect id="SVGID_50_" y="1" width="1317.1" height="452.9"/>
		</defs>
		<clipPath id="SVGID_51_">
			<use xlink:href="#SVGID_50_"  style="overflow:visible;"/>
		</clipPath>
		<ellipse class="st27" cx="1256.6" cy="391.4" rx="2" ry="2.2"/>
	</g>
	<g>
		<defs>
			<rect id="SVGID_52_" y="1" width="1317.1" height="452.9"/>
		</defs>
		<clipPath id="SVGID_53_">
			<use xlink:href="#SVGID_52_"  style="overflow:visible;"/>
		</clipPath>
		<path class="st28" d="M1210.4,291.8c0,0-7.6,48.4,9.8,99.9s24,83.9,24,83.9S1243.2,340.4,1210.4,291.8z"/>
	</g>
	<g>
		<defs>
			<rect id="SVGID_54_" y="1" width="1317.1" height="452.9"/>
		</defs>
		<clipPath id="SVGID_55_">
			<use xlink:href="#SVGID_54_"  style="overflow:visible;"/>
		</clipPath>
		<path class="st29" d="M1251.1,298.2c0,0-2.9,117.9-5.9,139.5s-5.6,32.8-5.6,32.8S1297.9,425.6,1251.1,298.2z"/>
	</g>
	<g>
		<defs>
			<rect id="SVGID_56_" y="1" width="1317.1" height="452.9"/>
		</defs>
		<clipPath id="SVGID_57_">
			<use xlink:href="#SVGID_56_"  style="overflow:visible;"/>
		</clipPath>
		<path class="st30" d="M1173,344.7c0,0,32.8,33.7,48.9,69.7s22.2,61.1,22.2,61.1S1197.4,413.1,1173,344.7z"/>
	</g>
	<g>
		<defs>
			<rect id="SVGID_58_" y="1" width="1317.1" height="452.9"/>
		</defs>
		<clipPath id="SVGID_59_">
			<use xlink:href="#SVGID_58_"  style="overflow:visible;"/>
		</clipPath>
		<path class="st31" d="M1157.9,396.7c0,0,35.4,21.2,50.6,35c15.2,13.9,35.6,43.9,35.6,43.9S1189.5,449.6,1157.9,396.7z"/>
	</g>
	<g>
		<defs>
			<rect id="SVGID_60_" y="1" width="1317.1" height="452.9"/>
		</defs>
		<clipPath id="SVGID_61_">
			<use xlink:href="#SVGID_60_"  style="overflow:visible;"/>
		</clipPath>
		<path class="st32" d="M1317.1,377.9c0,0-20.1,38.9-33.1,55.5s-40.3,38.3-40.3,38.3S1268.8,411.3,1317.1,377.9z"/>
	</g>
	<g>
		<defs>
			<rect id="SVGID_62_" y="1" width="1317.1" height="452.9"/>
		</defs>
		<clipPath id="SVGID_63_">
			<use xlink:href="#SVGID_62_"  style="overflow:visible;"/>
		</clipPath>
		<path class="st33" d="M161.2,318.1c0,0,3.6,27.6,12.4,43.1c8.8,15.5,31.7,16,31.7,16S228.1,342.1,161.2,318.1z"/>
	</g>
	<g>
		<defs>
			<rect id="SVGID_64_" y="1" width="1317.1" height="452.9"/>
		</defs>
		<clipPath id="SVGID_65_">
			<use xlink:href="#SVGID_64_"  style="overflow:visible;"/>
		</clipPath>
		<path class="st34" d="M244.6,353.4c0,0,1,19.8-3.4,32s-21.3,16.3-21.3,16.3S205.1,372.1,244.6,353.4z"/>
	</g>
	<g>
		<defs>
			<rect id="SVGID_66_" y="1" width="1317.1" height="452.9"/>
		</defs>
		<clipPath id="SVGID_67_">
			<use xlink:href="#SVGID_66_"  style="overflow:visible;"/>
		</clipPath>
		<path class="st35" d="M259.6,391.2c0,0-4.9,15.1-11.8,22.6c-6.8,7.5-20.6,4.4-20.6,4.4S224.7,390.8,259.6,391.2z"/>
	</g>
	<g>
		<defs>
			<rect id="SVGID_68_" y="1" width="1317.1" height="452.9"/>
		</defs>
		<clipPath id="SVGID_69_">
			<use xlink:href="#SVGID_68_"  style="overflow:visible;"/>
		</clipPath>
		<path class="st36" d="M191.7,362c0,0,29.5,23.3,39.8,69.5c5.9,26.7,5.4,43.5,5.4,43.5"/>
	</g>
	<g>
		<defs>
			<rect id="SVGID_70_" y="1" width="1317.1" height="452.9"/>
		</defs>
		<clipPath id="SVGID_71_">
			<use xlink:href="#SVGID_70_"  style="overflow:visible;"/>
		</clipPath>
		<path class="st37" d="M168.1,384.1c0,0,9.2-4.1,19-3.9s13.8,2.3,20.6,6.9s8.5,7.4,8.5,7.4S191.7,413.2,168.1,384.1z"/>
	</g>
	<g>
		<defs>
			<rect id="SVGID_72_" y="1" width="1317.1" height="452.9"/>
		</defs>
		<clipPath id="SVGID_73_">
			<use xlink:href="#SVGID_72_"  style="overflow:visible;"/>
		</clipPath>
		<path class="st38" d="M175.8,416.5c0,0,7.7-7.5,17.2-10.2s13.9-1.6,21.8,1.5c7.9,3.1,10.4,5.8,10.4,5.8S207.1,442.3,175.8,416.5z"
			/>
	</g>
	<g>
		<defs>
			<rect id="SVGID_74_" y="1" width="1317.1" height="452.9"/>
		</defs>
		<clipPath id="SVGID_75_">
			<use xlink:href="#SVGID_74_"  style="overflow:visible;"/>
		</clipPath>
		<path class="st39" d="M230,429.5c0,0-17-0.7-24.7,7.3s-7.7,8-7.7,8S226.8,449.9,230,429.5z"/>
	</g>
	<g>
		<defs>
			<rect id="SVGID_76_" y="1" width="1317.1" height="452.9"/>
		</defs>
		<clipPath id="SVGID_77_">
			<use xlink:href="#SVGID_76_"  style="overflow:visible;"/>
		</clipPath>
		<path class="st40" d="M231.7,428.6c0,0,8.5-2.4,14.8-1.5s14.3,5.8,14.3,5.8S244.3,446.9,231.7,428.6z"/>
	</g>
	<g>
		<defs>
			<rect id="SVGID_78_" y="1" width="1317.1" height="452.9"/>
		</defs>
		<clipPath id="SVGID_79_">
			<use xlink:href="#SVGID_78_"  style="overflow:visible;"/>
		</clipPath>
		<path class="st41" d="M434.1,477c0,0-4.8-30.9-1.2-47.8c3.6-16.9,9.3-23.1,9.3-23.1l-3.1,58.8c0,0,8.5-39.7,20-56.2
			s23.4-18.9,23.4-18.9L449.1,447l48.4-36.3c0,0-16.7,24.3-26.8,30.6s-8.4,14.4-8.4,14.4l28-22.6l-16.3,22L434.1,477z"/>
	</g>
	<g>
		<defs>
			<rect id="SVGID_80_" y="1" width="1317.1" height="452.9"/>
		</defs>
		<clipPath id="SVGID_81_">
			<use xlink:href="#SVGID_80_"  style="overflow:visible;"/>
		</clipPath>
		<g class="st42">
			
				<radialGradient id="SVGID_82_" cx="1221.932" cy="183.1497" r="13.5592" gradientTransform="matrix(1 0 0 -1 0 454)" gradientUnits="userSpaceOnUse">
				<stop  offset="0" style="stop-color:#EDE5EC"/>
				<stop  offset="0.4054" style="stop-color:#EFE8EB;stop-opacity:0.5946"/>
				<stop  offset="0.7625" style="stop-color:#F6F3E7;stop-opacity:0.2375"/>
				<stop  offset="1" style="stop-color:#FEFFE2;stop-opacity:0"/>
			</radialGradient>
			<circle class="st43" cx="1221.9" cy="270.9" r="13.6"/>
			<circle class="st44" cx="1221.9" cy="270.9" r="5.5"/>
		</g>
	</g>
	<g>
		<defs>
			<rect id="SVGID_83_" y="1" width="1317.1" height="452.9"/>
		</defs>
		<clipPath id="SVGID_84_">
			<use xlink:href="#SVGID_83_"  style="overflow:visible;"/>
		</clipPath>
		<g class="st45">
			
				<radialGradient id="SVGID_85_" cx="1128.2" cy="122.9" r="6.7915" gradientTransform="matrix(1 0 0 -1 0 454)" gradientUnits="userSpaceOnUse">
				<stop  offset="0" style="stop-color:#EDE5EC"/>
				<stop  offset="0.4054" style="stop-color:#EFE8EB;stop-opacity:0.5946"/>
				<stop  offset="0.7625" style="stop-color:#F6F3E7;stop-opacity:0.2375"/>
				<stop  offset="1" style="stop-color:#FEFFE2;stop-opacity:0"/>
			</radialGradient>
			<circle class="st46" cx="1128.2" cy="331.1" r="6.8"/>
			<circle class="st44" cx="1128.2" cy="331.1" r="2.8"/>
		</g>
	</g>
	<g>
		<defs>
			<rect id="SVGID_86_" y="1" width="1317.1" height="452.9"/>
		</defs>
		<clipPath id="SVGID_87_">
			<use xlink:href="#SVGID_86_"  style="overflow:visible;"/>
		</clipPath>
		<g class="st47">
			
				<radialGradient id="SVGID_88_" cx="911.4451" cy="77.6803" r="6.779" gradientTransform="matrix(1 0 0 -1 0 454)" gradientUnits="userSpaceOnUse">
				<stop  offset="0" style="stop-color:#EDE5EC"/>
				<stop  offset="0.4054" style="stop-color:#EFE8EB;stop-opacity:0.5946"/>
				<stop  offset="0.7625" style="stop-color:#F6F3E7;stop-opacity:0.2375"/>
				<stop  offset="1" style="stop-color:#FEFFE2;stop-opacity:0"/>
			</radialGradient>
			<circle class="st48" cx="911.4" cy="376.3" r="6.8"/>
			<circle class="st44" cx="911.4" cy="376.3" r="2.8"/>
		</g>
	</g>
	<g>
		<defs>
			<rect id="SVGID_89_" y="1" width="1317.1" height="452.9"/>
		</defs>
		<clipPath id="SVGID_90_">
			<use xlink:href="#SVGID_89_"  style="overflow:visible;"/>
		</clipPath>
		<g class="st49">
			
				<radialGradient id="SVGID_91_" cx="821.0122" cy="24.2563" r="5.1158" gradientTransform="matrix(1 0 0 -1 0 454)" gradientUnits="userSpaceOnUse">
				<stop  offset="0" style="stop-color:#EDE5EC"/>
				<stop  offset="0.4054" style="stop-color:#EFE8EB;stop-opacity:0.5946"/>
				<stop  offset="0.7625" style="stop-color:#F6F3E7;stop-opacity:0.2375"/>
				<stop  offset="1" style="stop-color:#FEFFE2;stop-opacity:0"/>
			</radialGradient>
			<circle class="st50" cx="821" cy="429.7" r="5.1"/>
			<circle class="st44" cx="821" cy="429.7" r="2.1"/>
		</g>
	</g>
	<g>
		<defs>
			<rect id="SVGID_92_" y="1" width="1317.1" height="452.9"/>
		</defs>
		<clipPath id="SVGID_93_">
			<use xlink:href="#SVGID_92_"  style="overflow:visible;"/>
		</clipPath>
		<g class="st51">
			
				<radialGradient id="SVGID_94_" cx="1006.0373" cy="61.0096" r="5.1582" gradientTransform="matrix(1 0 0 -1.124 0 480.8285)" gradientUnits="userSpaceOnUse">
				<stop  offset="0" style="stop-color:#EDE5EC"/>
				<stop  offset="0.4054" style="stop-color:#EFE8EB;stop-opacity:0.5946"/>
				<stop  offset="0.7625" style="stop-color:#F6F3E7;stop-opacity:0.2375"/>
				<stop  offset="1" style="stop-color:#FEFFE2;stop-opacity:0"/>
			</radialGradient>
			<ellipse class="st52" cx="1006" cy="412.3" rx="5.2" ry="5.8"/>
			<ellipse class="st44" cx="1006" cy="412.3" rx="2.1" ry="2.4"/>
		</g>
	</g>
	<g>
		<defs>
			<rect id="SVGID_95_" y="1" width="1317.1" height="452.9"/>
		</defs>
		<clipPath id="SVGID_96_">
			<use xlink:href="#SVGID_95_"  style="overflow:visible;"/>
		</clipPath>
		<g class="st53">
			
				<radialGradient id="SVGID_97_" cx="434.4748" cy="135.283" r="5.1211" gradientTransform="matrix(1 0 0 -1 0 454)" gradientUnits="userSpaceOnUse">
				<stop  offset="0" style="stop-color:#EDE5EC"/>
				<stop  offset="0.4054" style="stop-color:#EFE8EB;stop-opacity:0.5946"/>
				<stop  offset="0.7625" style="stop-color:#F6F3E7;stop-opacity:0.2375"/>
				<stop  offset="1" style="stop-color:#FEFFE2;stop-opacity:0"/>
			</radialGradient>
			<circle class="st54" cx="434.5" cy="318.7" r="5.1"/>
			<circle class="st44" cx="434.5" cy="318.7" r="2.1"/>
		</g>
	</g>
	<g>
		<defs>
			<rect id="SVGID_98_" y="1" width="1317.1" height="452.9"/>
		</defs>
		<clipPath id="SVGID_99_">
			<use xlink:href="#SVGID_98_"  style="overflow:visible;"/>
		</clipPath>
		<g class="st55">
			
				<radialGradient id="SVGID_100_" cx="512.0815" cy="70.488" r="5.1572" gradientTransform="matrix(1 0 0 -1.124 0 480.8285)" gradientUnits="userSpaceOnUse">
				<stop  offset="0" style="stop-color:#EDE5EC"/>
				<stop  offset="0.4054" style="stop-color:#EFE8EB;stop-opacity:0.5946"/>
				<stop  offset="0.7625" style="stop-color:#F6F3E7;stop-opacity:0.2375"/>
				<stop  offset="1" style="stop-color:#FEFFE2;stop-opacity:0"/>
			</radialGradient>
			<ellipse class="st56" cx="512.1" cy="401.6" rx="5.2" ry="5.8"/>
			<ellipse class="st44" cx="512.1" cy="401.6" rx="2.1" ry="2.4"/>
		</g>
	</g>
	<g>
		<defs>
			<rect id="SVGID_101_" y="1" width="1317.1" height="452.9"/>
		</defs>
		<clipPath id="SVGID_102_">
			<use xlink:href="#SVGID_101_"  style="overflow:visible;"/>
		</clipPath>
		<g class="st57">
			
				<radialGradient id="SVGID_103_" cx="212.1" cy="129.7" r="13.5631" gradientTransform="matrix(1 0 0 -1 0 454)" gradientUnits="userSpaceOnUse">
				<stop  offset="0" style="stop-color:#EDE5EC"/>
				<stop  offset="0.4054" style="stop-color:#EFE8EB;stop-opacity:0.5946"/>
				<stop  offset="0.7625" style="stop-color:#F6F3E7;stop-opacity:0.2375"/>
				<stop  offset="1" style="stop-color:#FEFFE2;stop-opacity:0"/>
			</radialGradient>
			<circle class="st58" cx="212.1" cy="324.3" r="13.6"/>
			<circle class="st44" cx="212.1" cy="324.3" r="5.5"/>
		</g>
	</g>
	<g>
		<defs>
			<rect id="SVGID_104_" y="1" width="1317.1" height="452.9"/>
		</defs>
		<clipPath id="SVGID_105_">
			<use xlink:href="#SVGID_104_"  style="overflow:visible;"/>
		</clipPath>
		<g class="st59">
			
				<radialGradient id="SVGID_106_" cx="612.4641" cy="30.7" r="7.9834" gradientTransform="matrix(1 0 0 -1 0 454)" gradientUnits="userSpaceOnUse">
				<stop  offset="0" style="stop-color:#EDE5EC"/>
				<stop  offset="0.4054" style="stop-color:#EFE8EB;stop-opacity:0.5946"/>
				<stop  offset="0.7625" style="stop-color:#F6F3E7;stop-opacity:0.2375"/>
				<stop  offset="1" style="stop-color:#FEFFE2;stop-opacity:0"/>
			</radialGradient>
			<circle class="st60" cx="612.5" cy="423.3" r="8"/>
			<circle class="st44" cx="612.5" cy="423.3" r="3.3"/>
		</g>
	</g>
	<g>
		<defs>
			<rect id="SVGID_107_" y="1" width="1317.1" height="452.9"/>
		</defs>
		<clipPath id="SVGID_108_">
			<use xlink:href="#SVGID_107_"  style="overflow:visible;"/>
		</clipPath>
		<g class="st61">
			
				<radialGradient id="SVGID_109_" cx="563.679" cy="85.9" r="6.7812" gradientTransform="matrix(1 0 0 -1 0 454)" gradientUnits="userSpaceOnUse">
				<stop  offset="0" style="stop-color:#EDE5EC"/>
				<stop  offset="0.4054" style="stop-color:#EFE8EB;stop-opacity:0.5946"/>
				<stop  offset="0.7625" style="stop-color:#F6F3E7;stop-opacity:0.2375"/>
				<stop  offset="1" style="stop-color:#FEFFE2;stop-opacity:0"/>
			</radialGradient>
			<circle class="st62" cx="563.7" cy="368.1" r="6.8"/>
			<circle class="st44" cx="563.7" cy="368.1" r="2.8"/>
		</g>
	</g>
</g>
</svg>
