<?xml version="1.0" encoding="utf-8"?>
<!-- Generator: Adobe Illustrator 19.2.0, SVG Export Plug-In . SVG Version: 6.00 Build 0)  -->
<svg version="1.1" id="Layer_1" xmlns="http://www.w3.org/2000/svg" xmlns:xlink="http://www.w3.org/1999/xlink" x="0px" y="0px"
	 viewBox="0 0 593 270" style="enable-background:new 0 0 593 270;" xml:space="preserve">
<style type="text/css">
	.st0{fill:#FFFFFF;}
	.st1{fill:#9999C9;}
	.st2{fill:#D69E63;}
	.st3{fill:#835631;}
	.st4{fill:#EAB97A;}
	.st5{fill:#020202;}
	.st6{fill:#1A2C35;}
	.st7{fill:url(#SVGID_1_);}
	.st8{fill:#845731;}
	.st9{fill:url(#SVGID_2_);}
	.st10{fill:#483729;}
	.st11{fill:#A05D29;}
	.st12{fill:#FFF5D9;}
	.st13{fill:#D69F63;}
	.st14{fill:#4C4277;}
	.st15{fill:#6E69AF;}
</style>
<rect x="321.3" y="181.7" class="st0" width="15" height="9.7"/>
<rect x="321.3" y="211.8" class="st0" width="15" height="9.7"/>
<rect x="321.3" y="241.8" class="st0" width="15" height="8.6"/>
<path class="st0" d="M308.7,108c0,0-25.3,3.4-28-12c-2.7-15.4,24.6-19,24.6-19s5.3-25.6,38.8-29.9c45.9-5.9,44.1,27.9,44.1,27.9
	s21.7-7.5,33.1,7.1c7.3,9.4,1.3,21.6-6.8,28.2c-9.3,7.7-21.6,10-33.4,8.8c-4-0.4-13.5-1.4-15.3-6.4
	C365.8,112.6,320.7,135.2,308.7,108z"/>
<path class="st1" d="M312.1,112.2c0,0-25.3,3.4-28-12c-2.7-15.4,24.6-19,24.6-19s5.3-25.6,38.8-29.9c45.9-5.9,44.1,27.9,44.1,27.9
	s21.7-7.5,33.1,7.1c7.3,9.4,1.3,21.6-6.8,28.2c-9.3,7.7-21.6,10-33.4,8.8c-4-0.4-13.5-1.4-15.3-6.4
	C369.1,116.8,324,139.5,312.1,112.2z"/>
<g>
	<path class="st1" d="M468,84.2c2.4,0,4.3,1.2,5.4,2.5l-0.9,1c-1.1-1.3-2.6-2-4.5-2c-4.5,0-7.3,3.5-7.3,9.3c0,5.7,2.8,9.3,7.2,9.3
		c2.1,0,3.8-0.9,5.3-2.6l0.9,0.9c-1.6,1.8-3.4,2.9-6.1,2.9c-5,0-8.6-4.2-8.6-10.7C459.2,88.3,462.7,84.2,468,84.2z"/>
	<path class="st1" d="M477.9,82.7h1.4v20.6c0,0.6,0.3,1,0.6,1c0.1,0,0.2,0,0.5-0.1l0.2,1.1c-0.3,0.1-0.5,0.1-1,0.1
		c-1.2,0-1.8-0.8-1.8-2.4V82.7z"/>
	<path class="st1" d="M490.7,89.8c3.6,0,6.8,2.9,6.8,7.9c0,4.9-3.1,7.8-6.8,7.8c-3.5,0-6.7-2.9-6.7-7.8
		C484,92.7,487.1,89.8,490.7,89.8z M490.7,104.3c3,0,5.3-2.7,5.3-6.7s-2.3-6.7-5.3-6.7s-5.3,2.7-5.3,6.7S487.7,104.3,490.7,104.3z"
		/>
	<path class="st1" d="M501.7,90.2h1.4v9.4c0,3.2,1,4.7,3.4,4.7c1.8,0,3.1-1,4.8-3V90.3h1.4v15h-1.2l-0.1-2.5h-0.1
		c-1.5,1.7-3,2.9-5,2.9c-3.1,0-4.5-1.8-4.5-5.7v-9.9H501.7z"/>
	<path class="st1" d="M523.8,89.8c1.8,0,3,0.6,4.5,1.8l-0.1-2.8v-6.2h1.4V105h-1.2l-0.1-1.9l0,0c-1.2,1.2-2.9,2.4-4.8,2.4
		c-3.8,0-6.2-2.8-6.2-7.8C517.3,92.9,520.3,89.8,523.8,89.8z M523.6,104.3c1.6,0,3.1-0.9,4.7-2.5v-8.9c-1.6-1.4-2.9-1.9-4.4-1.9
		c-3,0-5.3,2.9-5.3,6.7C518.6,101.7,520.4,104.3,523.6,104.3z"/>
</g>
<g>
	<path class="st1" d="M460.4,208.8c1.5,1.7,3.6,2.8,6,2.8c3.1,0,5.2-1.7,5.2-4.1c0-2.6-1.7-3.4-3.8-4.3l-3.1-1.4
		c-1.8-0.8-4.2-2-4.2-5.2c0-3,2.6-5,6-5c2.5,0,4.5,1.1,5.7,2.5l-0.9,1c-1.2-1.3-2.8-2.1-4.9-2.1c-2.7,0-4.5,1.4-4.5,3.6
		c0,2.4,2,3.3,3.5,4l3.1,1.4c2.3,1.1,4.3,2.4,4.3,5.5c0,3.1-2.6,5.5-6.5,5.5c-3,0-5.3-1.3-7-3.1L460.4,208.8z"/>
	<path class="st1" d="M482.3,197.1c3.5,0,5.7,2.6,5.7,7c0,0.3,0,0.8-0.1,1.1H477c0.1,3.8,2.3,6.4,5.7,6.4c1.6,0,2.9-0.5,4.1-1.4
		l0.5,1.1c-1.2,0.8-2.6,1.5-4.7,1.5c-3.9,0-7-2.9-7-7.8S478.9,197.1,482.3,197.1z M486.7,204.1c0-3.9-1.7-5.8-4.4-5.8
		c-2.6,0-4.8,2.3-5.2,5.8H486.7z"/>
	<path class="st1" d="M492,190.1h1.4v20.6c0,0.6,0.3,1,0.6,1c0.1,0,0.2,0,0.5-0.1l0.2,1.1c-0.3,0.1-0.5,0.1-1,0.1
		c-1.2,0-1.8-0.8-1.8-2.4V190.1z"/>
	<path class="st1" d="M505.2,191.3c-0.6-0.3-1.3-0.4-1.8-0.4c-1.6,0-2.4,1.3-2.4,3.4v3.2h3.4v1.2H501v13.7h-1.4v-13.7h-2v-1.1l2-0.1
		v-3.3c0-3,1.4-4.5,3.8-4.5c0.6,0,1.5,0.2,2.1,0.5L505.2,191.3z"/>
	<path class="st1" d="M505.7,204.1h6.9v1.2h-6.9L505.7,204.1L505.7,204.1z"/>
	<path class="st1" d="M516.6,190.1h1.4v6.4v3.3c1.6-1.6,3.1-2.7,5.2-2.7c3.1,0,4.5,1.8,4.5,5.7v9.7h-1.4V203c0-3.2-1-4.7-3.4-4.7
		c-1.8,0-3,1-4.9,2.8v11.3h-1.3V190.1z"/>
	<path class="st1" d="M538.5,197.1c3.6,0,6.8,2.9,6.8,7.9c0,4.9-3.1,7.8-6.8,7.8c-3.5,0-6.7-2.9-6.7-7.8
		C531.8,200,535,197.1,538.5,197.1z M538.5,211.6c3,0,5.3-2.7,5.3-6.7s-2.3-6.7-5.3-6.7c-3,0-5.3,2.7-5.3,6.7
		S535.5,211.6,538.5,211.6z"/>
	<path class="st1" d="M548.7,209.8c1.3,1.1,2.6,1.9,4.7,1.9c2.4,0,3.5-1.4,3.5-3c0-1.8-1.9-2.7-3.6-3.3c-2.3-0.9-4.7-1.7-4.7-4.3
		c0-2.1,1.7-4,4.8-4c1.6,0,3.2,0.6,4.3,1.6l-0.8,1c-1-0.8-2-1.4-3.5-1.4c-2.4,0-3.3,1.4-3.3,2.7c0,1.6,1.7,2.4,3.5,3
		c2.4,0.9,4.9,1.6,4.9,4.6c0,2.3-1.8,4.2-5,4.2c-2.3,0-4.2-1-5.5-2L548.7,209.8z"/>
	<path class="st1" d="M562.7,198.7h-2.4v-1.1l2.4-0.1l0.2-4.3h1.2v4.3h4.3v1.2h-4.3v9.8c0,1.9,0.4,3.2,2.6,3.2
		c0.5,0,1.4-0.2,1.8-0.4l0.3,1.1c-0.9,0.3-1.8,0.5-2.5,0.5c-2.9,0-3.8-1.8-3.8-4.5v-9.7H562.7z"/>
</g>
<g>
	<g>
		<circle class="st1" cx="310.6" cy="182.8" r="2.8"/>
		<circle class="st1" cx="300.8" cy="182.8" r="2.8"/>
		<circle class="st1" cx="291" cy="182.8" r="2.8"/>
		<circle class="st1" cx="310.6" cy="212" r="2.8"/>
		<circle class="st1" cx="300.8" cy="212" r="2.8"/>
		<circle class="st1" cx="291" cy="212" r="2.8"/>
		<circle class="st1" cx="310.6" cy="241.3" r="2.8"/>
		<circle class="st1" cx="300.8" cy="241.3" r="2.8"/>
		<circle class="st1" cx="291" cy="241.3" r="2.8"/>
		<circle class="st1" cx="291" cy="192.6" r="2.8"/>
		<circle class="st1" cx="291" cy="221.7" r="2.8"/>
		<circle class="st1" cx="291" cy="202.3" r="2.8"/>
		<circle class="st1" cx="291" cy="231.5" r="2.8"/>
		<g>
			<g>
				<path class="st1" d="M412.5,173.3c0-1.3-1.1-2.3-2.3-2.3h-90.9c-1.3,0-2.3,1.1-2.3,2.3v21.1c0,1.3,1.1,2.3,2.3,2.3h90.9
					c1.3,0,2.3-1.1,2.3-2.3V173.3z M333.1,189.4c0,0.5-0.4,1-1,1h-8.8c-0.5,0-1-0.4-1-1V186c0-0.5,0.4-1,1-1h8.8c0.5,0,1,0.4,1,1
					V189.4z"/>
				<path class="st1" d="M412.5,202.3c0-1.3-1.1-2.3-2.3-2.3h-90.9c-1.3,0-2.3,1.1-2.3,2.3v21.1c0,1.3,1.1,2.3,2.3,2.3h90.9
					c1.3,0,2.3-1.1,2.3-2.3V202.3z M333.1,219.5c0,0.5-0.4,1-1,1h-8.8c-0.5,0-1-0.4-1-1v-3.4c0-0.5,0.4-1,1-1h8.8c0.5,0,1,0.4,1,1
					V219.5z"/>
				<path class="st1" d="M412.5,231.3c0-1.3-1.1-2.3-2.3-2.3h-90.9c-1.3,0-2.3,1.1-2.3,2.3v21.1c0,1.3,1.1,2.3,2.3,2.3h90.9
					c1.3,0,2.3-1.1,2.3-2.3V231.3z M333.1,249.5c0,0.5-0.4,1-1,1h-8.8c-0.5,0-1-0.4-1-1v-3.4c0-0.5,0.4-1,1-1h8.8c0.5,0,1,0.4,1,1
					V249.5z"/>
			</g>
		</g>
	</g>
</g>
<g>
	<rect x="117.5" y="166" class="st2" width="36" height="23"/>
	<path class="st3" d="M110.5,59.1L35.8,5.7c0,0-6.6,47-5.6,62.4c0.9,13.5,4.1,28.2,13.3,38.7c8.8,10,23.2,11.2,33,1.8L110.5,59.1z"
		/>
	<path class="st3" d="M156.5,59.1l74.7-53.4c0,0,6.6,47,5.6,62.4c-0.9,13.5-4.1,28.2-13.3,38.7c-8.8,10-23.2,11.2-33,1.8L156.5,59.1
		z"/>
	<path class="st4" d="M175,49.2c-5.4-2.8-11.5-4.8-17.9-6.1c2.5-1.7,11.7-1.8,11.7-1.8s-2.6-1.7-6.5-2.6c-3.9-0.8-9.5,0.7-9.6,0.8
		c0,0,0.1,0,0.2-0.1l-0.3,0.1c0,0,4.6-2.8,6.4-6.2c-2,0.7-6.3,1.9-14.3,3.2c-16.6,2.6-35.1,8-35.1,8c-7.4,1.8-14,4.2-18.9,7
		C56.6,71,36.4,113.9,36.4,113.9s26.8,56.3,97.5,56.3c70,0,97.3-56.3,97.3-56.3S206.2,65.6,175,49.2z"/>
	<path class="st2" d="M105.6,86.8c0,0,9.5,6.6,10.6,24.6c0,0-12.8,4.8-26.5,2.5c16.7-1.9,21.7-6.5,21.7-6.5
		C112.8,100,105.6,86.8,105.6,86.8z"/>
	<path class="st0" d="M99.9,82.7c-20.1-9.7-32.5,14.1-35.4,19c-1.1,1.8,7.6,7,10.3,8.2l0,0c10.6,5.5,30.6,4.3,37.8,1.3
		C112.5,111.3,115.8,90.4,99.9,82.7"/>
	<path class="st2" d="M160.5,86.8c0,0-9.5,6.6-10.6,24.6c0,0,12.8,4.8,26.5,2.5c-16.7-1.9-21.7-6.5-21.7-6.5
		C153.4,100,160.5,86.8,160.5,86.8z"/>
	<path class="st5" d="M161.7,96c-0.1,7.7,5.4,14.1,12.4,14.2c6.9,0.1,12.7-6.1,12.8-13.8c0.1-7.7-5.4-14.1-12.4-14.2
		S161.8,88.2,161.7,96"/>
	<path class="st6" d="M174.3,96.2l9,9.8c0,0-4.1,4.3-8.3,4.2c-6.4-0.1-9.9-4.4-9.9-4.4L174.3,96.2z"/>
	<polygon class="st4" points="85.2,199.1 71.5,260.2 72.7,270.9 94.5,270.8 97.8,207.1 	"/>
	<path class="st0" d="M167,206.3l1.6,5.9l21.5-9.9c0,0-7.1-14.3-13.2-20.3c-0.3-0.2-0.6-0.4-1-0.9c-0.4-0.4-0.8-0.7-1.4-1.1
		c-3-1.9-7.5-3.9-11.4-5.4c0,0-0.1,0-0.1-0.1c-4.7-1.8-8.8-3.2-8.8-3.2s-6.6,13.9-18,13.8c-11.4,0-18-13.8-18-13.8
		c-5.7,0.6-21.3,8.7-21.3,8.7c-8,3.4-18.5,23-18.5,23l21.5,9.2l1.9-5.6L96.5,271h75l-4.6-63.5L167,206.3z"/>
	<path class="st0" d="M153.5,111.6c7.2,2.9,26.7,3.9,37.3-1.5l0,0c2.7-1.2,11.2-7,10.6-8.1c-2.5-5.1-15.7-28.3-35.8-18.7
		C149.8,90.8,153.5,111.6,153.5,111.6"/>
	
		<linearGradient id="SVGID_1_" gradientUnits="userSpaceOnUse" x1="160.3916" y1="174.8345" x2="191.2408" y2="174.8345" gradientTransform="matrix(1 0 0 -1 -0.1323 272.1345)">
		<stop  offset="0" style="stop-color:#1E9A63"/>
		<stop  offset="1" style="stop-color:#228181"/>
	</linearGradient>
	<ellipse class="st7" cx="175.7" cy="97.3" rx="15.8" ry="16.5"/>
	<polygon class="st8" points="82.4,211.5 97.5,213.6 97.2,218.4 81.3,216.2 	"/>
	<polygon class="st8" points="80.5,220 97.1,222.1 96.8,226.9 79.4,225 	"/>
	
		<linearGradient id="SVGID_2_" gradientUnits="userSpaceOnUse" x1="75.2953" y1="175.1345" x2="106.1446" y2="175.1345" gradientTransform="matrix(1 0 0 -1 -0.1323 272.1345)">
		<stop  offset="0" style="stop-color:#1E9A63"/>
		<stop  offset="1" style="stop-color:#228181"/>
	</linearGradient>
	<ellipse class="st9" cx="90.6" cy="97" rx="15.8" ry="16.5"/>
	<path class="st5" d="M101.8,97.8c0.1,6.6-4.6,12-10.6,12.1s-10.9-5.2-11-11.8c-0.1-6.6,4.6-12,10.6-12.1S101.7,91.2,101.8,97.8"/>
	<path class="st6" d="M91.1,98.3l-7.7,8c0,0,3.5,3.5,7.1,3.5c5.5-0.1,8.5-3.6,8.5-3.6L91.1,98.3z"/>
	<path class="st5" d="M185.7,97.8c0.1,6.6-4.6,12-10.6,12.1s-10.9-5.2-11-11.8c-0.1-6.6,4.6-12,10.6-12.1S185.6,91.2,185.7,97.8"/>
	<path class="st6" d="M174.9,98.3l-7.7,8c0,0,3.5,3.5,7.1,3.5c5.5-0.1,8.5-3.6,8.5-3.6L174.9,98.3z"/>
	<path class="st3" d="M182.8,54c0,0-1.8,10.2-10.3,18.3c0,0,15.3-2.7,21.4-9C194,63.4,188.5,57.9,182.8,54z"/>
	<path class="st3" d="M85.3,54c0,0,1.8,10.2,10.3,18.3c0,0-15.3-2.8-21.4-9C74.2,63.3,83.4,55.3,85.3,54z"/>
	<path class="st10" d="M93.9,49.8l2.2-1L35.8,5l38.5,58.3C78.7,59.4,85.1,54,93.9,49.8z"/>
	<path class="st10" d="M194,63.4l37.3-57.7l-59.1,42.2l3,1.5C179.6,51.8,186.6,56.2,194,63.4z"/>
	<path class="st11" d="M148.1,79L148.1,79L148.1,79z"/>
	<path class="st3" d="M167.1,45.8c-1.6-0.6-4.2-1.3-5-1.5c1.3,1.3,3.3,4,2.3,7.7c-0.7,1.7-2.6,4.8-8.4,9.3
		c-4.7,3.2-12.9,10.2-7.9,17.8c0,0,0-0.7,0.1-1.9c-0.1,0.6-0.1,1.2-0.1,1.9c0-0.7,0.5-8.8,12.9-14.2c0.1,0,10.7-4.5,11.6-10
		C173.5,50.4,169,46.9,167.1,45.8z"/>
	<path class="st3" d="M101.1,46.7c1.6-0.6,4.2-1.3,5-1.5c-1.3,1.3-3.3,3-2.3,6.7c0.7,1.7,2.6,4.8,8.4,9.3
		c4.7,3.2,12.9,10.2,7.9,17.8c0,0,0-0.7-0.1-1.9c0.1,0.6,0.1,1.2,0.1,1.9c0-0.7-0.5-8.8-12.9-14.2c-0.1,0-10.7-4.5-11.6-10
		C94.7,50.4,99.2,47.9,101.1,46.7z"/>
	<path class="st8" d="M40.9,105.3c0,0-2,3.3-2.6,4.4c-0.4,0.7-2.2,4.3-2.2,4.3s1.4,2.2,2.9,4.7s4.9,7.1,4.9,7.1s3.8,0.1,13.1-1.8
		c9-1.8,19.9-6.3,19.9-6.3C55.7,113.3,40.9,105.3,40.9,105.3z"/>
	<path class="st8" d="M226.4,105.3c0,0,2,3.3,2.6,4.4c0.4,0.7,2.2,4.1,2.2,4.1s-0.8,1.7-2.8,4.9c-1.6,2.5-4.9,7.1-4.9,7.1
		s-3.8,0.1-13.1-1.8c-9-1.8-19.9-6.3-19.9-6.3C211.6,113.3,226.4,105.3,226.4,105.3z"/>
	<rect x="82.5" y="87" class="st12" width="5" height="4"/>
	<rect x="166.5" y="87" class="st12" width="4" height="4"/>
	<g>
		<path class="st13" d="M120.2,123.4l-1.3-0.9c0,0,2.2,5.7,5.6,7.8c4.1,2.6,9.7,4.4,9.7,4.4s8.9-3.9,11.5-6.1c3.5-2.9,3.5-6,3.5-6
			l-7,1.3l-5.5,3.4l-8-1.7L120.2,123.4z"/>
	</g>
	<g>
		<path class="st8" d="M121.2,141.3c8.7-0.5,12-4.6,12-4.6l0.8,1.7c-2.2,1.2-11.7,8.6-22,2.5c-4.1-2.4-5.4-7.6-5.4-7.6
			S110.5,141.9,121.2,141.3z"/>
	</g>
	<g>
		<path class="st8" d="M147.2,141.3c-8.7-0.5-12-4.6-12-4.6l-0.8,1.7c2.2,1.2,11.7,8.6,22,2.5c4.1-2.4,5.4-7.6,5.4-7.6
			S158,141.9,147.2,141.3z"/>
	</g>
	<path d="M122.4,122.5h-3.6c0,0,1.1,2.5,3,4.7s4.2,2.5,4.2,2.5S120.8,124.9,122.4,122.5z"/>
	<path d="M145.6,122.5h3.6c0,0-0.1,2.7-2.7,4.8c-2.2,1.8-4.2,2.5-4.2,2.5S149.1,124.1,145.6,122.5z"/>
	<path class="st8" d="M135.2,138.9l-0.9-0.6l-1.2,0.7c0,0-1-1.1-0.7-1.2c1-0.7,1.1-1.6,1.1-2.8c0-1.8-0.5-3-0.5-3h2.2
		c0,0-0.4,1.5-0.4,3c0,1,0.3,2.2,1.1,2.6C136.3,137.9,135.2,138.9,135.2,138.9z"/>
	<path class="st10" d="M118.9,122.5c0,0,3.3-1.6,5.4-1.3c2.2,0.3,5.9,2.8,9.9,2.8s6.3-2.8,9.7-2.8c3.3,0,5.3,1.4,5.3,1.4
		S139,132,134.5,132C131.3,131.9,126.8,129.2,118.9,122.5z"/>
	<path class="st14" d="M112.8,171.5c0,0,5.8,28.6,7.7,49.8c1.9,21.1,0,49.7,0,49.7h-24l3.3-58.7l-0.5-0.1l-4.4,58.6L72.5,271v-12.2
		l6.3-55.7C78.8,203.1,82.6,179.4,112.8,171.5z"/>
	<path class="st15" d="M117.6,199.6l-20-22.1c0,0,1.8-4.8,8.3-7.9c3.2-1.5,6.8-1.2,6.8-1.2l5.3,0.7v2.3l-5.3,1.5
		C112.8,172.8,118.9,183.7,117.6,199.6z"/>
	<path class="st14" d="M159,171.5c0,0-5.8,28.6-7.7,49.8c-1.9,21.1,0,49.7,0,49.7l23.9,0.1l-3.3-58.7l0.5-0.1l5,58.6l23.1,0.1v-12.2
		l-6.9-55.7C193.6,203.1,189.1,179.4,159,171.5z"/>
	<path class="st15" d="M154.1,199.6l20-22.1c0,0-1.8-4.8-8.3-7.9c-3.2-1.5-6.8-1.2-6.8-1.2l-5.3,0.7v2.3l5.3,1.5
		C159,172.8,152.9,183.7,154.1,199.6z"/>
	<ellipse class="st15" cx="113.5" cy="217.1" rx="2.1" ry="4.3"/>
	<ellipse class="st15" cx="115.7" cy="247.5" rx="2.1" ry="4.3"/>
</g>
</svg>
