<?xml version="1.0" encoding="utf-8"?>
<!-- Generator: Adobe Illustrator 19.2.0, SVG Export Plug-In . SVG Version: 6.00 Build 0)  -->
<svg version="1.1" id="Layer_1" xmlns="http://www.w3.org/2000/svg" xmlns:xlink="http://www.w3.org/1999/xlink" x="0px" y="0px"
	 viewBox="0 0 464.8 223" style="enable-background:new 0 0 464.8 223;" xml:space="preserve">
<style type="text/css">
	.st0{opacity:0.6;clip-path:url(#SVGID_2_);fill:#8C90AF;enable-background:new    ;}
	.st1{clip-path:url(#SVGID_4_);fill:#4C4277;}
	.st2{clip-path:url(#SVGID_6_);fill:#FFFFFF;}
	.st3{clip-path:url(#SVGID_8_);fill:#4C4277;}
	.st4{clip-path:url(#SVGID_10_);fill:#E4E2F2;}
	.st5{clip-path:url(#SVGID_12_);}
	.st6{fill:#FFFFFF;}
	.st7{clip-path:url(#SVGID_14_);}
	.st8{fill:#4C4277;}
	.st9{clip-path:url(#SVGID_16_);}
	.st10{opacity:0.65;clip-path:url(#SVGID_18_);fill:none;stroke:#817FB2;stroke-miterlimit:10;enable-background:new    ;}
	.st11{clip-path:url(#SVGID_20_);}
	.st12{fill:#6D6A9B;}
	.st13{clip-path:url(#SVGID_22_);}
	.st14{clip-path:url(#SVGID_24_);}
	.st15{clip-path:url(#SVGID_26_);}
	.st16{clip-path:url(#SVGID_28_);}
	.st17{opacity:0.65;clip-path:url(#SVGID_30_);fill:none;stroke:#817FB2;stroke-miterlimit:10;enable-background:new    ;}
	.st18{clip-path:url(#SVGID_32_);}
	.st19{clip-path:url(#SVGID_34_);}
	.st20{opacity:0.65;fill:none;stroke:#BFBFD8;stroke-miterlimit:10;enable-background:new    ;}
</style>
<g>
	<g>
		<g>
			<defs>
				<rect id="SVGID_1_" x="-16.1" y="-1.5" width="480.9" height="224.5"/>
			</defs>
			<clipPath id="SVGID_2_">
				<use xlink:href="#SVGID_1_"  style="overflow:visible;"/>
			</clipPath>
			<rect x="22.7" y="18.5" class="st0" width="442.1" height="204.5"/>
		</g>
	</g>
	<g>
		<g>
			<defs>
				<rect id="SVGID_3_" x="-16.1" y="-1.5" width="480.9" height="224.5"/>
			</defs>
			<clipPath id="SVGID_4_">
				<use xlink:href="#SVGID_3_"  style="overflow:visible;"/>
			</clipPath>
			<rect x="0.4" y="4.3" class="st1" width="453.8" height="266.9"/>
		</g>
	</g>
	<g>
		<g>
			<defs>
				<rect id="SVGID_5_" x="-16.1" y="-1.5" width="480.9" height="224.5"/>
			</defs>
			<clipPath id="SVGID_6_">
				<use xlink:href="#SVGID_5_"  style="overflow:visible;"/>
			</clipPath>
			<rect x="3.9" y="5.5" class="st2" width="448" height="257.4"/>
		</g>
	</g>
	<g>
		<g>
			<defs>
				<rect id="SVGID_7_" x="-16.1" y="-1.5" width="480.9" height="224.5"/>
			</defs>
			<clipPath id="SVGID_8_">
				<use xlink:href="#SVGID_7_"  style="overflow:visible;"/>
			</clipPath>
			<rect x="0.6" y="4.3" class="st3" width="452.4" height="43.5"/>
		</g>
	</g>
	<g>
		<g>
			<defs>
				<rect id="SVGID_9_" x="-16.1" y="-1.5" width="480.9" height="224.5"/>
			</defs>
			<clipPath id="SVGID_10_">
				<use xlink:href="#SVGID_9_"  style="overflow:visible;"/>
			</clipPath>
			<rect x="3.9" y="47.9" class="st4" width="448" height="41.3"/>
		</g>
	</g>
	<g>
		<g>
			<defs>
				<rect id="SVGID_11_" x="-16.1" y="-1.5" width="480.9" height="224.5"/>
			</defs>
			<clipPath id="SVGID_12_">
				<use xlink:href="#SVGID_11_"  style="overflow:visible;"/>
			</clipPath>
			<g class="st5">
				<path class="st6" d="M27.7,32h-6.9l-1.9,5.9h-1.3l6.2-17.5h1.2l6.2,17.5h-1.5L27.7,32z M27.3,30.9l-1.2-3.3
					c-0.7-2.1-1.3-3.9-1.9-6.1H24c-0.6,2.1-1.2,4-1.9,6.1l-1.2,3.3H27.3z"/>
				<path class="st6" d="M33.1,25.2h1.2v8c0,2.7,0.8,4,2.9,4c1.6,0,2.5-0.8,4.1-2.5v-9.5h1.2V38h-1L41.5,36l0,0
					c-1.3,1.5-2.5,2.4-4.4,2.4c-2.5,0-3.9-1.7-3.9-5L33.1,25.2L33.1,25.2z"/>
				<path class="st6" d="M52.1,24.9c1.6,0,2.5,0.6,3.9,1.6v-2.3v-5.3h1.2V38h-1.1L56,36.3h-0.1c-1.1,1.1-2.4,1.9-4.1,1.9
					c-3.2,0-5.3-2.3-5.3-6.7C46.4,27.5,49,24.9,52.1,24.9z M51.8,37.2c1.5,0,2.7-0.7,4-2.1v-7.6c-1.5-1.2-2.4-1.7-3.8-1.7
					c-2.5,0-4.5,2.4-4.5,5.6C47.6,35,49.2,37.2,51.8,37.2z"/>
				<path class="st6" d="M61.4,21c0-0.7,0.5-1.1,1.1-1.1s1.1,0.4,1.1,1.1c0,0.6-0.5,1.1-1.1,1.1S61.4,21.8,61.4,21z M61.9,25.2h1.2
					V38h-1.2V25.2z"/>
				<path class="st6" d="M68.3,26.1h-1.9v-1l1.9-0.1l0.1-3.6h1.1V25h3.8v1.1h-3.6v8.4c0,1.7,0.4,2.7,2.1,2.7c0.5,0,1.2-0.2,1.7-0.4
					l0.4,1c-0.7,0.2-1.6,0.5-2.1,0.5c-2.4,0-3.2-1.6-3.2-3.9L68.3,26.1L68.3,26.1z"/>
				<path class="st6" d="M81.7,20.4h1.2v16.5H91V38h-9.3V20.4z"/>
				<path class="st6" d="M98.3,24.9c3,0,5.7,2.4,5.7,6.7s-2.7,6.7-5.7,6.7s-5.7-2.4-5.7-6.7C92.5,27.3,95.2,24.9,98.3,24.9z
					 M98.3,37.2c2.5,0,4.6-2.2,4.6-5.6c0-3.4-1.9-5.6-4.6-5.6c-2.7,0-4.5,2.3-4.5,5.6C93.8,35,95.6,37.2,98.3,37.2z"/>
				<path class="st6" d="M108.8,37.4L108.8,37.4c-0.6-0.5-1.2-1.2-1.2-2.1c0-1.2,0.8-1.9,1.5-2.3v-0.1c-0.8-0.7-1.7-1.9-1.7-3.5
					c0-2.5,1.9-4.5,4.5-4.5c0.7,0,1.3,0.1,1.7,0.4h4.4v1h-2.9c0.8,0.7,1.5,1.8,1.5,3.2c0,2.5-1.9,4.5-4.5,4.5
					c-0.7,0-1.6-0.2-2.1-0.6c-0.6,0.5-1.1,1-1.1,1.8c0,1,0.6,1.7,2.4,1.7h2.7c2.8,0,4.2,1,4.2,2.9c0,2.2-2.3,4.4-5.9,4.4
					c-3.2,0-5.3-1.5-5.3-3.5C106.8,39.5,107.5,38.3,108.8,37.4z M112.2,43.1c2.8,0,4.7-1.7,4.7-3.2S115.8,38,114,38h-2.7
					c-0.2,0-1,0-1.7-0.2c-1.2,0.8-1.7,1.8-1.7,2.7C107.9,42,109.5,43.1,112.2,43.1z M115.2,29.4c0-2.1-1.6-3.5-3.3-3.5
					c-1.8,0-3.3,1.5-3.3,3.5c0,2.1,1.6,3.6,3.3,3.6C113.6,33,115.2,31.5,115.2,29.4z"/>
			</g>
		</g>
	</g>
	<g>
		<g>
			<defs>
				<rect id="SVGID_13_" x="-16.1" y="-1.5" width="480.9" height="224.5"/>
			</defs>
			<clipPath id="SVGID_14_">
				<use xlink:href="#SVGID_13_"  style="overflow:visible;"/>
			</clipPath>
			<g class="st7">
				<path class="st8" d="M23.9,63.5h-5.6v-1.1h12.4v1.1h-5.6V80h-1.2V63.5z"/>
				<path class="st8" d="M33.4,63c0-0.7,0.5-1.1,1.1-1.1s1.1,0.4,1.1,1.1c0,0.6-0.5,1.1-1.1,1.1C33.9,64,33.4,63.5,33.4,63z
					 M33.9,67.2h1.2V80h-1.2V67.2z"/>
				<path class="st8" d="M39.9,67.2H41l0.1,1.9h0.1c1.2-1.3,2.5-2.2,4-2.2c1.9,0,3,1.1,3.5,2.5c1.5-1.7,2.8-2.5,4.4-2.5
					c2.5,0,3.9,1.7,3.9,5v8.3h-1.2v-8c0-2.7-1-4-2.8-4c-1.2,0-2.4,0.8-3.9,2.3V80h-1.2v-8c0-2.7-1-4-2.8-4c-1.2,0-2.4,0.8-3.9,2.3
					v9.6h-1.2L39.9,67.2L39.9,67.2z"/>
				<path class="st8" d="M66,66.8c3,0,5,2.1,5,5.8c0,0.4,0,0.6,0,1h-9.2c0,3.2,1.9,5.6,4.9,5.6c1.5,0,2.4-0.5,3.4-1.2l0.5,1
					c-1.1,0.6-2.1,1.3-4,1.3c-3.3,0-5.8-2.4-5.8-6.7C60.6,69.3,63.2,66.8,66,66.8z M69.9,72.7c0-3.3-1.5-5-3.8-5
					c-2.2,0-4.1,1.8-4.4,5H69.9z"/>
			</g>
		</g>
	</g>
	<g>
		<g>
			<defs>
				<rect id="SVGID_15_" x="-16.1" y="-1.5" width="480.9" height="224.5"/>
			</defs>
			<clipPath id="SVGID_16_">
				<use xlink:href="#SVGID_15_"  style="overflow:visible;"/>
			</clipPath>
			<g class="st9">
				<path class="st8" d="M243.6,73.9h-6.9l-1.9,5.9h-1.3l6.2-17.5h1.2l6.2,17.5h-1.3L243.6,73.9z M243.2,72.9l-1.2-3.3
					c-0.7-2.1-1.3-3.9-1.9-6.1H240c-0.6,2.1-1.2,4-1.9,6.1l-1.2,3.3H243.2z"/>
				<path class="st8" d="M254.3,66.8c1.8,0,2.9,0.8,3.8,1.6l-0.7,0.8c-0.8-0.8-1.8-1.5-3-1.5c-2.5,0-4.6,2.3-4.6,5.6
					c0,3.4,1.8,5.6,4.6,5.6c1.5,0,2.5-0.7,3.4-1.5l0.6,0.8c-1.1,1-2.4,1.8-4.1,1.8c-3.3,0-5.7-2.4-5.7-6.7
					C248.5,69.2,251.1,66.8,254.3,66.8z"/>
				<path class="st8" d="M261.8,68.1h-1.9v-1l1.9-0.1l0.1-3.6h1.1V67h3.8v1.1H263v8.4c0,1.7,0.4,2.7,2.1,2.7c0.5,0,1.2-0.2,1.7-0.4
					l0.4,1c-0.7,0.2-1.6,0.5-2.1,0.5c-2.4,0-3.2-1.6-3.2-3.9v-8.3H261.8z"/>
				<path class="st8" d="M269.3,63c0-0.7,0.5-1.1,1.1-1.1c0.6,0,1.1,0.4,1.1,1.1c0,0.6-0.5,1.1-1.1,1.1
					C269.8,64,269.3,63.5,269.3,63z M269.8,67.2h1.2V80h-1.2V67.2z"/>
				<path class="st8" d="M280.5,66.8c3,0,5.7,2.4,5.7,6.7c0,4.2-2.7,6.7-5.7,6.7s-5.7-2.4-5.7-6.7C274.8,69.2,277.5,66.8,280.5,66.8
					z M280.5,79.2c2.5,0,4.6-2.2,4.6-5.6c0-3.4-1.9-5.6-4.6-5.6s-4.5,2.3-4.5,5.6S278,79.2,280.5,79.2z"/>
				<path class="st8" d="M290.1,67.2h1.1l0.1,1.9h0.1c1.3-1.3,2.5-2.2,4.4-2.2c2.5,0,3.9,1.7,3.9,5v8.3h-1.2v-8c0-2.7-0.8-4-2.9-4
					c-1.6,0-2.5,0.8-4.2,2.3V80h-1.2L290.1,67.2L290.1,67.2z"/>
			</g>
		</g>
	</g>
	<g>
		<g>
			<defs>
				<rect id="SVGID_17_" x="-16.1" y="-1.5" width="480.9" height="224.5"/>
			</defs>
			<clipPath id="SVGID_18_">
				<use xlink:href="#SVGID_17_"  style="overflow:visible;"/>
			</clipPath>
			<line class="st10" x1="222" y1="47.9" x2="222" y2="264.1"/>
		</g>
	</g>
	<g>
		<g>
			<defs>
				<rect id="SVGID_19_" x="-16.1" y="-1.5" width="480.9" height="224.5"/>
			</defs>
			<clipPath id="SVGID_20_">
				<use xlink:href="#SVGID_19_"  style="overflow:visible;"/>
			</clipPath>
			<g class="st11">
				<path class="st12" d="M18.6,119c0-5.6,1.8-8.9,5.1-8.9s5.1,3.2,5.1,8.9c0,5.6-1.8,9-5.1,9C20.4,127.8,18.6,124.7,18.6,119z
					 M27.6,119c0-5.2-1.6-7.8-3.9-7.8s-3.9,2.5-3.9,7.8c0,5.2,1.6,7.9,3.9,7.9C26.1,126.9,27.6,124.2,27.6,119z"/>
				<path class="st12" d="M34.5,118.4L34.5,118.4c-1.3-1-2.4-2.2-2.4-4c0-2.4,1.9-4.1,4.5-4.1c2.9,0,4.6,1.8,4.6,4.5
					c0,1.8-1.5,3.5-2.4,4.4v0.1c1.5,1,2.9,1.9,2.9,4.4s-2.1,4.5-5.2,4.5c-3.2,0-5.5-1.9-5.5-4.7C31.1,120.9,33,119.3,34.5,118.4z
					 M36.5,127c2.3,0,4-1.6,4-3.5c0-2.5-2.5-3.5-5.2-4.6c-1.8,1.1-3,2.4-3,4.2C32.3,125.3,34.1,127,36.5,127z M40.1,114.7
					c0-1.8-1.3-3.5-3.5-3.5c-1.8,0-3.3,1.3-3.3,3.2c0,2.4,2.2,3.4,4.6,4.2C39.2,117.4,40.1,116.1,40.1,114.7z"/>
				<path class="st12" d="M51.2,108.5h1.1l-8.1,23.2h-1.1L51.2,108.5z"/>
				<path class="st12" d="M53.4,126.9c5.6-5.6,8.4-8.9,8.4-11.8c0-2.1-1.2-3.8-3.6-3.8c-1.6,0-2.9,1-4,2.2l-0.8-0.7
					c1.3-1.5,2.8-2.4,4.9-2.4c3,0,4.9,1.8,4.9,4.9c0,3.4-3,6.6-7.8,11.7c1,0,1.8-0.1,2.8-0.1h5.7v1.1H53.3L53.4,126.9L53.4,126.9z"
					/>
				<path class="st12" d="M66.2,126.9c5.6-5.6,8.4-8.9,8.4-11.8c0-2.1-1.2-3.8-3.6-3.8c-1.6,0-2.9,1-4,2.2l-0.8-0.7
					c1.3-1.5,2.8-2.4,4.9-2.4c3,0,4.9,1.8,4.9,4.9c0,3.4-3,6.6-7.8,11.7c1,0,1.8-0.1,2.8-0.1h5.7v1.1H66.2V126.9z"/>
				<path class="st12" d="M86.3,108.5h1.1l-8.3,23.3H78L86.3,108.5z"/>
				<path class="st12" d="M89.6,126.5h4v-14.1h-3v-0.8c1.5-0.2,2.4-0.6,3.3-1.1h1v16h3.6v1.1h-9L89.6,126.5L89.6,126.5z"/>
				<path class="st12" d="M101.5,124.8c1.1,1.1,2.3,2.1,4.7,2.1c2.2,0,4.2-1.8,4.2-4.6c0-2.7-1.7-4.4-4.1-4.4
					c-1.3,0-2.1,0.5-3.2,1.2l-0.8-0.5l0.6-8h7.9v1.1H104l-0.6,6.1c0.8-0.6,1.8-1,3-1c2.8,0,5.2,1.7,5.2,5.5c0,3.6-2.7,5.6-5.5,5.6
					c-2.7,0-4.2-1.2-5.5-2.2L101.5,124.8z"/>
			</g>
		</g>
	</g>
	<g>
		<g>
			<defs>
				<rect id="SVGID_21_" x="-16.1" y="-1.5" width="480.9" height="224.5"/>
			</defs>
			<clipPath id="SVGID_22_">
				<use xlink:href="#SVGID_21_"  style="overflow:visible;"/>
			</clipPath>
			<g class="st13">
				<path class="st12" d="M18.6,162.8c0-5.6,1.8-8.9,5.1-8.9s5.1,3.2,5.1,8.9c0,5.6-1.8,9-5.1,9C20.4,171.8,18.6,168.5,18.6,162.8z
					 M27.6,162.8c0-5.2-1.6-7.8-3.9-7.8s-3.9,2.5-3.9,7.8c0,5.2,1.6,7.9,3.9,7.9C26.1,170.7,27.6,168,27.6,162.8z"/>
				<path class="st12" d="M34.5,162.2L34.5,162.2c-1.3-1-2.4-2.2-2.4-4c0-2.4,1.9-4.1,4.5-4.1c2.9,0,4.6,1.8,4.6,4.5
					c0,1.8-1.5,3.5-2.4,4.4v0.1c1.5,1,2.9,1.9,2.9,4.4c0,2.4-2.1,4.5-5.2,4.5c-3.2,0-5.5-1.9-5.5-4.7C31.1,164.7,33,163,34.5,162.2z
					 M36.5,170.7c2.3,0,4-1.6,4-3.5c0-2.5-2.5-3.5-5.2-4.6c-1.8,1.1-3,2.4-3,4.2C32.3,169,34.1,170.7,36.5,170.7z M40.1,158.5
					c0-1.8-1.3-3.5-3.5-3.5c-1.8,0-3.3,1.3-3.3,3.2c0,2.4,2.2,3.4,4.6,4.2C39.2,161.2,40.1,160,40.1,158.5z"/>
				<path class="st12" d="M51.2,152.5h1.1l-8.1,23.2h-1.1L51.2,152.5z"/>
				<path class="st12" d="M53.4,170.7c5.6-5.6,8.4-8.9,8.4-11.8c0-2.1-1.2-3.8-3.6-3.8c-1.6,0-2.9,1-4,2.2l-0.8-0.7
					c1.3-1.5,2.8-2.4,4.9-2.4c3,0,4.9,1.8,4.9,4.9c0,3.4-3,6.6-7.8,11.7c1,0,1.8-0.1,2.8-0.1h5.7v1.1H53.3L53.4,170.7L53.4,170.7z"
					/>
				<path class="st12" d="M66.2,170.7c5.6-5.6,8.4-8.9,8.4-11.8c0-2.1-1.2-3.8-3.6-3.8c-1.6,0-2.9,1-4,2.2l-0.8-0.7
					c1.3-1.5,2.8-2.4,4.9-2.4c3,0,4.9,1.8,4.9,4.9c0,3.4-3,6.6-7.8,11.7c1,0,1.8-0.1,2.8-0.1h5.7v1.1H66.2V170.7z"/>
				<path class="st12" d="M86.3,152.5h1.1l-8.3,23.2H78L86.3,152.5z"/>
				<path class="st12" d="M89.6,170.3h4v-14.1h-3v-0.8c1.5-0.2,2.4-0.6,3.3-1.1h1v16h3.6v1.1h-9L89.6,170.3L89.6,170.3z"/>
				<path class="st12" d="M101.5,168.6c1.1,1.1,2.3,2.1,4.7,2.1c2.2,0,4.2-1.8,4.2-4.6c0-2.7-1.7-4.4-4.1-4.4
					c-1.3,0-2.1,0.5-3.2,1.2l-0.8-0.5l0.6-8h7.9v1.1H104l-0.6,6.1c0.8-0.6,1.8-1,3-1c2.8,0,5.2,1.7,5.2,5.5c0,3.6-2.7,5.6-5.5,5.6
					c-2.7,0-4.2-1.2-5.5-2.2L101.5,168.6z"/>
			</g>
		</g>
	</g>
	<g>
		<g>
			<defs>
				<rect id="SVGID_23_" x="-16.1" y="-1.5" width="480.9" height="224.5"/>
			</defs>
			<clipPath id="SVGID_24_">
				<use xlink:href="#SVGID_23_"  style="overflow:visible;"/>
			</clipPath>
			<g class="st14">
				<path class="st12" d="M243.6,121.5h-6.9l-1.9,5.9h-1.3l6.2-17.5h1.2l6.2,17.5h-1.3L243.6,121.5z M243.2,120.4l-1.2-3.3
					c-0.7-2.1-1.3-3.9-1.9-6.1H240c-0.6,2.1-1.2,4-1.9,6.1l-1.2,3.3H243.2z"/>
				<path class="st12" d="M254.3,114.5c1.8,0,2.9,0.8,3.8,1.6l-0.7,0.8c-0.8-0.8-1.8-1.5-3-1.5c-2.5,0-4.6,2.3-4.6,5.6
					c0,3.4,1.8,5.6,4.6,5.6c1.5,0,2.5-0.7,3.4-1.5l0.6,0.8c-1.1,1-2.4,1.8-4.1,1.8c-3.3,0-5.7-2.4-5.7-6.7
					C248.5,116.9,251.1,114.5,254.3,114.5z"/>
				<path class="st12" d="M265.8,114.5c1.8,0,2.9,0.8,3.8,1.6l-0.7,0.8c-0.8-0.8-1.8-1.5-3-1.5c-2.5,0-4.6,2.3-4.6,5.6
					c0,3.4,1.8,5.6,4.6,5.6c1.5,0,2.5-0.7,3.4-1.5l0.6,0.8c-1.1,1-2.4,1.8-4.1,1.8c-3.3,0-5.7-2.4-5.7-6.7
					C259.9,116.9,262.7,114.5,265.8,114.5z"/>
				<path class="st12" d="M277,114.5c3,0,5,2.1,5,5.8c0,0.4,0,0.6,0,1h-9.2c0,3.2,1.9,5.6,4.9,5.6c1.5,0,2.4-0.5,3.4-1.2l0.5,1
					c-1.1,0.6-2.1,1.3-4,1.3c-3.3,0-5.8-2.4-5.8-6.7C271.4,117,274.2,114.5,277,114.5z M280.9,120.4c0-3.3-1.5-5-3.8-5
					c-2.2,0-4.1,1.8-4.4,5H280.9z"/>
				<path class="st12" d="M284.5,125.3c1.1,1,2.2,1.7,4.1,1.7s3-1.2,3-2.5c0-1.7-1.7-2.2-3.2-2.8c-1.9-0.7-4.1-1.5-4.1-3.6
					c0-1.8,1.5-3.4,4.1-3.4c1.5,0,2.7,0.6,3.6,1.3l-0.6,0.8c-0.8-0.6-1.8-1.2-3-1.2c-1.9,0-2.8,1.2-2.8,2.3c0,1.5,1.6,1.9,3,2.5
					c1.9,0.7,4.2,1.5,4.2,3.9c0,1.8-1.6,3.6-4.4,3.6c-1.8,0-3.5-0.8-4.7-1.8L284.5,125.3z"/>
				<path class="st12" d="M295.3,125.3c1.1,1,2.2,1.7,4.1,1.7s3-1.2,3-2.5c0-1.7-1.7-2.2-3.2-2.8c-1.9-0.7-4.1-1.5-4.1-3.6
					c0-1.8,1.5-3.4,4.1-3.4c1.5,0,2.7,0.6,3.6,1.3l-0.6,0.8c-0.8-0.6-1.8-1.2-3-1.2c-1.9,0-2.8,1.2-2.8,2.3c0,1.5,1.6,1.9,3,2.5
					c1.9,0.7,4.2,1.5,4.2,3.9c0,1.8-1.6,3.6-4.4,3.6c-1.8,0-3.5-0.8-4.7-1.8L295.3,125.3z"/>
			</g>
		</g>
	</g>
	<g>
		<g>
			<defs>
				<rect id="SVGID_25_" x="-16.1" y="-1.5" width="480.9" height="224.5"/>
			</defs>
			<clipPath id="SVGID_26_">
				<use xlink:href="#SVGID_25_"  style="overflow:visible;"/>
			</clipPath>
			<g class="st15">
				<path class="st12" d="M235.7,153.8h9.6v1.1h-8.4v6.6h7v1.1h-7v7.8h8.6v1.1h-9.8V153.8z"/>
				<path class="st12" d="M253.8,158.2c1.6,0,2.5,0.6,3.9,1.6v-2.3v-5.3h1.2v19.2h-1.1l-0.1-1.7h-0.1c-1.1,1.1-2.4,1.9-4.1,1.9
					c-3.2,0-5.3-2.3-5.3-6.7C248.2,161,250.8,158.2,253.8,158.2z M253.6,170.7c1.5,0,2.7-0.7,4-2.1V161c-1.5-1.2-2.4-1.7-3.8-1.7
					c-2.5,0-4.5,2.4-4.5,5.6C249.3,168.5,250.9,170.7,253.6,170.7z"/>
				<path class="st12" d="M263.3,154.4c0-0.7,0.5-1.1,1.1-1.1c0.6,0,1.1,0.4,1.1,1.1c0,0.6-0.5,1.1-1.1,1.1
					C263.6,155.5,263.3,155,263.3,154.4z M263.6,158.5h1.2v12.9h-1.2V158.5z"/>
				<path class="st12" d="M270.1,159.6h-1.9v-1l1.9-0.1l0.1-3.8h1.1v3.8h3.8v1.1h-3.8v8.4c0,1.7,0.4,2.7,2.1,2.7
					c0.5,0,1.2-0.2,1.7-0.4l0.4,1c-0.7,0.2-1.6,0.5-2.1,0.5c-2.4,0-3.2-1.6-3.2-3.9v-8.3H270.1z"/>
			</g>
		</g>
	</g>
	<g>
		<g>
			<defs>
				<rect id="SVGID_27_" x="-16.1" y="-1.5" width="480.9" height="224.5"/>
			</defs>
			<clipPath id="SVGID_28_">
				<use xlink:href="#SVGID_27_"  style="overflow:visible;"/>
			</clipPath>
			<g class="st16">
				<path class="st12" d="M431.1,109.3h1.2V120c0,4.7,2.2,6.1,4.7,6.1s4.9-1.5,4.9-6.1v-10.7h1.2v10.8c0,5.6-2.9,7-5.9,7
					c-3,0-5.8-1.6-5.8-7v-10.8H431.1z"/>
			</g>
		</g>
	</g>
	<g>
		<g>
			<defs>
				<rect id="SVGID_29_" x="-16.1" y="-1.5" width="480.9" height="224.5"/>
			</defs>
			<clipPath id="SVGID_30_">
				<use xlink:href="#SVGID_29_"  style="overflow:visible;"/>
			</clipPath>
			<line class="st17" x1="419.5" y1="47.9" x2="419.5" y2="223"/>
		</g>
	</g>
	<g>
		<g>
			<defs>
				<rect id="SVGID_31_" x="-16.1" y="-1.5" width="480.9" height="224.5"/>
			</defs>
			<clipPath id="SVGID_32_">
				<use xlink:href="#SVGID_31_"  style="overflow:visible;"/>
			</clipPath>
			<g class="st18">
				<path class="st8" d="M433.6,62.4h1.3l7.4,12.4l1.9,3.5h0.1c-0.1-1.8-0.1-3.4-0.1-5.2V62.3h1.2v17.5h-1.3l-7.4-12.4l-1.9-3.5
					h-0.1c0.1,1.7,0.1,3.3,0.1,5v10.9h-1.2V62.4z"/>
			</g>
		</g>
	</g>
	<g>
		<g>
			<defs>
				<rect id="SVGID_33_" x="-16.1" y="-1.5" width="480.9" height="224.5"/>
			</defs>
			<clipPath id="SVGID_34_">
				<use xlink:href="#SVGID_33_"  style="overflow:visible;"/>
			</clipPath>
			<g class="st19">
				<path class="st12" d="M432.2,153.6h1.2v9.3l0,0l8.3-9.3h1.5l-5.5,6.2l6.1,10.7h-1.3l-5.6-9.7l-3.4,3.9v5.8h-1.2V153.6
					L432.2,153.6z"/>
			</g>
		</g>
	</g>
</g>
<line class="st20" x1="0" y1="223" x2="464.8" y2="223"/>
</svg>
