<?xml version="1.0" encoding="utf-8"?>
<!-- Generator: Adobe Illustrator 19.2.0, SVG Export Plug-In . SVG Version: 6.00 Build 0)  -->
<svg version="1.1" id="Layer_1" xmlns="http://www.w3.org/2000/svg" xmlns:xlink="http://www.w3.org/1999/xlink" x="0px" y="0px"
	 viewBox="0 0 260.7 154.7" style="enable-background:new 0 0 260.7 154.7;" xml:space="preserve">
<style type="text/css">
	.st0{opacity:0.6;fill:#D4D4F4;enable-background:new    ;}
	.st1{fill:#9387C4;}
	.st2{fill:#FFFFFF;}
	.st3{fill:#D4D4F4;}
	.st4{fill:none;stroke:#FFFFFF;stroke-linecap:round;stroke-miterlimit:10;}
	.st5{fill:#B2B1DD;}
	.st6{fill:#649BB7;}
</style>
<g>
	<path class="st0" d="M245.6,78.5h-44.8c-2.2,0-4-1.8-4-4V29.7c0-2.2,1.8-4,4-4h44.8c2.2,0,4,1.8,4,4v44.8
		C249.6,76.7,247.8,78.5,245.6,78.5z"/>
	<path class="st1" d="M243.4,76.4h-44.8c-2.2,0-4-1.8-4-4V27.6c0-2.2,1.8-4,4-4h44.8c2.2,0,4,1.8,4,4v44.8
		C247.4,74.6,245.6,76.4,243.4,76.4z"/>
	
		<rect x="213.2" y="46.6" transform="matrix(0.7174 -0.6967 0.6967 0.7174 28.8986 172.813)" class="st2" width="28.4" height="8.4"/>
	
		<rect x="237.5" y="34.7" transform="matrix(0.7174 -0.6967 0.6967 0.7174 40.6789 177.9805)" class="st3" width="4.4" height="8.4"/>
	<polygon class="st3" points="213.6,64.1 214.5,57.5 220.3,63.4 	"/>
	<path class="st4" d="M212.3,63.6c0,0-12.5,2-12.6-4c-0.1-6,15.6-8.6,17.3-12.1s-6.2-2.5-6.2-2.5"/>
</g>
<g>
	<path class="st0" d="M154.5,148.5h-44.8c-2.2,0-4-1.8-4-4V99.7c0-2.2,1.8-4,4-4h44.8c2.2,0,4,1.8,4,4v44.8
		C158.5,146.7,156.7,148.5,154.5,148.5z"/>
	<path class="st1" d="M152.4,146.3h-44.8c-2.2,0-4-1.8-4-4V97.5c0-2.2,1.8-4,4-4h44.8c2.2,0,4,1.8,4,4v44.8
		C156.4,144.5,154.6,146.3,152.4,146.3z"/>
	<path class="st3" d="M145.4,139.9h-29.8c-1.3,0-2.3-1-2.3-2.3v-34.4c0-1.3,1-2.3,2.3-2.3h29.8c1.3,0,2.3,1,2.3,2.3v34.4
		C147.7,138.8,146.7,139.9,145.4,139.9z"/>
	<rect x="116.5" y="104.3" class="st1" width="28" height="6.5"/>
	<rect x="116.5" y="112.7" class="st2" width="13" height="12"/>
	<rect x="131.5" y="112.7" class="st2" width="13" height="12"/>
	<rect x="116.5" y="126.7" class="st2" width="13" height="9"/>
	<rect x="131.5" y="126.7" class="st2" width="13" height="9"/>
	<g>
		<path class="st5" d="M138.5,116.7v2.1h2v0.5h-2v2.1h-0.6v-2.1h-2v-0.5h2v-2.1H138.5z"/>
	</g>
	<g>
		<path class="st5" d="M122.3,130.2c0,1-0.5,1.4-1.1,1.4s-1.1-0.5-1.1-1.4s0.5-1.4,1.1-1.4C121.9,128.9,122.3,129.4,122.3,130.2z
			 M120.6,130.3c0,0.6,0.2,1,0.6,1s0.6-0.4,0.6-1s-0.2-1-0.6-1C120.8,129.3,120.6,129.7,120.6,130.3z M121.1,133.6l2.7-4.7h0.4
			l-2.7,4.7H121.1z M125.2,132.1c0,1-0.5,1.4-1.1,1.4s-1.1-0.5-1.1-1.4s0.5-1.4,1.1-1.4C124.8,130.8,125.2,131.3,125.2,132.1z
			 M123.6,132.2c0,0.6,0.2,1,0.6,1s0.6-0.4,0.6-1s-0.2-1-0.6-1C123.8,131.1,123.6,131.6,123.6,132.2z"/>
	</g>
	<g>
		<path class="st5" d="M136.1,130.8v-0.5h4.1v0.5H136.1z M136.1,132.4v-0.5h4.1v0.5H136.1z"/>
	</g>
	<g>
		<path class="st5" d="M125.1,119.5v0.4h-4.5v-0.4H125.1z"/>
	</g>
</g>
<g>
	<path class="st0" d="M65.6,78.6H20.8c-2.2,0-4-1.8-4-4V29.8c0-2.2,1.8-4,4-4h44.8c2.2,0,4,1.8,4,4v44.8
		C69.6,76.8,67.8,78.6,65.6,78.6z"/>
	<path class="st1" d="M63.4,76.4H18.6c-2.2,0-4-1.8-4-4V27.6c0-2.2,1.8-4,4-4h44.8c2.2,0,4,1.8,4,4v44.8
		C67.4,74.6,65.6,76.4,63.4,76.4z"/>
	<rect x="23.6" y="34.3" class="st2" width="5" height="7"/>
	<rect x="30.8" y="34.4" class="st3" width="29.1" height="6.5"/>
	<rect x="23.6" y="47.3" class="st2" width="5" height="5"/>
	<rect x="30.8" y="47.3" class="st3" width="29.1" height="5.4"/>
	<rect x="23.6" y="59.3" class="st2" width="5" height="6"/>
	<rect x="30.8" y="59.2" class="st3" width="29.1" height="6.5"/>
</g>
<g>
	<path class="st0" d="M155.6,78.5h-44.8c-2.2,0-4-1.8-4-4V29.7c0-2.2,1.8-4,4-4h44.8c2.2,0,4,1.8,4,4v44.8
		C159.7,76.7,157.9,78.5,155.6,78.5z"/>
	<path class="st6" d="M153.5,76.4h-44.8c-2.2,0-4-1.8-4-4V27.6c0-2.2,1.8-4,4-4h44.8c2.2,0,4,1.8,4,4v44.8
		C157.5,74.6,155.7,76.4,153.5,76.4z"/>
	<g>
		<path class="st2" d="M139.8,32.4h-25.2c-0.9,0-1.6,0.7-1.6,1.6v7.6l-4.8,5.2h4.8v3.9c0,0.9,0.7,1.6,1.6,1.6h25.2
			c0.9,0,1.6-0.7,1.6-1.6V34C141.4,33.1,140.7,32.4,139.8,32.4z"/>
		<path class="st3" d="M153.7,61.1l-4.7-4.9v-7.7c0-0.9-0.7-1.6-1.6-1.6h-24.5c-0.9,0-1.6,0.7-1.6,1.6v16.7c0,0.9,0.7,1.6,1.6,1.6
			h24.5c0.9,0,1.6-0.7,1.6-1.6v-4.1H153.7z"/>
	</g>
</g>
<g>
	<path class="st0" d="M244.6,148.4h-44.8c-2.2,0-4-1.8-4-4V99.6c0-2.2,1.8-4,4-4h44.8c2.2,0,4,1.8,4,4v44.8
		C248.6,146.6,246.8,148.4,244.6,148.4z"/>
	<path class="st6" d="M242.4,146.3h-44.8c-2.2,0-4-1.8-4-4V97.5c0-2.2,1.8-4,4-4h44.8c2.2,0,4,1.8,4,4v44.7
		C246.4,144.5,244.6,146.3,242.4,146.3z"/>
	<path class="st3" d="M236,138.1h-31.7c-0.4,0-0.7-0.3-0.7-0.7v-19.1c0-0.4,0.3-0.7,0.7-0.7H236c0.4,0,0.7,0.3,0.7,0.7v19.1
		C236.7,137.8,236.4,138.1,236,138.1z"/>
	<rect x="203.6" y="125.7" class="st2" width="33.1" height="2.9"/>
	<g>
		<path class="st2" d="M238.7,105.2c-0.5-3.7-5.5-4.1-8.3-3.2c-3.3,1-6.4,3.1-8.6,5.6c-0.7,0.7-1.3,1.5-1.8,2.3c0,0,0,0.1-0.1,0.1
			c-0.2,0.4-0.7,1.9-1.3,1.9h2.9c4.2,0,8.6-0.6,12.6-2C236.2,109.2,239,108,238.7,105.2z M234.5,107.7c-4,1.5-8.4,2.5-12.6,2.5
			c0,0,5.9-5.6,10.1-6.1c1.1-0.1,2.4-0.2,3.4,0.4C236.9,105.5,235.9,107.2,234.5,107.7z"/>
	</g>
	<g>
		<path class="st2" d="M206,109.9c4,1.4,8.3,2,12.6,2h2.9c-0.5,0-1-1.5-1.3-1.9c0,0,0-0.1-0.1-0.1c-0.5-0.8-1.2-1.6-1.8-2.3
			c-2.3-2.5-5.4-4.7-8.6-5.6c-2.7-0.8-7.8-0.5-8.3,3.2C201,108,203.8,109.2,206,109.9z M204.7,104.5c1-0.6,2.3-0.6,3.4-0.4
			c4.2,0.5,10.1,6.1,10.1,6.1c-4.2,0-8.7-1-12.6-2.5C204.2,107.2,203.1,105.5,204.7,104.5z"/>
	</g>
	<rect x="203.6" y="118.9" class="st5" width="33.1" height="1"/>
	<rect x="218.6" y="118.9" class="st2" width="2.9" height="19.2"/>
	<rect x="200.8" y="111.9" class="st3" width="38.5" height="7"/>
	<rect x="218.6" y="111.9" class="st2" width="2.9" height="7"/>
</g>
<g>
	<path class="st0" d="M64.5,148.4H19.7c-2.2,0-4-1.8-4-4V99.6c0-2.2,1.8-4,4-4h44.8c2.2,0,4,1.8,4,4v44.8
		C68.6,146.6,66.8,148.4,64.5,148.4z"/>
	<path class="st6" d="M62.4,146.3H17.6c-2.2,0-4-1.8-4-4V97.5c0-2.2,1.8-4,4-4h44.8c2.2,0,4,1.8,4,4v44.8
		C66.4,144.5,64.6,146.3,62.4,146.3z"/>
	<circle class="st2" cx="40.2" cy="119.8" r="19.6"/>
	<circle class="st3" cx="40.2" cy="119.8" r="16.9"/>
	<g>
		<g>
			<path class="st6" d="M45.7,114.7c-0.1-0.1-0.3-0.3-0.7-0.5c-0.3-0.2-0.7-0.4-1.1-0.6s-0.9-0.4-1.4-0.6s-1.1-0.3-1.6-0.3v5.1
				l0.7,0.2c1,0.3,1.9,0.6,2.8,0.9c0.8,0.3,1.5,0.7,2.1,1.2s1,1.1,1.3,1.7c0.3,0.7,0.5,1.5,0.5,2.4c0,1.1-0.2,2-0.6,2.8
				s-0.9,1.4-1.6,1.9s-1.4,0.9-2.3,1.1s-1.8,0.4-2.7,0.4v3.3h-1.8v-3.3c-1.4-0.1-2.7-0.4-4-0.9s-2.5-1.1-3.6-1.8l1.8-3.5
				c0.2,0.2,0.4,0.4,0.8,0.6c0.4,0.3,0.9,0.5,1.4,0.8c0.6,0.3,1.1,0.5,1.8,0.7s1.3,0.4,2,0.4v-5.1l-1.1-0.3c-1-0.3-1.9-0.6-2.6-0.9
				s-1.3-0.7-1.8-1.1s-0.9-1-1.1-1.5c-0.2-0.6-0.4-1.3-0.4-2.1c0-1,0.2-1.9,0.5-2.7c0.3-0.8,0.8-1.4,1.4-2c0.6-0.5,1.3-1,2.1-1.3
				c0.8-0.3,1.7-0.5,2.7-0.6v-3H41v3c1.3,0.1,2.5,0.4,3.5,0.8c1.1,0.4,2,1,2.9,1.5L45.7,114.7z M36.7,115c0,0.7,0.2,1.2,0.7,1.5
				s1.2,0.7,2.1,0.9v-4.8C37.7,112.8,36.7,113.6,36.7,115z M43.9,124.6c0-0.7-0.3-1.2-0.8-1.6c-0.6-0.4-1.3-0.7-2.3-1v4.8
				C42.8,126.7,43.9,126,43.9,124.6z"/>
		</g>
	</g>
</g>
</svg>
