<?xml version="1.0" encoding="utf-8"?>
<!-- Generator: Adobe Illustrator 19.2.0, SVG Export Plug-In . SVG Version: 6.00 Build 0)  -->
<svg version="1.1" id="Layer_1" xmlns="http://www.w3.org/2000/svg" xmlns:xlink="http://www.w3.org/1999/xlink" x="0px" y="0px"
	 viewBox="0 0 416.3 131.7" style="enable-background:new 0 0 416.3 131.7;" xml:space="preserve">
<style type="text/css">
	.st0{fill:#606060;}
	.st1{fill:#8787C6;}
	.st2{fill:#FFFFFF;}
	.st3{fill:#D7D7D7;}
	.st4{fill:#AAAAAA;}
	.st5{fill:#595959;}
	.st6{fill:none;stroke:#D7D7D7;stroke-width:2;stroke-miterlimit:10;stroke-dasharray:4;}
	.st7{fill:#E0E0E0;}
</style>
<rect x="19.1" y="113.6" class="st0" width="378.5" height="17.8"/>
<rect x="77" y="95.7" class="st1" width="256.4" height="17.8"/>
<g>
	<path class="st2" d="M173.7,119.2h0.6v8.2h-0.6V119.2z"/>
	<path class="st2" d="M176.6,121.5h0.5l0,0.9h0c0.6-0.6,1.2-1.1,2.1-1.1c1.2,0,1.8,0.7,1.8,2.3v3.8h-0.5v-3.8c0-1.3-0.4-1.9-1.4-1.9
		c-0.7,0-1.2,0.4-2,1.1v4.5h-0.5V121.5z"/>
	<path class="st2" d="M185.5,119c-0.2-0.1-0.5-0.2-0.7-0.2c-0.6,0-0.9,0.5-0.9,1.4v1.3h1.4v0.5h-1.4v5.5h-0.5V122h-0.8v-0.4l0.8,0
		v-1.3c0-1.2,0.5-1.8,1.5-1.8c0.3,0,0.6,0.1,0.9,0.2L185.5,119z"/>
	<path class="st2" d="M186.5,121.5h0.5l0,1.1h0c0.4-0.7,1-1.3,1.7-1.3c0.2,0,0.4,0,0.6,0.1l-0.1,0.5c-0.2-0.1-0.3-0.1-0.5-0.1
		c-0.5,0-1.2,0.4-1.6,1.5v4.1h-0.5V121.5z"/>
	<path class="st2" d="M193.7,123.7c0-0.9-0.2-1.9-1.4-1.9c-0.8,0-1.5,0.4-1.9,0.7l-0.2-0.4c0.4-0.3,1.2-0.8,2.2-0.8
		c1.4,0,1.9,1,1.9,2.3v3.8h-0.5l-0.1-0.8h0c-0.6,0.5-1.3,0.9-2.1,0.9c-0.9,0-1.7-0.5-1.7-1.6C189.8,124.6,191,124,193.7,123.7z
		 M191.7,127.1c0.7,0,1.3-0.3,2-1v-2c-2.5,0.3-3.3,0.9-3.3,1.8C190.4,126.8,191,127.1,191.7,127.1z"/>
	<path class="st2" d="M196,126.4c0.5,0.4,1,0.8,1.9,0.8c0.9,0,1.4-0.5,1.4-1.2c0-0.7-0.8-1.1-1.5-1.3c-0.9-0.3-1.9-0.7-1.9-1.7
		c0-0.9,0.7-1.6,1.9-1.6c0.6,0,1.3,0.3,1.7,0.6l-0.3,0.4c-0.4-0.3-0.8-0.5-1.4-0.5c-0.9,0-1.3,0.5-1.3,1.1c0,0.7,0.7,0.9,1.4,1.2
		c0.9,0.3,2,0.7,2,1.8c0,0.9-0.7,1.7-2,1.7c-0.9,0-1.7-0.4-2.2-0.8L196,126.4z"/>
	<path class="st2" d="M201.6,122h-0.9v-0.4l0.9,0l0.1-1.7h0.5v1.7h1.7v0.5h-1.7v3.9c0,0.8,0.2,1.3,1,1.3c0.2,0,0.5-0.1,0.7-0.2
		l0.1,0.4c-0.3,0.1-0.7,0.2-1,0.2c-1.2,0-1.5-0.7-1.5-1.8V122z"/>
	<path class="st2" d="M205.3,121.5h0.5l0,1.1h0c0.4-0.7,1-1.3,1.7-1.3c0.2,0,0.4,0,0.6,0.1l-0.1,0.5c-0.2-0.1-0.3-0.1-0.5-0.1
		c-0.5,0-1.2,0.4-1.6,1.5v4.1h-0.5V121.5z"/>
	<path class="st2" d="M209.2,121.5h0.5v3.8c0,1.3,0.4,1.9,1.4,1.9c0.7,0,1.2-0.4,1.9-1.2v-4.4h0.5v6h-0.5l-0.1-1h0
		c-0.6,0.7-1.2,1.1-2,1.1c-1.2,0-1.8-0.7-1.8-2.3V121.5z"/>
	<path class="st2" d="M218.1,121.3c0.8,0,1.4,0.4,1.8,0.7l-0.3,0.4c-0.4-0.4-0.8-0.6-1.4-0.6c-1.2,0-2.2,1.1-2.2,2.7
		c0,1.6,0.9,2.6,2.2,2.6c0.6,0,1.2-0.3,1.6-0.7l0.3,0.4c-0.5,0.5-1.1,0.8-1.9,0.8c-1.5,0-2.7-1.1-2.7-3.1
		C215.4,122.5,216.7,121.3,218.1,121.3z"/>
	<path class="st2" d="M221.6,122h-0.9v-0.4l0.9,0l0.1-1.7h0.5v1.7h1.7v0.5h-1.7v3.9c0,0.8,0.2,1.3,1,1.3c0.2,0,0.5-0.1,0.7-0.2
		l0.1,0.4c-0.3,0.1-0.7,0.2-1,0.2c-1.2,0-1.5-0.7-1.5-1.8V122z"/>
	<path class="st2" d="M225.2,121.5h0.5v3.8c0,1.3,0.4,1.9,1.4,1.9c0.7,0,1.2-0.4,1.9-1.2v-4.4h0.5v6h-0.5l-0.1-1h0
		c-0.6,0.7-1.2,1.1-2,1.1c-1.2,0-1.8-0.7-1.8-2.3V121.5z"/>
	<path class="st2" d="M231.9,121.5h0.5l0,1.1h0c0.4-0.7,1-1.3,1.7-1.3c0.2,0,0.4,0,0.6,0.1l-0.1,0.5c-0.2-0.1-0.3-0.1-0.5-0.1
		c-0.5,0-1.2,0.4-1.6,1.5v4.1h-0.5V121.5z"/>
	<path class="st2" d="M237.8,121.3c1.4,0,2.3,1,2.3,2.8c0,0.1,0,0.3,0,0.4h-4.3c0,1.5,0.9,2.6,2.3,2.6c0.6,0,1.2-0.2,1.6-0.5
		l0.2,0.4c-0.5,0.3-1,0.6-1.9,0.6c-1.5,0-2.8-1.2-2.8-3.1C235.2,122.5,236.5,121.3,237.8,121.3z M239.6,124.1c0-1.5-0.7-2.3-1.8-2.3
		c-1,0-1.9,0.9-2.1,2.3H239.6z"/>
</g>
<g>
	<path class="st2" d="M183.4,105.9h-3.3l-1,2.8h-0.6l2.9-8.2h0.6l2.9,8.2h-0.6L183.4,105.9z M183.3,105.4l-0.5-1.5
		c-0.3-1-0.6-1.8-0.9-2.8h0c-0.3,1-0.6,1.9-0.9,2.8l-0.5,1.5H183.3z"/>
	<path class="st2" d="M186.8,109.2v2.2h-0.5v-8.7h0.5l0,0.7h0c0.6-0.5,1.3-0.9,2-0.9c1.6,0,2.4,1.2,2.4,3.1c0,2-1.2,3.2-2.6,3.2
		c-0.6,0-1.2-0.3-1.8-0.7V109.2z M188.5,108.3c1.2,0,2.1-1.1,2.1-2.7c0-1.5-0.5-2.6-1.9-2.6c-0.6,0-1.2,0.3-2,1v3.6
		C187.4,108.1,188.1,108.3,188.5,108.3z"/>
	<path class="st2" d="M193.5,109.2v2.2H193v-8.7h0.5l0,0.7h0c0.6-0.5,1.3-0.9,2-0.9c1.6,0,2.4,1.2,2.4,3.1c0,2-1.2,3.2-2.6,3.2
		c-0.6,0-1.2-0.3-1.8-0.7V109.2z M195.3,108.3c1.2,0,2.1-1.1,2.1-2.7c0-1.5-0.5-2.6-1.9-2.6c-0.6,0-1.2,0.3-2,1v3.6
		C194.2,108.1,194.9,108.3,195.3,108.3z"/>
	<path class="st2" d="M199.8,99.7h0.5v8.2c0,0.3,0.1,0.4,0.3,0.4c0.1,0,0.1,0,0.2,0l0.1,0.4c-0.1,0-0.2,0.1-0.4,0.1
		c-0.5,0-0.7-0.3-0.7-0.9V99.7z"/>
	<path class="st2" d="M202.5,100.8c0-0.3,0.2-0.5,0.5-0.5c0.3,0,0.5,0.2,0.5,0.5c0,0.3-0.2,0.5-0.5,0.5
		C202.7,101.2,202.5,101,202.5,100.8z M202.7,102.7h0.5v6h-0.5V102.7z"/>
	<path class="st2" d="M207.8,102.5c0.8,0,1.4,0.4,1.8,0.7l-0.3,0.4c-0.4-0.4-0.8-0.6-1.4-0.6c-1.2,0-2.2,1.1-2.2,2.7
		c0,1.6,0.9,2.6,2.2,2.6c0.6,0,1.2-0.3,1.6-0.7l0.3,0.4c-0.5,0.5-1.1,0.8-1.9,0.8c-1.5,0-2.7-1.1-2.7-3.1
		C205.1,103.7,206.4,102.5,207.8,102.5z"/>
	<path class="st2" d="M214.6,104.9c0-0.9-0.2-1.9-1.4-1.9c-0.8,0-1.5,0.4-1.9,0.7l-0.2-0.4c0.4-0.3,1.2-0.8,2.2-0.8
		c1.4,0,1.9,1,1.9,2.3v3.8h-0.5l-0.1-0.8h0c-0.6,0.5-1.3,0.9-2.1,0.9c-0.9,0-1.7-0.5-1.7-1.6C210.7,105.9,211.9,105.2,214.6,104.9z
		 M212.6,108.4c0.7,0,1.3-0.3,2-1v-2c-2.5,0.3-3.3,0.9-3.3,1.8C211.3,108,211.9,108.4,212.6,108.4z"/>
	<path class="st2" d="M217.4,103.2h-0.9v-0.4l0.9,0l0.1-1.7h0.5v1.7h1.7v0.5H218v3.9c0,0.8,0.2,1.3,1,1.3c0.2,0,0.5-0.1,0.7-0.2
		l0.1,0.4c-0.3,0.1-0.7,0.2-1,0.2c-1.2,0-1.5-0.7-1.5-1.8V103.2z"/>
	<path class="st2" d="M221,100.8c0-0.3,0.2-0.5,0.5-0.5c0.3,0,0.5,0.2,0.5,0.5c0,0.3-0.2,0.5-0.5,0.5C221.2,101.2,221,101,221,100.8
		z M221.2,102.7h0.5v6h-0.5V102.7z"/>
	<path class="st2" d="M226.2,102.5c1.4,0,2.7,1.1,2.7,3.2c0,2-1.2,3.1-2.7,3.1c-1.4,0-2.7-1.1-2.7-3.1
		C223.5,103.7,224.8,102.5,226.2,102.5z M226.2,108.3c1.2,0,2.1-1.1,2.1-2.6c0-1.6-0.9-2.7-2.1-2.7c-1.2,0-2.1,1.1-2.1,2.7
		C224.1,107.3,225,108.3,226.2,108.3z"/>
	<path class="st2" d="M230.7,102.7h0.5l0,0.9h0c0.6-0.6,1.2-1.1,2.1-1.1c1.2,0,1.8,0.7,1.8,2.3v3.8h-0.5v-3.8c0-1.3-0.4-1.9-1.4-1.9
		c-0.7,0-1.2,0.4-2,1.1v4.5h-0.5V102.7z"/>
</g>
<g>
	<g>
		<path class="st3" d="M134.8,51.9c-5.4,1-10.6,2.3-15.6,4.3c-1.3,0.5-1.6,2.6,0,2.9c9.5,2,19.8,2.2,29.3,0
			c5.4-1.3,14.6-4.4,14.5-11.4c0-1.2-1.2-1.8-2.3-1.3c-5,2.2-14.6,7.7-12.2,14.8c2.3,6.8,16,5.3,21.2,5c10.4-0.6,21.4-2.4,31.1-6.3
			c4.7-1.9,13.5-7.3,7-12.6c-6.3-5.1-17.8-4.6-25.2-3.3c-3.6,0.6-16.7,3.8-13,10c1.5,2.5,5.6,3.5,8.2,4.1c5.2,1.4,10.6,1.9,15.9,2.5
			c11.9,1.3,24,1.9,35.9,1.4c6-0.3,12.2-0.8,18-2.7c3-1,7.1-2.5,8.5-5.7c3.4-8.1-13-9.2-17.2-9c-2,0.1-1.9,2.8,0,3
			c6.7,0.9,13.6,1.8,20.3,0.9c2.9-0.4,8.6-1.2,10.2-4.3c3.3-6.5-12.4-9.1-15.9-9.7C244.1,33,234,33,224.5,35
			c-2.8,0.6-8.9,1.5-10.5,4.5c-1.2,2.3,0.6,3.9,2.7,4.6c5.2,1.8,12.2-2.7,7.8-8.1c-2.6-3.2-7.6-4.8-11.4-5.9
			c-5.7-1.7-11.7-2.4-17.6-2.8c-12.1-0.8-24.7,0-36.3,3.6c-6.4,2-18.1,6.3-18.6,14.5c-0.6,9.5,17.8,11.2,23.8,12
			c7.3,1,14.8,1.6,22.1,0.6c3.8-0.6,9.9-1.6,11.7-5.6c0.5-1.1-0.3-2.6-1.7-2.2c-6,1.9-10,6.5-4.5,11.8c5.9,5.6,15.2,8.2,23,9.7
			c9.8,1.9,19.8,2.2,29.7,0.6c6-1,14.9-2.6,18.8-8c4.3-6.1-3.8-9-8.4-9.8c-4.4-0.8-9-1.1-13.4-1.2c-2.2-0.1-6.4-0.5-7.6,1.9
			c-2.6,5.1,11,6.8,13.6,7.2c8.1,1.2,16.4,1.2,24.6,0c4.4-0.6,19.2-2.7,18.4-9.7c-0.7-5.9-12.2-5.5-15.9-4.2c-1.8,0.6-1,3.5,0.8,2.9
			c2.9-1,6.3-0.9,9.3,0c6.2,1.9-1.8,5.2-4.2,6c-5.6,1.9-11.7,2.5-17.6,2.7c-6.7,0.2-13.5-0.2-20-1.8c-0.5-0.1-3.4-0.6-3.7-1.1
			c-1.4-1.8,1.6-1.2,2.4-1.1c3.8,0.1,7.6,0.3,11.3,0.9c3,0.5,11,1.5,7,6.6c-1.6,2-5.5,3.1-7.8,3.8c-6.9,2.2-14.2,2.9-21.4,2.8
			c-7.7-0.1-15.5-1.2-22.8-3.5c-3.1-1-6.1-2.1-8.9-3.7c-1.1-0.6-2.1-1.2-3.1-1.9c-2.2-1.1-3.3-2.9-3.4-5.4c1.3-1.5,2.9-2.4,4.8-2.8
			c-0.6-0.7-1.1-1.5-1.7-2.2c-1.5,3.3-7.7,4-10.9,4.3c-4,0.5-8.1,0.4-12.1,0.1c-7.8-0.5-16.1-1.5-23.4-4.5c-3.6-1.5-7.2-4.3-4.2-8.4
			c1.7-2.3,4.3-4,6.9-5.3c6.5-3.4,13.9-5.1,21.2-6.1c7.4-1,15-1.2,22.4-0.7c7.8,0.5,16.6,1.4,23.5,5.3c0.8,0.4,3.6,1.9,3.5,2.9
			c-0.1,1.2-3,3-4.1,2.8c-2-0.4-0.3-1.2,0.8-1.8c2.2-1.2,5.4-1.6,7.9-2c6.2-1.1,12.6-1.3,18.9-0.8c3.1,0.2,19.5,1.4,19.6,5.8
			c0.2,5.8-22.9,2.6-26.9,2.1c0,1,0,2,0,3c3.1-0.2,10.8-0.5,13.1,2.5c3.7,4.8-8,7.1-10.4,7.6c-8.9,1.8-18.2,1.5-27.2,1.3
			c-8.2-0.2-16.4-0.8-24.5-1.8c-4.3-0.5-8.8-1.1-12.9-2.4c-1.2-0.3-2.3-0.8-3.4-1.3c-1.6-0.4-1.8-1.2-0.5-2.2
			c0.9-2.1,3.5-2.7,5.5-3.3c7.6-2.5,17.4-2.9,24.9,0.3c3.4,1.4,3.5,5,0.2,6.9c-1.6,1-3.5,1.7-5.3,2.3c-3.8,1.4-7.7,2.3-11.6,3.2
			c-8.4,1.9-17.3,3-25.9,2.5c-4-0.2-12.3-1.4-8.5-7.4c2.1-3.4,6.2-5.3,9.7-6.9c-0.8-0.4-1.5-0.9-2.3-1.3c0.1,6.9-13.1,8.9-18,9.5
			c-7.3,0.9-14.8,0.6-22.1-1c0,1,0,1.9,0,2.9c5.1-2,10.3-3.3,15.6-4.3C137.5,54.5,136.7,51.6,134.8,51.9L134.8,51.9z"/>
	</g>
</g>
<g>
	<circle class="st4" cx="105.6" cy="66.3" r="4"/>
	<g>
		<path class="st4" d="M110.9,73.7c0-1.3-0.9-2.7-2.1-2.7h-6.1c-1.1,0-1.7,0.9-1.7,2.2V81h9.9L110.9,73.7L110.9,73.7z"/>
	</g>
</g>
<g>
	<circle class="st4" cx="93.8" cy="66.3" r="4"/>
	<g>
		<path class="st4" d="M99.1,73.7c0-1.3-0.9-2.7-2.1-2.7h-6.1c-1.1,0-1.9,0.9-1.9,2.2V81h10L99.1,73.7L99.1,73.7z"/>
	</g>
</g>
<g>
	<circle class="st4" cx="349.6" cy="19" r="4"/>
	<g>
		<path class="st4" d="M354.9,25.7c0-1.3-0.9-2.7-2.1-2.7h-6.1c-1.1,0-1.7,1.5-1.7,2.9V33h9.8L354.9,25.7L354.9,25.7z"/>
	</g>
</g>
<g>
	<path class="st5" d="M166.4,15.6l-2.4-4h-1.9v4h-0.6V6.9h2.5c1.7,0,2.9,0.6,2.9,2.3c0,1.4-0.9,2.2-2.2,2.4l2.4,4H166.4z
		 M163.9,11.1c1.5,0,2.4-0.6,2.4-1.9c0-1.3-0.8-1.8-2.4-1.8h-1.7v3.7H163.9z"/>
	<path class="st5" d="M171,9.1c1.5,0,2.4,1.1,2.4,2.9c0,0.2,0,0.3,0,0.5h-4.6c0,1.6,1,2.7,2.4,2.7c0.7,0,1.2-0.2,1.7-0.6l0.2,0.4
		c-0.5,0.3-1.1,0.6-2,0.6c-1.6,0-2.9-1.2-2.9-3.3C168.2,10.4,169.5,9.1,171,9.1z M172.8,12.1c0-1.6-0.7-2.5-1.9-2.5
		c-1.1,0-2,0.9-2.2,2.5H172.8z"/>
	<path class="st5" d="M174.6,14.5c0.5,0.4,1.1,0.8,2,0.8c1,0,1.5-0.6,1.5-1.3c0-0.8-0.8-1.1-1.5-1.4c-1-0.3-2-0.7-2-1.8
		c0-0.9,0.7-1.7,2-1.7c0.7,0,1.3,0.3,1.8,0.7l-0.3,0.4c-0.4-0.3-0.9-0.6-1.5-0.6c-1,0-1.4,0.6-1.4,1.2c0,0.7,0.7,1,1.5,1.3
		c1,0.4,2.1,0.7,2.1,1.9c0,1-0.8,1.8-2.1,1.8c-0.9,0-1.8-0.4-2.3-0.9L174.6,14.5z"/>
	<path class="st5" d="M180.6,9.8h-1V9.3l1-0.1l0.1-1.8h0.5v1.8h1.8v0.5h-1.8v4.1c0,0.8,0.2,1.3,1.1,1.3c0.2,0,0.6-0.1,0.8-0.2
		l0.2,0.5c-0.4,0.1-0.8,0.2-1,0.2c-1.2,0-1.6-0.8-1.6-1.9V9.8z"/>
	<path class="st5" d="M189.5,9.1c1.5,0,2.9,1.2,2.9,3.3c0,2.1-1.3,3.3-2.9,3.3c-1.5,0-2.8-1.2-2.8-3.3C186.7,10.3,188,9.1,189.5,9.1
		z M189.5,15.3c1.3,0,2.2-1.1,2.2-2.8c0-1.7-1-2.8-2.2-2.8c-1.3,0-2.2,1.2-2.2,2.8C187.3,14.1,188.2,15.3,189.5,15.3z"/>
	<path class="st5" d="M196.7,6.6c-0.3-0.1-0.5-0.2-0.8-0.2c-0.7,0-1,0.5-1,1.4v1.4h1.5v0.5h-1.5v5.8h-0.6V9.8h-0.9V9.3l0.9-0.1V7.9
		c0-1.3,0.6-1.9,1.6-1.9c0.3,0,0.6,0.1,0.9,0.2L196.7,6.6z"/>
	<path class="st5" d="M200.5,9.8h-1V9.3l1-0.1l0.1-1.8h0.5v1.8h1.8v0.5h-1.8v4.1c0,0.8,0.2,1.3,1.1,1.3c0.2,0,0.6-0.1,0.8-0.2
		l0.2,0.5c-0.4,0.1-0.8,0.2-1,0.2c-1.2,0-1.6-0.8-1.6-1.9V9.8z"/>
	<path class="st5" d="M204.5,6.1h0.6v2.7v1.4c0.7-0.7,1.3-1.2,2.2-1.2c1.3,0,1.9,0.8,1.9,2.4v4.1h-0.6v-4c0-1.3-0.4-2-1.5-2
		c-0.8,0-1.3,0.4-2.1,1.2v4.8h-0.6V6.1z"/>
	<path class="st5" d="M213.7,9.1c1.5,0,2.4,1.1,2.4,2.9c0,0.2,0,0.3,0,0.5h-4.6c0,1.6,1,2.7,2.4,2.7c0.7,0,1.2-0.2,1.7-0.6l0.2,0.4
		c-0.5,0.3-1.1,0.6-2,0.6c-1.6,0-2.9-1.2-2.9-3.3C210.9,10.4,212.3,9.1,213.7,9.1z M215.6,12.1c0-1.6-0.7-2.5-1.9-2.5
		c-1.1,0-2,0.9-2.2,2.5H215.6z"/>
	<path class="st5" d="M219.6,6.9h0.6l1.1,5.1c0.2,1,0.4,1.9,0.6,2.8h0.1c0.2-0.9,0.4-1.9,0.7-2.8l1.4-5.1h0.6L226,12
		c0.2,1,0.5,1.9,0.7,2.8h0.1c0.2-1,0.4-1.9,0.6-2.8l1.1-5.1h0.6l-2,8.7h-0.7l-1.6-6c-0.2-0.7-0.3-1.3-0.5-2h-0.1
		c-0.1,0.7-0.3,1.3-0.5,2l-1.6,6h-0.7L219.6,6.9z"/>
	<path class="st5" d="M232.9,9.1c1.5,0,2.9,1.2,2.9,3.3c0,2.1-1.3,3.3-2.9,3.3c-1.5,0-2.8-1.2-2.8-3.3C230,10.3,231.4,9.1,232.9,9.1
		z M232.9,15.3c1.3,0,2.2-1.1,2.2-2.8c0-1.7-1-2.8-2.2-2.8s-2.2,1.2-2.2,2.8C230.6,14.1,231.6,15.3,232.9,15.3z"/>
	<path class="st5" d="M237.6,9.3h0.5l0.1,1.2h0c0.4-0.8,1-1.3,1.8-1.3c0.2,0,0.4,0,0.6,0.1l-0.1,0.5c-0.2-0.1-0.3-0.1-0.6-0.1
		c-0.6,0-1.2,0.4-1.7,1.6v4.3h-0.6V9.3z"/>
	<path class="st5" d="M241.8,6.1h0.6v8.7c0,0.3,0.1,0.4,0.3,0.4c0.1,0,0.1,0,0.2,0l0.1,0.5c-0.1,0-0.2,0.1-0.4,0.1
		c-0.5,0-0.8-0.3-0.8-1V6.1z"/>
	<path class="st5" d="M247.2,9.1c0.8,0,1.3,0.3,1.9,0.8l0-1.2V6.1h0.6v9.5h-0.5l-0.1-0.8h0c-0.5,0.5-1.2,1-2.1,1
		c-1.6,0-2.6-1.2-2.6-3.3C244.4,10.4,245.7,9.1,247.2,9.1z M247.1,15.3c0.7,0,1.3-0.4,2-1v-3.8c-0.7-0.6-1.2-0.8-1.9-0.8
		c-1.3,0-2.2,1.2-2.2,2.8C245.1,14.1,245.8,15.3,247.1,15.3z"/>
</g>
<line class="st6" x1="204.8" y1="73.6" x2="204.8" y2="93.1"/>
<line class="st6" x1="271.8" y1="38" x2="340" y2="26.2"/>
<line class="st6" x1="269.9" y1="68.1" x2="297.2" y2="76.3"/>
<line class="st6" x1="139.6" y1="38" x2="77" y2="24.4"/>
<line class="st6" x1="139.6" y1="68.1" x2="112.3" y2="76.3"/>
<g>
	<path class="st4" d="M317.3,84.3h-16.4c-0.8,0-1.5-0.7-1.5-1.5V66.4c0-0.8,0.7-1.5,1.5-1.5h16.4c0.8,0,1.5,0.7,1.5,1.5v16.4
		C318.8,83.6,318.1,84.3,317.3,84.3z"/>
	<g>
		<path class="st2" d="M312.3,68.2h-9.2c-0.3,0-0.6,0.3-0.6,0.6v2.8l-1.8,1.9h1.8v1.4c0,0.3,0.3,0.6,0.6,0.6h9.2
			c0.3,0,0.6-0.3,0.6-0.6v-6.1C312.9,68.4,312.6,68.2,312.3,68.2z"/>
		<path class="st7" d="M317.4,78.7l-1.7-1.8v-2.8c0-0.3-0.3-0.6-0.6-0.6h-9c-0.3,0-0.6,0.3-0.6,0.6v6.1c0,0.3,0.3,0.6,0.6,0.6h9
			c0.3,0,0.6-0.3,0.6-0.6v-1.5H317.4z"/>
	</g>
</g>
<path class="st4" d="M72,33.2H55.6c-0.8,0-1.5-0.7-1.5-1.5V15.3c0-0.8,0.7-1.5,1.5-1.5H72c0.8,0,1.5,0.7,1.5,1.5v16.4
	C73.5,32.5,72.8,33.2,72,33.2z"/>
<rect x="56.7" y="17.1" class="st2" width="1.9" height="2.9"/>
<rect x="59.5" y="17.2" class="st7" width="11.3" height="2.9"/>
<rect x="56.7" y="22.3" class="st2" width="1.9" height="2.8"/>
<rect x="59.5" y="22.3" class="st7" width="11.3" height="2.8"/>
<rect x="56.7" y="27.3" class="st2" width="1.9" height="2.7"/>
<rect x="59.5" y="27.2" class="st7" width="11.3" height="2.7"/>
</svg>
