<?xml version="1.0" encoding="utf-8"?>
<!-- Generator: Adobe Illustrator 19.1.1, SVG Export Plug-In . SVG Version: 6.00 Build 0)  -->
<svg version="1.1" id="Layer_1" xmlns="http://www.w3.org/2000/svg" xmlns:xlink="http://www.w3.org/1999/xlink" x="0px" y="0px"
	 viewBox="-382.7 210.2 491.3 229.8" style="enable-background:new -382.7 210.2 491.3 229.8;" xml:space="preserve">
<style type="text/css">
	.st0{fill:#603889;}
	.st1{fill:none;stroke:#8885CC;stroke-miterlimit:10;}
	.st2{fill:#4C4277;}
	.st3{fill:#FFFFFF;}
	.st4{fill:#AEA3D8;}
</style>
<g>
	<path class="st0" d="M-230.2,419.5c1.6,1.8,3.9,3,6.5,3c3.3,0,5.5-1.8,5.5-4.4c0-2.7-1.8-3.6-4-4.6l-3.3-1.5
		c-1.9-0.8-4.4-2.2-4.4-5.5c0-3.2,2.7-5.4,6.4-5.4c2.7,0,4.8,1.2,6.1,2.6l-0.9,1c-1.3-1.4-3-2.3-5.2-2.3c-2.9,0-4.8,1.5-4.8,3.9
		c0,2.5,2.2,3.5,3.8,4.2l3.3,1.5c2.4,1.1,4.6,2.5,4.6,5.8s-2.8,5.9-7.1,5.9c-3.2,0-5.7-1.4-7.4-3.3L-230.2,419.5z"/>
	<path class="st0" d="M-202.9,413.4c0.1-2.4-0.6-5.1-3.8-5.1c-2.2,0-4,1.1-5.1,1.9l-0.7-1.1c1.1-0.8,3.3-2.1,5.9-2.1
		c3.8,0,5.1,2.7,5.1,6.2v10.3h-1.2l-0.2-2.1h-0.1c-1.6,1.3-3.6,2.5-5.7,2.5c-2.5,0-4.7-1.4-4.7-4.4
		C-213.2,416-210,414.3-202.9,413.4z M-208.3,422.6c1.8,0,3.5-0.9,5.4-2.6v-5.4c-6.6,0.8-8.8,2.3-8.8,4.8
		C-211.7,421.7-210.2,422.6-208.3,422.6z"/>
	<path class="st0" d="M-195.7,407.5h1.3l0.1,2.5h0.1c1.6-1.6,3.3-2.9,5.5-2.9c3.3,0,4.8,2,4.8,6.1v10.3h-1.5v-10.1
		c0-3.4-1.1-5-3.7-5c-1.9,0-3.3,1-5.2,3v12.1h-1.5V407.5z"/>
	<path class="st0" d="M-172.1,407.1c1.9,0,3.2,0.7,4.8,2l-0.1-2.9v-6.6h1.5v24h-1.3l-0.1-2.1h-0.1c-1.3,1.3-3.1,2.5-5.2,2.5
		c-4,0-6.6-3-6.6-8.4C-179.2,410.3-175.9,407.1-172.1,407.1z M-172.4,422.6c1.8,0,3.3-0.9,5-2.6v-9.5c-1.7-1.5-3.1-2.1-4.7-2.1
		c-3.2,0-5.6,3.1-5.6,7.2C-177.7,419.8-175.8,422.6-172.4,422.6z"/>
	<path class="st0" d="M-160.9,420.6c1.4,1.1,2.8,2,5.1,2c2.5,0,3.8-1.5,3.8-3.2c0-2-2.1-2.9-3.9-3.5c-2.4-0.9-5.1-1.8-5.1-4.6
		c0-2.3,1.8-4.3,5.2-4.3c1.7,0,3.4,0.7,4.6,1.7l-0.8,1c-1.1-0.8-2.2-1.4-3.8-1.4c-2.5,0-3.6,1.4-3.6,2.9c0,1.8,1.9,2.5,3.8,3.2
		c2.5,0.9,5.2,1.8,5.2,4.9c0,2.4-1.9,4.5-5.4,4.5c-2.4,0-4.4-1-5.9-2.2L-160.9,420.6z"/>
	<path class="st0" d="M-145.8,408.7h-2.5v-1.1l2.5-0.1l0.2-4.6h1.3v4.6h4.6v1.3h-4.6v10.5c0,2,0.5,3.4,2.7,3.4c0.6,0,1.4-0.2,2-0.5
		l0.4,1.2c-0.9,0.3-1.9,0.6-2.6,0.6c-3.1,0-4-2-4-4.8V408.7z"/>
	<path class="st0" d="M-130.3,407.1c3.9,0,7.2,3.1,7.2,8.5c0,5.3-3.3,8.4-7.2,8.4c-3.8,0-7.2-3.1-7.2-8.4
		C-137.4,410.1-134.1,407.1-130.3,407.1z M-130.3,422.6c3.2,0,5.7-2.9,5.7-7.1c0-4.2-2.4-7.2-5.7-7.2c-3.2,0-5.6,2.9-5.6,7.2
		C-135.9,419.7-133.5,422.6-130.3,422.6z"/>
	<path class="st0" d="M-118.2,407.5h1.3l0.1,3h0.1c1.1-2,2.6-3.4,4.5-3.4c0.6,0,1.1,0.1,1.6,0.3l-0.3,1.3c-0.5-0.2-0.8-0.3-1.5-0.3
		c-1.4,0-3.1,1.1-4.4,4.1v10.9h-1.5V407.5z"/>
	<path class="st0" d="M-107.6,407.5h1.3l0.1,2.5h0.1c1.4-1.6,3.3-2.9,5-2.9c2.6,0,3.9,1.3,4.4,3.3c1.8-2,3.6-3.3,5.4-3.3
		c3.2,0,4.8,2,4.8,6.1v10.3h-1.5v-10.1c0-3.4-1.1-5-3.6-5c-1.5,0-3,1-4.8,3v12.1h-1.5v-10.1c0-3.4-1.1-5-3.6-5c-1.4,0-3,1-4.8,3
		v12.1h-1.5V407.5z"/>
</g>
<rect x="-337.5" y="220.5" class="st1" width="401" height="164"/>
<rect x="-327" y="228" class="st2" width="120" height="146"/>
<g>
	<path class="st3" d="M-286.5,253.4h0.8v5h6.1v-5h0.8v11.5h-0.8v-5.8h-6.1v5.8h-0.8V253.4z"/>
	<path class="st3" d="M-273,254.1h-3.7v-0.7h8.1v0.7h-3.6v10.8h-0.8V254.1z"/>
	<path class="st3" d="M-263.9,254.1h-3.7v-0.7h8.1v0.7h-3.6v10.8h-0.8V254.1z"/>
	<path class="st3" d="M-257.4,253.4h3.1c2.6,0,4.1,0.8,4.1,3.2c0,2.2-1.5,3.3-4.1,3.3h-2.3v4.9h-0.8V253.4z M-254.5,259.3
		c2.4,0,3.5-0.8,3.5-2.7c0-1.9-1.1-2.5-3.5-2.5h-2.1v5.2H-254.5z"/>
</g>
<g>
	<path class="st3" d="M-316.2,280.9h3.1c2.3,0,3.8,0.9,3.8,2.8c0,1.2-0.7,2.2-2,2.5v0.1c1.7,0.2,2.8,1.2,2.8,2.8
		c0,2.2-1.7,3.3-4.3,3.3h-3.3V280.9z M-313.5,286c2.4,0,3.3-0.8,3.3-2.3c0-1.5-1.1-2.1-3.2-2.1h-2.1v4.4H-313.5z M-313.1,291.8
		c2.3,0,3.7-0.8,3.7-2.7c0-1.6-1.3-2.4-3.7-2.4h-2.3v5.1H-313.1z"/>
	<path class="st3" d="M-306.4,284.1h0.8v5.3c0,1.8,0.6,2.6,1.9,2.6c1,0,1.7-0.5,2.7-1.7v-6.2h0.8v8.4h-0.6l-0.1-1.4h0
		c-0.8,1-1.7,1.6-2.8,1.6c-1.7,0-2.5-1-2.5-3.2V284.1z"/>
	<path class="st3" d="M-297.7,290.9c0.7,0.6,1.5,1.1,2.7,1.1c1.3,0,2-0.8,2-1.7c0-1-1.1-1.5-2-1.8c-1.3-0.5-2.7-1-2.7-2.4
		c0-1.2,1-2.2,2.7-2.2c0.9,0,1.8,0.4,2.4,0.9l-0.4,0.5c-0.6-0.4-1.2-0.8-2-0.8c-1.3,0-1.9,0.8-1.9,1.5c0,0.9,1,1.3,2,1.7
		c1.3,0.5,2.7,0.9,2.7,2.6c0,1.3-1,2.4-2.8,2.4c-1.2,0-2.3-0.5-3.1-1.2L-297.7,290.9z"/>
	<path class="st3" d="M-290.3,281.3c0-0.4,0.3-0.7,0.7-0.7c0.4,0,0.7,0.3,0.7,0.7c0,0.4-0.3,0.7-0.7,0.7
		C-290,282-290.3,281.8-290.3,281.3z M-290,284.1h0.8v8.4h-0.8V284.1z"/>
	<path class="st3" d="M-286,284.1h0.7l0.1,1.3h0.1c0.9-0.9,1.7-1.5,2.9-1.5c1.7,0,2.5,1,2.5,3.2v5.4h-0.8v-5.3
		c0-1.8-0.6-2.6-1.9-2.6c-1,0-1.7,0.5-2.7,1.6v6.3h-0.8V284.1z"/>
	<path class="st3" d="M-273.8,283.8c2,0,3.2,1.4,3.2,3.9c0,0.2,0,0.4,0,0.6h-6c0,2.1,1.3,3.6,3.2,3.6c0.9,0,1.6-0.3,2.3-0.8l0.3,0.6
		c-0.7,0.4-1.4,0.8-2.6,0.8c-2.1,0-3.9-1.6-3.9-4.4S-275.7,283.8-273.8,283.8z M-271.3,287.8c0-2.1-1-3.2-2.5-3.2
		c-1.4,0-2.7,1.2-2.9,3.2H-271.3z"/>
	<path class="st3" d="M-268.9,290.9c0.7,0.6,1.5,1.1,2.7,1.1c1.3,0,2-0.8,2-1.7c0-1-1.1-1.5-2-1.8c-1.3-0.5-2.7-1-2.7-2.4
		c0-1.2,1-2.2,2.7-2.2c0.9,0,1.8,0.4,2.4,0.9l-0.4,0.5c-0.6-0.4-1.2-0.8-2-0.8c-1.3,0-1.9,0.8-1.9,1.5c0,0.9,1,1.3,2,1.7
		c1.3,0.5,2.7,0.9,2.7,2.6c0,1.3-1,2.4-2.8,2.4c-1.2,0-2.3-0.5-3.1-1.2L-268.9,290.9z"/>
	<path class="st3" d="M-261.9,290.9c0.7,0.6,1.5,1.1,2.7,1.1c1.3,0,2-0.8,2-1.7c0-1-1.1-1.5-2-1.8c-1.3-0.5-2.7-1-2.7-2.4
		c0-1.2,1-2.2,2.7-2.2c0.9,0,1.8,0.4,2.4,0.9l-0.4,0.5c-0.6-0.4-1.2-0.8-2-0.8c-1.3,0-1.9,0.8-1.9,1.5c0,0.9,1,1.3,2,1.7
		c1.3,0.5,2.7,0.9,2.7,2.6c0,1.3-1,2.4-2.8,2.4c-1.2,0-2.3-0.5-3.1-1.2L-261.9,290.9z"/>
	<path class="st3" d="M-250.7,280.9h0.8v10.8h5.3v0.7h-6.1V280.9z"/>
	<path class="st3" d="M-239.9,283.8c2,0,3.8,1.6,3.8,4.4c0,2.8-1.7,4.4-3.8,4.4c-2,0-3.8-1.6-3.8-4.4
		C-243.6,285.4-241.9,283.8-239.9,283.8z M-239.9,292c1.7,0,3-1.5,3-3.7c0-2.2-1.3-3.7-3-3.7s-2.9,1.5-2.9,3.7
		C-242.8,290.5-241.6,292-239.9,292z"/>
	<path class="st3" d="M-233,292.1L-233,292.1c-0.4-0.3-0.7-0.8-0.7-1.4c0-0.8,0.5-1.3,0.9-1.5v-0.1c-0.5-0.5-1-1.3-1-2.3
		c0-1.7,1.3-2.9,2.9-2.9c0.5,0,0.8,0.1,1.1,0.2h2.8v0.6h-2c0.5,0.5,0.9,1.2,0.9,2.1c0,1.7-1.3,2.9-2.9,2.9c-0.5,0-1-0.1-1.4-0.3
		c-0.4,0.3-0.7,0.6-0.7,1.2c0,0.6,0.3,1.1,1.6,1.1h1.8c1.9,0,2.8,0.6,2.8,1.9c0,1.4-1.6,2.8-4,2.8c-2.1,0-3.4-0.9-3.4-2.3
		C-234.3,293.4-233.8,292.7-233,292.1z M-230.8,295.8c1.9,0,3.1-1.1,3.1-2.1c0-0.9-0.7-1.3-1.9-1.3h-1.8c-0.2,0-0.6,0-1-0.1
		c-0.8,0.5-1.1,1.2-1.1,1.8C-233.5,295.1-232.5,295.8-230.8,295.8z M-228.8,286.8c0-1.4-1-2.3-2.2-2.3s-2.2,0.9-2.2,2.3
		c0,1.4,1,2.4,2.2,2.4C-229.8,289.1-228.8,288.2-228.8,286.8z"/>
	<path class="st3" d="M-225.4,281.3c0-0.4,0.3-0.7,0.7-0.7c0.4,0,0.7,0.3,0.7,0.7c0,0.4-0.3,0.7-0.7,0.7
		C-225.1,282-225.4,281.8-225.4,281.3z M-225.1,284.1h0.8v8.4h-0.8V284.1z"/>
	<path class="st3" d="M-218,283.8c1.2,0,1.9,0.5,2.5,1l-0.5,0.5c-0.5-0.5-1.2-0.9-2-0.9c-1.7,0-3,1.5-3,3.7c0,2.2,1.2,3.7,3,3.7
		c0.9,0,1.7-0.4,2.2-1l0.4,0.5c-0.7,0.6-1.6,1.1-2.7,1.1c-2.2,0-3.8-1.6-3.8-4.4C-221.8,285.4-220,283.8-218,283.8z"/>
</g>
<g>
	<path class="st3" d="M-301,310.5h2.7c3.5,0,5.2,2.2,5.2,5.7c0,3.5-1.7,5.8-5.2,5.8h-2.7V310.5z M-298.4,321.4
		c3.1,0,4.5-2.1,4.5-5.1c0-3-1.4-5-4.5-5h-1.8v10.1H-298.4z"/>
	<path class="st3" d="M-285.7,316.8c0-1.3-0.3-2.7-2-2.7c-1.1,0-2.1,0.6-2.7,1l-0.3-0.6c0.6-0.4,1.7-1.1,3.1-1.1
		c2,0,2.7,1.4,2.7,3.2v5.4h-0.6l-0.1-1.1h0c-0.9,0.7-1.9,1.3-3,1.3c-1.3,0-2.4-0.7-2.4-2.3C-291.1,318.1-289.4,317.2-285.7,316.8z
		 M-288.5,321.6c1,0,1.8-0.5,2.8-1.4v-2.8c-3.4,0.4-4.6,1.2-4.6,2.5C-290.3,321.1-289.5,321.6-288.5,321.6z"/>
	<path class="st3" d="M-281.7,314.3h-1.3v-0.6l1.3-0.1l0.1-2.4h0.7v2.4h2.4v0.7h-2.4v5.5c0,1.1,0.3,1.8,1.4,1.8c0.3,0,0.8-0.1,1-0.3
		l0.2,0.6c-0.5,0.2-1,0.3-1.4,0.3c-1.6,0-2.1-1-2.1-2.5V314.3z"/>
	<path class="st3" d="M-271.9,316.8c0-1.3-0.3-2.7-2-2.7c-1.1,0-2.1,0.6-2.7,1l-0.3-0.6c0.6-0.4,1.7-1.1,3.1-1.1
		c2,0,2.7,1.4,2.7,3.2v5.4h-0.6l-0.1-1.1h0c-0.9,0.7-1.9,1.3-3,1.3c-1.3,0-2.4-0.7-2.4-2.3C-277.3,318.1-275.6,317.2-271.9,316.8z
		 M-274.7,321.6c1,0,1.8-0.5,2.8-1.4v-2.8c-3.4,0.4-4.6,1.2-4.6,2.5C-276.5,321.1-275.7,321.6-274.7,321.6z"/>
	<path class="st3" d="M-268.1,309.5h0.8v3.6l0,1.6c0.9-0.7,1.9-1.3,2.9-1.3c2.2,0,3.3,1.7,3.3,4.3c0,2.8-1.7,4.5-3.7,4.5
		c-0.8,0-1.7-0.4-2.5-1h0l-0.1,0.8h-0.6V309.5z M-264.9,321.6c1.7,0,2.9-1.6,2.9-3.8c0-2.1-0.7-3.6-2.7-3.6c-0.8,0-1.7,0.5-2.7,1.4
		v5C-266.4,321.3-265.5,321.6-264.9,321.6z"/>
	<path class="st3" d="M-254,316.8c0-1.3-0.3-2.7-2-2.7c-1.1,0-2.1,0.6-2.7,1l-0.3-0.6c0.6-0.4,1.7-1.1,3.1-1.1c2,0,2.7,1.4,2.7,3.2
		v5.4h-0.6l-0.1-1.1h0c-0.9,0.7-1.9,1.3-3,1.3c-1.3,0-2.4-0.7-2.4-2.3C-259.4,318.1-257.7,317.2-254,316.8z M-256.8,321.6
		c1,0,1.8-0.5,2.8-1.4v-2.8c-3.4,0.4-4.6,1.2-4.6,2.5C-258.6,321.1-257.8,321.6-256.8,321.6z"/>
	<path class="st3" d="M-250.8,320.5c0.7,0.6,1.5,1.1,2.7,1.1c1.3,0,2-0.8,2-1.7c0-1-1.1-1.5-2-1.8c-1.3-0.5-2.7-1-2.7-2.4
		c0-1.2,1-2.2,2.7-2.2c0.9,0,1.8,0.4,2.4,0.9l-0.4,0.5c-0.6-0.4-1.2-0.8-2-0.8c-1.3,0-1.9,0.8-1.9,1.5c0,0.9,1,1.3,2,1.7
		c1.3,0.5,2.7,0.9,2.7,2.6c0,1.3-1,2.4-2.8,2.4c-1.2,0-2.3-0.5-3.1-1.2L-250.8,320.5z"/>
	<path class="st3" d="M-240.2,313.5c2,0,3.2,1.4,3.2,3.9c0,0.2,0,0.4,0,0.6h-6c0,2.1,1.3,3.6,3.2,3.6c0.9,0,1.6-0.3,2.3-0.8l0.3,0.6
		c-0.7,0.4-1.4,0.8-2.6,0.8c-2.1,0-3.9-1.6-3.9-4.4S-242.1,313.5-240.2,313.5z M-237.7,317.4c0-2.1-1-3.2-2.5-3.2
		c-1.4,0-2.7,1.2-2.9,3.2H-237.7z"/>
</g>
<g>
	<polygon class="st4" points="-264.6,339 -276,339 -276,363 -258,363 -258,346.6 	"/>
	<polygon class="st3" points="-264,346 -258,346 -264,340.1 	"/>
</g>
<rect x="-197" y="228" class="st2" width="120" height="146"/>
<g>
	<path class="st3" d="M-156.9,253.4h0.8v5h6.1v-5h0.8v11.5h-0.8v-5.8h-6.1v5.8h-0.8V253.4z"/>
	<path class="st3" d="M-143.4,254.1h-3.7v-0.7h8.1v0.7h-3.6v10.8h-0.8V254.1z"/>
	<path class="st3" d="M-134.4,254.1h-3.7v-0.7h8.1v0.7h-3.6v10.8h-0.8V254.1z"/>
	<path class="st3" d="M-127.9,253.4h3.1c2.6,0,4.1,0.8,4.1,3.2c0,2.2-1.5,3.3-4.1,3.3h-2.3v4.9h-0.8V253.4z M-125,259.3
		c2.4,0,3.5-0.8,3.5-2.7c0-1.9-1.1-2.5-3.5-2.5h-2.1v5.2H-125z"/>
</g>
<g>
	<path class="st3" d="M-185.9,280.9h3.1c2.3,0,3.8,0.9,3.8,2.8c0,1.2-0.7,2.2-2,2.5v0.1c1.7,0.2,2.8,1.2,2.8,2.8
		c0,2.2-1.7,3.3-4.3,3.3h-3.3V280.9z M-183.1,286c2.4,0,3.3-0.8,3.3-2.3c0-1.5-1.1-2.1-3.2-2.1h-2.1v4.4H-183.1z M-182.8,291.8
		c2.3,0,3.7-0.8,3.7-2.7c0-1.6-1.3-2.4-3.7-2.4h-2.3v5.1H-182.8z"/>
	<path class="st3" d="M-176.1,284.1h0.8v5.3c0,1.8,0.6,2.6,1.9,2.6c1,0,1.7-0.5,2.7-1.7v-6.2h0.8v8.4h-0.6l-0.1-1.4h0
		c-0.8,1-1.7,1.6-2.8,1.6c-1.7,0-2.5-1-2.5-3.2V284.1z"/>
	<path class="st3" d="M-167.3,290.9c0.7,0.6,1.5,1.1,2.7,1.1c1.3,0,2-0.8,2-1.7c0-1-1.1-1.5-2-1.8c-1.3-0.5-2.7-1-2.7-2.4
		c0-1.2,1-2.2,2.7-2.2c0.9,0,1.8,0.4,2.4,0.9l-0.4,0.5c-0.6-0.4-1.2-0.8-2-0.8c-1.3,0-1.9,0.8-1.9,1.5c0,0.9,1,1.3,2,1.7
		c1.3,0.5,2.7,0.9,2.7,2.6c0,1.3-1,2.4-2.8,2.4c-1.2,0-2.3-0.5-3.1-1.2L-167.3,290.9z"/>
	<path class="st3" d="M-160,281.3c0-0.4,0.3-0.7,0.7-0.7c0.4,0,0.7,0.3,0.7,0.7c0,0.4-0.3,0.7-0.7,0.7
		C-159.7,282-160,281.8-160,281.3z M-159.7,284.1h0.8v8.4h-0.8V284.1z"/>
	<path class="st3" d="M-155.7,284.1h0.7l0.1,1.3h0.1c0.9-0.9,1.7-1.5,2.9-1.5c1.7,0,2.5,1,2.5,3.2v5.4h-0.8v-5.3
		c0-1.8-0.6-2.6-1.9-2.6c-1,0-1.7,0.5-2.7,1.6v6.3h-0.8V284.1z"/>
	<path class="st3" d="M-143.5,283.8c2,0,3.2,1.4,3.2,3.9c0,0.2,0,0.4,0,0.6h-6c0,2.1,1.3,3.6,3.2,3.6c0.9,0,1.6-0.3,2.3-0.8l0.3,0.6
		c-0.7,0.4-1.4,0.8-2.6,0.8c-2.1,0-3.9-1.6-3.9-4.4S-145.3,283.8-143.5,283.8z M-141,287.8c0-2.1-1-3.2-2.5-3.2
		c-1.4,0-2.7,1.2-2.9,3.2H-141z"/>
	<path class="st3" d="M-138.6,290.9c0.7,0.6,1.5,1.1,2.7,1.1c1.3,0,2-0.8,2-1.7c0-1-1.1-1.5-2-1.8c-1.3-0.5-2.7-1-2.7-2.4
		c0-1.2,1-2.2,2.7-2.2c0.9,0,1.8,0.4,2.4,0.9l-0.4,0.5c-0.6-0.4-1.2-0.8-2-0.8c-1.3,0-1.9,0.8-1.9,1.5c0,0.9,1,1.3,2,1.7
		c1.3,0.5,2.7,0.9,2.7,2.6c0,1.3-1,2.4-2.8,2.4c-1.2,0-2.3-0.5-3.1-1.2L-138.6,290.9z"/>
	<path class="st3" d="M-131.5,290.9c0.7,0.6,1.5,1.1,2.7,1.1c1.3,0,2-0.8,2-1.7c0-1-1.1-1.5-2-1.8c-1.3-0.5-2.7-1-2.7-2.4
		c0-1.2,1-2.2,2.7-2.2c0.9,0,1.8,0.4,2.4,0.9l-0.4,0.5c-0.6-0.4-1.2-0.8-2-0.8c-1.3,0-1.9,0.8-1.9,1.5c0,0.9,1,1.3,2,1.7
		c1.3,0.5,2.7,0.9,2.7,2.6c0,1.3-1,2.4-2.8,2.4c-1.2,0-2.3-0.5-3.1-1.2L-131.5,290.9z"/>
	<path class="st3" d="M-120.4,280.9h0.8v10.8h5.3v0.7h-6.1V280.9z"/>
	<path class="st3" d="M-109.5,283.8c2,0,3.8,1.6,3.8,4.4c0,2.8-1.7,4.4-3.8,4.4c-2,0-3.8-1.6-3.8-4.4
		C-113.3,285.4-111.5,283.8-109.5,283.8z M-109.5,292c1.7,0,3-1.5,3-3.7c0-2.2-1.3-3.7-3-3.7s-2.9,1.5-2.9,3.7
		C-112.5,290.5-111.2,292-109.5,292z"/>
	<path class="st3" d="M-102.7,292.1L-102.7,292.1c-0.4-0.3-0.7-0.8-0.7-1.4c0-0.8,0.5-1.3,0.9-1.5v-0.1c-0.5-0.5-1-1.3-1-2.3
		c0-1.7,1.3-2.9,2.9-2.9c0.5,0,0.8,0.1,1.1,0.2h2.8v0.6h-2c0.5,0.5,0.9,1.2,0.9,2.1c0,1.7-1.3,2.9-2.9,2.9c-0.5,0-1-0.1-1.4-0.3
		c-0.4,0.3-0.7,0.6-0.7,1.2c0,0.6,0.3,1.1,1.6,1.1h1.8c1.9,0,2.8,0.6,2.8,1.9c0,1.4-1.6,2.8-4,2.8c-2.1,0-3.4-0.9-3.4-2.3
		C-103.9,293.4-103.5,292.7-102.7,292.1z M-100.4,295.8c1.9,0,3.1-1.1,3.1-2.1c0-0.9-0.7-1.3-1.9-1.3h-1.8c-0.2,0-0.6,0-1-0.1
		c-0.8,0.5-1.1,1.2-1.1,1.8C-103.2,295.1-102.2,295.8-100.4,295.8z M-98.5,286.8c0-1.4-1-2.3-2.2-2.3s-2.2,0.9-2.2,2.3
		c0,1.4,1,2.4,2.2,2.4C-99.5,289.1-98.5,288.2-98.5,286.8z"/>
	<path class="st3" d="M-95,281.3c0-0.4,0.3-0.7,0.7-0.7c0.4,0,0.7,0.3,0.7,0.7c0,0.4-0.3,0.7-0.7,0.7C-94.7,282-95,281.8-95,281.3z
		 M-94.7,284.1h0.8v8.4h-0.8V284.1z"/>
	<path class="st3" d="M-87.6,283.8c1.2,0,1.9,0.5,2.5,1l-0.5,0.5c-0.5-0.5-1.2-0.9-2-0.9c-1.7,0-3,1.5-3,3.7c0,2.2,1.2,3.7,3,3.7
		c0.9,0,1.7-0.4,2.2-1l0.4,0.5c-0.7,0.6-1.6,1.1-2.7,1.1c-2.2,0-3.8-1.6-3.8-4.4C-91.5,285.4-89.7,283.8-87.6,283.8z"/>
</g>
<g>
	<path class="st3" d="M-170.7,310.5h2.7c3.5,0,5.2,2.2,5.2,5.7c0,3.5-1.7,5.8-5.2,5.8h-2.7V310.5z M-168.1,321.4
		c3.1,0,4.5-2.1,4.5-5.1c0-3-1.4-5-4.5-5h-1.8v10.1H-168.1z"/>
	<path class="st3" d="M-155.3,316.8c0-1.3-0.3-2.7-2-2.7c-1.1,0-2.1,0.6-2.7,1l-0.3-0.6c0.6-0.4,1.7-1.1,3.1-1.1
		c2,0,2.7,1.4,2.7,3.2v5.4h-0.6l-0.1-1.1h0c-0.9,0.7-1.9,1.3-3,1.3c-1.3,0-2.4-0.7-2.4-2.3C-160.7,318.1-159,317.2-155.3,316.8z
		 M-158.2,321.6c1,0,1.8-0.5,2.8-1.4v-2.8c-3.4,0.4-4.6,1.2-4.6,2.5C-159.9,321.1-159.1,321.6-158.2,321.6z"/>
	<path class="st3" d="M-151.4,314.3h-1.3v-0.6l1.3-0.1l0.1-2.4h0.7v2.4h2.4v0.7h-2.4v5.5c0,1.1,0.3,1.8,1.4,1.8c0.3,0,0.7-0.1,1-0.3
		l0.2,0.6c-0.5,0.2-1,0.3-1.4,0.3c-1.6,0-2.1-1-2.1-2.5V314.3z"/>
	<path class="st3" d="M-141.5,316.8c0-1.3-0.3-2.7-2-2.7c-1.1,0-2.1,0.6-2.7,1l-0.3-0.6c0.6-0.4,1.7-1.1,3.1-1.1
		c2,0,2.7,1.4,2.7,3.2v5.4h-0.6l-0.1-1.1h0c-0.9,0.7-1.9,1.3-3,1.3c-1.3,0-2.4-0.7-2.4-2.3C-146.9,318.1-145.3,317.2-141.5,316.8z
		 M-144.4,321.6c1,0,1.8-0.5,2.8-1.4v-2.8c-3.4,0.4-4.6,1.2-4.6,2.5C-146.1,321.1-145.3,321.6-144.4,321.6z"/>
	<path class="st3" d="M-137.8,309.5h0.8v3.6l0,1.6c0.9-0.7,1.9-1.3,2.9-1.3c2.2,0,3.3,1.7,3.3,4.3c0,2.8-1.7,4.5-3.7,4.5
		c-0.8,0-1.7-0.4-2.5-1h0l-0.1,0.8h-0.6V309.5z M-134.5,321.6c1.7,0,2.9-1.6,2.9-3.8c0-2.1-0.7-3.6-2.7-3.6c-0.8,0-1.7,0.5-2.7,1.4
		v5C-136.1,321.3-135.2,321.6-134.5,321.6z"/>
	<path class="st3" d="M-123.6,316.8c0-1.3-0.3-2.7-2-2.7c-1.1,0-2.1,0.6-2.7,1l-0.3-0.6c0.6-0.4,1.7-1.1,3.1-1.1
		c2,0,2.7,1.4,2.7,3.2v5.4h-0.6l-0.1-1.1h0c-0.9,0.7-1.9,1.3-3,1.3c-1.3,0-2.4-0.7-2.4-2.3C-129,318.1-127.3,317.2-123.6,316.8z
		 M-126.5,321.6c1,0,1.8-0.5,2.8-1.4v-2.8c-3.4,0.4-4.6,1.2-4.6,2.5C-128.2,321.1-127.4,321.6-126.5,321.6z"/>
	<path class="st3" d="M-120.4,320.5c0.7,0.6,1.5,1.1,2.7,1.1c1.3,0,2-0.8,2-1.7c0-1-1.1-1.5-2-1.8c-1.3-0.5-2.7-1-2.7-2.4
		c0-1.2,1-2.2,2.7-2.2c0.9,0,1.8,0.4,2.4,0.9l-0.4,0.5c-0.6-0.4-1.2-0.8-2-0.8c-1.3,0-1.9,0.8-1.9,1.5c0,0.9,1,1.3,2,1.7
		c1.3,0.5,2.7,0.9,2.7,2.6c0,1.3-1,2.4-2.8,2.4c-1.2,0-2.3-0.5-3.1-1.2L-120.4,320.5z"/>
	<path class="st3" d="M-109.8,313.5c2,0,3.2,1.4,3.2,3.9c0,0.2,0,0.4,0,0.6h-6c0,2.1,1.3,3.6,3.2,3.6c0.9,0,1.6-0.3,2.3-0.8l0.3,0.6
		c-0.7,0.4-1.4,0.8-2.6,0.8c-2.1,0-3.9-1.6-3.9-4.4S-111.7,313.5-109.8,313.5z M-107.4,317.4c0-2.1-1-3.2-2.5-3.2
		c-1.4,0-2.7,1.2-2.9,3.2H-107.4z"/>
</g>
<g>
	<polygon class="st4" points="-134.2,339 -146,339 -146,363 -128,363 -128,346.6 	"/>
	<polygon class="st3" points="-134,346 -127.6,346 -134,340.1 	"/>
</g>
<rect x="-67" y="228" class="st2" width="121" height="146"/>
<g>
	<path class="st3" d="M-26.6,253.4h0.8v5h6.1v-5h0.8v11.5h-0.8v-5.8h-6.1v5.8h-0.8V253.4z"/>
	<path class="st3" d="M-13.1,254.1h-3.7v-0.7h8.1v0.7h-3.6v10.8h-0.8V254.1z"/>
	<path class="st3" d="M-4.1,254.1h-3.7v-0.7h8.1v0.7h-3.6v10.8h-0.8V254.1z"/>
	<path class="st3" d="M2.5,253.4h3.1c2.6,0,4.1,0.8,4.1,3.2c0,2.2-1.5,3.3-4.1,3.3H3.3v4.9H2.5V253.4z M5.4,259.3
		c2.4,0,3.5-0.8,3.5-2.7c0-1.9-1.1-2.5-3.5-2.5H3.3v5.2H5.4z"/>
</g>
<g>
	<path class="st3" d="M-55.5,280.9h3.1c2.3,0,3.8,0.9,3.8,2.8c0,1.2-0.7,2.2-2,2.5v0.1c1.7,0.2,2.8,1.2,2.8,2.8
		c0,2.2-1.7,3.3-4.3,3.3h-3.3V280.9z M-52.8,286c2.4,0,3.3-0.8,3.3-2.3c0-1.5-1.1-2.1-3.2-2.1h-2.1v4.4H-52.8z M-52.4,291.8
		c2.3,0,3.7-0.8,3.7-2.7c0-1.6-1.3-2.4-3.7-2.4h-2.3v5.1H-52.4z"/>
	<path class="st3" d="M-45.7,284.1h0.8v5.3c0,1.8,0.6,2.6,1.9,2.6c1,0,1.7-0.5,2.7-1.7v-6.2h0.8v8.4h-0.6l-0.1-1.4h0
		c-0.8,1-1.7,1.6-2.8,1.6c-1.7,0-2.5-1-2.5-3.2V284.1z"/>
	<path class="st3" d="M-37,290.9c0.7,0.6,1.5,1.1,2.7,1.1c1.3,0,2-0.8,2-1.7c0-1-1.1-1.5-2-1.8c-1.3-0.5-2.7-1-2.7-2.4
		c0-1.2,1-2.2,2.7-2.2c0.9,0,1.8,0.4,2.4,0.9l-0.4,0.5c-0.6-0.4-1.2-0.8-2-0.8c-1.3,0-1.9,0.8-1.9,1.5c0,0.9,1,1.3,2,1.7
		c1.3,0.5,2.7,0.9,2.7,2.6c0,1.3-1,2.4-2.8,2.4c-1.2,0-2.3-0.5-3.1-1.2L-37,290.9z"/>
	<path class="st3" d="M-29.6,281.3c0-0.4,0.3-0.7,0.7-0.7s0.7,0.3,0.7,0.7c0,0.4-0.3,0.7-0.7,0.7S-29.6,281.8-29.6,281.3z
		 M-29.3,284.1h0.8v8.4h-0.8V284.1z"/>
	<path class="st3" d="M-25.3,284.1h0.7l0.1,1.3h0.1c0.9-0.9,1.7-1.5,2.9-1.5c1.7,0,2.5,1,2.5,3.2v5.4h-0.8v-5.3
		c0-1.8-0.6-2.6-1.9-2.6c-1,0-1.7,0.5-2.7,1.6v6.3h-0.8V284.1z"/>
	<path class="st3" d="M-13.1,283.8c2,0,3.2,1.4,3.2,3.9c0,0.2,0,0.4,0,0.6h-6c0,2.1,1.3,3.6,3.2,3.6c0.9,0,1.6-0.3,2.3-0.8l0.3,0.6
		c-0.7,0.4-1.4,0.8-2.6,0.8c-2.1,0-3.9-1.6-3.9-4.4S-15,283.8-13.1,283.8z M-10.6,287.8c0-2.1-1-3.2-2.5-3.2c-1.4,0-2.7,1.2-2.9,3.2
		H-10.6z"/>
	<path class="st3" d="M-8.2,290.9c0.7,0.6,1.5,1.1,2.7,1.1c1.3,0,2-0.8,2-1.7c0-1-1.1-1.5-2-1.8c-1.3-0.5-2.7-1-2.7-2.4
		c0-1.2,1-2.2,2.7-2.2c0.9,0,1.8,0.4,2.4,0.9l-0.4,0.5c-0.6-0.4-1.2-0.8-2-0.8c-1.3,0-1.9,0.8-1.9,1.5c0,0.9,1,1.3,2,1.7
		c1.3,0.5,2.7,0.9,2.7,2.6c0,1.3-1,2.4-2.8,2.4c-1.2,0-2.3-0.5-3.1-1.2L-8.2,290.9z"/>
	<path class="st3" d="M-1.2,290.9c0.7,0.6,1.5,1.1,2.7,1.1c1.3,0,2-0.8,2-1.7c0-1-1.1-1.5-2-1.8c-1.3-0.5-2.7-1-2.7-2.4
		c0-1.2,1-2.2,2.7-2.2c0.9,0,1.8,0.4,2.4,0.9l-0.4,0.5c-0.6-0.4-1.2-0.8-2-0.8c-1.3,0-1.9,0.8-1.9,1.5c0,0.9,1,1.3,2,1.7
		c1.3,0.5,2.7,0.9,2.7,2.6c0,1.3-1,2.4-2.8,2.4c-1.2,0-2.3-0.5-3.1-1.2L-1.2,290.9z"/>
	<path class="st3" d="M10,280.9h0.8v10.8h5.3v0.7H10V280.9z"/>
	<path class="st3" d="M20.8,283.8c2,0,3.8,1.6,3.8,4.4c0,2.8-1.7,4.4-3.8,4.4c-2,0-3.7-1.6-3.7-4.4
		C17.1,285.4,18.8,283.8,20.8,283.8z M20.8,292c1.7,0,3-1.5,3-3.7c0-2.2-1.3-3.7-3-3.7c-1.7,0-2.9,1.5-2.9,3.7
		C17.9,290.5,19.1,292,20.8,292z"/>
	<path class="st3" d="M27.6,292.1L27.6,292.1c-0.4-0.3-0.7-0.8-0.7-1.4c0-0.8,0.5-1.3,0.9-1.5v-0.1c-0.5-0.5-1-1.3-1-2.3
		c0-1.7,1.3-2.9,2.9-2.9c0.5,0,0.8,0.1,1.1,0.2h2.8v0.6h-2c0.5,0.5,0.9,1.2,0.9,2.1c0,1.7-1.3,2.9-2.9,2.9c-0.5,0-1-0.1-1.4-0.3
		c-0.4,0.3-0.7,0.6-0.7,1.2c0,0.6,0.3,1.1,1.6,1.1H31c1.9,0,2.8,0.6,2.8,1.9c0,1.4-1.6,2.8-4,2.8c-2.1,0-3.4-0.9-3.4-2.3
		C26.4,293.4,26.9,292.7,27.6,292.1z M29.9,295.8c1.9,0,3.1-1.1,3.1-2.1c0-0.9-0.7-1.3-1.9-1.3h-1.8c-0.2,0-0.6,0-1-0.1
		c-0.8,0.5-1.1,1.2-1.1,1.8C27.1,295.1,28.2,295.8,29.9,295.8z M31.9,286.8c0-1.4-1-2.3-2.2-2.3s-2.2,0.9-2.2,2.3
		c0,1.4,1,2.4,2.2,2.4C30.9,289.1,31.9,288.2,31.9,286.8z"/>
	<path class="st3" d="M35.3,281.3c0-0.4,0.3-0.7,0.7-0.7s0.7,0.3,0.7,0.7c0,0.4-0.3,0.7-0.7,0.7S35.3,281.8,35.3,281.3z M35.6,284.1
		h0.8v8.4h-0.8V284.1z"/>
	<path class="st3" d="M42.7,283.8c1.2,0,1.9,0.5,2.5,1l-0.5,0.5c-0.5-0.5-1.2-0.9-2-0.9c-1.7,0-3,1.5-3,3.7c0,2.2,1.2,3.7,3,3.7
		c0.9,0,1.7-0.4,2.2-1l0.4,0.5c-0.7,0.6-1.6,1.1-2.7,1.1c-2.2,0-3.8-1.6-3.8-4.4C38.9,285.4,40.7,283.8,42.7,283.8z"/>
</g>
<g>
	<path class="st3" d="M-40.3,310.5h2.7c3.5,0,5.2,2.2,5.2,5.7c0,3.5-1.7,5.8-5.2,5.8h-2.7V310.5z M-37.7,321.4
		c3.1,0,4.5-2.1,4.5-5.1c0-3-1.4-5-4.5-5h-1.8v10.1H-37.7z"/>
	<path class="st3" d="M-25,316.8c0-1.3-0.3-2.7-2-2.7c-1.1,0-2.1,0.6-2.7,1l-0.3-0.6c0.6-0.4,1.7-1.1,3.1-1.1c2,0,2.7,1.4,2.7,3.2
		v5.4h-0.6l-0.1-1.1h0c-0.9,0.7-1.9,1.3-3,1.3c-1.3,0-2.4-0.7-2.4-2.3C-30.4,318.1-28.7,317.2-25,316.8z M-27.8,321.6
		c1,0,1.8-0.5,2.8-1.4v-2.8c-3.4,0.4-4.6,1.2-4.6,2.5C-29.6,321.1-28.8,321.6-27.8,321.6z"/>
	<path class="st3" d="M-21,314.3h-1.3v-0.6l1.3-0.1l0.1-2.4h0.7v2.4h2.4v0.7h-2.4v5.5c0,1.1,0.3,1.8,1.4,1.8c0.3,0,0.8-0.1,1-0.3
		l0.2,0.6c-0.5,0.2-1,0.3-1.4,0.3c-1.6,0-2.1-1-2.1-2.5V314.3z"/>
	<path class="st3" d="M-11.2,316.8c0-1.3-0.3-2.7-2-2.7c-1.1,0-2.1,0.6-2.7,1l-0.3-0.6c0.6-0.4,1.7-1.1,3.1-1.1c2,0,2.7,1.4,2.7,3.2
		v5.4h-0.6l-0.1-1.1h0c-0.9,0.7-1.9,1.3-3,1.3c-1.3,0-2.4-0.7-2.4-2.3C-16.6,318.1-14.9,317.2-11.2,316.8z M-14,321.6
		c1,0,1.8-0.5,2.8-1.4v-2.8c-3.4,0.4-4.6,1.2-4.6,2.5C-15.8,321.1-15,321.6-14,321.6z"/>
	<path class="st3" d="M-7.4,309.5h0.8v3.6l0,1.6c0.9-0.7,1.9-1.3,2.9-1.3c2.2,0,3.3,1.7,3.3,4.3c0,2.8-1.7,4.5-3.7,4.5
		c-0.8,0-1.7-0.4-2.5-1h0l-0.1,0.8h-0.6V309.5z M-4.2,321.6c1.7,0,2.9-1.6,2.9-3.8c0-2.1-0.7-3.6-2.7-3.6c-0.8,0-1.7,0.5-2.7,1.4v5
		C-5.7,321.3-4.8,321.6-4.2,321.6z"/>
	<path class="st3" d="M6.7,316.8c0-1.3-0.3-2.7-2-2.7c-1.1,0-2.1,0.6-2.7,1l-0.3-0.6c0.6-0.4,1.7-1.1,3.1-1.1c2,0,2.7,1.4,2.7,3.2
		v5.4H6.9L6.8,321h0c-0.9,0.7-1.9,1.3-3,1.3c-1.3,0-2.4-0.7-2.4-2.3C1.3,318.1,3,317.2,6.7,316.8z M3.9,321.6c1,0,1.8-0.5,2.8-1.4
		v-2.8c-3.4,0.4-4.6,1.2-4.6,2.5C2.1,321.1,2.9,321.6,3.9,321.6z"/>
	<path class="st3" d="M9.9,320.5c0.7,0.6,1.5,1.1,2.7,1.1c1.3,0,2-0.8,2-1.7c0-1-1.1-1.5-2-1.8c-1.3-0.5-2.7-1-2.7-2.4
		c0-1.2,1-2.2,2.7-2.2c0.9,0,1.8,0.4,2.4,0.9l-0.4,0.5c-0.6-0.4-1.2-0.8-2-0.8c-1.3,0-1.9,0.8-1.9,1.5c0,0.9,1,1.3,2,1.7
		c1.3,0.5,2.7,0.9,2.7,2.6c0,1.3-1,2.4-2.8,2.4c-1.2,0-2.3-0.5-3.1-1.2L9.9,320.5z"/>
	<path class="st3" d="M20.5,313.5c2,0,3.2,1.4,3.2,3.9c0,0.2,0,0.4,0,0.6h-6c0,2.1,1.3,3.6,3.2,3.6c0.9,0,1.6-0.3,2.3-0.8l0.3,0.6
		c-0.7,0.4-1.4,0.8-2.6,0.8c-2.1,0-3.9-1.6-3.9-4.4S18.6,313.5,20.5,313.5z M23,317.4c0-2.1-1-3.2-2.5-3.2c-1.4,0-2.7,1.2-2.9,3.2
		H23z"/>
</g>
<g>
	<polygon class="st4" points="-3.9,339 -16,339 -16,363 3,363 3,346.6 	"/>
	<polygon class="st3" points="-4,346 2.7,346 -4,340.1 	"/>
</g>
</svg>
