<?xml version="1.0" encoding="utf-8"?>
<!-- Generator: Adobe Illustrator 19.2.0, SVG Export Plug-In . SVG Version: 6.00 Build 0)  -->
<svg version="1.1" id="Layer_1" xmlns="http://www.w3.org/2000/svg" xmlns:xlink="http://www.w3.org/1999/xlink" x="0px" y="0px"
	 viewBox="0 0 416.3 150" style="enable-background:new 0 0 416.3 150;" xml:space="preserve">
<style type="text/css">
	.st0{opacity:0.19;fill:#5B5193;}
	.st1{fill:#5B5193;}
	.st2{fill:#AAAAAA;}
	.st3{fill:none;stroke:#D7D7D7;stroke-width:1.5;stroke-miterlimit:10;stroke-dasharray:2;}
	.st4{fill:#FFFFFF;}
	.st5{fill:none;stroke:#AAAAE2;stroke-width:1.5;stroke-miterlimit:10;stroke-dasharray:2;}
	.st6{fill:#8787C6;}
	.st7{fill:#D4D4F4;}
	.st8{fill:#B2B1DD;}
	.st9{fill:#E0E0E0;}
</style>
<path class="st0" d="M404.8,150H11.4c-1.4,0-2.4-1.6-2.4-3.5V49.8c0-2,1.1-3.5,2.4-3.5h393.5c1.4,0,2.4,1.6,2.4,3.5v96.7
	C407.3,148.3,406.1,150,404.8,150z"/>
<path class="st1" d="M385.8,135.4H28.7c-0.7,0-1.2-0.8-1.2-1.7V74.9c0-1,0.6-1.7,1.2-1.7h357.2c0.7,0,1.4,0.8,1.4,1.7v58.8
	C387.1,134.6,386.5,135.4,385.8,135.4z"/>
<g>
	<circle class="st2" cx="254.1" cy="12.4" r="6.5"/>
	<g>
		<path class="st2" d="M262.8,24.4c0-2.2-1.5-4.4-3.4-4.4h-9.9c-1.8,0-3.2,1.5-3.2,3.6v12.6h16.5V24.4L262.8,24.4z"/>
	</g>
</g>
<g>
	<circle class="st2" cx="273.3" cy="12.4" r="6.5"/>
	<g>
		<path class="st2" d="M282,24.4c0-2.2-1.5-4.4-3.4-4.4h-9.9c-1.8,0-3.2,1.5-3.2,3.6v12.6H282V24.4L282,24.4z"/>
	</g>
</g>
<g>
	<circle class="st2" cx="75.1" cy="12.4" r="6.5"/>
	<g>
		<path class="st2" d="M83.7,24.4c0-2.2-1.5-4.4-3.4-4.4h-9.9c-1.8,0-3.2,1.5-3.2,3.6v12.6h16.5L83.7,24.4L83.7,24.4z"/>
	</g>
</g>
<polyline class="st3" points="87.8,32.3 138.6,32.3 138.6,52.3 "/>
<g>
	<path class="st4" d="M337.6,104.6h-4l-1.1,3.4h-0.8l3.5-10h0.7l3.5,10h-0.8L337.6,104.6z M337.4,104l-0.7-1.9
		c-0.4-1.1-0.8-2.3-1.1-3.4h-0.1c-0.4,1.2-0.7,2.3-1.1,3.4l-0.7,1.9H337.4z"/>
	<path class="st4" d="M341.7,108.7v2.7H341v-10.7h0.6l0.1,1l0,0c0.8-0.6,1.6-1.1,2.5-1.1c1.9,0,3,1.4,3,3.7c0,2.5-1.5,3.9-3.3,3.9
		c-0.7,0-1.4-0.4-2.2-0.9V108.7L341.7,108.7z M343.9,107.7c1.5,0,2.6-1.3,2.6-3.3c0-1.8-0.7-3.2-2.3-3.2c-0.8,0-1.5,0.4-2.4,1.2v4.4
		C342.5,107.4,343.3,107.7,343.9,107.7z"/>
	<path class="st4" d="M350,108.7v2.7h-0.7v-10.7h0.6l0.1,1l0,0c0.8-0.6,1.6-1.1,2.5-1.1c1.9,0,3,1.4,3,3.7c0,2.5-1.5,3.9-3.3,3.9
		c-0.7,0-1.4-0.4-2.2-0.9V108.7L350,108.7z M352.2,107.7c1.5,0,2.6-1.3,2.6-3.3c0-1.8-0.7-3.2-2.3-3.2c-0.8,0-1.5,0.4-2.4,1.2v4.4
		C350.8,107.4,351.6,107.7,352.2,107.7z"/>
	<path class="st4" d="M357.2,106.7c0.7,0.5,1.2,1,2.3,1c1.1,0,1.7-0.7,1.7-1.4c0-1-1-1.3-1.8-1.6c-1.1-0.4-2.3-0.9-2.3-2.1
		c0-1.1,0.9-1.9,2.4-1.9c0.8,0,1.5,0.3,2.1,0.8l-0.4,0.5c-0.5-0.4-1.1-0.7-1.7-0.7c-1.1,0-1.6,0.7-1.6,1.3c0,0.8,0.9,1.1,1.7,1.5
		c1.1,0.4,2.4,0.8,2.4,2.3c0,1.1-0.9,2.1-2.5,2.1c-1.1,0-2-0.5-2.7-1.1L357.2,106.7z"/>
</g>
<line class="st5" x1="138.5" y1="48.1" x2="138.5" y2="78.6"/>
<polyline class="st3" points="304.2,50.3 304.2,30.3 323.8,30.3 "/>
<line class="st5" x1="304.3" y1="85.9" x2="304.3" y2="46.1"/>
<line class="st5" x1="262.6" y1="47.2" x2="262.6" y2="84.9"/>
<g>
	<path class="st6" d="M231.8,122.4h-28.6c-1.4,0-2.6-1.1-2.6-2.6V91.2c0-1.4,1.1-2.6,2.6-2.6h28.6c1.4,0,2.6,1.1,2.6,2.6v28.6
		C234.3,121.2,233.2,122.4,231.8,122.4z"/>
	
		<rect x="212.6" y="103.3" transform="matrix(0.7174 -0.6967 0.6967 0.7174 -11.1581 184.3994)" class="st4" width="18.2" height="5.4"/>
	<rect x="228" y="95.6" transform="matrix(0.7174 -0.6967 0.6967 0.7174 -3.6322 187.6121)" class="st7" width="2.8" height="5.4"/>
	<polygon class="st7" points="212.8,114.4 213.4,110.2 217,114 	"/>
	<path class="st4" d="M211.9,113.8c0,0-0.1,0-0.2,0c-0.4,0.1-1.4,0.2-2.6,0.2s-2.4-0.1-3.3-0.5c-0.5-0.2-0.9-0.5-1.1-0.8
		s-0.4-0.7-0.5-1.2l0,0c0-0.4,0.1-0.8,0.4-1.1c0.5-0.7,1.2-1.2,2.2-1.8c1.5-0.9,3.3-1.6,5-2.3c0.8-0.4,1.5-0.7,2.1-1.1
		s1.1-0.8,1.2-1.2c0.1-0.3,0.2-0.5,0.2-0.7c0-0.3-0.1-0.6-0.4-0.8c-0.3-0.3-0.8-0.4-1.2-0.5c-0.5-0.1-1-0.1-1.4-0.1
		c-0.9,0-1.5,0.1-1.5,0.1c-0.2,0-0.3,0.2-0.3,0.4c0,0.2,0.2,0.3,0.4,0.3c0,0,0,0,0.1,0c0.2,0,0.8-0.1,1.3-0.1c0.6,0,1.2,0.1,1.6,0.2
		c0.2,0.1,0.4,0.2,0.5,0.3c0.1,0.1,0.2,0.2,0.2,0.3s0,0.3-0.1,0.5s-0.3,0.5-0.7,0.7c-0.6,0.5-1.5,0.9-2.7,1.3
		c-1.6,0.7-3.5,1.4-5.1,2.4c-0.8,0.5-1.4,1-1.9,1.5c-0.5,0.6-0.8,1.2-0.8,1.9l0,0c0,0.7,0.2,1.1,0.6,1.6c0.6,0.7,1.3,1,2.2,1.1
		c0.9,0.2,1.8,0.3,2.8,0.3c1.5,0,2.9-0.2,2.9-0.2c0.2,0,0.3-0.2,0.3-0.4C212.2,113.9,212,113.8,211.9,113.8L211.9,113.8z"/>
</g>
<g>
	<path class="st6" d="M131.4,122.4h-28.6c-1.4,0-2.6-1.1-2.6-2.6V91.2c0-1.4,1.1-2.6,2.6-2.6h28.6c1.4,0,2.6,1.1,2.6,2.6v28.6
		C133.9,121.2,132.7,122.4,131.4,122.4z"/>
	<path class="st7" d="M126.9,118.2h-19c-0.9,0-1.4-0.7-1.4-1.4v-22c0-0.9,0.7-1.4,1.4-1.4h19c0.9,0,1.4,0.7,1.4,1.4v22
		C128.3,117.5,127.8,118.2,126.9,118.2z"/>
	<rect x="108.4" y="95.5" class="st6" width="17.9" height="4.1"/>
	<rect x="108.4" y="100.8" class="st4" width="8.3" height="7.7"/>
	<rect x="118" y="100.8" class="st4" width="8.3" height="7.7"/>
	<rect x="108.4" y="109.8" class="st4" width="8.3" height="5.7"/>
	<rect x="118" y="109.8" class="st4" width="8.3" height="5.7"/>
	<polygon class="st8" points="122.5,103.4 122.5,104.8 123.7,104.8 123.7,105 122.5,105 122.5,106.4 122.1,106.4 122.1,105 
		120.8,105 120.8,104.8 122.1,104.8 122.1,103.4 	"/>
	<path class="st8" d="M112.2,112c0,0.7-0.3,0.9-0.7,0.9c-0.4,0-0.7-0.3-0.7-0.9s0.3-0.9,0.7-0.9C111.9,111.2,112.2,111.5,112.2,112z
		 M111,112.1c0,0.4,0.1,0.7,0.4,0.7s0.4-0.3,0.4-0.7c0-0.4-0.1-0.7-0.4-0.7S111,111.7,111,112.1z M111.4,114.2l1.7-3h0.3l-1.7,3
		H111.4z M114,113.3c0,0.7-0.3,0.9-0.7,0.9c-0.4,0-0.7-0.3-0.7-0.9s0.3-0.9,0.7-0.9S114,112.7,114,113.3z M112.9,113.3
		c0,0.4,0.1,0.7,0.4,0.7s0.4-0.3,0.4-0.7c0-0.4-0.1-0.7-0.4-0.7C113.1,112.6,112.9,112.9,112.9,113.3z"/>
	<path class="st8" d="M121,112.4v-0.3h2.6v0.3H121z M121,113.5v-0.3h2.6v0.3H121z"/>
	<rect x="111" y="105.2" class="st8" width="2.9" height="0.3"/>
</g>
<g>
	<path class="st6" d="M174.5,122.4h-28.6c-1.4,0-2.6-1.1-2.6-2.6V91.2c0-1.4,1.1-2.6,2.6-2.6h28.6c1.4,0,2.6,1.1,2.6,2.6v28.6
		C177,121.2,175.9,122.4,174.5,122.4z"/>
	<rect x="149.1" y="95.5" class="st4" width="3.2" height="4.5"/>
	<rect x="153.7" y="95.5" class="st7" width="18.6" height="4.1"/>
	<rect x="149.1" y="103.7" class="st4" width="3.2" height="3.2"/>
	<rect x="153.7" y="103.7" class="st7" width="18.6" height="3.4"/>
	<rect x="149.1" y="111.4" class="st4" width="3.2" height="3.8"/>
	<rect x="153.7" y="111.4" class="st7" width="18.6" height="4.1"/>
</g>
<g>
	<path class="st6" d="M318.1,122.4h-28.6c-1.4,0-2.6-1.1-2.6-2.6V91.2c0-1.4,1.1-2.6,2.6-2.6h28.6c1.4,0,2.6,1.1,2.6,2.6v28.6
		C320.6,121.2,319.5,122.4,318.1,122.4z"/>
	<path class="st4" d="M309.3,94.2h-16.1c-0.6,0-1.1,0.5-1.1,1.1v4.9l-3.1,3.3h3.1v2.5c0,0.6,0.5,1.1,1.1,1.1h16.1
		c0.6,0,1.1-0.5,1.1-1.1V95.3C310.4,94.7,309.9,94.2,309.3,94.2z"/>
	<path class="st7" d="M318.2,112.5l-3-3.2v-4.9c0-0.6-0.5-1.1-1.1-1.1h-15.7c-0.6,0-1.1,0.5-1.1,1.1v10.7c0,0.6,0.5,1.1,1.1,1.1
		h15.7c0.6,0,1.1-0.5,1.1-1.1v-2.6H318.2L318.2,112.5z"/>
</g>
<g>
	<path class="st6" d="M275,122.4h-28.6c-1.4,0-2.6-1.1-2.6-2.6V91.2c0-1.4,1.1-2.6,2.6-2.6H275c1.4,0,2.6,1.1,2.6,2.6v28.5
		C277.5,121.2,276.3,122.4,275,122.4z"/>
	<path class="st7" d="M270.9,117.1h-20.3c-0.3,0-0.5-0.2-0.5-0.5v-12.1c0-0.3,0.2-0.5,0.5-0.5h20.3c0.3,0,0.5,0.2,0.5,0.5v12.2
		C271.4,116.9,271.2,117.1,270.9,117.1z"/>
	<rect x="250.2" y="109.2" class="st4" width="21.1" height="1.8"/>
	<path class="st4" d="M272.6,96c-0.3-2.4-3.5-2.6-5.3-2c-2.1,0.7-4.1,2-5.5,3.5c-0.5,0.5-0.9,1-1.1,1.4c0,0,0,0.1-0.1,0.1
		c-0.1,0.3-0.5,1.2-0.9,1.2h1.8c2.7,0,5.5-0.4,8-1.2C271,98.6,272.8,97.9,272.6,96z M269.9,97.7c-2.6,1-5.4,1.6-8,1.6
		c0,0,3.7-3.5,6.4-3.9c0.7-0.1,1.5-0.1,2.2,0.3C271.5,96.2,270.8,97.4,269.9,97.7z"/>
	<path class="st4" d="M251.7,99.1c2.6,0.9,5.3,1.2,8,1.2h1.8c-0.3,0-0.7-1-0.9-1.2c0,0,0-0.1-0.1-0.1c-0.3-0.5-0.8-1.1-1.1-1.4
		c-1.4-1.6-3.4-3-5.5-3.5c-1.7-0.5-5-0.3-5.3,2C248.5,97.9,250.3,98.6,251.7,99.1z M250.9,95.7c0.7-0.4,1.4-0.4,2.2-0.3
		c2.7,0.3,6.4,3.9,6.4,3.9c-2.7,0-5.5-0.7-8-1.6C250.6,97.4,249.8,96.2,250.9,95.7z"/>
	<rect x="250.2" y="104.8" class="st8" width="21.1" height="0.7"/>
	<rect x="259.8" y="104.8" class="st4" width="1.8" height="12.2"/>
	<rect x="248.4" y="100.4" class="st7" width="24.6" height="4.5"/>
	<rect x="259.8" y="100.4" class="st4" width="1.8" height="4.5"/>
</g>
<line class="st5" x1="131.4" y1="114.2" x2="146.2" y2="114.2"/>
<line class="st5" x1="275.5" y1="96.1" x2="290.3" y2="96.1"/>
<line class="st5" x1="232.3" y1="114.2" x2="247" y2="114.2"/>
<g>
	<path class="st2" d="M70.2,38.9h0.6V41c0,0.6,0.2,0.9,0.6,0.9c0.4,0,0.6-0.2,0.9-0.6v-2.4h0.6v3.4h-0.5l0-0.5h0
		c-0.3,0.4-0.7,0.6-1.1,0.6c-0.7,0-1-0.5-1-1.3V38.9z"/>
	<path class="st2" d="M73.9,41.5c0.3,0.2,0.6,0.4,1,0.4c0.4,0,0.7-0.2,0.7-0.5c0-0.4-0.4-0.5-0.8-0.6c-0.5-0.2-1-0.4-1-1
		c0-0.5,0.4-1,1.2-1c0.4,0,0.8,0.2,1.1,0.4l-0.3,0.4c-0.2-0.2-0.5-0.3-0.8-0.3c-0.4,0-0.6,0.2-0.6,0.5c0,0.3,0.4,0.4,0.8,0.6
		c0.5,0.2,1,0.4,1,1c0,0.6-0.4,1-1.2,1c-0.5,0-0.9-0.2-1.3-0.5L73.9,41.5z"/>
	<path class="st2" d="M78.2,38.8c0.9,0,1.4,0.6,1.4,1.6c0,0.1,0,0.2,0,0.3h-2.3c0,0.7,0.5,1.2,1.1,1.2c0.3,0,0.6-0.1,0.8-0.3
		l0.2,0.4c-0.3,0.2-0.7,0.4-1.1,0.4c-0.9,0-1.6-0.7-1.6-1.8C76.7,39.5,77.5,38.8,78.2,38.8z M79.1,40.3c0-0.7-0.3-1.1-0.8-1.1
		c-0.5,0-0.9,0.4-1,1.1H79.1z"/>
	<path class="st2" d="M80.4,38.9h0.5l0,0.6h0c0.2-0.4,0.6-0.7,1-0.7c0.1,0,0.3,0,0.4,0.1l-0.1,0.5c-0.1,0-0.2-0.1-0.3-0.1
		c-0.3,0-0.6,0.2-0.9,0.8v2.2h-0.6V38.9z"/>
</g>
<g>
	<path class="st2" d="M256.2,38.9h0.6V41c0,0.6,0.2,0.9,0.6,0.9c0.3,0,0.6-0.2,0.9-0.6v-2.4h0.6v3.4h-0.5l0-0.5h0
		c-0.3,0.4-0.7,0.6-1.1,0.6c-0.7,0-1-0.5-1-1.3V38.9z"/>
	<path class="st2" d="M259.9,41.5c0.3,0.2,0.6,0.4,1,0.4c0.4,0,0.7-0.2,0.7-0.5c0-0.4-0.4-0.5-0.8-0.6c-0.5-0.2-1-0.4-1-1
		c0-0.5,0.4-1,1.2-1c0.4,0,0.8,0.2,1.1,0.4l-0.3,0.4c-0.2-0.2-0.5-0.3-0.8-0.3c-0.4,0-0.6,0.2-0.6,0.5c0,0.3,0.4,0.4,0.8,0.6
		c0.5,0.2,1,0.4,1,1c0,0.6-0.4,1-1.2,1c-0.5,0-0.9-0.2-1.3-0.5L259.9,41.5z"/>
	<path class="st2" d="M264.2,38.8c0.9,0,1.4,0.6,1.4,1.6c0,0.1,0,0.2,0,0.3h-2.3c0,0.7,0.5,1.2,1.1,1.2c0.3,0,0.6-0.1,0.8-0.3
		l0.2,0.4c-0.3,0.2-0.7,0.4-1.1,0.4c-0.9,0-1.6-0.7-1.6-1.8C262.7,39.5,263.4,38.8,264.2,38.8z M265.1,40.3c0-0.7-0.3-1.1-0.8-1.1
		c-0.5,0-0.9,0.4-1,1.1H265.1z"/>
	<path class="st2" d="M266.4,38.9h0.5l0,0.6h0c0.2-0.4,0.6-0.7,1-0.7c0.1,0,0.3,0,0.4,0.1l-0.1,0.5c-0.1,0-0.2-0.1-0.3-0.1
		c-0.3,0-0.6,0.2-0.9,0.8v2.2h-0.6V38.9z"/>
	<path class="st2" d="M268.7,41.5c0.3,0.2,0.6,0.4,1,0.4c0.4,0,0.7-0.2,0.7-0.5c0-0.4-0.4-0.5-0.8-0.6c-0.5-0.2-1-0.4-1-1
		c0-0.5,0.4-1,1.2-1c0.4,0,0.8,0.2,1.1,0.4l-0.3,0.4c-0.2-0.2-0.5-0.3-0.8-0.3c-0.4,0-0.6,0.2-0.6,0.5c0,0.3,0.4,0.4,0.8,0.6
		c0.5,0.2,1,0.4,1,1c0,0.6-0.4,1-1.2,1c-0.5,0-0.9-0.2-1.3-0.5L268.7,41.5z"/>
</g>
<polyline class="st5" points="160.7,85.9 160.7,81.2 117.1,81.2 117.1,85.9 "/>
<g>
	<path class="st1" d="M177.2,62.8c0.7,0.8,1.8,1.4,3,1.4c1.5,0,2.5-0.8,2.5-2c0-1.3-0.8-1.7-1.8-2.1l-1.5-0.7c-0.9-0.4-2-1-2-2.5
		c0-1.5,1.3-2.5,2.9-2.5c1.2,0,2.2,0.6,2.8,1.2l-0.4,0.5c-0.6-0.6-1.4-1-2.4-1c-1.3,0-2.2,0.7-2.2,1.8c0,1.2,1,1.6,1.8,2l1.5,0.7
		c1.1,0.5,2.1,1.1,2.1,2.7c0,1.6-1.3,2.7-3.2,2.7c-1.5,0-2.6-0.6-3.4-1.5L177.2,62.8z"/>
	<path class="st1" d="M189.8,60c0-1.1-0.3-2.3-1.7-2.3c-1,0-1.9,0.5-2.4,0.9l-0.3-0.5c0.5-0.4,1.5-1,2.7-1c1.8,0,2.3,1.3,2.3,2.8
		v4.7h-0.6l-0.1-1h0c-0.8,0.6-1.6,1.1-2.6,1.1c-1.2,0-2.2-0.6-2.2-2C185.1,61.1,186.5,60.4,189.8,60z M187.3,64.2
		c0.8,0,1.6-0.4,2.5-1.2v-2.5c-3,0.4-4.1,1.1-4.1,2.2C185.8,63.8,186.5,64.2,187.3,64.2z"/>
	<path class="st1" d="M193.2,57.2h0.6l0.1,1.1h0c0.8-0.8,1.5-1.3,2.5-1.3c1.5,0,2.2,0.9,2.2,2.8v4.7h-0.7V60c0-1.6-0.5-2.3-1.7-2.3
		c-0.9,0-1.5,0.5-2.4,1.4v5.6h-0.7V57.2z"/>
	<path class="st1" d="M204,57c0.9,0,1.5,0.3,2.2,0.9l0-1.4v-3h0.7v11.1h-0.6l-0.1-1h0c-0.6,0.6-1.4,1.1-2.4,1.1
		c-1.9,0-3.1-1.4-3.1-3.9C200.7,58.6,202.3,57,204,57z M203.9,64.2c0.8,0,1.5-0.4,2.3-1.2v-4.4c-0.8-0.7-1.4-1-2.2-1
		c-1.5,0-2.6,1.4-2.6,3.3C201.5,62.9,202.3,64.2,203.9,64.2z"/>
	<path class="st1" d="M209.2,63.3c0.6,0.5,1.3,0.9,2.4,0.9c1.2,0,1.8-0.7,1.8-1.5c0-0.9-1-1.3-1.8-1.6c-1.1-0.4-2.4-0.8-2.4-2.1
		c0-1.1,0.8-2,2.4-2c0.8,0,1.6,0.3,2.1,0.8l-0.4,0.5c-0.5-0.4-1-0.7-1.8-0.7c-1.1,0-1.7,0.7-1.7,1.3c0,0.8,0.9,1.2,1.7,1.5
		c1.2,0.4,2.4,0.8,2.4,2.3c0,1.1-0.9,2.1-2.5,2.1c-1.1,0-2-0.5-2.7-1L209.2,63.3z"/>
	<path class="st1" d="M216.1,57.8H215v-0.5l1.2-0.1l0.1-2.1h0.6v2.1h2.1v0.6h-2.1v4.8c0,0.9,0.2,1.6,1.2,1.6c0.3,0,0.7-0.1,0.9-0.2
		l0.2,0.6c-0.4,0.2-0.9,0.3-1.2,0.3c-1.4,0-1.8-0.9-1.8-2.2V57.8z"/>
	<path class="st1" d="M223.3,57c1.8,0,3.3,1.4,3.3,3.9c0,2.4-1.5,3.9-3.3,3.9c-1.8,0-3.3-1.4-3.3-3.9C220,58.5,221.5,57,223.3,57z
		 M223.3,64.2c1.5,0,2.6-1.3,2.6-3.3c0-2-1.1-3.3-2.6-3.3c-1.5,0-2.6,1.3-2.6,3.3C220.7,62.9,221.8,64.2,223.3,64.2z"/>
	<path class="st1" d="M228.9,57.2h0.6l0.1,1.4h0c0.5-0.9,1.2-1.6,2.1-1.6c0.3,0,0.5,0,0.7,0.2l-0.2,0.6c-0.2-0.1-0.4-0.1-0.7-0.1
		c-0.7,0-1.4,0.5-2,1.9v5h-0.7V57.2z"/>
	<path class="st1" d="M233.7,57.2h0.6l0.1,1.1h0c0.7-0.8,1.5-1.3,2.3-1.3c1.2,0,1.8,0.6,2,1.5c0.8-0.9,1.7-1.5,2.5-1.5
		c1.5,0,2.2,0.9,2.2,2.8v4.7h-0.7V60c0-1.6-0.5-2.3-1.6-2.3c-0.7,0-1.4,0.5-2.2,1.4v5.6h-0.7V60c0-1.6-0.5-2.3-1.7-2.3
		c-0.7,0-1.4,0.5-2.2,1.4v5.6h-0.7V57.2z"/>
</g>
<g>
	<path class="st2" d="M354.3,35.3h-25c-1.2,0-2.3-1.1-2.3-2.3V8c0-1.2,1.1-2.3,2.3-2.3h25c1.2,0,2.3,1.1,2.3,2.3v25
		C356.6,34.2,355.6,35.3,354.3,35.3z"/>
	<g>
		<path class="st4" d="M346.7,10.8h-14c-0.5,0-0.9,0.5-0.9,0.9V16l-2.7,2.9h2.7V21c0,0.5,0.5,0.9,0.9,0.9h14c0.5,0,0.9-0.5,0.9-0.9
			v-9.3C347.6,11.1,347.2,10.8,346.7,10.8z"/>
		<path class="st9" d="M354.5,26.8l-2.6-2.7v-4.3c0-0.5-0.5-0.9-0.9-0.9h-13.7c-0.5,0-0.9,0.5-0.9,0.9v9.3c0,0.5,0.5,0.9,0.9,0.9
			H351c0.5,0,0.9-0.5,0.9-0.9v-2.3C351.9,26.8,354.5,26.8,354.5,26.8z"/>
	</g>
</g>
<g>
	<path class="st2" d="M327.8,39.4c0-1.5,0.8-2.4,2-2.4c1.1,0,2,0.9,2,2.4c0,1.5-0.8,2.4-2,2.4C328.6,41.8,327.8,40.9,327.8,39.4z
		 M331.1,39.4c0-1.1-0.5-1.8-1.4-1.8c-0.8,0-1.4,0.7-1.4,1.8c0,1.1,0.5,1.9,1.4,1.9C330.6,41.3,331.1,40.6,331.1,39.4z"/>
	<path class="st2" d="M332.8,38.8h-0.5v-0.4l0.5,0l0.1-1h0.5v1h0.9v0.5h-0.9v1.9c0,0.4,0.1,0.7,0.5,0.7c0.1,0,0.3,0,0.4-0.1l0.1,0.4
		c-0.2,0.1-0.4,0.1-0.6,0.1c-0.7,0-1-0.5-1-1.1V38.8z"/>
	<path class="st2" d="M335,36.8h0.6v1.4l0,0.7c0.3-0.3,0.7-0.6,1.1-0.6c0.7,0,1,0.5,1,1.3v2.2h-0.6v-2.1c0-0.6-0.2-0.9-0.6-0.9
		c-0.4,0-0.6,0.2-0.9,0.5v2.5H335V36.8z"/>
	<path class="st2" d="M340.1,38.3c0.9,0,1.4,0.6,1.4,1.6c0,0.1,0,0.2,0,0.3h-2.3c0,0.7,0.5,1.2,1.1,1.2c0.3,0,0.6-0.1,0.8-0.3
		l0.2,0.4c-0.3,0.2-0.7,0.3-1.1,0.3c-0.9,0-1.6-0.7-1.6-1.8S339.3,38.3,340.1,38.3z M341,39.8c0-0.7-0.3-1.1-0.8-1.1
		c-0.5,0-0.9,0.4-1,1.1H341z"/>
	<path class="st2" d="M342.3,38.4h0.5l0,0.6h0c0.2-0.4,0.6-0.7,1-0.7c0.1,0,0.3,0,0.4,0.1l-0.1,0.5c-0.1,0-0.2-0.1-0.3-0.1
		c-0.3,0-0.6,0.2-0.9,0.8v2.2h-0.6V38.4z"/>
	<path class="st2" d="M348.1,39.6c0-0.4-0.1-0.9-0.7-0.9c-0.4,0-0.7,0.2-1,0.4l-0.2-0.4c0.3-0.2,0.8-0.4,1.3-0.4
		c0.8,0,1.2,0.6,1.2,1.4v2.1h-0.5l0-0.4h0c-0.3,0.3-0.7,0.5-1.1,0.5c-0.6,0-1-0.4-1-1C346,40.1,346.6,39.8,348.1,39.6z M347.1,41.4
		c0.3,0,0.6-0.2,0.9-0.5V40c-1.1,0.1-1.5,0.4-1.5,0.9C346.5,41.2,346.8,41.4,347.1,41.4z"/>
	<path class="st2" d="M350.3,42v1.1h-0.6v-4.8h0.5l0,0.4h0c0.3-0.3,0.7-0.5,1.1-0.5c0.9,0,1.3,0.7,1.3,1.7c0,1.2-0.7,1.8-1.5,1.8
		c-0.3,0-0.6-0.1-0.9-0.4L350.3,42z M351.1,41.4c0.6,0,1-0.5,1-1.4c0-0.7-0.3-1.3-0.9-1.3c-0.3,0-0.6,0.2-0.9,0.5V41
		C350.6,41.3,350.9,41.4,351.1,41.4z"/>
	<path class="st2" d="M354.2,42v1.1h-0.6v-4.8h0.5l0,0.4h0c0.3-0.3,0.7-0.5,1.1-0.5c0.9,0,1.3,0.7,1.3,1.7c0,1.2-0.7,1.8-1.5,1.8
		c-0.3,0-0.6-0.1-0.9-0.4L354.2,42z M355,41.4c0.6,0,1-0.5,1-1.4c0-0.7-0.3-1.3-0.9-1.3c-0.3,0-0.6,0.2-0.9,0.5V41
		C354.5,41.3,354.8,41.4,355,41.4z"/>
</g>
</svg>
