<?xml version="1.0" encoding="utf-8"?>
<!-- Generator: Adobe Illustrator 19.2.0, SVG Export Plug-In . SVG Version: 6.00 Build 0)  -->
<svg version="1.1" id="Layer_1" xmlns="http://www.w3.org/2000/svg" xmlns:xlink="http://www.w3.org/1999/xlink" x="0px" y="0px"
	 viewBox="0 0 416.3 126.2" style="enable-background:new 0 0 416.3 126.2;" xml:space="preserve">
<style type="text/css">
	.st0{fill:#5B5193;}
	.st1{fill:#47417F;}
	.st2{fill:#AAAAAA;}
	.st3{fill:none;stroke:#D7D7D7;stroke-width:2;stroke-miterlimit:10;stroke-dasharray:4;}
	.st4{fill:#FFFFFF;}
	.st5{fill:none;stroke:#AAAAE2;stroke-width:2;stroke-miterlimit:10;stroke-dasharray:4;}
	.st6{fill:#8787C6;}
	.st7{fill:#D4D4F4;}
	.st8{fill:#B2B1DD;}
</style>
<path class="st0" d="M404.8,126.2H11.4c-1.4,0-2.4-1.2-2.4-2.7V49.9c0-1.5,1.1-2.7,2.4-2.7h393.5c1.4,0,2.4,1.2,2.4,2.7v73.6
	C407.3,124.9,406.1,126.2,404.8,126.2z"/>
<path class="st1" d="M391.8,112.7H25.1c-0.7,0-1.2-0.6-1.2-1.2V70c0-0.7,0.6-1.2,1.2-1.2h366.7c0.7,0,1.4,0.6,1.4,1.2v41.5
	C393.1,112.1,392.5,112.7,391.8,112.7z"/>
<g>
	<circle class="st2" cx="68.6" cy="15.3" r="6.5"/>
	<g>
		<path class="st2" d="M77.2,27.3c0-2.2-1.5-4.4-3.4-4.4h-10c-1.8,0-3.2,1.5-3.2,3.6v12.6h16.5L77.2,27.3L77.2,27.3z"/>
	</g>
</g>
<g>
	<circle class="st2" cx="322.1" cy="15.3" r="6.5"/>
	<g>
		<path class="st2" d="M330.8,27.3c0-2.2-1.5-4.4-3.4-4.4h-9.9c-1.8,0-3.2,1.5-3.2,3.6v12.6h16.5L330.8,27.3L330.8,27.3z"/>
	</g>
</g>
<g>
	<circle class="st2" cx="49.4" cy="15.3" r="6.5"/>
	<g>
		<path class="st2" d="M58,27.3c0-2.2-1.5-4.4-3.4-4.4h-10c-1.8,0-3.1,1.5-3.1,3.6v12.6h16.3L58,27.3L58,27.3z"/>
	</g>
</g>
<polyline class="st3" points="82.1,27.2 108.7,27.2 108.7,43.2 "/>
<g>
	<circle class="st2" cx="216.9" cy="15.3" r="6.5"/>
	<g>
		<path class="st2" d="M225.5,27.3c0-2.2-1.5-4.4-3.4-4.4h-9.9c-1.8,0-3.2,1.5-3.2,3.6v12.6h16.5L225.5,27.3L225.5,27.3z"/>
	</g>
</g>
<polyline class="st3" points="206.1,27.2 158.6,27.2 158.6,43.2 "/>
<polyline class="st3" points="309.4,27.2 276.6,27.2 276.6,43.2 "/>
<g>
	<path class="st4" d="M177.3,61.9c0.8,0.9,1.8,1.3,3,1.3c1.5,0,2.5-0.9,2.5-2c0-1.2-0.9-1.6-1.8-2.1l-1.5-0.7c-0.9-0.4-2-1.1-2-2.5
		s1.2-2.5,3-2.5c1.2,0,2.2,0.6,2.8,1.2l-0.4,0.5c-0.6-0.7-1.4-1.1-2.4-1.1c-1.3,0-2.2,0.7-2.2,1.8c0,1.1,1.1,1.6,1.7,1.9l1.5,0.7
		c1.1,0.5,2.1,1.1,2.1,2.7s-1.2,2.7-3.3,2.7c-1.4,0-2.6-0.7-3.4-1.5L177.3,61.9z"/>
	<path class="st4" d="M189.8,59.1c0-1.1-0.3-2.3-1.7-2.3c-1,0-1.8,0.5-2.3,0.9l-0.3-0.5c0.5-0.4,1.5-1,2.7-1c1.7,0,2.3,1.2,2.3,2.9
		v4.7h-0.6l-0.1-1l0,0c-0.8,0.6-1.6,1.1-2.6,1.1c-1.1,0-2.1-0.7-2.1-2C185,60.3,186.5,59.5,189.8,59.1z M187.2,63.3
		c0.9,0,1.6-0.4,2.5-1.1v-2.5c-3.1,0.4-4,1.1-4,2.2C185.7,63,186.5,63.3,187.2,63.3z"/>
	<path class="st4" d="M193.1,56.4h0.6l0.1,1.1l0,0c0.8-0.8,1.5-1.3,2.5-1.3c1.5,0,2.2,1,2.2,2.8v4.7h-0.7V59c0-1.5-0.5-2.3-1.7-2.3
		c-0.9,0-1.5,0.5-2.4,1.3v5.5H193L193.1,56.4L193.1,56.4z"/>
	<path class="st4" d="M203.9,56.2c0.9,0,1.5,0.4,2.2,0.9v-1.3v-3.1h0.7v11h-0.6l-0.1-1l0,0c-0.6,0.6-1.4,1.1-2.4,1.1
		c-1.8,0-3.1-1.3-3.1-3.8C200.6,57.7,202.2,56.2,203.9,56.2z M203.8,63.3c0.8,0,1.5-0.4,2.3-1.2v-4.4c-0.8-0.7-1.4-1-2.1-1
		c-1.4,0-2.6,1.4-2.6,3.3C201.3,62,202.2,63.3,203.8,63.3z"/>
	<path class="st4" d="M209.1,62.4c0.7,0.5,1.2,1,2.3,1c1.1,0,1.7-0.7,1.7-1.4c0-1-1-1.3-1.8-1.6c-1.1-0.4-2.3-0.9-2.3-2.1
		c0-1.1,0.9-1.9,2.4-1.9c0.8,0,1.5,0.3,2.1,0.8l-0.4,0.5c-0.5-0.4-1.1-0.7-1.7-0.7c-1.1,0-1.6,0.7-1.6,1.3c0,0.8,0.9,1.1,1.7,1.5
		c1.1,0.4,2.4,0.8,2.4,2.3c0,1.1-0.9,2.1-2.5,2.1c-1.1,0-2-0.5-2.7-1.1L209.1,62.4z"/>
	<path class="st4" d="M215.9,56.9h-1.1v-0.5l1.1-0.1l0.1-2.1h0.6v2.1h2.1v0.6h-2.1v4.8c0,1,0.2,1.5,1.2,1.5c0.3,0,0.7-0.1,1-0.2
		l0.2,0.6c-0.4,0.2-0.9,0.3-1.1,0.3c-1.4,0-1.8-0.9-1.8-2.2L215.9,56.9L215.9,56.9z"/>
	<path class="st4" d="M223,56.2c1.8,0,3.3,1.4,3.3,3.8c0,2.4-1.5,3.8-3.3,3.8c-1.7,0-3.3-1.4-3.3-3.8
		C219.8,57.6,221.3,56.2,223,56.2z M223,63.3c1.5,0,2.6-1.3,2.6-3.3c0-1.9-1.1-3.3-2.6-3.3c-1.4,0-2.6,1.3-2.6,3.3
		S221.6,63.3,223,63.3z"/>
	<path class="st4" d="M228.6,56.4h0.6l0.1,1.3l0,0c0.5-0.9,1.2-1.5,2.1-1.5c0.3,0,0.5,0,0.8,0.2l-0.2,0.6c-0.3-0.1-0.4-0.1-0.7-0.1
		c-0.7,0-1.4,0.5-2,1.9v5h-0.7L228.6,56.4L228.6,56.4z"/>
	<path class="st4" d="M233.5,56.4h0.6l0.1,1.1l0,0c0.7-0.8,1.5-1.3,2.3-1.3c1.1,0,1.8,0.6,2,1.5c0.9-1,1.6-1.5,2.5-1.5
		c1.4,0,2.2,1,2.2,2.8v4.7h-0.7V59c0-1.5-0.5-2.3-1.6-2.3c-0.7,0-1.4,0.5-2.2,1.3v5.5H238V59c0-1.5-0.5-2.3-1.6-2.3
		c-0.7,0-1.4,0.5-2.2,1.3v5.5h-0.7V56.4z"/>
</g>
<g>
	<path class="st4" d="M346.6,92.7h-4l-1.1,3.4h-0.8l3.5-10h0.7l3.5,10h-0.8L346.6,92.7z M346.4,92.1l-0.7-1.9
		c-0.4-1.1-0.8-2.3-1.1-3.4h-0.1c-0.4,1.2-0.7,2.3-1.1,3.4l-0.7,1.9H346.4z"/>
	<path class="st4" d="M350.7,96.8v2.7H350V88.8h0.6l0.1,1l0,0c0.8-0.6,1.6-1.1,2.5-1.1c1.9,0,3,1.4,3,3.7c0,2.5-1.5,3.9-3.3,3.9
		c-0.7,0-1.4-0.4-2.2-0.9L350.7,96.8L350.7,96.8z M352.9,95.8c1.5,0,2.6-1.3,2.6-3.3c0-1.8-0.7-3.2-2.3-3.2c-0.8,0-1.5,0.4-2.4,1.2
		v4.4C351.5,95.5,352.3,95.8,352.9,95.8z"/>
	<path class="st4" d="M359,96.8v2.7h-0.7V88.8h0.6l0.1,1l0,0c0.8-0.6,1.6-1.1,2.5-1.1c1.9,0,3,1.4,3,3.7c0,2.5-1.5,3.9-3.3,3.9
		c-0.7,0-1.4-0.4-2.2-0.9L359,96.8L359,96.8z M361.2,95.8c1.5,0,2.6-1.3,2.6-3.3c0-1.8-0.7-3.2-2.3-3.2c-0.8,0-1.5,0.4-2.4,1.2v4.4
		C359.8,95.5,360.6,95.8,361.2,95.8z"/>
	<path class="st4" d="M366.2,94.8c0.7,0.5,1.2,1,2.3,1c1.1,0,1.7-0.7,1.7-1.4c0-1-1-1.3-1.8-1.6c-1.1-0.4-2.3-0.9-2.3-2.1
		c0-1.1,0.9-1.9,2.4-1.9c0.8,0,1.5,0.3,2.1,0.8l-0.4,0.5c-0.5-0.4-1.1-0.7-1.7-0.7c-1.1,0-1.6,0.7-1.6,1.3c0,0.8,0.9,1.1,1.7,1.5
		c1.1,0.4,2.4,0.8,2.4,2.3c0,1.1-0.9,2.1-2.5,2.1c-1.1,0-2-0.5-2.7-1.1L366.2,94.8z"/>
</g>
<line class="st5" x1="108.7" y1="52.3" x2="108.7" y2="73.6"/>
<line class="st5" x1="158.6" y1="52.3" x2="158.6" y2="73.6"/>
<line class="st5" x1="276.6" y1="52.3" x2="276.6" y2="73.6"/>
<g>
	<path class="st6" d="M244.8,109.5h-28.6c-1.4,0-2.6-1.1-2.6-2.6V78.3c0-1.4,1.1-2.6,2.6-2.6h28.6c1.4,0,2.6,1.1,2.6,2.6v28.6
		C247.3,108.3,246.2,109.5,244.8,109.5z"/>
	
		<rect x="225.6" y="90.4" transform="matrix(0.7174 -0.6967 0.6967 0.7174 1.4647 189.7781)" class="st4" width="18.2" height="5.4"/>
	<rect x="241" y="82.7" transform="matrix(0.7174 -0.6967 0.6967 0.7174 9.0281 192.997)" class="st7" width="2.8" height="5.4"/>
	<polygon class="st7" points="225.8,101.5 226.4,97.3 230,101.1 	"/>
	<path class="st4" d="M224.9,100.9c0,0-0.1,0-0.2,0c-0.4,0.1-1.4,0.2-2.6,0.2s-2.4-0.1-3.3-0.5c-0.5-0.2-0.9-0.5-1.1-0.8
		s-0.4-0.7-0.5-1.2l0,0c0-0.4,0.1-0.8,0.4-1.1c0.5-0.7,1.2-1.2,2.2-1.8c1.5-0.9,3.3-1.6,5-2.3c0.8-0.4,1.5-0.7,2.1-1.1
		c0.6-0.4,1.1-0.8,1.2-1.2c0.1-0.3,0.2-0.5,0.2-0.7c0-0.3-0.1-0.6-0.4-0.8c-0.3-0.3-0.8-0.4-1.2-0.5c-0.5-0.1-1-0.1-1.4-0.1
		c-0.9,0-1.5,0.1-1.5,0.1c-0.2,0-0.3,0.2-0.3,0.4c0,0.2,0.2,0.3,0.4,0.3c0,0,0,0,0.1,0c0.2,0,0.8-0.1,1.3-0.1c0.6,0,1.2,0.1,1.6,0.2
		c0.2,0.1,0.4,0.2,0.5,0.3c0.1,0.1,0.2,0.2,0.2,0.3s0,0.3-0.1,0.5c-0.1,0.2-0.3,0.5-0.7,0.7c-0.6,0.5-1.5,0.9-2.7,1.3
		c-1.6,0.7-3.5,1.4-5.1,2.4c-0.8,0.5-1.4,1-1.9,1.5c-0.5,0.6-0.8,1.2-0.8,1.9l0,0c0,0.7,0.2,1.1,0.6,1.6c0.6,0.7,1.3,1,2.2,1.1
		c0.9,0.2,1.8,0.3,2.8,0.3c1.5,0,2.9-0.2,2.9-0.2c0.2,0,0.3-0.2,0.3-0.4C225.2,101,225,100.9,224.9,100.9L224.9,100.9z"/>
</g>
<g>
	<path class="st6" d="M115.4,109.5H86.8c-1.4,0-2.6-1.1-2.6-2.6V78.3c0-1.4,1.1-2.6,2.6-2.6h28.6c1.4,0,2.6,1.1,2.6,2.6v28.6
		C117.9,108.3,116.7,109.5,115.4,109.5z"/>
	<path class="st7" d="M110.9,105.3h-19c-0.9,0-1.4-0.7-1.4-1.4v-22c0-0.9,0.7-1.4,1.4-1.4h19c0.9,0,1.4,0.7,1.4,1.4v22
		C112.3,104.6,111.8,105.3,110.9,105.3z"/>
	<rect x="92.4" y="82.6" class="st6" width="17.9" height="4.1"/>
	<rect x="92.4" y="87.9" class="st4" width="8.3" height="7.7"/>
	<rect x="102" y="87.9" class="st4" width="8.3" height="7.7"/>
	<rect x="92.4" y="96.9" class="st4" width="8.3" height="5.7"/>
	<rect x="102" y="96.9" class="st4" width="8.3" height="5.7"/>
	<polygon class="st8" points="106.5,90.5 106.5,91.9 107.7,91.9 107.7,92.1 106.5,92.1 106.5,93.5 106.1,93.5 106.1,92.1 
		104.8,92.1 104.8,91.9 106.1,91.9 106.1,90.5 	"/>
	<path class="st8" d="M96.2,99.1c0,0.7-0.3,0.9-0.7,0.9c-0.4,0-0.7-0.3-0.7-0.9c0-0.6,0.3-0.9,0.7-0.9
		C95.9,98.3,96.2,98.6,96.2,99.1z M95,99.2c0,0.4,0.1,0.7,0.4,0.7s0.4-0.3,0.4-0.7c0-0.4-0.1-0.7-0.4-0.7S95,98.8,95,99.2z
		 M95.4,101.3l1.7-3h0.3l-1.7,3H95.4z M98,100.4c0,0.7-0.3,0.9-0.7,0.9c-0.4,0-0.7-0.3-0.7-0.9s0.3-0.9,0.7-0.9
		C97.7,99.5,98,99.8,98,100.4z M96.9,100.4c0,0.4,0.1,0.7,0.4,0.7c0.3,0,0.4-0.3,0.4-0.7c0-0.4-0.1-0.7-0.4-0.7
		C97.1,99.7,96.9,100,96.9,100.4z"/>
	<path class="st8" d="M105,99.5v-0.3h2.6v0.3H105z M105,100.6v-0.3h2.6v0.3H105z"/>
	<rect x="95" y="92.3" class="st8" width="2.9" height="0.3"/>
</g>
<g>
	<path class="st6" d="M158.5,109.5h-28.6c-1.4,0-2.6-1.1-2.6-2.6V78.3c0-1.4,1.1-2.6,2.6-2.6h28.6c1.4,0,2.6,1.1,2.6,2.6v28.6
		C161,108.3,159.9,109.5,158.5,109.5z"/>
	<rect x="133.1" y="82.6" class="st4" width="3.2" height="4.5"/>
	<rect x="137.7" y="82.6" class="st7" width="18.6" height="4.1"/>
	<rect x="133.1" y="90.8" class="st4" width="3.2" height="3.2"/>
	<rect x="137.7" y="90.8" class="st7" width="18.6" height="3.4"/>
	<rect x="133.1" y="98.5" class="st4" width="3.2" height="3.8"/>
	<rect x="137.7" y="98.5" class="st7" width="18.6" height="4.1"/>
</g>
<g>
	<path class="st6" d="M331.1,109.5h-28.6c-1.4,0-2.6-1.1-2.6-2.6V78.3c0-1.4,1.1-2.6,2.6-2.6h28.6c1.4,0,2.6,1.1,2.6,2.6v28.6
		C333.6,108.3,332.5,109.5,331.1,109.5z"/>
	<path class="st4" d="M322.3,81.3h-16.1c-0.6,0-1.1,0.5-1.1,1.1v4.9l-3.1,3.3h3.1v2.5c0,0.6,0.5,1.1,1.1,1.1h16.1
		c0.6,0,1.1-0.5,1.1-1.1V82.4C323.4,81.8,322.9,81.3,322.3,81.3z"/>
	<path class="st7" d="M331.2,99.6l-3-3.2v-4.9c0-0.6-0.5-1.1-1.1-1.1h-15.7c-0.6,0-1.1,0.5-1.1,1.1v10.7c0,0.6,0.5,1.1,1.1,1.1h15.7
		c0.6,0,1.1-0.5,1.1-1.1v-2.6L331.2,99.6L331.2,99.6z"/>
</g>
<g>
	<path class="st6" d="M288,109.5h-28.6c-1.4,0-2.6-1.1-2.6-2.6V78.3c0-1.4,1.1-2.6,2.6-2.6H288c1.4,0,2.6,1.1,2.6,2.6v28.5
		C290.5,108.3,289.3,109.5,288,109.5z"/>
	<path class="st7" d="M283.9,104.2h-20.3c-0.3,0-0.5-0.2-0.5-0.5V91.6c0-0.3,0.2-0.5,0.5-0.5h20.3c0.3,0,0.5,0.2,0.5,0.5v12.2
		C284.4,104,284.2,104.2,283.9,104.2z"/>
	<rect x="263.2" y="96.3" class="st4" width="21.1" height="1.8"/>
	<path class="st4" d="M285.6,83.1c-0.3-2.4-3.5-2.6-5.3-2c-2.1,0.7-4.1,2-5.5,3.5c-0.5,0.5-0.9,1-1.1,1.4c0,0,0,0.1-0.1,0.1
		c-0.1,0.3-0.5,1.2-0.9,1.2h1.8c2.7,0,5.5-0.4,8-1.2C284,85.7,285.8,85,285.6,83.1z M282.9,84.8c-2.6,1-5.4,1.6-8,1.6
		c0,0,3.7-3.5,6.4-3.9c0.7-0.1,1.5-0.1,2.2,0.3C284.5,83.3,283.8,84.5,282.9,84.8z"/>
	<path class="st4" d="M264.7,86.2c2.6,0.9,5.3,1.2,8,1.2h1.8c-0.3,0-0.7-1-0.9-1.2c0,0,0-0.1-0.1-0.1c-0.3-0.5-0.8-1.1-1.1-1.4
		c-1.4-1.6-3.4-3-5.5-3.5c-1.7-0.5-5-0.3-5.3,2C261.5,85,263.3,85.7,264.7,86.2z M263.9,82.8c0.7-0.4,1.4-0.4,2.2-0.3
		c2.7,0.3,6.4,3.9,6.4,3.9c-2.7,0-5.5-0.7-8-1.6C263.6,84.5,262.8,83.3,263.9,82.8z"/>
	<rect x="263.2" y="91.9" class="st8" width="21.1" height="0.7"/>
	<rect x="272.8" y="91.9" class="st4" width="1.8" height="12.2"/>
	<rect x="261.4" y="87.5" class="st7" width="24.6" height="4.5"/>
	<rect x="272.8" y="87.5" class="st4" width="1.8" height="4.5"/>
</g>
<g>
	<path class="st6" d="M201.7,109.5h-28.6c-1.4,0-2.6-1.1-2.6-2.6V78.3c0-1.4,1.1-2.6,2.6-2.6h28.6c1.4,0,2.6,1.1,2.6,2.6v28.6
		C204.2,108.3,203,109.5,201.7,109.5z"/>
	<circle class="st4" cx="187.4" cy="92.5" r="12.5"/>
	<circle class="st7" cx="187.4" cy="92.5" r="10.8"/>
	<path class="st6" d="M191,89.3c-0.1-0.1-0.2-0.2-0.5-0.3c-0.2-0.1-0.5-0.3-0.7-0.4c-0.3-0.1-0.6-0.3-0.9-0.4
		c-0.3-0.1-0.7-0.2-1.1-0.2v3.3l0.5,0.1c0.7,0.2,1.2,0.4,1.8,0.6c0.5,0.2,1,0.5,1.3,0.8c0.4,0.3,0.7,0.7,0.9,1.1
		c0.2,0.5,0.3,1,0.3,1.5c0,0.7-0.1,1.2-0.4,1.8c-0.3,0.6-0.6,0.9-1.1,1.2c-0.5,0.3-0.9,0.6-1.4,0.7c-0.6,0.1-1.1,0.3-1.7,0.3v2.1
		H187v-2.1c-0.9-0.1-1.7-0.3-2.6-0.6s-1.6-0.7-2.3-1.1l1.1-2.2c0.1,0.1,0.3,0.3,0.5,0.4c0.3,0.2,0.6,0.3,0.9,0.5
		c0.4,0.2,0.7,0.3,1.1,0.5c0.5,0.1,0.9,0.3,1.2,0.3v-3.3l-0.7-0.2c-0.7-0.2-1.2-0.4-1.6-0.6c-0.5-0.2-0.9-0.5-1.1-0.7
		c-0.3-0.3-0.6-0.7-0.7-1c-0.1-0.4-0.3-0.9-0.3-1.3c0-0.7,0.1-1.2,0.3-1.7c0.2-0.5,0.5-0.9,0.9-1.2c0.4-0.3,0.9-0.7,1.3-0.9
		c0.5-0.2,1.1-0.3,1.7-0.4v-1.9h1.1v1.9c0.9,0.1,1.6,0.3,2.2,0.5c0.7,0.3,1.2,0.7,1.8,1L191,89.3z M185.2,89.5c0,0.5,0.1,0.8,0.5,1
		c0.3,0.2,0.8,0.5,1.3,0.6v-3.1C185.9,88,185.2,88.5,185.2,89.5z M189.8,95.6c0-0.5-0.2-0.8-0.5-1.1c-0.4-0.3-0.9-0.5-1.4-0.7v3.1
		C189.2,96.9,189.8,96.4,189.8,95.6z"/>
</g>
<line class="st5" x1="116.4" y1="101.3" x2="130.2" y2="101.3"/>
<line class="st5" x1="289.5" y1="83.2" x2="303.3" y2="83.2"/>
<line class="st5" x1="246.3" y1="101.3" x2="260" y2="101.3"/>
<line class="st5" x1="161" y1="101.3" x2="174.8" y2="101.3"/>
</svg>
