<?xml version="1.0" encoding="utf-8"?>
<!-- Generator: Adobe Illustrator 19.2.0, SVG Export Plug-In . SVG Version: 6.00 Build 0)  -->
<svg version="1.1" id="Layer_1" xmlns="http://www.w3.org/2000/svg" xmlns:xlink="http://www.w3.org/1999/xlink" x="0px" y="0px"
	 viewBox="0 0 416.3 112.7" style="enable-background:new 0 0 416.3 112.7;" xml:space="preserve">
<style type="text/css">
	.st0{fill:#5B5193;}
	.st1{fill:#47417F;}
	.st2{fill:#AAAAAA;}
	.st3{fill:none;stroke:#D7D7D7;stroke-width:2;stroke-miterlimit:10;stroke-dasharray:4;}
	.st4{fill:#FFFFFF;}
	.st5{fill:none;stroke:#AAAAE2;stroke-width:2;stroke-miterlimit:10;stroke-dasharray:4;}
	.st6{fill:#8787C6;}
	.st7{fill:#D4D4F4;}
	.st8{fill:#B2B1DD;}
</style>
<path class="st0" d="M395.3,112.5H21.5c-1.3,0-2.3-1-2.3-2.3V47.1c0-1.3,1-2.3,2.3-2.3h373.9c1.3,0,2.3,1,2.3,2.3v63.1
	C397.7,111.4,396.6,112.5,395.3,112.5z"/>
<path class="st1" d="M385.4,112.7H32.6c-0.7,0-1.2-0.6-1.2-1.3V68.3c0-0.7,0.6-1.3,1.2-1.3h352.8c0.7,0,1.3,0.6,1.3,1.3v43.2
	C386.7,112.1,386.1,112.7,385.4,112.7z"/>
<g>
	<circle class="st2" cx="62.3" cy="14.1" r="6.8"/>
	<g>
		<path class="st2" d="M71.3,26.6c0-2.3-1.6-4.6-3.6-4.6H57.3c-1.9,0-3.3,1.6-3.3,3.8V39h17.2L71.3,26.6L71.3,26.6z"/>
	</g>
</g>
<g>
	<circle class="st2" cx="327.3" cy="14.1" r="6.8"/>
	<g>
		<path class="st2" d="M336.3,26.6c0-2.3-1.6-4.6-3.6-4.6h-10.3c-1.9,0-3.3,1.6-3.3,3.8V39h17.2L336.3,26.6L336.3,26.6z"/>
	</g>
</g>
<g>
	<circle class="st2" cx="42.2" cy="14.1" r="6.8"/>
	<g>
		<path class="st2" d="M51.2,26.6c0-2.3-1.6-4.6-3.6-4.6H37.2c-1.9,0-3.2,1.6-3.2,3.8V39h17L51.2,26.6L51.2,26.6z"/>
	</g>
</g>
<polyline class="st3" points="76.4,26.5 104.2,26.5 104.2,43.3 "/>
<g>
	<circle class="st2" cx="217.3" cy="14.1" r="6.8"/>
	<g>
		<path class="st2" d="M226.3,26.6c0-2.3-1.6-4.6-3.6-4.6h-10.3c-1.9,0-3.3,1.6-3.3,3.8V39h17.2L226.3,26.6L226.3,26.6z"/>
	</g>
</g>
<polyline class="st3" points="206,26.5 156.4,26.5 156.4,43.3 "/>
<polyline class="st3" points="314,26.5 279.7,26.5 279.7,43.3 "/>
<g>
	<path class="st4" d="M175.9,60.8c0.8,0.9,1.9,1.4,3.1,1.4c1.6,0,2.6-0.9,2.6-2.1c0-1.3-0.9-1.7-1.9-2.2l-1.6-0.7
		c-0.9-0.4-2.1-1.1-2.1-2.6c0-1.5,1.3-2.6,3.1-2.6c1.3,0,2.3,0.6,2.9,1.3l-0.4,0.5c-0.6-0.7-1.5-1.1-2.5-1.1c-1.4,0-2.3,0.7-2.3,1.9
		c0,1.2,1.1,1.7,1.8,2l1.6,0.7c1.2,0.5,2.2,1.2,2.2,2.8c0,1.6-1.3,2.8-3.4,2.8c-1.5,0-2.7-0.7-3.6-1.6L175.9,60.8z"/>
	<path class="st4" d="M189,57.9c0-1.2-0.3-2.4-1.8-2.4c-1,0-1.9,0.5-2.4,0.9l-0.3-0.5c0.5-0.4,1.6-1,2.8-1c1.8,0,2.4,1.3,2.4,3v4.9
		h-0.6l-0.1-1h0c-0.8,0.6-1.7,1.2-2.7,1.2c-1.2,0-2.2-0.7-2.2-2.1C184,59.1,185.5,58.3,189,57.9z M186.3,62.3c0.9,0,1.7-0.4,2.6-1.2
		v-2.6c-3.2,0.4-4.2,1.1-4.2,2.3C184.7,61.9,185.5,62.3,186.3,62.3z"/>
	<path class="st4" d="M192.4,55h0.6l0.1,1.2h0c0.8-0.8,1.6-1.4,2.6-1.4c1.6,0,2.3,1,2.3,2.9v4.9h-0.7v-4.8c0-1.6-0.5-2.4-1.8-2.4
		c-0.9,0-1.6,0.5-2.5,1.4v5.8h-0.7V55z"/>
	<path class="st4" d="M203.7,54.8c0.9,0,1.6,0.4,2.3,0.9l0-1.4v-3.2h0.7v11.5h-0.6l-0.1-1h0c-0.6,0.6-1.5,1.2-2.5,1.2
		c-1.9,0-3.2-1.4-3.2-4C200.3,56.4,201.9,54.8,203.7,54.8z M203.6,62.3c0.8,0,1.6-0.4,2.4-1.3v-4.6c-0.8-0.7-1.5-1-2.2-1
		c-1.5,0-2.7,1.5-2.7,3.4C201,60.9,201.9,62.3,203.6,62.3z"/>
	<path class="st4" d="M209.1,61.3c0.7,0.5,1.3,1,2.4,1c1.2,0,1.8-0.7,1.8-1.5c0-1-1-1.4-1.9-1.7c-1.2-0.4-2.4-0.9-2.4-2.2
		c0-1.1,0.9-2,2.5-2c0.8,0,1.6,0.3,2.2,0.8l-0.4,0.5c-0.5-0.4-1.1-0.7-1.8-0.7c-1.2,0-1.7,0.7-1.7,1.4c0,0.8,0.9,1.2,1.8,1.6
		c1.2,0.4,2.5,0.8,2.5,2.4c0,1.2-0.9,2.2-2.6,2.2c-1.1,0-2.1-0.5-2.8-1.1L209.1,61.3z"/>
	<path class="st4" d="M216.3,55.6h-1.2v-0.5l1.2-0.1l0.1-2.2h0.6V55h2.2v0.6H217v5c0,1,0.2,1.6,1.3,1.6c0.3,0,0.7-0.1,1-0.2l0.2,0.6
		c-0.4,0.2-0.9,0.3-1.2,0.3c-1.5,0-1.9-0.9-1.9-2.3V55.6z"/>
	<path class="st4" d="M223.7,54.8c1.9,0,3.5,1.5,3.5,4c0,2.5-1.6,4-3.5,4c-1.8,0-3.4-1.5-3.4-4C220.3,56.3,221.9,54.8,223.7,54.8z
		 M223.7,62.3c1.6,0,2.7-1.4,2.7-3.4c0-2-1.2-3.4-2.7-3.4s-2.7,1.4-2.7,3.4C221,60.9,222.2,62.3,223.7,62.3z"/>
	<path class="st4" d="M229.5,55h0.6l0.1,1.4h0c0.5-0.9,1.3-1.6,2.2-1.6c0.3,0,0.5,0,0.8,0.2l-0.2,0.6c-0.3-0.1-0.4-0.1-0.7-0.1
		c-0.7,0-1.5,0.5-2.1,2v5.2h-0.7V55z"/>
	<path class="st4" d="M234.6,55h0.6l0.1,1.2h0c0.7-0.8,1.6-1.4,2.4-1.4c1.2,0,1.9,0.6,2.1,1.6c0.9-1,1.7-1.6,2.6-1.6
		c1.5,0,2.3,1,2.3,2.9v4.9H244v-4.8c0-1.6-0.5-2.4-1.7-2.4c-0.7,0-1.5,0.5-2.3,1.4v5.8h-0.7v-4.8c0-1.6-0.5-2.4-1.7-2.4
		c-0.7,0-1.5,0.5-2.3,1.4v5.8h-0.7V55z"/>
</g>
<g>
	<path class="st4" d="M352.9,91h-4.2l-1.2,3.6h-0.8l3.7-10.5h0.7l3.7,10.5h-0.8L352.9,91z M352.7,90.4l-0.7-2
		c-0.4-1.2-0.8-2.4-1.2-3.6h-0.1c-0.4,1.3-0.7,2.4-1.2,3.6l-0.7,2H352.7z"/>
	<path class="st4" d="M357.1,95.3v2.8h-0.7V86.9h0.6l0.1,1h0c0.8-0.6,1.7-1.2,2.6-1.2c2,0,3.1,1.5,3.1,3.9c0,2.6-1.6,4.1-3.4,4.1
		c-0.7,0-1.5-0.4-2.3-0.9V95.3z M359.4,94.2c1.6,0,2.7-1.4,2.7-3.5c0-1.9-0.7-3.3-2.4-3.3c-0.8,0-1.6,0.4-2.5,1.3v4.6
		C358,93.9,358.8,94.2,359.4,94.2z"/>
	<path class="st4" d="M365.8,95.3v2.8h-0.7V86.9h0.6l0.1,1h0c0.8-0.6,1.7-1.2,2.6-1.2c2,0,3.1,1.5,3.1,3.9c0,2.6-1.6,4.1-3.4,4.1
		c-0.7,0-1.5-0.4-2.3-0.9V95.3z M368.1,94.2c1.6,0,2.7-1.4,2.7-3.5c0-1.9-0.7-3.3-2.4-3.3c-0.8,0-1.6,0.4-2.5,1.3v4.6
		C366.7,93.9,367.5,94.2,368.1,94.2z"/>
	<path class="st4" d="M373.3,93.2c0.7,0.5,1.3,1,2.4,1c1.2,0,1.8-0.7,1.8-1.5c0-1-1-1.4-1.9-1.7c-1.2-0.4-2.4-0.9-2.4-2.2
		c0-1.1,0.9-2,2.5-2c0.8,0,1.6,0.3,2.2,0.8l-0.4,0.5c-0.5-0.4-1.1-0.7-1.8-0.7c-1.2,0-1.7,0.7-1.7,1.4c0,0.8,0.9,1.2,1.8,1.6
		c1.2,0.4,2.5,0.8,2.5,2.4c0,1.2-0.9,2.2-2.6,2.2c-1.1,0-2.1-0.5-2.8-1.1L373.3,93.2z"/>
</g>
<line class="st5" x1="104.2" y1="48.8" x2="104.2" y2="71"/>
<line class="st5" x1="156.4" y1="48.8" x2="156.4" y2="71"/>
<line class="st5" x1="279.7" y1="48.8" x2="279.7" y2="71"/>
<g>
	<path class="st6" d="M246.5,108.5h-29.9c-1.5,0-2.7-1.2-2.7-2.7V75.9c0-1.5,1.2-2.7,2.7-2.7h29.9c1.5,0,2.7,1.2,2.7,2.7v29.9
		C249.1,107.3,247.9,108.5,246.5,108.5z"/>
	<rect x="226.3" y="88.6" transform="matrix(0.7174 -0.6967 0.6967 0.7174 2.9982 190.0986)" class="st4" width="19" height="5.6"/>
	
		<rect x="242.5" y="80.5" transform="matrix(0.7174 -0.6967 0.6967 0.7174 10.8939 193.5264)" class="st7" width="2.9" height="5.6"/>
	<polygon class="st7" points="226.6,100.2 227.2,95.8 231,99.8 	"/>
	<path class="st4" d="M225.7,99.6c0,0-0.1,0-0.2,0c-0.4,0.1-1.5,0.2-2.7,0.2c-1.2,0-2.5-0.1-3.5-0.5c-0.5-0.2-0.9-0.5-1.2-0.8
		c-0.3-0.3-0.4-0.7-0.5-1.3l0,0c0-0.4,0.1-0.8,0.4-1.2c0.5-0.7,1.3-1.3,2.3-1.9c1.6-0.9,3.5-1.7,5.2-2.4c0.8-0.4,1.6-0.7,2.2-1.1
		c0.6-0.4,1.1-0.8,1.3-1.3c0.1-0.3,0.2-0.5,0.2-0.7c0-0.3-0.1-0.6-0.4-0.8c-0.3-0.3-0.8-0.4-1.3-0.5c-0.5-0.1-1-0.1-1.5-0.1
		c-0.9,0-1.6,0.1-1.6,0.1c-0.2,0-0.3,0.2-0.3,0.4c0,0.2,0.2,0.3,0.4,0.3c0,0,0,0,0.1,0c0.2,0,0.8-0.1,1.4-0.1c0.6,0,1.3,0.1,1.7,0.2
		c0.2,0.1,0.4,0.2,0.5,0.3c0.1,0.1,0.2,0.2,0.2,0.3c0,0.1,0,0.3-0.1,0.5c-0.1,0.2-0.3,0.5-0.7,0.7c-0.6,0.5-1.6,0.9-2.8,1.4
		c-1.7,0.7-3.7,1.5-5.3,2.5c-0.8,0.5-1.5,1-2,1.6c-0.5,0.6-0.8,1.3-0.8,2l0,0c0,0.7,0.2,1.2,0.6,1.7c0.6,0.7,1.4,1,2.3,1.2
		c0.9,0.2,1.9,0.3,2.9,0.3c1.6,0,3-0.2,3-0.2c0.2,0,0.3-0.2,0.3-0.4C226,99.7,225.8,99.6,225.7,99.6L225.7,99.6z"/>
</g>
<g>
	<path class="st6" d="M111.2,108.5H81.3c-1.5,0-2.7-1.2-2.7-2.7V75.9c0-1.5,1.2-2.7,2.7-2.7h29.9c1.5,0,2.7,1.2,2.7,2.7v29.9
		C113.8,107.3,112.6,108.5,111.2,108.5z"/>
	<path class="st7" d="M106.5,104.2H86.6c-0.9,0-1.5-0.7-1.5-1.5v-23c0-0.9,0.7-1.5,1.5-1.5h19.9c0.9,0,1.5,0.7,1.5,1.5v23
		C108,103.4,107.4,104.2,106.5,104.2z"/>
	<rect x="87.2" y="80.4" class="st6" width="18.7" height="4.3"/>
	<rect x="87.2" y="86" class="st4" width="8.7" height="8"/>
	<rect x="97.2" y="86" class="st4" width="8.7" height="8"/>
	<rect x="87.2" y="95.4" class="st4" width="8.7" height="6"/>
	<rect x="97.2" y="95.4" class="st4" width="8.7" height="6"/>
	<polygon class="st8" points="101.9,88.7 101.9,90.1 103.2,90.1 103.2,90.4 101.9,90.4 101.9,91.8 101.5,91.8 101.5,90.4 
		100.1,90.4 100.1,90.1 101.5,90.1 101.5,88.7 	"/>
	<path class="st8" d="M91.1,97.7c0,0.7-0.3,0.9-0.7,0.9c-0.4,0-0.7-0.3-0.7-0.9c0-0.6,0.3-0.9,0.7-0.9
		C90.8,96.8,91.1,97.2,91.1,97.7z M89.9,97.8c0,0.4,0.1,0.7,0.4,0.7s0.4-0.3,0.4-0.7c0-0.4-0.1-0.7-0.4-0.7S89.9,97.4,89.9,97.8z
		 M90.3,100l1.8-3.1h0.3l-1.8,3.1H90.3z M93,99c0,0.7-0.3,0.9-0.7,0.9s-0.7-0.3-0.7-0.9s0.3-0.9,0.7-0.9C92.7,98.1,93,98.4,93,99z
		 M91.9,99c0,0.4,0.1,0.7,0.4,0.7s0.4-0.3,0.4-0.7c0-0.4-0.1-0.7-0.4-0.7C92.1,98.3,91.9,98.6,91.9,99z"/>
	<path class="st8" d="M100.3,98.1v-0.3h2.7v0.3H100.3z M100.3,99.2v-0.3h2.7v0.3H100.3z"/>
	<rect x="89.9" y="90.6" class="st8" width="3" height="0.3"/>
</g>
<g>
	<path class="st6" d="M156.3,108.5h-29.9c-1.5,0-2.7-1.2-2.7-2.7V75.9c0-1.5,1.2-2.7,2.7-2.7h29.9c1.5,0,2.7,1.2,2.7,2.7v29.9
		C158.9,107.3,157.7,108.5,156.3,108.5z"/>
	<rect x="129.7" y="80.4" class="st4" width="3.3" height="4.7"/>
	<rect x="134.5" y="80.4" class="st7" width="19.4" height="4.3"/>
	<rect x="129.7" y="89" class="st4" width="3.3" height="3.3"/>
	<rect x="134.5" y="89" class="st7" width="19.4" height="3.6"/>
	<rect x="129.7" y="97" class="st4" width="3.3" height="4"/>
	<rect x="134.5" y="97" class="st7" width="19.4" height="4.3"/>
</g>
<g>
	<path class="st6" d="M336.7,108.5h-29.9c-1.5,0-2.7-1.2-2.7-2.7V75.9c0-1.5,1.2-2.7,2.7-2.7h29.9c1.5,0,2.7,1.2,2.7,2.7v29.9
		C339.3,107.3,338.1,108.5,336.7,108.5z"/>
	<path class="st4" d="M327.5,79.1h-16.8c-0.6,0-1.1,0.5-1.1,1.1v5.1l-3.2,3.5h3.2v2.6c0,0.6,0.5,1.1,1.1,1.1h16.8
		c0.6,0,1.1-0.5,1.1-1.1V80.2C328.6,79.6,328.1,79.1,327.5,79.1z"/>
	<path class="st7" d="M336.8,98.2l-3.1-3.3v-5.1c0-0.6-0.5-1.1-1.1-1.1h-16.4c-0.6,0-1.1,0.5-1.1,1.1V101c0,0.6,0.5,1.1,1.1,1.1
		h16.4c0.6,0,1.1-0.5,1.1-1.1v-2.7H336.8z"/>
</g>
<g>
	<path class="st6" d="M291.6,108.5h-29.9c-1.5,0-2.7-1.2-2.7-2.7V75.9c0-1.5,1.2-2.7,2.7-2.7h29.9c1.5,0,2.7,1.2,2.7,2.7v29.8
		C294.2,107.3,293,108.5,291.6,108.5z"/>
	<path class="st7" d="M287.3,103h-21.2c-0.3,0-0.5-0.2-0.5-0.5V89.8c0-0.3,0.2-0.5,0.5-0.5h21.2c0.3,0,0.5,0.2,0.5,0.5v12.8
		C287.8,102.8,287.6,103,287.3,103z"/>
	<rect x="265.7" y="94.7" class="st4" width="22.1" height="1.9"/>
	<path class="st4" d="M289.1,81c-0.3-2.5-3.7-2.7-5.5-2.1c-2.2,0.7-4.3,2.1-5.7,3.7c-0.5,0.5-0.9,1-1.2,1.5c0,0,0,0.1-0.1,0.1
		c-0.1,0.3-0.5,1.3-0.9,1.3h1.9c2.8,0,5.7-0.4,8.4-1.3C287.4,83.7,289.3,82.9,289.1,81z M286.3,82.7c-2.7,1-5.6,1.7-8.4,1.7
		c0,0,3.9-3.7,6.7-4.1c0.7-0.1,1.6-0.1,2.3,0.3C287.9,81.2,287.2,82.4,286.3,82.7z"/>
	<path class="st4" d="M267.3,84.2c2.7,0.9,5.5,1.3,8.4,1.3h1.9c-0.3,0-0.7-1-0.9-1.3c0,0,0-0.1-0.1-0.1c-0.3-0.5-0.8-1.1-1.2-1.5
		c-1.5-1.7-3.6-3.1-5.7-3.7c-1.8-0.5-5.2-0.3-5.5,2.1C263.9,82.9,265.8,83.7,267.3,84.2z M266.4,80.6c0.7-0.4,1.5-0.4,2.3-0.3
		c2.8,0.3,6.7,4.1,6.7,4.1c-2.8,0-5.8-0.7-8.4-1.7C266.1,82.4,265.3,81.2,266.4,80.6z"/>
	<rect x="265.7" y="90.2" class="st8" width="22.1" height="0.7"/>
	<rect x="275.7" y="90.2" class="st4" width="1.9" height="12.8"/>
	<rect x="263.8" y="85.5" class="st7" width="25.7" height="4.7"/>
	<rect x="275.7" y="85.5" class="st4" width="1.9" height="4.7"/>
</g>
<g>
	<path class="st6" d="M201.4,108.5h-29.9c-1.5,0-2.7-1.2-2.7-2.7V75.9c0-1.5,1.2-2.7,2.7-2.7h29.9c1.5,0,2.7,1.2,2.7,2.7v29.9
		C204,107.3,202.8,108.5,201.4,108.5z"/>
	<circle class="st4" cx="186.5" cy="90.8" r="13.1"/>
	<circle class="st7" cx="186.5" cy="90.8" r="11.3"/>
	<path class="st6" d="M190.2,87.4c-0.1-0.1-0.2-0.2-0.5-0.3c-0.2-0.1-0.5-0.3-0.7-0.4c-0.3-0.1-0.6-0.3-0.9-0.4
		c-0.3-0.1-0.7-0.2-1.1-0.2v3.4l0.5,0.1c0.7,0.2,1.3,0.4,1.9,0.6c0.5,0.2,1,0.5,1.4,0.8c0.4,0.3,0.7,0.7,0.9,1.1
		c0.2,0.5,0.3,1,0.3,1.6c0,0.7-0.1,1.3-0.4,1.9s-0.6,0.9-1.1,1.3c-0.5,0.3-0.9,0.6-1.5,0.7c-0.6,0.1-1.2,0.3-1.8,0.3v2.2h-1.2v-2.2
		c-0.9-0.1-1.8-0.3-2.7-0.6c-0.9-0.3-1.7-0.7-2.4-1.2l1.2-2.3c0.1,0.1,0.3,0.3,0.5,0.4c0.3,0.2,0.6,0.3,0.9,0.5
		c0.4,0.2,0.7,0.3,1.2,0.5c0.5,0.1,0.9,0.3,1.3,0.3V92l-0.7-0.2c-0.7-0.2-1.3-0.4-1.7-0.6c-0.5-0.2-0.9-0.5-1.2-0.7
		c-0.3-0.3-0.6-0.7-0.7-1c-0.1-0.4-0.3-0.9-0.3-1.4c0-0.7,0.1-1.3,0.3-1.8s0.5-0.9,0.9-1.3c0.4-0.3,0.9-0.7,1.4-0.9s1.1-0.3,1.8-0.4
		v-2h1.2v2c0.9,0.1,1.7,0.3,2.3,0.5c0.7,0.3,1.3,0.7,1.9,1L190.2,87.4z M184.2,87.6c0,0.5,0.1,0.8,0.5,1c0.3,0.2,0.8,0.5,1.4,0.6V86
		C184.9,86.1,184.2,86.6,184.2,87.6z M189,94c0-0.5-0.2-0.8-0.5-1.1c-0.4-0.3-0.9-0.5-1.5-0.7v3.2C188.3,95.4,189,94.9,189,94z"/>
</g>
<line class="st5" x1="112.3" y1="100" x2="126.7" y2="100"/>
<line class="st5" x1="293.2" y1="81.1" x2="307.6" y2="81.1"/>
<line class="st5" x1="248" y1="100" x2="262.3" y2="100"/>
<line class="st5" x1="158.9" y1="100" x2="173.3" y2="100"/>
</svg>
