<?xml version="1.0" encoding="utf-8"?>
<!-- Generator: Adobe Illustrator 19.1.1, SVG Export Plug-In . SVG Version: 6.00 Build 0)  -->
<svg version="1.1" id="Layer_1" xmlns="http://www.w3.org/2000/svg" xmlns:xlink="http://www.w3.org/1999/xlink" x="0px" y="0px"
	 viewBox="-233 166.2 491.3 229.8" style="enable-background:new -233 166.2 491.3 229.8;" xml:space="preserve">
<style type="text/css">
	.st0{fill:#737284;}
	.st1{fill:#C3BFDB;}
	.st2{fill:#FFFFFF;}
</style>
<rect x="-222.4" y="175.2" class="st0" width="472" height="37"/>
<rect x="-222.4" y="218.2" class="st0" width="127" height="37"/>
<rect x="-86.4" y="218.2" class="st0" width="178" height="37"/>
<rect x="96.6" y="218.2" class="st0" width="153" height="37"/>
<rect x="-222.4" y="261.2" class="st0" width="236" height="36"/>
<rect x="18.6" y="261.2" class="st0" width="231" height="36"/>
<rect x="-222.4" y="303.2" class="st0" width="472" height="37"/>
<g>
	<polygon class="st1" points="69.4,309.2 57.6,309.2 57.6,333.2 75.6,333.2 75.6,316.3 	"/>
	<polygon class="st2" points="69.6,316.2 76.1,316.2 69.6,309.7 	"/>
</g>
<g>
	<polygon class="st1" points="94.6,309.2 82.6,309.2 82.6,333.2 101.6,333.2 101.6,316.3 	"/>
	<polygon class="st2" points="94.6,316.2 101.2,316.2 94.6,309.7 	"/>
</g>
<g>
	<polygon class="st1" points="118.4,309.2 106.6,309.2 106.6,333.2 124.6,333.2 124.6,316.3 	"/>
	<polygon class="st2" points="117.6,316.2 125.1,316.2 117.6,309.7 	"/>
</g>
<g>
	<path class="st2" d="M18.3,194.3V189h2.1c2.4,0,3.5,0.6,3.5,2.6c0,1.9-1.1,2.7-3.5,2.7H18.3z M17.5,200h0.8v-5h2.4
		c2.6,0,4.1-1.1,4.1-3.4c0-2.4-1.5-3.2-4.1-3.2h-3.2V200z M10.9,200h0.8v-10.9h3.7v-0.7H7.2v0.7h3.7V200z M1.8,200h0.8v-10.9h3.7
		v-0.7h-8.2v0.7h3.7V200z M-11.8,200h0.8v-5.8h6.2v5.8H-4v-11.6h-0.8v5.1H-11v-5.1h-0.8V200z"/>
	<path class="st2" d="M-151.4,244.2h0.8v-6.4c1-1.1,1.8-1.6,2.8-1.6c1.4,0,1.9,0.8,1.9,2.6v5.3h0.8v-5.4c0-2.2-0.8-3.2-2.6-3.2
		c-1.2,0-2,0.7-2.9,1.5v-1.9v-3.7h-0.8V244.2z M-156.7,241.9c0,1.5,0.5,2.6,2.1,2.6c0.4,0,0.9-0.1,1.4-0.3l-0.2-0.6
		c-0.3,0.1-0.7,0.3-1.1,0.3c-1.2,0-1.4-0.7-1.4-1.8v-5.5h2.4v-0.7h-2.4v-2.4h-0.7l-0.1,2.4l-1.3,0.1v0.6h1.3V241.9z M-166.3,241.2
		c0,2.2,0.8,3.2,2.6,3.2c1.2,0,2-0.7,2.9-1.6h0l0.1,1.4h0.7v-8.5h-0.8v6.2c-1,1.2-1.7,1.7-2.7,1.7c-1.4,0-1.9-0.8-1.9-2.6v-5.3h-0.8
		V241.2z M-168.6,244.2h0.9l-4.1-11.6h-0.8l-4.1,11.6h0.8l1.4-4h4.6L-168.6,244.2z M-174.3,239.5l0.7-2.2c0.5-1.4,0.9-2.6,1.3-4h0.1
		c0.4,1.4,0.8,2.6,1.3,4l0.7,2.2H-174.3z"/>
	<path class="st2" d="M-58.3,281.2c0.2-2,1.5-3.3,2.9-3.3c1.5,0,2.5,1.1,2.5,3.3H-58.3z M-59.1,281.7c0,2.8,1.7,4.4,3.9,4.4
		c1.2,0,2-0.4,2.7-0.8l-0.3-0.6c-0.6,0.5-1.4,0.8-2.3,0.8c-1.9,0-3.2-1.5-3.2-3.7h6.1c0-0.2,0-0.4,0-0.6c0-2.5-1.2-3.9-3.2-3.9
		C-57.3,277.2-59.1,278.9-59.1,281.7z M-67.7,285.9h0.8v-6.4c1-1.1,1.8-1.6,2.8-1.6c1.4,0,1.9,0.8,1.9,2.6v5.3h0.8v-5.4
		c0-2.2-0.8-3.2-2.6-3.2c-1.2,0-2,0.7-2.9,1.5v-1.9v-3.7h-0.8V285.9z M-76.3,281.7c0,2.8,1.7,4.4,3.8,4.4c1.1,0,2-0.5,2.7-1.1
		l-0.4-0.5c-0.6,0.5-1.4,1-2.3,1c-1.8,0-3.1-1.5-3.1-3.7c0-2.2,1.3-3.8,3.1-3.8c0.8,0,1.5,0.4,2,0.9l0.5-0.5c-0.6-0.5-1.3-1-2.5-1
		C-74.5,277.2-76.3,278.9-76.3,281.7z M-84,283.8c0-1.3,1.2-2.1,4.6-2.6v2.9c-1,0.9-1.9,1.4-2.9,1.4C-83.2,285.4-84,285-84,283.8z
		 M-84.8,283.8c0,1.6,1.1,2.3,2.5,2.3c1.1,0,2.1-0.6,3-1.3h0l0.1,1.1h0.7v-5.4c0-1.8-0.7-3.3-2.7-3.3c-1.4,0-2.5,0.7-3.1,1.1
		l0.4,0.6c0.6-0.4,1.5-1,2.7-1c1.7,0,2,1.4,2,2.7C-83.1,281-84.8,281.9-84.8,283.8z M-94.9,280.1c0,3.7,2,6,4.9,6
		c1.5,0,2.6-0.6,3.5-1.7l-0.5-0.5c-0.8,1-1.7,1.4-2.9,1.4c-2.5,0-4.1-2.1-4.1-5.3c0-3.2,1.6-5.2,4.1-5.2c1.1,0,1.9,0.5,2.5,1.2
		l0.5-0.5c-0.6-0.7-1.7-1.4-3-1.4C-92.9,274.1-94.9,276.4-94.9,280.1z M-106.3,288.9l-0.2,0.7c0.2,0.1,0.5,0.2,0.9,0.2
		c1.5,0,2.4-1.4,2.8-2.8l3.3-9.5h-0.8l-1.8,5.3c-0.2,0.7-0.5,1.6-0.8,2.4h-0.1c-0.3-0.7-0.7-1.7-0.9-2.4l-2-5.3h-0.8l3.5,8.6
		l-0.2,0.7c-0.4,1.3-1.1,2.2-2.2,2.2C-105.9,289-106.2,289-106.3,288.9z M-111.4,285.9h0.8v-5.8c0.7-1.6,1.5-2.2,2.3-2.2
		c0.3,0,0.5,0,0.8,0.1l0.2-0.7c-0.3-0.1-0.5-0.2-0.8-0.2c-1,0-1.8,0.7-2.4,1.8h-0.1l-0.1-1.6h-0.7V285.9z M-120.7,281.7
		c0-2.2,1.3-3.8,3-3.8s3,1.5,3,3.8c0,2.2-1.3,3.7-3,3.7S-120.7,283.9-120.7,281.7z M-121.5,281.7c0,2.8,1.8,4.4,3.8,4.4
		c2,0,3.8-1.6,3.8-4.4c0-2.8-1.8-4.5-3.8-4.5C-119.7,277.2-121.5,278.9-121.5,281.7z M-135.1,285.9h0.8v-6.4
		c0.9-1.1,1.8-1.6,2.5-1.6c1.3,0,1.9,0.8,1.9,2.6v5.3h0.8v-6.4c0.9-1.1,1.7-1.6,2.5-1.6c1.3,0,1.9,0.8,1.9,2.6v5.3h0.8v-5.4
		c0-2.2-0.8-3.2-2.5-3.2c-1,0-1.9,0.7-2.9,1.7c-0.3-1-1-1.7-2.3-1.7c-0.9,0-1.9,0.7-2.7,1.5h-0.1l-0.1-1.3h-0.7V285.9z
		 M-143.5,281.2c0.2-2,1.5-3.3,2.9-3.3c1.5,0,2.5,1.1,2.5,3.3H-143.5z M-144.3,281.7c0,2.8,1.7,4.4,3.9,4.4c1.2,0,2-0.4,2.7-0.8
		l-0.3-0.6c-0.6,0.5-1.4,0.8-2.3,0.8c-1.9,0-3.2-1.5-3.2-3.7h6.1c0-0.2,0-0.4,0-0.6c0-2.5-1.2-3.9-3.2-3.9
		C-142.5,277.2-144.3,278.9-144.3,281.7z M-155.9,285.9h0.7v-7.6c0-1-0.1-2.2-0.1-3.1h0.1l0.9,2.6l2.5,6.9h0.7l2.5-6.9l0.9-2.6h0.1
		c-0.1,1-0.1,2.2-0.1,3.1v7.6h0.8v-11.6h-1.1l-2.4,6.8l-0.9,2.6h-0.1l-0.9-2.6l-2.4-6.8h-1.1V285.9z"/>
	<path class="st2" d="M38.8,321.8c0.2-2,1.5-3.3,2.9-3.3c1.5,0,2.5,1.1,2.5,3.3H38.8z M38,322.4c0,2.8,1.7,4.4,3.9,4.4
		c1.2,0,2-0.4,2.7-0.8l-0.3-0.6c-0.6,0.5-1.4,0.8-2.3,0.8c-1.9,0-3.2-1.5-3.2-3.7h6.1c0-0.2,0-0.4,0-0.6c0-2.5-1.2-3.9-3.2-3.9
		C39.8,317.9,38,319.6,38,322.4z M30.5,325.6c0.8,0.6,1.8,1.2,3.1,1.2c1.8,0,2.9-1.1,2.9-2.4c0-1.7-1.4-2.1-2.8-2.6
		c-1-0.4-2-0.8-2-1.7c0-0.8,0.6-1.5,1.9-1.5c0.9,0,1.5,0.3,2,0.8l0.4-0.5c-0.6-0.5-1.5-0.9-2.4-0.9c-1.8,0-2.7,1-2.7,2.3
		c0,1.4,1.4,2,2.7,2.4c1,0.4,2.1,0.8,2.1,1.9c0,0.9-0.7,1.7-2,1.7c-1.2,0-2-0.5-2.7-1.1L30.5,325.6z M23.1,324.4
		c0-1.3,1.2-2.1,4.6-2.6v2.9c-1,0.9-1.9,1.4-2.9,1.4C23.9,326.1,23.1,325.6,23.1,324.4z M22.3,324.4c0,1.6,1.1,2.3,2.5,2.3
		c1.1,0,2.1-0.6,3-1.3h0l0.1,1.1h0.7v-5.4c0-1.8-0.7-3.3-2.7-3.3c-1.4,0-2.5,0.7-3.1,1.1l0.4,0.6c0.6-0.4,1.5-1,2.7-1
		c1.7,0,2,1.4,2,2.7C24,321.7,22.3,322.6,22.3,324.4z M14.2,325v-5c1-0.9,1.9-1.4,2.8-1.4c1.9,0,2.7,1.5,2.7,3.6
		c0,2.3-1.2,3.9-2.9,3.9C16.1,326.1,15.1,325.8,14.2,325z M13.4,326.6h0.7l0.1-0.8h0c0.8,0.6,1.7,1,2.5,1c2,0,3.7-1.7,3.7-4.6
		c0-2.6-1.1-4.3-3.4-4.3c-1,0-2.1,0.6-2.9,1.3l0-1.7v-3.7h-0.8V326.6z M5,324.4c0-1.3,1.2-2.1,4.6-2.6v2.9c-1,0.9-1.9,1.4-2.9,1.4
		C5.8,326.1,5,325.6,5,324.4z M4.2,324.4c0,1.6,1.1,2.3,2.5,2.3c1.1,0,2.1-0.6,3-1.3h0l0.1,1.1h0.7v-5.4c0-1.8-0.7-3.3-2.7-3.3
		c-1.4,0-2.5,0.7-3.1,1.1l0.4,0.6c0.6-0.4,1.5-1,2.7-1c1.7,0,2,1.4,2,2.7C5.9,321.7,4.2,322.6,4.2,324.4z M-0.3,324.2
		c0,1.5,0.5,2.6,2.1,2.6c0.4,0,0.9-0.1,1.4-0.3L3,325.8c-0.3,0.1-0.7,0.3-1.1,0.3c-1.2,0-1.4-0.7-1.4-1.8v-5.5H3v-0.7H0.5v-2.4h-0.7
		l-0.1,2.4l-1.3,0.1v0.6h1.3V324.2z M-8.9,324.4c0-1.3,1.2-2.1,4.6-2.6v2.9c-1,0.9-1.9,1.4-2.9,1.4C-8.1,326.1-8.9,325.6-8.9,324.4z
		 M-9.7,324.4c0,1.6,1.1,2.3,2.5,2.3c1.1,0,2.1-0.6,3-1.3h0l0.1,1.1h0.7v-5.4c0-1.8-0.7-3.3-2.7-3.3c-1.4,0-2.5,0.7-3.1,1.1l0.4,0.6
		c0.6-0.4,1.5-1,2.7-1c1.7,0,2,1.4,2,2.7C-8,321.7-9.7,322.6-9.7,324.4z M-19,325.9v-10.2h1.8c3.2,0,4.5,2.1,4.5,5.1
		c0,3-1.4,5.2-4.5,5.2H-19z M-19.8,326.6h2.7c3.6,0,5.3-2.3,5.3-5.8c0-3.5-1.7-5.8-5.3-5.8h-2.7V326.6z"/>
	<path class="st2" d="M176.4,281.2c0.2-2,1.5-3.3,2.9-3.3c1.5,0,2.5,1.1,2.5,3.3H176.4z M175.6,281.7c0,2.8,1.7,4.4,3.9,4.4
		c1.2,0,2-0.4,2.7-0.8l-0.3-0.6c-0.6,0.5-1.4,0.8-2.3,0.8c-1.9,0-3.2-1.5-3.2-3.7h6.1c0-0.2,0-0.4,0-0.6c0-2.5-1.2-3.9-3.2-3.9
		C177.4,277.2,175.6,278.9,175.6,281.7z M166.9,282.9c0,2.2,0.8,3.2,2.6,3.2c1.2,0,2-0.7,2.9-1.6h0l0.1,1.4h0.7v-8.5h-0.8v6.2
		c-1,1.2-1.7,1.7-2.7,1.7c-1.4,0-1.9-0.8-1.9-2.6v-5.3h-0.8V282.9z M158.6,281.2c0.2-2,1.5-3.3,2.9-3.3c1.5,0,2.5,1.1,2.5,3.3H158.6
		z M157.8,281.7c0,2.8,1.7,4.4,3.9,4.4c1.2,0,2-0.4,2.7-0.8l-0.3-0.6c-0.6,0.5-1.4,0.8-2.3,0.8c-1.9,0-3.2-1.5-3.2-3.7h6.1
		c0-0.2,0-0.4,0-0.6c0-2.5-1.2-3.9-3.2-3.9C159.6,277.2,157.8,278.9,157.8,281.7z M149.1,282.9c0,2.2,0.8,3.2,2.6,3.2
		c1.2,0,2-0.7,2.9-1.6h0l0.1,1.4h0.7v-8.5h-0.8v6.2c-1,1.2-1.7,1.7-2.7,1.7c-1.4,0-1.9-0.8-1.9-2.6v-5.3h-0.8V282.9z M146.5,287.7
		c-0.3,0.1-0.7,0.2-1.2,0.2c-1.4,0-2.5-0.6-3-1.8c2.6-0.2,4.3-2.6,4.3-6c0-3.7-2-6-4.8-6c-2.8,0-4.8,2.3-4.8,6c0,3.5,1.8,5.8,4.3,6
		c0.6,1.5,1.9,2.5,3.9,2.5c0.6,0,1.1-0.1,1.4-0.2L146.5,287.7z M138,280.1c0-3.2,1.6-5.2,3.9-5.2s3.9,2,3.9,5.2
		c0,3.2-1.6,5.3-3.9,5.3S138,283.3,138,280.1z M125.9,281.2c0.2-2,1.5-3.3,2.9-3.3c1.5,0,2.5,1.1,2.5,3.3H125.9z M125.1,281.7
		c0,2.8,1.7,4.4,3.9,4.4c1.2,0,2-0.4,2.7-0.8l-0.3-0.6c-0.6,0.5-1.4,0.8-2.3,0.8c-1.9,0-3.2-1.5-3.2-3.7h6.1c0-0.2,0-0.4,0-0.6
		c0-2.5-1.2-3.9-3.2-3.9C126.9,277.2,125.1,278.9,125.1,281.7z M120.1,282.6c-1.2,0-2.2-1-2.2-2.4c0-1.4,1-2.3,2.2-2.3
		s2.2,0.9,2.2,2.3C122.3,281.6,121.2,282.6,120.1,282.6z M116.7,287.6c0,1.4,1.3,2.3,3.5,2.3c2.4,0,4-1.4,4-2.9
		c0-1.3-0.9-1.9-2.8-1.9h-1.8c-1.3,0-1.6-0.5-1.6-1.1c0-0.6,0.3-0.9,0.7-1.2c0.4,0.2,0.9,0.4,1.4,0.4c1.7,0,2.9-1.3,2.9-3
		c0-0.9-0.4-1.7-0.9-2.1h2v-0.7h-2.9c-0.3-0.1-0.7-0.2-1.1-0.2c-1.7,0-3,1.2-3,3c0,1,0.5,1.9,1.1,2.3v0.1c-0.4,0.3-0.9,0.8-0.9,1.5
		c0,0.7,0.3,1.1,0.7,1.4v0.1C117.2,286.1,116.7,286.9,116.7,287.6z M117.5,287.6c0-0.6,0.3-1.3,1.1-1.8c0.4,0.1,0.9,0.1,1.1,0.1h1.8
		c1.3,0,2,0.4,2,1.3c0,1.1-1.2,2.1-3.1,2.1C118.5,289.3,117.5,288.6,117.5,287.6z M109,283.8c0-1.3,1.2-2.1,4.6-2.6v2.9
		c-1,0.9-1.9,1.4-2.9,1.4C109.8,285.4,109,285,109,283.8z M108.2,283.8c0,1.6,1.1,2.3,2.5,2.3c1.1,0,2.1-0.6,3-1.3h0l0.1,1.1h0.7
		v-5.4c0-1.8-0.7-3.3-2.7-3.3c-1.4,0-2.5,0.7-3.1,1.1l0.4,0.6c0.6-0.4,1.5-1,2.7-1c1.7,0,2,1.4,2,2.7
		C109.9,281,108.2,281.9,108.2,283.8z M100.5,284.9c0.8,0.6,1.8,1.2,3.1,1.2c1.8,0,2.9-1.1,2.9-2.4c0-1.7-1.4-2.1-2.8-2.6
		c-1-0.4-2-0.8-2-1.7c0-0.8,0.6-1.5,1.9-1.5c0.9,0,1.5,0.3,2,0.8l0.4-0.5c-0.6-0.5-1.5-0.9-2.4-0.9c-1.8,0-2.7,1-2.7,2.3
		c0,1.4,1.4,2,2.7,2.4c1,0.4,2.1,0.8,2.1,1.9c0,0.9-0.7,1.7-2,1.7c-1.2,0-2-0.5-2.7-1.1L100.5,284.9z M93.3,284.9
		c0.8,0.6,1.8,1.2,3.1,1.2c1.8,0,2.9-1.1,2.9-2.4c0-1.7-1.4-2.1-2.8-2.6c-1-0.4-2-0.8-2-1.7c0-0.8,0.6-1.5,1.9-1.5
		c0.9,0,1.5,0.3,2,0.8l0.4-0.5c-0.6-0.5-1.5-0.9-2.4-0.9c-1.8,0-2.7,1-2.7,2.3c0,1.4,1.4,2,2.7,2.4c1,0.4,2.1,0.8,2.1,1.9
		c0,0.9-0.7,1.7-2,1.7c-1.2,0-2-0.5-2.7-1.1L93.3,284.9z M86,281.2c0.2-2,1.5-3.3,2.9-3.3c1.5,0,2.5,1.1,2.5,3.3H86z M85.2,281.7
		c0,2.8,1.7,4.4,3.9,4.4c1.2,0,2-0.4,2.7-0.8l-0.3-0.6c-0.6,0.5-1.4,0.8-2.3,0.8c-1.9,0-3.2-1.5-3.2-3.7h6.1c0-0.2,0-0.4,0-0.6
		c0-2.5-1.2-3.9-3.2-3.9C87,277.2,85.2,278.9,85.2,281.7z M73.6,285.9h0.7v-7.6c0-1-0.1-2.2-0.1-3.1h0.1l0.9,2.6l2.5,6.9h0.7
		l2.5-6.9l0.9-2.6h0.1c-0.1,1-0.1,2.2-0.1,3.1v7.6h0.8v-11.6h-1.1l-2.4,6.8l-0.9,2.6h-0.1l-0.9-2.6l-2.4-6.8h-1.1V285.9z"/>
	<path class="st2" d="M31.5,243.3c0.8,0.6,1.8,1.2,3.1,1.2c1.8,0,2.9-1.1,2.9-2.4c0-1.7-1.4-2.1-2.8-2.6c-1-0.4-2-0.8-2-1.7
		c0-0.8,0.6-1.5,1.9-1.5c0.9,0,1.5,0.3,2,0.8l0.4-0.5c-0.6-0.5-1.5-0.9-2.4-0.9c-1.8,0-2.7,1-2.7,2.3c0,1.4,1.4,2,2.7,2.4
		c1,0.4,2.1,0.8,2.1,1.9c0,0.9-0.7,1.7-2,1.7c-1.2,0-2-0.5-2.7-1.1L31.5,243.3z M27.2,241.9c0,1.5,0.5,2.6,2.1,2.6
		c0.4,0,0.9-0.1,1.4-0.3l-0.2-0.6c-0.3,0.1-0.7,0.3-1.1,0.3c-1.2,0-1.4-0.7-1.4-1.8v-5.5h2.4v-0.7H28v-2.4h-0.7l-0.1,2.4l-1.3,0.1
		v0.6h1.3V241.9z M17.7,244.2h0.8v-6.4c1-1.1,1.8-1.6,2.8-1.6c1.4,0,1.9,0.8,1.9,2.6v5.3h0.8v-5.4c0-2.2-0.8-3.2-2.6-3.2
		c-1.2,0-2,0.7-2.9,1.5h-0.1l-0.1-1.3h-0.7V244.2z M9.3,239.5c0.2-2,1.5-3.3,2.9-3.3c1.5,0,2.5,1.1,2.5,3.3H9.3z M8.5,240
		c0,2.8,1.7,4.4,3.9,4.4c1.2,0,2-0.4,2.7-0.8l-0.3-0.6c-0.6,0.5-1.4,0.8-2.3,0.8c-1.9,0-3.2-1.5-3.2-3.7h6.1c0-0.2,0-0.4,0-0.6
		c0-2.5-1.2-3.9-3.2-3.9C10.3,235.5,8.5,237.2,8.5,240z M-5.1,244.2h0.8v-6.4c0.9-1.1,1.8-1.6,2.5-1.6c1.3,0,1.9,0.8,1.9,2.6v5.3
		h0.8v-6.4c0.9-1.1,1.7-1.6,2.5-1.6c1.3,0,1.9,0.8,1.9,2.6v5.3h0.8v-5.4c0-2.2-0.8-3.2-2.5-3.2c-1,0-1.9,0.7-2.9,1.7
		c-0.3-1-1-1.7-2.3-1.7c-0.9,0-1.9,0.7-2.7,1.5h-0.1l-0.1-1.3h-0.7V244.2z M-13.8,247.2l-0.2,0.7c0.2,0.1,0.5,0.2,0.9,0.2
		c1.5,0,2.4-1.4,2.8-2.8l3.3-9.5h-0.8l-1.8,5.3c-0.2,0.7-0.5,1.6-0.8,2.4h-0.1c-0.3-0.7-0.7-1.7-0.9-2.4l-2-5.3h-0.8l3.5,8.6
		l-0.2,0.7c-0.4,1.3-1.1,2.2-2.2,2.2C-13.4,247.3-13.6,247.3-13.8,247.2z M-21.2,242.1c0-1.3,1.2-2.1,4.6-2.6v2.9
		c-1,0.9-1.9,1.4-2.9,1.4C-20.4,243.7-21.2,243.3-21.2,242.1z M-22.1,242.1c0,1.6,1.1,2.3,2.5,2.3c1.1,0,2.1-0.6,3-1.3h0l0.1,1.1
		h0.7v-5.4c0-1.8-0.7-3.3-2.7-3.3c-1.4,0-2.5,0.7-3.1,1.1l0.4,0.6c0.6-0.4,1.5-1,2.7-1c1.7,0,2,1.4,2,2.7
		C-20.4,239.3-22.1,240.2-22.1,242.1z M-29.6,238.5v-5.2h2.1c2.4,0,3.5,0.6,3.5,2.6c0,1.9-1.1,2.7-3.5,2.7H-29.6z M-30.4,244.2h0.8
		v-5h2.4c2.6,0,4.1-1.1,4.1-3.4c0-2.4-1.5-3.2-4.1-3.2h-3.2V244.2z"/>
	<path class="st2" d="M176.5,244.2h0.8v-11.6h-0.8V244.2z M165.4,239.7c0,3.6,1.9,4.7,3.9,4.7c2,0,3.9-1,3.9-4.7v-7.1h-0.8v7.1
		c0,3.1-1.5,4-3.2,4c-1.6,0-3.1-0.9-3.1-4v-7.1h-0.8V239.7z"/>
	<path class="st0" d="M94.2,376.6c0,1.7,0.7,2.5,2,2.5c0.5,0,0.8-0.1,1.1-0.2l-0.3-1.2c-0.3,0.1-0.5,0.1-0.6,0.1
		c-0.4,0-0.7-0.3-0.7-1v-22.1h-1.5V376.6z M78.2,374.6c0-2.5,2.2-4.1,8.8-4.8v5.4c-2,1.7-3.6,2.6-5.4,2.6S78.2,376.9,78.2,374.6z
		 M76.6,374.7c0,3,2.1,4.4,4.7,4.4c2.1,0,4-1.2,5.7-2.5H87l0.2,2.1h1.2v-10.3c0-3.4-1.3-6.2-5.1-6.2c-2.6,0-4.8,1.3-5.9,2.1l0.7,1.1
		c1.1-0.8,2.9-1.9,5.1-1.9c3.1,0,3.8,2.6,3.8,5.1C79.9,369.5,76.6,371.2,76.6,374.7z M59.7,378.7h1.5v-12.1c2-2,3.3-3,5.2-3
		c2.6,0,3.7,1.6,3.7,5v10.1h1.5v-10.3c0-4.1-1.5-6.1-4.8-6.1c-2.2,0-3.9,1.2-5.5,2.9h-0.1l-0.1-2.5h-1.3V378.7z M42.1,370.7
		c0-4.2,2.4-7.2,5.6-7.2c3.2,0,5.7,2.9,5.7,7.2c0,4.2-2.4,7.1-5.7,7.1C44.5,377.8,42.1,374.9,42.1,370.7z M40.5,370.7
		c0,5.3,3.3,8.4,7.2,8.4c3.9,0,7.2-3.1,7.2-8.4c0-5.4-3.3-8.5-7.2-8.5C43.9,362.3,40.5,365.3,40.5,370.7z M34.2,378.7h1.5v-16h-1.5
		V378.7z M35,358.8c0.7,0,1.3-0.5,1.3-1.3c0-0.8-0.6-1.3-1.3-1.3c-0.7,0-1.3,0.5-1.3,1.3C33.7,358.3,34.3,358.8,35,358.8z
		 M24.2,374.3c0,2.9,0.9,4.8,4,4.8c0.7,0,1.7-0.3,2.6-0.6l-0.4-1.2c-0.6,0.3-1.4,0.5-2,0.5c-2.2,0-2.7-1.4-2.7-3.4v-10.5h4.6v-1.3
		h-4.6V358h-1.3l-0.2,4.6l-2.5,0.1v1.1h2.5V374.3z M6,378.7h1.5v-12.1c2-2,3.3-3,5.2-3c2.6,0,3.7,1.6,3.7,5v10.1h1.5v-10.3
		c0-4.1-1.5-6.1-4.8-6.1c-2.2,0-3.9,1.2-5.5,2.9H7.4l-0.1-2.5H6V378.7z M-9.9,369.8c0.3-3.8,2.8-6.2,5.5-6.2c2.9,0,4.7,2.1,4.7,6.2
		H-9.9z M-11.4,370.7c0,5.2,3.3,8.4,7.4,8.4c2.3,0,3.8-0.8,5-1.6l-0.6-1.1c-1.2,0.9-2.6,1.4-4.3,1.4c-3.6,0-6-2.9-6-7H1.6
		c0.1-0.4,0.1-0.8,0.1-1.2c0-4.7-2.3-7.4-6.1-7.4C-8,362.3-11.4,365.5-11.4,370.7z M-21.3,378.7h1.7l5.9-16h-1.5l-3.6,10.1
		c-0.5,1.5-1.1,3.1-1.6,4.6h-0.1c-0.5-1.5-1.1-3.1-1.6-4.6l-3.6-10.1h-1.6L-21.3,378.7z M-42.4,378.7h1.5v-12.1c2-2,3.3-3,5.2-3
		c2.6,0,3.7,1.6,3.7,5v10.1h1.5v-10.3c0-4.1-1.5-6.1-4.8-6.1c-2.2,0-3.9,1.2-5.5,2.9H-41l-0.1-2.5h-1.3V378.7z M-60.1,370.7
		c0-4.2,2.4-7.2,5.6-7.2c3.2,0,5.7,2.9,5.7,7.2c0,4.2-2.4,7.1-5.7,7.1C-57.7,377.8-60.1,374.9-60.1,370.7z M-61.6,370.7
		c0,5.3,3.3,8.4,7.2,8.4c3.9,0,7.2-3.1,7.2-8.4c0-5.4-3.3-8.5-7.2-8.5C-58.3,362.3-61.6,365.3-61.6,370.7z M-80.2,367.6
		c0,7,3.8,11.5,9.2,11.5c2.9,0,4.9-1.2,6.5-3.1l-0.9-1c-1.6,1.8-3.3,2.7-5.6,2.7c-4.7,0-7.7-3.9-7.7-10.1s3-10,7.8-10
		c2,0,3.6,0.9,4.8,2.2l0.9-1c-1.2-1.4-3.1-2.6-5.7-2.6C-76.4,356.3-80.2,360.7-80.2,367.6z"/>
</g>
</svg>
