<?xml version="1.0" encoding="utf-8"?>
<!-- Generator: Adobe Illustrator 19.1.1, SVG Export Plug-In . SVG Version: 6.00 Build 0)  -->
<svg version="1.1" id="Layer_1" xmlns="http://www.w3.org/2000/svg" xmlns:xlink="http://www.w3.org/1999/xlink" x="0px" y="0px"
	 viewBox="-287 169 385 194" style="enable-background:new -287 169 385 194;" xml:space="preserve">
<style type="text/css">
	.st0{fill:#6171AA;}
	.st1{fill:#995F8D;}
	.st2{fill:#9370B2;}
	.st3{fill:#AEA3CE;}
	.st4{fill:#FFFFFF;}
	.st5{fill:#CECAE5;}
</style>
<g>
	<circle class="st0" cx="-207.2" cy="220" r="41"/>
	<circle class="st1" cx="-89.3" cy="311.7" r="41"/>
	<circle class="st2" cx="20.4" cy="220" r="41"/>
	<polyline class="st3" points="-179.7,210.2 -34.7,210.2 -34.7,206.9 -179.7,206.9 	"/>
	<circle class="st3" cx="-179.3" cy="208.6" r="3.7"/>
	<polygon class="st3" points="-37.1,216.9 -22.6,208.6 -37.1,200.2 	"/>
	<polyline class="st3" points="-186.7,243.2 -137.9,281.8 -135.8,279.2 -184.6,240.6 	"/>
	<circle class="st3" cx="-185.5" cy="242.1" r="3.7"/>
	<polygon class="st3" points="-143.9,285.6 -127.4,288 -133.6,272.5 	"/>
	<path class="st4" d="M-197.4,220.3c0.2-1.6,1.1-2.5,2.3-2.5c1.2,0,2,0.9,2,2.5H-197.4z M-198.7,220.8c0,2.6,1.7,4.1,3.8,4.1
		c1.1,0,2-0.4,2.6-0.8l-0.5-0.9c-0.6,0.4-1.2,0.7-2,0.7c-1.5,0-2.5-1.1-2.7-2.8h5.4c0-0.2,0.1-0.5,0.1-0.7c0-2.3-1.1-3.7-3.2-3.7
		C-197,216.7-198.7,218.2-198.7,220.8z M-205.8,220.8c0,2.6,1.6,4.1,3.7,4.1c1,0,1.9-0.4,2.6-1.1l-0.6-0.9c-0.5,0.4-1.1,0.8-1.9,0.8
		c-1.5,0-2.4-1.2-2.4-3c0-1.9,1.1-3.1,2.5-3.1c0.7,0,1.1,0.3,1.6,0.7l0.7-0.9c-0.6-0.5-1.3-1-2.4-1
		C-204.1,216.7-205.8,218.2-205.8,220.8z M-209.3,224.8h1.4v-8h-1.4V224.8z M-208.6,215.2c0.5,0,0.9-0.3,0.9-0.9
		c0-0.5-0.4-0.9-0.9-0.9s-0.9,0.3-0.9,0.9C-209.5,214.8-209.1,215.2-208.6,215.2z M-213.4,223.2c0,1.1,0.4,1.8,1.5,1.8
		c0.3,0,0.6-0.1,0.7-0.2l-0.2-1c-0.2,0-0.2,0-0.3,0c-0.2,0-0.4-0.2-0.4-0.6v-10.2h-1.3V223.2z M-216.2,224.8h1.5l-3.7-10.7h-1.5
		l-3.7,10.7h1.4l1.1-3.3h3.9L-216.2,224.8z M-220.8,220.4l0.5-1.6c0.4-1.2,0.7-2.4,1.1-3.6h0.1c0.3,1.2,0.7,2.4,1.1,3.6l0.5,1.6
		H-220.8z"/>
	<path class="st4" d="M-73.9,316.3c0,1.1,0.4,1.8,1.5,1.8c0.3,0,0.6-0.1,0.7-0.2l-0.2-1c-0.2,0-0.2,0-0.3,0c-0.2,0-0.4-0.2-0.4-0.6
		v-10.2H-74L-73.9,316.3L-73.9,316.3z M-82,313.9c0-1.9,0.9-3.1,2.3-3.1s2.3,1.2,2.3,3.1c0,1.8-0.9,3-2.3,3
		C-81,317-82,315.8-82,313.9z M-83.4,313.9c0,2.6,1.7,4.1,3.7,4.1s3.7-1.5,3.7-4.1c0-2.7-1.7-4.2-3.7-4.2
		C-81.6,309.8-83.4,311.3-83.4,313.9z M-88.3,317.9h1.4v-5.1c0.6-1.3,1.4-1.9,2-1.9c0.3,0,0.5,0.1,0.7,0.2l0.2-1.1
		c-0.2-0.1-0.5-0.2-0.8-0.2c-0.9,0-1.7,0.7-2.3,1.6h-0.1l-0.1-1.5h-1.1L-88.3,317.9L-88.3,317.9z M-95.8,315.8c0-1,0.9-1.7,3.6-2
		v2.2c-0.7,0.7-1.4,1.1-2.2,1.1C-95.1,317-95.8,316.7-95.8,315.8z M-97.1,315.9c0,1.5,1,2.3,2.4,2.3c1,0,1.9-0.5,2.6-1.1l0,0l0.1,1
		h1.1v-4.9c0-2-0.8-3.3-2.8-3.3c-1.3,0-2.4,0.6-3.1,1.1l0.6,0.9c0.7-0.4,1.5-0.8,2.4-0.8c1.3,0,1.6,1,1.6,2
		C-95.6,313.3-97.1,314.1-97.1,315.9z M-106.5,312.6c0,3.5,2,5.5,4.7,5.5c1.4,0,2.4-0.6,3.3-1.5l-0.7-0.8c-0.7,0.7-1.5,1.2-2.4,1.2
		c-2,0-3.3-1.7-3.3-4.4c0-2.7,1.4-4.3,3.4-4.3c0.9,0,1.5,0.4,2.1,1l0.7-0.9c-0.7-0.7-1.6-1.3-2.9-1.3
		C-104.5,307-106.5,309.1-106.5,312.6z"/>
	<path class="st4" d="M26.8,223v-4.1c0.7-0.7,1.5-1.1,2.1-1.1c1.5,0,2.1,1.1,2.1,2.9c0,2-1,3.2-2.3,3.2
		C28.3,223.9,27.6,223.6,26.8,223z M25.5,224.8h1.1l0.1-0.8h0.1c0.7,0.7,1.5,1,2.3,1c1.8,0,3.4-1.6,3.4-4.3c0-2.4-1.1-4.1-3.2-4.1
		c-0.9,0-1.8,0.5-2.5,1.1v-1.5v-3.2h-1.4v11.7H25.5z M17.5,220.8c0-1.9,0.9-3.1,2.3-3.1c1.4,0,2.3,1.2,2.3,3.1c0,1.8-0.9,3-2.3,3
		C18.4,223.9,17.5,222.6,17.5,220.8z M16.1,220.8c0,2.6,1.7,4.1,3.7,4.1s3.7-1.5,3.7-4.1c0-2.7-1.7-4.2-3.7-4.2
		C17.8,216.7,16.1,218.2,16.1,220.8z M8.6,223.7v-4.1h1.9c1.9,0,2.9,0.6,2.9,2c0,1.5-1.1,2.1-2.9,2.1H8.6z M8.6,218.7v-3.5h1.6
		c1.6,0,2.5,0.5,2.5,1.6c0,1.2-0.7,1.9-2.6,1.9H8.6z M7.3,224.8h3.4c2.4,0,4.1-1.1,4.1-3.2c0-1.5-0.9-2.4-2.5-2.6V219
		c1.3-0.3,1.9-1.3,1.9-2.4c0-1.9-1.5-2.6-3.7-2.6H7.3V224.8z"/>
	<polygon class="st5" points="-54.8,213.5 -74.5,191.3 -74.5,203.9 -113,203.9 -113,227.7 -74.5,227.7 -74.5,239 	"/>
	<polygon class="st3" points="-54.8,213.5 -54.3,213 -75.1,189.5 -75.1,203.2 -113.7,203.2 -113.7,228.3 -75.1,228.3 -75.1,241 
		-53.9,213.4 -54.3,213 -54.8,213.5 -55.4,213 -73.7,236.9 -73.7,226.9 -112.3,226.9 -112.3,204.7 -73.7,204.7 -73.7,193.2 
		-55.4,213.9 -54.8,213.5 -55.4,213 	"/>
	<path class="st3" d="M-106.8,219.6c-5,2.1-15,6.6-24.3,12.8c-4.6,3.1-9.1,6.7-12.7,10.6c-1.8,2-3.3,4.1-4.6,6.3
		c-1.2,2.2-2.2,4.5-2.7,6.8c-0.2,1.1-0.3,2.2-0.3,3.3c0,3.7,1.2,7.2,3,10.3c2.7,4.7,6.5,8.7,9.8,11.5c3.3,2.8,5.8,4.6,5.9,4.6
		l1.9-2.8l0,0c-0.2-0.2-4.6-3.1-8.9-7.6c-2.1-2.2-4.2-4.8-5.8-7.6c-1.5-2.8-2.5-5.7-2.5-8.5c0-0.9,0.1-1.7,0.2-2.6
		c0.4-2,1.2-4,2.4-5.9c2-3.4,4.9-6.7,8.3-9.7c5.1-4.6,11.5-8.5,17.2-11.6c5.9-3.2,11.1-5.5,14.4-6.8L-106.8,219.6L-106.8,219.6z"/>
	<circle class="st3" cx="-106.3" cy="221.3" r="3.7"/>
</g>
</svg>
