<?xml version="1.0" encoding="utf-8"?>
<!-- Generator: Adobe Illustrator 19.2.0, SVG Export Plug-In . SVG Version: 6.00 Build 0)  -->
<svg version="1.1" id="Layer_1" xmlns="http://www.w3.org/2000/svg" xmlns:xlink="http://www.w3.org/1999/xlink" x="0px" y="0px"
	 viewBox="0 0 400 150" style="enable-background:new 0 0 400 150;" xml:space="preserve">
<style type="text/css">
	.st0{opacity:0.19;fill:#5B5B5B;}
	.st1{fill:#5B5B5B;}
	.st2{fill:#FFFFFF;}
	.st3{fill:#D7D7D7;}
	.st4{fill:#AAAAAA;}
	.st5{fill:#595959;}
	.st6{fill:none;stroke:#D7D7D7;stroke-width:1.5;stroke-miterlimit:10;stroke-dasharray:2;}
	.st7{fill:#E0E0E0;}
</style>
<path class="st0" d="M12.9,122.5h376c0.7,0,1.3,0.9,1.3,2V148c0,1.1-0.6,2-1.3,2h-376c-0.7,0-1.3-0.9-1.3-2v-23.6
	C11.6,123.4,12.2,122.5,12.9,122.5z"/>
<path class="st1" d="M72.7,95.2h252.6c1,0,1.9,1.3,1.9,2.9v21.5c0,1.6-0.9,2.9-1.9,2.9H72.7c-1,0-1.9-1.3-1.9-2.9V98
	C70.8,96.5,71.7,95.2,72.7,95.2z"/>
<g>
	<path class="st2" d="M171.6,110.6h-4l-1.2,3.4h-0.7l3.5-9.8h0.7l3.5,9.8h-0.7L171.6,110.6z M171.4,110l-0.6-1.8
		c-0.4-1.2-0.7-2.2-1.1-3.4l0,0c-0.4,1.2-0.7,2.3-1.1,3.4l-0.6,1.8H171.4z"/>
	<path class="st2" d="M175.6,114.6v2.6H175v-10.4h0.6v0.8l0,0c0.7-0.6,1.6-1.1,2.4-1.1c1.9,0,2.9,1.4,2.9,3.7c0,2.4-1.4,3.8-3.1,3.8
		c-0.7,0-1.4-0.4-2.2-0.8L175.6,114.6L175.6,114.6z M177.7,113.5c1.4,0,2.5-1.3,2.5-3.2c0-1.8-0.6-3.1-2.3-3.1
		c-0.7,0-1.4,0.4-2.4,1.2v4.3C176.4,113.3,177.2,113.5,177.7,113.5z"/>
	<path class="st2" d="M183.7,114.6v2.6h-0.6v-10.4h0.6v0.8l0,0c0.7-0.6,1.6-1.1,2.4-1.1c1.9,0,2.9,1.4,2.9,3.7
		c0,2.4-1.4,3.8-3.1,3.8c-0.7,0-1.4-0.4-2.2-0.8L183.7,114.6L183.7,114.6z M185.8,113.5c1.4,0,2.5-1.3,2.5-3.2
		c0-1.8-0.6-3.1-2.3-3.1c-0.7,0-1.4,0.4-2.4,1.2v4.3C184.5,113.3,185.4,113.5,185.8,113.5z"/>
	<path class="st2" d="M191.2,103.2h0.6v9.8c0,0.4,0.1,0.5,0.4,0.5c0.1,0,0.1,0,0.2,0l0.1,0.5c-0.1,0-0.2,0.1-0.5,0.1
		c-0.6,0-0.8-0.4-0.8-1.1L191.2,103.2L191.2,103.2z"/>
	<path class="st2" d="M194.5,104.5c0-0.4,0.2-0.6,0.6-0.6c0.4,0,0.6,0.2,0.6,0.6c0,0.4-0.2,0.6-0.6,0.6
		C194.7,105,194.5,104.7,194.5,104.5z M194.7,106.8h0.6v7.2h-0.6V106.8z"/>
	<path class="st2" d="M200.8,106.5c1,0,1.7,0.5,2.2,0.8l-0.4,0.5c-0.5-0.5-1-0.7-1.7-0.7c-1.4,0-2.6,1.3-2.6,3.2s1.1,3.1,2.6,3.1
		c0.7,0,1.4-0.4,1.9-0.8l0.4,0.5c-0.6,0.6-1.3,1-2.3,1c-1.8,0-3.2-1.3-3.2-3.7C197.6,108,199.2,106.5,200.8,106.5z"/>
	<path class="st2" d="M209,109.4c0-1.1-0.2-2.3-1.7-2.3c-1,0-1.8,0.5-2.3,0.8l-0.2-0.5c0.5-0.4,1.4-1,2.6-1c1.7,0,2.3,1.2,2.3,2.8
		v4.6h-0.6l-0.1-1l0,0c-0.7,0.6-1.6,1.1-2.5,1.1c-1.1,0-2-0.6-2-1.9C204.3,110.6,205.8,109.8,209,109.4z M206.6,113.6
		c0.8,0,1.6-0.4,2.4-1.2V110c-3,0.4-4,1.1-4,2.2C205,113.1,205.8,113.6,206.6,113.6z"/>
	<path class="st2" d="M212.4,107.4h-1.1v-0.5h1.1l0.1-2h0.6v2h2v0.6h-2v4.7c0,1,0.2,1.6,1.2,1.6c0.2,0,0.6-0.1,0.8-0.2l0.1,0.5
		c-0.4,0.1-0.8,0.2-1.2,0.2c-1.4,0-1.8-0.8-1.8-2.2L212.4,107.4L212.4,107.4z"/>
	<path class="st2" d="M216.7,104.5c0-0.4,0.2-0.6,0.6-0.6c0.4,0,0.6,0.2,0.6,0.6c0,0.4-0.2,0.6-0.6,0.6
		C216.9,105,216.7,104.7,216.7,104.5z M216.9,106.8h0.6v7.2h-0.6V106.8z"/>
	<path class="st2" d="M222.9,106.5c1.7,0,3.2,1.3,3.2,3.8c0,2.4-1.4,3.7-3.2,3.7c-1.7,0-3.2-1.3-3.2-3.7S221.2,106.5,222.9,106.5z
		 M222.9,113.5c1.4,0,2.5-1.3,2.5-3.1c0-1.9-1.1-3.2-2.5-3.2c-1.4,0-2.5,1.3-2.5,3.2C220.4,112.3,221.5,113.5,222.9,113.5z"/>
	<path class="st2" d="M228.3,106.8h0.6v1.1l0,0c0.7-0.7,1.4-1.3,2.5-1.3c1.4,0,2.2,0.8,2.2,2.8v4.6H233v-4.6c0-1.6-0.5-2.3-1.7-2.3
		c-0.8,0-1.4,0.5-2.4,1.3v5.4h-0.6L228.3,106.8L228.3,106.8z"/>
</g>
<g>
	<g>
		<path class="st3" d="M126.3,59.1c-5.4,1-10.6,2.3-15.6,4.3c-1.3,0.5-1.6,2.6,0,2.9c9.5,2,19.8,2.2,29.3,0
			c5.4-1.3,14.6-4.4,14.5-11.4c0-1.2-1.2-1.8-2.3-1.3c-5,2.2-14.6,7.7-12.2,14.8c2.3,6.8,16,5.3,21.2,5c10.4-0.6,21.4-2.4,31.1-6.3
			c4.7-1.9,13.5-7.3,7-12.6c-6.3-5.1-17.8-4.6-25.2-3.3c-3.6,0.6-16.7,3.8-13,10c1.5,2.5,5.6,3.5,8.2,4.1c5.2,1.4,10.6,1.9,15.9,2.5
			c11.9,1.3,24,1.9,35.9,1.4c6-0.3,12.2-0.8,18-2.7c3-1,7.1-2.5,8.5-5.7c3.4-8.1-13-9.2-17.2-9c-2,0.1-1.9,2.8,0,3
			c6.7,0.9,13.6,1.8,20.3,0.9c2.9-0.4,8.6-1.2,10.2-4.3c3.3-6.5-12.4-9.1-15.9-9.7c-9.4-1.5-19.5-1.5-29,0.5
			c-2.8,0.6-8.9,1.5-10.5,4.5c-1.2,2.3,0.6,3.9,2.7,4.6c5.2,1.8,12.2-2.7,7.8-8.1c-2.6-3.2-7.6-4.8-11.4-5.9
			c-5.7-1.7-11.7-2.4-17.6-2.8c-12.1-0.8-24.7,0-36.3,3.6c-6.4,2-18.1,6.3-18.6,14.5c-0.6,9.5,17.8,11.2,23.8,12
			c7.3,1,14.8,1.6,22.1,0.6c3.8-0.6,9.9-1.6,11.7-5.6c0.5-1.1-0.3-2.6-1.7-2.2c-6,1.9-10,6.5-4.5,11.8c5.9,5.6,15.2,8.2,23,9.7
			c9.8,1.9,19.8,2.2,29.7,0.6c6-1,14.9-2.6,18.8-8c4.3-6.1-3.8-9-8.4-9.8c-4.4-0.8-9-1.1-13.4-1.2c-2.2-0.1-6.4-0.5-7.6,1.9
			c-2.6,5.1,11,6.8,13.6,7.2c8.1,1.2,16.4,1.2,24.6,0c4.4-0.6,19.2-2.7,18.4-9.7c-0.7-5.9-12.2-5.5-15.9-4.2c-1.8,0.6-1,3.5,0.8,2.9
			c2.9-1,6.3-0.9,9.3,0c6.2,1.9-1.8,5.2-4.2,6c-5.6,1.9-11.7,2.5-17.6,2.7c-6.7,0.2-13.5-0.2-20-1.8c-0.5-0.1-3.4-0.6-3.7-1.1
			c-1.4-1.8,1.6-1.2,2.4-1.1c3.8,0.1,7.6,0.3,11.3,0.9c3,0.5,11,1.5,7,6.6c-1.6,2-5.5,3.1-7.8,3.8c-6.9,2.2-14.2,2.9-21.4,2.8
			c-7.7-0.1-15.5-1.2-22.8-3.5c-3.1-1-6.1-2.1-8.9-3.7c-1.1-0.6-2.1-1.2-3.1-1.9c-2.2-1.1-3.3-2.9-3.4-5.4c1.3-1.5,2.9-2.4,4.8-2.8
			c-0.6-0.7-1.1-1.5-1.7-2.2c-1.5,3.3-7.7,4-10.9,4.3c-4,0.5-8.1,0.4-12.1,0.1c-7.8-0.5-16.1-1.5-23.4-4.5c-3.6-1.5-7.2-4.3-4.2-8.4
			c1.7-2.3,4.3-4,6.9-5.3c6.5-3.4,13.9-5.1,21.2-6.1c7.4-1,15-1.2,22.4-0.7c7.8,0.5,16.6,1.4,23.5,5.3c0.8,0.4,3.6,1.9,3.5,2.9
			c-0.1,1.2-3,3-4.1,2.8c-2-0.4-0.3-1.2,0.8-1.8c2.2-1.2,5.4-1.6,7.9-2c6.2-1.1,12.6-1.3,18.9-0.8c3.1,0.2,19.5,1.4,19.6,5.8
			c0.2,5.8-22.9,2.6-26.9,2.1c0,1,0,2,0,3c3.1-0.2,10.8-0.5,13.1,2.5c3.7,4.8-8,7.1-10.4,7.6c-8.9,1.8-18.2,1.5-27.2,1.3
			c-8.2-0.2-16.4-0.8-24.5-1.8c-4.3-0.5-8.8-1.1-12.9-2.4c-1.2-0.3-2.3-0.8-3.4-1.3c-1.6-0.4-1.8-1.2-0.5-2.2
			c0.9-2.1,3.5-2.7,5.5-3.3c7.6-2.5,17.4-2.9,24.9,0.3c3.4,1.4,3.5,5,0.2,6.9c-1.6,1-3.5,1.7-5.3,2.3c-3.8,1.4-7.7,2.3-11.6,3.2
			c-8.4,1.9-17.3,3-25.9,2.5c-4-0.2-12.3-1.4-8.5-7.4c2.1-3.4,6.2-5.3,9.7-6.9c-0.8-0.4-1.5-0.9-2.3-1.3c0.1,6.9-13.1,8.9-18,9.5
			c-7.3,0.9-14.8,0.6-22.1-1c0,1,0,1.9,0,2.9c5.1-2,10.3-3.3,15.6-4.3C129,61.7,128.2,58.8,126.3,59.1L126.3,59.1z"/>
	</g>
</g>
<circle class="st4" cx="91.8" cy="57.3" r="6.1"/>
<g>
	<circle class="st4" cx="73.8" cy="57.4" r="6.1"/>
	<g>
		<g>
			<path class="st4" d="M81.9,68.6c0-2-1.4-4.1-3.2-4.1h-9.3c-1.7,0-2.9,1.4-2.9,3.3v11.9h15.2L81.9,68.6L81.9,68.6z"/>
		</g>
	</g>
</g>
<g>
	<g>
		<circle class="st4" cx="348.2" cy="22.1" r="6.1"/>
		<g>
			<path class="st4" d="M355.3,33.3c0-2-1.4-4.1-3.2-4.1h-9.3c-1.7,0-2.6,2.3-2.6,4.4v10.8h14.9L355.3,33.3L355.3,33.3z"/>
		</g>
	</g>
</g>
<g>
	<path class="st5" d="M161.6,27.7l-2.4-4h-1.9v4h-0.6V19h2.5c1.7,0,2.9,0.6,2.9,2.3c0,1.4-0.9,2.2-2.2,2.4l2.4,4H161.6z M159.1,23.2
		c1.5,0,2.4-0.6,2.4-1.9c0-1.3-0.8-1.8-2.4-1.8h-1.7v3.7H159.1z"/>
	<path class="st5" d="M166.2,21.2c1.5,0,2.4,1.1,2.4,2.9c0,0.2,0,0.3,0,0.5H164c0,1.6,1,2.7,2.4,2.7c0.7,0,1.2-0.2,1.7-0.6l0.2,0.4
		c-0.5,0.3-1.1,0.6-2,0.6c-1.6,0-2.9-1.2-2.9-3.3C163.4,22.5,164.7,21.2,166.2,21.2z M168,24.2c0-1.6-0.7-2.5-1.9-2.5
		c-1.1,0-2,0.9-2.2,2.5H168z"/>
	<path class="st5" d="M169.8,26.6c0.5,0.4,1.1,0.8,2,0.8c1,0,1.5-0.6,1.5-1.3c0-0.8-0.8-1.1-1.5-1.4c-1-0.3-2-0.7-2-1.8
		c0-0.9,0.7-1.7,2-1.7c0.7,0,1.3,0.3,1.8,0.7l-0.3,0.4c-0.4-0.3-0.9-0.6-1.5-0.6c-1,0-1.4,0.6-1.4,1.2c0,0.7,0.7,1,1.5,1.3
		c1,0.4,2.1,0.7,2.1,1.9c0,1-0.8,1.8-2.1,1.8c-0.9,0-1.8-0.4-2.3-0.9L169.8,26.6z"/>
	<path class="st5" d="M175.8,21.9h-1v-0.5l1-0.1l0.1-1.8h0.5v1.8h1.8v0.5h-1.8v4.1c0,0.8,0.2,1.3,1.1,1.3c0.2,0,0.6-0.1,0.8-0.2
		l0.2,0.5c-0.4,0.1-0.8,0.2-1,0.2c-1.2,0-1.6-0.8-1.6-1.9v-3.9H175.8z"/>
	<path class="st5" d="M184.7,21.2c1.5,0,2.9,1.2,2.9,3.3s-1.3,3.3-2.9,3.3c-1.5,0-2.8-1.2-2.8-3.3S183.2,21.2,184.7,21.2z
		 M184.7,27.4c1.3,0,2.2-1.1,2.2-2.8c0-1.7-1-2.8-2.2-2.8c-1.3,0-2.2,1.2-2.2,2.8S183.4,27.4,184.7,27.4z"/>
	<path class="st5" d="M191.9,18.7c-0.3-0.1-0.5-0.2-0.8-0.2c-0.7,0-1,0.5-1,1.4v1.4h1.5v0.5h-1.5v5.8h-0.6v-5.7h-0.9v-0.5l0.9-0.1
		V20c0-1.3,0.6-1.9,1.6-1.9c0.3,0,0.6,0.1,0.9,0.2L191.9,18.7z"/>
	<path class="st5" d="M195.7,21.9h-1v-0.5l1-0.1l0.1-1.8h0.5v1.8h1.8v0.5h-1.8v4.1c0,0.8,0.2,1.3,1.1,1.3c0.2,0,0.6-0.1,0.8-0.2
		l0.2,0.5c-0.4,0.1-0.8,0.2-1,0.2c-1.2,0-1.6-0.8-1.6-1.9v-3.9H195.7z"/>
	<path class="st5" d="M199.7,18.2h0.6v2.7v1.4c0.7-0.7,1.3-1.2,2.2-1.2c1.3,0,1.9,0.8,1.9,2.4v4.1h-0.6v-4c0-1.3-0.4-2-1.5-2
		c-0.8,0-1.3,0.4-2.1,1.2v4.8h-0.6v-9.4H199.7z"/>
	<path class="st5" d="M208.9,21.2c1.5,0,2.4,1.1,2.4,2.9c0,0.2,0,0.3,0,0.5h-4.6c0,1.6,1,2.7,2.4,2.7c0.7,0,1.2-0.2,1.7-0.6l0.2,0.4
		c-0.5,0.3-1.1,0.6-2,0.6c-1.6,0-2.9-1.2-2.9-3.3C206.1,22.5,207.5,21.2,208.9,21.2z M210.8,24.2c0-1.6-0.7-2.5-1.9-2.5
		c-1.1,0-2,0.9-2.2,2.5H210.8z"/>
	<path class="st5" d="M214.8,19h0.6l1.1,5.1c0.2,1,0.4,1.9,0.6,2.8h0.1c0.2-0.9,0.4-1.9,0.7-2.8l1.4-5.1h0.6l1.3,5.1
		c0.2,1,0.5,1.9,0.7,2.8h0.1c0.2-1,0.4-1.9,0.6-2.8l1.1-5.1h0.6l-2,8.7h-0.7l-1.6-6c-0.2-0.7-0.3-1.3-0.5-2h-0.1
		c-0.1,0.7-0.3,1.3-0.5,2l-1.6,6h-0.7L214.8,19z"/>
	<path class="st5" d="M228.1,21.2c1.5,0,2.9,1.2,2.9,3.3s-1.3,3.3-2.9,3.3c-1.5,0-2.8-1.2-2.8-3.3C225.2,22.4,226.6,21.2,228.1,21.2
		z M228.1,27.4c1.3,0,2.2-1.1,2.2-2.8c0-1.7-1-2.8-2.2-2.8s-2.2,1.2-2.2,2.8C225.8,26.2,226.8,27.4,228.1,27.4z"/>
	<path class="st5" d="M232.8,21.4h0.5l0.1,1.2l0,0c0.4-0.8,1-1.3,1.8-1.3c0.2,0,0.4,0,0.6,0.1l-0.1,0.5c-0.2-0.1-0.3-0.1-0.6-0.1
		c-0.6,0-1.2,0.4-1.7,1.6v4.3h-0.6V21.4z"/>
	<path class="st5" d="M237,18.2h0.6v8.7c0,0.3,0.1,0.4,0.3,0.4c0.1,0,0.1,0,0.2,0l0.1,0.5c-0.1,0-0.2,0.1-0.4,0.1
		c-0.5,0-0.8-0.3-0.8-1L237,18.2L237,18.2z"/>
	<path class="st5" d="M242.4,21.2c0.8,0,1.3,0.3,1.9,0.8v-1.2v-2.6h0.6v9.5h-0.5l-0.1-0.8l0,0c-0.5,0.5-1.2,1-2.1,1
		c-1.6,0-2.6-1.2-2.6-3.3C239.6,22.5,240.9,21.2,242.4,21.2z M242.3,27.4c0.7,0,1.3-0.4,2-1v-3.8c-0.7-0.6-1.2-0.8-1.9-0.8
		c-1.3,0-2.2,1.2-2.2,2.8C240.3,26.2,241,27.4,242.3,27.4z"/>
</g>
<line class="st6" x1="196.3" y1="80.8" x2="196.3" y2="100.3"/>
<line class="st6" x1="263.3" y1="47.2" x2="337.5" y2="35.4"/>
<line class="st6" x1="261.4" y1="75.3" x2="296.7" y2="81.5"/>
<line class="st6" x1="131.1" y1="47.2" x2="65.5" y2="33.6"/>
<line class="st6" x1="131.1" y1="75.3" x2="104.8" y2="81.5"/>
<g>
	<path class="st4" d="M328.6,80.3h-25c-1.2,0-2.3-1.1-2.3-2.3V53c0-1.2,1.1-2.3,2.3-2.3h25c1.2,0,2.3,1.1,2.3,2.3v25
		C330.9,79.3,329.9,80.3,328.6,80.3z"/>
	<g>
		<path class="st2" d="M321,55.9h-14c-0.5,0-0.9,0.5-0.9,0.9v4.3l-2.7,2.9h2.7v2.1c0,0.5,0.5,0.9,0.9,0.9h14c0.5,0,0.9-0.5,0.9-0.9
			v-9.3C321.9,56.2,321.5,55.9,321,55.9z"/>
		<path class="st7" d="M328.8,71.8l-2.6-2.7v-4.3c0-0.5-0.5-0.9-0.9-0.9h-13.7c-0.5,0-0.9,0.5-0.9,0.9v9.3c0,0.5,0.5,0.9,0.9,0.9
			h13.7c0.5,0,0.9-0.5,0.9-0.9v-2.3C326.2,71.8,328.8,71.8,328.8,71.8z"/>
	</g>
</g>
<path class="st4" d="M60.3,45.9h-25c-1.2,0-2.3-1.1-2.3-2.3v-25c0-1.2,1.1-2.3,2.3-2.3h25c1.2,0,2.3,1.1,2.3,2.3v25
	C62.6,44.9,61.5,45.9,60.3,45.9z"/>
<rect x="37" y="21.4" class="st2" width="2.9" height="4.4"/>
<rect x="41.3" y="21.6" class="st7" width="17.2" height="4.4"/>
<rect x="37" y="29.4" class="st2" width="2.9" height="4.3"/>
<rect x="41.3" y="29.4" class="st7" width="17.2" height="4.3"/>
<rect x="37" y="37" class="st2" width="2.9" height="4.1"/>
<rect x="41.3" y="36.8" class="st7" width="17.2" height="4.1"/>
<g>
	<path class="st1" d="M126.1,131.3h-3.3v-0.6h7.3v0.6h-3.3v9.7h-0.7V131.3z"/>
	<path class="st1" d="M131.2,133.5h0.6l0.1,1.4h0c0.5-0.9,1.2-1.6,2.1-1.6c0.3,0,0.5,0,0.7,0.2l-0.2,0.6c-0.2-0.1-0.4-0.1-0.7-0.1
		c-0.7,0-1.5,0.5-2,1.9v5.1h-0.7V133.5z"/>
	<path class="st1" d="M140.2,136.3c0-1.1-0.3-2.4-1.8-2.4c-1,0-1.9,0.5-2.4,0.9l-0.3-0.5c0.5-0.4,1.6-1,2.8-1c1.8,0,2.4,1.3,2.4,2.9
		v4.8h-0.6l-0.1-1h0c-0.8,0.6-1.7,1.2-2.7,1.2c-1.2,0-2.2-0.6-2.2-2.1C135.3,137.5,136.8,136.7,140.2,136.3z M137.6,140.6
		c0.9,0,1.6-0.4,2.5-1.2v-2.5c-3.1,0.4-4.1,1.1-4.1,2.3C136,140.2,136.8,140.6,137.6,140.6z"/>
	<path class="st1" d="M146.2,133.3c0.9,0,1.5,0.3,2.3,0.9l0-1.4v-3.1h0.7V141h-0.6l-0.1-1h0c-0.6,0.6-1.4,1.2-2.4,1.2
		c-1.9,0-3.1-1.4-3.1-3.9C142.9,134.8,144.5,133.3,146.2,133.3z M146.1,140.6c0.8,0,1.6-0.4,2.4-1.2v-4.4c-0.8-0.7-1.5-1-2.2-1
		c-1.5,0-2.6,1.5-2.6,3.3C143.6,139.2,144.5,140.6,146.1,140.6z"/>
	<path class="st1" d="M151.8,131.1c0-0.4,0.3-0.6,0.6-0.6c0.3,0,0.6,0.2,0.6,0.6c0,0.4-0.3,0.6-0.6,0.6
		C152,131.7,151.8,131.4,151.8,131.1z M152,133.5h0.7v7.5H152V133.5z"/>
	<path class="st1" d="M155.8,134.1h-1.2v-0.5l1.2-0.1l0.1-2.2h0.6v2.2h2.2v0.6h-2.2v4.9c0,1,0.2,1.6,1.3,1.6c0.3,0,0.7-0.1,0.9-0.2
		l0.2,0.6c-0.4,0.2-0.9,0.3-1.2,0.3c-1.5,0-1.9-0.9-1.9-2.3V134.1z"/>
	<path class="st1" d="M160.2,131.1c0-0.4,0.3-0.6,0.6-0.6s0.6,0.2,0.6,0.6c0,0.4-0.3,0.6-0.6,0.6S160.2,131.4,160.2,131.1z
		 M160.5,133.5h0.7v7.5h-0.7V133.5z"/>
	<path class="st1" d="M166.8,133.3c1.8,0,3.4,1.4,3.4,3.9c0,2.5-1.6,3.9-3.4,3.9c-1.8,0-3.4-1.4-3.4-3.9
		C163.4,134.7,165,133.3,166.8,133.3z M166.8,140.6c1.5,0,2.7-1.3,2.7-3.3c0-2-1.1-3.3-2.7-3.3s-2.6,1.4-2.6,3.3
		C164.1,139.2,165.2,140.6,166.8,140.6z"/>
	<path class="st1" d="M172.4,133.5h0.6l0.1,1.2h0c0.8-0.8,1.5-1.3,2.6-1.3c1.5,0,2.3,0.9,2.3,2.9v4.8h-0.7v-4.7
		c0-1.6-0.5-2.3-1.7-2.3c-0.9,0-1.5,0.5-2.4,1.4v5.6h-0.7V133.5z"/>
	<path class="st1" d="M185.1,136.3c0-1.1-0.3-2.4-1.8-2.4c-1,0-1.9,0.5-2.4,0.9l-0.3-0.5c0.5-0.4,1.6-1,2.8-1c1.8,0,2.4,1.3,2.4,2.9
		v4.8h-0.6l-0.1-1h0c-0.8,0.6-1.7,1.2-2.7,1.2c-1.2,0-2.2-0.6-2.2-2.1C180.3,137.5,181.8,136.7,185.1,136.3z M182.5,140.6
		c0.9,0,1.6-0.4,2.5-1.2v-2.5c-3.1,0.4-4.1,1.1-4.1,2.3C181,140.2,181.7,140.6,182.5,140.6z"/>
	<path class="st1" d="M188.5,129.8h0.7v10.3c0,0.3,0.1,0.5,0.3,0.5c0.1,0,0.1,0,0.3,0l0.1,0.6c-0.1,0-0.3,0.1-0.5,0.1
		c-0.6,0-0.9-0.4-0.9-1.2V129.8z"/>
	<path class="st1" d="M195.3,130.7h0.7V141h-0.7V130.7z"/>
	<path class="st1" d="M198.9,133.5h0.6l0.1,1.2h0c0.8-0.8,1.5-1.3,2.6-1.3c1.5,0,2.3,0.9,2.3,2.9v4.8h-0.7v-4.7
		c0-1.6-0.5-2.3-1.7-2.3c-0.9,0-1.5,0.5-2.4,1.4v5.6h-0.7V133.5z"/>
	<path class="st1" d="M210.1,130.4c-0.3-0.2-0.6-0.2-0.9-0.2c-0.8,0-1.2,0.6-1.2,1.7v1.6h1.7v0.6H208v6.9h-0.7v-6.9h-1v-0.5l1-0.1
		v-1.7c0-1.5,0.7-2.2,1.9-2.2c0.3,0,0.7,0.1,1.1,0.2L210.1,130.4z"/>
	<path class="st1" d="M211.3,133.5h0.6l0.1,1.4h0c0.5-0.9,1.2-1.6,2.1-1.6c0.3,0,0.5,0,0.7,0.2l-0.2,0.6c-0.2-0.1-0.4-0.1-0.7-0.1
		c-0.7,0-1.5,0.5-2,1.9v5.1h-0.7V133.5z"/>
	<path class="st1" d="M220.3,136.3c0-1.1-0.3-2.4-1.8-2.4c-1,0-1.9,0.5-2.4,0.9l-0.3-0.5c0.5-0.4,1.6-1,2.8-1c1.8,0,2.4,1.3,2.4,2.9
		v4.8h-0.6l-0.1-1h0c-0.8,0.6-1.7,1.2-2.7,1.2c-1.2,0-2.2-0.6-2.2-2.1C215.5,137.5,217,136.7,220.3,136.3z M217.8,140.6
		c0.9,0,1.6-0.4,2.5-1.2v-2.5c-3.1,0.4-4.1,1.1-4.1,2.3C216.2,140.2,216.9,140.6,217.8,140.6z"/>
	<path class="st1" d="M223.1,139.6c0.6,0.5,1.3,1,2.4,1c1.2,0,1.8-0.7,1.8-1.5c0-0.9-1-1.3-1.8-1.7c-1.1-0.4-2.4-0.9-2.4-2.1
		c0-1.1,0.9-2,2.4-2c0.8,0,1.6,0.3,2.1,0.8l-0.4,0.5c-0.5-0.4-1-0.7-1.8-0.7c-1.2,0-1.7,0.7-1.7,1.4c0,0.8,0.9,1.2,1.8,1.5
		c1.2,0.4,2.4,0.8,2.4,2.3c0,1.1-0.9,2.1-2.5,2.1c-1.1,0-2.1-0.5-2.7-1L223.1,139.6z"/>
	<path class="st1" d="M230.2,134.1H229v-0.5l1.2-0.1l0.1-2.2h0.6v2.2h2.2v0.6h-2.2v4.9c0,1,0.2,1.6,1.3,1.6c0.3,0,0.7-0.1,0.9-0.2
		l0.2,0.6c-0.4,0.2-0.9,0.3-1.2,0.3c-1.5,0-1.9-0.9-1.9-2.3V134.1z"/>
	<path class="st1" d="M234.9,133.5h0.6l0.1,1.4h0c0.5-0.9,1.2-1.6,2.1-1.6c0.3,0,0.5,0,0.7,0.2l-0.2,0.6c-0.2-0.1-0.4-0.1-0.7-0.1
		c-0.7,0-1.5,0.5-2,1.9v5.1h-0.7V133.5z"/>
	<path class="st1" d="M239.7,133.5h0.7v4.7c0,1.6,0.5,2.3,1.7,2.3c0.9,0,1.5-0.5,2.4-1.5v-5.5h0.7v7.5h-0.6l-0.1-1.2h0
		c-0.7,0.9-1.5,1.4-2.5,1.4c-1.5,0-2.3-0.9-2.3-2.9V133.5z"/>
	<path class="st1" d="M250.8,133.3c1,0,1.7,0.5,2.2,0.9l-0.4,0.5c-0.5-0.5-1-0.8-1.8-0.8c-1.5,0-2.7,1.4-2.7,3.3
		c0,2,1.1,3.3,2.7,3.3c0.8,0,1.5-0.4,2-0.9l0.4,0.5c-0.6,0.6-1.4,1-2.4,1c-1.9,0-3.4-1.4-3.4-3.9C247.4,134.7,249,133.3,250.8,133.3
		z"/>
	<path class="st1" d="M255.2,134.1h-1.2v-0.5l1.2-0.1l0.1-2.2h0.6v2.2h2.2v0.6h-2.2v4.9c0,1,0.2,1.6,1.3,1.6c0.3,0,0.7-0.1,0.9-0.2
		l0.2,0.6c-0.4,0.2-0.9,0.3-1.2,0.3c-1.5,0-1.9-0.9-1.9-2.3V134.1z"/>
	<path class="st1" d="M259.7,133.5h0.7v4.7c0,1.6,0.5,2.3,1.7,2.3c0.9,0,1.5-0.5,2.4-1.5v-5.5h0.7v7.5h-0.6l-0.1-1.2h0
		c-0.7,0.9-1.5,1.4-2.5,1.4c-1.5,0-2.3-0.9-2.3-2.9V133.5z"/>
	<path class="st1" d="M268,133.5h0.6l0.1,1.4h0c0.5-0.9,1.2-1.6,2.1-1.6c0.3,0,0.5,0,0.7,0.2l-0.2,0.6c-0.2-0.1-0.4-0.1-0.7-0.1
		c-0.7,0-1.5,0.5-2,1.9v5.1H268V133.5z"/>
	<path class="st1" d="M275.5,133.3c1.8,0,2.9,1.3,2.9,3.5c0,0.2,0,0.4,0,0.6h-5.4c0,1.9,1.1,3.2,2.8,3.2c0.8,0,1.5-0.3,2-0.7
		l0.3,0.5c-0.6,0.4-1.3,0.7-2.4,0.7c-1.9,0-3.5-1.5-3.5-3.9S273.8,133.3,275.5,133.3z M277.7,136.8c0-1.9-0.9-2.9-2.2-2.9
		c-1.3,0-2.4,1.1-2.6,2.9H277.7z"/>
</g>
<g>
	<path class="st4" d="M33.3,52.3c0-1.5,0.8-2.4,2-2.4c1.1,0,2,0.9,2,2.4c0,1.5-0.8,2.4-2,2.4C34.2,54.7,33.3,53.7,33.3,52.3z
		 M36.7,52.3c0-1.1-0.5-1.8-1.4-1.8c-0.8,0-1.4,0.7-1.4,1.8c0,1.1,0.5,1.9,1.4,1.9C36.1,54.2,36.7,53.4,36.7,52.3z"/>
	<path class="st4" d="M38.3,51.6h-0.5v-0.4l0.5,0l0.1-1h0.5v1h0.9v0.5h-0.9v1.9c0,0.4,0.1,0.7,0.5,0.7c0.1,0,0.3,0,0.4-0.1l0.1,0.4
		c-0.2,0.1-0.4,0.1-0.6,0.1c-0.7,0-1-0.5-1-1.1V51.6z"/>
	<path class="st4" d="M40.6,49.6h0.6V51l0,0.7c0.3-0.3,0.7-0.6,1.1-0.6c0.7,0,1,0.5,1,1.3v2.2h-0.6v-2.1c0-0.6-0.2-0.9-0.6-0.9
		c-0.4,0-0.6,0.2-0.9,0.5v2.5h-0.6V49.6z"/>
	<path class="st4" d="M45.6,51.1c0.9,0,1.4,0.6,1.4,1.6c0,0.1,0,0.2,0,0.3h-2.3c0,0.7,0.5,1.2,1.1,1.2c0.3,0,0.6-0.1,0.8-0.3
		l0.2,0.4c-0.3,0.2-0.7,0.4-1.1,0.4c-0.9,0-1.6-0.7-1.6-1.8C44.1,51.8,44.9,51.1,45.6,51.1z M46.5,52.6c0-0.7-0.3-1.1-0.8-1.1
		c-0.5,0-0.9,0.4-1,1.1H46.5z"/>
	<path class="st4" d="M47.8,51.2h0.5l0,0.6h0c0.2-0.4,0.6-0.7,1-0.7c0.1,0,0.3,0,0.4,0.1l-0.1,0.5c-0.1,0-0.2-0.1-0.3-0.1
		c-0.3,0-0.6,0.2-0.9,0.8v2.2h-0.6V51.2z"/>
	<path class="st4" d="M53.6,52.4c0-0.4-0.1-0.9-0.7-0.9c-0.4,0-0.7,0.2-1,0.4l-0.2-0.4c0.3-0.2,0.8-0.4,1.3-0.4
		c0.8,0,1.2,0.6,1.2,1.4v2.1h-0.5l0-0.4h0c-0.3,0.3-0.7,0.5-1.1,0.5c-0.6,0-1-0.4-1-1C51.5,53,52.2,52.6,53.6,52.4z M52.7,54.2
		c0.3,0,0.6-0.2,0.9-0.5v-0.9c-1.1,0.1-1.5,0.4-1.5,0.9C52.1,54,52.3,54.2,52.7,54.2z"/>
	<path class="st4" d="M55.8,54.9V56h-0.6v-4.8h0.5l0,0.4h0c0.3-0.3,0.7-0.5,1.1-0.5c0.9,0,1.3,0.7,1.3,1.7c0,1.2-0.7,1.8-1.5,1.8
		c-0.3,0-0.6-0.1-0.9-0.4L55.8,54.9z M56.7,54.2c0.6,0,1-0.5,1-1.4c0-0.7-0.3-1.3-0.9-1.3c-0.3,0-0.6,0.2-0.9,0.5v1.8
		C56.1,54.1,56.4,54.2,56.7,54.2z"/>
	<path class="st4" d="M59.7,54.9V56h-0.6v-4.8h0.5l0,0.4h0c0.3-0.3,0.7-0.5,1.1-0.5c0.9,0,1.3,0.7,1.3,1.7c0,1.2-0.7,1.8-1.5,1.8
		c-0.3,0-0.6-0.1-0.9-0.4L59.7,54.9z M60.6,54.2c0.6,0,1-0.5,1-1.4c0-0.7-0.3-1.3-0.9-1.3c-0.3,0-0.6,0.2-0.9,0.5v1.8
		C60,54.1,60.3,54.2,60.6,54.2z"/>
</g>
<g>
	<path class="st4" d="M301.6,85.3c0-1.5,0.8-2.4,2-2.4c1.1,0,2,0.9,2,2.4c0,1.5-0.8,2.4-2,2.4C302.5,87.7,301.6,86.7,301.6,85.3z
		 M305,85.3c0-1.1-0.5-1.8-1.4-1.8c-0.8,0-1.4,0.7-1.4,1.8c0,1.1,0.5,1.9,1.4,1.9C304.4,87.2,305,86.4,305,85.3z"/>
	<path class="st4" d="M306.6,84.6h-0.5v-0.4l0.5,0l0.1-1h0.5v1h0.9v0.5h-0.9v1.9c0,0.4,0.1,0.7,0.5,0.7c0.1,0,0.3,0,0.4-0.1l0.1,0.4
		c-0.2,0.1-0.4,0.1-0.6,0.1c-0.7,0-1-0.5-1-1.1V84.6z"/>
	<path class="st4" d="M308.9,82.6h0.6V84l0,0.7c0.3-0.3,0.7-0.6,1.1-0.6c0.7,0,1,0.5,1,1.3v2.2H311v-2.1c0-0.6-0.2-0.9-0.6-0.9
		c-0.4,0-0.6,0.2-0.9,0.5v2.5h-0.6V82.6z"/>
	<path class="st4" d="M313.9,84.1c0.9,0,1.4,0.6,1.4,1.6c0,0.1,0,0.2,0,0.3H313c0,0.7,0.5,1.2,1.1,1.2c0.3,0,0.6-0.1,0.8-0.3
		l0.2,0.4c-0.3,0.2-0.7,0.3-1.1,0.3c-0.9,0-1.6-0.7-1.6-1.8S313.2,84.1,313.9,84.1z M314.8,85.6c0-0.7-0.3-1.1-0.8-1.1
		c-0.5,0-0.9,0.4-1,1.1H314.8z"/>
	<path class="st4" d="M316.1,84.2h0.5l0,0.6h0c0.2-0.4,0.6-0.7,1-0.7c0.1,0,0.3,0,0.4,0.1l-0.1,0.5c-0.1,0-0.2-0.1-0.3-0.1
		c-0.3,0-0.6,0.2-0.9,0.8v2.2h-0.6V84.2z"/>
	<path class="st4" d="M321.9,85.4c0-0.4-0.1-0.9-0.7-0.9c-0.4,0-0.7,0.2-1,0.4l-0.2-0.4c0.3-0.2,0.8-0.4,1.3-0.4
		c0.8,0,1.2,0.6,1.2,1.4v2.1H322l0-0.4h0c-0.3,0.3-0.7,0.5-1.1,0.5c-0.6,0-1-0.4-1-1C319.8,86,320.5,85.6,321.9,85.4z M321,87.2
		c0.3,0,0.6-0.2,0.9-0.5v-0.9c-1.1,0.1-1.5,0.4-1.5,0.9C320.4,87,320.6,87.2,321,87.2z"/>
	<path class="st4" d="M324.1,87.9V89h-0.6v-4.8h0.5l0,0.4h0c0.3-0.3,0.7-0.5,1.1-0.5c0.9,0,1.3,0.7,1.3,1.7c0,1.2-0.7,1.8-1.5,1.8
		c-0.3,0-0.6-0.1-0.9-0.4L324.1,87.9z M325,87.2c0.6,0,1-0.5,1-1.4c0-0.7-0.3-1.3-0.9-1.3c-0.3,0-0.6,0.2-0.9,0.5v1.8
		C324.4,87.1,324.7,87.2,325,87.2z"/>
	<path class="st4" d="M328,87.9V89h-0.6v-4.8h0.5l0,0.4h0c0.3-0.3,0.7-0.5,1.1-0.5c0.9,0,1.3,0.7,1.3,1.7c0,1.2-0.7,1.8-1.5,1.8
		c-0.3,0-0.6-0.1-0.9-0.4L328,87.9z M328.9,87.2c0.6,0,1-0.5,1-1.4c0-0.7-0.3-1.3-0.9-1.3c-0.3,0-0.6,0.2-0.9,0.5v1.8
		C328.3,87.1,328.6,87.2,328.9,87.2z"/>
</g>
<g>
	<path class="st4" d="M76,84.2h0.6v2.1c0,0.6,0.2,0.9,0.6,0.9c0.4,0,0.6-0.2,0.9-0.6v-2.4h0.6v3.4h-0.5l0-0.5h0
		c-0.3,0.4-0.7,0.6-1.1,0.6c-0.7,0-1-0.5-1-1.3V84.2z"/>
	<path class="st4" d="M79.8,86.8c0.3,0.2,0.6,0.4,1,0.4c0.4,0,0.7-0.2,0.7-0.5c0-0.3-0.4-0.5-0.8-0.6c-0.5-0.2-1-0.4-1-1
		c0-0.5,0.4-1,1.2-1c0.4,0,0.8,0.2,1.1,0.4l-0.3,0.4c-0.2-0.2-0.5-0.3-0.8-0.3c-0.4,0-0.6,0.2-0.6,0.5c0,0.3,0.4,0.4,0.8,0.6
		c0.5,0.2,1,0.4,1,1c0,0.6-0.4,1-1.2,1c-0.5,0-0.9-0.2-1.3-0.5L79.8,86.8z"/>
	<path class="st4" d="M84.1,84.1c0.9,0,1.4,0.6,1.4,1.6c0,0.1,0,0.2,0,0.3h-2.3c0,0.7,0.5,1.2,1.1,1.2c0.3,0,0.6-0.1,0.8-0.3
		l0.2,0.4c-0.3,0.2-0.7,0.3-1.1,0.3c-0.9,0-1.6-0.7-1.6-1.8S83.3,84.1,84.1,84.1z M84.9,85.6c0-0.7-0.3-1.1-0.8-1.1
		c-0.5,0-0.9,0.4-1,1.1H84.9z"/>
	<path class="st4" d="M86.3,84.2h0.5l0,0.6h0c0.2-0.4,0.6-0.7,1-0.7c0.1,0,0.3,0,0.4,0.1l-0.1,0.5c-0.1,0-0.2-0.1-0.3-0.1
		c-0.3,0-0.6,0.2-0.9,0.8v2.2h-0.6V84.2z"/>
	<path class="st4" d="M88.6,86.8c0.3,0.2,0.6,0.4,1,0.4c0.4,0,0.7-0.2,0.7-0.5c0-0.3-0.4-0.5-0.8-0.6c-0.5-0.2-1-0.4-1-1
		c0-0.5,0.4-1,1.2-1c0.4,0,0.8,0.2,1.1,0.4l-0.3,0.4c-0.2-0.2-0.5-0.3-0.8-0.3c-0.4,0-0.6,0.2-0.6,0.5c0,0.3,0.4,0.4,0.8,0.6
		c0.5,0.2,1,0.4,1,1c0,0.6-0.4,1-1.2,1c-0.5,0-0.9-0.2-1.3-0.5L88.6,86.8z"/>
</g>
<g>
	<path class="st4" d="M342.5,49.2h0.6v2.1c0,0.6,0.2,0.9,0.6,0.9c0.3,0,0.6-0.2,0.9-0.6v-2.4h0.6v3.4h-0.5l0-0.5h0
		c-0.3,0.4-0.7,0.6-1.1,0.6c-0.7,0-1-0.5-1-1.3V49.2z"/>
	<path class="st4" d="M346.3,51.8c0.3,0.2,0.6,0.4,1,0.4c0.4,0,0.7-0.2,0.7-0.5c0-0.4-0.4-0.5-0.8-0.6c-0.5-0.2-1-0.4-1-1
		c0-0.5,0.4-1,1.2-1c0.4,0,0.8,0.2,1.1,0.4l-0.3,0.4c-0.2-0.2-0.5-0.3-0.8-0.3c-0.4,0-0.6,0.2-0.6,0.5c0,0.3,0.4,0.4,0.8,0.6
		c0.5,0.2,1,0.4,1,1c0,0.6-0.4,1-1.2,1c-0.5,0-0.9-0.2-1.3-0.5L346.3,51.8z"/>
	<path class="st4" d="M350.6,49.1c0.9,0,1.4,0.6,1.4,1.6c0,0.1,0,0.2,0,0.3h-2.3c0,0.7,0.5,1.2,1.1,1.2c0.3,0,0.6-0.1,0.8-0.3
		l0.2,0.4c-0.3,0.2-0.7,0.4-1.1,0.4c-0.9,0-1.6-0.7-1.6-1.8C349.1,49.8,349.8,49.1,350.6,49.1z M351.4,50.6c0-0.7-0.3-1.1-0.8-1.1
		c-0.5,0-0.9,0.4-1,1.1H351.4z"/>
	<path class="st4" d="M352.8,49.2h0.5l0,0.6h0c0.2-0.4,0.6-0.7,1-0.7c0.1,0,0.3,0,0.4,0.1l-0.1,0.5c-0.1,0-0.2-0.1-0.3-0.1
		c-0.3,0-0.6,0.2-0.9,0.8v2.2h-0.6V49.2z"/>
</g>
<g>
	<g>
		<path class="st4" d="M99.5,68.6c0-2-1.4-4.1-3.2-4.1H87c-1.7,0-2.9,1.4-2.9,3.3v11.9h15.2L99.5,68.6L99.5,68.6z"/>
	</g>
</g>
</svg>
