<?xml version="1.0" encoding="utf-8"?>
<!-- Generator: Adobe Illustrator 19.1.1, SVG Export Plug-In . SVG Version: 6.00 Build 0)  -->
<svg version="1.1" id="Layer_1" xmlns="http://www.w3.org/2000/svg" xmlns:xlink="http://www.w3.org/1999/xlink" x="0px" y="0px"
	 viewBox="-287 184 385 194" style="enable-background:new -287 184 385 194;" xml:space="preserve">
<style type="text/css">
	.st0{fill:#4C4277;}
	.st1{fill:#5A69A0;}
	.st2{fill:#8787C6;}
	.st3{fill:#AEA3CE;}
	.st4{fill:#FFFFFF;}
	.st5{fill:#D4D4F4;}
</style>
<circle class="st0" cx="-208.3" cy="235.1" r="41"/>
<circle class="st1" cx="-90.4" cy="326.9" r="41"/>
<circle class="st2" cx="19.3" cy="235.1" r="41"/>
<polyline class="st2" points="-180.8,225.3 -35.8,225.3 -35.8,222 -180.8,222 "/>
<circle class="st3" cx="-180.4" cy="223.8" r="3.7"/>
<polygon class="st2" points="-38.2,232 -23.7,223.8 -38.2,215.3 "/>
<polyline class="st2" points="-187.8,258.3 -139,296.9 -136.9,294.4 -185.7,255.8 "/>
<circle class="st3" cx="-186.6" cy="257.3" r="3.7"/>
<polygon class="st2" points="-145,300.8 -128.5,303.1 -134.7,287.6 "/>
<path class="st4" d="M-198.5,235.4c0.2-1.6,1.1-2.5,2.3-2.5s2,0.9,2,2.5H-198.5z M-199.8,235.9c0,2.6,1.7,4.1,3.8,4.1
	c1.1,0,2-0.4,2.6-0.8l-0.5-0.9c-0.6,0.4-1.2,0.7-2,0.7c-1.5,0-2.5-1.1-2.7-2.8h5.4c0-0.2,0.1-0.5,0.1-0.7c0-2.3-1.1-3.7-3.2-3.7
	C-198.1,231.8-199.8,233.3-199.8,235.9z M-206.9,235.9c0,2.6,1.6,4.1,3.7,4.1c1,0,1.9-0.4,2.6-1.1l-0.6-0.9
	c-0.5,0.4-1.1,0.8-1.9,0.8c-1.5,0-2.4-1.2-2.4-3c0-1.9,1.1-3.1,2.5-3.1c0.7,0,1.1,0.3,1.6,0.7l0.7-0.9c-0.6-0.5-1.3-1-2.4-1
	C-205.2,231.8-206.9,233.3-206.9,235.9z M-210.4,239.9h1.4v-8h-1.4V239.9z M-209.7,230.3c0.5,0,0.9-0.3,0.9-0.9
	c0-0.5-0.4-0.9-0.9-0.9s-0.9,0.3-0.9,0.9C-210.6,229.9-210.2,230.3-209.7,230.3z M-214.5,238.3c0,1.1,0.4,1.8,1.5,1.8
	c0.3,0,0.6-0.1,0.7-0.2l-0.2-1c-0.2,0-0.2,0-0.3,0c-0.2,0-0.4-0.2-0.4-0.6v-10.2h-1.3V238.3z M-217.3,239.9h1.5l-3.7-10.7h-1.5
	l-3.7,10.7h1.4l1.1-3.3h3.9L-217.3,239.9z M-221.9,235.5l0.5-1.6c0.4-1.2,0.7-2.4,1.1-3.6h0.1c0.3,1.2,0.7,2.4,1.1,3.6l0.5,1.6
	H-221.9z"/>
<path class="st4" d="M-75,331.4c0,1.1,0.4,1.8,1.5,1.8c0.3,0,0.6-0.1,0.7-0.2l-0.2-1c-0.2,0-0.2,0-0.3,0c-0.2,0-0.4-0.2-0.4-0.6
	v-10.2h-1.4L-75,331.4L-75,331.4z M-83.1,329c0-1.9,0.9-3.1,2.3-3.1s2.3,1.2,2.3,3.1c0,1.8-0.9,3-2.3,3
	C-82.1,332.1-83.1,330.9-83.1,329z M-84.5,329c0,2.6,1.7,4.1,3.7,4.1s3.7-1.5,3.7-4.1c0-2.7-1.7-4.2-3.7-4.2
	C-82.7,324.9-84.5,326.4-84.5,329z M-89.4,333h1.4v-5.1c0.6-1.3,1.4-1.9,2-1.9c0.3,0,0.5,0.1,0.7,0.2l0.2-1.1
	c-0.2-0.1-0.5-0.2-0.8-0.2c-0.9,0-1.7,0.7-2.3,1.6h-0.1l-0.1-1.5h-1.1L-89.4,333L-89.4,333z M-96.9,330.9c0-1,0.9-1.7,3.6-2v2.2
	c-0.7,0.7-1.4,1.1-2.2,1.1C-96.2,332.1-96.9,331.9-96.9,330.9z M-98.2,331c0,1.5,1,2.3,2.4,2.3c1,0,1.9-0.5,2.6-1.1l0,0l0.1,1h1.1
	v-4.9c0-2-0.8-3.3-2.8-3.3c-1.3,0-2.4,0.6-3.1,1.1l0.6,0.9c0.7-0.4,1.5-0.8,2.4-0.8c1.3,0,1.6,1,1.6,2
	C-96.7,328.4-98.2,329.3-98.2,331z M-107.6,327.8c0,3.5,2,5.5,4.7,5.5c1.4,0,2.4-0.6,3.3-1.5l-0.7-0.8c-0.7,0.7-1.5,1.2-2.4,1.2
	c-2,0-3.3-1.7-3.3-4.4c0-2.7,1.4-4.3,3.4-4.3c0.9,0,1.5,0.4,2.1,1l0.7-0.9c-0.7-0.7-1.6-1.3-2.9-1.3
	C-105.6,322.1-107.6,324.3-107.6,327.8z"/>
<path class="st4" d="M25.7,238.1V234c0.7-0.7,1.5-1.1,2.1-1.1c1.5,0,2.1,1.1,2.1,2.9c0,2-1,3.2-2.3,3.2
	C27.2,239,26.5,238.8,25.7,238.1z M24.4,239.9h1.1l0.1-0.8h0.1c0.7,0.7,1.5,1,2.3,1c1.8,0,3.4-1.6,3.4-4.3c0-2.4-1.1-4.1-3.2-4.1
	c-0.9,0-1.8,0.5-2.5,1.1v-1.5v-3.2h-1.4v11.7h0.1V239.9z M16.4,235.9c0-1.9,0.9-3.1,2.3-3.1s2.3,1.2,2.3,3.1c0,1.8-0.9,3-2.3,3
	C17.3,239,16.4,237.8,16.4,235.9z M15,235.9c0,2.6,1.7,4.1,3.7,4.1s3.7-1.5,3.7-4.1c0-2.7-1.7-4.2-3.7-4.2
	C16.7,231.8,15,233.3,15,235.9z M7.5,238.8v-4.1h1.9c1.9,0,2.9,0.6,2.9,2c0,1.5-1.1,2.1-2.9,2.1H7.5z M7.5,233.8v-3.5h1.6
	c1.6,0,2.5,0.5,2.5,1.6c0,1.2-0.7,1.9-2.6,1.9H7.5z M6.2,239.9h3.4c2.4,0,4.1-1.1,4.1-3.2c0-1.5-0.9-2.4-2.5-2.6l0,0
	c1.3-0.3,1.9-1.3,1.9-2.4c0-1.9-1.5-2.6-3.7-2.6H6.2V239.9z"/>
<polygon class="st5" points="-55.9,228.6 -75.6,206.4 -75.6,219 -114.1,219 -114.1,242.8 -75.6,242.8 -75.6,254.1 "/>
<polygon class="st2" points="-55.9,228.6 -55.4,228.1 -76.2,204.6 -76.2,218.3 -114.8,218.3 -114.8,243.4 -76.2,243.4 -76.2,256.1 
	-55,228.5 -55.4,228.1 -55.9,228.6 -56.5,228.1 -74.8,252 -74.8,242 -113.4,242 -113.4,219.8 -74.8,219.8 -74.8,208.3 -56.5,229 
	-55.9,228.6 -56.5,228.1 "/>
<path class="st2" d="M-107.9,234.8c-5,2.1-15,6.6-24.3,12.8c-4.6,3.1-9.1,6.7-12.7,10.6c-1.8,2-3.3,4.1-4.6,6.3
	c-1.2,2.2-2.2,4.5-2.7,6.8c-0.2,1.1-0.3,2.2-0.3,3.3c0,3.7,1.2,7.2,3,10.3c2.7,4.7,6.5,8.7,9.8,11.5s5.8,4.6,5.9,4.6l1.9-2.8l0,0
	c-0.2-0.2-4.6-3.1-8.9-7.6c-2.1-2.2-4.2-4.8-5.8-7.6c-1.5-2.8-2.5-5.7-2.5-8.5c0-0.9,0.1-1.7,0.2-2.6c0.4-2,1.2-4,2.4-5.9
	c2-3.4,4.9-6.7,8.3-9.7c5.1-4.6,11.5-8.5,17.2-11.6c5.9-3.2,11.1-5.5,14.4-6.8L-107.9,234.8L-107.9,234.8z"/>
<circle class="st2" cx="-107.4" cy="236.4" r="3.7"/>
</svg>
