<?xml version="1.0" encoding="utf-8"?>
<!-- Generator: Adobe Illustrator 19.1.1, SVG Export Plug-In . SVG Version: 6.00 Build 0)  -->
<svg version="1.1" id="Layer_1" xmlns="http://www.w3.org/2000/svg" xmlns:xlink="http://www.w3.org/1999/xlink" x="0px" y="0px"
	 viewBox="-382.7 210.2 106.2 210" style="enable-background:new -382.7 210.2 106.2 210;" xml:space="preserve">
<style type="text/css">
	.st0{fill:#FFFFFF;}
	.st1{fill:#C68BBB;stroke:#FFFFFF;stroke-miterlimit:10;}
</style>
<g>
	<path class="st0" d="M-378.1,322.3c1,1.2,2.5,1.9,4.2,1.9c2.1,0,3.5-1.2,3.5-2.8c0-1.8-1.2-2.3-2.5-3l-2.1-1
		c-1.2-0.5-2.8-1.4-2.8-3.5c0-2,1.8-3.5,4.1-3.5c1.7,0,3.1,0.8,3.9,1.7l-0.6,0.7c-0.8-0.9-1.9-1.5-3.4-1.5c-1.9,0-3.1,1-3.1,2.5
		c0,1.6,1.4,2.3,2.4,2.7l2.1,0.9c1.6,0.7,3,1.6,3,3.7c0,2.2-1.8,3.8-4.5,3.8c-2.1,0-3.6-0.9-4.8-2.1L-378.1,322.3z"/>
	<path class="st0" d="M-360.6,318.4c0-1.6-0.4-3.3-2.4-3.3c-1.4,0-2.6,0.7-3.3,1.2l-0.4-0.7c0.7-0.5,2.1-1.3,3.8-1.3
		c2.4,0,3.3,1.8,3.3,4v6.6h-0.8l-0.1-1.3h0c-1,0.8-2.3,1.6-3.6,1.6c-1.6,0-3-0.9-3-2.8C-367.2,320-365.1,318.9-360.6,318.4z
		 M-364.1,324.3c1.2,0,2.2-0.6,3.5-1.7v-3.5c-4.2,0.5-5.7,1.5-5.7,3.1C-366.2,323.7-365.2,324.3-364.1,324.3z"/>
	<path class="st0" d="M-355.9,314.6h0.8l0.1,1.6h0.1c1-1,2.1-1.8,3.5-1.8c2.1,0,3.1,1.3,3.1,3.9v6.6h-0.9v-6.5
		c0-2.2-0.7-3.2-2.4-3.2c-1.2,0-2.1,0.6-3.4,1.9v7.8h-0.9V314.6z"/>
	<path class="st0" d="M-340.8,314.3c1.2,0,2.1,0.5,3.1,1.3l0-1.9v-4.2h0.9v15.4h-0.8l-0.1-1.3h-0.1c-0.8,0.8-2,1.6-3.3,1.6
		c-2.6,0-4.3-1.9-4.3-5.4C-345.4,316.4-343.3,314.3-340.8,314.3z M-341,324.3c1.1,0,2.1-0.6,3.2-1.7v-6.1c-1.1-1-2-1.3-3-1.3
		c-2.1,0-3.6,2-3.6,4.6C-344.4,322.5-343.2,324.3-341,324.3z"/>
	<path class="st0" d="M-333.6,323c0.9,0.7,1.8,1.3,3.3,1.3c1.6,0,2.4-0.9,2.4-2c0-1.3-1.3-1.8-2.5-2.3c-1.6-0.6-3.3-1.2-3.3-2.9
		c0-1.5,1.2-2.7,3.3-2.7c1.1,0,2.2,0.5,2.9,1.1l-0.5,0.7c-0.7-0.5-1.4-0.9-2.5-0.9c-1.6,0-2.3,0.9-2.3,1.9c0,1.1,1.2,1.6,2.4,2.1
		c1.6,0.6,3.4,1.1,3.4,3.1c0,1.5-1.2,2.9-3.5,2.9c-1.5,0-2.8-0.6-3.8-1.4L-333.6,323z"/>
	<path class="st0" d="M-324,315.4h-1.6v-0.7l1.6-0.1l0.1-3h0.8v3h3v0.8h-3v6.7c0,1.3,0.3,2.2,1.7,2.2c0.4,0,0.9-0.2,1.3-0.3l0.3,0.8
		c-0.6,0.2-1.2,0.4-1.7,0.4c-2,0-2.6-1.3-2.6-3.1V315.4z"/>
	<path class="st0" d="M-314,314.3c2.5,0,4.6,2,4.6,5.4c0,3.4-2.1,5.4-4.6,5.4c-2.5,0-4.6-2-4.6-5.4
		C-318.6,316.3-316.5,314.3-314,314.3z M-314,324.3c2.1,0,3.6-1.8,3.6-4.5c0-2.7-1.6-4.6-3.6-4.6s-3.6,1.9-3.6,4.6
		C-317.6,322.5-316.1,324.3-314,324.3z"/>
	<path class="st0" d="M-306.3,314.6h0.8l0.1,1.9h0.1c0.7-1.3,1.7-2.2,2.9-2.2c0.4,0,0.7,0,1,0.2l-0.2,0.9c-0.3-0.1-0.5-0.2-0.9-0.2
		c-0.9,0-2,0.7-2.8,2.6v7h-0.9V314.6z"/>
	<path class="st0" d="M-299.5,314.6h0.8l0.1,1.6h0.1c0.9-1,2.1-1.8,3.2-1.8c1.6,0,2.5,0.8,2.8,2.1c1.2-1.3,2.3-2.1,3.5-2.1
		c2.1,0,3.1,1.3,3.1,3.9v6.6h-1v-6.5c0-2.2-0.7-3.2-2.3-3.2c-1,0-1.9,0.6-3.1,1.9v7.8h-0.9v-6.5c0-2.2-0.7-3.2-2.3-3.2
		c-0.9,0-2,0.6-3.1,1.9v7.8h-0.9V314.6z"/>
</g>
<path class="st1" d="M-327.7,288.6c-0.1-1.5-0.6-3.1-1.7-4.2c-1.2-1.1-2.6-1.7-4.2-1.7c-0.6,0-1.2,0-1.7,0c-0.5,0.1-1.1,0.1-1.6,0.2
	c-0.5,0.2-1,0.4-1.4,0.6c-0.4,0.3-0.8,0.6-1.2,0.9c-0.6,0.5-1,1.2-1.2,1.9c-0.3,0.5-0.4,1-0.4,1.5c-0.1,0.5-0.1,1.1,0,1.6
	c0,0.5,0.1,1,0.4,1.5c0.2,0.7,0.7,1.4,1.2,1.9c0.5,0.4,0.9,0.8,1.4,1.2c1.2,1.1,2.6,1.7,4.2,1.7c0.8,0,1.6-0.1,2.3-0.5
	c0.7-0.2,1.4-0.7,1.9-1.2c0.8-0.9,1.5-2,1.7-3.3C-327.8,290-327.7,289.3-327.7,288.6z"/>
</svg>
