<?xml version="1.0" encoding="utf-8"?>
<!-- Generator: Adobe Illustrator 19.1.1, SVG Export Plug-In . SVG Version: 6.00 Build 0)  -->
<svg version="1.1" id="Layer_1" xmlns="http://www.w3.org/2000/svg" xmlns:xlink="http://www.w3.org/1999/xlink" x="0px" y="0px"
	 viewBox="-382.7 210.2 439.3 210" style="enable-background:new -382.7 210.2 439.3 210;" xml:space="preserve">
<style type="text/css">
	.st0{fill:#AA8CC4;}
</style>
<g>
	<path class="st0" d="M-234.8,259.4c0.9,0.8,2.2,1.4,3.8,1.4c2.2,0,3.5-1.3,3.5-2.9c0-2-1.8-2.5-3.4-3.1c-1.2-0.5-2.4-0.9-2.4-2.1
		c0-0.9,0.7-1.9,2.3-1.9c1,0,1.8,0.4,2.5,0.9l0.5-0.7c-0.7-0.6-1.8-1.1-2.9-1.1c-2.1,0-3.3,1.2-3.3,2.7c0,1.8,1.7,2.4,3.3,2.9
		c1.2,0.4,2.5,1,2.5,2.3c0,1.1-0.8,2-2.4,2c-1.5,0-2.4-0.6-3.3-1.3L-234.8,259.4z M-248.5,260.5h0.9v-9.3c0-1.2-0.1-2.6-0.1-3.8h0.1
		l1.1,3.1l3,8.4h0.9l3-8.4l1.1-3.1h0.1c-0.1,1.2-0.1,2.7-0.1,3.8v9.3h1v-14.1h-1.4l-2.9,8.3l-1.1,3.1h-0.1l-1.1-3.1l-3-8.3h-1.4
		V260.5z M-256.2,260.5h1.1l4.6-14.1h-1l-2.6,8.2c-0.5,1.7-0.9,3-1.5,4.7h-0.1c-0.6-1.7-0.9-3-1.5-4.7l-2.6-8.2h-1L-256.2,260.5z"/>
	<path class="st0" d="M-134.2,305.9h0.9v-7c0.8-1.9,1.9-2.6,2.8-2.6c0.4,0,0.6,0,0.9,0.2l0.2-0.9c-0.3-0.2-0.6-0.2-1-0.2
		c-1.2,0-2.2,0.9-2.9,2.2h-0.1l-0.1-1.9h-0.8V305.9z M-144.4,300.2c0.2-2.5,1.8-4,3.5-4c1.8,0,3,1.3,3,4H-144.4z M-145.4,300.8
		c0,3.4,2.1,5.4,4.8,5.4c1.5,0,2.4-0.5,3.2-1l-0.4-0.7c-0.8,0.6-1.7,0.9-2.8,0.9c-2.3,0-3.8-1.9-3.9-4.5h7.4c0-0.3,0-0.5,0-0.8
		c0-3-1.5-4.8-3.9-4.8C-143.2,295.4-145.4,297.4-145.4,300.8z M-154.2,305.9h0.9v-2.8l2.3-2.7l3.4,5.5h1l-3.9-6.2l3.3-4.1h-1.1
		l-5.1,6.2h0v-11.4h-0.9V305.9z M-164.7,300.8c0,3.4,2,5.4,4.7,5.4c1.3,0,2.4-0.6,3.3-1.4l-0.5-0.6c-0.7,0.6-1.6,1.2-2.7,1.2
		c-2.2,0-3.7-1.8-3.7-4.5c0-2.7,1.6-4.6,3.7-4.6c1,0,1.8,0.5,2.4,1.1l0.6-0.7c-0.7-0.6-1.6-1.3-3-1.3
		C-162.5,295.4-164.7,297.3-164.7,300.8z M-175.2,300.8c0-2.7,1.5-4.6,3.6-4.6s3.6,1.9,3.6,4.6c0,2.7-1.6,4.5-3.6,4.5
		S-175.2,303.5-175.2,300.8z M-176.2,300.8c0,3.4,2.1,5.4,4.6,5.4c2.5,0,4.6-2,4.6-5.4c0-3.4-2.1-5.4-4.6-5.4
		C-174,295.4-176.2,297.3-176.2,300.8z M-187.1,305.1v-12.4h2.2c3.8,0,5.5,2.5,5.5,6.2c0,3.7-1.7,6.3-5.5,6.3H-187.1z M-188.1,305.9
		h3.3c4.3,0,6.4-2.8,6.4-7.1c0-4.3-2.1-7-6.4-7h-3.3V305.9z"/>
	<path class="st0" d="M-56.7,332.3c0.9,0.8,2.2,1.4,3.8,1.4c2.2,0,3.5-1.3,3.5-2.9c0-2-1.8-2.5-3.4-3.1c-1.2-0.5-2.4-0.9-2.4-2.1
		c0-0.9,0.7-1.9,2.3-1.9c1,0,1.8,0.4,2.5,0.9l0.5-0.7c-0.7-0.6-1.8-1.1-2.9-1.1c-2.1,0-3.3,1.2-3.3,2.7c0,1.8,1.7,2.4,3.3,2.9
		c1.2,0.4,2.5,1,2.5,2.3c0,1.1-0.8,2-2.4,2c-1.5,0-2.4-0.6-3.3-1.3L-56.7,332.3z M-66.7,328.3c0-2.7,1.5-4.6,3.6-4.6
		c2.1,0,3.6,1.9,3.6,4.6c0,2.7-1.6,4.5-3.6,4.5C-65.2,332.9-66.7,331-66.7,328.3z M-67.7,328.3c0,3.4,2.1,5.4,4.6,5.4
		c2.5,0,4.6-2,4.6-5.4c0-3.4-2.1-5.4-4.6-5.4C-65.6,322.9-67.7,324.9-67.7,328.3z M-76.8,332.3c0.9,0.8,2.2,1.4,3.8,1.4
		c2.2,0,3.5-1.3,3.5-2.9c0-2-1.8-2.5-3.4-3.1c-1.2-0.5-2.4-0.9-2.4-2.1c0-0.9,0.7-1.9,2.3-1.9c1,0,1.8,0.4,2.5,0.9l0.5-0.7
		c-0.8-0.6-1.8-1.1-2.9-1.1c-2.1,0-3.3,1.2-3.3,2.7c0,1.8,1.7,2.4,3.3,2.9c1.2,0.4,2.5,1,2.5,2.3c0,1.1-0.8,2-2.4,2
		c-1.5,0-2.4-0.6-3.3-1.3L-76.8,332.3z M-85.8,327.7c0.2-2.5,1.8-4,3.5-4c1.8,0,3,1.3,3,4H-85.8z M-86.8,328.3
		c0,3.4,2.1,5.4,4.8,5.4c1.5,0,2.4-0.5,3.2-1l-0.4-0.7c-0.8,0.6-1.7,0.9-2.8,0.9c-2.3,0-3.8-1.9-3.9-4.5h7.4c0-0.3,0-0.5,0-0.8
		c0-3-1.5-4.8-3.9-4.8C-84.6,322.9-86.8,325-86.8,328.3z M-100.8,333.5h0.9v-9.3c0-1.2-0.1-2.6-0.1-3.8h0.1l1.1,3.1l3,8.4h0.9l3-8.4
		l1.1-3.1h0.1c-0.1,1.2-0.1,2.7-0.1,3.8v9.3h1v-14.1h-1.4l-2.9,8.3l-1.1,3.1h-0.1l-1.1-3.1l-3-8.3h-1.4V333.5z"/>
	<path class="st0" d="M-41.1,262.7c0,1.8,0.6,3.1,2.6,3.1c0.4,0,1.1-0.2,1.7-0.4l-0.3-0.8c-0.4,0.2-0.9,0.3-1.3,0.3
		c-1.4,0-1.7-0.9-1.7-2.2v-6.7h3v-0.8h-3v-3h-0.8l-0.1,3l-1.6,0.1v0.7h1.6V262.7z M-51,265.5h0.9v-2.8l2.3-2.7l3.4,5.5h1l-3.9-6.2
		l3.3-4.1H-45l-5.1,6.2h0v-11.4H-51V265.5z M-53.9,265.5l-3.9-6.6c2.2-0.3,3.6-1.6,3.6-3.8c0-2.7-1.8-3.7-4.6-3.7h-4v14.1h1V259h3
		l3.8,6.5H-53.9z M-61.8,258.2v-6h2.8c2.5,0,3.9,0.8,3.9,2.9c0,2.1-1.4,3.1-3.9,3.1H-61.8z"/>
	<path class="st0" d="M-285.6,304h1l1.8-2.8c0.4-0.6,0.8-1.3,1.2-1.9h0.1c0.4,0.6,0.8,1.2,1.2,1.9l1.8,2.8h1l-3.5-5.3l3.2-5h-1
		l-1.6,2.6c-0.4,0.6-0.7,1.1-1,1.7h-0.1c-0.4-0.6-0.8-1.1-1.1-1.7l-1.7-2.6h-1l3.2,4.9L-285.6,304z M-295.4,300.3
		c0,2.7,1,3.9,3.1,3.9c1.4,0,2.5-0.8,3.5-2h0l0.1,1.7h0.8v-10.3h-0.9v7.6c-1.2,1.5-2.1,2.1-3.3,2.1c-1.6,0-2.3-1-2.3-3.2v-6.5h-0.9
		V300.3z M-306.7,304h0.9v-7.8c1.3-1.3,2.1-1.9,3.4-1.9c1.7,0,2.4,1,2.4,3.2v6.5h0.9v-6.6c0-2.7-1-3.9-3.1-3.9
		c-1.4,0-2.5,0.8-3.5,1.8h-0.1l-0.1-1.6h-0.8V304z M-311.6,304h0.9v-10.3h-0.9V304z M-311.1,291.2c0.5,0,0.9-0.3,0.9-0.8
		c0-0.5-0.4-0.9-0.9-0.9c-0.5,0-0.9,0.3-0.9,0.9C-311.9,290.9-311.5,291.2-311.1,291.2z M-321.4,304h7.5v-0.9h-6.5v-13.3h-1V304z
		 M-337.1,304h0.9v-7.8c1.3-1.3,2.1-1.9,3.4-1.9c1.7,0,2.4,1,2.4,3.2v6.5h0.9v-6.6c0-2.7-1-3.9-3.1-3.9c-1.4,0-2.5,0.8-3.5,1.8h-0.1
		l-0.1-1.6h-0.8V304z M-342,304h0.9v-10.3h-0.9V304z M-341.5,291.2c0.5,0,0.9-0.3,0.9-0.8c0-0.5-0.4-0.9-0.9-0.9
		c-0.5,0-0.9,0.3-0.9,0.9C-342.4,290.9-342,291.2-341.5,291.2z M-352.3,301.4c0-1.6,1.4-2.6,5.7-3.1v3.5c-1.3,1.1-2.3,1.7-3.5,1.7
		C-351.3,303.4-352.3,302.8-352.3,301.4z M-353.3,301.4c0,1.9,1.4,2.8,3,2.8c1.3,0,2.6-0.7,3.6-1.6h0l0.1,1.3h0.8v-6.6
		c0-2.2-0.8-4-3.3-4c-1.7,0-3.1,0.8-3.8,1.3l0.4,0.7c0.7-0.5,1.9-1.2,3.3-1.2c2,0,2.5,1.7,2.4,3.3
		C-351.2,298-353.3,299.1-353.3,301.4z M-357.8,302.6c0,1.1,0.4,1.6,1.3,1.6c0.3,0,0.5,0,0.7-0.1l-0.2-0.8c-0.2,0-0.3,0-0.4,0
		c-0.3,0-0.5-0.2-0.5-0.7v-14.2h-0.9V302.6z M-368.5,297.1v-6.4h2.6c2.9,0,4.3,0.7,4.3,3.1c0,2.3-1.4,3.3-4.3,3.3H-368.5z
		 M-369.5,304h1v-6.1h2.9c3.1,0,5-1.3,5-4.1c0-2.9-1.9-3.9-5-3.9h-3.9V304z"/>
	<path class="st0" d="M36.1,402.9c0.9,0.8,2.2,1.4,3.8,1.4c2.2,0,3.5-1.3,3.5-2.9c0-2-1.8-2.5-3.4-3.1c-1.2-0.5-2.4-0.9-2.4-2.1
		c0-0.9,0.7-1.9,2.3-1.9c1,0,1.8,0.4,2.5,0.9l0.5-0.7c-0.8-0.6-1.8-1.1-2.9-1.1c-2.1,0-3.3,1.2-3.3,2.7c0,1.8,1.7,2.4,3.3,2.9
		c1.2,0.4,2.5,1,2.5,2.3c0,1.1-0.8,2-2.4,2c-1.5,0-2.4-0.6-3.3-1.3L36.1,402.9z M27.2,398.3c0.2-2.5,1.8-4,3.5-4c1.8,0,3,1.3,3,4
		H27.2z M26.2,398.9c0,3.4,2.1,5.4,4.8,5.4c1.5,0,2.4-0.5,3.2-1l-0.4-0.7c-0.8,0.6-1.7,0.9-2.8,0.9c-2.3,0-3.8-1.9-3.9-4.5h7.4
		c0-0.3,0-0.5,0-0.8c0-3-1.5-4.8-3.9-4.8C28.4,393.5,26.2,395.6,26.2,398.9z M20.8,401.2c0,1.8,0.6,3.1,2.6,3.1
		c0.4,0,1.1-0.2,1.7-0.4l-0.3-0.8c-0.4,0.2-0.9,0.3-1.3,0.3c-1.4,0-1.7-0.9-1.7-2.2v-6.7h3v-0.8h-3v-3H21l-0.1,3l-1.6,0.1v0.7h1.6
		V401.2z M10.6,398.3c0.2-2.5,1.8-4,3.5-4c1.8,0,3,1.3,3,4H10.6z M9.6,398.9c0,3.4,2.1,5.4,4.8,5.4c1.5,0,2.4-0.5,3.2-1l-0.4-0.7
		c-0.8,0.6-1.7,0.9-2.8,0.9c-2.3,0-3.8-1.9-3.9-4.5H18c0-0.3,0-0.5,0-0.8c0-3-1.5-4.8-3.9-4.8C11.8,393.5,9.6,395.6,9.6,398.9z
		 M-0.9,404.1H0v-7.8c1.3-1.3,2.1-1.9,3.4-1.9c1.7,0,2.4,1,2.4,3.2v6.5h0.9v-6.6c0-2.7-1-3.9-3.1-3.9c-1.4,0-2.5,0.8-3.5,1.8H0
		l-0.1-1.6h-0.8V404.1z M-7.7,404.1h0.9v-7c0.8-1.9,1.9-2.6,2.8-2.6c0.4,0,0.6,0,0.9,0.2l0.2-0.9c-0.3-0.2-0.6-0.2-1-0.2
		c-1.2,0-2.2,0.9-2.9,2.2h-0.1l-0.1-1.9h-0.8V404.1z M-17.9,398.3c0.2-2.5,1.8-4,3.5-4c1.8,0,3,1.3,3,4H-17.9z M-18.9,398.9
		c0,3.4,2.1,5.4,4.8,5.4c1.5,0,2.4-0.5,3.2-1l-0.4-0.7c-0.8,0.6-1.7,0.9-2.8,0.9c-2.3,0-3.8-1.9-3.9-4.5h7.4c0-0.3,0-0.5,0-0.8
		c0-3-1.5-4.8-3.9-4.8C-16.7,393.5-18.9,395.6-18.9,398.9z M-28.8,402.2v-6.1c1.2-1.1,2.3-1.7,3.4-1.7c2.4,0,3.3,1.9,3.3,4.4
		c0,2.8-1.5,4.7-3.6,4.7C-26.5,403.5-27.6,403.1-28.8,402.2z M-29.7,404.1h0.8l0.1-1h0c1,0.7,2.1,1.2,3.1,1.2c2.4,0,4.5-2.1,4.5-5.5
		c0-3.2-1.4-5.2-4.1-5.2c-1.3,0-2.5,0.7-3.6,1.6l0-2v-4.5h-0.9V404.1z M-41.2,400.4c0,2.7,1,3.9,3.1,3.9c1.4,0,2.5-0.8,3.5-2h0
		l0.1,1.7h0.8v-10.3h-0.9v7.6c-1.2,1.5-2.1,2.1-3.3,2.1c-1.6,0-2.3-1-2.3-3.2v-6.5h-0.9V400.4z M-52.5,404.1h1v-4.9l2.9-3.3l4.6,8.1
		h1.1l-5.1-8.9l4.5-5.2h-1.2l-6.8,7.8h0v-7.8h-1V404.1z"/>
	<path class="st0" d="M-318.2,264.8c-0.2-0.7-0.7-1.4-1.2-1.9c-0.5-0.6-1.2-1-1.9-1.2c-0.7-0.4-1.5-0.5-2.3-0.5
		c-0.3,0-0.5,0.1-0.8,0.1l-0.1,0c-0.8-0.2-1.6-0.1-2.4,0.1c-1.4,0.5-2.8,1.4-3.6,2.7c-0.7,1.4-1.1,3.1-0.6,4.6
		c0.2,0.6,0.4,1.2,0.7,1.7c0.1,0.1,0.1,0.3,0.2,0.4c0.3,0.5,0.7,1,1.1,1.4c0.4,0.4,1,0.8,1.5,1.2c0.9,0.5,1.9,0.8,3,0.8
		c1.1,0,2.1-0.3,3-0.8c0.1,0,0.1-0.1,0.2-0.1c0.4-0.3,0.9-0.7,1.3-1c0.1-0.1,0.1-0.1,0.2-0.2c0.3-0.4,0.8-0.9,1-1.3
		c0-0.1,0.1-0.1,0.1-0.2c0.2-0.4,0.5-1.1,0.7-1.6c0.2-0.6,0.3-1.3,0.3-2C-317.7,266.2-317.8,265.5-318.2,264.8z"/>
	<path class="st0" d="M-238.8,222.9c-0.2-1.3-0.7-2.2-1.5-3.2c-0.6-0.7-1.3-1.3-2.1-1.8c0,0-0.1-0.1-0.1-0.1c-1-1-2.6-1.7-4-1.6
		c-1.1,0-2.2,0.3-3.2,1c-0.6,0.3-1.1,0.7-1.6,1.1c-1,1-1.7,2.6-1.6,4c0,1.1,0.3,2,0.8,2.8c0.1,1.1,0.5,2.1,1.2,3
		c0.7,0.9,1.7,1.8,2.9,2c1.4,0.3,2.9,0.4,4.3-0.1c0.9-0.3,1.6-0.7,2.3-1.3c0.9-0.7,1.2-1.1,1.9-2.1c0.2-0.4,0.4-0.9,0.6-1.3
		C-238.6,224.4-238.6,223.6-238.8,222.9z"/>
	<path class="st0" d="M-57.2,228.5c0.3-0.7,0.7-1.4,1.3-1.9c0.9-0.7,2-1.3,3.1-1.5c0.2-0.1,0.5-0.2,0.7-0.3c0.7-0.3,1.5-0.5,2.3-0.4
		c0.5,0.1,1.1,0.2,1.6,0.3c1,0.3,1.9,0.9,2.6,1.7c1,1.2,1.7,2.7,1.5,4.2c0,0.6-0.1,1.3-0.3,1.9c-0.1,0.3-0.2,0.5-0.4,0.8
		c-0.1,0.3-0.2,0.5-0.4,0.8c-0.2,0.3-0.4,0.5-0.6,0.7c-0.6,0.7-0.6,0.7-1.3,1.2c-0.9,0.6-1.1,0.7-2.3,1.1c-0.6,0.2-1.2,0.2-1.8,0.2
		c-0.1,0-0.2,0-0.4,0c-1.3-0.2-2.1-0.3-3.3-1c-0.1,0-0.1-0.1-0.2-0.1c-0.4-0.3-0.8-0.7-1.2-1l-0.1-0.1c-0.6-0.6-0.9-1.2-1.1-2
		c-0.3-0.7-0.5-1.5-0.4-2.3C-57.8,230-57.6,229.2-57.2,228.5z"/>
	<path class="st0" d="M1.7,371.6c0-0.3-0.1-0.6-0.1-0.9c0-0.1,0-0.1,0-0.2c-0.1-0.3-0.2-0.5-0.3-0.8c-0.1-0.3-0.2-0.5-0.3-0.8
		c0-0.1-0.1-0.1-0.1-0.2c-0.3-0.4-0.7-1-1-1.4c0-0.1-0.1-0.1-0.2-0.2c-1-0.9-2-1.5-3.2-1.9c-0.6-0.2-1.3-0.3-1.9-0.3l-0.1,0
		c-0.5,0.1-1.1,0.1-1.6,0.2c-0.1,0-0.2,0-0.3,0.1c-0.8,0.2-1.5,0.5-2,1.1c-0.7,0.4-1.2,1-1.5,1.7c-0.4,0.7-0.7,1.4-0.7,2.2
		c-0.2,0.8-0.1,1.6,0.1,2.4c0.2,0.6,0.4,1.1,0.8,1.7c0.1,0.2,0.1,0.3,0.2,0.5c0,0.1,0.1,0.2,0.2,0.2c0.3,0.4,0.7,0.9,1,1.3
		c0.1,0.1,0.1,0.1,0.2,0.2c0.4,0.3,0.9,0.7,1.3,1c0.1,0,0.1,0.1,0.2,0.1c0.5,0.2,1.1,0.5,1.6,0.7c0.6,0.2,1.4,0.2,2,0.3
		c0.5-0.1,1.1-0.1,1.6-0.2c0.8-0.2,1.5-0.5,2-1.1c0.4-0.3,0.8-0.6,1.1-1.1c0.5-0.6,0.9-1.3,1.1-2c0.1-0.3,0.1-0.7,0.1-1
		c0-0.3,0.1-0.6,0.1-1C1.8,372.2,1.7,371.9,1.7,371.6z"/>
	<path class="st0" d="M-154.3,268.7c-0.8-1.3-2-2.4-3.6-2.7c-1.2-0.3-2.4-0.2-3.6,0.2c-0.4,0-0.9,0-1.3,0.1c-0.8,0-1.5,0.3-2.2,0.7
		c-1.2,0.7-2.4,2.1-2.7,3.6c-0.3,1.5-0.3,3.2,0.6,4.6c0.8,1.2,2.1,2.5,3.6,2.7c1.7,0.3,2.7,0.3,4.4,0c1-0.2,1.9-0.6,2.7-1
		c1.3-0.7,2.4-2.2,2.7-3.6C-153.3,271.9-153.4,270-154.3,268.7z"/>
	<path class="st0" d="M-241.3,401.9h0.9v-2.8l2.3-2.7l3.4,5.5h1l-3.9-6.2l3.3-4.1h-1.1l-5.1,6.2h0v-11.4h-0.9V401.9z M-251.8,396.8
		c0,3.4,2,5.4,4.7,5.4c1.3,0,2.4-0.6,3.3-1.4l-0.5-0.6c-0.7,0.6-1.6,1.2-2.7,1.2c-2.2,0-3.7-1.8-3.7-4.5c0-2.7,1.6-4.6,3.7-4.6
		c1,0,1.8,0.5,2.4,1.1l0.6-0.7c-0.7-0.6-1.6-1.3-3-1.3C-249.6,391.4-251.8,393.3-251.8,396.8z M-261.2,399.3c0-1.6,1.4-2.6,5.7-3.1
		v3.5c-1.3,1.1-2.3,1.7-3.5,1.7C-260.3,401.4-261.2,400.8-261.2,399.3z M-262.2,399.3c0,1.9,1.4,2.8,3,2.8c1.3,0,2.6-0.8,3.6-1.6h0
		l0.1,1.3h0.8v-6.6c0-2.2-0.8-4-3.3-4c-1.7,0-3.1,0.8-3.8,1.3l0.4,0.7c0.7-0.5,1.9-1.2,3.3-1.2c2,0,2.5,1.7,2.4,3.3
		C-260.2,396-262.2,397.1-262.2,399.3z M-267.7,399.1c0,1.8,0.6,3.1,2.6,3.1c0.4,0,1.1-0.2,1.7-0.4l-0.3-0.8
		c-0.4,0.2-0.9,0.3-1.3,0.3c-1.4,0-1.7-0.9-1.7-2.2v-6.7h3v-0.8h-3v-3h-0.8l-0.1,3l-1.6,0.1v0.7h1.6V399.1z M-280,400.1
		c1.1,1.2,2.7,2.1,4.8,2.1c2.7,0,4.5-1.6,4.5-3.8c0-2.2-1.4-3-3-3.7l-2.1-0.9c-1-0.5-2.4-1.1-2.4-2.7c0-1.5,1.2-2.5,3.1-2.5
		c1.4,0,2.5,0.6,3.4,1.5l0.6-0.7c-0.9-0.9-2.2-1.7-3.9-1.7c-2.3,0-4.1,1.4-4.1,3.5c0,2.1,1.6,3,2.8,3.5l2.1,1c1.4,0.6,2.5,1.2,2.5,3
		c0,1.7-1.4,2.8-3.5,2.8c-1.6,0-3.1-0.8-4.2-1.9L-280,400.1z M-290.3,401.9h0.9v-7.8c1.3-1.3,2.1-1.9,3.4-1.9c1.7,0,2.4,1,2.4,3.2
		v6.5h0.9v-6.6c0-2.7-1-3.9-3.1-3.9c-1.4,0-2.5,0.8-3.5,1.8h-0.1l-0.1-1.6h-0.8V401.9z M-300.5,396.2c0.2-2.5,1.8-4,3.5-4
		c1.8,0,3,1.3,3,4H-300.5z M-301.5,396.8c0,3.4,2.1,5.4,4.8,5.4c1.5,0,2.4-0.5,3.2-1l-0.4-0.7c-0.8,0.6-1.7,0.9-2.8,0.9
		c-2.3,0-3.8-1.9-3.9-4.5h7.4c0-0.3,0-0.5,0-0.8c0-3-1.5-4.8-3.9-4.8C-299.3,391.4-301.5,393.4-301.5,396.8z M-311.4,400v-6.1
		c1.2-1.1,2.3-1.7,3.4-1.7c2.4,0,3.3,1.9,3.3,4.4c0,2.8-1.5,4.7-3.6,4.7C-309.1,401.3-310.2,401-311.4,400z M-311.4,400.9
		c1.1,0.8,2.1,1.3,3.1,1.3c2.4,0,4.5-2.1,4.5-5.5c0-3.2-1.4-5.2-4.1-5.2c-1.3,0-2.5,0.8-3.5,1.5h-0.1l-0.1-1.3h-0.8v14.9h0.9v-3.7
		V400.9z M-321.2,401.3c-2.9,0-4.8-2.5-4.8-6.5c0-3.9,1.9-6.4,4.8-6.4c2.8,0,4.8,2.5,4.8,6.4C-316.4,398.7-318.3,401.3-321.2,401.3z
		 M-321.2,402.2c3.4,0,5.8-2.9,5.8-7.4c0-4.5-2.4-7.3-5.8-7.3c-3.4,0-5.8,2.8-5.8,7.3C-327,399.3-324.6,402.2-321.2,402.2z"/>
	<path class="st0" d="M-141.7,405.7c1.1,1.2,2.7,2.1,4.8,2.1c2.7,0,4.5-1.6,4.5-3.8c0-2.2-1.4-3-3-3.7l-2.1-0.9
		c-1-0.5-2.4-1.1-2.4-2.7c0-1.5,1.2-2.5,3.1-2.5c1.4,0,2.5,0.6,3.4,1.5l0.6-0.7c-0.9-0.9-2.2-1.7-3.9-1.7c-2.3,0-4.1,1.4-4.1,3.5
		c0,2.1,1.6,3,2.8,3.5l2.1,1c1.4,0.6,2.5,1.2,2.5,3c0,1.7-1.4,2.8-3.5,2.8c-1.6,0-3.1-0.8-4.2-1.9L-141.7,405.7z M-155,407.5h1.1
		l2.5-9.7c0.3-1.1,0.5-2.1,0.8-3.2h0.1c0.3,1.1,0.5,2.1,0.8,3.2l2.6,9.7h1.1l3.2-14.1h-1l-1.8,8.3c-0.3,1.5-0.6,3.1-0.9,4.6h-0.1
		c-0.4-1.5-0.8-3.1-1.1-4.6l-2.2-8.3h-1l-2.2,8.3c-0.4,1.5-0.8,3.1-1.1,4.6h-0.1c-0.3-1.5-0.6-3.1-1-4.6l-1.8-8.3h-1L-155,407.5z
		 M-159.9,407.5h1l-5-14.1h-1l-5,14.1h1l1.6-4.8h5.6L-159.9,407.5z M-166.8,401.8l0.9-2.6c0.6-1.7,1.1-3.1,1.6-4.9h0.1
		c0.5,1.7,1,3.2,1.6,4.9l0.9,2.6H-166.8z"/>
	<path class="st0" d="M-157.2,370.5c0.3-0.7,0.7-1.4,1.3-1.9c0.9-0.7,2-1.3,3.1-1.5c0.2-0.1,0.5-0.2,0.7-0.3
		c0.7-0.3,1.5-0.5,2.3-0.4c0.5,0.1,1.1,0.2,1.6,0.3c1,0.3,1.9,0.9,2.6,1.7c1,1.2,1.7,2.7,1.5,4.2c0,0.6-0.1,1.3-0.3,1.9
		c-0.1,0.3-0.2,0.5-0.4,0.8c-0.1,0.3-0.2,0.5-0.4,0.8c-0.2,0.3-0.4,0.5-0.6,0.7c-0.6,0.7-0.6,0.7-1.3,1.2c-0.9,0.6-1.1,0.7-2.3,1.1
		c-0.6,0.2-1.2,0.2-1.8,0.2c-0.1,0-0.2,0-0.4,0c-1.3-0.2-2.1-0.3-3.3-1c-0.1,0-0.1-0.1-0.2-0.1c-0.4-0.3-0.8-0.7-1.2-1l-0.1-0.1
		c-0.6-0.6-0.9-1.2-1.1-2c-0.3-0.7-0.5-1.5-0.4-2.3C-157.8,372-157.6,371.2-157.2,370.5z"/>
	<path class="st0" d="M-275.3,364.7c-0.8-1.3-2-2.4-3.6-2.7c-1.2-0.3-2.4-0.2-3.6,0.2c-0.4,0-0.9,0-1.3,0.1c-0.8,0-1.5,0.3-2.2,0.7
		c-1.2,0.7-2.4,2.1-2.7,3.6c-0.3,1.5-0.3,3.2,0.6,4.6c0.8,1.2,2.1,2.5,3.6,2.7c1.7,0.3,2.7,0.3,4.4,0c1-0.2,1.9-0.6,2.7-1
		c1.3-0.7,2.4-2.2,2.7-3.6C-274.3,367.9-274.4,366-275.3,364.7z"/>
	<path class="st0" d="M-67.9,297.2c0-0.8-0.1-1.6-0.5-2.3c-0.2-0.7-0.7-1.4-1.2-1.9c-0.4-0.3-0.8-0.6-1.2-0.9
		c-0.9-0.5-1.9-0.8-3-0.8c-0.5,0.1-1.1,0.1-1.6,0.2c-0.6,0.2-1.2,0.5-1.7,0.8c-0.2,0.1-0.3,0.1-0.5,0.2c-0.9,0.5-1.6,1.2-2.1,2.1
		c-0.2,0.5-0.4,1-0.6,1.4c-0.3,1.1-0.3,2.1,0,3.2c0.1,0.3,0.3,0.7,0.4,1c0.2,0.8,0.5,1.5,1.1,2c0.4,0.7,1,1.2,1.7,1.5
		c0.7,0.4,1.4,0.7,2.2,0.7c0.8,0.2,1.6,0.1,2.4-0.1c0.5-0.2,1-0.4,1.4-0.6c0.9-0.5,1.6-1.2,2.1-2.1c0.2-0.5,0.4-1,0.6-1.4
		c0.1-0.3,0.1-0.7,0.2-1C-68,298.7-67.9,298-67.9,297.2z"/>
</g>
</svg>
