<?xml version="1.0" encoding="utf-8"?>
<!-- Generator: Adobe Illustrator 19.2.0, SVG Export Plug-In . SVG Version: 6.00 Build 0)  -->
<svg version="1.1" id="Layer_1" xmlns="http://www.w3.org/2000/svg" xmlns:xlink="http://www.w3.org/1999/xlink" x="0px" y="0px"
	 viewBox="0 0 400 131.7" style="enable-background:new 0 0 400 131.7;" xml:space="preserve">
<style type="text/css">
	.st0{fill:#606060;}
	.st1{fill:#8787C6;}
	.st2{fill:#FFFFFF;}
	.st3{fill:#D7D7D7;}
	.st4{fill:#AAAAAA;}
	.st5{fill:#595959;}
	.st6{fill:none;stroke:#D7D7D7;stroke-width:2;stroke-miterlimit:10;stroke-dasharray:4;}
	.st7{fill:#E0E0E0;}
</style>
<path class="st0" d="M12.9,110.5h376c0.7,0,1.3,0.7,1.3,1.5v17.9c0,0.8-0.6,1.5-1.3,1.5h-376c-0.7,0-1.3-0.7-1.3-1.5V112
	C11.6,111.2,12.2,110.5,12.9,110.5z"/>
<path class="st1" d="M70.4,89.5H323c1,0,1.9,1,1.9,2.2v16.4c0,1.2-0.9,2.2-1.9,2.2H70.4c-1,0-1.9-1-1.9-2.2V91.7
	C68.5,90.5,69.4,89.5,70.4,89.5z"/>
<g>
	<path class="st2" d="M165.2,116.2h0.6v8.2h-0.6V116.2z"/>
	<path class="st2" d="M168.1,118.5h0.5v0.9l0,0c0.6-0.6,1.2-1.1,2.1-1.1c1.2,0,1.8,0.7,1.8,2.3v3.8H172v-3.8c0-1.3-0.4-1.9-1.4-1.9
		c-0.7,0-1.2,0.4-2,1.1v4.5h-0.5L168.1,118.5L168.1,118.5z"/>
	<path class="st2" d="M177,116c-0.2-0.1-0.5-0.2-0.7-0.2c-0.6,0-0.9,0.5-0.9,1.4v1.3h1.4v0.5h-1.4v5.5h-0.5V119h-0.8v-0.4h0.8v-1.3
		c0-1.2,0.5-1.8,1.5-1.8c0.3,0,0.6,0.1,0.9,0.2L177,116z"/>
	<path class="st2" d="M178,118.5h0.5v1.1l0,0c0.4-0.7,1-1.3,1.7-1.3c0.2,0,0.4,0,0.6,0.1l-0.1,0.5c-0.2-0.1-0.3-0.1-0.5-0.1
		c-0.5,0-1.2,0.4-1.6,1.5v4.1h-0.5L178,118.5L178,118.5z"/>
	<path class="st2" d="M185.2,120.7c0-0.9-0.2-1.9-1.4-1.9c-0.8,0-1.5,0.4-1.9,0.7l-0.2-0.4c0.4-0.3,1.2-0.8,2.2-0.8
		c1.4,0,1.9,1,1.9,2.3v3.8h-0.5l-0.1-0.8l0,0c-0.6,0.5-1.3,0.9-2.1,0.9c-0.9,0-1.7-0.5-1.7-1.6C181.3,121.6,182.5,121,185.2,120.7z
		 M183.2,124.1c0.7,0,1.3-0.3,2-1v-2c-2.5,0.3-3.3,0.9-3.3,1.8S182.5,124.1,183.2,124.1z"/>
	<path class="st2" d="M187.5,123.4c0.5,0.4,1,0.8,1.9,0.8s1.4-0.5,1.4-1.2s-0.8-1.1-1.5-1.3c-0.9-0.3-1.9-0.7-1.9-1.7
		c0-0.9,0.7-1.6,1.9-1.6c0.6,0,1.3,0.3,1.7,0.6l-0.3,0.4c-0.4-0.3-0.8-0.5-1.4-0.5c-0.9,0-1.3,0.5-1.3,1.1c0,0.7,0.7,0.9,1.4,1.2
		c0.9,0.3,2,0.7,2,1.8c0,0.9-0.7,1.7-2,1.7c-0.9,0-1.7-0.4-2.2-0.8L187.5,123.4z"/>
	<path class="st2" d="M193.1,119h-0.9v-0.4h0.9l0.1-1.7h0.5v1.7h1.7v0.5h-1.7v3.9c0,0.8,0.2,1.3,1,1.3c0.2,0,0.5-0.1,0.7-0.2
		l0.1,0.4c-0.3,0.1-0.7,0.2-1,0.2c-1.2,0-1.5-0.7-1.5-1.8L193.1,119L193.1,119z"/>
	<path class="st2" d="M196.8,118.5h0.5v1.1l0,0c0.4-0.7,1-1.3,1.7-1.3c0.2,0,0.4,0,0.6,0.1l-0.1,0.5c-0.2-0.1-0.3-0.1-0.5-0.1
		c-0.5,0-1.2,0.4-1.6,1.5v4.1h-0.5L196.8,118.5L196.8,118.5z"/>
	<path class="st2" d="M200.7,118.5h0.5v3.8c0,1.3,0.4,1.9,1.4,1.9c0.7,0,1.2-0.4,1.9-1.2v-4.4h0.5v6h-0.5l-0.1-1l0,0
		c-0.6,0.7-1.2,1.1-2,1.1c-1.2,0-1.8-0.7-1.8-2.3v-3.9H200.7z"/>
	<path class="st2" d="M209.6,118.3c0.8,0,1.4,0.4,1.8,0.7l-0.3,0.4c-0.4-0.4-0.8-0.6-1.4-0.6c-1.2,0-2.2,1.1-2.2,2.7
		s0.9,2.6,2.2,2.6c0.6,0,1.2-0.3,1.6-0.7l0.3,0.4c-0.5,0.5-1.1,0.8-1.9,0.8c-1.5,0-2.7-1.1-2.7-3.1
		C206.9,119.5,208.2,118.3,209.6,118.3z"/>
	<path class="st2" d="M213.1,119h-0.9v-0.4h0.9l0.1-1.7h0.5v1.7h1.7v0.5h-1.7v3.9c0,0.8,0.2,1.3,1,1.3c0.2,0,0.5-0.1,0.7-0.2
		l0.1,0.4c-0.3,0.1-0.7,0.2-1,0.2c-1.2,0-1.5-0.7-1.5-1.8L213.1,119L213.1,119z"/>
	<path class="st2" d="M216.7,118.5h0.5v3.8c0,1.3,0.4,1.9,1.4,1.9c0.7,0,1.2-0.4,1.9-1.2v-4.4h0.5v6h-0.5l-0.1-1l0,0
		c-0.6,0.7-1.2,1.1-2,1.1c-1.2,0-1.8-0.7-1.8-2.3v-3.9H216.7z"/>
	<path class="st2" d="M223.4,118.5h0.5v1.1l0,0c0.4-0.7,1-1.3,1.7-1.3c0.2,0,0.4,0,0.6,0.1l-0.1,0.5c-0.2-0.1-0.3-0.1-0.5-0.1
		c-0.5,0-1.2,0.4-1.6,1.5v4.1h-0.5L223.4,118.5L223.4,118.5z"/>
	<path class="st2" d="M229.3,118.3c1.4,0,2.3,1,2.3,2.8c0,0.1,0,0.3,0,0.4h-4.3c0,1.5,0.9,2.6,2.3,2.6c0.6,0,1.2-0.2,1.6-0.5
		l0.2,0.4c-0.5,0.3-1,0.6-1.9,0.6c-1.5,0-2.8-1.2-2.8-3.1C226.7,119.5,228,118.3,229.3,118.3z M231.1,121.1c0-1.5-0.7-2.3-1.8-2.3
		c-1,0-1.9,0.9-2.1,2.3H231.1z"/>
</g>
<g>
	<path class="st2" d="M174.9,101.9h-3.3l-1,2.8H170l2.9-8.2h0.6l2.9,8.2h-0.6L174.9,101.9z M174.8,101.4l-0.5-1.5
		c-0.3-1-0.6-1.8-0.9-2.8l0,0c-0.3,1-0.6,1.9-0.9,2.8l-0.5,1.5H174.8z"/>
	<path class="st2" d="M178.3,105.2v2.2h-0.5v-8.7h0.5v0.7l0,0c0.6-0.5,1.3-0.9,2-0.9c1.6,0,2.4,1.2,2.4,3.1c0,2-1.2,3.2-2.6,3.2
		c-0.6,0-1.2-0.3-1.8-0.7L178.3,105.2L178.3,105.2z M180,104.3c1.2,0,2.1-1.1,2.1-2.7c0-1.5-0.5-2.6-1.9-2.6c-0.6,0-1.2,0.3-2,1v3.6
		C178.9,104.1,179.6,104.3,180,104.3z"/>
	<path class="st2" d="M185,105.2v2.2h-0.5v-8.7h0.5v0.7l0,0c0.6-0.5,1.3-0.9,2-0.9c1.6,0,2.4,1.2,2.4,3.1c0,2-1.2,3.2-2.6,3.2
		c-0.6,0-1.2-0.3-1.8-0.7L185,105.2L185,105.2z M186.8,104.3c1.2,0,2.1-1.1,2.1-2.7c0-1.5-0.5-2.6-1.9-2.6c-0.6,0-1.2,0.3-2,1v3.6
		C185.7,104.1,186.4,104.3,186.8,104.3z"/>
	<path class="st2" d="M191.3,95.7h0.5v8.2c0,0.3,0.1,0.4,0.3,0.4c0.1,0,0.1,0,0.2,0l0.1,0.4c-0.1,0-0.2,0.1-0.4,0.1
		c-0.5,0-0.7-0.3-0.7-0.9L191.3,95.7L191.3,95.7z"/>
	<path class="st2" d="M194,96.8c0-0.3,0.2-0.5,0.5-0.5s0.5,0.2,0.5,0.5s-0.2,0.5-0.5,0.5C194.2,97.2,194,97,194,96.8z M194.2,98.7
		h0.5v6h-0.5V98.7z"/>
	<path class="st2" d="M199.3,98.5c0.8,0,1.4,0.4,1.8,0.7l-0.3,0.4c-0.4-0.4-0.8-0.6-1.4-0.6c-1.2,0-2.2,1.1-2.2,2.7s0.9,2.6,2.2,2.6
		c0.6,0,1.2-0.3,1.6-0.7l0.3,0.4c-0.5,0.5-1.1,0.8-1.9,0.8c-1.5,0-2.7-1.1-2.7-3.1C196.6,99.7,197.9,98.5,199.3,98.5z"/>
	<path class="st2" d="M206.1,100.9c0-0.9-0.2-1.9-1.4-1.9c-0.8,0-1.5,0.4-1.9,0.7l-0.2-0.4c0.4-0.3,1.2-0.8,2.2-0.8
		c1.4,0,1.9,1,1.9,2.3v3.8h-0.5l-0.1-0.8l0,0c-0.6,0.5-1.3,0.9-2.1,0.9c-0.9,0-1.7-0.5-1.7-1.6C202.2,101.9,203.4,101.2,206.1,100.9
		z M204.1,104.4c0.7,0,1.3-0.3,2-1v-2c-2.5,0.3-3.3,0.9-3.3,1.8C202.8,104,203.4,104.4,204.1,104.4z"/>
	<path class="st2" d="M208.9,99.2H208v-0.4h0.9l0.1-1.7h0.5v1.7h1.7v0.5h-1.7v3.9c0,0.8,0.2,1.3,1,1.3c0.2,0,0.5-0.1,0.7-0.2
		l0.1,0.4c-0.3,0.1-0.7,0.2-1,0.2c-1.2,0-1.5-0.7-1.5-1.8L208.9,99.2L208.9,99.2z"/>
	<path class="st2" d="M212.5,96.8c0-0.3,0.2-0.5,0.5-0.5s0.5,0.2,0.5,0.5s-0.2,0.5-0.5,0.5C212.7,97.2,212.5,97,212.5,96.8z
		 M212.7,98.7h0.5v6h-0.5V98.7z"/>
	<path class="st2" d="M217.7,98.5c1.4,0,2.7,1.1,2.7,3.2c0,2-1.2,3.1-2.7,3.1c-1.4,0-2.7-1.1-2.7-3.1S216.3,98.5,217.7,98.5z
		 M217.7,104.3c1.2,0,2.1-1.1,2.1-2.6c0-1.6-0.9-2.7-2.1-2.7c-1.2,0-2.1,1.1-2.1,2.7C215.6,103.3,216.5,104.3,217.7,104.3z"/>
	<path class="st2" d="M222.2,98.7h0.5v0.9l0,0c0.6-0.6,1.2-1.1,2.1-1.1c1.2,0,1.8,0.7,1.8,2.3v3.8h-0.5v-3.8c0-1.3-0.4-1.9-1.4-1.9
		c-0.7,0-1.2,0.4-2,1.1v4.5h-0.5L222.2,98.7L222.2,98.7z"/>
</g>
<g>
	<g>
		<path class="st3" d="M126.3,54.9c-5.4,1-10.6,2.3-15.6,4.3c-1.3,0.5-1.6,2.6,0,2.9c9.5,2,19.8,2.2,29.3,0
			c5.4-1.3,14.6-4.4,14.5-11.4c0-1.2-1.2-1.8-2.3-1.3c-5,2.2-14.6,7.7-12.2,14.8c2.3,6.8,16,5.3,21.2,5c10.4-0.6,21.4-2.4,31.1-6.3
			c4.7-1.9,13.5-7.3,7-12.6c-6.3-5.1-17.8-4.6-25.2-3.3c-3.6,0.6-16.7,3.8-13,10c1.5,2.5,5.6,3.5,8.2,4.1c5.2,1.4,10.6,1.9,15.9,2.5
			c11.9,1.3,24,1.9,35.9,1.4c6-0.3,12.2-0.8,18-2.7c3-1,7.1-2.5,8.5-5.7c3.4-8.1-13-9.2-17.2-9c-2,0.1-1.9,2.8,0,3
			c6.7,0.9,13.6,1.8,20.3,0.9c2.9-0.4,8.6-1.2,10.2-4.3c3.3-6.5-12.4-9.1-15.9-9.7c-9.4-1.5-19.5-1.5-29,0.5
			c-2.8,0.6-8.9,1.5-10.5,4.5c-1.2,2.3,0.6,3.9,2.7,4.6c5.2,1.8,12.2-2.7,7.8-8.1c-2.6-3.2-7.6-4.8-11.4-5.9
			c-5.7-1.7-11.7-2.4-17.6-2.8c-12.1-0.8-24.7,0-36.3,3.6c-6.4,2-18.1,6.3-18.6,14.5c-0.6,9.5,17.8,11.2,23.8,12
			c7.3,1,14.8,1.6,22.1,0.6c3.8-0.6,9.9-1.6,11.7-5.6c0.5-1.1-0.3-2.6-1.7-2.2c-6,1.9-10,6.5-4.5,11.8c5.9,5.6,15.2,8.2,23,9.7
			c9.8,1.9,19.8,2.2,29.7,0.6c6-1,14.9-2.6,18.8-8c4.3-6.1-3.8-9-8.4-9.8c-4.4-0.8-9-1.1-13.4-1.2c-2.2-0.1-6.4-0.5-7.6,1.9
			c-2.6,5.1,11,6.8,13.6,7.2c8.1,1.2,16.4,1.2,24.6,0c4.4-0.6,19.2-2.7,18.4-9.7c-0.7-5.9-12.2-5.5-15.9-4.2c-1.8,0.6-1,3.5,0.8,2.9
			c2.9-1,6.3-0.9,9.3,0c6.2,1.9-1.8,5.2-4.2,6c-5.6,1.9-11.7,2.5-17.6,2.7c-6.7,0.2-13.5-0.2-20-1.8c-0.5-0.1-3.4-0.6-3.7-1.1
			c-1.4-1.8,1.6-1.2,2.4-1.1c3.8,0.1,7.6,0.3,11.3,0.9c3,0.5,11,1.5,7,6.6c-1.6,2-5.5,3.1-7.8,3.8c-6.9,2.2-14.2,2.9-21.4,2.8
			c-7.7-0.1-15.5-1.2-22.8-3.5c-3.1-1-6.1-2.1-8.9-3.7c-1.1-0.6-2.1-1.2-3.1-1.9c-2.2-1.1-3.3-2.9-3.4-5.4c1.3-1.5,2.9-2.4,4.8-2.8
			c-0.6-0.7-1.1-1.5-1.7-2.2c-1.5,3.3-7.7,4-10.9,4.3c-4,0.5-8.1,0.4-12.1,0.1c-7.8-0.5-16.1-1.5-23.4-4.5c-3.6-1.5-7.2-4.3-4.2-8.4
			c1.7-2.3,4.3-4,6.9-5.3c6.5-3.4,13.9-5.1,21.2-6.1c7.4-1,15-1.2,22.4-0.7c7.8,0.5,16.6,1.4,23.5,5.3c0.8,0.4,3.6,1.9,3.5,2.9
			c-0.1,1.2-3,3-4.1,2.8c-2-0.4-0.3-1.2,0.8-1.8c2.2-1.2,5.4-1.6,7.9-2c6.2-1.1,12.6-1.3,18.9-0.8c3.1,0.2,19.5,1.4,19.6,5.8
			c0.2,5.8-22.9,2.6-26.9,2.1c0,1,0,2,0,3c3.1-0.2,10.8-0.5,13.1,2.5c3.7,4.8-8,7.1-10.4,7.6c-8.9,1.8-18.2,1.5-27.2,1.3
			c-8.2-0.2-16.4-0.8-24.5-1.8c-4.3-0.5-8.8-1.1-12.9-2.4c-1.2-0.3-2.3-0.8-3.4-1.3c-1.6-0.4-1.8-1.2-0.5-2.2
			c0.9-2.1,3.5-2.7,5.5-3.3c7.6-2.5,17.4-2.9,24.9,0.3c3.4,1.4,3.5,5,0.2,6.9c-1.6,1-3.5,1.7-5.3,2.3c-3.8,1.4-7.7,2.3-11.6,3.2
			c-8.4,1.9-17.3,3-25.9,2.5c-4-0.2-12.3-1.4-8.5-7.4c2.1-3.4,6.2-5.3,9.7-6.9c-0.8-0.4-1.5-0.9-2.3-1.3c0.1,6.9-13.1,8.9-18,9.5
			c-7.3,0.9-14.8,0.6-22.1-1c0,1,0,1.9,0,2.9c5.1-2,10.3-3.3,15.6-4.3C129,57.5,128.2,54.6,126.3,54.9L126.3,54.9z"/>
	</g>
</g>
<g>
	<circle class="st4" cx="91.8" cy="59.2" r="6.1"/>
	<g>
		<path class="st4" d="M99.8,70.4c0-2-1.4-4.1-3.2-4.1h-9.3c-1.7,0-2.6,1.4-2.6,3.3v11.9h15.1L99.8,70.4L99.8,70.4z"/>
	</g>
</g>
<g>
	<circle class="st4" cx="73.8" cy="59.2" r="6.1"/>
	<g>
		<path class="st4" d="M81.9,70.4c0-2-1.4-4.1-3.2-4.1h-9.3c-1.7,0-2.9,1.4-2.9,3.3v11.9h15.2L81.9,70.4L81.9,70.4z"/>
	</g>
</g>
<g>
	<circle class="st4" cx="344.2" cy="14.9" r="6.1"/>
	<g>
		<path class="st4" d="M351.3,26.1c0-2-1.4-4.1-3.2-4.1h-9.3c-1.7,0-2.6,2.3-2.6,4.4v10.8h14.9L351.3,26.1L351.3,26.1z"/>
	</g>
</g>
<g>
	<path class="st5" d="M161.6,23.5l-2.4-4h-1.9v4h-0.6v-8.7h2.5c1.7,0,2.9,0.6,2.9,2.3c0,1.4-0.9,2.2-2.2,2.4l2.4,4H161.6z M159.1,19
		c1.5,0,2.4-0.6,2.4-1.9c0-1.3-0.8-1.8-2.4-1.8h-1.7V19H159.1z"/>
	<path class="st5" d="M166.2,17c1.5,0,2.4,1.1,2.4,2.9c0,0.2,0,0.3,0,0.5H164c0,1.6,1,2.7,2.4,2.7c0.7,0,1.2-0.2,1.7-0.6l0.2,0.4
		c-0.5,0.3-1.1,0.6-2,0.6c-1.6,0-2.9-1.2-2.9-3.3C163.4,18.3,164.7,17,166.2,17z M168,20c0-1.6-0.7-2.5-1.9-2.5
		c-1.1,0-2,0.9-2.2,2.5H168z"/>
	<path class="st5" d="M169.8,22.4c0.5,0.4,1.1,0.8,2,0.8c1,0,1.5-0.6,1.5-1.3c0-0.8-0.8-1.1-1.5-1.4c-1-0.3-2-0.7-2-1.8
		c0-0.9,0.7-1.7,2-1.7c0.7,0,1.3,0.3,1.8,0.7l-0.3,0.4c-0.4-0.3-0.9-0.6-1.5-0.6c-1,0-1.4,0.6-1.4,1.2c0,0.7,0.7,1,1.5,1.3
		c1,0.4,2.1,0.7,2.1,1.9c0,1-0.8,1.8-2.1,1.8c-0.9,0-1.8-0.4-2.3-0.9L169.8,22.4z"/>
	<path class="st5" d="M175.8,17.7h-1v-0.5l1-0.1l0.1-1.8h0.5v1.8h1.8v0.5h-1.8v4.1c0,0.8,0.2,1.3,1.1,1.3c0.2,0,0.6-0.1,0.8-0.2
		l0.2,0.5c-0.4,0.1-0.8,0.2-1,0.2c-1.2,0-1.6-0.8-1.6-1.9v-3.9H175.8z"/>
	<path class="st5" d="M184.7,17c1.5,0,2.9,1.2,2.9,3.3s-1.3,3.3-2.9,3.3c-1.5,0-2.8-1.2-2.8-3.3S183.2,17,184.7,17z M184.7,23.2
		c1.3,0,2.2-1.1,2.2-2.8c0-1.7-1-2.8-2.2-2.8c-1.3,0-2.2,1.2-2.2,2.8C182.5,22,183.4,23.2,184.7,23.2z"/>
	<path class="st5" d="M191.9,14.5c-0.3-0.1-0.5-0.2-0.8-0.2c-0.7,0-1,0.5-1,1.4v1.4h1.5v0.5h-1.5v5.8h-0.6v-5.7h-0.9v-0.5l0.9-0.1
		v-1.3c0-1.3,0.6-1.9,1.6-1.9c0.3,0,0.6,0.1,0.9,0.2L191.9,14.5z"/>
	<path class="st5" d="M195.7,17.7h-1v-0.5l1-0.1l0.1-1.8h0.5v1.8h1.8v0.5h-1.8v4.1c0,0.8,0.2,1.3,1.1,1.3c0.2,0,0.6-0.1,0.8-0.2
		l0.2,0.5c-0.4,0.1-0.8,0.2-1,0.2c-1.2,0-1.6-0.8-1.6-1.9v-3.9H195.7z"/>
	<path class="st5" d="M199.7,14h0.6v2.7v1.4c0.7-0.7,1.3-1.2,2.2-1.2c1.3,0,1.9,0.8,1.9,2.4v4.1h-0.6v-4c0-1.3-0.4-2-1.5-2
		c-0.8,0-1.3,0.4-2.1,1.2v4.8h-0.6V14H199.7z"/>
	<path class="st5" d="M208.9,17c1.5,0,2.4,1.1,2.4,2.9c0,0.2,0,0.3,0,0.5h-4.6c0,1.6,1,2.7,2.4,2.7c0.7,0,1.2-0.2,1.7-0.6l0.2,0.4
		c-0.5,0.3-1.1,0.6-2,0.6c-1.6,0-2.9-1.2-2.9-3.3C206.1,18.3,207.5,17,208.9,17z M210.8,20c0-1.6-0.7-2.5-1.9-2.5
		c-1.1,0-2,0.9-2.2,2.5H210.8z"/>
	<path class="st5" d="M214.8,14.8h0.6l1.1,5.1c0.2,1,0.4,1.9,0.6,2.8h0.1c0.2-0.9,0.4-1.9,0.7-2.8l1.4-5.1h0.6l1.3,5.1
		c0.2,1,0.5,1.9,0.7,2.8h0.1c0.2-1,0.4-1.9,0.6-2.8l1.1-5.1h0.6l-2,8.7h-0.7l-1.6-6c-0.2-0.7-0.3-1.3-0.5-2h-0.1
		c-0.1,0.7-0.3,1.3-0.5,2l-1.6,6h-0.7L214.8,14.8z"/>
	<path class="st5" d="M228.1,17c1.5,0,2.9,1.2,2.9,3.3s-1.3,3.3-2.9,3.3c-1.5,0-2.8-1.2-2.8-3.3C225.2,18.2,226.6,17,228.1,17z
		 M228.1,23.2c1.3,0,2.2-1.1,2.2-2.8c0-1.7-1-2.8-2.2-2.8s-2.2,1.2-2.2,2.8C225.8,22,226.8,23.2,228.1,23.2z"/>
	<path class="st5" d="M232.8,17.2h0.5l0.1,1.2l0,0c0.4-0.8,1-1.3,1.8-1.3c0.2,0,0.4,0,0.6,0.1l-0.1,0.5c-0.2-0.1-0.3-0.1-0.6-0.1
		c-0.6,0-1.2,0.4-1.7,1.6v4.3h-0.6V17.2z"/>
	<path class="st5" d="M237,14h0.6v8.7c0,0.3,0.1,0.4,0.3,0.4c0.1,0,0.1,0,0.2,0l0.1,0.5c-0.1,0-0.2,0.1-0.4,0.1
		c-0.5,0-0.8-0.3-0.8-1L237,14L237,14z"/>
	<path class="st5" d="M242.4,17c0.8,0,1.3,0.3,1.9,0.8v-1.2V14h0.6v9.5h-0.5l-0.1-0.8l0,0c-0.5,0.5-1.2,1-2.1,1
		c-1.6,0-2.6-1.2-2.6-3.3C239.6,18.3,240.9,17,242.4,17z M242.3,23.2c0.7,0,1.3-0.4,2-1v-3.8c-0.7-0.6-1.2-0.8-1.9-0.8
		c-1.3,0-2.2,1.2-2.2,2.8C240.3,22,241,23.2,242.3,23.2z"/>
</g>
<line class="st6" x1="196.3" y1="73.6" x2="196.3" y2="89.1"/>
<line class="st6" x1="263.3" y1="38" x2="331.5" y2="26.2"/>
<line class="st6" x1="261.4" y1="68.1" x2="288.7" y2="76.3"/>
<line class="st6" x1="131.1" y1="38" x2="68.5" y2="24.4"/>
<line class="st6" x1="131.1" y1="68.1" x2="103.8" y2="76.3"/>
<g>
	<path class="st4" d="M322.6,83.2h-25c-1.2,0-2.3-1.1-2.3-2.3v-25c0-1.2,1.1-2.3,2.3-2.3h25c1.2,0,2.3,1.1,2.3,2.3v25
		C324.9,82.1,323.9,83.2,322.6,83.2z"/>
	<g>
		<path class="st2" d="M315,58.7h-14c-0.5,0-0.9,0.5-0.9,0.9v4.3l-2.7,2.9h2.7v2.1c0,0.5,0.5,0.9,0.9,0.9h14c0.5,0,0.9-0.5,0.9-0.9
			v-9.3C315.9,59,315.5,58.7,315,58.7z"/>
		<path class="st7" d="M322.8,74.7l-2.6-2.7v-4.3c0-0.5-0.5-0.9-0.9-0.9h-13.7c-0.5,0-0.9,0.5-0.9,0.9v9.3c0,0.5,0.5,0.9,0.9,0.9
			h13.7c0.5,0,0.9-0.5,0.9-0.9v-2.3C320.2,74.7,322.8,74.7,322.8,74.7z"/>
	</g>
</g>
<path class="st4" d="M65.3,40.7h-25c-1.2,0-2.3-1.1-2.3-2.3v-25c0-1.2,1.1-2.3,2.3-2.3h25c1.2,0,2.3,1.1,2.3,2.3v25
	C67.6,39.7,66.5,40.7,65.3,40.7z"/>
<rect x="42" y="16.2" class="st2" width="2.9" height="4.4"/>
<rect x="46.3" y="16.4" class="st7" width="17.2" height="4.4"/>
<rect x="42" y="24.2" class="st2" width="2.9" height="4.3"/>
<rect x="46.3" y="24.2" class="st7" width="17.2" height="4.3"/>
<rect x="42" y="31.8" class="st2" width="2.9" height="4.1"/>
<rect x="46.3" y="31.6" class="st7" width="17.2" height="4.1"/>
</svg>
