<?xml version="1.0" encoding="UTF-8" standalone="no"?>

<svg
   xmlns:dc="http://purl.org/dc/elements/1.1/"
   xmlns:cc="http://creativecommons.org/ns#"
   xmlns:rdf="http://www.w3.org/1999/02/22-rdf-syntax-ns#"
   xmlns:svg="http://www.w3.org/2000/svg"
   xmlns="http://www.w3.org/2000/svg"
   xmlns:xlink="http://www.w3.org/1999/xlink"
   xmlns:sodipodi="http://sodipodi.sourceforge.net/DTD/sodipodi-0.dtd"
   xmlns:inkscape="http://www.inkscape.org/namespaces/inkscape"
   version="1.1"
   id="Layer_1"
   x="0px"
   y="0px"
   viewBox="0 0 113.5 30.6"
   enable-background="new 0 0 113.5 30.6"
   xml:space="preserve"
   inkscape:version="0.48.5 r10040"
   width="100%"
   height="100%"
   sodipodi:docname="logo.svg"><metadata
     id="metadata239"><rdf:RDF><cc:Work
         rdf:about=""><dc:format>image/svg+xml</dc:format><dc:type
           rdf:resource="http://purl.org/dc/dcmitype/StillImage" /></cc:Work></rdf:RDF></metadata><defs
     id="defs237"></defs><sodipodi:namedview
     pagecolor="#ffffff"
     bordercolor="#666666"
     borderopacity="1"
     objecttolerance="10"
     gridtolerance="10"
     guidetolerance="10"
     inkscape:pageopacity="0"
     inkscape:pageshadow="2"
     inkscape:window-width="640"
     inkscape:window-height="480"
     id="namedview235"
     showgrid="false"
     inkscape:zoom="2.6696035"
     inkscape:cx="50.464364"
     inkscape:cy="15.3"
     inkscape:window-x="2975"
     inkscape:window-y="404"
     inkscape:window-maximized="0"
     inkscape:current-layer="Layer_1" /><g
     id="g3446"><rect
       style="fill:#783189"
       id="rect11"
       height="3.5999999"
       width="3.5999999"
       y="16"
       x="1.3" /><rect
       style="fill:#783189"
       id="rect13"
       height="3.5999999"
       width="3.5999999"
       y="19.200001"
       x="1.3" /><rect
       style="fill:#783189"
       id="rect15"
       height="3.5999999"
       width="3.5999999"
       y="22.5"
       x="1.3" /><rect
       style="fill:#783189"
       id="rect17"
       height="3.5999999"
       width="3.5999999"
       y="25.700001"
       x="1.3" /><rect
       style="fill:#783189"
       id="rect19"
       height="0.89999998"
       width="0.89999998"
       y="14.7"
       x="5.4000001" /><rect
       style="fill:#783189"
       id="rect21"
       height="0.89999998"
       width="0.89999998"
       y="15.5"
       x="5.4000001" /><rect
       style="fill:#783189"
       id="rect23"
       height="0.89999998"
       width="0.89999998"
       y="16.299999"
       x="5.4000001" /><rect
       style="fill:#783189"
       id="rect25"
       height="0.89999998"
       width="0.89999998"
       y="17.1"
       x="5.4000001" /><rect
       style="fill:#783189"
       id="rect27"
       height="0.89999998"
       width="0.89999998"
       y="14.7"
       x="6.1999998" /><rect
       style="fill:#783189"
       id="rect29"
       height="0.89999998"
       width="0.89999998"
       y="15.5"
       x="6.1999998" /><rect
       style="fill:#783189"
       id="rect31"
       height="0.89999998"
       width="0.89999998"
       y="16.299999"
       x="6.1999998" /><rect
       style="fill:#783189"
       id="rect33"
       height="0.89999998"
       width="0.89999998"
       y="17.1"
       x="6.1999998" /><rect
       style="fill:#783189"
       id="rect35"
       height="0.89999998"
       width="0.89999998"
       y="14.3"
       x="7.1999998" /><rect
       style="fill:#783189"
       id="rect37"
       height="0.89999998"
       width="0.89999998"
       y="15.5"
       x="7" /><rect
       style="fill:#783189"
       id="rect39"
       height="0.89999998"
       width="0.89999998"
       y="16.299999"
       x="7" /><rect
       style="fill:#783189"
       id="rect41"
       height="0.89999998"
       width="0.89999998"
       y="17.1"
       x="7" /><rect
       style="fill:#783189"
       id="rect43"
       height="0.89999998"
       width="0.89999998"
       y="9.6999998"
       x="11.7" /><rect
       style="fill:#783189"
       id="rect45"
       height="0.89999998"
       width="0.89999998"
       y="15.1"
       x="8.1000004" /><rect
       style="fill:#783189"
       id="rect47"
       height="0.89999998"
       width="0.89999998"
       y="16.299999"
       x="7.8000002" /><rect
       style="fill:#783189"
       id="rect49"
       height="0.89999998"
       width="0.89999998"
       y="17.1"
       x="7.8000002" /><rect
       style="fill:#783189"
       id="rect51"
       height="3.5999999"
       width="3.5999999"
       y="19.200001"
       x="4.5" /><rect
       style="fill:#783189"
       id="rect53"
       height="3.5999999"
       width="3.5999999"
       y="22.5"
       x="4.5" /><rect
       style="fill:#783189"
       id="rect55"
       height="3.5999999"
       width="3.5999999"
       y="25.700001"
       x="4.5" /><rect
       style="fill:#783189"
       id="rect57"
       height="0.89999998"
       width="0.89999998"
       y="13.6"
       x="9.6999998" /><rect
       style="fill:#783189"
       id="rect59"
       height="0.89999998"
       width="0.89999998"
       y="14.4"
       x="9.6999998" /><rect
       style="fill:#783189"
       id="rect61"
       height="0.89999998"
       width="0.89999998"
       y="15.2"
       x="9.6999998" /><rect
       style="fill:#783189"
       id="rect63"
       height="0.89999998"
       width="0.89999998"
       y="16.1"
       x="9.6999998" /><rect
       style="fill:#783189"
       id="rect65"
       height="0.89999998"
       width="0.89999998"
       y="12.9"
       x="10.9" /><rect
       style="fill:#783189"
       id="rect67"
       height="0.89999998"
       width="0.89999998"
       y="14.4"
       x="10.5" /><rect
       style="fill:#783189"
       id="rect69"
       height="0.89999998"
       width="0.89999998"
       y="15.2"
       x="10.5" /><rect
       style="fill:#783189"
       id="rect71"
       height="0.89999998"
       width="0.89999998"
       y="16.1"
       x="10.5" /><rect
       style="fill:#783189"
       id="rect73"
       height="0.89999998"
       width="0.89999998"
       y="8"
       x="15.5" /><rect
       style="fill:#783189"
       id="rect75"
       height="0.89999998"
       width="0.89999998"
       y="13.8"
       x="11.9" /><rect
       style="fill:#783189"
       id="rect77"
       height="0.89999998"
       width="0.89999998"
       y="15.2"
       x="11.3" /><rect
       style="fill:#783189"
       id="rect79"
       height="0.89999998"
       width="0.89999998"
       y="16.1"
       x="11.3" /><rect
       style="fill:#783189"
       id="rect81"
       height="0.89999998"
       width="0.89999998"
       y="8"
       x="19.200001" /><rect
       style="fill:#783189"
       id="rect83"
       height="0.89999998"
       width="0.89999998"
       y="9.8999996"
       x="17.200001" /><rect
       style="fill:#783189"
       id="rect85"
       height="0.89999998"
       width="0.89999998"
       y="14.8"
       x="12.8" /><rect
       style="fill:#783189"
       id="rect87"
       height="0.89999998"
       width="0.89999998"
       y="16.1"
       x="12.1" /><rect
       style="fill:#783189"
       id="rect89"
       height="0.89999998"
       width="0.89999998"
       y="18.200001"
       x="8.8000002" /><rect
       style="fill:#783189"
       id="rect91"
       height="0.89999998"
       width="0.89999998"
       y="19"
       x="8.8000002" /><rect
       style="fill:#783189"
       id="rect93"
       height="0.89999998"
       width="0.89999998"
       y="19.799999"
       x="8.8000002" /><rect
       style="fill:#783189"
       id="rect95"
       height="0.89999998"
       width="0.89999998"
       y="20.6"
       x="8.8000002" /><rect
       style="fill:#783189"
       id="rect97"
       height="0.89999998"
       width="0.89999998"
       y="18.200001"
       x="9.6999998" /><rect
       style="fill:#783189"
       id="rect99"
       height="0.89999998"
       width="0.89999998"
       y="19"
       x="9.6999998" /><rect
       style="fill:#783189"
       id="rect101"
       height="0.89999998"
       width="0.89999998"
       y="19.799999"
       x="9.6999998" /><rect
       style="fill:#783189"
       id="rect103"
       height="0.89999998"
       width="0.89999998"
       y="20.6"
       x="9.6999998" /><rect
       style="fill:#783189"
       id="rect105"
       height="0.89999998"
       width="0.89999998"
       y="17.799999"
       x="10.8" /><rect
       style="fill:#783189"
       id="rect107"
       height="0.89999998"
       width="0.89999998"
       y="19"
       x="10.5" /><rect
       style="fill:#783189"
       id="rect109"
       height="0.89999998"
       width="0.89999998"
       y="19.799999"
       x="10.5" /><rect
       style="fill:#783189"
       id="rect111"
       height="0.89999998"
       width="0.89999998"
       y="20.6"
       x="10.5" /><rect
       style="fill:#783189"
       id="rect113"
       height="0.89999998"
       width="0.89999998"
       y="13.8"
       x="15.7" /><rect
       style="fill:#783189"
       id="rect115"
       height="0.89999998"
       width="0.89999998"
       y="18.700001"
       x="11.7" /><rect
       style="fill:#783189"
       id="rect117"
       height="0.89999998"
       width="0.89999998"
       y="19.799999"
       x="11.3" /><rect
       style="fill:#783189"
       id="rect119"
       height="0.89999998"
       width="0.89999998"
       y="20.6"
       x="11.3" /><rect
       style="fill:#783189"
       id="rect121"
       height="3.5999999"
       width="3.5999999"
       y="22.5"
       x="7.8000002" /><rect
       style="fill:#783189"
       id="rect123"
       height="3.5999999"
       width="3.5999999"
       y="25.700001"
       x="7.8000002" /><rect
       style="fill:#783189"
       id="rect125"
       height="0.89999998"
       width="0.89999998"
       y="12.7"
       x="14.3" /><rect
       style="fill:#783189"
       id="rect127"
       height="0.89999998"
       width="0.89999998"
       y="13.6"
       x="14.3" /><rect
       style="fill:#783189"
       id="rect129"
       height="0.89999998"
       width="0.89999998"
       y="14.4"
       x="14.3" /><rect
       style="fill:#783189"
       id="rect131"
       height="0.89999998"
       width="0.89999998"
       y="15.2"
       x="14.3" /><rect
       style="fill:#783189"
       id="rect133"
       height="0.89999998"
       width="0.89999998"
       y="7.4000001"
       x="18.700001" /><rect
       style="fill:#783189"
       id="rect135"
       height="0.89999998"
       width="0.89999998"
       y="13.6"
       x="15.1" /><rect
       style="fill:#783189"
       id="rect137"
       height="0.89999998"
       width="0.89999998"
       y="14.4"
       x="15.1" /><rect
       style="fill:#783189"
       id="rect139"
       height="0.89999998"
       width="0.89999998"
       y="15.2"
       x="15.1" /><rect
       style="fill:#783189"
       id="rect141"
       height="0.89999998"
       width="0.89999998"
       y="4"
       x="23.4" /><g
       id="g143"><g
         id="g145"><defs
           id="defs147"><rect
             height="0.89999998"
             width="0.89999998"
             y="12.1"
             x="17.799999"
             id="SVGID_1_" /></defs><use
           height="30.6"
           width="113.5"
           y="0"
           x="0"
           style="fill:#783189;overflow:visible"
           id="use150"
           overflow="visible"
           xlink:href="#SVGID_1_" /><clipPath
           id="SVGID_2_"><use
             height="30.6"
             width="113.5"
             y="0"
             x="0"
             style="overflow:visible"
             id="use153"
             overflow="visible"
             xlink:href="#SVGID_1_" /></clipPath><rect
           style="fill:#783189"
           id="rect155"
           height="0.89999998"
           width="0.89999998"
           clip-path="url(#SVGID_2_)"
           y="12.1"
           x="17.799999" /></g></g><rect
       style="fill:#783189"
       id="rect157"
       height="0.89999998"
       width="0.89999998"
       y="14.4"
       x="15.9" /><rect
       style="fill:#783189"
       id="rect159"
       height="0.89999998"
       width="0.89999998"
       y="15.2"
       x="15.9" /><rect
       style="fill:#783189"
       id="rect161"
       height="0.89999998"
       width="0.89999998"
       y="1.3"
       x="28.299999" /><rect
       style="fill:#783189"
       id="rect163"
       height="0.89999998"
       width="0.89999998"
       y="5.8000002"
       x="26.1" /><rect
       style="fill:#783189"
       id="rect165"
       height="0.89999998"
       width="0.89999998"
       y="11"
       x="21.5" /><rect
       style="fill:#783189"
       id="rect167"
       height="0.89999998"
       width="0.89999998"
       y="15.2"
       x="16.700001" /><rect
       style="fill:#783189"
       id="rect169"
       height="0.89999998"
       width="0.89999998"
       y="17.299999"
       x="13.4" /><rect
       style="fill:#783189"
       id="rect171"
       height="0.89999998"
       width="0.89999998"
       y="18.1"
       x="13.4" /><rect
       style="fill:#783189"
       id="rect173"
       height="0.89999998"
       width="0.89999998"
       y="18.9"
       x="13.4" /><rect
       style="fill:#783189"
       id="rect175"
       height="0.89999998"
       width="0.89999998"
       y="19.700001"
       x="13.4" /><rect
       style="fill:#783189"
       id="rect177"
       height="0.89999998"
       width="0.89999998"
       y="16.6"
       x="14.7" /><rect
       style="fill:#783189"
       id="rect179"
       height="0.89999998"
       width="0.89999998"
       y="18.1"
       x="14.2" /><rect
       style="fill:#783189"
       id="rect181"
       height="0.89999998"
       width="0.89999998"
       y="18.9"
       x="14.2" /><rect
       style="fill:#783189"
       id="rect183"
       height="0.89999998"
       width="0.89999998"
       y="19.700001"
       x="14.2" /><rect
       style="fill:#783189"
       id="rect185"
       height="0.89999998"
       width="0.89999998"
       y="12.1"
       x="19.9" /><rect
       style="fill:#783189"
       id="rect187"
       height="0.89999998"
       width="0.89999998"
       y="17.6"
       x="15.6" /><rect
       style="fill:#783189"
       id="rect189"
       height="0.89999998"
       width="0.89999998"
       y="18.9"
       x="15" /><rect
       style="fill:#783189"
       id="rect191"
       height="0.89999998"
       width="0.89999998"
       y="19.700001"
       x="15" /><rect
       style="fill:#783189"
       id="rect193"
       height="0.89999998"
       width="0.89999998"
       y="10.6"
       x="21.6" /><rect
       style="fill:#783189"
       id="rect195"
       height="0.89999998"
       width="0.89999998"
       y="14.1"
       x="20.299999" /><rect
       style="fill:#783189"
       id="rect197"
       height="0.89999998"
       width="0.89999998"
       y="18.5"
       x="16.6" /><rect
       style="fill:#783189"
       id="rect199"
       height="0.89999998"
       width="0.89999998"
       y="19.700001"
       x="15.8" /><rect
       style="fill:#783189"
       id="rect201"
       height="0.89999998"
       width="0.89999998"
       y="21.6"
       x="12.3" /><rect
       style="fill:#783189"
       id="rect203"
       height="0.89999998"
       width="0.89999998"
       y="22.4"
       x="12.3" /><rect
       style="fill:#783189"
       id="rect205"
       height="0.89999998"
       width="0.89999998"
       y="23.200001"
       x="12.3" /><rect
       style="fill:#783189"
       id="rect207"
       height="0.89999998"
       width="0.89999998"
       y="24.1"
       x="12.3" /><rect
       style="fill:#783189"
       id="rect209"
       height="0.89999998"
       width="0.89999998"
       y="21.6"
       x="13.1" /><rect
       style="fill:#783189"
       id="rect211"
       height="0.89999998"
       width="0.89999998"
       y="22.4"
       x="13.1" /><rect
       style="fill:#783189"
       id="rect213"
       height="0.89999998"
       width="0.89999998"
       y="23.200001"
       x="13.1" /><rect
       style="fill:#783189"
       id="rect215"
       height="0.89999998"
       width="0.89999998"
       y="24.1"
       x="13.1" /><rect
       style="fill:#783189"
       id="rect217"
       height="0.89999998"
       width="0.89999998"
       y="21.299999"
       x="14.3" /><rect
       style="fill:#783189"
       id="rect219"
       height="0.89999998"
       width="0.89999998"
       y="22.4"
       x="13.9" /><rect
       style="fill:#783189"
       id="rect221"
       height="0.89999998"
       width="0.89999998"
       y="23.200001"
       x="13.9" /><rect
       style="fill:#783189"
       id="rect223"
       height="0.89999998"
       width="0.89999998"
       y="24.1"
       x="13.9" /><rect
       style="fill:#783189"
       id="rect225"
       height="0.89999998"
       width="0.89999998"
       y="17.799999"
       x="19.799999" /><rect
       style="fill:#783189"
       id="rect227"
       height="0.89999998"
       width="0.89999998"
       y="22.200001"
       x="15.2" /><rect
       style="fill:#783189"
       id="rect229"
       height="0.89999998"
       width="0.89999998"
       y="23.200001"
       x="14.7" /><rect
       style="fill:#783189"
       id="rect231"
       height="0.89999998"
       width="0.89999998"
       y="24.1"
       x="14.7" /><rect
       style="fill:#783189"
       id="rect233"
       height="3.5999999"
       width="3.5999999"
       y="25.700001"
       x="11" /></g>
</svg>
