<?xml version="1.0" encoding="utf-8"?>
<!-- Generator: Adobe Illustrator 19.1.1, SVG Export Plug-In . SVG Version: 6.00 Build 0)  -->
<svg version="1.1" id="Layer_1" xmlns="http://www.w3.org/2000/svg" xmlns:xlink="http://www.w3.org/1999/xlink" x="0px" y="0px"
	 viewBox="-283 90 393 382" style="enable-background:new -283 90 393 382;" xml:space="preserve">
<style type="text/css">
	.st0{fill:#D8D8EA;}
	.st1{opacity:0.4;}
	.st2{fill:#D8D8EA;stroke:#B6B6D8;stroke-width:4;stroke-miterlimit:10;}
	.st3{fill:#4C4277;}
	.st4{fill:#FFFFFF;}
</style>
<circle class="st0" cx="-144.5" cy="226.7" r="50.7"/>
<g class="st1">
	<g>
		<path class="st0" d="M-83.6,393.7c8.8,3.3,19.8,2.2,27.4-2.2c6.6-3.3,11-8.8,14.2-14.2h-62.5C-100,384.9-92.3,391.5-83.6,393.7z"
			/>
		<path class="st0" d="M25,353.1c0-4.4-2.2-7.7-6.6-9.9c-16.4-9.9-23-25.2-23-43.9c0-11,0-21.9,0-31.8c0-30.7-18.6-57.1-46.1-66.9
			c-4.4-2.2-6.6-3.3-7.7-4.4c0-1.1,1.1-3.3,1.1-4.4c0-9.9-6.6-17.6-15.4-17.6s-15.4,7.7-15.4,17.6c0,2.2,1.1,4.4,1.1,5.5
			c-1.1,1.1-2.2,1.1-5.5,2.2c-26.2,8.9-47.1,33-48.1,60.4c-1.1,14.2-1.1,28.5-1.1,41.7c0,7.7-1.1,15.4-4.4,21.9
			c-3.3,6.5-8.8,12.1-15.4,16.4c-2.2,1.1-6.6,5.5-6.6,11c0,4.4,0,5.5,0,11H25C25,361.8,25,356.4,25,353.1z"/>
	</g>
</g>
<g>
	<g>
		<path class="st2" d="M-91.4,385.9c8.8,3.3,19.8,2.2,27.4-2.2c6.6-3.3,11-8.8,14.2-14.2h-62.5C-107.8,377.1-100.1,383.7-91.4,385.9
			z"/>
		<path class="st2" d="M17.2,345.3c0-4.4-2.2-7.7-6.6-9.9c-16.4-9.9-23-25.2-23-43.9c0-11,0-21.9,0-31.8c0-30.7-18.6-57.1-46.1-66.9
			c-4.4-2.2-6.6-3.3-7.7-4.4c0-1.1,1.1-3.3,1.1-4.4c0-9.9-6.6-17.6-15.4-17.6s-15.4,7.7-15.4,17.6c0,2.2,1.1,4.4,1.1,5.5
			c-1.1,1.1-2.2,1.1-5.5,2.2c-26.2,8.9-47.1,33-48.1,60.4c-1.1,14.2-1.1,28.5-1.1,41.7c0,7.7-1.1,15.4-4.4,21.9
			c-3.3,6.6-8.8,12.1-15.4,16.4c-2.2,1.1-6.6,5.5-6.6,11c0,4.4,0,5.5,0,11h193C17.2,354.1,17.2,348.6,17.2,345.3z"/>
	</g>
</g>
<circle class="st3" cx="-147.3" cy="221" r="50.7"/>
<g>
	<path class="st4" d="M-163.3,237.9c2.1,1.3,6.9,3.4,11.9,3.4c9.4,0,12.3-6,12.1-10.4c-0.1-7.5-6.9-10.8-13.9-10.8h-4v-5.5h4
		c5.3,0,12-2.7,12-9.1c0-4.3-2.7-8.1-9.4-8.1c-4.3,0-8.4,1.9-10.8,3.5l-1.9-5.3c2.8-2.1,8.3-4.1,14-4.1c10.6,0,15.4,6.3,15.4,12.8
		c0,5.5-3.3,10.3-9.9,12.6v0.1c6.6,1.3,12,6.3,12,13.8c0,8.6-6.7,16.1-19.6,16.1c-6,0-11.3-1.9-14-3.6L-163.3,237.9z"/>
</g>
</svg>
