<?xml version="1.0" encoding="utf-8"?>
<!-- Generator: Adobe Illustrator 19.1.1, SVG Export Plug-In . SVG Version: 6.00 Build 0)  -->
<svg version="1.1" id="Layer_1" xmlns="http://www.w3.org/2000/svg" xmlns:xlink="http://www.w3.org/1999/xlink" x="0px" y="0px"
	 viewBox="-203 50 393 382" style="enable-background:new -203 50 393 382;" xml:space="preserve">
<style type="text/css">
	.st0{fill:#D8D8EA;}
	.st1{opacity:0.4;}
	.st2{fill:#D8D8EA;stroke:#B6B6D8;stroke-width:4;stroke-miterlimit:10;}
	.st3{fill:#4C4277;}
	.st4{fill:#FFFFFF;}
</style>
<circle class="st0" cx="-87.4" cy="169.9" r="71.5"/>
<g class="st1">
	<g>
		<path class="st0" d="M-1.5,405.5c12.4,4.6,27.9,3.1,38.7-3.1c9.3-4.6,15.5-12.4,20.1-20.1h-88.2C-24.7,393.1-13.8,402.4-1.5,405.5
			z"/>
		<path class="st0" d="M151.7,348.2c0-6.2-3.1-10.8-9.3-13.9c-23.2-13.9-32.5-35.6-32.5-61.9c0-15.5,0-30.9,0-44.9
			c0-43.3-26.3-80.5-65-94.4c-6.2-3.1-9.3-4.6-10.8-6.2c0-1.5,1.5-4.6,1.5-6.2c0-13.9-9.3-24.8-21.7-24.8s-21.7,10.8-21.7,24.8
			c0,3.1,1.5,6.2,1.5,7.7c-1.5,1.5-3.1,1.5-7.7,3.1C-51,144-80.4,178-81.9,216.7c-1.5,20.1-1.5,40.2-1.5,58.8
			c0,10.8-1.5,21.7-6.2,30.9s-12.4,17-21.7,23.2c-3.1,1.5-9.3,7.7-9.3,15.5c0,6.2,0,7.7,0,15.5h272.3
			C151.7,360.6,151.7,352.9,151.7,348.2z"/>
	</g>
</g>
<g>
	<g>
		<path class="st2" d="M-12.5,394.5c12.4,4.6,27.9,3.1,38.7-3.1c9.3-4.6,15.5-12.4,20.1-20.1h-88.2
			C-35.7,382.1-24.8,391.4-12.5,394.5z"/>
		<path class="st2" d="M140.7,337.2c0-6.2-3.1-10.8-9.3-13.9c-23.2-13.9-32.5-35.6-32.5-61.9c0-15.5,0-30.9,0-44.9
			c0-43.3-26.3-80.5-65-94.4c-6.2-3.1-9.3-4.6-10.8-6.2c0-1.5,1.5-4.6,1.5-6.2c0-13.9-9.3-24.8-21.7-24.8s-21.7,10.8-21.7,24.8
			c0,3.1,1.5,6.2,1.5,7.7c-1.5,1.5-3.1,1.5-7.7,3.1C-62,133-91.4,167-92.9,205.7c-1.5,20.1-1.5,40.2-1.5,58.8
			c0,10.8-1.5,21.7-6.2,30.9c-4.6,9.3-12.4,17-21.7,23.2c-3.1,1.5-9.3,7.7-9.3,15.5c0,6.2,0,7.7,0,15.5h272.3
			C140.7,349.6,140.7,341.9,140.7,337.2z"/>
	</g>
</g>
<circle class="st3" cx="-91.4" cy="161.9" r="71.5"/>
<g>
	<path class="st4" d="M-113.9,185.8c2.9,1.9,9.7,4.8,16.8,4.8c13.2,0,17.3-8.4,17.1-14.7c-0.1-10.6-9.7-15.2-19.6-15.2h-5.7V153h5.7
		c7.5,0,16.9-3.8,16.9-12.8c0-6.1-3.8-11.4-13.3-11.4c-6.1,0-11.9,2.7-15.2,5l-2.7-7.5c4-2.9,11.7-5.8,19.8-5.8
		c14.9,0,21.7,8.9,21.7,18.1c0,7.8-4.7,14.5-14,17.8v0.2c9.3,1.9,16.9,8.9,16.9,19.5c0,12.1-9.4,22.7-27.6,22.7
		c-8.5,0-16-2.7-19.7-5.1L-113.9,185.8z"/>
</g>
</svg>
