<?xml version="1.0" encoding="utf-8"?>
<!-- Generator: Adobe Illustrator 19.1.1, SVG Export Plug-In . SVG Version: 6.00 Build 0)  -->
<svg version="1.1" id="Layer_1" xmlns="http://www.w3.org/2000/svg" xmlns:xlink="http://www.w3.org/1999/xlink" x="0px" y="0px"
	 viewBox="-181 169 597 223" style="enable-background:new -181 169 597 223;" xml:space="preserve">
<style type="text/css">
	.st0{opacity:0.4;}
	.st1{fill:#D8D8EA;}
	.st2{fill:none;stroke:#B6B6D8;stroke-width:4;stroke-miterlimit:10;}
	.st3{fill:#B6B6D8;}
</style>
<g class="st0">
	<g>
		<path class="st1" d="M162.1,267.3c0-7.6-3-13.7-7.6-19c0.8-1.5,3-9.1-0.8-19c0,0-6.1-1.5-19.8,7.6c-4.6-1.5-10.7-2.3-16.8-2.3
			s-12.2,0.8-17.5,2.3c-13.7-9.1-19.8-7.6-19.8-7.6c-3.8,9.9-1.5,16.8-0.8,19c-4.6,4.6-7.6,11.4-7.6,19c0,25.1,13.7,32,28.2,34.3
			c0.8,0,1.5,0,2.3,0c-0.8,1.5-1.5,3.8-2.3,6.9c-3.8,1.5-13,4.6-18.3-5.3c0,0-3-6.1-9.9-6.1c0,0-6.1,0-0.8,3.8c0,0,3.8,2.3,6.9,9.1
			c0,0,3,11.4,19,9.1c0.8,0,1.5,0,2.3-0.8l0,0c0,5.3,0,9.1,0,10.7c0,0.8,0,5.3-0.8,9.1l0,0c-1.5,1.5-3.8,2.3-4.6,3s0,1.5,0.8,2.3
			c0,0,0.8,0,1.5,0c1.5,0,3,0,5.3-1.5c3.8-1.5,4.6-4.6,4.6-7.6s0-16.8,0-16.8s0-3,0.8-4.6c2.3-1.5,2.3-1.5,3-1.5l0,0v30.5
			c0,0,0,1.5-0.8,3c0,0-0.8,0.8-1.5,1.5c-0.8,0.8-1.5,0.8-1.5,1.5c0,1.5,0.8,2.3,3,1.5c1.5,0,3.8-1.5,6.1-3l0.8-0.8
			c1.5-2.3,1.5-3.8,1.5-5.3c0-0.8,0-29.7,0-29.7s0-0.8,0.8-0.8s0.8,0.8,0.8,0.8s0,29,0,29.7c0,0.8,0,3,1.5,5.3c0,0,0,0,0,0.8
			c1.5,2.3,3.8,3,6.1,3s3-0.8,3-1.5c0-0.8-1.5-1.5-2.3-2.3l-0.8-0.8c-0.8-0.8-0.8-3-0.8-3v-31.2l0,0c0,0,0.8,0.8,1.5,2.3
			c0.8,2.3,0.8,4.6,0.8,4.6s0,13.7,0,16.8c0,2.3,0.8,4.6,3,6.1c0.8,0.8,1.5,0.8,2.3,1.5c3.8,1.5,6.1,1.5,6.9,0.8
			c0.8,0,1.5-1.5,0.8-2.3c-0.8-0.8-2.3-1.5-4.6-3.8c-0.8-1.5-0.8-4.6-0.8-4.6s0-18.3,0-19.8c0-3-1.5-6.9-1.5-6.9s-1.5-2.3-2.3-3.8
			l-0.8-0.8C147.7,299.3,162.1,292.4,162.1,267.3z"/>
	</g>
</g>
<g class="st0">
	<g>
		<path id="Google_1_" class="st1" d="M-98.7,232.7h-32.4c-8.9,0-19.5,1.6-28.4,8.9c-6.5,5.7-10.5,13.8-10.5,21.1
			c0,12.2,9.7,25.1,25.9,25.1c1.6,0,3.2,0,4.9,0c0,1.6-0.8,3.2-0.8,5.7c0,4.9,2.4,8.1,4.9,10.5c-7.3,0.8-20.3,1.6-30,7.3
			c-8.9,5.7-12.2,13.8-12.2,19.5c0,11.3,11.3,22.7,34,22.7c27.6,0,41.3-14.6,41.3-30c0-10.5-6.5-16.2-13-21.9l-5.7-4.1
			c-2.4-2.4-4.9-4.1-4.9-7.3s2.4-5.7,4.1-8.1c6.5-4.9,13-10.5,13-22.7c0-12.2-7.3-18.6-11.3-21.1h9.8L-98.7,232.7z M-112.5,329.2
			c0,9.7-10.5,16.2-25.1,16.2c-17.8,0-25.9-6.5-25.9-17.8s9.7-14.6,13.8-16.2c6.5-2.4,15.4-2.4,16.2-2.4c1.6,0,2.4,0,3.2,0
			C-118.2,317-112.5,321.9-112.5,329.2z M-125.5,278.9c-2.4,2.4-6.5,4.1-10.5,4.1c-13.8,0-19.5-17-19.5-27.6c0-4.1,0.8-8.1,3.2-11.3
			c2.4-3.2,7.3-4.9,11.3-4.9c13,0,20.3,17.8,20.3,29.2C-121.4,270-121.4,274.9-125.5,278.9z"/>
		<rect x="-80.9" y="272.4" class="st1" width="7.3" height="34.9"/>
		<rect x="-93.8" y="286.2" class="st1" width="34" height="7.3"/>
	</g>
</g>
<g class="st0">
	<path class="st1" d="M368.2,235.1c0.9,0,1.7,0,2.6,0c1.3,0.2,2.6,0.3,3.9,0.5c5.4,1.1,10,3.6,13.8,7.5c0.3,0.3,0.5,0.4,0.9,0.3
		c4.6-1,9-2.5,13.3-4.7c1-0.5,1.9-1,3-1.6c-2.1,6.2-5.9,11-11.3,14.5c5.1-0.6,10-1.9,14.8-4c-0.1,0.2-0.1,0.2-0.1,0.3
		c-0.1,0.2-0.3,0.4-0.4,0.7c-3.4,4.8-7.4,8.9-12.1,12.3c-0.3,0.2-0.4,0.5-0.4,0.8c0.2,5.6-0.2,11.1-1.2,16.5
		c-1.8,9.2-5.1,17.9-10,26c-5.9,9.7-13.5,17.8-23.1,24c-11.9,7.7-25.1,11.3-39.2,11.6c-5.2,0.1-10.4-0.3-15.6-1.3
		c-9.3-1.8-18-5.2-26-10.2c-0.1-0.1-0.2-0.1-0.3-0.2c14.4,1.4,27.2-2.2,38.7-11c-3.7-0.2-7.2-1-10.5-2.5c-3.3-1.6-6.2-3.7-8.7-6.5
		c-2.4-2.7-4.2-5.8-5.3-9.4c4,0.7,7.8,0.6,11.6-0.5c-14.7-3.3-21.4-16.7-20.8-26.2c3.7,2,7.5,3.1,11.7,3.2c-5.6-4-9.3-9.3-10.9-16
		c-1.5-6.7-0.5-13.1,2.8-19.1c14.3,16.9,32.4,26.1,54.5,27.6c-0.1-0.4-0.1-0.6-0.1-0.8c-1-4.9-0.7-9.8,1.1-14.4
		c3.5-9,10-14.6,19.5-16.7C365.6,235.3,366.9,235.2,368.2,235.1z"/>
</g>
<g class="st0">
	<g>
		<line class="st2" x1="-40" y1="290.3" x2="50" y2="290.3"/>
		<g>
			<circle class="st3" cx="-39.8" cy="290.3" r="4.5"/>
		</g>
		<g>
			<circle class="st3" cx="49.7" cy="290.3" r="4.5"/>
		</g>
	</g>
</g>
<g class="st0">
	<g>
		<line class="st2" x1="178.9" y1="290.3" x2="268.9" y2="290.3"/>
		<g>
			<circle class="st3" cx="179.1" cy="290.3" r="4.5"/>
		</g>
		<g>
			<circle class="st3" cx="268.6" cy="290.3" r="4.5"/>
		</g>
	</g>
</g>
<g>
	<g>
		<path class="st3" d="M160.1,263.3c0-7.6-3-13.7-7.6-19c0.8-1.5,3-9.1-0.8-19c0,0-6.1-1.5-19.8,7.6c-4.6-1.5-10.7-2.3-16.8-2.3
			s-12.2,0.8-17.5,2.3c-13.7-9.1-19.8-7.6-19.8-7.6c-3.8,9.9-1.5,16.8-0.8,19c-4.6,4.6-7.6,11.4-7.6,19c0,25.1,13.7,32,28.2,34.3
			c0.8,0,1.5,0,2.3,0c-0.8,1.5-1.5,3.8-2.3,6.9c-3.8,1.5-13,4.6-18.3-5.3c0,0-3-6.1-9.9-6.1c0,0-6.1,0-0.8,3.8c0,0,3.8,2.3,6.9,9.1
			c0,0,3,11.4,19,9.1c0.8,0,1.5,0,2.3-0.8l0,0c0,5.3,0,9.1,0,10.7c0,0.8,0,5.3-0.8,9.1l0,0c-1.5,1.5-3.8,2.3-4.6,3s0,1.5,0.8,2.3
			c0,0,0.8,0,1.5,0c1.5,0,3,0,5.3-1.5c3.8-1.5,4.6-4.6,4.6-7.6s0-16.8,0-16.8s0-3,0.8-4.6c2.3-1.5,2.3-1.5,3-1.5l0,0v30.5
			c0,0,0,1.5-0.8,3c0,0-0.8,0.8-1.5,1.5c-0.8,0.8-1.5,0.8-1.5,1.5c0,1.5,0.8,2.3,3,1.5c1.5,0,3.8-1.5,6.1-3l0.8-0.8
			c1.5-2.3,1.5-3.8,1.5-5.3c0-0.8,0-29.7,0-29.7s0-0.8,0.8-0.8s0.8,0.8,0.8,0.8s0,29,0,29.7c0,0.8,0,3,1.5,5.3c0,0,0,0,0,0.8
			c1.5,2.3,3.8,3,6.1,3s3-0.8,3-1.5c0-0.8-1.5-1.5-2.3-2.3l-0.8-0.8c-0.8-0.8-0.8-3-0.8-3v-31.2l0,0c0,0,0.8,0.8,1.5,2.3
			c0.8,2.3,0.8,4.6,0.8,4.6s0,13.7,0,16.8c0,2.3,0.8,4.6,3,6.1c0.8,0.8,1.5,0.8,2.3,1.5c3.8,1.5,6.1,1.5,6.9,0.8
			c0.8,0,1.5-1.5,0.8-2.3c-0.8-0.8-2.3-1.5-4.6-3.8c-0.8-1.5-0.8-4.6-0.8-4.6s0-18.3,0-19.8c0-3-1.5-6.9-1.5-6.9s-1.5-2.3-2.3-3.8
			l-0.8-0.8C145.7,295.3,160.1,288.4,160.1,263.3z"/>
	</g>
</g>
<g>
	<g>
		<path id="Google_24_" class="st3" d="M-100.7,228.7h-32.4c-8.9,0-19.5,1.6-28.4,8.9c-6.5,5.7-10.5,13.8-10.5,21.1
			c0,12.2,9.7,25.1,25.9,25.1c1.6,0,3.2,0,4.9,0c0,1.6-0.8,3.2-0.8,5.7c0,4.9,2.4,8.1,4.9,10.5c-7.3,0.8-20.3,1.6-30,7.3
			c-8.9,5.7-12.2,13.8-12.2,19.5c0,11.3,11.3,22.7,34,22.7c27.6,0,41.3-14.6,41.3-30c0-10.5-6.5-16.2-13-21.9l-5.7-4.1
			c-2.4-2.4-4.9-4.1-4.9-7.3s2.4-5.7,4.1-8.1c6.5-4.9,13-10.5,13-22.7s-7.3-18.6-11.3-21.1h9.8L-100.7,228.7z M-114.5,325.2
			c0,9.7-10.5,16.2-25.1,16.2c-17.8,0-25.9-6.5-25.9-17.8s9.7-14.6,13.8-16.2c6.5-2.4,15.4-2.4,16.2-2.4c1.6,0,2.4,0,3.2,0
			C-120.2,313-114.5,317.9-114.5,325.2z M-127.5,274.9c-2.4,2.4-6.5,4.1-10.5,4.1c-13.8,0-19.5-17-19.5-27.6c0-4.1,0.8-8.1,3.2-11.3
			c2.4-3.2,7.3-4.9,11.3-4.9c13,0,20.3,17.8,20.3,29.2C-123.4,266-123.4,270.9-127.5,274.9z"/>
		<polygon class="st3" points="-75.6,282.2 -75.6,268.4 -82.9,268.4 -82.9,282.2 -95.9,282.2 -95.9,289.5 -82.9,289.5 -82.9,303.3 
			-75.6,303.3 -75.6,289.5 -61.8,289.5 -61.8,282.2 		"/>
	</g>
</g>
<g>
	<path class="st3" d="M366.2,231.1c0.9,0,1.7,0,2.6,0c1.3,0.2,2.6,0.3,3.9,0.5c5.4,1.1,10,3.6,13.8,7.5c0.3,0.3,0.5,0.4,0.9,0.3
		c4.6-1,9-2.5,13.3-4.7c1-0.5,1.9-1,3-1.6c-2.1,6.2-5.9,11-11.3,14.5c5.1-0.6,10-1.9,14.8-4c-0.1,0.2-0.1,0.2-0.1,0.3
		c-0.1,0.2-0.3,0.4-0.4,0.7c-3.4,4.8-7.4,8.9-12.1,12.3c-0.3,0.2-0.4,0.5-0.4,0.8c0.2,5.6-0.2,11.1-1.2,16.5
		c-1.8,9.2-5.1,17.9-10,26c-5.9,9.7-13.5,17.8-23.1,24c-11.9,7.7-25.1,11.3-39.2,11.6c-5.2,0.1-10.4-0.3-15.6-1.3
		c-9.3-1.8-18-5.2-26-10.2c-0.1-0.1-0.2-0.1-0.3-0.2c14.4,1.4,27.2-2.2,38.7-11c-3.7-0.2-7.2-1-10.5-2.5c-3.3-1.6-6.2-3.7-8.7-6.5
		c-2.4-2.7-4.2-5.8-5.3-9.4c4,0.7,7.8,0.6,11.6-0.5c-14.7-3.3-21.4-16.7-20.8-26.2c3.7,2,7.5,3.1,11.7,3.2c-5.6-4-9.3-9.3-10.9-16
		c-1.5-6.7-0.5-13.1,2.8-19.1c14.3,16.9,32.4,26.1,54.5,27.6c-0.1-0.4-0.1-0.6-0.1-0.8c-1-4.9-0.7-9.8,1.1-14.4
		c3.5-9,10-14.6,19.5-16.7C363.6,231.3,364.9,231.2,366.2,231.1z"/>
</g>
<g>
	<g>
		<line class="st2" x1="-42" y1="286.3" x2="48" y2="286.3"/>
		<g>
			<circle class="st3" cx="-41.8" cy="286.3" r="4.5"/>
		</g>
		<g>
			<circle class="st3" cx="47.7" cy="286.3" r="4.5"/>
		</g>
	</g>
</g>
<g>
	<g>
		<line class="st2" x1="176.9" y1="286.3" x2="266.9" y2="286.3"/>
		<g>
			<circle class="st3" cx="177.1" cy="286.3" r="4.5"/>
		</g>
		<g>
			<circle class="st3" cx="266.6" cy="286.3" r="4.5"/>
		</g>
	</g>
</g>
</svg>
