<?xml version="1.0" encoding="utf-8"?>
<!-- Generator: Adobe Illustrator 19.2.0, SVG Export Plug-In . SVG Version: 6.00 Build 0)  -->
<svg version="1.1" id="Layer_1" xmlns="http://www.w3.org/2000/svg" xmlns:xlink="http://www.w3.org/1999/xlink" x="0px" y="0px"
	 viewBox="0 0 559.3 150" style="enable-background:new 0 0 559.3 150;" xml:space="preserve">
<style type="text/css">
	.st0{clip-path:url(#SVGID_2_);}
	.st1{fill:#FFFFFF;}
</style>
<g>
	<defs>
		<rect id="SVGID_1_" x="1" width="558" height="150"/>
	</defs>
	<clipPath id="SVGID_2_">
		<use xlink:href="#SVGID_1_"  style="overflow:visible;"/>
	</clipPath>
	<g class="st0">
		<defs>
			<rect id="SVGID_3_" x="-320" y="-164" width="896" height="402"/>
		</defs>
		<clipPath id="SVGID_4_">
			<use xlink:href="#SVGID_3_"  style="overflow:visible;"/>
		</clipPath>
		<g transform="matrix(1 0 0 1 0 1.525879e-005)" style="clip-path:url(#SVGID_4_);">
			
				<image style="overflow:visible;" width="1014" height="728" xlink:href="C6BC485.jpg"  transform="matrix(0.8916 0 0 0.8916 -324.6802 -244.294)">
			</image>
		</g>
	</g>
</g>
<rect x="238" y="18" class="st1" width="3" height="26"/>
<rect x="341" y="18" class="st1" width="4" height="26"/>
<rect x="238" y="18" class="st1" width="105" height="3"/>
<rect x="547.9" y="41.1" class="st1" width="3.8" height="100"/>
<rect x="10.1" y="41.1" class="st1" width="539.7" height="15.6"/>
<rect x="10.1" y="130.9" class="st1" width="541.6" height="10.2"/>
<rect x="10.1" y="44.5" class="st1" width="4.7" height="96.6"/>
<rect x="545" y="77.3" class="st1" width="4.2" height="63.8"/>
<rect x="546.8" y="56.4" class="st1" width="4.5" height="11.6"/>
<rect x="547.5" y="66.6" class="st1" width="4.2" height="2.2"/>
<rect x="546.8" y="76.4" class="st1" width="1.9" height="2.5"/>
</svg>
