<?xml version="1.0" encoding="utf-8"?>
<!-- Generator: Adobe Illustrator 19.1.1, SVG Export Plug-In . SVG Version: 6.00 Build 0)  -->
<svg version="1.1" id="Layer_1" xmlns="http://www.w3.org/2000/svg" xmlns:xlink="http://www.w3.org/1999/xlink" x="0px" y="0px"
	 viewBox="-181 169 597 223" style="enable-background:new -181 169 597 223;" xml:space="preserve">
<style type="text/css">
	.st0{opacity:0.4;}
	.st1{fill:#D8D8EA;}
	.st2{fill:none;stroke:#B6B6D8;stroke-width:4;stroke-miterlimit:10;}
	.st3{fill:#B6B6D8;}
</style>
<g class="st0">
	<g>
		<path class="st1" d="M158.4,262.7c0-6.5-2.6-11.8-6.5-16.3c0.7-1.3,2.6-7.8-0.7-16.3c0,0-5.2-1.3-17,6.5c-4-1.3-9.2-2-14.4-2
			c-5.2,0-10.5,0.7-15,2c-11.8-7.8-17-6.5-17-6.5c-3.3,8.5-1.3,14.4-0.7,16.3c-4,4-6.5,9.8-6.5,16.3c0,21.6,11.8,27.5,24.2,29.5
			c0.7,0,1.3,0,2,0c-0.7,1.3-1.3,3.3-2,5.9c-3.3,1.3-11.2,4-15.7-4.6c0,0-2.6-5.2-8.5-5.2c0,0-5.2,0-0.7,3.3c0,0,3.3,2,5.9,7.8
			c0,0,2.6,9.8,16.3,7.8c0.7,0,1.3,0,2-0.7l0,0c0,4.6,0,7.8,0,9.2c0,0.7,0,4.6-0.7,7.8l0,0c-1.3,1.3-3.3,2-4,2.6
			c-0.7,0.6,0,1.3,0.7,2c0,0,0.7,0,1.3,0c1.3,0,2.6,0,4.6-1.3c3.3-1.3,4-4,4-6.5c0-2.6,0-14.4,0-14.4s0-2.6,0.7-4
			c2-1.3,2-1.3,2.6-1.3l0,0v26.2c0,0,0,1.3-0.7,2.6c0,0-0.7,0.7-1.3,1.3c-0.7,0.7-1.3,0.7-1.3,1.3c0,1.3,0.7,2,2.6,1.3
			c1.3,0,3.3-1.3,5.2-2.6l0.7-0.7c1.3-2,1.3-3.3,1.3-4.6c0-0.7,0-25.5,0-25.5s0-0.7,0.7-0.7c0.7,0,0.7,0.7,0.7,0.7s0,24.9,0,25.5
			c0,0.7,0,2.6,1.3,4.6c0,0,0,0,0,0.7c1.3,2,3.3,2.6,5.2,2.6s2.6-0.7,2.6-1.3c0-0.7-1.3-1.3-2-2l-0.7-0.7c-0.7-0.7-0.7-2.6-0.7-2.6
			v-26.8l0,0c0,0,0.7,0.7,1.3,2c0.7,2,0.7,4,0.7,4s0,11.8,0,14.4c0,2,0.7,4,2.6,5.2c0.7,0.7,1.3,0.7,2,1.3c3.3,1.3,5.2,1.3,5.9,0.7
			c0.7,0,1.3-1.3,0.7-2c-0.7-0.7-2-1.3-4-3.3c-0.7-1.3-0.7-4-0.7-4s0-15.7,0-17c0-2.6-1.3-5.9-1.3-5.9s-1.3-2-2-3.3l-0.7-0.7
			C146,290.2,158.4,284.2,158.4,262.7z"/>
	</g>
</g>
<g class="st0">
	<g>
		<path id="Google_1_" class="st1" d="M-65.8,232.9h-27.8c-7.7,0-16.8,1.4-24.4,7.7c-5.6,4.9-9,11.9-9,18.1
			c0,10.5,8.3,21.6,22.3,21.6c1.4,0,2.8,0,4.2,0c0,1.4-0.7,2.8-0.7,4.9c0,4.2,2.1,7,4.2,9c-6.3,0.7-17.4,1.4-25.8,6.3
			c-7.7,4.9-10.5,11.9-10.5,16.8c0,9.7,9.7,19.5,29.2,19.5c23.7,0,35.5-12.5,35.5-25.8c0-9-5.6-13.9-11.2-18.8l-4.9-3.5
			c-2.1-2.1-4.2-3.5-4.2-6.3c0-2.8,2.1-4.9,3.5-7c5.6-4.2,11.2-9,11.2-19.5c0-10.5-6.3-16-9.7-18.1h8.4L-65.8,232.9z M-77.7,315.9
			c0,8.3-9,13.9-21.6,13.9c-15.3,0-22.3-5.6-22.3-15.3s8.3-12.5,11.9-13.9c5.6-2.1,13.2-2.1,13.9-2.1c1.4,0,2.1,0,2.8,0
			C-82.6,305.4-77.7,309.6-77.7,315.9z M-88.9,272.6c-2.1,2.1-5.6,3.5-9,3.5c-11.9,0-16.8-14.6-16.8-23.7c0-3.5,0.7-7,2.8-9.7
			s6.3-4.2,9.7-4.2c11.2,0,17.4,15.3,17.4,25.1C-85.3,265-85.3,269.2-88.9,272.6z"/>
		<rect x="-50.5" y="267" class="st1" width="6.3" height="30"/>
		<rect x="-61.6" y="278.9" class="st1" width="29.2" height="6.3"/>
	</g>
</g>
<g class="st0">
	<path class="st1" d="M335.5,235c0.8,0,1.5,0,2.2,0c1.1,0.2,2.2,0.3,3.4,0.4c4.6,0.9,8.6,3.1,11.9,6.4c0.3,0.3,0.4,0.3,0.8,0.3
		c4-0.9,7.7-2.1,11.4-4c0.9-0.4,1.6-0.9,2.6-1.4c-1.8,5.3-5.1,9.5-9.7,12.5c4.4-0.5,8.6-1.6,12.7-3.4c-0.1,0.2-0.1,0.2-0.1,0.3
		c-0.1,0.2-0.3,0.3-0.3,0.6c-2.9,4.1-6.4,7.7-10.4,10.6c-0.3,0.2-0.3,0.4-0.3,0.7c0.2,4.8-0.2,9.5-1,14.2
		c-1.5,7.9-4.4,15.4-8.6,22.3c-5.1,8.3-11.6,15.3-19.9,20.6c-10.2,6.6-21.6,9.7-33.7,10c-4.5,0.1-8.9-0.3-13.4-1.1
		c-8-1.5-15.5-4.5-22.3-8.8c-0.1-0.1-0.2-0.1-0.3-0.2c12.4,1.2,23.4-1.9,33.3-9.5c-3.2-0.2-6.2-0.9-9-2.1c-2.8-1.4-5.3-3.2-7.5-5.6
		c-2.1-2.3-3.6-5-4.6-8.1c3.4,0.6,6.7,0.5,10-0.4c-12.6-2.8-18.4-14.4-17.9-22.5c3.2,1.7,6.4,2.7,10.1,2.8c-4.8-3.4-8-8-9.4-13.8
		c-1.3-5.8-0.4-11.3,2.4-16.4c12.3,14.5,27.8,22.4,46.8,23.7c-0.1-0.3-0.1-0.5-0.1-0.7c-0.9-4.2-0.6-8.4,0.9-12.4
		c3-7.7,8.6-12.5,16.8-14.4C333.3,235.2,334.4,235.1,335.5,235z"/>
</g>
<g class="st0">
	<g>
		<line class="st2" x1="-15.4" y1="282.4" x2="62" y2="282.4"/>
		<g>
			<circle class="st3" cx="-15.2" cy="282.4" r="3.9"/>
		</g>
		<g>
			<circle class="st3" cx="61.7" cy="282.4" r="3.9"/>
		</g>
	</g>
</g>
<g class="st0">
	<g>
		<line class="st2" x1="172.8" y1="282.4" x2="250.2" y2="282.4"/>
		<g>
			<circle class="st3" cx="173" cy="282.4" r="3.9"/>
		</g>
		<g>
			<circle class="st3" cx="249.9" cy="282.4" r="3.9"/>
		</g>
	</g>
</g>
<g>
	<g>
		<path class="st3" d="M156.6,259.2c0-6.5-2.6-11.8-6.5-16.3c0.7-1.3,2.6-7.8-0.7-16.3c0,0-5.2-1.3-17,6.5c-4-1.3-9.2-2-14.4-2
			c-5.2,0-10.5,0.7-15,2c-11.8-7.8-17-6.5-17-6.5c-3.3,8.5-1.3,14.4-0.7,16.3c-4,4-6.5,9.8-6.5,16.3c0,21.6,11.8,27.5,24.2,29.5
			c0.7,0,1.3,0,2,0c-0.7,1.3-1.3,3.3-2,5.9c-3.3,1.3-11.2,4-15.7-4.6c0,0-2.6-5.2-8.5-5.2c0,0-5.2,0-0.7,3.3c0,0,3.3,2,5.9,7.8
			c0,0,2.6,9.8,16.3,7.8c0.7,0,1.3,0,2-0.7l0,0c0,4.6,0,7.8,0,9.2c0,0.7,0,4.6-0.7,7.8l0,0c-1.3,1.3-3.3,2-4,2.6
			c-0.7,0.6,0,1.3,0.7,2c0,0,0.7,0,1.3,0c1.3,0,2.6,0,4.6-1.3c3.3-1.3,4-4,4-6.5c0-2.6,0-14.4,0-14.4s0-2.6,0.7-4
			c2-1.3,2-1.3,2.6-1.3l0,0v26.2c0,0,0,1.3-0.7,2.6c0,0-0.7,0.7-1.3,1.3c-0.7,0.7-1.3,0.7-1.3,1.3c0,1.3,0.7,2,2.6,1.3
			c1.3,0,3.3-1.3,5.2-2.6l0.7-0.7c1.3-2,1.3-3.3,1.3-4.6c0-0.7,0-25.5,0-25.5s0-0.7,0.7-0.7c0.7,0,0.7,0.7,0.7,0.7s0,24.9,0,25.5
			c0,0.7,0,2.6,1.3,4.6c0,0,0,0,0,0.7c1.3,2,3.3,2.6,5.2,2.6s2.6-0.7,2.6-1.3c0-0.7-1.3-1.3-2-2l-0.7-0.7c-0.7-0.7-0.7-2.6-0.7-2.6
			v-26.8l0,0c0,0,0.7,0.7,1.3,2c0.7,2,0.7,4,0.7,4s0,11.8,0,14.4c0,2,0.7,4,2.6,5.2c0.7,0.7,1.3,0.7,2,1.3c3.3,1.3,5.2,1.3,5.9,0.7
			c0.7,0,1.3-1.3,0.7-2c-0.7-0.7-2-1.3-4-3.3c-0.7-1.3-0.7-4-0.7-4s0-15.7,0-17c0-2.6-1.3-5.9-1.3-5.9s-1.3-2-2-3.3l-0.7-0.7
			C144.3,286.7,156.6,280.8,156.6,259.2z"/>
	</g>
</g>
<g>
	<g>
		<path id="Google_24_" class="st3" d="M-67.5,229.5h-27.8c-7.7,0-16.8,1.4-24.4,7.7c-5.6,4.9-9,11.9-9,18.1
			c0,10.5,8.3,21.6,22.3,21.6c1.4,0,2.8,0,4.2,0c0,1.4-0.7,2.8-0.7,4.9c0,4.2,2.1,7,4.2,9c-6.3,0.7-17.4,1.4-25.8,6.3
			c-7.7,4.9-10.5,11.9-10.5,16.8c0,9.7,9.7,19.5,29.2,19.5c23.7,0,35.5-12.5,35.5-25.8c0-9-5.6-13.9-11.2-18.8l-4.9-3.5
			c-2.1-2.1-4.2-3.5-4.2-6.3c0-2.8,2.1-4.9,3.5-7c5.6-4.2,11.2-9,11.2-19.5s-6.3-16-9.7-18.1h8.4L-67.5,229.5z M-79.4,312.4
			c0,8.3-9,13.9-21.6,13.9c-15.3,0-22.3-5.6-22.3-15.3s8.3-12.5,11.9-13.9c5.6-2.1,13.2-2.1,13.9-2.1c1.4,0,2.1,0,2.8,0
			C-84.3,301.9-79.4,306.2-79.4,312.4z M-90.6,269.2c-2.1,2.1-5.6,3.5-9,3.5c-11.9,0-16.8-14.6-16.8-23.7c0-3.5,0.7-7,2.8-9.7
			c2.1-2.8,6.3-4.2,9.7-4.2c11.2,0,17.4,15.3,17.4,25.1C-87.1,261.5-87.1,265.8-90.6,269.2z"/>
		<polygon class="st3" points="-46,275.5 -46,263.6 -52.2,263.6 -52.2,275.5 -63.4,275.5 -63.4,281.7 -52.2,281.7 -52.2,293.6 
			-46,293.6 -46,281.7 -34.1,281.7 -34.1,275.5 		"/>
	</g>
</g>
<g>
	<path class="st3" d="M333.8,231.5c0.8,0,1.5,0,2.2,0c1.1,0.2,2.2,0.3,3.4,0.4c4.6,0.9,8.6,3.1,11.9,6.4c0.3,0.3,0.4,0.3,0.8,0.3
		c4-0.9,7.7-2.1,11.4-4c0.9-0.4,1.6-0.9,2.6-1.4c-1.8,5.3-5.1,9.5-9.7,12.5c4.4-0.5,8.6-1.6,12.7-3.4c-0.1,0.2-0.1,0.2-0.1,0.3
		c-0.1,0.2-0.3,0.3-0.3,0.6c-2.9,4.1-6.4,7.7-10.4,10.6c-0.3,0.2-0.3,0.4-0.3,0.7c0.2,4.8-0.2,9.5-1,14.2
		c-1.5,7.9-4.4,15.4-8.6,22.3c-5.1,8.3-11.6,15.3-19.9,20.6c-10.2,6.6-21.6,9.7-33.7,10c-4.5,0.1-8.9-0.3-13.4-1.1
		c-8-1.5-15.5-4.5-22.3-8.8c-0.1-0.1-0.2-0.1-0.3-0.2c12.4,1.2,23.4-1.9,33.3-9.5c-3.2-0.2-6.2-0.9-9-2.1c-2.8-1.4-5.3-3.2-7.5-5.6
		c-2.1-2.3-3.6-5-4.6-8.1c3.4,0.6,6.7,0.5,10-0.4c-12.6-2.8-18.4-14.4-17.9-22.5c3.2,1.7,6.4,2.7,10.1,2.8c-4.8-3.4-8-8-9.4-13.8
		c-1.3-5.8-0.4-11.3,2.4-16.4c12.3,14.5,27.8,22.4,46.8,23.7c-0.1-0.3-0.1-0.5-0.1-0.7c-0.9-4.2-0.6-8.4,0.9-12.4
		c3-7.7,8.6-12.5,16.8-14.4C331.6,231.7,332.7,231.6,333.8,231.5z"/>
</g>
<g>
	<g>
		<line class="st2" x1="-17.1" y1="279" x2="60.3" y2="279"/>
		<g>
			<circle class="st3" cx="-16.9" cy="279" r="3.9"/>
		</g>
		<g>
			<circle class="st3" cx="60" cy="279" r="3.9"/>
		</g>
	</g>
</g>
<g>
	<g>
		<line class="st2" x1="171.1" y1="279" x2="248.4" y2="279"/>
		<g>
			<circle class="st3" cx="171.2" cy="279" r="3.9"/>
		</g>
		<g>
			<circle class="st3" cx="248.2" cy="279" r="3.9"/>
		</g>
	</g>
</g>
</svg>
