<?xml version="1.0" encoding="UTF-8" standalone="no"?>
<!-- Generator: Adobe Illustrator 18.1.1, SVG Export Plug-In . SVG Version: 6.00 Build 0)  -->

<svg
   xmlns:dc="http://purl.org/dc/elements/1.1/"
   xmlns:cc="http://creativecommons.org/ns#"
   xmlns:rdf="http://www.w3.org/1999/02/22-rdf-syntax-ns#"
   xmlns:svg="http://www.w3.org/2000/svg"
   xmlns="http://www.w3.org/2000/svg"
   xmlns:sodipodi="http://sodipodi.sourceforge.net/DTD/sodipodi-0.dtd"
   xmlns:inkscape="http://www.inkscape.org/namespaces/inkscape"
   version="1.1"
   id="Layer_1"
   x="0px"
   y="0px"
   viewBox="0 0 50 50"
   style="enable-background:new 0 0 50 50;"
   xml:space="preserve"
   inkscape:version="0.48.5 r10040"
   width="100%"
   height="100%"
   sodipodi:docname="rss_active50.svg"><metadata
     id="metadata21"><rdf:RDF><cc:Work
         rdf:about=""><dc:format>image/svg+xml</dc:format><dc:type
           rdf:resource="http://purl.org/dc/dcmitype/StillImage" /></cc:Work></rdf:RDF></metadata><defs
     id="defs19" /><sodipodi:namedview
     pagecolor="#ffffff"
     bordercolor="#666666"
     borderopacity="1"
     objecttolerance="10"
     gridtolerance="10"
     guidetolerance="10"
     inkscape:pageopacity="0"
     inkscape:pageshadow="2"
     inkscape:window-width="640"
     inkscape:window-height="480"
     id="namedview17"
     showgrid="false"
     inkscape:zoom="4.72"
     inkscape:cx="25"
     inkscape:cy="25"
     inkscape:window-x="0"
     inkscape:window-y="27"
     inkscape:window-maximized="0"
     inkscape:current-layer="Layer_1" /><path
     style="fill:none;stroke:#E1C7E2;stroke-miterlimit:10;"
     d="M7.3-84.9"
     id="path5" /><path
     style="fill:none;stroke:#E1C7E2;stroke-miterlimit:10;"
     d="M7.5-84.9"
     id="path7" /><g
     id="g9"><path
       style="fill:#783189;"
       d="M20,29.1c-1.5,0-2.7,1.2-2.7,2.7c0,1.5,1.2,2.6,2.7,2.6c1.5,0,2.7-1.2,2.7-2.6   C22.7,30.3,21.5,29.1,20,29.1z"
       id="path11" /><path
       style="fill:#783189;"
       d="M17.4,21.2V25c2.5,0,4.8,1,6.6,2.7c1.8,1.8,2.7,4.1,2.7,6.6h3.8C30.6,27.1,24.6,21.2,17.4,21.2z"
       id="path13" /><path
       style="fill:#783189;"
       d="M17.4,14.4v3.8c8.9,0,16.1,7.2,16.1,16.2h3.8C37.4,23.4,28.4,14.4,17.4,14.4z"
       id="path15" /></g></svg>