<?xml version="1.0" encoding="utf-8"?>
<!-- Generator: Adobe Illustrator 18.1.0, SVG Export Plug-In . SVG Version: 6.00 Build 0)  -->
<!DOCTYPE svg PUBLIC "-//W3C//DTD SVG 1.1//EN" "http://www.w3.org/Graphics/SVG/1.1/DTD/svg11.dtd">
<svg version="1.1" id="Layer_1" xmlns="http://www.w3.org/2000/svg" xmlns:xlink="http://www.w3.org/1999/xlink" x="0px" y="0px"
	 viewBox="0 0 6000 1012.5" style="enable-background:new 0 0 6000 1012.5;" xml:space="preserve">
<linearGradient id="SVGID_1_" gradientUnits="userSpaceOnUse" x1="3001.2749" y1="1012.7031" x2="3001.2749" y2="1.9997">
	<stop  offset="0" style="stop-color:#FFFFFF"/>
	<stop  offset="0" style="stop-color:#E89C9A"/>
	<stop  offset="0.517" style="stop-color:#8964A7"/>
	<stop  offset="1" style="stop-color:#1A0F39"/>
</linearGradient>
<polyline style="fill:url(#SVGID_1_);" points="6000,2 6000,1012.7 2.5,1012.7 2.5,2 "/>
<polygon style="fill:#764E7F;" points="5011.3,924 5013.7,921.7 4629.6,789.7 4320.6,884.6 4177.9,846.2 4177.4,846.7 3930.1,919 
	2713.8,919 2113,772.2 1847,851.4 1847,851.5 1846.8,851.7 1631.4,924 0,924 0,925 0,1012.7 0,1013 1846.5,1013 1972.6,1013 
	4143.6,1013 4143.7,1013 6000,1013 6000,924 "/>
<polyline style="opacity:0.6;fill:#764E7F;" points="2431.2,887.6 2638.8,779.9 2963.5,872.3 3100.6,853.8 3373.7,922.2 
	2705.5,952.6 2431.2,887.6 "/>
<polyline style="opacity:0.6;fill:#764E7F;" points="419.1,944.7 876.3,796.2 1113.2,868.5 1222.6,853.8 1495.7,922.2 827.5,952.6 
	419.1,944.7 "/>
<polygon style="fill:#EAB97A;" points="2581.2,799.2 2628.7,1013.1 2546,1013.1 2536.9,827.2 "/>
<polygon style="fill:#845731;" points="2590.9,842.5 2538,849.8 2538.8,866.6 2594.5,858.9 "/>
<polygon style="fill:#845731;" points="2597.5,872.3 2539.4,879.2 2540.3,896.2 2601.4,889.5 "/>
<rect x="2355" y="685.5" style="fill:#D69E63;" width="124.7" height="77.6"/>
<path style="fill:#835631;" d="M2328.6,310.4l-260.8-186.2c0,0-23,164.2-19.4,217.7c3.1,47.1,14.4,98.6,46.4,135.1
	c30.8,35,81,39,115,6.4L2328.6,310.4z"/>
<path style="fill:#835631;" d="M2489.4,310.4l260.8-186.3c0,0,23,164.2,19.4,217.7c-3.1,47.1-14.4,98.6-46.4,135.1
	c-30.7,35-81,39-115,6.4L2489.4,310.4z"/>
<path style="fill:#EAB97A;" d="M2553.7,276.1c-18.8-9.9-40-16.9-62.4-21.4c8.7-5.8,40.7-6.4,40.7-6.4s-8.9-6-22.6-8.9
	c-13.6-2.9-33.3,2.5-33.7,2.6c0.1,0,0.3-0.1,0.9-0.4l-0.9,0.4c0,0,16.1-9.6,22.3-21.7c-6.9,2.3-22.1,6.6-50,11
	c-58.1,9.2-122.4,27.8-122.4,27.8c-25.9,6.2-48.8,14.7-66.1,24.6c-119.1,68-189.5,217.7-189.5,217.7S2163.3,698,2410.1,698
	c244.4,0,339.5-196.5,339.5-196.5S2662.7,333.3,2553.7,276.1z"/>
<path style="fill:#D69E63;" d="M2311.6,407.2c0,0,33.3,22.9,37.1,85.8c0,0-44.6,16.9-92.5,8.6c58.3-6.8,75.8-22.8,75.8-22.8
	C2336.6,453.1,2311.6,407.2,2311.6,407.2z"/>
<path style="fill:#FFFFFF;" d="M2291.6,392.9c-70.1-33.8-113.5,49.1-123.7,66.4c-3.7,6.3,26.4,24.6,35.8,28.7l0,0
	c37.1,19.1,106.9,14.9,131.9,4.7C2335.6,492.6,2347.1,419.7,2291.6,392.9"/>
<g style="opacity:0.6;">
	<g>
		<defs>
			<rect id="SVGID_2_" x="2230" y="290.7" width="62.7" height="66.5"/>
		</defs>
		<clipPath id="SVGID_3_">
			<use xlink:href="#SVGID_2_"  style="overflow:visible;"/>
		</clipPath>
	</g>
</g>
<path style="fill:#D69E63;" d="M2503.3,407.2c0,0-33.3,22.9-37.1,85.8c0,0,44.6,16.9,92.5,8.6c-58.3-6.8-75.8-22.8-75.8-22.8
	C2478.3,453.1,2503.3,407.2,2503.3,407.2z"/>
<path style="fill:#020202;" d="M2507.3,439.2c-0.4,27,18.9,49.1,43.1,49.5c24.2,0.4,44.2-21.2,44.6-48.1c0.4-27-18.9-49.1-43.1-49.5
	C2527.7,390.6,2507.7,412.2,2507.3,439.2"/>
<path style="fill:#1A2C35;" d="M2551.2,439.8l31.3,34c0,0-14.2,15-28.9,14.8c-22.4-0.3-34.4-15.3-34.4-15.3L2551.2,439.8z"/>
<polygon style="fill:#EAB97A;" points="2240.2,799.2 2192.7,1012.5 2274.7,1013 2284.5,827.2 "/>
<path style="fill:#E82538;" d="M2525.7,824.4l5.5,20.7l75-34.7c0,0-24.7-49.9-46.2-71c-0.9-0.6-2.1-1.6-3.6-3
	c-1.3-1.2-2.9-2.5-4.8-3.8c-10.5-6.7-26-13.5-39.9-19c-0.1-0.1-0.2-0.1-0.4-0.2c-16.5-6.4-30.9-11.1-30.9-11.1s-23,48.4-62.7,48.2
	c-39.7-0.2-62.7-48.2-62.7-48.2c-19.8,2.1-74.2,30.4-74.2,30.4c-28,11.9-64.5,80.3-64.5,80.3l75,32l6.7-19.7l-15.2,187.6l255.2-0.6
	l-12.6-183.9L2525.7,824.4z"/>
<path style="fill:#FFFFFF;" d="M2478.9,493.7c25,10.1,93.1,13.5,130.2-5.4l0,0c9.4-4.1,39.1-24.5,37.1-28.4
	c-8.9-17.8-54.9-98.7-125-65.4C2465.7,421,2478.9,493.7,2478.9,493.7"/>
<rect x="2369" y="825.4" style="fill:#FFFFFF;" width="16.7" height="16.7"/>
<rect x="2369" y="840.6" style="fill:#FFFFFF;" width="16.7" height="16.7"/>
<rect x="2369" y="855.7" style="fill:#FFFFFF;" width="16.7" height="16.7"/>
<rect x="2369" y="870.9" style="fill:#FFFFFF;" width="16.7" height="16.7"/>
<rect x="2388.2" y="819.4" style="fill:#FFFFFF;" width="4.2" height="4.2"/>
<rect x="2388.2" y="823.2" style="fill:#FFFFFF;" width="4.2" height="4.2"/>
<rect x="2388.2" y="827" style="fill:#FFFFFF;" width="4.2" height="4.2"/>
<rect x="2388.2" y="830.8" style="fill:#FFFFFF;" width="4.2" height="4.2"/>
<rect x="2392" y="819.4" style="fill:#FFFFFF;" width="4.2" height="4.2"/>
<rect x="2392" y="823.2" style="fill:#FFFFFF;" width="4.2" height="4.2"/>
<rect x="2392" y="827" style="fill:#FFFFFF;" width="4.2" height="4.2"/>
<rect x="2392" y="830.8" style="fill:#FFFFFF;" width="4.2" height="4.2"/>
<rect x="2396.9" y="817.4" style="fill:#FFFFFF;" width="4.2" height="4.2"/>
<rect x="2395.7" y="823.2" style="fill:#FFFFFF;" width="4.2" height="4.2"/>
<rect x="2395.7" y="827" style="fill:#FFFFFF;" width="4.2" height="4.2"/>
<rect x="2395.7" y="830.8" style="fill:#FFFFFF;" width="4.2" height="4.2"/>
<rect x="2417.5" y="796.2" style="fill:#FFFFFF;" width="4.2" height="4.2"/>
<rect x="2401" y="821.5" style="fill:#FFFFFF;" width="4.2" height="4.2"/>
<rect x="2399.5" y="827" style="fill:#FFFFFF;" width="4.2" height="4.2"/>
<rect x="2399.5" y="830.8" style="fill:#FFFFFF;" width="4.2" height="4.2"/>
<rect x="2384.2" y="840.6" style="fill:#FFFFFF;" width="16.7" height="16.7"/>
<rect x="2384.2" y="855.7" style="fill:#FFFFFF;" width="16.7" height="16.7"/>
<rect x="2384.2" y="870.9" style="fill:#FFFFFF;" width="16.7" height="16.7"/>
<rect x="2408.4" y="814.4" style="fill:#FFFFFF;" width="4.2" height="4.2"/>
<rect x="2408.4" y="818.2" style="fill:#FFFFFF;" width="4.2" height="4.2"/>
<rect x="2408.4" y="822" style="fill:#FFFFFF;" width="4.2" height="4.2"/>
<rect x="2408.4" y="825.8" style="fill:#FFFFFF;" width="4.2" height="4.2"/>
<rect x="2414" y="810.9" style="fill:#FFFFFF;" width="4.2" height="4.2"/>
<rect x="2412.2" y="818.2" style="fill:#FFFFFF;" width="4.2" height="4.2"/>
<rect x="2412.2" y="822" style="fill:#FFFFFF;" width="4.2" height="4.2"/>
<rect x="2412.2" y="825.8" style="fill:#FFFFFF;" width="4.2" height="4.2"/>
<rect x="2435.3" y="788.2" style="fill:#FFFFFF;" width="4.2" height="4.2"/>
<rect x="2418.5" y="815.4" style="fill:#FFFFFF;" width="4.2" height="4.2"/>
<rect x="2415.9" y="822" style="fill:#FFFFFF;" width="4.2" height="4.2"/>
<rect x="2415.9" y="825.8" style="fill:#FFFFFF;" width="4.2" height="4.2"/>
<rect x="2452.7" y="788.3" style="fill:#FFFFFF;" width="4.2" height="4.2"/>
<rect x="2443.1" y="796.9" style="fill:#FFFFFF;" width="4.2" height="4.2"/>
<rect x="2422.8" y="819.8" style="fill:#FFFFFF;" width="4.2" height="4.2"/>
<rect x="2419.7" y="825.8" style="fill:#FFFFFF;" width="4.2" height="4.2"/>
<rect x="2404.3" y="835.6" style="fill:#FFFFFF;" width="4.2" height="4.2"/>
<rect x="2404.3" y="839.4" style="fill:#FFFFFF;" width="4.2" height="4.2"/>
<rect x="2404.3" y="843.2" style="fill:#FFFFFF;" width="4.2" height="4.2"/>
<rect x="2404.3" y="847" style="fill:#FFFFFF;" width="4.2" height="4.2"/>
<rect x="2408.1" y="835.6" style="fill:#FFFFFF;" width="4.2" height="4.2"/>
<rect x="2408.1" y="839.4" style="fill:#FFFFFF;" width="4.2" height="4.2"/>
<rect x="2408.1" y="843.2" style="fill:#FFFFFF;" width="4.2" height="4.2"/>
<rect x="2408.1" y="847" style="fill:#FFFFFF;" width="4.2" height="4.2"/>
<rect x="2413.3" y="833.8" style="fill:#FFFFFF;" width="4.2" height="4.2"/>
<rect x="2411.9" y="839.4" style="fill:#FFFFFF;" width="4.2" height="4.2"/>
<rect x="2411.9" y="843.2" style="fill:#FFFFFF;" width="4.2" height="4.2"/>
<rect x="2411.9" y="847" style="fill:#FFFFFF;" width="4.2" height="4.2"/>
<rect x="2436.2" y="815.2" style="fill:#FFFFFF;" width="4.2" height="4.2"/>
<rect x="2417.5" y="838" style="fill:#FFFFFF;" width="4.2" height="4.2"/>
<rect x="2415.7" y="843.2" style="fill:#FFFFFF;" width="4.2" height="4.2"/>
<rect x="2415.7" y="847" style="fill:#FFFFFF;" width="4.2" height="4.2"/>
<rect x="2399.3" y="855.7" style="fill:#FFFFFF;" width="16.7" height="16.7"/>
<rect x="2399.3" y="870.9" style="fill:#FFFFFF;" width="16.7" height="16.7"/>
<rect x="2429.6" y="810.3" style="fill:#FFFFFF;" width="4.2" height="4.2"/>
<rect x="2429.6" y="814.1" style="fill:#FFFFFF;" width="4.2" height="4.2"/>
<rect x="2429.6" y="817.9" style="fill:#FFFFFF;" width="4.2" height="4.2"/>
<rect x="2429.6" y="821.7" style="fill:#FFFFFF;" width="4.2" height="4.2"/>
<rect x="2450.5" y="785.3" style="fill:#FFFFFF;" width="4.2" height="4.2"/>
<rect x="2433.4" y="814.1" style="fill:#FFFFFF;" width="4.2" height="4.2"/>
<rect x="2433.4" y="817.9" style="fill:#FFFFFF;" width="4.2" height="4.2"/>
<rect x="2433.4" y="821.7" style="fill:#FFFFFF;" width="4.2" height="4.2"/>
<rect x="2472.3" y="769.5" style="fill:#FFFFFF;" width="4.2" height="4.2"/>
<g style="opacity:0.8973;">
	<g>
		<defs>
			<rect id="SVGID_4_" x="2446" y="807.5" width="4.2" height="4.2"/>
		</defs>
		<clipPath id="SVGID_5_">
			<use xlink:href="#SVGID_4_"  style="overflow:visible;"/>
		</clipPath>
		<rect x="2446" y="807.5" style="clip-path:url(#SVGID_5_);fill:#FFFFFF;" width="4.2" height="4.2"/>
	</g>
</g>
<rect x="2437.2" y="817.9" style="fill:#FFFFFF;" width="4.2" height="4.2"/>
<linearGradient id="SVGID_6_" gradientUnits="userSpaceOnUse" x1="2502.4861" y1="443.6576" x2="2610.1677" y2="443.6576" gradientTransform="matrix(1 0 0 1 -0.1323 0.1345)">
	<stop  offset="0" style="stop-color:#1E9A63"/>
	<stop  offset="1" style="stop-color:#228181"/>
</linearGradient>
<ellipse style="fill:url(#SVGID_6_);" cx="2556.2" cy="443.8" rx="55.1" ry="57.6"/>
<rect x="2437.2" y="821.7" style="fill:#FFFFFF;" width="4.2" height="4.2"/>
<rect x="2495.2" y="756.9" style="fill:#FFFFFF;" width="4.2" height="4.2"/>
<rect x="2484.8" y="777.8" style="fill:#FFFFFF;" width="4.2" height="4.2"/>
<rect x="2463.6" y="802.2" style="fill:#FFFFFF;" width="4.2" height="4.2"/>
<rect x="2440.9" y="821.7" style="fill:#FFFFFF;" width="4.2" height="4.2"/>
<rect x="2425.5" y="831.6" style="fill:#FFFFFF;" width="4.2" height="4.2"/>
<rect x="2425.5" y="835.3" style="fill:#FFFFFF;" width="4.2" height="4.2"/>
<rect x="2425.5" y="839.1" style="fill:#FFFFFF;" width="4.2" height="4.2"/>
<rect x="2425.5" y="842.9" style="fill:#FFFFFF;" width="4.2" height="4.2"/>
<rect x="2431.6" y="828.5" style="fill:#FFFFFF;" width="4.2" height="4.2"/>
<rect x="2429.3" y="835.3" style="fill:#FFFFFF;" width="4.2" height="4.2"/>
<rect x="2429.3" y="839.1" style="fill:#FFFFFF;" width="4.2" height="4.2"/>
<rect x="2429.3" y="842.9" style="fill:#FFFFFF;" width="4.2" height="4.2"/>
<rect x="2455.8" y="807.5" style="fill:#FFFFFF;" width="4.2" height="4.2"/>
<rect x="2435.9" y="832.8" style="fill:#FFFFFF;" width="4.2" height="4.2"/>
<rect x="2433.1" y="839.1" style="fill:#FFFFFF;" width="4.2" height="4.2"/>
<rect x="2433.1" y="842.9" style="fill:#FFFFFF;" width="4.2" height="4.2"/>
<rect x="2464" y="800.5" style="fill:#FFFFFF;" width="4.2" height="4.2"/>
<rect x="2457.9" y="816.6" style="fill:#FFFFFF;" width="4.2" height="4.2"/>
<rect x="2440.5" y="837.3" style="fill:#FFFFFF;" width="4.2" height="4.2"/>
<rect x="2436.9" y="842.9" style="fill:#FFFFFF;" width="4.2" height="4.2"/>
<rect x="2420.5" y="851.8" style="fill:#FFFFFF;" width="4.2" height="4.2"/>
<rect x="2420.5" y="855.5" style="fill:#FFFFFF;" width="4.2" height="4.2"/>
<rect x="2420.5" y="859.3" style="fill:#FFFFFF;" width="4.2" height="4.2"/>
<rect x="2420.5" y="863.1" style="fill:#FFFFFF;" width="4.2" height="4.2"/>
<rect x="2424.3" y="851.8" style="fill:#FFFFFF;" width="4.2" height="4.2"/>
<rect x="2424.3" y="855.5" style="fill:#FFFFFF;" width="4.2" height="4.2"/>
<rect x="2424.3" y="859.3" style="fill:#FFFFFF;" width="4.2" height="4.2"/>
<rect x="2424.3" y="863.1" style="fill:#FFFFFF;" width="4.2" height="4.2"/>
<rect x="2429.7" y="850.3" style="fill:#FFFFFF;" width="4.2" height="4.2"/>
<rect x="2428.1" y="855.5" style="fill:#FFFFFF;" width="4.2" height="4.2"/>
<rect x="2428.1" y="859.3" style="fill:#FFFFFF;" width="4.2" height="4.2"/>
<rect x="2428.1" y="863.1" style="fill:#FFFFFF;" width="4.2" height="4.2"/>
<rect x="2455.6" y="834" style="fill:#FFFFFF;" width="4.2" height="4.2"/>
<rect x="2433.9" y="854.5" style="fill:#FFFFFF;" width="4.2" height="4.2"/>
<rect x="2431.8" y="859.3" style="fill:#FFFFFF;" width="4.2" height="4.2"/>
<rect x="2431.8" y="863.1" style="fill:#FFFFFF;" width="4.2" height="4.2"/>
<rect x="2414.5" y="870.9" style="fill:#FFFFFF;" width="16.7" height="16.7"/>
<polygon style="fill:#845731;" points="2230.5,842.5 2283.3,849.7 2282.4,866.6 2226.8,858.9 "/>
<polygon style="fill:#845731;" points="2223.8,872.3 2281.7,879.3 2280.8,896.2 2219.9,889.5 "/>
<linearGradient id="SVGID_7_" gradientUnits="userSpaceOnUse" x1="2205.45" y1="442.5627" x2="2313.1321" y2="442.5627" gradientTransform="matrix(1 0 0 1 -0.1323 0.1345)">
	<stop  offset="0" style="stop-color:#1E9A63"/>
	<stop  offset="1" style="stop-color:#228181"/>
</linearGradient>
<ellipse style="fill:url(#SVGID_7_);" cx="2259.2" cy="442.7" rx="55.1" ry="57.6"/>
<path style="fill:#020202;" d="M2298.5,445.5c0.4,23-16.2,41.9-37,42.3c-20.8,0.3-37.9-18.1-38.3-41.1c-0.4-23,16.2-41.9,37-42.3
	C2281,404.1,2298.1,422.5,2298.5,445.5"/>
<path style="fill:#1A2C35;" d="M2260.8,447.3l-26.9,28c0,0,12.2,12.4,24.8,12.2c19.2-0.3,29.5-12.6,29.5-12.6L2260.8,447.3z"/>
<path style="fill:#020202;" d="M2591.3,445.5c0.4,23-16.2,42-37,42.3c-20.8,0.3-37.9-18.1-38.3-41.1c-0.4-23,16.2-41.9,37-42.3
	C2573.8,404.1,2590.9,422.5,2591.3,445.5"/>
<path style="fill:#1A2C35;" d="M2553.6,447.3l-26.9,28c0,0,12.2,12.4,24.8,12.2c19.2-0.3,29.5-12.6,29.5-12.6L2553.6,447.3z"/>
<path style="fill:#835631;" d="M2581.1,292.8c0,0-6.4,35.6-36,63.9c0,0,53.6-9.4,74.9-31.2C2620,325.4,2601,306.3,2581.1,292.8z"/>
<path style="fill:#835631;" d="M2240.6,292.8c0,0,6.4,35.6,36,63.9c0,0-53.5-9.7-74.8-31.5C2201.8,325.1,2234,297.2,2240.6,292.8z"
	/>
<path style="fill:#483729;" d="M2270.6,278.1l7.6-3.6l-210.5-152.8L2202,325.1C2217.7,311.6,2240.2,292.8,2270.6,278.1z"/>
<path style="fill:#483729;" d="M2620,325.4l130.3-201.3L2544,271.3l10.5,5.3C2570,284.9,2594.5,300.3,2620,325.4z"/>
<g>
	<path style="fill:#FFFFFF;" d="M2321.3,936.2c0.9,0.5,2.6,1.2,4.1,1.2c1.8,0,2.6-0.8,2.6-2c0-1.2-0.7-1.8-2.7-2.6
		c-3.2-1.3-4.4-3.1-4.4-5.1c0-3.1,2.5-5.4,6.3-5.4c1.8,0,3.3,0.5,4.3,1l-0.9,3.1c-0.7-0.4-2-0.9-3.3-0.9c-1.5,0-2.3,0.8-2.3,1.8
		c0,1,0.7,1.6,2.8,2.5c3,1.2,4.4,2.9,4.4,5.4c0,3.3-2.5,5.5-6.8,5.5c-1.9,0-3.7-0.5-4.8-1.2L2321.3,936.2z"/>
	<path style="fill:#FFFFFF;" d="M2348.2,936c0,1.5,0.1,3,0.3,4.2h-3.8l-0.3-1.9h-0.1c-1,1.4-2.7,2.3-4.8,2.3c-3.3,0-5.2-2.4-5.2-5.2
		c0-4.4,3.9-6.6,9.7-6.6v-0.3c0-1.4-0.5-3.1-3.3-3.1c-1.6,0-3.2,0.5-4.3,1.2l-0.8-2.8c1.2-0.7,3.3-1.5,5.9-1.5
		c5.3,0,6.8,3.4,6.8,7.2V936z M2344.1,931.5c-2.6,0-5.6,0.6-5.6,3.4c0,1.8,1.1,2.6,2.4,2.6c1.5,0,2.7-1,3.1-2.3
		c0.1-0.3,0.1-0.7,0.1-1V931.5z"/>
	<path style="fill:#FFFFFF;" d="M2352.6,927.7c0-2-0.1-3.6-0.1-5.2h3.7l0.2,2.5h0.1c0.8-1.4,2.6-2.8,5.2-2.8c3,0,5.7,2.1,5.7,7.2
		v10.7l-4.3,0l0-10.3c0-2.3-0.8-4.2-3-4.2c-1.6,0-2.7,1.1-3.1,2.5c-0.1,0.4-0.2,0.9-0.2,1.5l0,10.5h-4.3V927.7z"/>
	<path style="fill:#FFFFFF;" d="M2386.7,914.7l0,20.6c0,1.7,0.1,3.7,0.1,4.9l-3.8,0l-0.2-2.6h-0.1c-0.9,1.7-2.8,2.9-5.1,2.9
		c-4,0-6.9-3.6-6.9-9c0-6,3.4-9.3,7.2-9.3c2.1,0,3.7,0.9,4.4,2.2h0.1v-9.7H2386.7z M2382.4,929.7c0-0.4,0-0.8-0.1-1.2
		c-0.3-1.6-1.6-3-3.3-3c-2.6,0-3.9,2.6-3.9,5.8c0,3.3,1.4,5.6,3.8,5.6c1.5,0,2.9-1,3.3-2.9c0.1-0.4,0.1-0.8,0.1-1.3L2382.4,929.7z"
		/>
	<path style="fill:#FFFFFF;" d="M2390.9,936.2c0.9,0.5,2.6,1.2,4.1,1.2c1.8,0,2.6-0.8,2.6-2c0-1.2-0.7-1.8-2.7-2.6
		c-3.2-1.3-4.4-3.1-4.5-5.1c0-3.1,2.5-5.4,6.3-5.4c1.8,0,3.3,0.5,4.3,1l-0.9,3.1c-0.7-0.4-2-0.9-3.3-0.9c-1.5,0-2.3,0.8-2.3,1.8
		c0,1,0.7,1.6,2.8,2.5c3,1.2,4.4,2.9,4.4,5.4c0,3.3-2.5,5.5-6.8,5.5c-1.9,0-3.7-0.5-4.8-1.2L2390.9,936.2z"/>
	<path style="fill:#FFFFFF;" d="M2410,918.1v4.5h4v3.1h-4v8.2c0,2.1,0.7,3.1,2.1,3.1c0.7,0,1.1,0,1.6-0.2l0.1,3.3
		c-0.7,0.2-1.7,0.4-3,0.4c-1.5,0-2.8-0.5-3.6-1.3c-0.9-1-1.4-2.5-1.4-4.9v-8.6h-2.4l0-3.1l2.4,0l0-3.2L2410,918.1z"/>
	<path style="fill:#FFFFFF;" d="M2432.1,931.2c0,6.7-4.3,9.3-8.2,9.3c-4.6,0-8.1-3.3-8.1-9c0-5.9,3.6-9.3,8.3-9.3
		C2428.9,922.2,2432.1,925.8,2432.1,931.2z M2420.2,931.4c0,3.3,1.3,6,3.8,6c2.4,0,3.7-2.8,3.7-6c0-2.7-1-6-3.7-6
		C2421.2,925.4,2420.2,928.6,2420.2,931.4z"/>
	<path style="fill:#FFFFFF;" d="M2435.6,928c0-2.1-0.1-3.9-0.1-5.5h3.7l0.2,3.2h0.1c0.8-2.3,2.7-3.5,4.4-3.5c0.4,0,0.7,0,1,0.1v4.1
		c-0.3-0.1-0.7-0.1-1.2-0.1c-1.9,0-3.3,1.3-3.7,3.3c-0.1,0.4-0.1,0.9-0.1,1.4v9.2h-4.3L2435.6,928z"/>
	<path style="fill:#FFFFFF;" d="M2447.5,927.7c0-2-0.1-3.6-0.1-5.2l3.7,0l0.2,2.5h0.1c0.8-1.3,2.4-2.8,5-2.8c2.2,0,3.8,1.2,4.6,3
		h0.1c0.6-0.9,1.3-1.6,2-2.1c0.9-0.6,2-0.9,3.3-0.9c2.9,0,5.4,2,5.4,7.3v10.7h-4.2l0-10c0-2.7-0.8-4.5-2.8-4.5c-1.4,0-2.4,1-2.8,2.3
		c-0.1,0.4-0.2,0.9-0.2,1.4l0,10.7h-4.2v-10.5c0-2.2-0.8-4-2.7-4c-1.4,0-2.5,1.2-2.9,2.4c-0.1,0.4-0.2,0.9-0.2,1.4l0,10.6l-4.2,0
		V927.7z"/>
	<path style="fill:#FFFFFF;" d="M2475.7,937.7c0-1.7,1.1-2.8,2.6-2.8s2.6,1.1,2.6,2.8c0,1.6-1,2.8-2.7,2.8
		C2476.8,940.5,2475.7,939.4,2475.7,937.7z"/>
	<path style="fill:#FFFFFF;" d="M2489,917.7c0,1.3-0.9,2.4-2.4,2.4c-1.4,0-2.3-1-2.3-2.4c0-1.3,1-2.4,2.4-2.4
		C2488,915.3,2489,916.3,2489,917.7z M2484.4,940.2l0-17.6h4.3l0,17.6H2484.4z"/>
	<path style="fill:#FFFFFF;" d="M2508.5,931.2c0,6.7-4.3,9.3-8.2,9.3c-4.6,0-8.1-3.3-8.1-9c0-5.9,3.6-9.3,8.3-9.3
		C2505.2,922.2,2508.5,925.8,2508.5,931.2z M2496.6,931.4c0,3.3,1.3,6,3.8,6c2.4,0,3.7-2.7,3.7-6c0-2.7-1-6-3.7-6
		C2497.6,925.4,2496.6,928.6,2496.6,931.4z"/>
</g>
<rect x="1922.9" y="288.7" style="fill:#783189;" width="2.1" height="2.1"/>
<path style="fill:#A05D29;" d="M2460,379.8c0,0.1,0,0.2,0,0.2C2460,379.9,2460,379.8,2460,379.8z"/>
<path style="fill:#835631;" d="M2526.1,263.9c-5.7-1.9-14.6-4.4-17.3-5.2c4.6,4.5,11.5,13.8,8,26.8c-2.3,5.9-9.1,16.7-29.2,32.4
	c-16.3,11.1-45.1,35.6-27.6,62.1c0,0-0.1-2.6,0.5-6.7c-0.3,2.1-0.5,4.2-0.5,6.5c0.1-2.5,1.8-30.8,45-49.7c0.4-0.2,37.5-15.8,40.4-35
	C2548.5,280.1,2532.8,267.9,2526.1,263.9z"/>
<path style="fill:#835631;" d="M2296,267.2c5.7-1.9,14.6-4.4,17.3-5.2c-4.6,4.5-11.5,10.5-8,23.5c2.3,5.9,9.1,16.7,29.2,32.4
	c16.3,11.1,45.1,35.6,27.6,62.1c0,0,0.1-2.6-0.5-6.7c0.3,2.1,0.5,4.2,0.5,6.5c-0.1-2.5-1.8-30.8-45-49.7c-0.4-0.2-37.5-15.8-40.4-35
	C2273.5,280.1,2289.3,271.2,2296,267.2z"/>
<path style="fill:#AA5529;" d="M2291.6,868.9"/>
<path style="fill:#845731;" d="M2085.8,471.6c0,0-6.9,11.4-9.2,15.5c-1.5,2.6-7.8,15-7.8,15s4.9,7.5,10,16.4
	c5.1,8.8,17.1,24.9,17.1,24.9s13.1,0.3,45.6-6.2c31.5-6.2,69.3-22.1,69.3-22.1C2137.5,499.7,2085.8,471.6,2085.8,471.6z"/>
<path style="fill:#845731;" d="M2733.3,471.6c0,0,6.9,11.4,9.2,15.5c1.5,2.6,7.6,14.4,7.6,14.4s-2.8,6.1-9.8,17.1
	c-5.5,8.6-17.1,24.9-17.1,24.9s-13.1,0.3-45.6-6.2c-31.5-6.2-69.3-22.1-69.3-22.1C2681.6,499.7,2733.3,471.6,2733.3,471.6z"/>
<rect x="2231.6" y="407.2" style="fill:#FFF5D9;" width="15.6" height="15.6"/>
<rect x="2523.3" y="408.9" style="fill:#FFF5D9;" width="15.6" height="15.6"/>
<g>
	<path style="fill:#D69F63;" d="M2362.5,535.1l-4.6-3.3c0,0,7.7,19.8,19.5,27.2c14.4,9,34,15.2,34,15.2s30.9-13.6,40-21.3
		c12.2-10.2,12.2-21.1,12.2-21.1l-24.4,4.5l-19.2,11.9l-27.9-6L2362.5,535.1z"/>
</g>
<g>
	<path style="fill:#845731;" d="M2366.2,597.4c30.2-1.8,42-16.2,42-16.2l2.9,6.1c-7.5,4.3-40.7,30.1-76.6,8.9
		c-14.3-8.4-18.8-26.5-18.8-26.5S2328.6,599.6,2366.2,597.4z"/>
</g>
<g>
	<path style="fill:#845731;" d="M2456.8,597.4c-30.2-1.8-42-16.2-42-16.2l-2.9,6.1c7.5,4.3,40.7,30.1,76.6,8.9
		c14.3-8.4,18.8-26.5,18.8-26.5S2494.3,599.6,2456.8,597.4z"/>
</g>
<path d="M2370.3,531.6l-12.5,0.1c0,0,3.8,8.7,10.3,16.3c6.5,7.6,14.8,8.9,14.8,8.9S2364.7,540.1,2370.3,531.6z"/>
<path d="M2451.1,531.6l12.5,0.1c0,0-0.4,9.3-9.4,16.7c-7.7,6.4-14.5,8.6-14.5,8.6S2463.6,537.3,2451.1,531.6z"/>
<path style="fill:#845731;" d="M2414.8,589l-3.2-2l-4.1,2.5c0,0-3.3-3.7-2.4-4.3c3.4-2.3,4-6.1,4-10.2c0-6.1-1.6-11.1-1.6-11.1h7.5
	c0,0-1.2,5.7-1.2,11.1c0,3.4,1,7.8,3.7,9.4C2418.7,585.1,2414.8,589,2414.8,589z"/>
<path style="fill:#483729;" d="M2357.9,531.8c0,0,11.4-5.7,19-4.6c7.6,1.1,20.6,9.6,34.5,9.6c13.9,0,22.1-9.9,33.8-9.9
	s18.5,4.9,18.5,4.9s-35.5,32.8-51.2,32.8C2401.3,564.5,2385.4,555,2357.9,531.8z"/>
<circle style="opacity:0.6;fill:#FFFBFB;" cx="2922.4" cy="736" r="4.4"/>
<circle style="opacity:0.6;fill:#FFFBFB;" cx="3721.9" cy="543.5" r="5.3"/>
<circle style="opacity:0.6;fill:#FFFBFB;" cx="3543" cy="171.4" r="3.7"/>
<circle style="opacity:0.6;fill:#FFFBFB;" cx="2201.9" cy="685.5" r="5.3"/>
<circle style="opacity:0.6;fill:#FFFBFB;" cx="1923.9" cy="404.5" r="5.3"/>
<circle style="opacity:0.6;fill:#FFFBFB;" cx="1853.9" cy="482.5" r="5.3"/>
<circle style="opacity:0.6;fill:#FFFBFB;" cx="766.9" cy="66.5" r="5.3"/>
<circle style="opacity:0.6;fill:#FFFBFB;" cx="826.9" cy="612.5" r="5.3"/>
<circle style="opacity:0.6;fill:#FFFBFB;" cx="242.9" cy="488.5" r="5.3"/>
<circle style="opacity:0.6;fill:#FFFBFB;" cx="29.9" cy="656.5" r="5.3"/>
<circle style="opacity:0.6;fill:#FFFBFB;" cx="1416.9" cy="710.5" r="5.3"/>
<circle style="opacity:0.6;fill:#FFFBFB;" cx="1164.9" cy="283.5" r="5.3"/>
<circle style="opacity:0.6;fill:#FFFBFB;" cx="4349.9" cy="262.5" r="5.3"/>
<circle style="opacity:0.6;fill:#FFFBFB;" cx="4856.9" cy="825.5" r="5.3"/>
<circle style="opacity:0.6;fill:#FFFBFB;" cx="4107.9" cy="756.5" r="5.3"/>
<circle style="opacity:0.6;fill:#FFFBFB;" cx="5565.9" cy="675.5" r="5.3"/>
<circle style="opacity:0.6;fill:#FFFBFB;" cx="5844.9" cy="278.5" r="5.3"/>
<circle style="opacity:0.6;fill:#FFFBFB;" cx="5731.9" cy="853.5" r="5.3"/>
<circle style="opacity:0.6;fill:#FFFBFB;" cx="5104.9" cy="44.5" r="5.3"/>
<polyline style="opacity:0.6;fill:#764E7F;" points="4756,914.7 4897,921 4996,945 5203,869.9 5339.7,921.6 5263.1,966.1 4834,987 
	4756,921.6 "/>
</svg>
