<?xml version="1.0" encoding="utf-8"?>
<!-- Generator: Adobe Illustrator 18.1.1, SVG Export Plug-In . SVG Version: 6.00 Build 0)  -->
<!DOCTYPE svg PUBLIC "-//W3C//DTD SVG 1.1//EN" "http://www.w3.org/Graphics/SVG/1.1/DTD/svg11.dtd">
<svg version="1.1" id="Layer_1" xmlns="http://www.w3.org/2000/svg" xmlns:xlink="http://www.w3.org/1999/xlink" x="0px" y="0px"
	 viewBox="0 0 117.9 144.2" style="enable-background:new 0 0 117.9 144.2;" xml:space="preserve">
<g>
	<polygon style="fill:#EAB97A;" points="84.4,106.5 91.7,139.2 91,144.2 79.5,144.1 77.7,110.7 	"/>
	<polygon style="fill:#845731;" points="85.9,113 77.9,114.1 78.1,116.6 86.4,115.5 	"/>
	<polygon style="fill:#845731;" points="86.9,117.5 78.2,118.5 78.3,121.1 87.4,120.1 	"/>
	<rect x="50.4" y="89.4" style="fill:#D69E63;" width="18.7" height="11.7"/>
	<path style="fill:#835631;" d="M46.5,33L7.3,5.1c0,0-3.4,24.7-2.9,32.7c0.5,7.1,2.2,14.8,7,20.3c4.6,5.3,12.2,5.9,17.3,1L46.5,33z"
		/>
	<path style="fill:#835631;" d="M70.6,33l39.2-28c0,0,3.4,24.7,2.9,32.7c-0.5,7.1-2.2,14.8-7,20.3c-4.6,5.3-12.2,5.9-17.3,1L70.6,33
		z"/>
	<path style="fill:#EAB97A;" d="M80.3,27.9c-2.8-1.5-6-2.5-9.4-3.2c1.3-0.9,6.1-1,6.1-1s-1.3-0.9-3.4-1.3c-2-0.4-5,0.4-5.1,0.4
		c0,0,0,0,0.1-0.1l-0.1,0.1c0,0,2.4-1.4,3.3-3.3c-1,0.3-3.3,1-7.5,1.7C55.7,22.6,46,25.3,46,25.3c-3.9,0.9-7.3,2.2-9.9,3.7
		C18.2,39.3,7.6,61.8,7.6,61.8s14,29.5,51.1,29.5c36.7,0,51-29.5,51-29.5S96.7,36.5,80.3,27.9z"/>
	<path style="fill:#D69E63;" d="M43.9,47.6c0,0,5,3.4,5.6,12.9c0,0-6.7,2.5-13.9,1.3c8.8-1,11.4-3.4,11.4-3.4
		C47.7,54.5,43.9,47.6,43.9,47.6z"/>
	<path style="fill:#FFFFFF;" d="M40.9,45.4c-10.5-5.1-17.1,7.4-18.6,10c-0.6,0.9,4,3.7,5.4,4.3l0,0c5.6,2.9,16.1,2.2,19.8,0.7
		C47.5,60.4,49.2,49.5,40.9,45.4"/>
	<g style="opacity:0.6;">
		<g>
			<defs>
				<rect id="SVGID_1_" x="31.6" y="30.1" width="9.4" height="10"/>
			</defs>
			<clipPath id="SVGID_2_">
				<use xlink:href="#SVGID_1_"  style="overflow:visible;"/>
			</clipPath>
		</g>
	</g>
	<path style="fill:#D69E63;" d="M72.7,47.6c0,0-5,3.4-5.6,12.9c0,0,6.7,2.5,13.9,1.3c-8.8-1-11.4-3.4-11.4-3.4
		C68.9,54.5,72.7,47.6,72.7,47.6z"/>
	<path style="fill:#020202;" d="M73.3,52.4c-0.1,4.1,2.8,7.4,6.5,7.4c3.6,0.1,6.6-3.2,6.7-7.2c0.1-4.1-2.8-7.4-6.5-7.4
		C76.4,45.1,73.4,48.3,73.3,52.4"/>
	<path style="fill:#1A2C35;" d="M79.9,52.5l4.7,5.1c0,0-2.1,2.3-4.3,2.2c-3.4-0.1-5.2-2.3-5.2-2.3L79.9,52.5z"/>
	<polygon style="fill:#EAB97A;" points="33.2,106.5 26,138.5 26.6,144.2 38.1,144.1 39.8,110.7 	"/>
	<path style="fill:#E82538;" d="M76.1,110.3l0.8,3.1l11.3-5.2c0,0-3.7-7.5-6.9-10.7c-0.1-0.1-0.3-0.2-0.5-0.4
		c-0.2-0.2-0.4-0.4-0.7-0.6c-1.6-1-3.9-2-6-2.8c0,0,0,0-0.1,0c-2.5-1-4.6-1.7-4.6-1.7s-3.5,7.3-9.4,7.2c-6,0-9.4-7.2-9.4-7.2
		c-3,0.3-11.2,4.6-11.2,4.6c-4.2,1.8-9.7,12.1-9.7,12.1l11.3,4.8l1-3l-2.7,33.8l39.3,0L76,110.9L76.1,110.3z"/>
	<path style="fill:#FFFFFF;" d="M69,60.6c3.8,1.5,14,2,19.6-0.8l0,0c1.4-0.6,5.9-3.7,5.6-4.3c-1.3-2.7-8.3-14.8-18.8-9.8
		C67,49.7,69,60.6,69,60.6"/>
	<rect x="52.5" y="110.4" style="fill:#FFFFFF;" width="2.5" height="2.5"/>
	<rect x="52.5" y="112.7" style="fill:#FFFFFF;" width="2.5" height="2.5"/>
	<rect x="52.5" y="115" style="fill:#FFFFFF;" width="2.5" height="2.5"/>
	<rect x="52.5" y="117.3" style="fill:#FFFFFF;" width="2.5" height="2.5"/>
	<rect x="55.4" y="109.5" style="fill:#FFFFFF;" width="0.6" height="0.6"/>
	<rect x="55.4" y="110.1" style="fill:#FFFFFF;" width="0.6" height="0.6"/>
	<rect x="55.4" y="110.7" style="fill:#FFFFFF;" width="0.6" height="0.6"/>
	<rect x="55.4" y="111.2" style="fill:#FFFFFF;" width="0.6" height="0.6"/>
	<rect x="56" y="109.5" style="fill:#FFFFFF;" width="0.6" height="0.6"/>
	<rect x="56" y="110.1" style="fill:#FFFFFF;" width="0.6" height="0.6"/>
	<rect x="56" y="110.7" style="fill:#FFFFFF;" width="0.6" height="0.6"/>
	<rect x="56" y="111.2" style="fill:#FFFFFF;" width="0.6" height="0.6"/>
	<rect x="56.7" y="109.2" style="fill:#FFFFFF;" width="0.6" height="0.6"/>
	<rect x="56.5" y="110.1" style="fill:#FFFFFF;" width="0.6" height="0.6"/>
	<rect x="56.5" y="110.7" style="fill:#FFFFFF;" width="0.6" height="0.6"/>
	<rect x="56.5" y="111.2" style="fill:#FFFFFF;" width="0.6" height="0.6"/>
	<rect x="59.8" y="106" style="fill:#FFFFFF;" width="0.6" height="0.6"/>
	<rect x="57.3" y="109.9" style="fill:#FFFFFF;" width="0.6" height="0.6"/>
	<rect x="57.1" y="110.7" style="fill:#FFFFFF;" width="0.6" height="0.6"/>
	<rect x="57.1" y="111.2" style="fill:#FFFFFF;" width="0.6" height="0.6"/>
	<rect x="54.8" y="112.7" style="fill:#FFFFFF;" width="2.5" height="2.5"/>
	<rect x="54.8" y="115" style="fill:#FFFFFF;" width="2.5" height="2.5"/>
	<rect x="54.8" y="117.3" style="fill:#FFFFFF;" width="2.5" height="2.5"/>
	<rect x="58.4" y="108.8" style="fill:#FFFFFF;" width="0.6" height="0.6"/>
	<rect x="58.4" y="109.3" style="fill:#FFFFFF;" width="0.6" height="0.6"/>
	<rect x="58.4" y="109.9" style="fill:#FFFFFF;" width="0.6" height="0.6"/>
	<rect x="58.4" y="110.5" style="fill:#FFFFFF;" width="0.6" height="0.6"/>
	<rect x="59.3" y="108.2" style="fill:#FFFFFF;" width="0.6" height="0.6"/>
	<rect x="59" y="109.3" style="fill:#FFFFFF;" width="0.6" height="0.6"/>
	<rect x="59" y="109.9" style="fill:#FFFFFF;" width="0.6" height="0.6"/>
	<rect x="59" y="110.5" style="fill:#FFFFFF;" width="0.6" height="0.6"/>
	<rect x="62.5" y="104.8" style="fill:#FFFFFF;" width="0.6" height="0.6"/>
	<rect x="60" y="108.9" style="fill:#FFFFFF;" width="0.6" height="0.6"/>
	<rect x="59.6" y="109.9" style="fill:#FFFFFF;" width="0.6" height="0.6"/>
	<rect x="59.6" y="110.5" style="fill:#FFFFFF;" width="0.6" height="0.6"/>
	<rect x="65.1" y="104.9" style="fill:#FFFFFF;" width="0.6" height="0.6"/>
	<rect x="63.7" y="106.1" style="fill:#FFFFFF;" width="0.6" height="0.6"/>
	<rect x="60.6" y="109.6" style="fill:#FFFFFF;" width="0.6" height="0.6"/>
	<rect x="60.1" y="110.5" style="fill:#FFFFFF;" width="0.6" height="0.6"/>
	<rect x="57.8" y="112" style="fill:#FFFFFF;" width="0.6" height="0.6"/>
	<rect x="57.8" y="112.5" style="fill:#FFFFFF;" width="0.6" height="0.6"/>
	<rect x="57.8" y="113.1" style="fill:#FFFFFF;" width="0.6" height="0.6"/>
	<rect x="57.8" y="113.7" style="fill:#FFFFFF;" width="0.6" height="0.6"/>
	<rect x="58.4" y="112" style="fill:#FFFFFF;" width="0.6" height="0.6"/>
	<rect x="58.4" y="112.5" style="fill:#FFFFFF;" width="0.6" height="0.6"/>
	<rect x="58.4" y="113.1" style="fill:#FFFFFF;" width="0.6" height="0.6"/>
	<rect x="58.4" y="113.7" style="fill:#FFFFFF;" width="0.6" height="0.6"/>
	<rect x="59.2" y="111.7" style="fill:#FFFFFF;" width="0.6" height="0.6"/>
	<rect x="59" y="112.5" style="fill:#FFFFFF;" width="0.6" height="0.6"/>
	<rect x="59" y="113.1" style="fill:#FFFFFF;" width="0.6" height="0.6"/>
	<rect x="59" y="113.7" style="fill:#FFFFFF;" width="0.6" height="0.6"/>
	<rect x="62.6" y="108.9" style="fill:#FFFFFF;" width="0.6" height="0.6"/>
	<rect x="59.8" y="112.3" style="fill:#FFFFFF;" width="0.6" height="0.6"/>
	<rect x="59.5" y="113.1" style="fill:#FFFFFF;" width="0.6" height="0.6"/>
	<rect x="59.5" y="113.7" style="fill:#FFFFFF;" width="0.6" height="0.6"/>
	<rect x="57.1" y="115" style="fill:#FFFFFF;" width="2.5" height="2.5"/>
	<rect x="57.1" y="117.3" style="fill:#FFFFFF;" width="2.5" height="2.5"/>
	<rect x="61.6" y="108.2" style="fill:#FFFFFF;" width="0.6" height="0.6"/>
	<rect x="61.6" y="108.7" style="fill:#FFFFFF;" width="0.6" height="0.6"/>
	<rect x="61.6" y="109.3" style="fill:#FFFFFF;" width="0.6" height="0.6"/>
	<rect x="61.6" y="109.9" style="fill:#FFFFFF;" width="0.6" height="0.6"/>
	<rect x="64.8" y="104.4" style="fill:#FFFFFF;" width="0.6" height="0.6"/>
	<rect x="62.2" y="108.7" style="fill:#FFFFFF;" width="0.6" height="0.6"/>
	<rect x="62.2" y="109.3" style="fill:#FFFFFF;" width="0.6" height="0.6"/>
	<rect x="62.2" y="109.9" style="fill:#FFFFFF;" width="0.6" height="0.6"/>
	<rect x="68" y="102" style="fill:#FFFFFF;" width="0.6" height="0.6"/>
	<g style="opacity:0.8973;">
		<g>
			<defs>
				<rect id="SVGID_3_" x="64.1" y="107.7" width="0.6" height="0.6"/>
			</defs>
			<clipPath id="SVGID_4_">
				<use xlink:href="#SVGID_3_"  style="overflow:visible;"/>
			</clipPath>
			<rect x="64.1" y="107.7" style="clip-path:url(#SVGID_4_);fill:#FFFFFF;" width="0.6" height="0.6"/>
		</g>
	</g>
	<rect x="62.8" y="109.3" style="fill:#FFFFFF;" width="0.6" height="0.6"/>
	
		<linearGradient id="SVGID_5_" gradientUnits="userSpaceOnUse" x1="72.6918" y1="52.9586" x2="88.8711" y2="52.9586" gradientTransform="matrix(1 0 0 1 -0.1323 0.1345)">
		<stop  offset="0" style="stop-color:#1E9A63"/>
		<stop  offset="1" style="stop-color:#228181"/>
	</linearGradient>
	<ellipse style="fill:url(#SVGID_5_);" cx="80.7" cy="53.1" rx="8.3" ry="8.6"/>
	<rect x="62.8" y="109.9" style="fill:#FFFFFF;" width="0.6" height="0.6"/>
	<rect x="71.5" y="100.1" style="fill:#FFFFFF;" width="0.6" height="0.6"/>
	<rect x="69.9" y="103.3" style="fill:#FFFFFF;" width="0.6" height="0.6"/>
	<rect x="66.7" y="106.9" style="fill:#FFFFFF;" width="0.6" height="0.6"/>
	<rect x="63.3" y="109.9" style="fill:#FFFFFF;" width="0.6" height="0.6"/>
	<rect x="61" y="111.4" style="fill:#FFFFFF;" width="0.6" height="0.6"/>
	<rect x="61" y="111.9" style="fill:#FFFFFF;" width="0.6" height="0.6"/>
	<rect x="61" y="112.5" style="fill:#FFFFFF;" width="0.6" height="0.6"/>
	<rect x="61" y="113.1" style="fill:#FFFFFF;" width="0.6" height="0.6"/>
	<rect x="61.9" y="110.9" style="fill:#FFFFFF;" width="0.6" height="0.6"/>
	<rect x="61.6" y="111.9" style="fill:#FFFFFF;" width="0.6" height="0.6"/>
	<rect x="61.6" y="112.5" style="fill:#FFFFFF;" width="0.6" height="0.6"/>
	<rect x="61.6" y="113.1" style="fill:#FFFFFF;" width="0.6" height="0.6"/>
	<rect x="65.6" y="107.7" style="fill:#FFFFFF;" width="0.6" height="0.6"/>
	<rect x="62.6" y="111.5" style="fill:#FFFFFF;" width="0.6" height="0.6"/>
	<rect x="62.2" y="112.5" style="fill:#FFFFFF;" width="0.6" height="0.6"/>
	<rect x="62.2" y="113.1" style="fill:#FFFFFF;" width="0.6" height="0.6"/>
	<rect x="66.8" y="106.7" style="fill:#FFFFFF;" width="0.6" height="0.6"/>
	<rect x="65.9" y="109.1" style="fill:#FFFFFF;" width="0.6" height="0.6"/>
	<rect x="63.3" y="112.2" style="fill:#FFFFFF;" width="0.6" height="0.6"/>
	<rect x="62.7" y="113.1" style="fill:#FFFFFF;" width="0.6" height="0.6"/>
	<rect x="60.3" y="114.4" style="fill:#FFFFFF;" width="0.6" height="0.6"/>
	<rect x="60.3" y="115" style="fill:#FFFFFF;" width="0.6" height="0.6"/>
	<rect x="60.3" y="115.5" style="fill:#FFFFFF;" width="0.6" height="0.6"/>
	<rect x="60.3" y="116.1" style="fill:#FFFFFF;" width="0.6" height="0.6"/>
	<rect x="60.8" y="114.4" style="fill:#FFFFFF;" width="0.6" height="0.6"/>
	<rect x="60.8" y="115" style="fill:#FFFFFF;" width="0.6" height="0.6"/>
	<rect x="60.8" y="115.5" style="fill:#FFFFFF;" width="0.6" height="0.6"/>
	<rect x="60.8" y="116.1" style="fill:#FFFFFF;" width="0.6" height="0.6"/>
	<rect x="61.6" y="114.2" style="fill:#FFFFFF;" width="0.6" height="0.6"/>
	<rect x="61.4" y="115" style="fill:#FFFFFF;" width="0.6" height="0.6"/>
	<rect x="61.4" y="115.5" style="fill:#FFFFFF;" width="0.6" height="0.6"/>
	<rect x="61.4" y="116.1" style="fill:#FFFFFF;" width="0.6" height="0.6"/>
	<rect x="65.5" y="111.7" style="fill:#FFFFFF;" width="0.6" height="0.6"/>
	<rect x="62.3" y="114.8" style="fill:#FFFFFF;" width="0.6" height="0.6"/>
	<rect x="62" y="115.5" style="fill:#FFFFFF;" width="0.6" height="0.6"/>
	<rect x="62" y="116.1" style="fill:#FFFFFF;" width="0.6" height="0.6"/>
	<rect x="59.4" y="117.3" style="fill:#FFFFFF;" width="2.5" height="2.5"/>
	<polygon style="fill:#845731;" points="31.7,113 39.6,114.1 39.5,116.6 31.2,115.5 	"/>
	<polygon style="fill:#845731;" points="30.7,117.5 39.4,118.5 39.3,121.1 30.1,120.1 	"/>
	
		<linearGradient id="SVGID_6_" gradientUnits="userSpaceOnUse" x1="28.062" y1="52.7941" x2="44.2413" y2="52.7941" gradientTransform="matrix(1 0 0 1 -0.1323 0.1345)">
		<stop  offset="0" style="stop-color:#1E9A63"/>
		<stop  offset="1" style="stop-color:#228181"/>
	</linearGradient>
	<ellipse style="fill:url(#SVGID_6_);" cx="36" cy="52.9" rx="8.3" ry="8.6"/>
	<path style="fill:#020202;" d="M41.9,53.4c0.1,3.5-2.4,6.3-5.6,6.3c-3.1,0-5.7-2.7-5.8-6.2c-0.1-3.5,2.4-6.3,5.6-6.3
		C39.3,47.1,41.9,49.9,41.9,53.4"/>
	<path style="fill:#1A2C35;" d="M36.3,53.6l-4,4.2c0,0,1.8,1.9,3.7,1.8c2.9,0,4.4-1.9,4.4-1.9L36.3,53.6z"/>
	<path style="fill:#020202;" d="M85.9,53.4c0.1,3.5-2.4,6.3-5.6,6.4c-3.1,0-5.7-2.7-5.8-6.2c-0.1-3.5,2.4-6.3,5.6-6.4
		C83.3,47.1,85.9,49.9,85.9,53.4"/>
	<path style="fill:#1A2C35;" d="M80.3,53.6l-4,4.2c0,0,1.8,1.9,3.7,1.8c2.9,0,4.4-1.9,4.4-1.9L80.3,53.6z"/>
	<path style="fill:#835631;" d="M84.4,30.4c0,0-1,5.3-5.4,9.6c0,0,8-1.4,11.2-4.7C90.2,35.3,87.4,32.4,84.4,30.4z"/>
	<path style="fill:#835631;" d="M33.2,30.4c0,0,1,5.3,5.4,9.6c0,0-8-1.5-11.2-4.7C27.4,35.3,32.2,31.1,33.2,30.4z"/>
	<path style="fill:#483729;" d="M37.7,28.2l1.1-0.5L7.3,4.7l20.2,30.6C29.8,33.2,33.2,30.4,37.7,28.2z"/>
	<path style="fill:#483729;" d="M90.2,35.3l19.6-30.2l-31,22.1l1.6,0.8C82.7,29.2,86.4,31.5,90.2,35.3z"/>
	<g>
		<path style="fill:#FFFFFF;" d="M45.4,127.1c0.1,0.1,0.4,0.2,0.6,0.2c0.3,0,0.4-0.1,0.4-0.3c0-0.2-0.1-0.3-0.4-0.4
			c-0.5-0.2-0.7-0.5-0.7-0.8c0-0.5,0.4-0.8,0.9-0.8c0.3,0,0.5,0.1,0.6,0.1l-0.1,0.5c-0.1-0.1-0.3-0.1-0.5-0.1
			c-0.2,0-0.3,0.1-0.3,0.3c0,0.2,0.1,0.2,0.4,0.4c0.4,0.2,0.7,0.4,0.7,0.8c0,0.5-0.4,0.8-1,0.8c-0.3,0-0.6-0.1-0.7-0.2L45.4,127.1z"
			/>
		<path style="fill:#FFFFFF;" d="M49.4,127c0,0.2,0,0.5,0,0.6h-0.6l0-0.3h0c-0.2,0.2-0.4,0.3-0.7,0.3c-0.5,0-0.8-0.4-0.8-0.8
			c0-0.7,0.6-1,1.5-1v0c0-0.2-0.1-0.5-0.5-0.5c-0.2,0-0.5,0.1-0.6,0.2l-0.1-0.4c0.2-0.1,0.5-0.2,0.9-0.2c0.8,0,1,0.5,1,1.1V127z
			 M48.8,126.4c-0.4,0-0.8,0.1-0.8,0.5c0,0.3,0.2,0.4,0.4,0.4c0.2,0,0.4-0.1,0.5-0.3c0,0,0-0.1,0-0.1V126.4z"/>
		<path style="fill:#FFFFFF;" d="M50.1,125.8c0-0.3,0-0.5,0-0.8h0.6l0,0.4h0c0.1-0.2,0.4-0.4,0.8-0.4c0.5,0,0.9,0.3,0.9,1.1v1.6
			l-0.6,0l0-1.5c0-0.3-0.1-0.6-0.4-0.6c-0.2,0-0.4,0.2-0.5,0.4c0,0.1,0,0.1,0,0.2l0,1.6h-0.6V125.8z"/>
		<path style="fill:#FFFFFF;" d="M55.2,123.8l0,3.1c0,0.3,0,0.5,0,0.7l-0.6,0l0-0.4h0c-0.1,0.3-0.4,0.4-0.8,0.4c-0.6,0-1-0.5-1-1.3
			c0-0.9,0.5-1.4,1.1-1.4c0.3,0,0.5,0.1,0.7,0.3h0v-1.5H55.2z M54.5,126.1c0-0.1,0-0.1,0-0.2c0-0.2-0.2-0.4-0.5-0.4
			c-0.4,0-0.6,0.4-0.6,0.9c0,0.5,0.2,0.8,0.6,0.8c0.2,0,0.4-0.1,0.5-0.4c0-0.1,0-0.1,0-0.2L54.5,126.1z"/>
		<path style="fill:#FFFFFF;" d="M55.8,127.1c0.1,0.1,0.4,0.2,0.6,0.2c0.3,0,0.4-0.1,0.4-0.3c0-0.2-0.1-0.3-0.4-0.4
			c-0.5-0.2-0.7-0.5-0.7-0.8c0-0.5,0.4-0.8,0.9-0.8c0.3,0,0.5,0.1,0.6,0.1l-0.1,0.5c-0.1-0.1-0.3-0.1-0.5-0.1
			c-0.2,0-0.3,0.1-0.3,0.3c0,0.2,0.1,0.2,0.4,0.4c0.4,0.2,0.7,0.4,0.7,0.8c0,0.5-0.4,0.8-1,0.8c-0.3,0-0.6-0.1-0.7-0.2L55.8,127.1z"
			/>
		<path style="fill:#FFFFFF;" d="M58.7,124.4v0.7h0.6v0.5h-0.6v1.2c0,0.3,0.1,0.5,0.3,0.5c0.1,0,0.2,0,0.2,0l0,0.5
			c-0.1,0-0.3,0.1-0.5,0.1c-0.2,0-0.4-0.1-0.5-0.2c-0.1-0.1-0.2-0.4-0.2-0.7v-1.3h-0.4l0-0.5l0.4,0l0-0.5L58.7,124.4z"/>
		<path style="fill:#FFFFFF;" d="M62,126.3c0,1-0.6,1.4-1.2,1.4c-0.7,0-1.2-0.5-1.2-1.4c0-0.9,0.5-1.4,1.2-1.4
			C61.5,125,62,125.5,62,126.3z M60.2,126.4c0,0.5,0.2,0.9,0.6,0.9c0.4,0,0.6-0.4,0.6-0.9c0-0.4-0.1-0.9-0.6-0.9
			C60.4,125.5,60.2,125.9,60.2,126.4z"/>
		<path style="fill:#FFFFFF;" d="M62.5,125.8c0-0.3,0-0.6,0-0.8h0.6l0,0.5h0c0.1-0.3,0.4-0.5,0.7-0.5c0.1,0,0.1,0,0.1,0v0.6
			c0,0-0.1,0-0.2,0c-0.3,0-0.5,0.2-0.6,0.5c0,0.1,0,0.1,0,0.2v1.4h-0.6L62.5,125.8z"/>
		<path style="fill:#FFFFFF;" d="M64.3,125.8c0-0.3,0-0.5,0-0.8l0.6,0l0,0.4h0c0.1-0.2,0.4-0.4,0.8-0.4c0.3,0,0.6,0.2,0.7,0.5h0
			c0.1-0.1,0.2-0.2,0.3-0.3c0.1-0.1,0.3-0.1,0.5-0.1c0.4,0,0.8,0.3,0.8,1.1v1.6h-0.6l0-1.5c0-0.4-0.1-0.7-0.4-0.7
			c-0.2,0-0.4,0.1-0.4,0.3c0,0.1,0,0.1,0,0.2l0,1.6h-0.6v-1.6c0-0.3-0.1-0.6-0.4-0.6c-0.2,0-0.4,0.2-0.4,0.4c0,0.1,0,0.1,0,0.2
			l0,1.6l-0.6,0V125.8z"/>
		<path style="fill:#FFFFFF;" d="M68.6,127.3c0-0.2,0.2-0.4,0.4-0.4s0.4,0.2,0.4,0.4c0,0.2-0.2,0.4-0.4,0.4
			C68.7,127.7,68.6,127.6,68.6,127.3z"/>
		<path style="fill:#FFFFFF;" d="M70.5,124.3c0,0.2-0.1,0.4-0.4,0.4c-0.2,0-0.3-0.2-0.3-0.4c0-0.2,0.1-0.4,0.4-0.4
			C70.4,123.9,70.5,124.1,70.5,124.3z M69.9,127.7l0-2.6h0.6l0,2.6H69.9z"/>
		<path style="fill:#FFFFFF;" d="M73.5,126.3c0,1-0.6,1.4-1.2,1.4c-0.7,0-1.2-0.5-1.2-1.4c0-0.9,0.5-1.4,1.2-1.4
			C73,125,73.5,125.5,73.5,126.3z M71.7,126.4c0,0.5,0.2,0.9,0.6,0.9c0.4,0,0.6-0.4,0.6-0.9c0-0.4-0.1-0.9-0.6-0.9
			C71.8,125.5,71.7,125.9,71.7,126.4z"/>
	</g>
	<path style="fill:#A05D29;" d="M66.2,43.5C66.2,43.5,66.2,43.5,66.2,43.5C66.2,43.5,66.2,43.5,66.2,43.5z"/>
	<path style="fill:#835631;" d="M76.1,26.1c-0.9-0.3-2.2-0.7-2.6-0.8c0.7,0.7,1.7,2.1,1.2,4c-0.3,0.9-1.4,2.5-4.4,4.9
		c-2.4,1.7-6.8,5.4-4.1,9.3c0,0,0-0.4,0.1-1c0,0.3-0.1,0.6-0.1,1c0-0.4,0.3-4.6,6.8-7.5c0.1,0,5.6-2.4,6.1-5.3
		C79.5,28.5,77.1,26.7,76.1,26.1z"/>
	<path style="fill:#835631;" d="M41.6,26.6c0.9-0.3,2.2-0.7,2.6-0.8c-0.7,0.7-1.7,1.6-1.2,3.5c0.3,0.9,1.4,2.5,4.4,4.9
		c2.4,1.7,6.8,5.4,4.1,9.3c0,0,0-0.4-0.1-1c0,0.3,0.1,0.6,0.1,1c0-0.4-0.3-4.6-6.8-7.5c-0.1,0-5.6-2.4-6.1-5.3
		C38.2,28.5,40.5,27.2,41.6,26.6z"/>
	<path style="fill:#AA5529;" d="M40.9,117"/>
	<path style="fill:#845731;" d="M10,57.3c0,0-1,1.7-1.4,2.3c-0.2,0.4-1.2,2.3-1.2,2.3s0.7,1.1,1.5,2.5c0.8,1.3,2.6,3.7,2.6,3.7
		s2,0,6.9-0.9c4.7-0.9,10.4-3.3,10.4-3.3C17.7,61.5,10,57.3,10,57.3z"/>
	<path style="fill:#845731;" d="M107.3,57.3c0,0,1,1.7,1.4,2.3c0.2,0.4,1.1,2.2,1.1,2.2s-0.4,0.9-1.5,2.6c-0.8,1.3-2.6,3.7-2.6,3.7
		s-2,0-6.9-0.9c-4.7-0.9-10.4-3.3-10.4-3.3C99.5,61.5,107.3,57.3,107.3,57.3z"/>
	<rect x="31.9" y="47.6" style="fill:#FFF5D9;" width="2.3" height="2.3"/>
	<rect x="75.7" y="47.8" style="fill:#FFF5D9;" width="2.3" height="2.3"/>
	<g>
		<path style="fill:#D69F63;" d="M51.5,66.8l-0.7-0.5c0,0,1.2,3,2.9,4.1c2.2,1.4,5.1,2.3,5.1,2.3s4.6-2.1,6-3.2
			c1.8-1.5,1.8-3.2,1.8-3.2L63.1,67l-2.9,1.8L56,67.9L51.5,66.8z"/>
	</g>
	<g>
		<path style="fill:#845731;" d="M52.1,76.2c4.5-0.3,6.3-2.4,6.3-2.4l0.4,0.9c-1.1,0.6-6.1,4.5-11.5,1.3c-2.1-1.3-2.8-4-2.8-4
			S46.5,76.5,52.1,76.2z"/>
	</g>
	<g>
		<path style="fill:#845731;" d="M65.7,76.2c-4.5-0.3-6.3-2.4-6.3-2.4L59,74.6c1.1,0.6,6.1,4.5,11.5,1.3c2.1-1.3,2.8-4,2.8-4
			S71.4,76.5,65.7,76.2z"/>
	</g>
	<path d="M52.7,66.3l-1.9,0c0,0,0.6,1.3,1.5,2.5c1,1.1,2.2,1.3,2.2,1.3S51.9,67.6,52.7,66.3z"/>
	<path d="M64.9,66.3l1.9,0c0,0-0.1,1.4-1.4,2.5c-1.2,1-2.2,1.3-2.2,1.3S66.7,67.1,64.9,66.3z"/>
	<path style="fill:#845731;" d="M59.4,74.9l-0.5-0.3L58.3,75c0,0-0.5-0.6-0.4-0.6c0.5-0.3,0.6-0.9,0.6-1.5c0-0.9-0.2-1.7-0.2-1.7
		h1.1c0,0-0.2,0.9-0.2,1.7c0,0.5,0.1,1.2,0.6,1.4C60,74.3,59.4,74.9,59.4,74.9z"/>
	<path style="fill:#483729;" d="M50.8,66.3c0,0,1.7-0.9,2.8-0.7c1.1,0.2,3.1,1.4,5.2,1.4c2.1,0,3.3-1.5,5.1-1.5
		c1.7,0,2.8,0.7,2.8,0.7s-5.3,4.9-7.7,4.9C57.4,71.2,55,69.8,50.8,66.3z"/>
</g>
</svg>
