<?xml version="1.0" encoding="utf-8"?>
<!-- Generator: Adobe Illustrator 19.1.1, SVG Export Plug-In . SVG Version: 6.00 Build 0)  -->
<svg version="1.1" id="Layer_1" xmlns="http://www.w3.org/2000/svg" xmlns:xlink="http://www.w3.org/1999/xlink" x="0px" y="0px"
	 viewBox="-181 142.3 597 249.7" style="enable-background:new -181 142.3 597 249.7;" xml:space="preserve">
<style type="text/css">
	.st0{fill:#4C4277;}
	.st1{fill:#FFFFFF;}
	.st2{fill:#B6B6D8;}
	.st3{fill:#DFDFF4;}
	.st4{fill:#C9C9E2;}
	.st5{fill:none;stroke:#FFFFFF;stroke-width:3;stroke-miterlimit:10;}
</style>
<g>
	<ellipse class="st0" cx="272" cy="274.8" rx="51.5" ry="53.5"/>
	<g>
		<path class="st0" d="M365,392c0-34.8-27.7-62-62.5-62h-54c-34.8,0-63.5,27.2-63.5,62l0,0H365L365,392z"/>
	</g>
	<polygon class="st0" points="364.7,271 323.6,241.4 304.5,186 241.1,186 220.5,240.9 181.1,271 	"/>
	<polygon class="st0" points="254.4,336 273.7,336 208.4,298.3 225.9,336 	"/>
	<polygon class="st0" points="291.2,336 271.8,336 337.1,298.3 319.6,336 	"/>
	<rect x="252.5" y="318" class="st0" width="51.9" height="29.9"/>
	<path class="st1" d="M231.6,265.2l30.1,9.7C261.7,274.8,231.6,301.5,231.6,265.2z"/>
	<path class="st1" d="M308.6,265.2l-30.1,9.7C278.5,274.8,308.6,301.5,308.6,265.2z"/>
</g>
<g>
	<g>
		<polygon class="st2" points="-6.5,215 -74.8,215 -74.8,351 32.2,351 32.2,252.8 		"/>
	</g>
	<polygon class="st3" points="-5.8,254.5 32.9,253.4 -5.8,215.8 	"/>
</g>
<polygon class="st4" points="52.2,361.2 52.2,365.5 47.9,365.5 47.9,368.7 55.3,368.7 55.3,361.2 "/>
<path class="st4" d="M-66.7,365.5h-12.7v3.2h12.7C-66.7,368.7-66.7,365.5-66.7,365.5z M-41.2,365.5H-54v3.2h12.7L-41.2,365.5
	L-41.2,365.5z M-15.8,365.5h-12.7v3.2h12.7V365.5z M9.7,365.5H-3v3.2H9.7V365.5z M35.2,365.5H22.5v3.2h12.7V365.5z"/>
<polygon class="st4" points="-89,365.5 -94.3,365.5 -94.3,361.2 -97.5,361.2 -97.5,368.7 -89,368.7 "/>
<path class="st4" d="M-94.3,232.8v-11.6h-3.2v11.7h3.2V232.8z M-94.3,256.2v-11.7h-3.2v11.7H-94.3z M-94.3,279.5v-11.6h-3.2v11.7
	h3.2V279.5z M-94.3,302.9v-11.7h-3.2v11.7H-94.3z M-94.3,326.2v-11.7h-3.2v11.7H-94.3z M-94.3,349.6v-11.7h-3.2v11.7H-94.3z"/>
<polygon class="st4" points="-94.3,205.2 -94.3,201 -89,201 -89,197.8 -97.5,197.8 -97.5,205.2 "/>
<path class="st4" d="M25.6,201h12.7v-3.2H25.6V201z M0.2,201h12.7v-3.2H0.2V201z M-25.3,201h12.7v-3.2h-12.7V201z M-50.8,201h12.7
	v-3.2h-12.7V201z M-76.2,201h12.7v-3.2h-12.7V201z"/>
<path class="st4" d="M52.2,333.6v11.7h3.2v-11.7H52.2z M52.2,310.3V322h3.2v-11.7H52.2z M52.2,287v11.7h3.2V287H52.2z M52.2,263.6
	v11.7h3.2v-11.7H52.2z M52.2,240.3V252h3.2v-11.7H52.2z M52.2,216.9v11.7h3.2v-11.7H52.2z"/>
<path class="st2" d="M62.1,197.9v-5.6c0-4-3.7-7.2-8.4-7.2c-4.6,0-8.4,3.2-8.4,7.2v5.6h-3v3v5.6v3.4c0,1.7,1.8,2.8,3.4,2.8h15.8
	c1.7,0,3.4-1.1,3.4-2.8v-3.4v-5.6v-3H62.1z M53.7,188.1c3.1,0,5.4,2.1,5.4,4.8v5H48.3v-5C48.3,190.2,50.7,188.1,53.7,188.1z"/>
<line class="st5" x1="129.5" y1="142.3" x2="129.5" y2="392"/>
</svg>
