<?xml version="1.0" encoding="utf-8"?>
<!-- Generator: Adobe Illustrator 19.1.1, SVG Export Plug-In . SVG Version: 6.00 Build 0)  -->
<svg version="1.1" id="Layer_1" xmlns="http://www.w3.org/2000/svg" xmlns:xlink="http://www.w3.org/1999/xlink" x="0px" y="0px"
	 viewBox="0 0 605 382" style="enable-background:new 0 0 605 382;" xml:space="preserve">
<style type="text/css">
	.st0{fill:#FFFFFF;}
	.st1{fill:#D1D1D1;}
	.st2{fill:#353535;}
	.st3{fill:#232323;}
	.st4{fill:#A5A5A5;}
	.st5{fill:#606060;}
	.st6{fill:#E0E0E0;}
	.st7{fill:#4F4F4F;}
	.st8{fill:#CECECE;}
	.st9{fill:#868686;}
</style>
<g>
	<rect x="5.9" y="25.1" class="st0" width="592.8" height="350.2"/>
	<polygon class="st1" points="598.7,375.3 598.7,374.8 6.4,374.8 6.4,25.6 598.2,25.6 598.2,375.3 598.7,375.3 598.7,374.8 
		598.7,375.3 599.2,375.3 599.2,24.6 5.4,24.6 5.4,375.8 599.2,375.8 599.2,375.3 	"/>
	<path class="st2" d="M91.6,187.4h1.6v-6.7c0.9-0.9,1.6-1.4,2.5-1.4c1.2,0,1.8,0.7,1.8,2.5v5.7H99v-5.9c0-2.4-0.9-3.6-2.8-3.6
		c-1.3,0-2.2,0.7-3.1,1.5l0.1-1.9v-3.7h-1.6V187.4z M82.5,186.4c0.9,0.7,2.1,1.3,3.5,1.3c2.2,0,3.4-1.3,3.4-2.8
		c0-1.8-1.5-2.3-2.8-2.8c-1-0.4-2.1-0.7-2.1-1.6c0-0.7,0.5-1.3,1.7-1.3c0.8,0,1.5,0.3,2.1,0.8l0.7-1c-0.7-0.6-1.7-1-2.9-1
		c-2,0-3.2,1.1-3.2,2.6c0,1.6,1.4,2.2,2.8,2.7c1,0.4,2.1,0.8,2.1,1.8c0,0.8-0.6,1.4-1.8,1.4c-1.1,0-1.9-0.5-2.7-1.1L82.5,186.4z
		 M75,182.1c0.2-1.9,1.4-2.9,2.7-2.9c1.4,0,2.3,1,2.3,2.9H75z M73.4,182.8c0,3,2,4.8,4.4,4.8c1.3,0,2.2-0.4,3-1l-0.6-1
		c-0.7,0.4-1.4,0.7-2.3,0.7c-1.8,0-3-1.3-3.1-3.3h6.3c0-0.2,0.1-0.5,0.1-0.9c0-2.6-1.3-4.3-3.7-4.3
		C75.5,177.9,73.4,179.8,73.4,182.8z M65.5,182.1c0.2-1.9,1.4-2.9,2.7-2.9c1.4,0,2.3,1,2.3,2.9H65.5z M64,182.8c0,3,2,4.8,4.4,4.8
		c1.3,0,2.2-0.4,3-1l-0.6-1c-0.7,0.4-1.4,0.7-2.3,0.7c-1.8,0-3-1.3-3.1-3.3h6.3c0-0.2,0.1-0.5,0.1-0.9c0-2.6-1.3-4.3-3.7-4.3
		C66,177.9,64,179.8,64,182.8z M54.3,187.4h1.6v-6.7c0.9-0.9,1.6-1.4,2.5-1.4c1.2,0,1.8,0.7,1.8,2.5v5.7h1.6v-5.9
		c0-2.4-0.9-3.6-2.8-3.6c-1.3,0-2.2,0.7-3.1,1.5l0.1-1.9v-3.7h-1.6V187.4z M45.3,186.4c0.9,0.7,2.1,1.3,3.5,1.3
		c2.2,0,3.4-1.3,3.4-2.8c0-1.8-1.5-2.3-2.8-2.8c-1-0.4-2.1-0.7-2.1-1.6c0-0.7,0.5-1.3,1.7-1.3c0.8,0,1.5,0.3,2.1,0.8l0.7-1
		c-0.7-0.6-1.7-1-2.9-1c-2,0-3.2,1.1-3.2,2.6c0,1.6,1.4,2.2,2.8,2.7c1,0.4,2.1,0.8,2.1,1.8c0,0.8-0.6,1.4-1.8,1.4
		c-1.1,0-1.9-0.5-2.7-1.1L45.3,186.4z M43.1,187.4h1.7l-4.2-12.5h-1.8l-4.2,12.5h1.6l1.2-3.8h4.6L43.1,187.4z M37.7,182.3l0.6-1.9
		c0.4-1.4,0.8-2.8,1.2-4.2h0.1c0.4,1.4,0.8,2.8,1.2,4.2l0.6,1.9H37.7z"/>
	<path class="st2" d="M357.4,182.8c0-2.1,1.2-3.5,2.7-3.5c0.8,0,1.5,0.3,2.2,1v4.8c-0.8,0.9-1.5,1.3-2.4,1.3
		C358.3,186.3,357.4,185,357.4,182.8z M355.8,182.8c0,3.1,1.5,4.8,3.8,4.8c1.1,0,2.1-0.6,2.8-1.3h0.1l0.1,1.1h1.3v-13.6h-1.6v3.6
		l0.1,1.6c-0.8-0.7-1.5-1.1-2.6-1.1C357.7,177.9,355.8,179.8,355.8,182.8z M347.8,182.1c0.2-1.9,1.4-2.9,2.7-2.9
		c1.4,0,2.3,1,2.3,2.9H347.8z M346.3,182.8c0,3,2,4.8,4.4,4.8c1.3,0,2.2-0.4,3-1l-0.6-1c-0.7,0.4-1.4,0.7-2.3,0.7
		c-1.8,0-3-1.3-3.1-3.3h6.3c0-0.2,0.1-0.5,0.1-0.9c0-2.6-1.3-4.3-3.7-4.3C348.3,177.9,346.3,179.8,346.3,182.8z M337.3,182.8
		c0-2.1,1.2-3.5,2.7-3.5c0.8,0,1.5,0.3,2.2,1v4.8c-0.8,0.9-1.5,1.3-2.4,1.3C338.3,186.3,337.3,185,337.3,182.8z M335.7,182.8
		c0,3.1,1.5,4.8,3.8,4.8c1.1,0,2.1-0.6,2.8-1.3h0.1l0.1,1.1h1.3v-13.6h-1.6v3.6l0.1,1.6c-0.8-0.7-1.5-1.1-2.6-1.1
		C337.6,177.9,335.7,179.8,335.7,182.8z M326.8,182.8c0-2.1,1.2-3.5,2.7-3.5c0.8,0,1.5,0.3,2.2,1v4.8c-0.8,0.9-1.5,1.3-2.4,1.3
		C327.7,186.3,326.8,185,326.8,182.8z M325.2,182.8c0,3.1,1.5,4.8,3.8,4.8c1.1,0,2.1-0.6,2.8-1.3h0.1l0.1,1.1h1.3v-13.6h-1.6v3.6
		l0.1,1.6c-0.8-0.7-1.5-1.1-2.6-1.1C327.1,177.9,325.2,179.8,325.2,182.8z M317.2,184.9c0-1.2,1-1.9,4.2-2.3v2.6
		c-0.9,0.8-1.6,1.2-2.5,1.2C317.9,186.4,317.2,186,317.2,184.9z M315.6,185c0,1.7,1.2,2.6,2.7,2.6c1.1,0,2.2-0.6,3.1-1.3h0l0.1,1.1
		h1.3v-5.7c0-2.3-1-3.8-3.2-3.8c-1.5,0-2.8,0.6-3.6,1.2l0.6,1.1c0.7-0.5,1.7-1,2.8-1c1.5,0,1.9,1.1,1.9,2.3
		C317.4,182,315.6,183,315.6,185z"/>
	<path class="st2" d="M372.4,185.4v-4.9c0.9-0.8,1.7-1.3,2.5-1.3c1.8,0,2.4,1.4,2.4,3.4c0,2.3-1.1,3.7-2.6,3.7
		C374.1,186.3,373.2,186.1,372.4,185.4z M370.8,187.4h1.3l0.1-0.9h0.1c0.8,0.7,1.8,1.1,2.6,1.1c2.1,0,4-1.8,4-5
		c0-2.9-1.3-4.7-3.7-4.7c-1,0-2.1,0.6-2.9,1.3l0-1.7v-3.7h-1.6V187.4z"/>
	<path class="st2" d="M489.3,184c0,2.4,0.9,3.6,2.8,3.6c1.3,0,2.2-0.7,3-1.7h0.1l0.1,1.4h1.3v-9.3h-1.6v6.6
		c-0.9,1.1-1.5,1.6-2.5,1.6c-1.2,0-1.7-0.7-1.7-2.5v-5.7h-1.6V184z M483,183.4c-1.1,0-2-0.9-2-2.2s0.9-2.2,2-2.2c1.1,0,2,0.8,2,2.2
		S484,183.4,483,183.4z M479.1,189.2c0,1.6,1.6,2.5,3.8,2.5c2.9,0,4.7-1.5,4.7-3.2c0-1.5-1.1-2.2-3.2-2.2h-1.8c-1.3,0-1.6-0.4-1.6-1
		c0-0.5,0.3-0.8,0.6-1.1c0.4,0.2,0.9,0.3,1.4,0.3c1.9,0,3.4-1.2,3.4-3.2c0-0.8-0.3-1.5-0.8-1.9h1.9v-1.2h-3.2
		c-0.3-0.1-0.8-0.2-1.3-0.2c-1.9,0-3.5,1.3-3.5,3.3c0,1.1,0.6,2,1.2,2.5v0.1c-0.5,0.3-1,0.9-1,1.7c0,0.7,0.4,1.2,0.8,1.5v0.1
		C479.7,187.7,479.1,188.4,479.1,189.2z M480.5,189c0-0.5,0.3-1.1,1-1.6c0.4,0.1,0.8,0.2,1.2,0.2h1.6c1.2,0,1.9,0.3,1.9,1.1
		c0,1-1.2,1.9-2.9,1.9C481.5,190.6,480.5,190,480.5,189z M467.7,187.4h1.5v-6.5c0-1.3-0.1-2.6-0.2-3.9h0.1l1.4,2.6l4.5,7.9h1.6
		v-12.5h-1.5v6.5c0,1.3,0.1,2.7,0.2,4h-0.1l-1.4-2.6l-4.5-7.9h-1.6V187.4z M455.1,184.9c0-1.2,1-1.9,4.2-2.3v2.6
		c-0.9,0.8-1.6,1.2-2.5,1.2C455.8,186.4,455.1,186,455.1,184.9z M453.6,185c0,1.7,1.2,2.6,2.7,2.6c1.1,0,2.2-0.6,3.1-1.3h0l0.1,1.1
		h1.3v-5.7c0-2.3-1-3.8-3.2-3.8c-1.5,0-2.8,0.6-3.6,1.2l0.6,1.1c0.7-0.5,1.7-1,2.8-1c1.5,0,1.9,1.1,1.9,2.3
		C455.3,182,453.6,183,453.6,185z M443.6,187.4h1.6v-6.7c0.9-0.9,1.6-1.4,2.5-1.4c1.2,0,1.8,0.7,1.8,2.5v5.7h1.6v-5.9
		c0-2.4-0.9-3.6-2.8-3.6c-1.3,0-2.2,0.7-3.1,1.6H445l-0.1-1.3h-1.3V187.4z M435,182.1c0.2-1.9,1.4-2.9,2.7-2.9c1.4,0,2.3,1,2.3,2.9
		H435z M433.5,182.8c0,3,2,4.8,4.4,4.8c1.3,0,2.2-0.4,3-1l-0.6-1c-0.7,0.4-1.4,0.7-2.3,0.7c-1.8,0-3-1.3-3.1-3.3h6.3
		c0-0.2,0.1-0.5,0.1-0.9c0-2.6-1.3-4.3-3.7-4.3C435.5,177.9,433.5,179.8,433.5,182.8z M422,187.4h1.5v-6.5c0-1.3-0.1-2.6-0.2-3.9
		h0.1l1.4,2.6l4.5,7.9h1.6v-12.5h-1.5v6.5c0,1.3,0.1,2.7,0.2,4h-0.1l-1.4-2.6l-4.5-7.9H422V187.4z M389.9,186.5
		c0,0.7,0.5,1.2,1.1,1.2c0.6,0,1.1-0.5,1.1-1.2c0-0.7-0.5-1.2-1.1-1.2C390.4,185.3,389.9,185.8,389.9,186.5z M389.9,179.6
		c0,0.7,0.5,1.2,1.1,1.2c0.6,0,1.1-0.5,1.1-1.2c0-0.7-0.5-1.2-1.1-1.2C390.4,178.4,389.9,178.9,389.9,179.6z M380.7,190l-0.3,1.2
		c0.3,0.1,0.7,0.2,1.1,0.2c1.9,0,2.8-1.4,3.5-3.2l3.5-10h-1.5l-1.7,5.1c-0.2,0.8-0.5,1.8-0.8,2.6h-0.1c-0.3-0.9-0.6-1.8-0.9-2.6
		l-1.9-5.1H380l3.7,9.3l-0.2,0.7c-0.4,1.1-1,2-2.1,2C381.2,190.1,380.9,190,380.7,190z"/>
	<path class="st2" d="M499.2,190l-0.3,1.2c0.3,0.1,0.7,0.2,1.1,0.2c1.9,0,2.8-1.4,3.5-3.2l3.5-10h-1.5l-1.7,5.1
		c-0.2,0.8-0.5,1.8-0.8,2.6h-0.1c-0.3-0.9-0.6-1.8-0.9-2.6l-1.9-5.1h-1.6l3.7,9.3l-0.2,0.7c-0.4,1.1-1,2-2.1,2
		C499.7,190.1,499.4,190,499.2,190z"/>
	<path class="st2" d="M534.9,190.8l1-0.5c-1.5-2.4-2.2-5.3-2.2-8.2s0.7-5.8,2.2-8.2l-1-0.5c-1.6,2.6-2.5,5.3-2.5,8.7
		S533.3,188.2,534.9,190.8z M518.1,187.4h1.6v-6.7c0.9-0.9,1.6-1.4,2.5-1.4c1.2,0,1.8,0.7,1.8,2.5v5.7h1.6v-5.9
		c0-2.4-0.9-3.6-2.8-3.6c-1.3,0-2.2,0.7-3.1,1.6h-0.1l-0.1-1.3h-1.3V187.4z M509.5,182.1c0.2-1.9,1.4-2.9,2.7-2.9
		c1.4,0,2.3,1,2.3,2.9H509.5z M508,182.8c0,3,2,4.8,4.4,4.8c1.3,0,2.2-0.4,3-1l-0.6-1c-0.7,0.4-1.4,0.7-2.3,0.7
		c-1.8,0-3-1.3-3.1-3.3h6.3c0-0.2,0.1-0.5,0.1-0.9c0-2.6-1.3-4.3-3.7-4.3C510,177.9,508,179.8,508,182.8z"/>
	<path class="st2" d="M537.5,190l-0.3,1.2c0.3,0.1,0.7,0.2,1.1,0.2c1.9,0,2.8-1.4,3.5-3.2l3.5-10h-1.5l-1.7,5.1
		c-0.2,0.8-0.5,1.8-0.8,2.6h-0.1c-0.3-0.9-0.6-1.8-0.9-2.6l-1.9-5.1h-1.6l3.7,9.3l-0.2,0.7c-0.4,1.1-1,2-2.1,2
		C538,190.1,537.7,190,537.5,190z"/>
	<path class="st2" d="M566.8,190.3l1,0.5c1.6-2.6,2.5-5.3,2.5-8.7s-0.9-6.1-2.5-8.7l-1,0.5c1.5,2.4,2.2,5.3,2.2,8.2
		S568.3,187.9,566.8,190.3z M557.2,184c0,2.4,0.9,3.6,2.8,3.6c1.3,0,2.2-0.7,3-1.7h0.1l0.1,1.4h1.3v-9.3H563v6.6
		c-0.9,1.1-1.5,1.6-2.5,1.6c-1.2,0-1.7-0.7-1.7-2.5v-5.7h-1.6V184z M547.9,182.8c0-2.1,1.1-3.6,2.7-3.6c1.6,0,2.7,1.4,2.7,3.6
		c0,2.1-1.1,3.5-2.7,3.5C549,186.4,547.9,184.9,547.9,182.8z M546.3,182.8c0,3.1,2,4.8,4.3,4.8c2.3,0,4.3-1.8,4.3-4.8
		c0-3.1-2-4.9-4.3-4.9C548.3,177.9,546.3,179.7,546.3,182.8z"/>
	<path class="st2" d="M67,132.1v-4.3h1.8c1.8,0,2.7,0.5,2.7,2.1c0,1.5-0.9,2.3-2.7,2.3H67z M64.8,138.4H67v-4.6h2
		c2.7,0,4.7-1.3,4.7-4c0-2.9-2-3.8-4.7-3.8h-4.2V138.4z"/>
	<path class="st2" d="M113,132.9c0.2-1.6,1.1-2.4,2.2-2.4c1.3,0,1.9,0.9,1.9,2.4H113z M110.8,133.8c0,3.1,2,4.9,4.6,4.9
		c1.2,0,2.3-0.4,3.2-1l-0.7-1.4c-0.7,0.4-1.4,0.7-2.2,0.7c-1.5,0-2.6-1-2.8-2.6h5.9c0.1-0.2,0.1-0.6,0.1-1c0-2.6-1.3-4.4-3.9-4.4
		C113,128.8,110.8,130.7,110.8,133.8z M106.3,136c0,1.6,0.6,2.6,2.1,2.6c0.5,0,0.9-0.1,1.2-0.2l-0.3-1.6c-0.2,0-0.2,0-0.3,0
		c-0.2,0-0.5-0.2-0.5-0.7V125h-2.2V136z M97.7,136.1v-4.4c0.7-0.7,1.4-1,2.1-1c1.4,0,2,1.1,2,3c0,2.1-1,3.2-2.2,3.2
		C99.1,136.8,98.4,136.6,97.7,136.1z M97.7,137.6c0.8,0.6,1.6,1,2.4,1c2.1,0,4-1.8,4-5.1c0-2.9-1.4-4.8-3.7-4.8c-1,0-2,0.6-2.8,1.2
		h-0.1l-0.2-1h-1.8v13.1h2.2v-2.9L97.7,137.6z M86.7,133.8c0-1.9,0.8-3.1,2.2-3.1s2.2,1.2,2.2,3.1c0,1.9-0.8,3.1-2.2,3.1
		S86.7,135.6,86.7,133.8z M84.5,133.8c0,3.1,2.1,4.9,4.4,4.9c2.3,0,4.5-1.8,4.5-4.9c0-3.1-2.1-4.9-4.5-4.9
		C86.6,128.8,84.5,130.6,84.5,133.8z M76.9,132.9c0.2-1.6,1.1-2.4,2.2-2.4c1.3,0,1.9,0.9,1.9,2.4H76.9z M74.8,133.8
		c0,3.1,2,4.9,4.6,4.9c1.2,0,2.3-0.4,3.2-1l-0.7-1.4c-0.7,0.4-1.4,0.7-2.2,0.7c-1.5,0-2.6-1-2.8-2.6h5.9c0.1-0.2,0.1-0.6,0.1-1
		c0-2.6-1.3-4.4-3.9-4.4C76.9,128.8,74.8,130.7,74.8,133.8z"/>
	<path class="st3" d="M175.3,260.8c0,0.9,0.6,1.5,1.4,1.5c0.8,0,1.4-0.6,1.4-1.5s-0.6-1.5-1.4-1.5
		C175.9,259.3,175.3,259.9,175.3,260.8z M175.3,254.2c0,0.9,0.6,1.5,1.4,1.5c0.8,0,1.4-0.6,1.4-1.5s-0.6-1.5-1.4-1.5
		C175.9,252.8,175.3,253.4,175.3,254.2z M166.3,261c0.9,0.7,2.3,1.3,3.5,1.3c2.4,0,3.6-1.3,3.6-2.9c0-1.8-1.4-2.4-2.7-2.8
		c-1-0.4-1.9-0.7-1.9-1.4c0-0.6,0.4-1,1.4-1c0.7,0,1.4,0.3,2.1,0.8l1-1.3c-0.8-0.6-1.8-1.1-3.1-1.1c-2.1,0-3.4,1.2-3.4,2.8
		c0,1.6,1.4,2.3,2.6,2.7c1,0.4,2,0.7,2,1.5c0,0.6-0.5,1.1-1.5,1.1c-1,0-1.8-0.4-2.6-1L166.3,261z M157.3,262h2.2v-2.4l1.5-1.7
		l2.4,4.1h2.4l-3.5-5.5l3.2-3.8H163l-3.5,4.3h-0.1v-8.4h-2.2V262z M146.6,262h2.2v-6.5c0.8-0.8,1.3-1.2,2.1-1.2c1,0,1.5,0.6,1.5,2.1
		v5.6h2.2v-5.9c0-2.4-0.9-3.7-2.9-3.7c-1.3,0-2.2,0.7-3.1,1.5h-0.1l-0.2-1.3h-1.8V262z M141.6,262h2.2v-9.4h-2.2V262z M142.7,251
		c0.8,0,1.4-0.5,1.4-1.2c0-0.7-0.6-1.3-1.4-1.3c-0.8,0-1.4,0.5-1.4,1.3C141.4,250.5,142,251,142.7,251z M132.3,262h7.4v-1.9h-5.2
		v-10.6h-2.2V262z M121.7,257.7c-0.9,0-1.6-0.7-1.6-1.9c0-1.2,0.7-1.8,1.6-1.8s1.6,0.7,1.6,1.8C123.3,257,122.6,257.7,121.7,257.7z
		 M117.7,263.7c0,1.6,1.7,2.4,3.9,2.4c3,0,5-1.4,5-3.3c0-1.6-1.2-2.3-3.4-2.3h-1.7c-1.1,0-1.5-0.3-1.5-0.9c0-0.4,0.2-0.6,0.5-0.9
		c0.4,0.2,0.9,0.2,1.3,0.2c2,0,3.5-1.1,3.5-3.2c0-0.6-0.2-1.2-0.5-1.6h1.7v-1.6h-3.4c-0.4-0.1-0.9-0.2-1.4-0.2c-2,0-3.7,1.2-3.7,3.4
		c0,1.1,0.6,2,1.2,2.5v0.1c-0.5,0.4-1,1-1,1.7c0,0.8,0.4,1.3,0.8,1.6v0.1C118.2,262.3,117.7,262.9,117.7,263.7z M119.5,263.4
		c0-0.4,0.2-0.9,0.7-1.2c0.4,0.1,0.8,0.1,1.3,0.1h1.3c1.1,0,1.7,0.2,1.7,0.9c0,0.8-1,1.5-2.5,1.5
		C120.4,264.7,119.5,264.2,119.5,263.4z M107.6,262h2.2v-6.5c0.8-0.8,1.3-1.2,2.1-1.2c1,0,1.5,0.6,1.5,2.1v5.6h2.2v-5.9
		c0-2.4-0.9-3.7-2.9-3.7c-1.3,0-2.2,0.7-3.1,1.5h-0.1l-0.2-1.3h-1.8V262z M102.7,262h2.2v-9.4h-2.2V262z M103.8,251
		c0.8,0,1.4-0.5,1.4-1.2c0-0.7-0.6-1.3-1.4-1.3c-0.8,0-1.4,0.5-1.4,1.3C102.4,250.5,103,251,103.8,251z M95.5,262h2.2v-5.7
		c0.6-1.4,1.5-1.9,2.2-1.9c0.4,0,0.6,0.1,1,0.2l0.4-1.9c-0.3-0.1-0.6-0.2-1.1-0.2c-1,0-2,0.7-2.6,1.9h-0.1l-0.2-1.7h-1.8V262z
		 M87.3,259.3c0-0.9,0.8-1.6,3.4-1.9v2.1c-0.7,0.6-1.3,1-2,1C87.9,260.5,87.3,260.2,87.3,259.3z M85.2,259.5c0,1.6,1.1,2.7,2.8,2.7
		c1.1,0,2.1-0.6,2.9-1.3h0.1l0.2,1h1.8v-5.5c0-2.6-1.1-4-3.5-4c-1.5,0-2.8,0.6-3.8,1.2l0.8,1.5c0.8-0.5,1.7-0.9,2.6-0.9
		c1.3,0,1.7,0.8,1.7,1.8C86.9,256.5,85.2,257.5,85.2,259.5z M75,262h2.2v-6.5c0.8-0.8,1.3-1.2,2.1-1.2c1,0,1.5,0.6,1.5,2.1v5.6h2.2
		v-5.9c0-2.4-0.9-3.7-2.9-3.7c-1.3,0-2.2,0.7-3,1.4l0.1-1.8v-3.5H75V262z M63.9,260.4c1.2,1.2,2.8,1.8,4.5,1.8
		c2.8,0,4.5-1.7,4.5-3.7c0-1.8-1-2.7-2.5-3.4l-1.7-0.7c-1-0.4-2-0.8-2-1.8c0-0.9,0.8-1.5,1.9-1.5c1.1,0,1.9,0.4,2.7,1.1l1.1-1.4
		c-1-1-2.4-1.6-3.8-1.6c-2.4,0-4.2,1.5-4.2,3.5c0,1.8,1.3,2.8,2.5,3.3l1.7,0.7c1.1,0.5,1.9,0.8,1.9,1.8c0,1-0.8,1.6-2.2,1.6
		c-1.2,0-2.4-0.6-3.3-1.4L63.9,260.4z"/>
	<path class="st0" d="M399.4,340.7h129.3c1.3,0,2.4-1.1,2.4-2.4v-40.8c0-1.3-1.1-2.4-2.4-2.4H399.4c-1.3,0-2.4,1.1-2.4,2.4v40.8
		C397.1,339.6,398.1,340.7,399.4,340.7z"/>
	<path class="st4" d="M399.4,340.7v0.5h129.3c1.6,0,2.9-1.3,2.9-2.9v-40.8c0-1.6-1.3-2.9-2.9-2.9H399.4c-1.6,0-2.9,1.3-2.9,2.9v40.8
		c0,1.6,1.3,2.9,2.9,2.9V340.7v-0.5c-1,0-1.9-0.8-1.9-1.9v-40.8c0-1,0.8-1.9,1.9-1.9h129.3c1,0,1.9,0.8,1.9,1.9v40.8
		c0,1-0.8,1.9-1.9,1.9H399.4V340.7z"/>
	<path class="st3" d="M462.7,323.7h1.6v-9.3h-1.6V323.7z M463.5,312.5c0.6,0,1.1-0.4,1.1-1c0-0.6-0.5-1-1.1-1c-0.6,0-1.1,0.4-1.1,1
		C462.4,312.1,462.9,312.5,463.5,312.5z M455.8,323.7h1.8l3.3-9.3h-1.5l-1.8,5.3c-0.3,0.9-0.6,1.8-0.8,2.7h-0.1
		c-0.3-0.9-0.6-1.8-0.9-2.7l-1.8-5.3h-1.6L455.8,323.7z M439.5,323.7h1.6V317c0.9-0.9,1.6-1.4,2.5-1.4c1.2,0,1.8,0.7,1.8,2.5v5.7
		h1.6v-5.9c0-2.4-0.9-3.6-2.8-3.6c-1.3,0-2.2,0.7-3.1,1.6h-0.1l-0.1-1.3h-1.3V323.7z M430.8,321.2c0-1.2,1-1.9,4.2-2.3v2.6
		c-0.9,0.8-1.6,1.2-2.5,1.2C431.5,322.7,430.8,322.2,430.8,321.2z M429.3,321.3c0,1.7,1.2,2.6,2.7,2.6c1.1,0,2.2-0.6,3.1-1.3h0
		l0.1,1.1h1.3V318c0-2.3-1-3.8-3.2-3.8c-1.5,0-2.8,0.6-3.6,1.2l0.6,1.1c0.7-0.5,1.7-1,2.8-1c1.5,0,1.9,1.1,1.9,2.3
		C431,318.3,429.3,319.3,429.3,321.3z M418.3,317.4c0,4.1,2.3,6.5,5.5,6.5c1.6,0,2.8-0.7,3.8-1.8l-0.9-1c-0.8,0.9-1.7,1.4-2.9,1.4
		c-2.4,0-3.9-2-3.9-5.1c0-3.1,1.6-5.1,4-5.1c1,0,1.8,0.5,2.5,1.2l0.9-1c-0.7-0.8-1.9-1.5-3.4-1.5C420.7,311,418.3,313.4,418.3,317.4
		z"/>
	<path class="st3" d="M468.2,318.4c0.2-1.9,1.4-2.9,2.7-2.9c1.4,0,2.3,1,2.3,2.9H468.2z M466.7,319.1c0,3,2,4.8,4.4,4.8
		c1.3,0,2.2-0.4,3-1l-0.6-1c-0.7,0.4-1.4,0.7-2.3,0.7c-1.8,0-3-1.3-3.1-3.3h6.3c0-0.2,0.1-0.5,0.1-0.9c0-2.6-1.3-4.3-3.7-4.3
		C468.7,314.2,466.7,316.1,466.7,319.1z"/>
	<path class="st3" d="M478.4,323.7h1.8l1.3-5c0.2-0.9,0.4-1.8,0.6-2.7h0.1c0.2,0.9,0.4,1.8,0.6,2.7l1.3,5h1.9l2.5-9.3h-1.5l-1.4,5.4
		c-0.2,0.9-0.4,1.7-0.6,2.6h-0.1c-0.2-0.9-0.4-1.7-0.6-2.6l-1.4-5.4h-1.5l-1.4,5.4c-0.2,0.9-0.4,1.7-0.6,2.6h-0.1
		c-0.2-0.9-0.3-1.7-0.6-2.6l-1.4-5.4h-1.6L478.4,323.7z"/>
	<path class="st2" d="M139.4,68.7c0-1.7,1.5-2.8,6.1-3.4v3.8c-1.3,1.2-2.4,1.8-3.7,1.8C140.4,70.9,139.4,70.3,139.4,68.7z
		 M137.1,68.9c0,2.4,1.7,3.8,4,3.8c1.7,0,3.2-0.9,4.5-1.9h0.1l0.2,1.6h1.9v-8.3c0-3.4-1.4-5.6-4.7-5.6c-2.2,0-4.1,0.9-5.3,1.8
		l0.9,1.6c1.1-0.7,2.4-1.4,4-1.4c2.2,0,2.8,1.7,2.8,3.4C139.7,64.5,137.1,66,137.1,68.9z M119,70.9c1.3,1.1,3.1,1.9,5,1.9
		c3.2,0,5-1.8,5-4c0-2.6-2.2-3.4-4.1-4.1c-1.5-0.6-3-1.1-3-2.3c0-1,0.8-1.9,2.5-1.9c1.2,0,2.2,0.5,3.1,1.2l1.1-1.4
		c-1-0.8-2.5-1.5-4.2-1.5c-2.9,0-4.6,1.7-4.6,3.8c0,2.3,2.1,3.2,4,3.9c1.5,0.6,3.1,1.2,3.1,2.6c0,1.2-0.9,2.1-2.7,2.1
		c-1.6,0-2.8-0.7-4-1.6L119,70.9z M107.9,68.7c0-1.7,1.5-2.8,6.1-3.4v3.8c-1.3,1.2-2.4,1.8-3.7,1.8
		C108.9,70.9,107.9,70.3,107.9,68.7z M105.6,68.9c0,2.4,1.7,3.8,4,3.8c1.7,0,3.2-0.9,4.5-1.9h0.1l0.2,1.6h1.9v-8.3
		c0-3.4-1.4-5.6-4.7-5.6c-2.2,0-4.1,0.9-5.3,1.8l0.9,1.6c1.1-0.7,2.4-1.4,4-1.4c2.2,0,2.8,1.7,2.8,3.4
		C108.2,64.5,105.6,66,105.6,68.9z M91.1,72.4h2.3v-9.8c1.4-1.4,2.3-2.1,3.7-2.1c1.8,0,2.6,1.1,2.6,3.6v8.3h2.3v-8.6
		c0-3.4-1.3-5.3-4.1-5.3c-1.9,0-3.2,1-4.5,2.2l0.1-2.8v-5.4h-2.3V72.4z M71.8,65.7c0-3.1,1.6-5.2,3.9-5.2c2.3,0,3.9,2.1,3.9,5.2
		c0,3.1-1.6,5.2-3.9,5.2C73.4,70.8,71.8,68.8,71.8,65.7z M69.5,65.7c0,4.5,2.9,7.1,6.3,7.1c3.3,0,6.3-2.6,6.3-7.1
		c0-4.5-2.9-7.1-6.3-7.1C72.4,58.6,69.5,61.1,69.5,65.7z M55.3,72.4h2.3v-9.8c1.4-1.4,2.3-2.1,3.7-2.1c1.8,0,2.6,1.1,2.6,3.6v8.3
		h2.3v-8.6c0-3.4-1.3-5.3-4.1-5.3c-1.9,0-3.2,1-4.5,2.2l0.1-2.8v-5.4h-2.3V72.4z M35.7,72.4h2.8l2.7-11c0.3-1.4,0.6-2.7,0.9-4.1h0.1
		c0.3,1.4,0.6,2.7,0.9,4.1l2.8,11h2.8l3.8-18.2h-2.3l-1.9,9.9C48,66,47.6,68,47.3,70h-0.1c-0.4-2-0.9-4-1.3-5.9l-2.5-9.9h-2.1
		l-2.5,9.9C38.2,66,37.8,68,37.4,70h-0.1c-0.4-2-0.7-3.9-1.1-5.9l-1.9-9.9h-2.4L35.7,72.4z"/>
	<path class="st2" d="M163.2,65.7c0,4.5,2.8,7.1,6.3,7.1c1.6,0,3.2-0.7,4.4-1.8l-1-1.5c-0.8,0.7-1.9,1.4-3.2,1.4
		c-2.5,0-4.2-2.1-4.2-5.2c0-3.1,1.8-5.2,4.2-5.2c1.1,0,1.9,0.5,2.7,1.2l1.1-1.5c-0.9-0.9-2.2-1.6-3.9-1.6
		C166.2,58.6,163.2,61.1,163.2,65.7z M151,65.7c0,4.5,2.8,7.1,6.3,7.1c1.6,0,3.2-0.7,4.4-1.8l-1-1.5c-0.8,0.7-1.9,1.4-3.2,1.4
		c-2.5,0-4.2-2.1-4.2-5.2c0-3.1,1.8-5.2,4.2-5.2c1.1,0,1.9,0.5,2.7,1.2l1.1-1.5c-0.9-0.9-2.2-1.6-3.9-1.6
		C154.1,58.6,151,61.1,151,65.7z"/>
	<path class="st2" d="M212.9,71c0,1,0.8,1.7,1.7,1.7c0.9,0,1.6-0.7,1.6-1.7c0-1.1-0.8-1.8-1.6-1.8C213.7,69.2,212.9,70,212.9,71z
		 M212.9,61c0,1,0.8,1.7,1.7,1.7c0.9,0,1.6-0.7,1.6-1.7c0-1.1-0.8-1.8-1.6-1.8C213.7,59.2,212.9,59.9,212.9,61z M200.2,70.9
		c1.3,1.1,3.1,1.9,5,1.9c3.2,0,5-1.8,5-4c0-2.6-2.2-3.4-4.1-4.1c-1.5-0.6-3-1.1-3-2.3c0-1,0.8-1.9,2.5-1.9c1.2,0,2.2,0.5,3.1,1.2
		l1.1-1.4c-1-0.8-2.5-1.5-4.2-1.5c-2.9,0-4.6,1.7-4.6,3.8c0,2.3,2.1,3.2,4,3.9c1.5,0.6,3.1,1.2,3.1,2.6c0,1.2-0.9,2.1-2.7,2.1
		c-1.6,0-2.8-0.7-4-1.6L200.2,70.9z M188.6,70.9c1.3,1.1,3.1,1.9,5,1.9c3.2,0,5-1.8,5-4c0-2.6-2.2-3.4-4.1-4.1c-1.5-0.6-3-1.1-3-2.3
		c0-1,0.8-1.9,2.5-1.9c1.2,0,2.2,0.5,3.1,1.2l1.1-1.4c-1-0.8-2.5-1.5-4.2-1.5c-2.9,0-4.6,1.7-4.6,3.8c0,2.3,2.1,3.2,4,3.9
		c1.5,0.6,3.1,1.2,3.1,2.6c0,1.2-0.9,2.1-2.7,2.1c-1.6,0-2.8-0.7-4-1.6L188.6,70.9z M177.5,64.6c0.3-2.7,2-4.3,3.9-4.3
		c2.1,0,3.3,1.5,3.3,4.3H177.5z M175.3,65.7c0,4.4,2.9,7.1,6.5,7.1c1.8,0,3.3-0.6,4.5-1.4l-0.8-1.5c-1,0.6-2.1,1.1-3.4,1.1
		c-2.6,0-4.3-1.8-4.5-4.8h9.1c0.1-0.3,0.1-0.8,0.1-1.3c0-3.9-1.9-6.3-5.4-6.3C178.3,58.6,175.3,61.3,175.3,65.7z"/>
	<path class="st5" d="M94.1,317.6l1-0.5c-1.5-2.4-2.2-5.3-2.2-8.2s0.7-5.8,2.2-8.2l-1-0.5c-1.6,2.6-2.5,5.3-2.5,8.7
		S92.6,315.1,94.1,317.6z"/>
	<path class="st5" d="M133.8,317.2l1,0.5c1.6-2.6,2.5-5.3,2.5-8.7s-0.9-6.1-2.5-8.7l-1,0.5c1.5,2.4,2.2,5.3,2.2,8.2
		S135.2,314.8,133.8,317.2z M126.9,314.3h1.6c0.2-4.7,0.8-7.5,3.7-11.2v-1h-7.8v1.4h6.1C128.1,306.8,127.2,309.7,126.9,314.3z
		 M116.4,312.4c0,1.4,0.5,2.1,1.7,2.1c0.4,0,0.7-0.1,0.9-0.2l-0.2-1.2c-0.2,0-0.2,0-0.3,0c-0.2,0-0.4-0.2-0.4-0.7v-11.8h-1.6V312.4z
		 M105.9,310.9c0,2.4,0.9,3.6,2.8,3.6c1.3,0,2.2-0.7,3-1.7h0.1l0.1,1.4h1.3V305h-1.6v6.6c-0.9,1.1-1.5,1.6-2.5,1.6
		c-1.2,0-1.7-0.7-1.7-2.5V305h-1.6V310.9z M96,312.5c0.7,1.3,1.8,2,3.4,2c2.5,0,3.4-1.8,3.4-3.9v-8.8h-1.6v8.7c0,1.9-0.7,2.7-2,2.7
		c-0.9,0-1.6-0.4-2.2-1.4L96,312.5z"/>
	<polyline class="st6" points="35,153 571,153 571,152 35,152 	"/>
	<polyline class="st6" points="35,208 571,208 571,207 35,207 	"/>
	<path class="st2" d="M76.7,310.9c0,3.1,1.9,4.8,4.3,4.8c1.1,0,2.2-0.5,3-1.2l-0.7-1c-0.6,0.5-1.3,0.9-2.2,0.9
		c-1.7,0-2.9-1.4-2.9-3.5c0-2.1,1.2-3.6,2.9-3.6c0.7,0,1.3,0.3,1.9,0.8l0.8-1c-0.6-0.6-1.5-1.1-2.7-1.1
		C78.8,306.1,76.7,307.8,76.7,310.9z M72.7,315.6h1.6v-9.3h-1.6V315.6z M73.5,304.4c0.6,0,1.1-0.4,1.1-1c0-0.6-0.5-1-1.1-1
		c-0.6,0-1.1,0.4-1.1,1C72.5,304,72.9,304.4,73.5,304.4z M67.9,313.7c0,1.4,0.5,2.1,1.7,2.1c0.4,0,0.7-0.1,0.9-0.2l-0.2-1.2
		c-0.2,0-0.2,0-0.3,0c-0.2,0-0.4-0.2-0.4-0.7V302h-1.6V313.7z M58.9,313.5v-4.9c0.9-0.8,1.7-1.3,2.5-1.3c1.8,0,2.4,1.4,2.4,3.4
		c0,2.3-1.1,3.7-2.6,3.7C60.5,314.5,59.7,314.2,58.9,313.5z M57.3,315.6h1.3l0.1-0.9h0.1c0.8,0.7,1.8,1.1,2.6,1.1c2.1,0,4-1.8,4-5
		c0-2.9-1.3-4.7-3.7-4.7c-1,0-2.1,0.6-2.9,1.3l0-1.7V302h-1.6V315.6z M46.8,312.2c0,2.4,0.9,3.6,2.8,3.6c1.3,0,2.2-0.7,3-1.7h0.1
		l0.1,1.4h1.3v-9.3h-1.6v6.6c-0.9,1.1-1.5,1.6-2.5,1.6c-1.2,0-1.7-0.7-1.7-2.5v-5.7h-1.6V312.2z M37.8,309.3v-5h2
		c2.2,0,3.2,0.6,3.2,2.4c0,1.8-1,2.6-3.2,2.6H37.8z M36.2,315.6h1.6v-5H40c2.7,0,4.6-1.2,4.6-3.9c0-2.7-1.8-3.7-4.6-3.7h-3.8V315.6z
		"/>
	<path class="st7" d="M46.9,256.5l0.6-0.6l-1.9-1.9c-0.2-0.2-0.3-0.4-0.3-0.6c0-0.2,0.1-0.5,0.3-0.6l3.6-3.6
		c0.2-0.2,0.4-0.3,0.6-0.3c0.2,0,0.5,0.1,0.6,0.3l1.9,1.9c0.2,0.2,0.3,0.4,0.3,0.6c0,0.2-0.1,0.5-0.3,0.6l-3.6,3.6
		c-0.2,0.2-0.4,0.3-0.6,0.3c-0.2,0-0.5-0.1-0.6-0.3L46.9,256.5l-0.6,0.6c0.5,0.5,1.2,0.8,1.9,0.8c0.7,0,1.3-0.3,1.9-0.8l3.6-3.6
		c0.5-0.5,0.8-1.2,0.8-1.9c0-0.7-0.3-1.3-0.8-1.9l-1.9-1.9c-0.5-0.5-1.2-0.8-1.9-0.8c-0.7,0-1.3,0.3-1.9,0.8l-3.6,3.6
		c-0.5,0.5-0.8,1.2-0.8,1.9c0,0.7,0.3,1.3,0.8,1.9l1.9,1.9L46.9,256.5z"/>
	<path class="st7" d="M39,264.5l0.6-0.6l-1.9-1.9c-0.2-0.2-0.3-0.4-0.3-0.6c0-0.2,0.1-0.5,0.3-0.6l3.6-3.6c0.2-0.2,0.4-0.3,0.6-0.3
		c0.2,0,0.5,0.1,0.6,0.3l1.9,1.9c0.2,0.2,0.3,0.4,0.3,0.6c0,0.2-0.1,0.5-0.3,0.6l-3.6,3.6c-0.2,0.2-0.4,0.3-0.6,0.3
		c-0.2,0-0.5-0.1-0.6-0.3L39,264.5l-0.6,0.6c0.5,0.5,1.2,0.8,1.9,0.8c0.7,0,1.3-0.3,1.9-0.8l3.6-3.6c0.5-0.5,0.8-1.2,0.8-1.9
		c0-0.7-0.3-1.3-0.8-1.9l-1.9-1.9c-0.5-0.5-1.2-0.8-1.9-0.8c-0.7,0-1.3,0.3-1.9,0.8l-3.6,3.6c-0.5,0.5-0.8,1.2-0.8,1.9
		c0,0.7,0.3,1.3,0.8,1.9l1.9,1.9L39,264.5z"/>
	<polyline class="st7" points="48.1,251.9 40.5,259.5 41.8,260.7 49.3,253.1 	"/>
	<polygon class="st0" points="69.2,5.1 90.1,25.9 48.4,25.9 	"/>
	<polyline class="st6" points="6,95 599,95 599,94 6,94 	"/>
	<polyline class="st6" points="32,279 571,279 571,278 32,278 	"/>
	<polyline class="st6" points="32,358 571,358 571,357 32,357 	"/>
	<polygon class="st8" points="510.7,324.5 501.1,314.8 520.4,314.8 	"/>
	
		<rect x="540.5" y="315.2" transform="matrix(0.7071 0.7071 -0.7071 0.7071 385.6347 -297.316)" class="st9" width="22.4" height="3.2"/>
	
		<rect x="540.5" y="315.2" transform="matrix(-0.7071 0.7071 -0.7071 -0.7071 1165.8687 150.7694)" class="st9" width="22.4" height="3.2"/>
	<circle class="st7" cx="40.9" cy="124.5" r="3.6"/>
	<path class="st7" d="M45.7,131.3c0-1.2-0.8-2.3-1.9-2.3h-5.5c-1,0-1.9,1-1.9,2.3v8.3h9.3V131.3z"/>
	<circle class="st7" cx="50.5" cy="128.3" r="2.6"/>
	<path class="st7" d="M53.9,133.6c0-0.9-0.6-1.6-1.4-1.6h-4c-0.7,0-1.4,0.7-1.4,1.6v6h6.7V133.6z"/>
</g>
</svg>
