<?xml version="1.0" encoding="utf-8"?>
<!-- Generator: Adobe Illustrator 19.1.1, SVG Export Plug-In . SVG Version: 6.00 Build 0)  -->
<svg version="1.1" id="Layer_1" xmlns="http://www.w3.org/2000/svg" xmlns:xlink="http://www.w3.org/1999/xlink" x="0px" y="0px"
	 viewBox="0 0 597 223" style="enable-background:new 0 0 597 223;" xml:space="preserve">
<style type="text/css">
	.st0{fill:#F4F4F9;}
	.st1{fill:#FFFFFF;}
	.st2{fill:#B6B6D8;}
	.st3{fill:#C9C9E2;}
	.st4{fill:#646491;}
</style>
<g>
	<g>
		<polygon class="st0" points="116.3,46 48,46 48,182 155,182 155,83.8 		"/>
	</g>
	<polygon class="st1" points="117,85.5 155.7,84.4 117,46.8 	"/>
</g>
<g>
	<g>
		<polygon class="st0" points="497.2,46 429,46 429,182 536,182 536,83.8 		"/>
	</g>
	<polygon class="st1" points="498,85.5 536.7,84.4 498,46.8 	"/>
</g>
<g>
	<polygon class="st2" points="308.9,45.8 240.7,45.8 240.7,182.2 347.6,182.2 347.6,83.8 	"/>
	<polygon class="st3" points="308.8,83.8 347.9,83.8 308.8,45.9 	"/>
</g>
<g>
	<polygon class="st1" points="175,192.2 175,196.5 170.7,196.5 170.7,199.7 178.1,199.7 178.1,192.2 175,192.2 	"/>
	<path class="st1" d="M56.1,196.5H43.4v3.2h12.7V196.5z M81.6,196.5H68.8v3.2h12.7V196.5z M107,196.5H94.3v3.2H107V196.5z
		 M132.5,196.5h-12.7v3.2h12.7V196.5z M158,196.5h-12.7v3.2H158V196.5z"/>
	<polygon class="st1" points="33.8,196.5 28.5,196.5 28.5,192.2 25.3,192.2 25.3,199.7 33.8,199.7 33.8,196.5 	"/>
	<path class="st1" d="M28.5,63.8V52.2h-3.2v11.7H28.5z M28.5,87.2V75.5h-3.2v11.7H28.5z M28.5,110.5V98.9h-3.2v11.7H28.5z
		 M28.5,133.9v-11.7h-3.2v11.7H28.5z M28.5,157.2v-11.7h-3.2v11.7H28.5z M28.5,180.6v-11.7h-3.2v11.7H28.5z"/>
	<polygon class="st1" points="28.5,36.2 28.5,32 33.8,32 33.8,28.8 25.3,28.8 25.3,36.2 28.5,36.2 	"/>
	<path class="st1" d="M148.4,32h12.7v-3.2h-12.7V32z M123,32h12.7v-3.2H123V32z M97.5,32h12.7v-3.2H97.5V32z M72,32h12.7v-3.2H72V32
		z M46.6,32h12.7v-3.2H46.6V32z"/>
	<path class="st1" d="M175,164.6v11.7h3.2v-11.7H175z M175,141.3V153h3.2v-11.7H175z M175,118v11.7h3.2V118H175z M175,94.6v11.7h3.2
		V94.6H175z M175,71.3v11.7h3.2V71.3H175z M175,47.9v11.7h3.2V47.9H175z"/>
	<polygon class="st1" points="555.9,192.2 555.9,196.5 551.7,196.5 551.7,199.7 559.1,199.7 559.1,192.2 555.9,192.2 	"/>
	<path class="st1" d="M437.1,196.5h-12.7v3.2h12.7V196.5z M462.5,196.5h-12.7v3.2h12.7V196.5z M488,196.5h-12.7v3.2H488V196.5z
		 M513.5,196.5h-12.7v3.2h12.7V196.5z M538.9,196.5h-12.7v3.2h12.7V196.5z"/>
	<polygon class="st1" points="414.8,196.5 409.5,196.5 409.5,192.2 406.3,192.2 406.3,199.7 414.8,199.7 414.8,196.5 	"/>
	<path class="st1" d="M409.5,63.8V52.2h-3.2v11.7H409.5z M409.5,87.2V75.5h-3.2v11.7H409.5z M409.5,110.5V98.9h-3.2v11.7H409.5z
		 M409.5,133.9v-11.7h-3.2v11.7H409.5z M409.5,157.2v-11.7h-3.2v11.7H409.5z M409.5,180.6v-11.7h-3.2v11.7H409.5z"/>
	<polygon class="st1" points="409.5,36.2 409.5,32 414.8,32 414.8,28.8 406.3,28.8 406.3,36.2 409.5,36.2 	"/>
	<path class="st1" d="M529.4,32h12.7v-3.2h-12.7V32z M503.9,32h12.7v-3.2h-12.7V32z M478.4,32h12.7v-3.2h-12.7V32z M453,32h12.7
		v-3.2H453V32z M427.5,32h12.7v-3.2h-12.7V32z"/>
	<path class="st1" d="M555.9,164.6v11.7h3.2v-11.7H555.9z M555.9,141.3V153h3.2v-11.7H555.9z M555.9,118v11.7h3.2V118H555.9z
		 M555.9,94.6v11.7h3.2V94.6H555.9z M555.9,71.3v11.7h3.2V71.3H555.9z M555.9,47.9v11.7h3.2V47.9H555.9z"/>
	<polygon class="st1" points="368.1,192.2 368.1,196.5 362.8,196.5 362.8,199.7 371.3,199.7 371.3,192.2 368.1,192.2 	"/>
	<path class="st1" d="M248.2,196.5h-12.7v3.2h12.7V196.5z M273.6,196.5h-12.7v3.2h12.7V196.5z M299.1,196.5h-12.7v3.2h12.7V196.5z
		 M324.6,196.5h-12.7v3.2h12.7V196.5z M350,196.5h-12.7v3.2H350V196.5z"/>
	<polygon class="st1" points="227,196.5 221.6,196.5 221.6,192.2 218.5,192.2 218.5,199.7 227,199.7 227,196.5 	"/>
	<path class="st1" d="M221.6,63.8V52.2h-3.2v11.7H221.6z M221.6,87.2V75.5h-3.2v11.7H221.6z M221.6,110.5V98.9h-3.2v11.7H221.6z
		 M221.6,133.9v-11.7h-3.2v11.7H221.6z M221.6,157.2v-11.7h-3.2v11.7H221.6z M221.6,180.6v-11.7h-3.2v11.7H221.6z"/>
	<polygon class="st1" points="221.6,36.2 221.6,32 227,32 227,28.8 218.5,28.8 218.5,36.2 221.6,36.2 	"/>
	<path class="st1" d="M340.5,32h12.7v-3.2h-12.7V32z M315,32h12.7v-3.2H315V32z M289.6,32h12.7v-3.2h-12.7V32z M264.1,32h12.7v-3.2
		h-12.7V32z M238.6,32h12.7v-3.2h-12.7V32z"/>
	<path class="st1" d="M368.1,164.6v11.7h3.2v-11.7H368.1z M368.1,141.3V153h3.2v-11.7H368.1z M368.1,118v11.7h3.2V118H368.1z
		 M368.1,94.6v11.7h3.2V94.6H368.1z M368.1,71.3v11.7h3.2V71.3H368.1z M368.1,47.9v11.7h3.2V47.9H368.1z"/>
</g>
<g>
	<path class="st4" d="M322.1,139.4c-0.3-1.6-0.5-3.5-1.3-4.9c-0.3-0.8-0.8-1.3-1.6-1.9c-0.8-0.5-1.6-0.8-2.7-0.8
		c-2.4,0-4-0.3-4.9-0.3c-0.3,0-0.3,0-0.5,0c0.3-1.1,0.5-2.4,0.8-3.8h7.5c1.1,0,2.2-0.8,2.2-2.2c0-1.1-0.8-2.2-2.2-2.2h-7.5
		c0-1.3-0.3-2.7-0.5-4c0.5-0.3,2.2-0.5,5.4-0.5c0.5,0,1.3-0.3,1.9-0.5c0.5-0.3,1.1-0.5,1.3-0.8c0.5-0.5,1.1-1.3,1.3-2.2
		c0.5-1.1,0.8-2.4,0.8-3.8c0.3-1.3,0.3-2.7,0.3-3.8c0-3-0.3-5.7-0.3-5.7c-0.3-1.1-1.1-1.9-2.2-1.9c-1.1,0.3-1.9,1.1-1.9,2.2l0,0l0,0
		c0,0.3,0.3,2.4,0.3,5.1c0,1.1,0,1.9-0.3,3c-0.3,1.3-0.5,2.7-0.8,3.5c-0.3,0.3-0.3,0.5-0.5,0.5c0,0,0,0-0.3,0
		c-2.7,0-4.6,0.3-5.7,0.5c-0.5,0-0.8,0.3-1.1,0.3c-0.5-0.8-1.1-1.3-1.6-2.2c-0.5-0.5-1.1-0.8-1.6-1.3c0-0.3,0.3-0.3,0.3-0.5
		c0.8-1.1,1.1-2.7,1.1-4s-0.5-2.7-1.1-4c-0.5-1.1-1.6-2.2-2.7-3v-5.7c0-1.1-0.8-2.2-2.2-2.2c-1.1,0-2.2,0.8-2.2,2.2v3.5
		c-1.6-0.5-3.2-0.8-4.9-0.8c-1.6,0-3.2,0.3-4.9,0.8v-3.5c0-1.1-0.8-2.2-2.2-2.2c-1.1,0-2.2,0.8-2.2,2.2v5.7c-1.1,0.8-1.9,1.9-2.7,3
		c-0.8,1.1-1.1,2.7-1.1,4s0.5,2.7,1.1,4c0.3,0.3,0.3,0.5,0.5,0.8c-0.5,0.5-1.1,0.8-1.6,1.6c-0.3,0.5-0.5,0.8-0.8,1.3
		c-0.3,0-0.5-0.3-1.1-0.3c-1.1-0.3-3-0.5-5.7-0.5h-0.3c0,0,0,0-0.3,0s-0.3-0.5-0.5-0.8c-0.3-0.5-0.5-1.6-0.5-2.7
		c0-1.1-0.3-2.2-0.3-3.5s0-2.7,0.3-3.5c0-0.5,0-0.8,0-1.1v-0.3l0,0l0,0c0.3-1.1-0.5-2.2-1.9-2.2c-1.1-0.3-2.2,0.5-2.2,1.9l0,0
		c0,0-0.3,2.7-0.3,5.7c0,1.1,0,2.2,0.3,3.5c0.3,1.6,0.5,3.5,1.3,4.9c0.3,0.8,0.8,1.3,1.6,1.9c0.8,0.5,1.6,0.8,2.7,0.8
		c2.4,0,4,0.3,4.9,0.3c0,0-0.3,2.7-0.3,4h-8.4c-1.1,0-2.2,0.8-2.2,2.2c0,1.1,0.8,2.2,2.2,2.2h8.4c0,1.3,0.3,2.4,0.8,3.8
		c-0.8,0.3-2.2,0.5-5.1,0.5c-0.5,0-1.3,0.3-1.9,0.5s-1.1,0.5-1.3,0.8c-0.5,0.5-1.1,1.3-1.3,2.2c-0.5,1.1-0.8,2.4-0.8,3.8
		c-0.3,1.3-0.3,2.7-0.3,3.8c0,3,0.3,5.7,0.3,5.7c0.3,1.1,1.1,1.9,2.2,1.9c1.1-0.3,1.9-1.1,1.9-2.2l0,0l0,0c0-0.3-0.3-2.4-0.3-5.1
		c0-1.1,0-1.9,0.3-3c0.3-1.3,0.5-2.7,0.8-3.5c0.3-0.3,0.3-0.5,0.5-0.5c0,0,0,0,0.3,0c2.7,0,4.6-0.3,5.7-0.5c0.5,0,0.8-0.3,1.1-0.3
		c1.3,2.4,3.2,4.9,5.4,6.7c1.3,1.1,2.7,1.9,4,2.7c1.3,0.5,3,1.1,4.3,1.1c1.9,0,3.8-0.8,5.7-1.9c2.7-1.6,5.1-4,7.3-7
		c0.3-0.5,0.5-1.1,0.8-1.6c0.3,0,0.8,0.3,1.3,0.3c1.1,0.3,3,0.5,5.7,0.5h0.3c0,0,0,0,0.3,0c0.3,0,0.3,0.5,0.5,0.8
		c0.3,0.5,0.5,1.6,0.5,2.7c0,1.1,0.3,2.2,0.3,3.5c0,1.3,0,2.7-0.3,3.5c0,0.5,0,0.8,0,1.1v0.3l0,0l0,0c-0.3,1.1,0.5,2.2,1.9,2.2
		s2.2-0.5,2.2-1.9l0,0c0,0,0.3-2.7,0.3-5.7C322.1,141.5,322.1,140.4,322.1,139.4z M287,105.7c0.5-1.1,1.6-1.9,3-2.7s3.2-1.1,5.1-1.1
		c2.4,0,4.9,0.8,6.2,1.9c0.8,0.5,1.3,1.1,1.6,1.9c0.3,0.5,0.5,1.3,0.5,1.9c0,0.8-0.3,1.3-0.5,1.9c-0.3,0.3-0.5,0.8-0.8,1.1
		c-0.5,0.5-1.3,1.1-2.2,1.6c-0.3,0-0.3,0-0.5,0.3c-1.3,0.5-3,0.8-4.6,0.8s-3.2-0.3-4.6-0.8c-0.5-0.3-1.3-0.5-1.9-1.1
		c-0.3-0.3-0.5-0.5-0.8-0.5c-0.3-0.3-0.8-0.8-1.1-1.1c-0.3-0.5-0.5-1.3-0.5-1.9C286.5,107,286.8,106.5,287,105.7z M306.7,131.5
		c-1.1,2.7-3.2,5.1-5.4,6.7c-1.1,0.8-2.2,1.6-3.2,2.2c-1.1,0.5-1.9,0.5-2.4,0.5c-1.1,0-2.4-0.3-3.8-1.3c-2.2-1.3-4.3-3.2-5.9-5.7
		c-1.6-2.4-2.4-5.1-2.4-7.5c0-3.2,0.3-5.7,0.8-7.3c0.3-1.3,0.8-2.2,1.3-2.7c0.3-0.5,0.8-0.8,1.3-1.1l0,0c0.3,0.3,0.5,0.3,1.1,0.5
		c1.9,1.1,4.3,1.6,6.7,1.6c3,0,5.9-0.8,8.1-2.2c0.3,0,0.5,0.3,0.5,0.3c0.5,0.3,1.1,0.5,1.6,1.1c0.8,0.8,1.3,1.6,1.6,3.2
		c0.5,1.6,0.8,3.8,0.8,6.7C307.8,128,307.5,129.7,306.7,131.5z"/>
</g>
<path class="st1" d="M566,28.9v-5.6c0-4-3.7-7.2-8.4-7.2c-4.6,0-8.4,3.2-8.4,7.2v5.6h-3v3v5.6v3.4c0,1.7,1.8,2.8,3.4,2.8h15.8
	c1.7,0,3.4-1.1,3.4-2.8v-3.4v-5.6v-3H566z M557.7,19.1c3.1,0,5.4,2.1,5.4,4.8v5h-10.8v-5C552.3,21.2,554.6,19.1,557.7,19.1z"/>
<path class="st1" d="M377.5,28.9v-5.6c0-4-3.7-7.2-8.4-7.2c-4.6,0-8.4,3.2-8.4,7.2v5.6h-3v3v5.6v3.4c0,1.7,1.8,2.8,3.4,2.8h15.8
	c1.7,0,3.4-1.1,3.4-2.8v-3.4v-5.6v-3H377.5z M369.1,19.1c3.1,0,5.4,2.1,5.4,4.8v5h-10.8v-5C363.7,21.2,366.1,19.1,369.1,19.1z"/>
<path class="st1" d="M184.9,28.9v-5.6c0-4-3.7-7.2-8.4-7.2c-4.6,0-8.4,3.2-8.4,7.2v5.6h-3v3v5.6v3.4c0,1.7,1.8,2.8,3.4,2.8h15.8
	c1.7,0,3.4-1.1,3.4-2.8v-3.4v-5.6v-3H184.9z M176.5,19.1c3.1,0,5.4,2.1,5.4,4.8v5h-10.8v-5C171.1,21.2,173.5,19.1,176.5,19.1z"/>
</svg>
