<?xml version="1.0" encoding="utf-8"?>
<!-- Generator: Adobe Illustrator 19.2.0, SVG Export Plug-In . SVG Version: 6.00 Build 0)  -->
<svg version="1.1" id="Layer_1" xmlns="http://www.w3.org/2000/svg" xmlns:xlink="http://www.w3.org/1999/xlink" x="0px" y="0px"
	 viewBox="0 0 305 139" style="enable-background:new 0 0 305 139;" xml:space="preserve">
<style type="text/css">
	.st0{fill:#D4D4F4;}
	.st1{fill:#8787C6;}
	.st2{clip-path:url(#SVGID_3_);fill:#8787C6;}
</style>
<g>
	<g>
		<path class="st0" d="M153.2,118.3c-12.2,0-25-4.9-34-14c-9.7-9.7-14-21.9-14-34c0-4.9,0.7-10.4,2.4-15.2l9.7,8.5l-1.9-29.2L87,38
			l10.9,9.2C94.3,54.5,93,62.3,93,70.3c0,15.2,6.1,31,17.7,42.5s27.4,17.7,42.5,17.7c9.7,0,20.1-2.4,29.2-7.3l-9.2-9.2
			C166.6,117.1,160,118.3,153.2,118.3z"/>
		<path class="st0" d="M206.2,98.2c4.9-8.5,6.6-18.2,6.6-28c0-15.2-6.1-31-17.7-42.5C183.6,16.1,167.8,10,152.7,10
			c-11.6,0-23.1,3.6-33.5,9.7l8.5,8.5c7.3-4.3,15.8-6.6,24.3-6.6c12.2,0,25,4.9,34,14c9.7,9.7,14,21.9,14,34c0,6.6-1.9,14-4.3,20.1
			l-10.4-8.5l0.3,29.5l31.4-4L206.2,98.2z"/>
	</g>
</g>
<g>
	<rect x="132.7" y="60.7" class="st1" width="8.2" height="8.2"/>
	<rect x="132.7" y="68.2" class="st1" width="8.2" height="8.2"/>
	<rect x="132.7" y="75.6" class="st1" width="8.2" height="8.2"/>
	<rect x="132.7" y="83.1" class="st1" width="8.2" height="8.2"/>
	<rect x="142.2" y="57.8" class="st1" width="2" height="2"/>
	<rect x="142.2" y="59.7" class="st1" width="2" height="2"/>
	<rect x="142.2" y="61.5" class="st1" width="2" height="2"/>
	<rect x="142.2" y="63.4" class="st1" width="2" height="2"/>
	<rect x="144" y="57.8" class="st1" width="2" height="2"/>
	<rect x="144" y="59.7" class="st1" width="2" height="2"/>
	<rect x="144" y="61.5" class="st1" width="2" height="2"/>
	<rect x="144" y="63.4" class="st1" width="2" height="2"/>
	<rect x="146.4" y="56.8" class="st1" width="2" height="2"/>
	<rect x="145.9" y="59.7" class="st1" width="2" height="2"/>
	<rect x="145.9" y="61.5" class="st1" width="2" height="2"/>
	<rect x="145.9" y="63.4" class="st1" width="2" height="2"/>
	<rect x="156.5" y="46.4" class="st1" width="2" height="2"/>
	<rect x="148.4" y="58.8" class="st1" width="2" height="2"/>
	<rect x="147.7" y="61.5" class="st1" width="2" height="2"/>
	<rect x="147.7" y="63.4" class="st1" width="2" height="2"/>
	<rect x="140.2" y="68.2" class="st1" width="8.2" height="8.2"/>
	<rect x="140.2" y="75.6" class="st1" width="8.2" height="8.2"/>
	<rect x="140.2" y="83.1" class="st1" width="8.2" height="8.2"/>
	<rect x="152" y="55.3" class="st1" width="2" height="2"/>
	<rect x="152" y="57.2" class="st1" width="2" height="2"/>
	<rect x="152" y="59" class="st1" width="2" height="2"/>
	<rect x="152" y="60.9" class="st1" width="2" height="2"/>
	<rect x="154.8" y="53.6" class="st1" width="2" height="2"/>
	<rect x="153.9" y="57.2" class="st1" width="2" height="2"/>
	<rect x="153.9" y="59" class="st1" width="2" height="2"/>
	<rect x="153.9" y="60.9" class="st1" width="2" height="2"/>
	<rect x="165.2" y="42.4" class="st1" width="2" height="2"/>
	<rect x="156.9" y="55.8" class="st1" width="2" height="2"/>
	<rect x="155.7" y="59" class="st1" width="2" height="2"/>
	<rect x="155.7" y="60.9" class="st1" width="2" height="2"/>
	<rect x="173.8" y="42.4" class="st1" width="2" height="2"/>
	<rect x="169.1" y="46.7" class="st1" width="2" height="2"/>
	<rect x="159" y="58" class="st1" width="2" height="2"/>
	<rect x="157.6" y="60.9" class="st1" width="2" height="2"/>
	<rect x="150" y="65.7" class="st1" width="2" height="2"/>
	<rect x="150" y="67.5" class="st1" width="2" height="2"/>
	<rect x="150" y="69.4" class="st1" width="2" height="2"/>
	<rect x="150" y="71.2" class="st1" width="2" height="2"/>
	<rect x="151.9" y="65.7" class="st1" width="2" height="2"/>
	<rect x="151.9" y="67.5" class="st1" width="2" height="2"/>
	<rect x="151.9" y="69.4" class="st1" width="2" height="2"/>
	<rect x="151.9" y="71.2" class="st1" width="2" height="2"/>
	<rect x="154.4" y="64.9" class="st1" width="2" height="2"/>
	<rect x="153.7" y="67.5" class="st1" width="2" height="2"/>
	<rect x="153.7" y="69.4" class="st1" width="2" height="2"/>
	<rect x="153.7" y="71.2" class="st1" width="2" height="2"/>
	<rect x="165.7" y="55.7" class="st1" width="2" height="2"/>
	<rect x="156.5" y="66.9" class="st1" width="2" height="2"/>
	<rect x="155.6" y="69.4" class="st1" width="2" height="2"/>
	<rect x="155.6" y="71.2" class="st1" width="2" height="2"/>
	<rect x="147.6" y="75.6" class="st1" width="8.2" height="8.2"/>
	<rect x="147.6" y="83.1" class="st1" width="8.2" height="8.2"/>
	<rect x="162.5" y="53.3" class="st1" width="2" height="2"/>
	<rect x="162.5" y="55.2" class="st1" width="2" height="2"/>
	<rect x="162.5" y="57" class="st1" width="2" height="2"/>
	<rect x="162.5" y="58.9" class="st1" width="2" height="2"/>
	<rect x="172.7" y="40.9" class="st1" width="2" height="2"/>
	<rect x="164.4" y="55.2" class="st1" width="2" height="2"/>
	<rect x="164.4" y="57" class="st1" width="2" height="2"/>
	<rect x="164.4" y="58.9" class="st1" width="2" height="2"/>
	<g>
		<g>
			<g>
				<rect id="SVGID_1_" x="170.5" y="51.8" class="st1" width="2" height="2"/>
			</g>
			<g>
				<defs>
					<rect id="SVGID_2_" x="170.5" y="51.8" width="2" height="2"/>
				</defs>
				<clipPath id="SVGID_3_">
					<use xlink:href="#SVGID_2_"  style="overflow:visible;"/>
				</clipPath>
				<rect x="170.5" y="51.8" class="st2" width="2" height="2"/>
			</g>
		</g>
	</g>
	<rect x="166.2" y="57" class="st1" width="2" height="2"/>
	<rect x="166.2" y="58.9" class="st1" width="2" height="2"/>
	<rect x="179.1" y="49.3" class="st1" width="2" height="2"/>
	<rect x="168.1" y="58.9" class="st1" width="2" height="2"/>
	<rect x="160.5" y="63.7" class="st1" width="2" height="2"/>
	<rect x="160.5" y="65.5" class="st1" width="2" height="2"/>
	<rect x="160.5" y="67.4" class="st1" width="2" height="2"/>
	<rect x="160.5" y="69.3" class="st1" width="2" height="2"/>
	<rect x="163.4" y="62.2" class="st1" width="2" height="2"/>
	<rect x="162.4" y="65.5" class="st1" width="2" height="2"/>
	<rect x="162.4" y="67.4" class="st1" width="2" height="2"/>
	<rect x="162.4" y="69.3" class="st1" width="2" height="2"/>
	<rect x="175.3" y="52" class="st1" width="2" height="2"/>
	<rect x="165.6" y="64.3" class="st1" width="2" height="2"/>
	<rect x="164.2" y="67.4" class="st1" width="2" height="2"/>
	<rect x="164.2" y="69.3" class="st1" width="2" height="2"/>
	<rect x="179.4" y="48.5" class="st1" width="2" height="2"/>
	<rect x="176.3" y="56.4" class="st1" width="2" height="2"/>
	<rect x="167.8" y="66.6" class="st1" width="2" height="2"/>
	<rect x="166.1" y="69.3" class="st1" width="2" height="2"/>
	<rect x="158" y="73.6" class="st1" width="2" height="2"/>
	<rect x="158" y="75.5" class="st1" width="2" height="2"/>
	<rect x="158" y="77.4" class="st1" width="2" height="2"/>
	<rect x="158" y="79.2" class="st1" width="2" height="2"/>
	<rect x="159.8" y="73.6" class="st1" width="2" height="2"/>
	<rect x="159.8" y="75.5" class="st1" width="2" height="2"/>
	<rect x="159.8" y="77.4" class="st1" width="2" height="2"/>
	<rect x="159.8" y="79.2" class="st1" width="2" height="2"/>
	<rect x="162.5" y="72.8" class="st1" width="2" height="2"/>
	<rect x="161.7" y="75.5" class="st1" width="2" height="2"/>
	<rect x="161.7" y="77.4" class="st1" width="2" height="2"/>
	<rect x="161.7" y="79.2" class="st1" width="2" height="2"/>
	<rect x="175.1" y="64.9" class="st1" width="2" height="2"/>
	<rect x="164.6" y="75" class="st1" width="2" height="2"/>
	<rect x="163.6" y="77.4" class="st1" width="2" height="2"/>
	<rect x="163.6" y="79.2" class="st1" width="2" height="2"/>
	<rect x="154.9" y="83.1" class="st1" width="8.2" height="8.2"/>
</g>
</svg>
