<?xml version="1.0" encoding="utf-8"?>
<!-- Generator: Adobe Illustrator 19.1.1, SVG Export Plug-In . SVG Version: 6.00 Build 0)  -->
<svg version="1.1" id="Layer_1" xmlns="http://www.w3.org/2000/svg" xmlns:xlink="http://www.w3.org/1999/xlink" x="0px" y="0px"
	 viewBox="0 0 597 223" style="enable-background:new 0 0 597 223;" xml:space="preserve">
<style type="text/css">
	.st0{fill:#F4F4F9;}
	.st1{fill:#FFFFFF;}
	.st2{fill:#4C4277;}
</style>
<g>
	<g>
		<polygon class="st0" points="140.7,73 80,73 80,195 175,195 175,107 		"/>
	</g>
	<polygon class="st1" points="141,108.5 175.6,107.6 141,74 	"/>
</g>
<g>
	<polygon class="st1" points="193.2,204 193.2,207.8 189.4,207.8 189.4,210.7 196,210.7 196,204 193.2,204 	"/>
	<path class="st1" d="M86.9,207.8H75.5v2.8h11.4V207.8z M109.6,207.8H98.2v2.8h11.4V207.8z M132.4,207.8H121v2.8h11.4V207.8z
		 M155.2,207.8h-11.4v2.8h11.4V207.8z M178,207.8h-11.4v2.8H178V207.8z"/>
	<polygon class="st1" points="66.9,207.8 62.2,207.8 62.2,204 59.3,204 59.3,210.7 66.9,210.7 66.9,207.8 	"/>
	<path class="st1" d="M62.2,89.2V78.7h-2.8v10.4H62.2z M62.2,110.1V99.6h-2.8v10.4H62.2z M62.2,130.9v-10.4h-2.8v10.4H62.2z
		 M62.2,151.8v-10.4h-2.8v10.4H62.2z M62.2,172.7v-10.4h-2.8v10.4H62.2z M62.2,193.6v-10.4h-2.8v10.4H62.2z"/>
	<polygon class="st1" points="62.2,64.5 62.2,60.7 66.9,60.7 66.9,57.9 59.3,57.9 59.3,64.5 62.2,64.5 	"/>
	<path class="st1" d="M169.4,60.7h11.4v-2.8h-11.4V60.7z M146.7,60.7H158v-2.8h-11.4V60.7z M123.9,60.7h11.4v-2.8h-11.4V60.7z
		 M101.1,60.7h11.4v-2.8h-11.4V60.7z M78.3,60.7h11.4v-2.8H78.3V60.7z"/>
	<path class="st1" d="M193.2,179.3v10.4h2.8v-10.4H193.2z M193.2,158.5v10.4h2.8v-10.4H193.2z M193.2,137.6V148h2.8v-10.4H193.2z
		 M193.2,116.7v10.4h2.8v-10.4H193.2z M193.2,95.8v10.4h2.8V95.8H193.2z M193.2,74.9v10.4h2.8V74.9H193.2z"/>
</g>
<path class="st1" d="M202.1,57.9v-5c0-3.6-3.4-6.4-7.5-6.4c-4.1,0-7.5,2.9-7.5,6.4v5h-2.6v2.7v5v3c0,1.5,1.6,2.5,3.1,2.5h14.2
	c1.5,0,3-1,3-2.5v-3v-5v-2.7H202.1z M194.6,49.1c2.8,0,4.8,1.9,4.8,4.3v4.5h-9.7v-4.5C189.7,51.1,191.8,49.1,194.6,49.1z"/>
<g>
	<path class="st2" d="M53.6,35.7c1.3,0.8,3.3,1.5,5.3,1.5c3,0,4.8-1.6,4.8-3.9c0-2.1-1.2-3.4-4.3-4.6c-3.7-1.3-6.1-3.3-6.1-6.5
		c0-3.6,3-6.2,7.4-6.2c2.3,0,4,0.5,5.1,1.1L65,19.6c-0.7-0.4-2.3-1.1-4.4-1.1c-3.1,0-4.3,1.9-4.3,3.4c0,2.1,1.4,3.2,4.6,4.4
		c3.9,1.5,5.8,3.4,5.8,6.7c0,3.5-2.6,6.6-8,6.6c-2.2,0-4.6-0.6-5.8-1.5L53.6,35.7z"/>
	<path class="st2" d="M79.9,39.3l-0.2-2.1h-0.1c-0.9,1.3-2.7,2.4-5,2.4c-3.3,0-5-2.3-5-4.7c0-4,3.5-6.2,9.9-6.1v-0.3
		c0-1.4-0.4-3.8-3.7-3.8c-1.5,0-3.1,0.5-4.3,1.2l-0.7-2c1.4-0.9,3.3-1.5,5.4-1.5c5,0,6.3,3.4,6.3,6.7v6.2c0,1.4,0.1,2.8,0.3,3.9
		H79.9z M79.5,30.9c-3.3-0.1-7,0.5-7,3.7c0,1.9,1.3,2.9,2.8,2.9c2.1,0,3.5-1.4,4-2.8c0.1-0.3,0.2-0.6,0.2-1V30.9z"/>
	<path class="st2" d="M87.2,27.3c0-1.7,0-3.1-0.1-4.5h2.7l0.2,2.7h0.1c0.8-1.6,2.7-3.1,5.4-3.1c2.3,0,5.8,1.4,5.8,7v9.8h-3v-9.5
		c0-2.7-1-4.9-3.8-4.9c-2,0-3.5,1.4-4,3.1c-0.1,0.4-0.2,0.9-0.2,1.4v9.9h-3V27.3z"/>
	<path class="st2" d="M120.3,15.2v19.9c0,1.5,0,3.1,0.1,4.2h-2.7l-0.1-2.9h-0.1c-0.9,1.8-2.9,3.2-5.6,3.2c-4,0-7-3.4-7-8.4
		c0-5.5,3.4-8.8,7.4-8.8c2.5,0,4.2,1.2,5,2.5h0.1v-9.8H120.3z M117.3,29.6c0-0.4,0-0.9-0.1-1.3c-0.4-1.9-2.1-3.5-4.3-3.5
		c-3.1,0-4.9,2.7-4.9,6.4c0,3.3,1.6,6.1,4.9,6.1c2,0,3.8-1.3,4.4-3.6c0.1-0.4,0.1-0.8,0.1-1.3V29.6z"/>
	<path class="st2" d="M124.8,36.3c0.9,0.6,2.4,1.2,3.9,1.2c2.2,0,3.2-1.1,3.2-2.4c0-1.4-0.8-2.2-3.1-3c-3-1.1-4.4-2.7-4.4-4.7
		c0-2.7,2.1-4.8,5.7-4.8c1.7,0,3.1,0.5,4,1l-0.7,2.2c-0.6-0.4-1.8-1-3.4-1c-1.8,0-2.8,1-2.8,2.2c0,1.4,1,2,3.1,2.8
		c2.9,1.1,4.3,2.5,4.3,5c0,2.9-2.2,4.9-6.2,4.9c-1.8,0-3.5-0.4-4.6-1.1L124.8,36.3z"/>
	<path class="st2" d="M142.3,18.1v4.7h4.3v2.3h-4.3V34c0,2,0.6,3.2,2.2,3.2c0.8,0,1.4-0.1,1.7-0.2l0.1,2.2c-0.6,0.2-1.5,0.4-2.7,0.4
		c-1.4,0-2.5-0.4-3.2-1.3c-0.8-0.9-1.2-2.3-1.2-4.3v-9h-2.5v-2.3h2.5v-3.9L142.3,18.1z"/>
	<path class="st2" d="M164.6,31c0,6.1-4.2,8.7-8.2,8.7c-4.5,0-7.9-3.3-7.9-8.5c0-5.5,3.6-8.7,8.2-8.7
		C161.4,22.5,164.6,25.9,164.6,31z M151.6,31.1c0,3.6,2.1,6.3,5,6.3c2.9,0,5-2.7,5-6.4c0-2.8-1.4-6.3-4.9-6.3S151.6,28,151.6,31.1z"
		/>
	<path class="st2" d="M168.4,28c0-1.9,0-3.6-0.1-5.1h2.6l0.1,3.2h0.1c0.7-2.2,2.5-3.6,4.6-3.6c0.3,0,0.6,0,0.8,0.1v2.8
		c-0.3-0.1-0.6-0.1-1-0.1c-2.1,0-3.6,1.6-4,3.8c-0.1,0.4-0.1,0.9-0.1,1.4v8.8h-3V28z"/>
	<path class="st2" d="M179.7,27.3c0-1.7,0-3.1-0.1-4.5h2.6l0.1,2.7h0.1c0.9-1.6,2.4-3,5.2-3c2.2,0,3.9,1.4,4.7,3.3h0.1
		c0.5-0.9,1.2-1.6,1.8-2.1c1-0.7,2.1-1.2,3.6-1.2c2.2,0,5.4,1.4,5.4,7.1v9.7h-2.9V30c0-3.2-1.2-5.1-3.6-5.1c-1.7,0-3,1.3-3.5,2.7
		c-0.1,0.4-0.2,1-0.2,1.5v10.2H190v-9.9c0-2.6-1.2-4.5-3.4-4.5c-1.9,0-3.2,1.5-3.7,3c-0.2,0.4-0.2,1-0.2,1.5v9.9h-2.9V27.3z"/>
</g>
<g>
	<ellipse class="st2" cx="475" cy="105.8" rx="51.5" ry="53.5"/>
	<g>
		<path class="st2" d="M568,223c0-34.8-27.7-62-62.5-62h-54c-34.8,0-63.5,27.2-63.5,62v0L568,223L568,223z"/>
	</g>
	<polygon class="st2" points="567.7,102 526.6,72.4 507.5,17 444.1,17 423.5,71.9 384.1,102 	"/>
	<polygon class="st2" points="457.4,167 476.7,167 411.4,129.3 428.9,167 	"/>
	<polygon class="st2" points="494.2,167 474.8,167 540.1,129.3 522.6,167 	"/>
	<rect x="455.5" y="149" class="st2" width="51.9" height="29.9"/>
	<path class="st1" d="M434.6,96.2l30.1,9.7C464.7,105.8,434.6,132.5,434.6,96.2z"/>
	<path class="st1" d="M511.6,96.2l-30.1,9.7C481.5,105.8,511.6,132.5,511.6,96.2z"/>
</g>
<rect x="281" class="st1" width="24" height="223"/>
</svg>
