<?xml version="1.0" encoding="utf-8"?>
<!-- Generator: Adobe Illustrator 19.2.0, SVG Export Plug-In . SVG Version: 6.00 Build 0)  -->
<svg version="1.1" id="Layer_1" xmlns="http://www.w3.org/2000/svg" xmlns:xlink="http://www.w3.org/1999/xlink" x="0px" y="0px"
	 viewBox="0 0 372 139" style="enable-background:new 0 0 372 139;" xml:space="preserve">
<style type="text/css">
	.st0{opacity:0.6;fill:#D4D4F4;enable-background:new    ;}
	.st1{fill:#8787C6;}
	.st2{fill:#FFFFFF;}
	.st3{fill:#D4D4F4;}
	.st4{fill:none;stroke:#FFFFFF;stroke-linecap:round;stroke-miterlimit:10;}
	.st5{fill:#B2B1DD;}
	.st6{fill:none;stroke:#B2B1DD;stroke-width:2;stroke-linecap:square;stroke-miterlimit:10;stroke-dasharray:6;}
	.st7{fill:#4C4277;}
	.st8{clip-path:url(#SVGID_2_);fill:#8787C6;}
</style>
<g>
	<path class="st0" d="M359,127.9h-44.8c-2.2,0-4-1.8-4-4V79.1c0-2.2,1.8-4,4-4H359c2.2,0,4,1.8,4,4v44.8
		C363,126.1,361.2,127.9,359,127.9z"/>
	<path class="st1" d="M356.8,125.8H312c-2.2,0-4-1.8-4-4V77c0-2.2,1.8-4,4-4h44.8c2.2,0,4,1.8,4,4v44.8
		C360.8,124,359,125.8,356.8,125.8z"/>
	
		<rect x="326.6" y="95.9" transform="matrix(0.7174 -0.6967 0.6967 0.7174 26.5443 265.707)" class="st2" width="28.4" height="8.4"/>
	<rect x="350.8" y="84" transform="matrix(0.7174 -0.6967 0.6967 0.7174 38.3246 270.8744)" class="st3" width="4.4" height="8.4"/>
	<polygon class="st3" points="327,113.5 327.9,106.9 333.7,112.8 	"/>
	<path class="st4" d="M325.7,113c0,0-12.5,2-12.6-4s15.6-8.6,17.3-12.1c1.7-3.5-6.2-2.5-6.2-2.5"/>
</g>
<g>
	<path class="st0" d="M62.4,128.6H17.6c-2.2,0-4-1.8-4-4V79.8c0-2.2,1.8-4,4-4h44.8c2.2,0,4,1.8,4,4v44.8
		C66.4,126.8,64.6,128.6,62.4,128.6z"/>
	<path class="st1" d="M60.3,126.4H15.5c-2.2,0-4-1.8-4-4V77.6c0-2.2,1.8-4,4-4h44.8c2.2,0,4,1.8,4,4v44.8
		C64.3,124.6,62.5,126.4,60.3,126.4z"/>
	<path class="st3" d="M53.3,120H23.5c-1.3,0-2.3-1-2.3-2.3V83.3c0-1.3,1-2.3,2.3-2.3h29.8c1.3,0,2.3,1,2.3,2.3v34.4
		C55.6,118.9,54.6,120,53.3,120z"/>
	<rect x="24.4" y="84.4" class="st1" width="28" height="6.5"/>
	<rect x="24.4" y="92.8" class="st2" width="13" height="12"/>
	<rect x="39.4" y="92.8" class="st2" width="13" height="12"/>
	<rect x="24.4" y="106.8" class="st2" width="13" height="9"/>
	<rect x="39.4" y="106.8" class="st2" width="13" height="9"/>
	<g>
		<path class="st5" d="M46.4,96.8v2.1h2v0.5h-2v2.1h-0.6v-2.1h-2v-0.5h2v-2.1H46.4z"/>
	</g>
	<g>
		<path class="st5" d="M30.2,110.3c0,1-0.5,1.4-1.1,1.4s-1.1-0.5-1.1-1.4s0.5-1.4,1.1-1.4C29.8,109,30.2,109.5,30.2,110.3z
			 M28.5,110.4c0,0.6,0.2,1,0.6,1s0.6-0.4,0.6-1s-0.2-1-0.6-1C28.7,109.4,28.5,109.8,28.5,110.4z M29,113.7l2.7-4.7h0.4l-2.7,4.7H29
			z M33.1,112.2c0,1-0.5,1.4-1.1,1.4c-0.6,0-1.1-0.5-1.1-1.4s0.5-1.4,1.1-1.4C32.7,110.9,33.1,111.4,33.1,112.2z M31.5,112.3
			c0,0.6,0.2,1,0.6,1c0.4,0,0.6-0.4,0.6-1s-0.2-1-0.6-1C31.7,111.2,31.5,111.7,31.5,112.3z"/>
	</g>
	<g>
		<path class="st5" d="M44,110.9v-0.5h4.1v0.5H44z M44,112.5V112h4.1v0.5H44z"/>
	</g>
	<g>
		<path class="st5" d="M33,99.6v0.4h-4.5v-0.4H33z"/>
	</g>
</g>
<g>
	<path class="st0" d="M62.5,65.3H17.7c-2.2,0-4-1.8-4-4V16.5c0-2.2,1.8-4,4-4h44.8c2.2,0,4,1.8,4,4v44.8
		C66.5,63.5,64.7,65.3,62.5,65.3z"/>
	<path class="st1" d="M60.3,63.1H15.5c-2.2,0-4-1.8-4-4V14.3c0-2.2,1.8-4,4-4h44.8c2.2,0,4,1.8,4,4v44.8
		C64.3,61.3,62.5,63.1,60.3,63.1z"/>
	<rect x="20.5" y="21" class="st2" width="5" height="7"/>
	<rect x="27.7" y="21.1" class="st3" width="29.1" height="6.5"/>
	<rect x="20.5" y="34" class="st2" width="5" height="5"/>
	<rect x="27.7" y="34" class="st3" width="29.1" height="5.4"/>
	<rect x="20.5" y="46" class="st2" width="5" height="6"/>
	<rect x="27.7" y="45.9" class="st3" width="29.1" height="6.5"/>
</g>
<g>
	<path class="st0" d="M358.9,64.6h-44.8c-2.2,0-4-1.8-4-4V15.8c0-2.2,1.8-4,4-4h44.8c2.2,0,4,1.8,4,4v44.8
		C363,62.8,361.2,64.6,358.9,64.6z"/>
	<path class="st1" d="M356.8,62.5H312c-2.2,0-4-1.8-4-4V13.7c0-2.2,1.8-4,4-4h44.8c2.2,0,4,1.8,4,4v44.8
		C360.8,60.7,359,62.5,356.8,62.5z"/>
	<circle class="st2" cx="334.6" cy="36" r="19.6"/>
	<circle class="st3" cx="334.6" cy="36" r="16.9"/>
	<g>
		<g>
			<path class="st1" d="M340.1,30.9c-0.1-0.1-0.3-0.3-0.7-0.5c-0.3-0.2-0.7-0.4-1.1-0.6s-0.9-0.4-1.4-0.6s-1.1-0.3-1.6-0.3V34
				l0.7,0.2c1,0.3,1.9,0.6,2.8,0.9c0.8,0.3,1.5,0.7,2.1,1.2s1,1.1,1.3,1.7c0.3,0.7,0.5,1.5,0.5,2.4c0,1.1-0.2,2-0.6,2.8
				s-0.9,1.4-1.6,1.9s-1.4,0.9-2.3,1.1s-1.8,0.4-2.7,0.4v3.3h-1.8v-3.3c-1.4-0.1-2.7-0.4-4-0.9s-2.5-1.1-3.6-1.8l1.8-3.5
				c0.2,0.2,0.4,0.4,0.8,0.6c0.4,0.3,0.9,0.5,1.4,0.8c0.6,0.3,1.1,0.5,1.8,0.7s1.3,0.4,2,0.4v-5.1l-1.1-0.3c-1-0.3-1.9-0.6-2.6-0.9
				s-1.3-0.7-1.8-1.1s-0.9-1-1.1-1.5c-0.2-0.6-0.4-1.3-0.4-2.1c0-1,0.2-1.9,0.5-2.7c0.3-0.8,0.8-1.4,1.4-2c0.6-0.5,1.3-1,2.1-1.3
				c0.8-0.3,1.7-0.5,2.7-0.6v-3h1.8v3c1.3,0.1,2.5,0.4,3.5,0.8c1.1,0.4,2,1,2.9,1.5L340.1,30.9z M331.1,31.2c0,0.7,0.2,1.2,0.7,1.5
				s1.2,0.7,2.1,0.9v-4.8C332.1,29,331.1,29.8,331.1,31.2z M338.3,40.8c0-0.7-0.3-1.2-0.8-1.6c-0.6-0.4-1.3-0.7-2.3-1V43
				C337.2,42.9,338.3,42.2,338.3,40.8z"/>
		</g>
	</g>
</g>
<line class="st6" x1="243.5" y1="67" x2="289" y2="67"/>
<g>
	<g>
		<path class="st3" d="M186.9,103.4c-9.2,0-18.8-3.7-25.6-10.5c-7.3-7.3-10.5-16.5-10.5-25.6c0-3.7,0.5-7.8,1.8-11.4l7.3,6.4
			l-1.4-22L137.1,43l8.2,6.9c-2.7,5.5-3.7,11.4-3.7,17.4c0,11.4,4.6,23.3,13.3,32c8.7,8.7,20.6,13.3,32,13.3c7.3,0,15.1-1.8,22-5.5
			l-6.9-6.9C197,102.5,192,103.4,186.9,103.4z"/>
		<path class="st3" d="M226.8,88.3c3.7-6.4,5-13.7,5-21.1c0-11.4-4.6-23.3-13.3-32c-8.7-8.7-20.6-13.3-32-13.3
			c-8.7,0-17.4,2.7-25.2,7.3l6.4,6.4c5.5-3.2,11.9-5,18.3-5c9.2,0,18.8,3.7,25.6,10.5c7.3,7.3,10.5,16.5,10.5,25.6
			c0,5-1.4,10.5-3.2,15.1l-7.8-6.4l0.2,22.2l23.6-3L226.8,88.3z"/>
	</g>
</g>
<g>
	<path class="st7" d="M52-121.7c0-28.6-22.6-51.5-51.3-51.5h-44.4c-28.6,0-52.3,22.9-52.3,51.5v0.5H52V-121.7z"/>
</g>
<polyline class="st6" points="304,37.2 289,37.2 289,100 304,100 "/>
<line class="st6" x1="131.6" y1="67" x2="86.1" y2="67"/>
<polyline class="st6" points="71.1,37.2 86.1,37.2 86.1,100 71.1,100 "/>
<g>
	<rect x="171.5" y="60.1" class="st1" width="6.2" height="6.2"/>
	<rect x="171.5" y="65.7" class="st1" width="6.2" height="6.2"/>
	<rect x="171.5" y="71.3" class="st1" width="6.2" height="6.2"/>
	<rect x="171.5" y="76.9" class="st1" width="6.2" height="6.2"/>
	<rect x="178.6" y="57.9" class="st1" width="1.5" height="1.5"/>
	<rect x="178.6" y="59.3" class="st1" width="1.5" height="1.5"/>
	<rect x="178.6" y="60.7" class="st1" width="1.5" height="1.5"/>
	<rect x="178.6" y="62.1" class="st1" width="1.5" height="1.5"/>
	<rect x="180" y="57.9" class="st1" width="1.5" height="1.5"/>
	<rect x="180" y="59.3" class="st1" width="1.5" height="1.5"/>
	<rect x="180" y="60.7" class="st1" width="1.5" height="1.5"/>
	<rect x="180" y="62.1" class="st1" width="1.5" height="1.5"/>
	<rect x="181.8" y="57.1" class="st1" width="1.5" height="1.5"/>
	<rect x="181.4" y="59.3" class="st1" width="1.5" height="1.5"/>
	<rect x="181.4" y="60.7" class="st1" width="1.5" height="1.5"/>
	<rect x="181.4" y="62.1" class="st1" width="1.5" height="1.5"/>
	<rect x="189.4" y="49.3" class="st1" width="1.5" height="1.5"/>
	<rect x="183.3" y="58.6" class="st1" width="1.5" height="1.5"/>
	<rect x="182.8" y="60.7" class="st1" width="1.5" height="1.5"/>
	<rect x="182.8" y="62.1" class="st1" width="1.5" height="1.5"/>
	<rect x="177.1" y="65.7" class="st1" width="6.2" height="6.2"/>
	<rect x="177.1" y="71.3" class="st1" width="6.2" height="6.2"/>
	<rect x="177.1" y="76.9" class="st1" width="6.2" height="6.2"/>
	<rect x="186" y="56" class="st1" width="1.5" height="1.5"/>
	<rect x="186" y="57.4" class="st1" width="1.5" height="1.5"/>
	<rect x="186" y="58.8" class="st1" width="1.5" height="1.5"/>
	<rect x="186" y="60.2" class="st1" width="1.5" height="1.5"/>
	<rect x="188.1" y="54.7" class="st1" width="1.5" height="1.5"/>
	<rect x="187.4" y="57.4" class="st1" width="1.5" height="1.5"/>
	<rect x="187.4" y="58.8" class="st1" width="1.5" height="1.5"/>
	<rect x="187.4" y="60.2" class="st1" width="1.5" height="1.5"/>
	<rect x="195.9" y="46.3" class="st1" width="1.5" height="1.5"/>
	<rect x="189.7" y="56.4" class="st1" width="1.5" height="1.5"/>
	<rect x="188.8" y="58.8" class="st1" width="1.5" height="1.5"/>
	<rect x="188.8" y="60.2" class="st1" width="1.5" height="1.5"/>
	<rect x="202.4" y="46.3" class="st1" width="1.5" height="1.5"/>
	<rect x="198.9" y="49.5" class="st1" width="1.5" height="1.5"/>
	<rect x="191.3" y="58" class="st1" width="1.5" height="1.5"/>
	<rect x="190.2" y="60.2" class="st1" width="1.5" height="1.5"/>
	<rect x="184.5" y="63.8" class="st1" width="1.5" height="1.5"/>
	<rect x="184.5" y="65.2" class="st1" width="1.5" height="1.5"/>
	<rect x="184.5" y="66.6" class="st1" width="1.5" height="1.5"/>
	<rect x="184.5" y="68" class="st1" width="1.5" height="1.5"/>
	<rect x="185.9" y="63.8" class="st1" width="1.5" height="1.5"/>
	<rect x="185.9" y="65.2" class="st1" width="1.5" height="1.5"/>
	<rect x="185.9" y="66.6" class="st1" width="1.5" height="1.5"/>
	<rect x="185.9" y="68" class="st1" width="1.5" height="1.5"/>
	<rect x="187.8" y="63.2" class="st1" width="1.5" height="1.5"/>
	<rect x="187.3" y="65.2" class="st1" width="1.5" height="1.5"/>
	<rect x="187.3" y="66.6" class="st1" width="1.5" height="1.5"/>
	<rect x="187.3" y="68" class="st1" width="1.5" height="1.5"/>
	<rect x="196.3" y="56.3" class="st1" width="1.5" height="1.5"/>
	<rect x="189.4" y="64.7" class="st1" width="1.5" height="1.5"/>
	<rect x="188.7" y="66.6" class="st1" width="1.5" height="1.5"/>
	<rect x="188.7" y="68" class="st1" width="1.5" height="1.5"/>
	<rect x="182.7" y="71.3" class="st1" width="6.2" height="6.2"/>
	<rect x="182.7" y="76.9" class="st1" width="6.2" height="6.2"/>
	<rect x="193.9" y="54.5" class="st1" width="1.5" height="1.5"/>
	<rect x="193.9" y="55.9" class="st1" width="1.5" height="1.5"/>
	<rect x="193.9" y="57.3" class="st1" width="1.5" height="1.5"/>
	<rect x="193.9" y="58.7" class="st1" width="1.5" height="1.5"/>
	<rect x="201.6" y="45.2" class="st1" width="1.5" height="1.5"/>
	<rect x="195.3" y="55.9" class="st1" width="1.5" height="1.5"/>
	<rect x="195.3" y="57.3" class="st1" width="1.5" height="1.5"/>
	<rect x="195.3" y="58.7" class="st1" width="1.5" height="1.5"/>
	<g>
		<g>
			<defs>
				<rect id="SVGID_1_" x="199.9" y="53.4" width="1.5" height="1.5"/>
			</defs>
			<use xlink:href="#SVGID_1_"  style="overflow:visible;fill:#8787C6;"/>
			<clipPath id="SVGID_2_">
				<use xlink:href="#SVGID_1_"  style="overflow:visible;"/>
			</clipPath>
			<rect x="199.9" y="53.4" class="st8" width="1.5" height="1.5"/>
		</g>
	</g>
	<rect x="196.7" y="57.3" class="st1" width="1.5" height="1.5"/>
	<rect x="196.7" y="58.7" class="st1" width="1.5" height="1.5"/>
	<rect x="206.4" y="51.5" class="st1" width="1.5" height="1.5"/>
	<rect x="198.1" y="58.7" class="st1" width="1.5" height="1.5"/>
	<rect x="192.4" y="62.3" class="st1" width="1.5" height="1.5"/>
	<rect x="192.4" y="63.7" class="st1" width="1.5" height="1.5"/>
	<rect x="192.4" y="65.1" class="st1" width="1.5" height="1.5"/>
	<rect x="192.4" y="66.5" class="st1" width="1.5" height="1.5"/>
	<rect x="194.6" y="61.2" class="st1" width="1.5" height="1.5"/>
	<rect x="193.8" y="63.7" class="st1" width="1.5" height="1.5"/>
	<rect x="193.8" y="65.1" class="st1" width="1.5" height="1.5"/>
	<rect x="193.8" y="66.5" class="st1" width="1.5" height="1.5"/>
	<rect x="203.5" y="53.5" class="st1" width="1.5" height="1.5"/>
	<rect x="196.2" y="62.8" class="st1" width="1.5" height="1.5"/>
	<rect x="195.2" y="65.1" class="st1" width="1.5" height="1.5"/>
	<rect x="195.2" y="66.5" class="st1" width="1.5" height="1.5"/>
	<rect x="206.6" y="50.9" class="st1" width="1.5" height="1.5"/>
	<rect x="204.3" y="56.8" class="st1" width="1.5" height="1.5"/>
	<rect x="197.9" y="64.5" class="st1" width="1.5" height="1.5"/>
	<rect x="196.6" y="66.5" class="st1" width="1.5" height="1.5"/>
	<rect x="190.5" y="69.8" class="st1" width="1.5" height="1.5"/>
	<rect x="190.5" y="71.2" class="st1" width="1.5" height="1.5"/>
	<rect x="190.5" y="72.6" class="st1" width="1.5" height="1.5"/>
	<rect x="190.5" y="74" class="st1" width="1.5" height="1.5"/>
	<rect x="191.9" y="69.8" class="st1" width="1.5" height="1.5"/>
	<rect x="191.9" y="71.2" class="st1" width="1.5" height="1.5"/>
	<rect x="191.9" y="72.6" class="st1" width="1.5" height="1.5"/>
	<rect x="191.9" y="74" class="st1" width="1.5" height="1.5"/>
	<rect x="193.9" y="69.2" class="st1" width="1.5" height="1.5"/>
	<rect x="193.3" y="71.2" class="st1" width="1.5" height="1.5"/>
	<rect x="193.3" y="72.6" class="st1" width="1.5" height="1.5"/>
	<rect x="193.3" y="74" class="st1" width="1.5" height="1.5"/>
	<rect x="203.4" y="63.2" class="st1" width="1.5" height="1.5"/>
	<rect x="195.5" y="70.8" class="st1" width="1.5" height="1.5"/>
	<rect x="194.7" y="72.6" class="st1" width="1.5" height="1.5"/>
	<rect x="194.7" y="74" class="st1" width="1.5" height="1.5"/>
	<rect x="188.2" y="76.9" class="st1" width="6.2" height="6.2"/>
</g>
</svg>
