<?xml version="1.0" encoding="utf-8"?>
<!-- Generator: Adobe Illustrator 19.2.0, SVG Export Plug-In . SVG Version: 6.00 Build 0)  -->
<svg version="1.1" id="Layer_1" xmlns="http://www.w3.org/2000/svg" xmlns:xlink="http://www.w3.org/1999/xlink" x="0px" y="0px"
	 viewBox="0 0 597 223" style="enable-background:new 0 0 597 223;" xml:space="preserve">
<style type="text/css">
	.st0{fill:#B6B6D8;}
	.st1{fill:#DFDFF4;}
	.st2{fill:#4C4277;}
	.st3{fill:#C9C9E2;}
	.st4{fill:#8787C6;}
</style>
<g>
	<g>
		<polygon class="st0" points="118.7,46.6 50.3,46.6 50.3,182.6 157.4,182.6 157.4,84.4 		"/>
	</g>
	<polygon class="st1" points="119.3,86.1 158.1,85 119.3,47.4 	"/>
</g>
<g>
	<g>
		<polygon class="st0" points="499.6,46.6 431.4,46.6 431.4,182.6 538.3,182.6 538.3,84.4 		"/>
	</g>
	<polygon class="st1" points="500.4,86.1 539,85 500.4,47.4 	"/>
</g>
<g>
	<polygon class="st2" points="311.3,46.4 243.1,46.4 243.1,182.8 350,182.8 350,84.4 	"/>
	<polygon class="st1" points="311.1,84.4 350.3,84.4 311.1,46.5 	"/>
</g>
<g>
	<polygon class="st3" points="177.4,192.8 177.4,197.1 173.1,197.1 173.1,200.3 180.4,200.3 180.4,192.8 	"/>
	<path class="st3" d="M58.4,197.1H45.7v3.2h12.7C58.4,200.3,58.4,197.1,58.4,197.1z M83.9,197.1H71.1v3.2h12.7L83.9,197.1
		L83.9,197.1z M109.3,197.1H96.7v3.2h12.7V197.1z M134.9,197.1h-12.7v3.2h12.7V197.1z M160.4,197.1h-12.7v3.2h12.7V197.1z"/>
	<polygon class="st3" points="36.2,197.1 30.8,197.1 30.8,192.8 27.7,192.8 27.7,200.3 36.2,200.3 	"/>
	<path class="st3" d="M30.8,64.4V52.8h-3.2v11.7L30.8,64.4L30.8,64.4z M30.8,87.8V76.1h-3.2v11.7H30.8z M30.8,111.1V99.5h-3.2v11.7
		h3.2V111.1z M30.8,134.5v-11.7h-3.2v11.7H30.8z M30.8,157.8v-11.7h-3.2v11.7H30.8z M30.8,181.2v-11.7h-3.2v11.7H30.8z"/>
	<polygon class="st3" points="30.8,36.8 30.8,32.6 36.2,32.6 36.2,29.4 27.7,29.4 27.7,36.8 	"/>
	<path class="st3" d="M150.8,32.6h12.7v-3.2h-12.7V32.6z M125.3,32.6h12.7v-3.2h-12.7V32.6z M99.8,32.6h12.7v-3.2H99.8V32.6z
		 M74.3,32.6H87v-3.2H74.3V32.6z M49,32.6h12.7v-3.2H49V32.6z"/>
	<path class="st3" d="M177.4,165.2v11.7h3.2v-11.7H177.4z M177.4,141.9v11.7h3.2v-11.7H177.4z M177.4,118.6v11.7h3.2v-11.7H177.4z
		 M177.4,95.2v11.7h3.2V95.2H177.4z M177.4,71.9v11.7h3.2V71.9H177.4z M177.4,48.5v11.7h3.2V48.5H177.4z"/>
	<polygon class="st3" points="558.3,192.8 558.3,197.1 554,197.1 554,200.3 561.5,200.3 561.5,192.8 	"/>
	<path class="st3" d="M439.5,197.1h-12.7v3.2h12.7V197.1z M464.9,197.1h-12.7v3.2h12.7V197.1z M490.4,197.1h-12.7v3.2h12.7V197.1z
		 M515.8,197.1h-12.7v3.2h12.7V197.1z M541.3,197.1h-12.7v3.2h12.7V197.1z"/>
	<polygon class="st3" points="417.1,197.1 411.9,197.1 411.9,192.8 408.6,192.8 408.6,200.3 417.1,200.3 	"/>
	<path class="st3" d="M411.9,64.4V52.8h-3.2v11.7L411.9,64.4L411.9,64.4z M411.9,87.8V76.1h-3.2v11.7H411.9z M411.9,111.1V99.5h-3.2
		v11.7h3.2V111.1z M411.9,134.5v-11.7h-3.2v11.7H411.9z M411.9,157.8v-11.7h-3.2v11.7H411.9z M411.9,181.2v-11.7h-3.2v11.7H411.9z"
		/>
	<polygon class="st3" points="411.9,36.8 411.9,32.6 417.1,32.6 417.1,29.4 408.6,29.4 408.6,36.8 	"/>
	<path class="st3" d="M531.8,32.6h12.7v-3.2h-12.7V32.6z M506.3,32.6H519v-3.2h-12.7V32.6L506.3,32.6z M480.8,32.6h12.7v-3.2h-12.7
		V32.6z M455.4,32.6h12.7v-3.2h-12.7V32.6z M429.9,32.6h12.7v-3.2h-12.7V32.6L429.9,32.6z"/>
	<path class="st3" d="M558.3,165.2v11.7h3.2v-11.7H558.3z M558.3,141.9v11.7h3.2v-11.7H558.3z M558.3,118.6v11.7h3.2v-11.7H558.3z
		 M558.3,95.2v11.7h3.2V95.2H558.3z M558.3,71.9v11.7h3.2V71.9H558.3z M558.3,48.5v11.7h3.2V48.5H558.3z"/>
	<polygon class="st3" points="370.5,192.8 370.5,197.1 365.1,197.1 365.1,200.3 373.6,200.3 373.6,192.8 	"/>
	<path class="st3" d="M250.5,197.1h-12.7v3.2h12.7V197.1z M276,197.1h-12.7v3.2H276V197.1z M301.5,197.1h-12.7v3.2h12.7V197.1z
		 M327,197.1h-12.7v3.2H327V197.1z M352.4,197.1h-12.7v3.2h12.7V197.1z"/>
	<polygon class="st3" points="229.4,197.1 223.9,197.1 223.9,192.8 220.9,192.8 220.9,200.3 229.4,200.3 	"/>
	<path class="st3" d="M223.9,64.4V52.8h-3.2v11.7L223.9,64.4L223.9,64.4z M223.9,87.8V76.1h-3.2v11.7H223.9z M223.9,111.1V99.5h-3.2
		v11.7h3.2V111.1z M223.9,134.5v-11.7h-3.2v11.7H223.9z M223.9,157.8v-11.7h-3.2v11.7H223.9z M223.9,181.2v-11.7h-3.2v11.7H223.9z"
		/>
	<polygon class="st3" points="223.9,36.8 223.9,32.6 229.4,32.6 229.4,29.4 220.9,29.4 220.9,36.8 	"/>
	<path class="st3" d="M342.9,32.6h12.7v-3.2h-12.7V32.6z M317.4,32.6H330v-3.2h-12.7V32.6z M292,32.6h12.7v-3.2H292V32.6z
		 M266.5,32.6h12.7v-3.2h-12.7V32.6z M240.9,32.6h12.7v-3.2h-12.7V32.6z"/>
	<path class="st3" d="M370.5,165.2v11.7h3.2v-11.7H370.5z M370.5,141.9v11.7h3.2v-11.7H370.5z M370.5,118.6v11.7h3.2v-11.7H370.5z
		 M370.5,95.2v11.7h3.2V95.2H370.5z M370.5,71.9v11.7h3.2V71.9H370.5z M370.5,48.5v11.7h3.2V48.5H370.5z"/>
</g>
<g>
	<path class="st4" d="M324.5,140c-0.3-1.6-0.5-3.5-1.3-4.9c-0.3-0.8-0.8-1.3-1.6-1.9c-0.8-0.5-1.6-0.8-2.7-0.8c-2.4,0-4-0.3-4.9-0.3
		c-0.3,0-0.3,0-0.5,0c0.3-1.1,0.5-2.4,0.8-3.8h7.5c1.1,0,2.2-0.8,2.2-2.2c0-1.1-0.8-2.2-2.2-2.2h-7.5c0-1.3-0.3-2.7-0.5-4
		c0.5-0.3,2.2-0.5,5.4-0.5c0.5,0,1.3-0.3,1.9-0.5c0.5-0.3,1.1-0.5,1.3-0.8c0.5-0.5,1.1-1.3,1.3-2.2c0.5-1.1,0.8-2.4,0.8-3.8
		c0.3-1.3,0.3-2.7,0.3-3.8c0-3-0.3-5.7-0.3-5.7c-0.3-1.1-1.1-1.9-2.2-1.9c-1.1,0.3-1.9,1.1-1.9,2.2l0,0l0,0c0,0.3,0.3,2.4,0.3,5.1
		c0,1.1,0,1.9-0.3,3c-0.3,1.3-0.5,2.7-0.8,3.5c-0.3,0.3-0.3,0.5-0.5,0.5c0,0,0,0-0.3,0c-2.7,0-4.6,0.3-5.7,0.5
		c-0.5,0-0.8,0.3-1.1,0.3c-0.5-0.8-1.1-1.3-1.6-2.2c-0.5-0.5-1.1-0.8-1.6-1.3c0-0.3,0.3-0.3,0.3-0.5c0.8-1.1,1.1-2.7,1.1-4
		s-0.5-2.7-1.1-4c-0.5-1.1-1.6-2.2-2.7-3v-5.7c0-1.1-0.8-2.2-2.2-2.2c-1.1,0-2.2,0.8-2.2,2.2v3.5c-1.6-0.5-3.2-0.8-4.9-0.8
		c-1.6,0-3.2,0.3-4.9,0.8v-3.5c0-1.1-0.8-2.2-2.2-2.2c-1.1,0-2.2,0.8-2.2,2.2v5.7c-1.1,0.8-1.9,1.9-2.7,3c-0.8,1.1-1.1,2.7-1.1,4
		s0.5,2.7,1.1,4c0.3,0.3,0.3,0.5,0.5,0.8c-0.5,0.5-1.1,0.8-1.6,1.6c-0.3,0.5-0.5,0.8-0.8,1.3c-0.3,0-0.5-0.3-1.1-0.3
		c-1.1-0.3-3-0.5-5.7-0.5h-0.3c0,0,0,0-0.3,0c-0.3,0-0.3-0.5-0.5-0.8c-0.3-0.5-0.5-1.6-0.5-2.7s-0.3-2.2-0.3-3.5s0-2.7,0.3-3.5
		c0-0.5,0-0.8,0-1.1v-0.3l0,0l0,0c0.3-1.1-0.5-2.2-1.9-2.2c-1.1-0.3-2.2,0.5-2.2,1.9l0,0c0,0-0.3,2.7-0.3,5.7c0,1.1,0,2.2,0.3,3.5
		c0.3,1.6,0.5,3.5,1.3,4.9c0.3,0.8,0.8,1.3,1.6,1.9c0.8,0.5,1.6,0.8,2.7,0.8c2.4,0,4,0.3,4.9,0.3c0,0-0.3,2.7-0.3,4h-8.4
		c-1.1,0-2.2,0.8-2.2,2.2c0,1.1,0.8,2.2,2.2,2.2h8.4c0,1.3,0.3,2.4,0.8,3.8c-0.8,0.3-2.2,0.5-5.1,0.5c-0.5,0-1.3,0.3-1.9,0.5
		s-1.1,0.5-1.3,0.8c-0.5,0.5-1.1,1.3-1.3,2.2c-0.5,1.1-0.8,2.4-0.8,3.8c-0.3,1.3-0.3,2.7-0.3,3.8c0,3,0.3,5.7,0.3,5.7
		c0.3,1.1,1.1,1.9,2.2,1.9c1.1-0.3,1.9-1.1,1.9-2.2l0,0l0,0c0-0.3-0.3-2.4-0.3-5.1c0-1.1,0-1.9,0.3-3c0.3-1.3,0.5-2.7,0.8-3.5
		c0.3-0.3,0.3-0.5,0.5-0.5c0,0,0,0,0.3,0c2.7,0,4.6-0.3,5.7-0.5c0.5,0,0.8-0.3,1.1-0.3c1.3,2.4,3.2,4.9,5.4,6.7
		c1.3,1.1,2.7,1.9,4,2.7c1.3,0.5,3,1.1,4.3,1.1c1.9,0,3.8-0.8,5.7-1.9c2.7-1.6,5.1-4,7.3-7c0.3-0.5,0.5-1.1,0.8-1.6
		c0.3,0,0.8,0.3,1.3,0.3c1.1,0.3,3,0.5,5.7,0.5h0.3c0,0,0,0,0.3,0c0.3,0,0.3,0.5,0.5,0.8c0.3,0.5,0.5,1.6,0.5,2.7s0.3,2.2,0.3,3.5
		s0,2.7-0.3,3.5c0,0.5,0,0.8,0,1.1v0.3l0,0l0,0c-0.3,1.1,0.5,2.2,1.9,2.2s2.2-0.5,2.2-1.9l0,0c0,0,0.3-2.7,0.3-5.7
		C324.5,142.1,324.5,141,324.5,140z M289.4,106.3c0.5-1.1,1.6-1.9,3-2.7s3.2-1.1,5.1-1.1c2.4,0,4.9,0.8,6.2,1.9
		c0.8,0.5,1.3,1.1,1.6,1.9c0.3,0.5,0.5,1.3,0.5,1.9c0,0.8-0.3,1.3-0.5,1.9c-0.3,0.3-0.5,0.8-0.8,1.1c-0.5,0.5-1.3,1.1-2.2,1.6
		c-0.3,0-0.3,0-0.5,0.3c-1.3,0.5-3,0.8-4.6,0.8s-3.2-0.3-4.6-0.8c-0.5-0.3-1.3-0.5-1.9-1.1c-0.3-0.3-0.5-0.5-0.8-0.5
		c-0.3-0.3-0.8-0.8-1.1-1.1c-0.3-0.5-0.5-1.3-0.5-1.9C288.9,107.6,289.1,107.1,289.4,106.3z M309,132.1c-1.1,2.7-3.2,5.1-5.4,6.7
		c-1.1,0.8-2.2,1.6-3.2,2.2c-1.1,0.5-1.9,0.5-2.4,0.5c-1.1,0-2.4-0.3-3.8-1.3c-2.2-1.3-4.3-3.2-5.9-5.7c-1.6-2.4-2.4-5.1-2.4-7.5
		c0-3.2,0.3-5.7,0.8-7.3c0.3-1.3,0.8-2.2,1.3-2.7c0.3-0.5,0.8-0.8,1.3-1.1l0,0c0.3,0.3,0.5,0.3,1.1,0.5c1.9,1.1,4.3,1.6,6.7,1.6
		c3,0,5.9-0.8,8.1-2.2c0.3,0,0.5,0.3,0.5,0.3c0.5,0.3,1.1,0.5,1.6,1.1c0.8,0.8,1.3,1.6,1.6,3.2c0.5,1.6,0.8,3.8,0.8,6.7
		C310.1,128.6,309.9,130.3,309,132.1z"/>
</g>
<path class="st0" d="M568.3,29.5v-5.6c0-4-3.7-7.2-8.4-7.2c-4.6,0-8.4,3.2-8.4,7.2v5.6h-3v3v5.6v3.4c0,1.7,1.8,2.8,3.4,2.8h15.8
	c1.7,0,3.4-1.1,3.4-2.8v-3.4v-5.6v-3H568.3z M560,19.7c3.1,0,5.4,2.1,5.4,4.8v5h-10.8v-5C554.6,21.8,557,19.7,560,19.7z"/>
<path class="st0" d="M379.9,29.5v-5.6c0-4-3.7-7.2-8.4-7.2c-4.6,0-8.4,3.2-8.4,7.2v5.6h-3v3v5.6v3.4c0,1.7,1.8,2.8,3.4,2.8h15.8
	c1.7,0,3.4-1.1,3.4-2.8v-3.4v-5.6v-3H379.9z M371.5,19.7c3.1,0,5.4,2.1,5.4,4.8v5H366v-5C366,21.8,368.5,19.7,371.5,19.7z"/>
<path class="st0" d="M187.3,29.5v-5.6c0-4-3.7-7.2-8.4-7.2c-4.6,0-8.4,3.2-8.4,7.2v5.6h-3v3v5.6v3.4c0,1.7,1.8,2.8,3.4,2.8h15.8
	c1.7,0,3.4-1.1,3.4-2.8v-3.4v-5.6v-3H187.3z M178.9,19.7c3.1,0,5.4,2.1,5.4,4.8v5h-10.8v-5C173.4,21.8,175.9,19.7,178.9,19.7z"/>
</svg>
