<?xml version="1.0" encoding="utf-8"?>
<!-- Generator: Adobe Illustrator 19.2.0, SVG Export Plug-In . SVG Version: 6.00 Build 0)  -->
<svg version="1.1" id="Layer_1" xmlns="http://www.w3.org/2000/svg" xmlns:xlink="http://www.w3.org/1999/xlink" x="0px" y="0px"
	 viewBox="0 0 605 382" style="enable-background:new 0 0 605 382;" xml:space="preserve">
<style type="text/css">
	.st0{opacity:0.4;fill:#A4AEC1;}
	.st1{fill:#FFFFFF;}
	.st2{fill:#D1D1D1;}
	.st3{fill:#353535;}
	.st4{fill:#232323;}
	.st5{fill:#A5A5A5;}
	.st6{fill:#606060;}
	.st7{fill:#E0E0E0;}
	.st8{fill:#4F4F4F;}
	.st9{fill:none;stroke:#D1D1D1;stroke-miterlimit:10;}
	.st10{fill:#CECECE;}
	.st11{fill:#868686;}
</style>
<rect x="18.9" y="36.7" class="st0" width="579.4" height="340.3"/>
<rect x="8.9" y="23.6" class="st1" width="578" height="341.5"/>
<polygon class="st2" points="586.9,365 586.9,364.6 9.4,364.6 9.4,24.1 586.4,24.1 586.4,365 586.9,365 586.9,364.6 586.9,365 
	587.4,365 587.4,23.1 8.4,23.1 8.4,365.5 587.4,365.5 587.4,365 "/>
<path class="st3" d="M92.4,181.8H94v-6.5c0.9-0.9,1.6-1.4,2.4-1.4c1.2,0,1.8,0.7,1.8,2.4v5.6h1.5v-5.8c0-2.3-0.9-3.5-2.7-3.5
	c-1.3,0-2.1,0.7-3,1.5l0.1-1.9v-3.6h-1.6V181.8z M83.6,180.9c0.9,0.7,2,1.3,3.4,1.3c2.1,0,3.3-1.3,3.3-2.7c0-1.8-1.5-2.2-2.7-2.7
	c-1-0.4-2-0.7-2-1.6c0-0.7,0.5-1.3,1.7-1.3c0.8,0,1.5,0.3,2,0.8l0.7-1c-0.7-0.6-1.7-1-2.8-1c-2,0-3.1,1.1-3.1,2.5
	c0,1.6,1.4,2.1,2.7,2.6c1,0.4,2,0.8,2,1.8c0,0.8-0.6,1.4-1.8,1.4c-1.1,0-1.9-0.5-2.6-1.1L83.6,180.9z M76.3,176.7
	c0.2-1.9,1.4-2.8,2.6-2.8c1.4,0,2.2,1,2.2,2.8H76.3z M74.7,177.4c0,2.9,2,4.7,4.3,4.7c1.3,0,2.1-0.4,2.9-1l-0.6-1
	c-0.7,0.4-1.4,0.7-2.2,0.7c-1.8,0-2.9-1.3-3-3.2h6.1c0-0.2,0.1-0.5,0.1-0.9c0-2.5-1.3-4.2-3.6-4.2C76.7,172.6,74.7,174.4,74.7,177.4
	z M67,176.7c0.2-1.9,1.4-2.8,2.6-2.8c1.4,0,2.2,1,2.2,2.8H67z M65.5,177.4c0,2.9,2,4.7,4.3,4.7c1.3,0,2.1-0.4,2.9-1l-0.6-1
	c-0.7,0.4-1.4,0.7-2.2,0.7c-1.8,0-2.9-1.3-3-3.2H73c0-0.2,0.1-0.5,0.1-0.9c0-2.5-1.3-4.2-3.6-4.2C67.5,172.6,65.5,174.4,65.5,177.4z
	 M56.1,181.8h1.6v-6.5c0.9-0.9,1.6-1.4,2.4-1.4c1.2,0,1.8,0.7,1.8,2.4v5.6h1.6v-5.8c0-2.3-0.9-3.5-2.7-3.5c-1.3,0-2.1,0.7-3,1.5
	l0.1-1.9v-3.6h-1.6L56.1,181.8L56.1,181.8z M47.3,180.9c0.9,0.7,2,1.3,3.4,1.3c2.1,0,3.3-1.3,3.3-2.7c0-1.8-1.5-2.2-2.7-2.7
	c-1-0.4-2-0.7-2-1.6c0-0.7,0.5-1.3,1.7-1.3c0.8,0,1.5,0.3,2,0.8l0.7-1c-0.7-0.6-1.7-1-2.8-1c-2,0-3.1,1.1-3.1,2.5
	c0,1.6,1.4,2.1,2.7,2.6c1,0.4,2,0.8,2,1.8c0,0.8-0.6,1.4-1.8,1.4c-1.1,0-1.9-0.5-2.6-1.1L47.3,180.9z M45.2,181.8h1.7l-4.1-12.2H41
	l-4.1,12.2h1.6l1.2-3.7h4.5L45.2,181.8z M39.9,176.9l0.6-1.9c0.4-1.4,0.8-2.7,1.2-4.1h0.1c0.4,1.4,0.8,2.7,1.2,4.1l0.6,1.9H39.9z"/>
<path class="st3" d="M351.6,177.4c0-2,1.2-3.4,2.6-3.4c0.8,0,1.5,0.3,2.1,1v4.7c-0.8,0.9-1.5,1.3-2.3,1.3
	C352.5,180.8,351.6,179.5,351.6,177.4z M350,177.4c0,3,1.5,4.7,3.7,4.7c1.1,0,2-0.6,2.7-1.3h0.1l0.1,1.1h1.3v-13.3h-1.6v3.5l0.1,1.6
	c-0.8-0.7-1.5-1.1-2.5-1.1C351.9,172.6,350,174.4,350,177.4z M342.2,176.7c0.2-1.9,1.4-2.8,2.6-2.8c1.4,0,2.2,1,2.2,2.8H342.2z
	 M340.8,177.4c0,2.9,2,4.7,4.3,4.7c1.3,0,2.1-0.4,2.9-1l-0.6-1c-0.7,0.4-1.4,0.7-2.2,0.7c-1.8,0-2.9-1.3-3-3.2h6.1
	c0-0.2,0.1-0.5,0.1-0.9c0-2.5-1.3-4.2-3.6-4.2C342.7,172.6,340.8,174.4,340.8,177.4z M332,177.4c0-2,1.2-3.4,2.6-3.4
	c0.8,0,1.5,0.3,2.1,1v4.7c-0.8,0.9-1.5,1.3-2.3,1.3C333,180.8,332,179.5,332,177.4z M330.5,177.4c0,3,1.5,4.7,3.7,4.7
	c1.1,0,2-0.6,2.7-1.3h0.1l0.1,1.1h1.3v-13.3h-1.6v3.5l0.1,1.6c-0.8-0.7-1.5-1.1-2.5-1.1C332.3,172.6,330.5,174.4,330.5,177.4z
	 M321.8,177.4c0-2,1.2-3.4,2.6-3.4c0.8,0,1.5,0.3,2.1,1v4.7c-0.8,0.9-1.5,1.3-2.3,1.3C322.7,180.8,321.8,179.5,321.8,177.4z
	 M320.2,177.4c0,3,1.5,4.7,3.7,4.7c1.1,0,2-0.6,2.7-1.3h0.1l0.1,1.1h1.3v-13.3h-1.6v3.5l0.1,1.6c-0.8-0.7-1.5-1.1-2.5-1.1
	C322.1,172.6,320.2,174.4,320.2,177.4z M312.4,179.4c0-1.2,1-1.9,4.1-2.2v2.5c-0.9,0.8-1.6,1.2-2.4,1.2
	C313.1,180.9,312.4,180.5,312.4,179.4z M310.9,179.5c0,1.7,1.2,2.5,2.6,2.5c1.1,0,2.1-0.6,3-1.3l0,0l0.1,1.1h1.3v-5.6
	c0-2.2-1-3.7-3.1-3.7c-1.5,0-2.7,0.6-3.5,1.2l0.6,1.1c0.7-0.5,1.7-1,2.7-1c1.5,0,1.9,1.1,1.9,2.2
	C312.6,176.6,310.9,177.5,310.9,179.5z"/>
<path class="st3" d="M366.2,179.9v-4.8c0.9-0.8,1.7-1.3,2.4-1.3c1.8,0,2.3,1.4,2.3,3.3c0,2.2-1.1,3.6-2.5,3.6
	C367.9,180.8,367,180.6,366.2,179.9z M364.7,181.8h1.3l0.1-0.9h0.1c0.8,0.7,1.8,1.1,2.5,1.1c2,0,3.9-1.8,3.9-4.9
	c0-2.8-1.3-4.6-3.6-4.6c-1,0-2,0.6-2.8,1.3v-1.7v-3.6h-1.6L364.7,181.8L364.7,181.8z"/>
<path class="st3" d="M480.2,178.5c0,2.3,0.9,3.5,2.7,3.5c1.3,0,2.1-0.7,2.9-1.7h0.1l0.1,1.4h1.3v-9.1h-1.6v6.4
	c-0.9,1.1-1.5,1.6-2.4,1.6c-1.2,0-1.7-0.7-1.7-2.4v-5.6h-1.6L480.2,178.5L480.2,178.5z M474.1,177.9c-1.1,0-2-0.9-2-2.1
	c0-1.3,0.9-2.1,2-2.1c1.1,0,2,0.8,2,2.1C476,177.2,475,177.9,474.1,177.9z M470.3,183.6c0,1.6,1.6,2.4,3.7,2.4
	c2.8,0,4.6-1.5,4.6-3.1c0-1.5-1.1-2.1-3.1-2.1h-1.8c-1.3,0-1.6-0.4-1.6-1c0-0.5,0.3-0.8,0.6-1.1c0.4,0.2,0.9,0.3,1.4,0.3
	c1.9,0,3.3-1.2,3.3-3.1c0-0.8-0.3-1.5-0.8-1.9h1.9v-1.2h-3.1c-0.3-0.1-0.8-0.2-1.3-0.2c-1.9,0-3.4,1.3-3.4,3.2c0,1.1,0.6,2,1.2,2.4
	v0.1c-0.5,0.3-1,0.9-1,1.7c0,0.7,0.4,1.2,0.8,1.5v0.1C470.9,182.1,470.3,182.8,470.3,183.6z M471.6,183.4c0-0.5,0.3-1.1,1-1.6
	c0.4,0.1,0.8,0.2,1.2,0.2h1.6c1.2,0,1.9,0.3,1.9,1.1c0,1-1.2,1.9-2.8,1.9C472.6,185,471.6,184.4,471.6,183.4z M459.2,181.8h1.5v-6.3
	c0-1.3-0.1-2.5-0.2-3.8h0.1l1.4,2.5l4.4,7.7h1.6v-12.2h-1.5v6.3c0,1.3,0.1,2.6,0.2,3.9h-0.1l-1.4-2.5l-4.4-7.7h-1.6V181.8z
	 M446.9,179.4c0-1.2,1-1.9,4.1-2.2v2.5c-0.9,0.8-1.6,1.2-2.4,1.2C447.6,180.9,446.9,180.5,446.9,179.4z M445.4,179.5
	c0,1.7,1.2,2.5,2.6,2.5c1.1,0,2.1-0.6,3-1.3l0,0l0.1,1.1h1.3v-5.6c0-2.2-1-3.7-3.1-3.7c-1.5,0-2.7,0.6-3.5,1.2l0.6,1.1
	c0.7-0.5,1.7-1,2.7-1c1.5,0,1.9,1.1,1.9,2.2C447.1,176.6,445.4,177.5,445.4,179.5z M435.7,181.8h1.6v-6.5c0.9-0.9,1.6-1.4,2.4-1.4
	c1.2,0,1.8,0.7,1.8,2.4v5.6h1.6v-5.8c0-2.3-0.9-3.5-2.7-3.5c-1.3,0-2.1,0.7-3,1.6H437l-0.1-1.3h-1.3V181.8z M427.3,176.7
	c0.2-1.9,1.4-2.8,2.6-2.8c1.4,0,2.2,1,2.2,2.8H427.3z M425.8,177.4c0,2.9,2,4.7,4.3,4.7c1.3,0,2.1-0.4,2.9-1l-0.6-1
	c-0.7,0.4-1.4,0.7-2.2,0.7c-1.8,0-2.9-1.3-3-3.2h6.1c0-0.2,0.1-0.5,0.1-0.9c0-2.5-1.3-4.2-3.6-4.2
	C427.8,172.6,425.8,174.4,425.8,177.4z M414.6,181.8h1.5v-6.3c0-1.3-0.1-2.5-0.2-3.8h0.1l1.4,2.5l4.4,7.7h1.6v-12.2h-1.5v6.3
	c0,1.3,0.1,2.6,0.2,3.9h-0.1l-1.4-2.5l-4.4-7.7h-1.6V181.8z M383.3,181c0,0.7,0.5,1.2,1.1,1.2s1.1-0.5,1.1-1.2
	c0-0.7-0.5-1.2-1.1-1.2S383.3,180.3,383.3,181z M383.3,174.2c0,0.7,0.5,1.2,1.1,1.2s1.1-0.5,1.1-1.2c0-0.7-0.5-1.2-1.1-1.2
	C383.8,173.1,383.3,173.6,383.3,174.2z M374.3,184.4l-0.3,1.2c0.3,0.1,0.7,0.2,1.1,0.2c1.9,0,2.7-1.4,3.4-3.1l3.4-9.8h-1.5l-1.7,5
	c-0.2,0.8-0.5,1.8-0.8,2.5h-0.1c-0.3-0.9-0.6-1.8-0.9-2.5l-1.9-5h-1.6l3.6,9.1l-0.2,0.7c-0.4,1.1-1,2-2,2
	C374.8,184.5,374.5,184.4,374.3,184.4z"/>
<path class="st3" d="M489.9,184.4l-0.3,1.2c0.3,0.1,0.7,0.2,1.1,0.2c1.9,0,2.7-1.4,3.4-3.1l3.4-9.8H496l-1.7,5
	c-0.2,0.8-0.5,1.8-0.8,2.5h-0.1c-0.3-0.9-0.6-1.8-0.9-2.5l-1.9-5h-1.6l3.6,9.1l-0.2,0.7c-0.4,1.1-1,2-2,2
	C490.4,184.5,490.1,184.4,489.9,184.4z"/>
<path class="st3" d="M524.7,185.2l1-0.5c-1.5-2.3-2.1-5.2-2.1-8c0-2.8,0.7-5.7,2.1-8l-1-0.5c-1.6,2.5-2.4,5.2-2.4,8.5
	S523.1,182.6,524.7,185.2z M508.3,181.8h1.6v-6.5c0.9-0.9,1.6-1.4,2.4-1.4c1.2,0,1.8,0.7,1.8,2.4v5.6h1.6v-5.8
	c0-2.3-0.9-3.5-2.7-3.5c-1.3,0-2.1,0.7-3,1.6h-0.1l-0.1-1.3h-1.3L508.3,181.8L508.3,181.8z M499.9,176.7c0.2-1.9,1.4-2.8,2.6-2.8
	c1.4,0,2.2,1,2.2,2.8H499.9z M498.4,177.4c0,2.9,2,4.7,4.3,4.7c1.3,0,2.1-0.4,2.9-1l-0.6-1c-0.7,0.4-1.4,0.7-2.2,0.7
	c-1.8,0-2.9-1.3-3-3.2h6.1c0-0.2,0.1-0.5,0.1-0.9c0-2.5-1.3-4.2-3.6-4.2C500.4,172.6,498.4,174.4,498.4,177.4z"/>
<path class="st3" d="M527.2,184.4l-0.3,1.2c0.3,0.1,0.7,0.2,1.1,0.2c1.9,0,2.7-1.4,3.4-3.1l3.4-9.8h-1.5l-1.7,5
	c-0.2,0.8-0.5,1.8-0.8,2.5h-0.1c-0.3-0.9-0.6-1.8-0.9-2.5l-1.9-5h-1.6l3.6,9.1l-0.2,0.7c-0.4,1.1-1,2-2,2
	C527.7,184.5,527.4,184.4,527.2,184.4z"/>
<path class="st3" d="M555.8,184.7l1,0.5c1.6-2.5,2.4-5.2,2.4-8.5s-0.9-5.9-2.4-8.5l-1,0.5c1.5,2.3,2.1,5.2,2.1,8
	C557.9,179.5,557.2,182.3,555.8,184.7z M546.4,178.5c0,2.3,0.9,3.5,2.7,3.5c1.3,0,2.1-0.7,2.9-1.7h0.1l0.1,1.4h1.3v-9.1h-1.5v6.4
	c-0.9,1.1-1.5,1.6-2.4,1.6c-1.2,0-1.7-0.7-1.7-2.4v-5.6h-1.6V178.5z M537.4,177.4c0-2,1.1-3.5,2.6-3.5s2.6,1.4,2.6,3.5
	c0,2-1.1,3.4-2.6,3.4C538.4,180.9,537.4,179.4,537.4,177.4z M535.8,177.4c0,3,2,4.7,4.2,4.7c2.2,0,4.2-1.8,4.2-4.7
	c0-3-2-4.8-4.2-4.8C537.7,172.6,535.8,174.3,535.8,177.4z"/>
<path class="st3" d="M68.5,127.9v-4.2h1.8c1.8,0,2.6,0.5,2.6,2c0,1.5-0.9,2.2-2.6,2.2L68.5,127.9L68.5,127.9z M66.3,134.1h2.1v-4.5
	h2c2.6,0,4.6-1.3,4.6-3.9c0-2.8-2-3.7-4.6-3.7h-4.1V134.1z"/>
<path class="st3" d="M113.3,128.7c0.2-1.6,1.1-2.3,2.1-2.3c1.3,0,1.9,0.9,1.9,2.3H113.3z M111.2,129.6c0,3,2,4.8,4.5,4.8
	c1.2,0,2.2-0.4,3.1-1l-0.7-1.4c-0.7,0.4-1.4,0.7-2.1,0.7c-1.5,0-2.5-1-2.7-2.5h5.8c0.1-0.2,0.1-0.6,0.1-1c0-2.5-1.3-4.3-3.8-4.3
	C113.3,124.7,111.2,126.6,111.2,129.6z M106.8,131.7c0,1.6,0.6,2.5,2,2.5c0.5,0,0.9-0.1,1.2-0.2l-0.3-1.6c-0.2,0-0.2,0-0.3,0
	c-0.2,0-0.5-0.2-0.5-0.7V121h-2.1C106.8,121,106.8,131.7,106.8,131.7z M98.4,131.8v-4.3c0.7-0.7,1.4-1,2-1c1.4,0,2,1.1,2,2.9
	c0,2-1,3.1-2.1,3.1C99.8,132.5,99.1,132.3,98.4,131.8z M98.4,133.3c0.8,0.6,1.6,1,2.3,1c2,0,3.9-1.8,3.9-5c0-2.8-1.4-4.7-3.6-4.7
	c-1,0-2,0.6-2.7,1.2h-0.1l-0.2-1h-1.8v12.8h2.1v-2.8V133.3z M87.7,129.6c0-1.9,0.8-3,2.1-3s2.1,1.2,2.1,3c0,1.9-0.8,3-2.1,3
	S87.7,131.3,87.7,129.6z M85.5,129.6c0,3,2,4.8,4.3,4.8c2.2,0,4.4-1.8,4.4-4.8c0-3-2-4.8-4.4-4.8C87.6,124.7,85.5,126.5,85.5,129.6z
	 M78.1,128.7c0.2-1.6,1.1-2.3,2.1-2.3c1.3,0,1.9,0.9,1.9,2.3H78.1z M76.1,129.6c0,3,2,4.8,4.5,4.8c1.2,0,2.2-0.4,3.1-1L83,132
	c-0.7,0.4-1.4,0.7-2.1,0.7c-1.5,0-2.5-1-2.7-2.5h5.8c0.1-0.2,0.1-0.6,0.1-1c0-2.5-1.3-4.3-3.8-4.3C78.1,124.7,76.1,126.6,76.1,129.6
	z"/>
<path class="st4" d="M174.1,253.4c0,0.9,0.6,1.5,1.4,1.5s1.4-0.6,1.4-1.5s-0.6-1.5-1.4-1.5C174.6,251.9,174.1,252.5,174.1,253.4z
	 M174.1,247c0,0.9,0.6,1.5,1.4,1.5s1.4-0.6,1.4-1.5s-0.6-1.5-1.4-1.5C174.6,245.6,174.1,246.2,174.1,247z M165.3,253.6
	c0.9,0.7,2.2,1.3,3.4,1.3c2.3,0,3.5-1.3,3.5-2.8c0-1.8-1.4-2.3-2.6-2.7c-1-0.4-1.9-0.7-1.9-1.4c0-0.6,0.4-1,1.4-1
	c0.7,0,1.4,0.3,2,0.8l1-1.3c-0.8-0.6-1.8-1.1-3-1.1c-2,0-3.3,1.2-3.3,2.7c0,1.6,1.4,2.2,2.5,2.6c1,0.4,2,0.7,2,1.5
	c0,0.6-0.5,1.1-1.5,1.1s-1.8-0.4-2.5-1L165.3,253.6z M156.5,254.6h2.1v-2.3l1.5-1.7l2.3,4h2.3l-3.4-5.4l3.1-3.7h-2.4l-3.4,4.2h-0.1
	v-8.2h-2.1L156.5,254.6L156.5,254.6z M146.1,254.6h2.1v-6.3c0.8-0.8,1.3-1.2,2-1.2c1,0,1.5,0.6,1.5,2v5.5h2.1v-5.8
	c0-2.3-0.9-3.6-2.8-3.6c-1.3,0-2.1,0.7-3,1.5h-0.1l-0.2-1.3H146L146.1,254.6L146.1,254.6z M141.2,254.6h2.1v-9.2h-2.1V254.6z
	 M142.3,243.8c0.8,0,1.4-0.5,1.4-1.2s-0.6-1.3-1.4-1.3c-0.8,0-1.4,0.5-1.4,1.3C141,243.4,141.6,243.8,142.3,243.8z M132.1,254.6h7.2
	v-1.9h-5.1v-10.3h-2.1V254.6z M121.8,250.4c-0.9,0-1.6-0.7-1.6-1.9c0-1.2,0.7-1.8,1.6-1.8s1.6,0.7,1.6,1.8
	C123.4,249.7,122.7,250.4,121.8,250.4z M117.9,256.2c0,1.6,1.7,2.3,3.8,2.3c2.9,0,4.9-1.4,4.9-3.2c0-1.6-1.2-2.2-3.3-2.2h-1.7
	c-1.1,0-1.5-0.3-1.5-0.9c0-0.4,0.2-0.6,0.5-0.9c0.4,0.2,0.9,0.2,1.3,0.2c2,0,3.4-1.1,3.4-3.1c0-0.6-0.2-1.2-0.5-1.6h1.7v-1.6h-3.3
	c-0.4-0.1-0.9-0.2-1.4-0.2c-2,0-3.6,1.2-3.6,3.3c0,1.1,0.6,2,1.2,2.4v0.1c-0.5,0.4-1,1-1,1.7c0,0.8,0.4,1.3,0.8,1.6v0.1
	C118.4,254.9,117.9,255.5,117.9,256.2z M119.7,255.9c0-0.4,0.2-0.9,0.7-1.2c0.4,0.1,0.8,0.1,1.3,0.1h1.3c1.1,0,1.7,0.2,1.7,0.9
	c0,0.8-1,1.5-2.4,1.5C120.5,257.2,119.7,256.7,119.7,255.9z M108,254.6h2.1v-6.3c0.8-0.8,1.3-1.2,2-1.2c1,0,1.5,0.6,1.5,2v5.5h2.1
	v-5.8c0-2.3-0.9-3.6-2.8-3.6c-1.3,0-2.1,0.7-3,1.5h-0.1l-0.2-1.3h-1.8L108,254.6L108,254.6z M103.3,254.6h2.1v-9.2h-2.1V254.6z
	 M104.3,243.8c0.8,0,1.4-0.5,1.4-1.2s-0.6-1.3-1.4-1.3s-1.4,0.5-1.4,1.3C103,243.4,103.6,243.8,104.3,243.8z M96.2,254.6h2.1V249
	c0.6-1.4,1.5-1.9,2.1-1.9c0.4,0,0.6,0.1,1,0.2l0.4-1.9c-0.3-0.1-0.6-0.2-1.1-0.2c-1,0-2,0.7-2.5,1.9h-0.1l-0.2-1.7h-1.8V254.6z
	 M88.3,251.9c0-0.9,0.8-1.6,3.3-1.9v2c-0.7,0.6-1.3,1-2,1C88.8,253.1,88.3,252.8,88.3,251.9z M86.2,252.1c0,1.6,1.1,2.6,2.7,2.6
	c1.1,0,2-0.6,2.8-1.3h0.1l0.2,1h1.8v-5.4c0-2.5-1.1-3.9-3.4-3.9c-1.5,0-2.7,0.6-3.7,1.2l0.8,1.5c0.8-0.5,1.7-0.9,2.5-0.9
	c1.3,0,1.7,0.8,1.7,1.8C87.9,249.2,86.2,250.2,86.2,252.1z M76.3,254.6h2.1v-6.3c0.8-0.8,1.3-1.2,2-1.2c1,0,1.5,0.6,1.5,2v5.5h2.1
	v-5.8c0-2.3-0.9-3.6-2.8-3.6c-1.3,0-2.1,0.7-2.9,1.4l0.1-1.8v-3.4h-2.1V254.6z M65.4,253c1.2,1.2,2.7,1.8,4.4,1.8
	c2.7,0,4.4-1.7,4.4-3.6c0-1.8-1-2.6-2.4-3.3l-1.7-0.7c-1-0.4-2-0.8-2-1.8c0-0.9,0.8-1.5,1.9-1.5s1.9,0.4,2.6,1.1l1.1-1.4
	c-1-1-2.3-1.6-3.7-1.6c-2.3,0-4.1,1.5-4.1,3.4c0,1.8,1.3,2.7,2.4,3.2l1.7,0.7c1.1,0.5,1.9,0.8,1.9,1.8s-0.8,1.6-2.1,1.6
	c-1.2,0-2.3-0.6-3.2-1.4L65.4,253z"/>
<path class="st1" d="M392.6,331.3h126.1c1.3,0,2.3-1.1,2.3-2.3v-39.8c0-1.3-1.1-2.3-2.3-2.3H392.6c-1.3,0-2.3,1.1-2.3,2.3V329
	C390.3,330.2,391.3,331.3,392.6,331.3z"/>
<path class="st5" d="M392.6,331.3v0.5h126.1c1.6,0,2.8-1.3,2.8-2.8v-39.8c0-1.6-1.3-2.8-2.8-2.8H392.6c-1.6,0-2.8,1.3-2.8,2.8V329
	c0,1.6,1.3,2.8,2.8,2.8V331.3v-0.5c-1,0-1.9-0.8-1.9-1.9v-39.8c0-1,0.8-1.9,1.9-1.9h126.1c1,0,1.9,0.8,1.9,1.9V329
	c0,1-0.8,1.9-1.9,1.9H392.6V331.3z"/>
<path class="st4" d="M454.3,314.7h1.6v-9.1h-1.6V314.7z M455.1,303.8c0.6,0,1.1-0.4,1.1-1s-0.5-1-1.1-1c-0.6,0-1.1,0.4-1.1,1
	S454.5,303.8,455.1,303.8z M447.6,314.7h1.8l3.2-9.1h-1.5l-1.8,5.2c-0.3,0.9-0.6,1.8-0.8,2.6h-0.1c-0.3-0.9-0.6-1.8-0.9-2.6
	l-1.8-5.2h-1.6L447.6,314.7z M431.7,314.7h1.6v-6.5c0.9-0.9,1.6-1.4,2.4-1.4c1.2,0,1.8,0.7,1.8,2.4v5.6h1.6v-5.8
	c0-2.3-0.9-3.5-2.7-3.5c-1.3,0-2.1,0.7-3,1.6h-0.1l-0.1-1.3h-1.3L431.7,314.7L431.7,314.7z M423.2,312.3c0-1.2,1-1.9,4.1-2.2v2.5
	c-0.9,0.8-1.6,1.2-2.4,1.2C423.9,313.8,423.2,313.3,423.2,312.3z M421.7,312.4c0,1.7,1.2,2.5,2.6,2.5c1.1,0,2.1-0.6,3-1.3l0,0
	l0.1,1.1h1.3v-5.6c0-2.2-1-3.7-3.1-3.7c-1.5,0-2.7,0.6-3.5,1.2l0.6,1.1c0.7-0.5,1.7-1,2.7-1c1.5,0,1.9,1.1,1.9,2.2
	C423.4,309.5,421.7,310.4,421.7,312.4z M411,308.6c0,4,2.2,6.3,5.4,6.3c1.6,0,2.7-0.7,3.7-1.8l-0.9-1c-0.8,0.9-1.7,1.4-2.8,1.4
	c-2.3,0-3.8-2-3.8-5s1.6-5,3.9-5c1,0,1.8,0.5,2.4,1.2l0.9-1c-0.7-0.8-1.9-1.5-3.3-1.5C413.3,302.4,411,304.7,411,308.6z"/>
<path class="st4" d="M459.6,309.6c0.2-1.9,1.4-2.8,2.6-2.8c1.4,0,2.2,1,2.2,2.8H459.6z M458.2,310.2c0,2.9,2,4.7,4.3,4.7
	c1.3,0,2.1-0.4,2.9-1l-0.6-1c-0.7,0.4-1.4,0.7-2.2,0.7c-1.8,0-2.9-1.3-3-3.2h6.1c0-0.2,0.1-0.5,0.1-0.9c0-2.5-1.3-4.2-3.6-4.2
	C460.1,305.5,458.2,307.3,458.2,310.2z"/>
<path class="st4" d="M469.6,314.7h1.8l1.3-4.9c0.2-0.9,0.4-1.8,0.6-2.6h0.1c0.2,0.9,0.4,1.8,0.6,2.6l1.3,4.9h1.9l2.4-9.1H478
	l-1.4,5.3c-0.2,0.9-0.4,1.7-0.6,2.5h-0.1c-0.2-0.9-0.4-1.7-0.6-2.5l-1.4-5.3h-1.5l-1.4,5.3c-0.2,0.9-0.4,1.7-0.6,2.5h-0.1
	c-0.2-0.9-0.3-1.7-0.6-2.5l-1.4-5.3H467L469.6,314.7z"/>
<path class="st3" d="M139.1,66.1c0-1.7,1.5-2.7,5.9-3.3v3.7c-1.3,1.2-2.3,1.8-3.6,1.8C140,68.2,139.1,67.7,139.1,66.1z M136.8,66.3
	c0,2.3,1.7,3.7,3.9,3.7c1.7,0,3.1-0.9,4.4-1.9h0.1l0.2,1.6h1.9v-8.1c0-3.3-1.4-5.5-4.6-5.5c-2.1,0-4,0.9-5.2,1.8l0.9,1.6
	c1.1-0.7,2.3-1.4,3.9-1.4c2.1,0,2.7,1.7,2.7,3.3C139.3,62,136.8,63.5,136.8,66.3z M119.2,68.2c1.3,1.1,3,1.9,4.9,1.9
	c3.1,0,4.9-1.8,4.9-3.9c0-2.5-2.1-3.3-4-4c-1.5-0.6-2.9-1.1-2.9-2.2c0-1,0.8-1.9,2.4-1.9c1.2,0,2.1,0.5,3,1.2l1.1-1.4
	c-1-0.8-2.4-1.5-4.1-1.5c-2.8,0-4.5,1.7-4.5,3.7c0,2.2,2,3.1,3.9,3.8c1.5,0.6,3,1.2,3,2.5c0,1.2-0.9,2-2.6,2c-1.6,0-2.7-0.7-3.9-1.6
	L119.2,68.2z M108.3,66.1c0-1.7,1.5-2.7,5.9-3.3v3.7c-1.3,1.2-2.3,1.8-3.6,1.8C109.3,68.2,108.3,67.7,108.3,66.1z M106.1,66.3
	c0,2.3,1.7,3.7,3.9,3.7c1.7,0,3.1-0.9,4.4-1.9h0.1l0.2,1.6h1.9v-8.1c0-3.3-1.4-5.5-4.6-5.5c-2.1,0-4,0.9-5.2,1.8l0.9,1.6
	c1.1-0.7,2.3-1.4,3.9-1.4c2.1,0,2.7,1.7,2.7,3.3C108.6,62,106.1,63.5,106.1,66.3z M92,69.7h2.2v-9.6c1.4-1.4,2.2-2,3.6-2
	c1.8,0,2.5,1.1,2.5,3.5v8.1h2.2v-8.4c0-3.3-1.3-5.2-4-5.2c-1.9,0-3.1,1-4.4,2.1l0.1-2.7v-5.3h-2.2L92,69.7L92,69.7z M73.1,63.2
	c0-3,1.6-5.1,3.8-5.1s3.8,2,3.8,5.1s-1.6,5.1-3.8,5.1C74.7,68.2,73.1,66.2,73.1,63.2z M70.9,63.2c0,4.4,2.8,6.9,6.1,6.9
	c3.2,0,6.1-2.5,6.1-6.9s-2.8-6.9-6.1-6.9S70.9,58.7,70.9,63.2z M57.1,69.7h2.2v-9.6c1.4-1.4,2.2-2,3.6-2c1.8,0,2.5,1.1,2.5,3.5v8.1
	h2.2v-8.4c0-3.3-1.3-5.2-4-5.2c-1.9,0-3.1,1-4.4,2.1l0.1-2.7v-5.3h-2.2L57.1,69.7L57.1,69.7z M37.9,69.7h2.7L43.3,59
	c0.3-1.4,0.6-2.6,0.9-4h0.1c0.3,1.4,0.6,2.6,0.9,4l2.7,10.7h2.7L54.3,52h-2.2l-1.9,9.7c-0.3,1.9-0.7,3.8-1,5.8h-0.1
	c-0.4-2-0.9-3.9-1.3-5.8L45.5,52h-2L41,61.6c-0.6,1.9-1,3.8-1.4,5.8h-0.1c-0.4-2-0.7-3.8-1.1-5.8L36.6,52h-2.3L37.9,69.7z"/>
<path class="st3" d="M162.3,63.2c0,4.4,2.7,6.9,6.1,6.9c1.6,0,3.1-0.7,4.3-1.8l-1-1.5c-0.8,0.7-1.9,1.4-3.1,1.4
	c-2.4,0-4.1-2-4.1-5.1s1.8-5.1,4.1-5.1c1.1,0,1.9,0.5,2.6,1.2l1.1-1.5c-0.9-0.9-2.1-1.6-3.8-1.6C165.2,56.3,162.3,58.7,162.3,63.2z
	 M150.4,63.2c0,4.4,2.7,6.9,6.1,6.9c1.6,0,3.1-0.7,4.3-1.8l-1-1.5c-0.8,0.7-1.9,1.4-3.1,1.4c-2.4,0-4.1-2-4.1-5.1s1.8-5.1,4.1-5.1
	c1.1,0,1.9,0.5,2.6,1.2l1.1-1.5c-0.9-0.9-2.1-1.6-3.8-1.6C153.4,56.3,150.4,58.7,150.4,63.2z"/>
<path class="st3" d="M210.7,68.3c0,1,0.8,1.7,1.7,1.7s1.6-0.7,1.6-1.7c0-1.1-0.8-1.8-1.6-1.8C211.5,66.6,210.7,67.4,210.7,68.3z
	 M210.7,58.6c0,1,0.8,1.7,1.7,1.7s1.6-0.7,1.6-1.7c0-1.1-0.8-1.8-1.6-1.8C211.5,56.8,210.7,57.5,210.7,58.6z M198.3,68.2
	c1.3,1.1,3,1.9,4.9,1.9c3.1,0,4.9-1.8,4.9-3.9c0-2.5-2.1-3.3-4-4c-1.5-0.6-2.9-1.1-2.9-2.2c0-1,0.8-1.9,2.4-1.9c1.2,0,2.1,0.5,3,1.2
	l1.1-1.4c-1-0.8-2.4-1.5-4.1-1.5c-2.8,0-4.5,1.7-4.5,3.7c0,2.2,2,3.1,3.9,3.8c1.5,0.6,3,1.2,3,2.5c0,1.2-0.9,2-2.6,2
	c-1.6,0-2.7-0.7-3.9-1.6L198.3,68.2z M187,68.2c1.3,1.1,3,1.9,4.9,1.9c3.1,0,4.9-1.8,4.9-3.9c0-2.5-2.1-3.3-4-4
	c-1.5-0.6-2.9-1.1-2.9-2.2c0-1,0.8-1.9,2.4-1.9c1.2,0,2.1,0.5,3,1.2l1.1-1.4c-1-0.8-2.4-1.5-4.1-1.5c-2.8,0-4.5,1.7-4.5,3.7
	c0,2.2,2,3.1,3.9,3.8c1.5,0.6,3,1.2,3,2.5c0,1.2-0.9,2-2.6,2c-1.6,0-2.7-0.7-3.9-1.6L187,68.2z M176.2,62.1c0.3-2.6,2-4.2,3.8-4.2
	c2,0,3.2,1.5,3.2,4.2H176.2z M174.1,63.2c0,4.3,2.8,6.9,6.3,6.9c1.8,0,3.2-0.6,4.4-1.4l-0.8-1.5c-1,0.6-2,1.1-3.3,1.1
	c-2.5,0-4.2-1.8-4.4-4.7h8.9c0.1-0.3,0.1-0.8,0.1-1.3c0-3.8-1.9-6.1-5.3-6.1C177,56.3,174.1,58.9,174.1,63.2z"/>
<path class="st6" d="M94.9,308.8l1-0.5c-1.5-2.3-2.1-5.2-2.1-8c0-2.8,0.7-5.7,2.1-8l-1-0.5c-1.6,2.5-2.4,5.2-2.4,8.5
	C92.4,303.6,93.4,306.3,94.9,308.8z"/>
<path class="st6" d="M133.6,308.4l1,0.5c1.6-2.5,2.4-5.2,2.4-8.5c0-3.3-0.9-5.9-2.4-8.5l-1,0.5c1.5,2.3,2.1,5.2,2.1,8
	C135.7,303.2,135,306.1,133.6,308.4z M126.9,305.6h1.6c0.2-4.6,0.8-7.3,3.6-10.9v-1h-7.6v1.4h5.9C128,298.3,127.2,301.1,126.9,305.6
	z M116.6,303.7c0,1.4,0.5,2,1.7,2c0.4,0,0.7-0.1,0.9-0.2l-0.2-1.2c-0.2,0-0.2,0-0.3,0c-0.2,0-0.4-0.2-0.4-0.7v-11.5h-1.6
	L116.6,303.7L116.6,303.7z M106.4,302.3c0,2.3,0.9,3.5,2.7,3.5c1.3,0,2.1-0.7,2.9-1.7h0.1l0.1,1.4h1.3v-9h-1.6v6.4
	c-0.9,1.1-1.5,1.6-2.4,1.6c-1.2,0-1.7-0.7-1.7-2.4v-5.6h-1.6L106.4,302.3L106.4,302.3z M96.7,303.8c0.7,1.3,1.8,2,3.3,2
	c2.4,0,3.3-1.8,3.3-3.8v-8.6h-1.6v8.5c0,1.9-0.7,2.6-2,2.6c-0.9,0-1.6-0.4-2.1-1.4L96.7,303.8z"/>
<polyline class="st7" points="37.3,148.3 559.9,148.3 559.9,147.3 37.3,147.3 "/>
<polyline class="st7" points="37.3,201.9 559.9,201.9 559.9,200.9 37.3,200.9 "/>
<path class="st3" d="M77.9,302.3c0,3,1.9,4.7,4.2,4.7c1.1,0,2.1-0.5,2.9-1.2l-0.7-1c-0.6,0.5-1.3,0.9-2.1,0.9
	c-1.7,0-2.8-1.4-2.8-3.4s1.2-3.5,2.8-3.5c0.7,0,1.3,0.3,1.9,0.8l0.8-1c-0.6-0.6-1.5-1.1-2.6-1.1C80,297.6,77.9,299.2,77.9,302.3z
	 M74,306.8h1.6v-9.1H74V306.8z M74.8,295.9c0.6,0,1.1-0.4,1.1-1s-0.5-1-1.1-1s-1.1,0.4-1.1,1C73.8,295.5,74.2,295.9,74.8,295.9z
	 M69.3,305c0,1.4,0.5,2,1.7,2c0.4,0,0.7-0.1,0.9-0.2l-0.2-1.2c-0.2,0-0.2,0-0.3,0c-0.2,0-0.4-0.2-0.4-0.7v-11.4h-1.6L69.3,305
	L69.3,305z M60.6,304.8V300c0.9-0.8,1.7-1.3,2.4-1.3c1.8,0,2.3,1.4,2.3,3.3c0,2.2-1.1,3.6-2.5,3.6C62.1,305.8,61.3,305.5,60.6,304.8
	z M59,306.8h1.3l0.1-0.9h0.1c0.8,0.7,1.8,1.1,2.5,1.1c2,0,3.9-1.8,3.9-4.9c0-2.8-1.3-4.6-3.6-4.6c-1,0-2,0.6-2.8,1.3v-1.7v-3.6h-1.6
	L59,306.8L59,306.8z M48.8,303.5c0,2.3,0.9,3.5,2.7,3.5c1.3,0,2.1-0.7,2.9-1.7h0.1l0.1,1.4h1.3v-9.1h-1.6v6.4
	c-0.9,1.1-1.5,1.6-2.4,1.6c-1.2,0-1.7-0.7-1.7-2.4v-5.6h-1.6L48.8,303.5L48.8,303.5z M40,300.7v-4.9h2c2.1,0,3.1,0.6,3.1,2.3
	s-1,2.5-3.1,2.5H40z M38.4,306.8H40V302h2.1c2.6,0,4.5-1.2,4.5-3.8c0-2.6-1.8-3.6-4.5-3.6h-3.7V306.8z"/>
<path class="st8" d="M48.9,249.2l0.6-0.6l-1.9-1.9c-0.2-0.2-0.3-0.4-0.3-0.6s0.1-0.5,0.3-0.6l3.5-3.5c0.2-0.2,0.4-0.3,0.6-0.3
	s0.5,0.1,0.6,0.3l1.9,1.9c0.2,0.2,0.3,0.4,0.3,0.6s-0.1,0.5-0.3,0.6l-3.5,3.5c-0.2,0.2-0.4,0.3-0.6,0.3c-0.2,0-0.5-0.1-0.6-0.3
	L48.9,249.2l-0.6,0.6c0.5,0.5,1.2,0.8,1.9,0.8s1.3-0.3,1.9-0.8l3.5-3.5c0.5-0.5,0.8-1.2,0.8-1.9s-0.3-1.3-0.8-1.9l-1.9-1.9
	c-0.5-0.5-1.2-0.8-1.9-0.8s-1.3,0.3-1.9,0.8l-3.5,3.5c-0.5,0.5-0.8,1.2-0.8,1.9s0.3,1.3,0.8,1.9l1.9,1.9L48.9,249.2z"/>
<path class="st8" d="M41.2,257l0.6-0.6l-1.9-1.9c-0.2-0.2-0.3-0.4-0.3-0.6c0-0.2,0.1-0.5,0.3-0.6l3.5-3.5c0.2-0.2,0.4-0.3,0.6-0.3
	s0.5,0.1,0.6,0.3l1.9,1.9c0.2,0.2,0.3,0.4,0.3,0.6c0,0.2-0.1,0.5-0.3,0.6l-3.5,3.5c-0.2,0.2-0.4,0.3-0.6,0.3c-0.2,0-0.5-0.1-0.6-0.3
	L41.2,257l-0.6,0.6c0.5,0.5,1.2,0.8,1.9,0.8s1.3-0.3,1.9-0.8l3.5-3.5c0.5-0.5,0.8-1.2,0.8-1.9c0-0.7-0.3-1.3-0.8-1.9l-1.9-1.9
	c-0.5-0.5-1.2-0.8-1.9-0.8s-1.3,0.3-1.9,0.8l-3.5,3.5c-0.5,0.5-0.8,1.2-0.8,1.9c0,0.7,0.3,1.3,0.8,1.9l1.9,1.9L41.2,257z"/>
<polyline class="st8" points="50,244.7 42.6,252.1 43.9,253.3 51.2,245.9 "/>
<polygon class="st9" points="69.7,3.1 90,23.4 49.4,23.4 "/>
<polyline class="st7" points="9,91.7 587.2,91.7 587.2,90.8 9,90.8 "/>
<polyline class="st7" points="34.3,271.2 559.9,271.2 559.9,270.2 34.3,270.2 "/>
<polyline class="st7" points="34.3,348.2 559.9,348.2 559.9,347.2 34.3,347.2 "/>
<polygon class="st10" points="501.1,315.5 491.7,306.1 510.5,306.1 "/>
<rect x="539.5" y="297.1" transform="matrix(0.7071 -0.7071 0.7071 0.7071 -59.3125 472.8196)" class="st11" width="3.1" height="21.8"/>
<rect x="530.2" y="306.5" transform="matrix(0.7071 -0.7071 0.7071 0.7071 -59.3529 472.8524)" class="st11" width="21.8" height="3.1"/>
<circle class="st8" cx="43" cy="120.5" r="3.5"/>
<path class="st8" d="M47.7,127.1c0-1.2-0.8-2.2-1.9-2.2h-5.4c-1,0-1.9,1-1.9,2.2v8.1h9.1C47.7,135.2,47.7,127.1,47.7,127.1z"/>
<circle class="st8" cx="52.4" cy="124.2" r="2.5"/>
<path class="st8" d="M55.7,129.4c0-0.9-0.6-1.6-1.4-1.6h-3.9c-0.7,0-1.4,0.7-1.4,1.6v5.9h6.5L55.7,129.4L55.7,129.4z"/>
<polygon class="st1" points="69.4,3.8 90.7,25 48.3,25 "/>
</svg>
