<svg id="Layer_1" data-name="Layer 1" xmlns="http://www.w3.org/2000/svg" viewBox="0 0 186.67 142.08"><defs><style>.cls-1{fill:#5a69a0;}</style></defs><title>self-host</title><circle class="cls-1" cx="30.75" cy="42.59" r="3.95"/><circle class="cls-1" cx="17.25" cy="42.59" r="3.95"/><circle class="cls-1" cx="3.65" cy="42.59" r="3.95"/><circle class="cls-1" cx="30.75" cy="83.3" r="3.95"/><circle class="cls-1" cx="17.25" cy="83.3" r="3.95"/><circle class="cls-1" cx="3.65" cy="83.3" r="3.95"/><circle class="cls-1" cx="30.75" cy="124.01" r="3.95"/><circle class="cls-1" cx="17.25" cy="124.01" r="3.95"/><circle class="cls-1" cx="3.65" cy="124.01" r="3.95"/><circle class="cls-1" cx="3.65" cy="56.09" r="3.95"/><circle class="cls-1" cx="3.65" cy="96.8" r="3.95"/><circle class="cls-1" cx="3.65" cy="69.7" r="3.95"/><circle class="cls-1" cx="3.65" cy="110.41" r="3.95"/><path class="cls-1" d="M173.33,28.89a3.24,3.24,0,0,0-3.22-3.22H43.52a3.24,3.24,0,0,0-3.22,3.22V56.82A3.24,3.24,0,0,0,43.52,60H170.11a3.24,3.24,0,0,0,3.22-3.22V28.89h0Zm-109,22.43a1.37,1.37,0,0,1-1.35,1.35H49a1.37,1.37,0,0,1-1.35-1.35V46.85A1.37,1.37,0,0,1,49,45.5H62.84a1.37,1.37,0,0,1,1.35,1.35v4.47h0.1Z"/><path class="cls-1" d="M173.33,69.39a3.24,3.24,0,0,0-3.22-3.22H43.52a3.24,3.24,0,0,0-3.22,3.22V97.32a3.24,3.24,0,0,0,3.22,3.22H170.11a3.24,3.24,0,0,0,3.22-3.22V69.39h0Zm-109,24.51a1.37,1.37,0,0,1-1.35,1.35H49a1.37,1.37,0,0,1-1.35-1.35V89.43A1.37,1.37,0,0,1,49,88.08H62.84a1.37,1.37,0,0,1,1.35,1.35v4.47h0.1Z"/><path class="cls-1" d="M173.33,110.93a3.24,3.24,0,0,0-3.22-3.22H43.52a3.24,3.24,0,0,0-3.22,3.22v27.94a3.24,3.24,0,0,0,3.22,3.22H170.11a3.24,3.24,0,0,0,3.22-3.22V110.93h0Zm-109,23.47a1.37,1.37,0,0,1-1.35,1.35H49a1.37,1.37,0,0,1-1.35-1.35v-4.47A1.37,1.37,0,0,1,49,128.58H62.84a1.37,1.37,0,0,1,1.35,1.35v4.47h0.1Z"/></svg>