<?xml version="1.0" encoding="utf-8"?>
<!-- Generator: Adobe Illustrator 19.2.0, SVG Export Plug-In . SVG Version: 6.00 Build 0)  -->
<svg version="1.1" id="Layer_1" xmlns="http://www.w3.org/2000/svg" xmlns:xlink="http://www.w3.org/1999/xlink" x="0px" y="0px"
	 viewBox="0 0 166.9 151.6" style="enable-background:new 0 0 166.9 151.6;" xml:space="preserve">
<style type="text/css">
	.st0{fill:#5A69A0;}
	.st1{fill:#A8B6DD;}
</style>
<g>
	<g>
		<circle class="st0" cx="29.6" cy="16.3" r="3.8"/>
		<circle class="st0" cx="16.6" cy="16.3" r="3.8"/>
		<circle class="st0" cx="3.5" cy="16.3" r="3.8"/>
		<circle class="st0" cx="29.6" cy="55.5" r="3.8"/>
		<circle class="st0" cx="16.6" cy="55.5" r="3.8"/>
		<circle class="st0" cx="3.5" cy="55.5" r="3.8"/>
		<circle class="st0" cx="29.6" cy="94.7" r="3.8"/>
		<circle class="st0" cx="16.6" cy="94.7" r="3.8"/>
		<circle class="st0" cx="3.5" cy="94.7" r="3.8"/>
		<circle class="st0" cx="3.5" cy="29.3" r="3.8"/>
		<circle class="st0" cx="3.5" cy="68.5" r="3.8"/>
		<circle class="st0" cx="3.5" cy="42.4" r="3.8"/>
		<circle class="st0" cx="3.5" cy="81.6" r="3.8"/>
		<g>
			<g>
				<path class="st0" d="M166.9,3.1c0-1.7-1.4-3.1-3.1-3.1H41.9c-1.7,0-3.1,1.4-3.1,3.1v26.9c0,1.7,1.4,3.1,3.1,3.1h121.9
					c1.7,0,3.1-1.4,3.1-3.1V3.1z M61.9,24.7c0,0.7-0.6,1.3-1.3,1.3H47.2c-0.7,0-1.3-0.6-1.3-1.3v-4.3c0-0.7,0.6-1.3,1.3-1.3h13.3
					c0.7,0,1.3,0.6,1.3,1.3V24.7z"/>
				<path class="st0" d="M166.9,42.1c0-1.7-1.4-3.1-3.1-3.1H41.9c-1.7,0-3.1,1.4-3.1,3.1v26.9c0,1.7,1.4,3.1,3.1,3.1h121.9
					c1.7,0,3.1-1.4,3.1-3.1V42.1z M61.9,65.7c0,0.7-0.6,1.3-1.3,1.3H47.2c-0.7,0-1.3-0.6-1.3-1.3v-4.3c0-0.7,0.6-1.3,1.3-1.3h13.3
					c0.7,0,1.3,0.6,1.3,1.3V65.7z"/>
				<path class="st0" d="M166.9,82.1c0-1.7-1.4-3.1-3.1-3.1H41.9c-1.7,0-3.1,1.4-3.1,3.1v26.9c0,1.7,1.4,3.1,3.1,3.1h121.9
					c1.7,0,3.1-1.4,3.1-3.1V82.1z M61.9,104.7c0,0.7-0.6,1.3-1.3,1.3H47.2c-0.7,0-1.3-0.6-1.3-1.3v-4.3c0-0.7,0.6-1.3,1.3-1.3h13.3
					c0.7,0,1.3,0.6,1.3,1.3V104.7z"/>
			</g>
		</g>
	</g>
</g>
<polygon class="st1" points="117.6,139.7 94.5,151.6 70.5,139.7 "/>
</svg>
