<?xml version="1.0" encoding="utf-8"?>
<!-- Generator: Adobe Illustrator 19.2.1, SVG Export Plug-In . SVG Version: 6.00 Build 0)  -->
<svg version="1.1" id="Layer_1" xmlns="http://www.w3.org/2000/svg" xmlns:xlink="http://www.w3.org/1999/xlink" x="0px" y="0px"
	 viewBox="0 0 118 93.5" style="enable-background:new 0 0 118 93.5;" xml:space="preserve">
<style type="text/css">
	.st0{fill:#4C4277;}
	.st1{fill:#DEDDEF;}
	.st2{fill:#C9C8E0;}
	.st3{fill:#B5B5D6;}
</style>
<g>
	<g>
		<g>
			<polygon class="st0" points="63.4,20.2 36.2,20.2 36.2,74.2 78.7,74.2 78.7,35.2 			"/>
		</g>
		<polygon class="st1" points="63.6,35.8 78.9,35.4 63.6,20.5 		"/>
	</g>
	<polygon class="st2" points="86.6,78.1 86.6,79.9 85,79.9 85,81.2 87.8,81.2 87.8,78.1 	"/>
	<path class="st2" d="M39.4,79.9h-5.1v1.3h5.1V79.9z M49.6,79.9h-5.1v1.3h5.1V79.9L49.6,79.9z M59.6,79.9h-5v1.3h5.1L59.6,79.9
		L59.6,79.9z M69.8,79.9h-5.1v1.3h5.1V79.9z M79.9,79.9h-5.1v1.3h5.1V79.9z"/>
	<polygon class="st2" points="30.6,79.9 28.4,79.9 28.4,78.1 27.2,78.1 27.2,81.2 30.6,81.2 	"/>
	<path class="st2" d="M28.4,27.2v-4.6h-1.3v4.6H28.4L28.4,27.2z M28.4,36.5v-4.6h-1.3v4.6H28.4z M28.4,45.8v-4.6h-1.3v4.6H28.4
		L28.4,45.8z M28.4,55.1v-4.6h-1.3v4.6H28.4z M28.4,64.3v-4.6h-1.3v4.6H28.4z M28.4,73.6V69h-1.3v4.6H28.4z"/>
	<polygon class="st2" points="28.4,16.3 28.4,14.6 30.6,14.6 30.6,13.3 27.2,13.3 27.2,16.3 	"/>
	<path class="st2" d="M76.1,14.6h5.1v-1.3h-5.1V14.6z M66,14.6H71v-1.3H66V14.6z M55.8,14.6h5.1v-1.3h-5.1V14.6z M45.7,14.6h5.1
		v-1.3h-5.1V14.6z M35.7,14.6h5.1v-1.3h-5.1V14.6z"/>
	<path class="st2" d="M86.6,67.2v4.6h1.3v-4.6H86.6z M86.6,58v4.6h1.3V58H86.6z M86.6,48.8v4.6h1.3v-4.6H86.6z M86.6,39.4V44h1.3
		v-4.6H86.6z M86.6,30.2v4.6h1.3v-4.6H86.6z M86.6,21v4.6h1.3V21H86.6z"/>
	<path class="st3" d="M90.6,13.4v-2.3c0-1.6-1.5-2.8-3.3-2.8s-3.3,1.3-3.3,2.8v2.3h-1.2v1.2v2.3v1.4c0,0.6,0.8,1.1,1.4,1.1h6.3
		c0.6,0,1.4-0.4,1.4-1.1v-1.4v-2.3v-1.2C91.8,13.4,90.6,13.4,90.6,13.4z M87.2,9.5c1.2,0,2.2,0.9,2.2,1.9v1.9h-4.3v-1.9
		C85.1,10.3,86,9.5,87.2,9.5z"/>
</g>
</svg>
