<?xml version="1.0" encoding="utf-8"?>
<!-- Generator: Adobe Illustrator 19.2.1, SVG Export Plug-In . SVG Version: 6.00 Build 0)  -->
<svg version="1.1" id="Layer_1" xmlns="http://www.w3.org/2000/svg" xmlns:xlink="http://www.w3.org/1999/xlink" x="0px" y="0px"
	 viewBox="0 0 121 93.5" style="enable-background:new 0 0 121 93.5;" xml:space="preserve">
<style type="text/css">
	.st0{fill:#B5B5D6;}
	.st1{fill:#4C4277;}
</style>
<g>
	<g>
		<circle class="st0" cx="28.8" cy="27" r="1.9"/>
		<circle class="st0" cx="22.4" cy="27" r="1.9"/>
		<circle class="st0" cx="15.9" cy="27" r="1.9"/>
		<circle class="st0" cx="28.8" cy="46.3" r="1.9"/>
		<circle class="st0" cx="22.4" cy="46.3" r="1.9"/>
		<circle class="st0" cx="15.9" cy="46.3" r="1.9"/>
		<circle class="st0" cx="28.8" cy="65.7" r="1.9"/>
		<circle class="st0" cx="22.4" cy="65.7" r="1.9"/>
		<circle class="st0" cx="15.9" cy="65.7" r="1.9"/>
		<circle class="st0" cx="15.9" cy="33.4" r="1.9"/>
		<circle class="st0" cx="15.9" cy="52.8" r="1.9"/>
		<circle class="st0" cx="15.9" cy="39.9" r="1.9"/>
		<circle class="st0" cx="15.9" cy="59.2" r="1.9"/>
		<g>
			<path class="st1" d="M96.2,20.9c0-0.8-0.7-1.5-1.5-1.5H34.8c-0.8,0-1.5,0.7-1.5,1.5v14c0,0.8,0.7,1.5,1.5,1.5h59.9
				c0.8,0,1.5-0.7,1.5-1.5V20.9z M44,31.4c0,0.4-0.3,0.6-0.6,0.6h-5.9c-0.4,0-0.6-0.3-0.6-0.6v-2.3c0-0.4,0.3-0.6,0.6-0.6h5.9
				c0.4,0,0.6,0.3,0.6,0.6V31.4z"/>
			<path class="st1" d="M96.2,40.7c0-0.8-0.7-1.5-1.5-1.5H34.8c-0.8,0-1.5,0.7-1.5,1.5v14c0,0.8,0.7,1.5,1.5,1.5h59.9
				c0.8,0,1.5-0.7,1.5-1.5V40.7z M44,51.2c0,0.4-0.3,0.6-0.6,0.6h-5.9c-0.4,0-0.6-0.3-0.6-0.6v-2.3c0-0.4,0.3-0.6,0.6-0.6h5.9
				c0.4,0,0.6,0.3,0.6,0.6V51.2z"/>
			<path class="st1" d="M96.2,59.6c0-0.8-0.7-1.5-1.5-1.5H34.8c-0.8,0-1.5,0.7-1.5,1.5v14c0,0.8,0.7,1.5,1.5,1.5h59.9
				c0.8,0,1.5-0.7,1.5-1.5V59.6z M44,71c0,0.4-0.3,0.6-0.6,0.6h-5.9c-0.4,0-0.6-0.3-0.6-0.6v-2.3c0-0.4,0.3-0.6,0.6-0.6h5.9
				c0.4,0,0.6,0.3,0.6,0.6V71z"/>
		</g>
	</g>
</g>
</svg>
