<?xml version="1.0" encoding="utf-8"?>
<!-- Generator: Adobe Illustrator 18.1.1, SVG Export Plug-In . SVG Version: 6.00 Build 0)  -->
<!DOCTYPE svg PUBLIC "-//W3C//DTD SVG 1.1//EN" "http://www.w3.org/Graphics/SVG/1.1/DTD/svg11.dtd">
<svg version="1.1" id="Layer_1" xmlns="http://www.w3.org/2000/svg" xmlns:xlink="http://www.w3.org/1999/xlink" x="0px" y="0px"
	 viewBox="0 0 960 560" style="enable-background:new 0 0 960 560;" xml:space="preserve">
<path style="opacity:0.5;fill:#878687;enable-background:new    ;" d="M924.3,406.6H46.1c-16.3,0-29.7-13.4-29.7-29.7V195.6
	c0-16.3,13.4-29.7,29.7-29.7h878.3c16.3,0,29.7,13.4,29.7,29.7v181.3C954.1,393.2,940.7,406.6,924.3,406.6z"/>
<path style="fill:#F5DFF7;" d="M919.6,401.9H41.3c-16.3,0-29.7-13.4-29.7-29.7V190.8c0-16.3,13.4-29.7,29.7-29.7h878.3
	c16.3,0,29.7,13.4,29.7,29.7v181.3C949.3,388.5,935.9,401.9,919.6,401.9z"/>
<g>
	<rect x="153.7" y="228.6" style="fill:none;" width="843.8" height="228.9"/>
	<g style="enable-background:new    ;">
		<path style="fill:#783189;" d="M301.1,242.4h-29.2v-5.6h64.7v5.6h-29.1v86.1h-6.4V242.4z"/>
		<path style="fill:#783189;" d="M346.1,261.8h5.3l0.6,12.4h0.4c4.4-8.2,11-14,18.9-14c2.5,0,4.4,0.3,6.7,1.4l-1.4,5.6
			c-2.2-0.8-3.5-1.1-6.1-1.1c-6,0-13.1,4.6-18.2,17.1v45.5h-6.1V261.8z"/>
		<path style="fill:#783189;" d="M391.3,353.3c8.2,0,13.8-7.5,17.1-17.7l1.8-5.8l-27.4-68h6.7l16.1,42c2.1,5.6,4.7,12.8,7.2,18.6
			h0.6c2.1-5.8,4.3-13.1,6.1-18.6l14.3-42h6.3l-26.4,75.1c-3.8,11.1-10.4,22.1-22.4,22.1c-2.5,0-5-0.6-6.8-1.4l1.4-5.4
			C387.3,352.7,389.4,353.3,391.3,353.3z"/>
		<path style="fill:#783189;" d="M479.9,240.2c0-3.5,2.5-5.6,5.6-5.6s5.6,2.1,5.6,5.6c0,3.2-2.5,5.4-5.6,5.4
			S479.9,243.4,479.9,240.2z M482.3,261.8h6.1v66.7h-6.1V261.8z"/>
		<path style="fill:#783189;" d="M515.6,267h-10.4v-4.7l10.6-0.6l0.8-19.3h5.3v19.3h19.3v5.3h-19.3v43.5c0,8.5,2.1,14.2,11.3,14.2
			c2.5,0,6-1,8.3-2.1l1.7,5c-3.9,1.4-8.1,2.5-10.8,2.5c-12.9,0-16.7-8.2-16.7-20.2V267z"/>
		<path style="fill:#783189;" d="M585.1,261.8h5.3L591,272h0.4c6.8-6.8,13.8-12,22.9-12c13.8,0,20.2,8.3,20.2,25.6v42.8h-6.1v-42
			c0-14.2-4.4-20.9-15.3-20.9c-7.9,0-13.6,4.2-21.8,12.5v50.3h-6.1V261.8z"/>
		<path style="fill:#783189;" d="M683.5,260.1c16.1,0,30,12.8,30,35.2c0,22.1-13.9,34.9-30,34.9c-16,0-29.9-12.8-29.9-34.9
			C653.6,272.9,667.5,260.1,683.5,260.1z M683.5,324.8c13.5,0,23.6-12,23.6-29.5c0-17.7-10.2-29.8-23.6-29.8S660,277.6,660,295.3
			C660,312.8,670,324.8,683.5,324.8z"/>
		<path style="fill:#783189;" d="M724.1,261.8h6.7l12,43.2c1.7,6.1,3.2,11.8,4.6,17.8h0.6c1.5-6,3.2-11.7,4.9-17.8l12.1-43.2h7.4
			l12.1,43.2c1.7,6.1,3.3,11.8,5,17.8h0.6c1.5-6,3.2-11.7,4.7-17.8l11.8-43.2h6.3l-19.2,66.7h-8.1l-11.7-41.4
			c-1.9-6.4-3.2-12.5-5.1-19.1H768c-1.5,6.5-3.2,12.9-5.3,19.3l-11.5,41.2h-7.4L724.1,261.8z"/>
		<path style="fill:#783189;" d="M861.7,317.5c3.1,0,5.8,2.4,5.8,6.4c0,3.9-2.8,6.3-5.8,6.3c-3.1,0-6-2.4-6-6.3
			C855.7,319.9,858.6,317.5,861.7,317.5z M858.5,245.2v-9.9h6.4l-0.1,9.9l-0.8,58.4h-4.6L858.5,245.2z"/>
	</g>
</g>
<rect x="79.4" y="245.2" style="fill:#783189;" width="26.2" height="26.2"/>
<rect x="79.4" y="269" style="fill:#783189;" width="26.2" height="26.2"/>
<rect x="79.4" y="292.8" style="fill:#783189;" width="26.2" height="26.2"/>
<rect x="79.4" y="316.6" style="fill:#783189;" width="26.2" height="26.2"/>
<rect x="109.4" y="236" style="fill:#783189;" width="6.5" height="6.5"/>
<rect x="109.4" y="241.7" style="fill:#783189;" width="6.5" height="6.5"/>
<rect x="109.4" y="247.6" style="fill:#783189;" width="6.5" height="6.5"/>
<rect x="109.4" y="253.5" style="fill:#783189;" width="6.5" height="6.5"/>
<rect x="115.3" y="236" style="fill:#783189;" width="6.5" height="6.5"/>
<rect x="115.3" y="241.7" style="fill:#783189;" width="6.5" height="6.5"/>
<rect x="115.3" y="247.6" style="fill:#783189;" width="6.5" height="6.5"/>
<rect x="115.3" y="253.5" style="fill:#783189;" width="6.5" height="6.5"/>
<rect x="123" y="232.7" style="fill:#783189;" width="6.5" height="6.5"/>
<rect x="121.3" y="241.7" style="fill:#783189;" width="6.5" height="6.5"/>
<rect x="121.3" y="247.6" style="fill:#783189;" width="6.5" height="6.5"/>
<rect x="121.3" y="253.5" style="fill:#783189;" width="6.5" height="6.5"/>
<rect x="155.4" y="199.5" style="fill:#783189;" width="6.5" height="6.5"/>
<rect x="129.6" y="239.3" style="fill:#783189;" width="6.5" height="6.5"/>
<rect x="127.2" y="247.6" style="fill:#783189;" width="6.5" height="6.5"/>
<rect x="127.2" y="253.5" style="fill:#783189;" width="6.5" height="6.5"/>
<rect x="103.1" y="269" style="fill:#783189;" width="26.2" height="26.2"/>
<rect x="103.1" y="292.8" style="fill:#783189;" width="26.2" height="26.2"/>
<rect x="103.1" y="316.6" style="fill:#783189;" width="26.2" height="26.2"/>
<rect x="141.2" y="228" style="fill:#783189;" width="6.5" height="6.5"/>
<rect x="141.2" y="233.9" style="fill:#783189;" width="6.5" height="6.5"/>
<rect x="141.2" y="239.9" style="fill:#783189;" width="6.5" height="6.5"/>
<rect x="141.2" y="245.8" style="fill:#783189;" width="6.5" height="6.5"/>
<rect x="149.8" y="222.3" style="fill:#783189;" width="6.5" height="6.5"/>
<rect x="147.1" y="233.9" style="fill:#783189;" width="6.5" height="6.5"/>
<rect x="147.1" y="239.9" style="fill:#783189;" width="6.5" height="6.5"/>
<rect x="147.1" y="245.8" style="fill:#783189;" width="6.5" height="6.5"/>
<rect x="183.1" y="187" style="fill:#783189;" width="6.5" height="6.5"/>
<rect x="156.9" y="229.5" style="fill:#783189;" width="6.5" height="6.5"/>
<rect x="153.1" y="239.9" style="fill:#783189;" width="6.5" height="6.5"/>
<rect x="153.1" y="245.8" style="fill:#783189;" width="6.5" height="6.5"/>
<rect x="210.4" y="187" style="fill:#783189;" width="6.5" height="6.5"/>
<rect x="195.6" y="200.6" style="fill:#783189;" width="6.5" height="6.5"/>
<rect x="163.8" y="236.3" style="fill:#783189;" width="6.5" height="6.5"/>
<rect x="158.7" y="245.8" style="fill:#783189;" width="6.5" height="6.5"/>
<rect x="134.6" y="261.3" style="fill:#783189;" width="6.5" height="6.5"/>
<rect x="134.6" y="267.2" style="fill:#783189;" width="6.5" height="6.5"/>
<rect x="134.6" y="273.2" style="fill:#783189;" width="6.5" height="6.5"/>
<rect x="134.6" y="279.1" style="fill:#783189;" width="6.5" height="6.5"/>
<rect x="140.6" y="261.3" style="fill:#783189;" width="6.5" height="6.5"/>
<rect x="140.6" y="267.2" style="fill:#783189;" width="6.5" height="6.5"/>
<rect x="140.6" y="273.2" style="fill:#783189;" width="6.5" height="6.5"/>
<rect x="140.6" y="279.1" style="fill:#783189;" width="6.5" height="6.5"/>
<rect x="148.9" y="258.3" style="fill:#783189;" width="6.5" height="6.5"/>
<rect x="146.5" y="267.2" style="fill:#783189;" width="6.5" height="6.5"/>
<rect x="146.5" y="273.2" style="fill:#783189;" width="6.5" height="6.5"/>
<rect x="146.5" y="279.1" style="fill:#783189;" width="6.5" height="6.5"/>
<rect x="184.6" y="229.2" style="fill:#783189;" width="6.5" height="6.5"/>
<rect x="155.1" y="264.8" style="fill:#783189;" width="6.5" height="6.5"/>
<rect x="152.5" y="273.2" style="fill:#783189;" width="6.5" height="6.5"/>
<rect x="152.5" y="279.1" style="fill:#783189;" width="6.5" height="6.5"/>
<rect x="126.9" y="292.8" style="fill:#783189;" width="26.2" height="26.2"/>
<rect x="126.9" y="316.6" style="fill:#783189;" width="26.2" height="26.2"/>
<rect x="174.2" y="221.7" style="fill:#783189;" width="6.5" height="6.5"/>
<rect x="174.2" y="227.4" style="fill:#783189;" width="6.5" height="6.5"/>
<rect x="174.2" y="233.3" style="fill:#783189;" width="6.5" height="6.5"/>
<rect x="174.2" y="239.3" style="fill:#783189;" width="6.5" height="6.5"/>
<rect x="180.1" y="227.4" style="fill:#783189;" width="6.5" height="6.5"/>
<rect x="180.1" y="233.3" style="fill:#783189;" width="6.5" height="6.5"/>
<rect x="180.1" y="239.3" style="fill:#783189;" width="6.5" height="6.5"/>
<g>
	<g>
		<g>
			<g>
				<rect id="SVGID_3_" x="200" y="217" style="fill:#783189;" width="6.5" height="6.5"/>
			</g>
			<g>
				<defs>
					<rect id="SVGID_1_" x="200" y="217" width="6.5" height="6.5"/>
				</defs>
				<clipPath id="SVGID_2_">
					<use xlink:href="#SVGID_1_"  style="overflow:visible;"/>
				</clipPath>
				<rect x="200" y="217" style="clip-path:url(#SVGID_2_);fill:#783189;" width="6.5" height="6.5"/>
			</g>
		</g>
	</g>
</g>
<rect x="186.1" y="233.3" style="fill:#783189;" width="6.5" height="6.5"/>
<rect x="186.1" y="239.3" style="fill:#783189;" width="6.5" height="6.5"/>
<rect x="192" y="239.3" style="fill:#783189;" width="6.5" height="6.5"/>
<rect x="167.9" y="254.7" style="fill:#783189;" width="6.5" height="6.5"/>
<rect x="167.9" y="260.7" style="fill:#783189;" width="6.5" height="6.5"/>
<rect x="167.9" y="266.6" style="fill:#783189;" width="6.5" height="6.5"/>
<rect x="167.9" y="272.6" style="fill:#783189;" width="6.5" height="6.5"/>
<rect x="177.4" y="250" style="fill:#783189;" width="6.5" height="6.5"/>
<rect x="173.9" y="260.7" style="fill:#783189;" width="6.5" height="6.5"/>
<rect x="173.9" y="266.6" style="fill:#783189;" width="6.5" height="6.5"/>
<rect x="173.9" y="272.6" style="fill:#783189;" width="6.5" height="6.5"/>
<rect x="215.5" y="217.3" style="fill:#783189;" width="6.5" height="6.5"/>
<rect x="184" y="256.8" style="fill:#783189;" width="6.5" height="6.5"/>
<rect x="179.8" y="266.6" style="fill:#783189;" width="6.5" height="6.5"/>
<rect x="179.8" y="272.6" style="fill:#783189;" width="6.5" height="6.5"/>
<rect x="218.7" y="231.3" style="fill:#783189;" width="6.5" height="6.5"/>
<rect x="191.4" y="264" style="fill:#783189;" width="6.5" height="6.5"/>
<rect x="185.8" y="272.6" style="fill:#783189;" width="6.5" height="6.5"/>
<rect x="159.9" y="286.5" style="fill:#783189;" width="6.5" height="6.5"/>
<rect x="159.9" y="292.5" style="fill:#783189;" width="6.5" height="6.5"/>
<rect x="159.9" y="298.4" style="fill:#783189;" width="6.5" height="6.5"/>
<rect x="159.9" y="304.4" style="fill:#783189;" width="6.5" height="6.5"/>
<rect x="165.8" y="286.5" style="fill:#783189;" width="6.5" height="6.5"/>
<rect x="165.8" y="292.5" style="fill:#783189;" width="6.5" height="6.5"/>
<rect x="165.8" y="298.4" style="fill:#783189;" width="6.5" height="6.5"/>
<rect x="165.8" y="304.4" style="fill:#783189;" width="6.5" height="6.5"/>
<rect x="174.5" y="284.2" style="fill:#783189;" width="6.5" height="6.5"/>
<rect x="171.8" y="292.5" style="fill:#783189;" width="6.5" height="6.5"/>
<rect x="171.8" y="298.4" style="fill:#783189;" width="6.5" height="6.5"/>
<rect x="171.8" y="304.4" style="fill:#783189;" width="6.5" height="6.5"/>
<rect x="214.9" y="258.6" style="fill:#783189;" width="6.5" height="6.5"/>
<rect x="181" y="290.7" style="fill:#783189;" width="6.5" height="6.5"/>
<rect x="177.7" y="298.4" style="fill:#783189;" width="6.5" height="6.5"/>
<rect x="177.7" y="304.4" style="fill:#783189;" width="6.5" height="6.5"/>
<rect x="150.7" y="316.6" style="fill:#783189;" width="26.2" height="26.2"/>
</svg>
